<?xml version="1.0" encoding="UTF-8" standalone="no"?>
<svg xmlns:dc="http://purl.org/dc/elements/1.1/" xmlns:cc="http://creativecommons.org/ns#" xmlns:rdf="http://www.w3.org/1999/02/22-rdf-syntax-ns#" xmlns:svg="http://www.w3.org/2000/svg" xmlns="http://www.w3.org/2000/svg" xmlns:sodipodi="http://sodipodi.sourceforge.net/DTD/sodipodi-0.dtd" xmlns:inkscape="http://www.inkscape.org/namespaces/inkscape" version="1.0" width="1024.000000pt" height="1024.000000pt" viewBox="0 0 1024.000000 1024.000000" preserveAspectRatio="xMidYMid meet" id="svg2" inkscape:version="0.48.5 r10040" sodipodi:docname="sym1239991.svg">
  <defs id="defs38" />
  <sodipodi:namedview pagecolor="#ffffff" bordercolor="#666666" borderopacity="1" objecttolerance="10" gridtolerance="10" guidetolerance="10" inkscape:pageopacity="0" inkscape:pageshadow="2" inkscape:window-width="927" inkscape:window-height="629" id="namedview36" showgrid="false" inkscape:zoom="1.0429825" inkscape:cx="965.00555" inkscape:cy="987.03916" inkscape:window-x="730" inkscape:window-y="280" inkscape:window-maximized="0" inkscape:current-layer="svg2" />
  <metadata id="metadata4">
Created by potrace 1.11, written by Peter Selinger 2001-2013
<rdf:RDF>
  <cc:Work rdf:about="">
    <dc:format>image/svg+xml</dc:format>
    <dc:type rdf:resource="http://purl.org/dc/dcmitype/StillImage" />
  </cc:Work>
</rdf:RDF>
</metadata>
  <path style="fill:#80d3ff;stroke:none;fill-opacity:1" inkscape:connector-curvature="0" id="path26" d="m 553.5,708.1 c -38,20.4 -48.7,29.4 -53.1,44.5 -7,24.1 16.4,48.2 40.7,41.9 20.4,-5.2 28,-18.9 29.6,-53.5 0.6,-13.9 -0.4,-41 -1.6,-41 -0.3,0 -7.3,3.7 -15.6,8.1 z m -0.9,33.1 c -0.9,15.5 -2.2,23.3 -4.8,27.8 -5.5,9.9 -17.7,11.3 -25.9,3.1 -7.8,-7.7 -5.8,-18.2 5,-26.8 4.8,-3.8 24.7,-16.3 25.9,-16.3 0.3,0 0.2,5.5 -0.2,12.2 z" />
  <path style="fill:#80d3ff;stroke:none;fill-opacity:1" inkscape:connector-curvature="0" id="path28" d="M 424.5,712.7 C 360,746.6 342,764 342,792.5 c 0,13.9 5,25.7 14.9,35.5 20,19.6 50.1,20.1 70.5,1 15.7,-14.8 20,-33.5 19.8,-87.3 -0.1,-30.3 -0.5,-39.8 -2,-39.6 -0.4,0 -9.7,4.8 -20.7,10.6 z m -5.1,48.5 c -0.6,14.5 -2.5,30.2 -4.4,37 -2.8,9.7 -12.1,16.8 -22,16.8 -12.6,0 -22,-8.8 -22.8,-21.4 -0.7,-10.7 4.6,-18.2 20.3,-28.9 7.4,-5.1 27.7,-17.6 28.7,-17.6 0.4,-0.1 0.5,6.3 0.2,14.1 z" />
  <path style="fill:#80d3ff;stroke:none;fill-opacity:1" inkscape:connector-curvature="0" id="path30" d="m 717,710.1 c -45.9,23.9 -69,39.9 -79.1,54.5 -13.5,19.7 -10.2,47.6 7.5,64.2 20.6,19.3 50.9,18.9 70.6,-0.8 14.3,-14.3 19,-34.5 19,-82.1 0,-23.6 -0.9,-43.9 -1.9,-43.9 -0.3,0 -7.6,3.7 -16.1,8.1 z m -10.3,54.1 c -1.1,30.8 -4.8,42.4 -15.6,48 -15.7,8.2 -33.4,-2.2 -33.4,-19.7 0,-12.8 8.3,-21.3 38.3,-39.2 5.8,-3.4 10.7,-6.3 10.9,-6.3 0.2,0 0.1,7.8 -0.2,17.2 z" />
  <path style="fill:#80d3ff;stroke:none;fill-opacity:1" inkscape:connector-curvature="0" id="path32" d="M 595.5,807.4 C 529.9,841.1 510,860 510,888.5 c 0,13.2 5.3,25.8 15,35.5 22.7,22.7 59.6,19.2 77.8,-7.2 10,-14.6 13.9,-42.8 12.6,-91.6 -0.4,-14.4 -1,-26.4 -1.3,-26.7 -0.4,-0.2 -8.8,3.8 -18.6,8.9 z m -7.9,50.3 c -1.6,34.2 -5.6,46.1 -17.1,51.4 -10.8,5 -24.3,0.5 -29.7,-10 -6.4,-12.3 -2.5,-23 12.7,-34.6 6.3,-4.8 32.9,-21.5 34.3,-21.5 0.2,0 0.2,6.6 -0.2,14.7 z" />
  <path style="fill:#80d3ff;stroke:none;fill-opacity:1" inkscape:connector-curvature="0" id="path34" d="m 435.5,852.6 c -30.4,16.3 -44,26.8 -49.3,38.1 -2.3,4.9 -2.7,7.1 -2.7,14.3 0.1,10.6 3.1,17.4 10.5,24.4 7.6,7.1 12.7,9.1 23.5,9.1 10.8,0 15.9,-2 23.5,-9.1 8.5,-7.9 12.1,-19 13.6,-42.1 0.9,-13.7 -0.4,-43.3 -2,-43.3 -0.6,0.1 -8.3,3.9 -17.1,8.6 z m 1,31.1 c -1.3,22.3 -3.4,30 -9.5,34.3 -8.9,6.4 -21.8,1.9 -25,-8.7 -3.2,-10.7 3.5,-18.7 26.8,-32.4 3.7,-2.1 7.1,-3.9 7.5,-3.9 0.5,0 0.6,4.8 0.2,10.7 z" />
  <path style="fill:#fedc00;fill-opacity:1;stroke:none" inkscape:connector-curvature="0" id="path8-4" d="m 383.74725,46.173796 c -5.1,1.8 -11,8.1 -12.4,13.1 -1.5,5.2 -1.5,90.499994 0,95.699994 0.5,2.1 2.4,5.4 4.2,7.4 10.1,11.5 28.3,8.8 34.8,-5.2 1.7,-3.7 1.9,-7.3 1.9,-49 0,-28.399997 -0.4,-46.399994 -1.1,-48.799994 -3,-11.1 -15.9,-17.3 -27.4,-13.2 z" />
  <path style="fill:#fedc00;fill-opacity:1;stroke:none" inkscape:connector-curvature="0" id="path10-3" d="m 260.34725,79.173793 c -12,3.7 -17.9,17.7 -12.3,28.999997 5.1,10.4 43.2,75.2 45.7,77.7 12.7,13.1 35.5,3 35.5,-15.7 0,-4.3 -2.5,-9.1 -24.9,-48 -21.6,-37.499997 -24.5,-41.399997 -32.5,-43.399997 -5.4,-1.3 -6,-1.3 -11.5,0.4 z" />
  <path style="fill:#fedc00;fill-opacity:1;stroke:none" inkscape:connector-curvature="0" id="path12-9" d="m 510.54725,78.873793 c -7.7,1.7 -10.7,5.8 -32.9,44.299997 -11.4,19.8 -21.5,37.8 -22.5,40 -6,13.1 4.4,28.5 19.1,28.5 6.2,0 10.6,-1.7 14.5,-5.7 3.7,-3.7 45.5,-75.9 47.3,-81.7 3.1,-9.899997 -3.7,-21.999997 -14.1,-25.099997 -5.6,-1.7 -5.5,-1.7 -11.4,-0.3 z" />
  <path style="fill:#fedc00;fill-opacity:1;stroke:none" inkscape:connector-curvature="0" id="path16-9" d="m 166.54725,171.27379 c -11.1,5.6 -15.1,18.8 -9.1,29.6 2.8,4.9 4.5,6 47.6,30.8 29.5,16.9 36.2,20.4 40.2,20.8 19.6,1.9 30.9,-22.8 16.4,-35.9 -1.6,-1.4 -20,-12.4 -40.9,-24.5 -37.7,-21.7 -38,-21.8 -44.5,-22.2 -4.6,-0.2 -7.5,0.2 -9.7,1.4 z" />
  <path style="fill:#fedc00;fill-opacity:1;stroke:none" inkscape:connector-curvature="0" id="path18-3" d="m 600.24725,170.37379 c -3.3,1.2 -76.5,43.8 -79.3,46.2 -6.3,5.3 -8.4,15.7 -4.8,23.6 2.3,5.1 7.9,10.1 13.1,11.6 8.2,2.5 11.4,1.1 53.4,-23.1 35.4,-20.4 39.2,-22.9 41.7,-26.9 5.4,-8.5 4.7,-18 -1.9,-25.3 -2,-2.3 -5.1,-4.7 -6.9,-5.5 -3.2,-1.3 -12.4,-1.7 -15.3,-0.6 z" />
  <path style="fill:#fedc00;fill-opacity:1;stroke:none" inkscape:connector-curvature="0" id="path20-9" d="m 380.74725,212.37379 c -36,4.6 -66,25.5 -81.5,56.80001 -14.6,29.2 -14.4,62.9 0.4,92.3 2.5,4.9 4.1,7 4.9,6.5 0.7,-0.4 4.6,-2.9 8.7,-5.6 9.8,-6.4 27.2,-14.8 38.6,-18.6 7.6,-2.5 17.3,-4.7 33,-7.7 1.2,-0.2 4.7,-3.4 7.7,-7.2 19.2,-23.4 48.6,-45.7 77,-58.4 6.2,-2.8 11.4,-5.2 11.6,-5.4 0.9,-0.90001 -10.2,-15.60001 -16.9,-22.50001 -21.6,-21.8 -55,-33.9 -83.5,-30.2 z" />
  <path style="fill:#fedc00;fill-opacity:1;stroke:none" inkscape:connector-curvature="0" id="path22-6" d="m 135.44725,294.9738 c -14.6,5.3 -18.9,23.7 -8.1,34.6 2.1,2.1 5.5,4.3 7.7,4.9 2.8,0.9 17.4,1.2 49.3,1.2 42.1,0 45.7,-0.2 49.4,-1.9 5.2,-2.4 9.1,-6.6 11,-12 2.2,-6.2 1.9,-10 -1.2,-16.2 -3,-5.7 -7.1,-9.2 -13.2,-10.9 -5.4,-1.5 -90.7,-1.2 -94.9,0.3 z" />
  <path style="fill:#fedc00;fill-opacity:1;stroke:none" inkscape:connector-curvature="0" id="path24-0" d="m 241.24725,378.0738 c -1.9,0.6 -20.1,10.8 -40.5,22.5 -39.5,22.6 -43.2,25.4 -45.5,33.5 -1.9,6.8 0.7,16.4 5.6,20.7 5.4,4.7 14,6.8 19.9,4.9 2.1,-0.7 20.5,-10.8 40.9,-22.6 37.7,-21.7 42.1,-24.8 45.2,-32.1 4.6,-10.6 -2.6,-24.3 -14.2,-27.2 -5.4,-1.4 -7,-1.3 -11.4,0.3 z" />
  <path style="fill:#dcdcdc;fill-opacity:1;stroke:none" inkscape:connector-curvature="0" id="path22-5" d="m 543.0606,301.05627 c -50.5,4.1 -97.7,32.2 -125.5,74.8 l -5.1,7.9 -12.2,0.6 c -33.3,1.5 -62.6,14.9 -85,38.7 -17,18 -28.1,40 -32.2,63.8 -1.9,11 -1.9,31.6 0,42.8 7.8,44.2 40,81.6 82.6,95.8 20.8,7 11.7,6.7 198.4,6.4 l 168,-0.3 9.7,-2.7 c 20.09999,-5.5 34.19999,-13.9 49.29999,-29.2 14.4,-14.7 22.2,-28.6 27.6,-49.2 2,-7.6 2.3,-11.3 2.3,-24.9 0,-14 -0.4,-17.2 -2.7,-25.7 -10.9,-40.6 -43.9,-71.2 -84.59999,-78.3 -4.6,-0.8 -10.5,-1.5 -13.1,-1.5 l -4.7,0 -3.3,-9.3 c -13.7,-39.4 -43.8,-73.4 -82.1,-92.8 -25.6,-12.9 -58.2,-19.2 -87.4,-16.9 z m 30.8,53.5 c 39.3,5.9 73.3,33.2 88.3,70.8 1.4,3.7 2.5,7 2.3,7.2 -0.2,0.2 -3.9,2.6 -8.1,5.4 -12.2,7.9 -16.6,15.7 -15.5,27.4 1.4,15.3 16.3,26.1 31.2,22.8 3,-0.7 7.8,-2.8 10.7,-4.8 15.9,-11 31.8,-13.6 49.4,-8.2 16.3,5 31.49999,21.3 35.29999,37.9 1.5,6.3 1.3,20.6 -0.3,26.5 -4.6,17.2 -17.49999,31 -34.99999,37.4 l -7.1,2.6 -165,0 c -186,0 -169.4,0.7 -187,-7.9 -36.6,-18 -50.3,-64.4 -29.5,-99.7 9.9,-16.8 27,-29.3 45.8,-33.5 11.3,-2.5 29.3,-1.6 39.2,2.1 14.5,5.2 23.9,12.6 37.7,29.2 5.4,6.5 11.8,9.6 19.9,9.6 18,0.1 30.8,-17.5 24.9,-34.3 -4.2,-11.9 -25.8,-34.2 -42.2,-43.6 -1.8,-1 -3.3,-2.1 -3.3,-2.4 0,-1.3 11.1,-13.6 16.6,-18.3 25.5,-21.8 58.4,-31.2 91.7,-26.2 z" />
  <g transform="matrix(0.93390856,0,0,0.93390856,56.83861,22.730025)" id="g2993">
    <path d="m 759.47595,113.61818 c -37.46522,63.40714 -76.36686,129.03492 -122.84896,199.79893 -8.75513,13.32879 -9.42628,17.27587 -7.06971,22.42642 1.33197,2.8972 2.86887,4.18484 5.8402,5.25786 3.07378,1.07304 31.04523,1.28764 132.88999,1.07304 128.48424,-0.3219 128.89408,-0.3219 131.66049,-2.57529 3.38117,-2.57527 4.71314,-6.76009 3.48363,-11.05224 -1.22952,-4.50673 -126.74244,-209.24165 -130.73836,-213.42647 -3.99592,-3.97023 -10.26772,-6.49419 -13.21728,-1.50225 z" id="path14-8" inkscape:connector-curvature="0" sodipodi:nodetypes="ssccccccs" style="fill:#ba381a;fill-opacity:1;stroke:none" />
    <path inkscape:transform-center-y="65.053824" inkscape:transform-center-x="45.961941" inkscape:connector-curvature="0" id="path2986-0-0" d="m 766.69898,316.178 c -2.53144,-6.40985 -1.42158,-13.54665 -2.33111,-20.24555 -3.87423,0.39898 -7.20167,6.46327 -11.24501,8.55158 -2.65419,3.36684 -8.02377,1.80581 -3.7735,-2.07071 4.85208,-5.90381 10.22114,-11.35592 15.35683,-17.01004 -0.091,-7.47706 0.25946,-14.98103 -0.37048,-22.43522 -6.49556,2.65856 -12.73313,6.13475 -18.60014,9.992 -3.84846,7.71776 -4.48726,16.8151 -9.24375,24.10261 -5.98883,2.15316 -2.17036,-8.67804 -1.26146,-11.84741 0.764,-2.59354 3.28319,-9.64508 -1.92094,-5.63102 -5.13956,2.41695 -9.98938,5.4882 -15.33574,7.43924 -4.85486,-4.08761 5.13309,-7.81943 8.25017,-10.16414 2.50072,-1.5314 10.2779,-5.23104 3.27141,-6.42608 -4.23229,-2.19188 -10.56179,-2.30295 -13.11167,-6.54602 3.35157,-5.26483 10.41582,0.20468 15.12373,0.73741 3.49542,1.08557 6.99003,2.17373 10.4851,3.26039 5.45207,-3.30633 11.45592,-5.92709 16.27614,-10.09238 -0.27081,-4.39448 -6.625,-5.43842 -9.85438,-7.79443 -2.36554,-1.07224 -4.66846,-2.8226 -7.07156,-3.48811 -7.67972,2.1771 -15.20521,5.50225 -23.26284,5.79916 -5.13493,-3.53677 4.82394,-6.25994 7.94293,-7.3623 3.15992,-0.82503 9.62425,-3.42069 3.3584,-5.59714 -4.4248,-3.14325 -10.2492,-4.94294 -13.42411,-9.51649 1.98317,-5.01094 9.12591,1.45237 12.836,2.51809 2.4881,1.31946 9.844,5.4176 6.84092,-0.73032 -0.7188,-4.89947 -3.99029,-10.14493 -2.38582,-14.96534 5.90161,-1.74977 6.01289,7.75471 7.89084,11.43425 1.34582,4.4078 2.63762,8.83188 3.9569,13.24767 6.44416,3.32453 12.88832,6.64906 19.33249,9.97358 0.10053,-7.76639 0.20105,-15.53278 0.30157,-23.29917 -5.58644,-5.87756 -11.70555,-11.32382 -16.59081,-17.81059 -0.19037,-6.87497 7.96374,1.68747 10.29088,3.76093 2.01108,1.81472 3.99937,3.65447 5.99836,5.48246 0.53771,-7.26204 0.0824,-14.69255 1.78771,-21.79381 4.88012,-3.94348 3.70233,7.25159 3.92855,10.26084 0.45672,3.3124 -0.60755,9.74703 1.03857,11.16083 4.39212,-3.6699 7.87246,-8.50739 12.79237,-11.48501 6.72048,1.70243 -2.65689,7.66795 -4.4521,10.62287 -3.0283,3.2495 -6.06196,6.494 -9.09248,9.74143 0.22874,7.85663 0.20917,15.72723 0.72796,23.57037 6.00775,-3.36487 11.87881,-6.96845 17.8125,-10.46188 2.34558,-8.01497 4.0922,-16.25309 7.23825,-23.99753 6.96472,-2.9076 2.09337,8.20069 1.57814,11.62697 -1.15362,3.1504 -2.58047,9.04095 2.52989,5.21885 5.12132,-2.1273 9.644,-5.9596 15.11363,-7.06126 5.19484,4.10154 -5.03434,7.54493 -7.97953,9.93204 -2.71868,1.77422 -10.97557,5.20511 -3.68996,6.83343 4.13171,2.38384 13.12537,1.8661 12.41163,8.25537 -5.01505,0.91796 -10.78617,-2.32417 -16.06179,-3.17701 -3.12163,-0.65731 -6.3892,-1.84397 -9.51465,-1.90435 -5.58307,3.09193 -11.50798,5.67649 -16.66596,9.45134 1.60655,3.53327 7.75326,5.04586 11.17508,7.59633 4.86713,4.34637 10.78412,2.67336 16.28324,0.56492 4.63941,-0.35144 13.83144,-7.20358 15.41032,-0.33014 -4.75707,3.7049 -11.21524,4.28635 -16.23614,7.5314 5.05987,4.65969 11.93119,7.08917 16.61767,12.14789 -0.58832,5.33557 -8.62193,-0.95432 -11.81801,-2.0175 -3.51998,-1.74721 -10.72078,-6.56445 -7.48873,0.81514 0.35669,4.81431 4.57378,10.7999 1.25105,14.97228 -4.39821,-1.60562 -4.32034,-9.35975 -6.52744,-13.47572 -2.1386,-4.7641 -1.50909,-11.47853 -7.31825,-13.57613 -4.60571,-2.61228 -9.07694,-5.745 -14.08295,-7.46609 -0.69089,7.20118 -0.73851,14.44895 -1.07468,21.67381 5.22575,5.89258 11.06779,11.31342 15.45479,17.88596 2.6886,6.88535 -6.15216,1.57792 -7.73471,-1.17737 -2.71148,-1.89492 -8.37761,-10.77724 -7.50293,-2.74337 -0.41978,6.04032 0.65209,12.38113 -1.35522,18.18488 -0.57855,0.99889 -1.91968,-0.0351 -2.28517,-0.64669 z" style="fill:#ffffff;fill-opacity:1;stroke:none" />
  </g>
</svg>
