<?xml version="1.0" encoding="UTF-8" standalone="no"?>
<svg
   xmlns:dc="http://purl.org/dc/elements/1.1/"
   xmlns:cc="http://creativecommons.org/ns#"
   xmlns:rdf="http://www.w3.org/1999/02/22-rdf-syntax-ns#"
   xmlns:svg="http://www.w3.org/2000/svg"
   xmlns="http://www.w3.org/2000/svg"
   xmlns:sodipodi="http://sodipodi.sourceforge.net/DTD/sodipodi-0.dtd"
   xmlns:inkscape="http://www.inkscape.org/namespaces/inkscape"
   version="1.0"
   width="1024.000000pt"
   height="1024.000000pt"
   viewBox="0 0 1024.000000 1024.000000"
   preserveAspectRatio="xMidYMid meet"
   id="svg2"
   inkscape:version="0.48.2 r9819"
   sodipodi:docname="1111999.png.svg">
  <defs
     id="defs34" />
  <sodipodi:namedview
     pagecolor="#ffffff"
     bordercolor="#666666"
     borderopacity="1"
     objecttolerance="10"
     gridtolerance="10"
     guidetolerance="10"
     inkscape:pageopacity="0"
     inkscape:pageshadow="2"
     inkscape:window-width="1370"
     inkscape:window-height="888"
     id="namedview32"
     showgrid="false"
     inkscape:zoom="0.36875"
     inkscape:cx="651.00784"
     inkscape:cy="636.37009"
     inkscape:window-x="1086"
     inkscape:window-y="213"
     inkscape:window-maximized="0"
     inkscape:current-layer="svg2" />
  <metadata
     id="metadata4">
Created by potrace 1.11, written by Peter Selinger 2001-2013
<rdf:RDF>
  <cc:Work
     rdf:about="">
    <dc:format>image/svg+xml</dc:format>
    <dc:type
       rdf:resource="http://purl.org/dc/dcmitype/StillImage" />
  </cc:Work>
</rdf:RDF>
</metadata>
  <g
     transform="translate(0.000000,1024.000000) scale(0.100000,-0.100000)"
     fill="#000000"
     stroke="none"
     id="g6">
    <g
       id="g3779">
      <path
         style="fill:#dcdcdc;fill-opacity:1"
         id="path22"
         d="M7008 6510 c-231 -22 -453 -101 -651 -233 -109 -73 -281 -241 -350 -343 l-49 -71 -89 -7 c-448 -34 -828 -352 -946 -791 -23 -88 -26 -120 -27 -260 -1 -138 3 -173 23 -250 52 -200 140 -355 280 -496 158 -158 332 -252 551 -296 63 -13 182 -15 760 -14 675 2 807 7 925 37 280 70 490 190 682 387 117 121 186 220 259 371 219 460 164 1009 -143 1417 -287 382 -756 592 -1225 549z m322 -586 c239 -61 448 -240 549 -469 56 -126 77 -333 50 -481 -56 -306 -323 -576 -629 -637 -102 -21 -1340 -35 -1440 -17 -155 28 -288 131 -357 277 -35 72 -38 86 -41 183 -3 88 0 116 18 170 55 164 193 291 359 330 69 16 211 8 271 -16 66 -26 144 -78 183 -121 19 -21 56 -61 81 -90 82 -89 176 -118 287 -87 53 15 73 27 120 73 46 47 58 67 73 120 19 68 16 127 -10 189 -30 73 -157 216 -261 294 l-56 43 59 53 c108 98 249 169 399 198 87 17 255 11 345 -12z" />
    </g>
    <g
       id="g3785">
      <path
         style="fill:#fedc00;fill-opacity:1"
         id="path8"
         d="M4282 9527 c-52 -16 -128 -90 -149 -145 -17 -43 -18 -89 -18 -602 0 -614 -3 -586 66 -665 117 -132 328 -105 411 54 l28 53 0 562 0 561 -24 50 c-28 60 -66 97 -126 124 -50 23 -132 26 -188 8z" />
      <path
         style="fill:#fedc00;fill-opacity:1"
         id="path10"
         d="M2780 9125 c-136 -44 -210 -211 -151 -341 26 -56 507 -891 538 -931 58 -78 186 -114 280 -78 140 54 208 218 143 345 -38 76 -511 893 -535 925 -54 72 -183 110 -275 80z" />
      <path
         style="fill:#fedc00;fill-opacity:1"
         id="path12"
         d="M5799 9125 c-88 -28 -111 -59 -390 -544 -144 -250 -268 -474 -276 -499 -29 -84 -1 -184 69 -253 94 -91 255 -91 345 1 38 38 531 879 565 963 78 194 -113 396 -313 332z" />
      <path
         style="fill:#fedc00;fill-opacity:1"
         id="path14"
         d="M1642 8004 c-151 -75 -188 -269 -74 -393 54 -58 939 -567 1014 -583 103 -21 218 36 271 136 16 31 21 59 21 111 1 80 -19 129 -69 179 -30 29 -910 543 -969 566 -51 19 -138 12 -194 -16z" />
      <path
         style="fill:#fedc00;fill-opacity:1"
         id="path16"
         d="M6875 8007 c-87 -43 -919 -527 -942 -549 -13 -12 -34 -44 -48 -72 -28 -57 -33 -137 -11 -197 41 -116 179 -190 295 -159 41 11 911 506 978 556 17 13 44 50 60 81 49 101 31 214 -46 291 -49 48 -88 65 -166 69 -59 3 -78 0 -120 -20z" />
      <path
         style="fill:#fedc00;fill-opacity:1"
         id="path18"
         d="M4232 7510 c-485 -61 -892 -388 -1041 -836 -50 -151 -65 -244 -65 -404 0 -160 15 -253 65 -404 136 -408 500 -729 924 -815 55 -11 147 -23 205 -27 l106 -7 22 132 c70 426 289 782 649 1053 92 69 339 196 436 224 l68 19 -6 45 c-12 80 -55 213 -100 308 -173 365 -504 622 -897 697 -102 19 -274 26 -366 15z" />
      <path
         style="fill:#fedc00;fill-opacity:1"
         id="path20"
         d="M1260 6507 c-49 -16 -133 -102 -148 -153 -30 -101 -9 -188 63 -259 31 -32 65 -55 91 -63 30 -9 189 -12 595 -12 l554 0 51 24 c59 27 107 82 129 145 41 121 -15 254 -129 307 l-51 24 -560 -1 c-378 -1 -571 -5 -595 -12z" />
      <path
         style="fill:#fedc00;fill-opacity:1"
         id="path24"
         d="M2555 5506 c-22 -7 -245 -131 -495 -275 -324 -187 -466 -273 -492 -302 -148 -161 -33 -419 186 -419 42 0 75 7 107 23 116 56 914 526 944 556 52 51 70 96 69 176 0 52 -5 80 -21 111 -31 58 -93 110 -154 128 -62 19 -90 19 -144 2z" />
      <path
         style="fill:#fedc00;fill-opacity:1"
         id="path26"
         d="M3279 4766 c-47 -17 -93 -50 -117 -84 -30 -43 -512 -881 -533 -926 -43 -95 -12 -229 69 -296 48 -40 131 -64 190 -56 57 8 138 52 167 91 24 32 497 849 535 925 44 86 28 199 -39 273 -68 76 -180 106 -272 73z" />
    </g>
    <g
       id="g3782">
      <path
         style="fill:#dcdcdc;fill-opacity:1"
         id="path28"
         d="M6123 3426 c-18 -8 -42 -30 -53 -48 -18 -30 -20 -50 -20 -220 0 -104 -2 -188 -5 -188 -2 0 -82 39 -177 86 -185 91 -207 96 -265 59 -54 -36 -67 -133 -24 -179 11 -12 88 -55 170 -96 83 -41 151 -77 151 -80 0 -3 -65 -44 -145 -93 -79 -48 -153 -99 -164 -114 -41 -51 -20 -148 39 -178 60 -31 94 -21 255 75 l150 90 5 -190 5 -190 31 -31 c23 -23 43 -32 75 -36 53 -5 86 11 116 56 22 32 23 43 23 223 l0 188 172 -86 c155 -78 176 -86 215 -81 95 10 140 112 86 194 -9 13 -84 58 -174 103 -88 44 -159 83 -159 85 0 2 66 43 146 91 80 48 154 98 165 112 29 37 26 112 -6 151 -30 35 -85 56 -123 46 -15 -3 -89 -44 -165 -91 -75 -46 -142 -84 -147 -84 -5 0 -6 67 -3 163 5 133 3 169 -10 199 -27 63 -101 92 -164 64z" />
    </g>
    <path
       d="M4940 3264 c-547 -284 -760 -446 -830 -632 -55 -143 -48 -274 21 -412 73 -145 217 -248 384 -272 151 -21 313 32 422 140 104 102 159 247 182 476 18 183 12 786 -8 786 -3 0 -80 -39 -171 -86z m-93 -541 c-10 -271 -37 -375 -113 -442 -167 -147 -430 9 -374 221 26 94 122 182 347 317 75 44 138 81 141 81 3 0 2 -80 -1 -177z"
       id="path30"
       style="fill:#80d3ff;fill-opacity:1" />
  </g>
</svg>
