<?xml version="1.0" encoding="UTF-8" standalone="no"?>
<svg xmlns:dc="http://purl.org/dc/elements/1.1/" xmlns:cc="http://creativecommons.org/ns#" xmlns:rdf="http://www.w3.org/1999/02/22-rdf-syntax-ns#" xmlns:svg="http://www.w3.org/2000/svg" xmlns="http://www.w3.org/2000/svg" xmlns:sodipodi="http://sodipodi.sourceforge.net/DTD/sodipodi-0.dtd" xmlns:inkscape="http://www.inkscape.org/namespaces/inkscape" version="1.0" width="1024.000000pt" height="1024.000000pt" viewBox="0 0 1024.000000 1024.000000" preserveAspectRatio="xMidYMid meet" id="svg2" inkscape:version="0.48.5 r10040" sodipodi:docname="1222999.svg">
  <defs id="defs36" />
  <sodipodi:namedview pagecolor="#ffffff" bordercolor="#666666" borderopacity="1" objecttolerance="10" gridtolerance="10" guidetolerance="10" inkscape:pageopacity="0" inkscape:pageshadow="2" inkscape:window-width="860" inkscape:window-height="590" id="namedview34" showgrid="false" inkscape:zoom="0.184375" inkscape:cx="640" inkscape:cy="640" inkscape:window-x="1599" inkscape:window-y="142" inkscape:window-maximized="0" inkscape:current-layer="svg2" />
  <metadata id="metadata4">
Created by potrace 1.11, written by Peter Selinger 2001-2013
<rdf:RDF>
  <cc:Work rdf:about="">
    <dc:format>image/svg+xml</dc:format>
    <dc:type rdf:resource="http://purl.org/dc/dcmitype/StillImage" />
  </cc:Work>
</rdf:RDF>
</metadata>
  <path style="fill:#fedc00;stroke:none;fill-opacity:1" inkscape:connector-curvature="0" id="path8" d="m 383.5,48.5 c -5.1,1.8 -11,8.1 -12.4,13.1 -1.5,5.2 -1.5,90.5 0,95.7 0.5,2.1 2.4,5.4 4.2,7.4 10.1,11.5 28.3,8.8 34.8,-5.2 1.7,-3.7 1.9,-7.3 1.9,-49 0,-28.4 -0.4,-46.4 -1.1,-48.8 -3,-11.1 -15.9,-17.3 -27.4,-13.2 z" />
  <path style="fill:#fedc00;stroke:none;fill-opacity:1" inkscape:connector-curvature="0" id="path10" d="m 260.1,81.5 c -12,3.7 -17.9,17.7 -12.3,29 5.1,10.4 43.2,75.2 45.7,77.7 12.7,13.1 35.5,3 35.5,-15.7 0,-4.3 -2.5,-9.1 -24.9,-48 C 282.5,87 279.6,83.1 271.6,81.1 c -5.4,-1.3 -6,-1.3 -11.5,0.4 z" />
  <path style="fill:#fedc00;stroke:none;fill-opacity:1" inkscape:connector-curvature="0" id="path12" d="m 510.3,81.2 c -7.7,1.7 -10.7,5.8 -32.9,44.3 -11.4,19.8 -21.5,37.8 -22.5,40 -6,13.1 4.4,28.5 19.1,28.5 6.2,0 10.6,-1.7 14.5,-5.7 3.7,-3.7 45.5,-75.9 47.3,-81.7 3.1,-9.9 -3.7,-22 -14.1,-25.1 -5.6,-1.7 -5.5,-1.7 -11.4,-0.3 z" />
  <path style="fill:#fedc00;stroke:none;fill-opacity:1" inkscape:connector-curvature="0" id="path14" d="m 166.3,173.6 c -11.1,5.6 -15.1,18.8 -9.1,29.6 2.8,4.9 4.5,6 47.6,30.8 29.5,16.9 36.2,20.4 40.2,20.8 19.6,1.9 30.9,-22.8 16.4,-35.9 -1.6,-1.4 -20,-12.4 -40.9,-24.5 -37.7,-21.7 -38,-21.8 -44.5,-22.2 -4.6,-0.2 -7.5,0.2 -9.7,1.4 z" />
  <path style="fill:#fedc00;stroke:none;fill-opacity:1" inkscape:connector-curvature="0" id="path16" d="m 600,172.7 c -3.3,1.2 -76.5,43.8 -79.3,46.2 -6.3,5.3 -8.4,15.7 -4.8,23.6 2.3,5.1 7.9,10.1 13.1,11.6 8.2,2.5 11.4,1.1 53.4,-23.1 35.4,-20.4 39.2,-22.9 41.7,-26.9 5.4,-8.5 4.7,-18 -1.9,-25.3 -2,-2.3 -5.1,-4.7 -6.9,-5.5 -3.2,-1.3 -12.4,-1.7 -15.3,-0.6 z" />
  <path style="fill:#fedc00;stroke:none;fill-opacity:1" inkscape:connector-curvature="0" id="path18" d="m 380.5,214.7 c -36,4.6 -66,25.5 -81.5,56.8 -14.6,29.2 -14.4,62.9 0.4,92.3 2.5,4.9 4.1,7 4.9,6.5 0.7,-0.4 4.6,-2.9 8.7,-5.6 9.8,-6.4 27.2,-14.8 38.6,-18.6 7.6,-2.5 17.3,-4.7 33,-7.7 1.2,-0.2 4.7,-3.4 7.7,-7.2 19.2,-23.4 48.6,-45.7 77,-58.4 6.2,-2.8 11.4,-5.2 11.6,-5.4 0.9,-0.9 -10.2,-15.6 -16.9,-22.5 -21.6,-21.8 -55,-33.9 -83.5,-30.2 z" />
  <path style="fill:#fedc00;stroke:none;fill-opacity:1" inkscape:connector-curvature="0" id="path20" d="m 135.2,297.3 c -14.6,5.3 -18.9,23.7 -8.1,34.6 2.1,2.1 5.5,4.3 7.7,4.9 2.8,0.9 17.4,1.2 49.3,1.2 42.1,0 45.7,-0.2 49.4,-1.9 5.2,-2.4 9.1,-6.6 11,-12 2.2,-6.2 1.9,-10 -1.2,-16.2 -3,-5.7 -7.1,-9.2 -13.2,-10.9 -5.4,-1.5 -90.7,-1.2 -94.9,0.3 z" />
  <path style="fill:#dcdcdc;stroke:none;fill-opacity:1" inkscape:connector-curvature="0" id="path22" d="M 545.5,304 C 495,308.1 447.8,336.2 420,378.8 l -5.1,7.9 -12.2,0.6 c -33.3,1.5 -62.6,14.9 -85,38.7 -17,18 -28.1,40 -32.2,63.8 -1.9,11 -1.9,31.6 0,42.8 7.8,44.2 40,81.6 82.6,95.8 20.8,7 11.7,6.7 198.4,6.4 l 168,-0.3 9.7,-2.7 c 20.1,-5.5 34.2,-13.9 49.3,-29.2 14.4,-14.7 22.2,-28.6 27.6,-49.2 2,-7.6 2.3,-11.3 2.3,-24.9 0,-14 -0.4,-17.2 -2.7,-25.7 -10.9,-40.6 -43.9,-71.2 -84.6,-78.3 -4.6,-0.8 -10.5,-1.5 -13.1,-1.5 l -4.7,0 -3.3,-9.3 C 701.3,374.3 671.2,340.3 632.9,320.9 607.3,308 574.7,301.7 545.5,304 z m 30.8,53.5 c 39.3,5.9 73.3,33.2 88.3,70.8 1.4,3.7 2.5,7 2.3,7.2 -0.2,0.2 -3.9,2.6 -8.1,5.4 -12.2,7.9 -16.6,15.7 -15.5,27.4 1.4,15.3 16.3,26.1 31.2,22.8 3,-0.7 7.8,-2.8 10.7,-4.8 15.9,-11 31.8,-13.6 49.4,-8.2 16.3,5 31.5,21.3 35.3,37.9 1.5,6.3 1.3,20.6 -0.3,26.5 -4.6,17.2 -17.5,31 -35,37.4 l -7.1,2.6 -165,0 c -186,0 -169.4,0.7 -187,-7.9 -36.6,-18 -50.3,-64.4 -29.5,-99.7 9.9,-16.8 27,-29.3 45.8,-33.5 11.3,-2.5 29.3,-1.6 39.2,2.1 14.5,5.2 23.9,12.6 37.7,29.2 5.4,6.5 11.8,9.6 19.9,9.6 18,0.1 30.8,-17.5 24.9,-34.3 -4.2,-11.9 -25.8,-34.2 -42.2,-43.6 -1.8,-1 -3.3,-2.1 -3.3,-2.4 0,-1.3 11.1,-13.6 16.6,-18.3 25.5,-21.8 58.4,-31.2 91.7,-26.2 z" />
  <path style="fill:#fedc00;stroke:none;fill-opacity:1" inkscape:connector-curvature="0" id="path24" d="m 241,380.4 c -1.9,0.6 -20.1,10.8 -40.5,22.5 -39.5,22.6 -43.2,25.4 -45.5,33.5 -1.9,6.8 0.7,16.4 5.6,20.7 5.4,4.7 14,6.8 19.9,4.9 2.1,-0.7 20.5,-10.8 40.9,-22.6 37.7,-21.7 42.1,-24.8 45.2,-32.1 4.6,-10.6 -2.6,-24.3 -14.2,-27.2 -5.4,-1.4 -7,-1.3 -11.4,0.3 z" />
  <path style="fill:#dcdcdc;stroke:none;fill-opacity:1" inkscape:connector-curvature="0" id="path26" d="m 684,681.7 c -6.2,3.2 -7,6.3 -7,27.2 0,14.3 -0.3,18.2 -1.2,17.8 -0.7,-0.3 -8.5,-4 -17.3,-8.1 -8.8,-4.2 -16.8,-7.6 -17.7,-7.6 -3.7,0 -8.8,3 -10.8,6.2 -2.5,4 -2.2,10.8 0.6,14 1.1,1.1 9,5.6 17.7,9.8 l 15.7,7.8 -14.5,9.1 c -7.9,5.1 -15.3,10.3 -16.5,11.8 -3,3.9 -2.8,11.2 0.6,15.2 2.8,3.4 8.4,5.4 12.3,4.4 1.3,-0.3 8.5,-4.4 15.9,-9 7.3,-4.6 14,-8.7 14.8,-9 1.2,-0.4 1.4,2.2 1.4,16.7 0,20.4 0.8,23.1 7.6,26.2 4.6,2 8,1.7 12.2,-1 4.7,-3 5.2,-5.8 5.2,-26.1 l 0,-19 17.4,8.6 c 15.4,7.6 17.8,8.5 21,7.9 5.7,-1.1 9.7,-5.3 10.3,-10.7 0.9,-8.3 -0.6,-9.8 -19.4,-19.3 l -16.7,-8.3 3.9,-2.5 c 2.2,-1.4 8.9,-5.5 14.9,-9.3 11.2,-7.1 14.6,-10.7 14.6,-15.8 0,-4.4 -2.9,-9.6 -6.3,-11.4 -6.4,-3.3 -9.3,-2.3 -25.6,8 l -15.1,9.6 0,-17.7 c 0,-12.1 -0.4,-18.5 -1.3,-20.1 -3,-5.9 -10.8,-8.4 -16.7,-5.4 z" />
  <path style="fill:#80d3ff;stroke:none;fill-opacity:1" inkscape:connector-curvature="0" id="path28" d="m 427.1,691.1 c -45.6,23.6 -69.9,41.5 -77.4,57 -9.9,20.4 -6.3,43.3 9.3,58.9 24.5,24.5 65.8,17.7 81,-13.4 7.8,-16 10.6,-41.1 9.5,-85.4 C 449,689 448.4,681 447.6,681 c -0.6,0 -9.8,4.6 -20.5,10.1 z m -5.5,50.1 c -1.7,35.5 -5.7,46.2 -19,51.3 -13.6,5.2 -28.8,-4.2 -30.3,-18.8 -1.1,-10.4 3.4,-17.8 16.8,-27.8 7.4,-5.5 30.8,-19.9 32.3,-19.9 0.5,0 0.6,6.1 0.2,15.2 z" />
  <path style="fill:#80d3ff;stroke:none;fill-opacity:1" inkscape:connector-curvature="0" id="path30" d="m 666.5,839.8 c -32.7,17.1 -48.4,29 -53.8,40.9 -3.3,7.5 -3.1,19.9 0.6,27.8 9.4,20.1 35.2,26.2 52.7,12.4 9.4,-7.5 13.3,-17.8 15.2,-40.4 1.1,-13.7 0.3,-47.5 -1.1,-47.5 -0.3,0 -6.4,3.1 -13.6,6.8 z m -3.1,34.4 c -0.7,14.6 -2.7,25.4 -5.2,28.8 -5.3,7.1 -15.5,9.3 -22.2,4.7 -11.2,-7.6 -10.3,-19.8 2.1,-29.7 5.5,-4.3 23.6,-15.8 25.2,-15.9 0.4,-0.1 0.5,5.4 0.1,12.1 z" />
  <path style="fill:#dcdcdc;stroke:none;fill-opacity:1" inkscape:connector-curvature="0" id="path32" d="m 327.3,850.4 c -2.7,2.4 -2.8,2.7 -3.1,14.4 l -0.4,12.1 -10.5,-5.5 c -8,-4.2 -11.2,-5.4 -13.2,-4.9 -3.4,0.8 -6.1,4.1 -6.1,7.5 0,4.2 2.6,6.6 12.8,11.9 l 9.3,4.8 -9.5,5.7 c -12.1,7.2 -14,10.3 -9.5,16 3.2,4.1 7,3.5 17.4,-2.8 l 9,-5.4 0.5,11.6 c 0.3,6.5 0.8,12.2 1.2,12.8 0.4,0.6 2.1,1.7 3.7,2.3 2.4,1 3.4,1 6,-0.3 3.6,-1.9 3.8,-2.7 4.6,-16.5 0.3,-5.8 0.7,-10.6 0.9,-10.8 0.1,-0.2 4.5,1.9 9.7,4.7 10.6,5.6 13.9,6.1 17.4,2.5 5.5,-5.4 2.7,-9.9 -10.2,-16.3 l -9.5,-4.8 9.6,-5.7 c 12.1,-7.3 14,-10.4 9.5,-16.1 -3.2,-4.1 -7,-3.5 -17.4,2.8 l -9,5.4 -0.5,-12 c -0.5,-11.1 -0.7,-12.1 -2.9,-13.9 -3.1,-2.6 -6.4,-2.4 -9.8,0.5 z" />
</svg>
