<?xml version="1.0" encoding="UTF-8" standalone="no"?>
<svg xmlns:dc="http://purl.org/dc/elements/1.1/" xmlns:cc="http://creativecommons.org/ns#" xmlns:rdf="http://www.w3.org/1999/02/22-rdf-syntax-ns#" xmlns:svg="http://www.w3.org/2000/svg" xmlns="http://www.w3.org/2000/svg" xmlns:sodipodi="http://sodipodi.sourceforge.net/DTD/sodipodi-0.dtd" xmlns:inkscape="http://www.inkscape.org/namespaces/inkscape" version="1.0" width="1024.000000pt" height="1024.000000pt" viewBox="0 0 1024.000000 1024.000000" preserveAspectRatio="xMidYMid meet" id="svg2" inkscape:version="0.48.5 r10040" sodipodi:docname="1199992.svg">
  <defs id="defs26" />
  <sodipodi:namedview pagecolor="#ffffff" bordercolor="#666666" borderopacity="1" objecttolerance="10" gridtolerance="10" guidetolerance="10" inkscape:pageopacity="0" inkscape:pageshadow="2" inkscape:window-width="640" inkscape:window-height="480" id="namedview24" showgrid="false" inkscape:zoom="0.184375" inkscape:cx="640" inkscape:cy="640" inkscape:window-x="1114" inkscape:window-y="166" inkscape:window-maximized="0" inkscape:current-layer="svg2" />
  <metadata id="metadata4">
Created by potrace 1.11, written by Peter Selinger 2001-2013
<rdf:RDF>
  <cc:Work rdf:about="">
    <dc:format>image/svg+xml</dc:format>
    <dc:type rdf:resource="http://purl.org/dc/dcmitype/StillImage" />
  </cc:Work>
</rdf:RDF>
</metadata>
  <path style="fill:#fedc00;fill-opacity:1;stroke:none" inkscape:connector-curvature="0" id="path8-0" d="m 425.11394,167.30508 c -5.2,1.6 -12.8,9 -14.9,14.5 -1.7,4.3 -1.8,8.9 -1.8,60.2 0,61.4 -0.3,58.6 6.6,66.5 11.7,13.2 32.8,10.5 41.1,-5.4 l 2.8,-5.3 0,-56.2 0,-56.1 -2.4,-5 c -2.8,-6 -6.6,-9.7 -12.6,-12.4 -5,-2.3 -13.2,-2.6 -18.8,-0.8 z" />
  <path style="fill:#fedc00;fill-opacity:1;stroke:none" inkscape:connector-curvature="0" id="path10-3" d="m 274.91394,207.50508 c -13.6,4.4 -21,21.1 -15.1,34.1 2.6,5.6 50.7,89.1 53.8,93.1 5.8,7.8 18.6,11.4 28,7.8 14,-5.4 20.8,-21.8 14.3,-34.5 -3.8,-7.6 -51.1,-89.3 -53.5,-92.5 -5.4,-7.2 -18.3,-11 -27.5,-8 z" />
  <path style="fill:#fedc00;fill-opacity:1;stroke:none" inkscape:connector-curvature="0" id="path12-5" d="m 576.81394,207.50508 c -8.8,2.8 -11.1,5.9 -39,54.4 -14.4,25 -26.8,47.4 -27.6,49.9 -2.9,8.4 -0.1,18.4 6.9,25.3 9.4,9.1 25.5,9.1 34.5,-0.1 3.8,-3.8 53.1,-87.9 56.5,-96.3 7.8,-19.4 -11.3,-39.6 -31.3,-33.2 z" />
  <path style="fill:#fedc00;fill-opacity:1;stroke:none" inkscape:connector-curvature="0" id="path14-7" d="m 161.11394,319.60508 c -15.1,7.5 -18.8,26.9 -7.4,39.3 5.4,5.8 93.9,56.7 101.4,58.3 10.3,2.1 21.8,-3.6 27.1,-13.6 1.6,-3.1 2.1,-5.9 2.1,-11.1 0.1,-8 -1.9,-12.9 -6.9,-17.9 -3,-2.9 -91,-54.3 -96.9,-56.6 -5.1,-1.9 -13.8,-1.2 -19.4,1.6 z" />
  <path style="fill:#fedc00;fill-opacity:1;stroke:none" inkscape:connector-curvature="0" id="path16-9" d="m 684.41394,319.30508 c -8.7,4.3 -91.9,52.7 -94.2,54.9 -1.3,1.2 -3.4,4.4 -4.8,7.2 -2.8,5.7 -3.3,13.7 -1.1,19.7 4.1,11.6 17.9,19 29.5,15.9 4.1,-1.1 91.1,-50.6 97.8,-55.6 1.7,-1.3 4.4,-5 6,-8.1 4.9,-10.1 3.1,-21.4 -4.6,-29.1 -4.9,-4.8 -8.8,-6.5 -16.6,-6.9 -5.9,-0.3 -7.8,0 -12,2 z" />
  <path style="fill:#fedc00;fill-opacity:1;stroke:none" inkscape:connector-curvature="0" id="path18-1" d="m 420.11394,369.00508 c -48.5,6.1 -89.2,38.8 -104.1,83.6 -5,15.1 -6.5,24.4 -6.5,40.4 0,16 1.5,25.3 6.5,40.4 13.6,40.8 50,72.9 92.4,81.5 5.5,1.1 14.7,2.3 20.5,2.7 l 10.6,0.7 2.2,-13.2 c 7,-42.6 28.9,-78.2 64.9,-105.3 9.2,-6.9 33.9,-19.6 43.6,-22.4 l 6.8,-1.9 -0.6,-4.5 c -1.2,-8 -5.5,-21.3 -10,-30.8 -17.3,-36.5 -50.4,-62.2 -89.7,-69.7 -10.2,-1.9 -27.4,-2.6 -36.6,-1.5 z" />
  <path style="fill:#fedc00;fill-opacity:1;stroke:none" inkscape:connector-curvature="0" id="path20-7" d="m 122.91394,469.30508 c -4.9,1.6 -13.3,10.2 -14.8,15.3 -3,10.1 -0.9,18.8 6.3,25.9 3.1,3.2 6.5,5.5 9.1,6.3 3,0.9 18.9,1.2 59.5,1.2 l 55.4,0 5.1,-2.4 c 5.9,-2.7 10.7,-8.2 12.9,-14.5 4.1,-12.1 -1.5,-25.4 -12.9,-30.7 l -5.1,-2.4 -56,0.1 c -37.8,0.1 -57.1,0.5 -59.5,1.2 z" />
  <path style="fill:#dcdcdc;fill-opacity:1;stroke:none" inkscape:connector-curvature="0" id="path22-5" d="m 697.71394,469.00508 c -23.1,2.2 -45.3,10.1 -65.1,23.3 -10.9,7.3 -28.1,24.1 -35,34.3 l -4.9,7.1 -8.9,0.7 c -44.8,3.4 -82.8,35.2 -94.6,79.1 -2.3,8.8 -2.6,12 -2.7,26 -0.1,13.8 0.3,17.3 2.3,25 5.2,20 14,35.5 28,49.6 15.8,15.8 33.2,25.2 55.1,29.6 6.3,1.3 18.2,1.5 76,1.4 67.5,-0.2 80.7,-0.7 92.5,-3.7 28,-7 49,-19 68.2,-38.7 11.7,-12.1 18.6,-22 25.9,-37.1 21.9,-46 16.4,-100.9 -14.3,-141.7 -28.7,-38.2 -75.6,-59.2 -122.5,-54.9 z m 32.2,58.6 c 23.9,6.1 44.8,24 54.9,46.9 5.6,12.6 7.7,33.3 5,48.1 -5.6,30.6 -32.3,57.6 -62.9,63.7 -10.2,2.1 -134,3.5 -144,1.7 -15.5,-2.8 -28.8,-13.1 -35.7,-27.7 -3.5,-7.2 -3.8,-8.6 -4.1,-18.3 -0.3,-8.8 0,-11.6 1.8,-17 5.5,-16.4 19.3,-29.1 35.9,-33 6.9,-1.6 21.1,-0.8 27.1,1.6 6.6,2.6 14.4,7.8 18.3,12.1 1.9,2.1 5.6,6.1 8.1,9 8.2,8.9 17.6,11.8 28.7,8.7 5.3,-1.5 7.3,-2.7 12,-7.3 4.6,-4.7 5.8,-6.7 7.3,-12 1.9,-6.8 1.6,-12.7 -1,-18.9 -3,-7.3 -15.7,-21.6 -26.1,-29.4 l -5.6,-4.3 5.9,-5.3 c 10.8,-9.8 24.9,-16.9 39.9,-19.8 8.7,-1.7 25.5,-1.1 34.5,1.2 z" />
  <path style="fill:#fedc00;fill-opacity:1;stroke:none" inkscape:connector-curvature="0" id="path24" d="m 252.41394,569.40508 c -2.2,0.7 -24.5,13.1 -49.5,27.5 -32.4,18.7 -46.6,27.3 -49.2,30.2 -14.8,16.1 -3.3,41.9 18.6,41.9 4.2,0 7.5,-0.7 10.7,-2.3 11.6,-5.6 91.4,-52.6 94.4,-55.6 5.2,-5.1 7,-9.6 6.9,-17.6 0,-5.2 -0.5,-8 -2.1,-11.1 -3.1,-5.8 -9.3,-11 -15.4,-12.8 -6.2,-1.9 -9,-1.9 -14.4,-0.2 z" />
  <path style="fill:#fedc00;fill-opacity:1;stroke:none" inkscape:connector-curvature="0" id="path26" d="m 324.81394,643.40508 c -4.7,1.7 -9.3,5 -11.7,8.4 -3,4.3 -51.2,88.1 -53.3,92.6 -4.3,9.5 -1.2,22.9 6.9,29.6 4.8,4 13.1,6.4 19,5.6 5.7,-0.8 13.8,-5.2 16.7,-9.1 2.4,-3.2 49.7,-84.9 53.5,-92.5 4.4,-8.6 2.8,-19.9 -3.9,-27.3 -6.8,-7.6 -18,-10.6 -27.2,-7.3 z" />
  <path inkscape:connector-curvature="0" style="fill:#ba381a;fill-opacity:1;stroke:none" id="path8-1" d="m 566.3258,227.33333 -61.89028,56.99844 0,137.06935 -0.0711,137.14125 9.87983,0 9.87984,0 0.14122,-126.86284 0.21165,-126.86283 31.4038,31.05084 c 17.28974,17.03484 40.64853,40.17922 51.93977,51.32015 l 20.53599,20.41307 30.27471,-11.5722 30.27472,-11.50031 25.40529,-3.95324 c 19.40691,-2.94696 33.45041,-5.67827 59.27913,-11.42843 18.63059,-4.09698 45.16507,-9.77527 58.92629,-12.50661 13.76121,-2.80318 36.90831,-7.54707 51.37522,-10.5659 l 26.25218,-5.53452 -0.14114,-54.33899 -0.2117,-54.2671 -27.1696,-5.60641 c -14.96091,-3.01883 -28.86329,-5.53452 -29.49841,-5.60639 -1.19971,0 -0.14114,2.08442 -0.14114,33.42277 l 0.0706,33.4228 -25.47592,0 -25.40527,0 0,-38.31043 0,-38.31042 -30.48648,-6.10953 -30.55692,-6.10956 -0.2118,44.41997 -0.14108,44.41997 -25.40532,0 -25.4054,0 0,-48.3732 0,-48.37321 -30.48636,-10.20651 c -16.79574,-5.60641 -30.69814,-10.20653 -30.9098,-10.20653 -0.21177,0 -28.22822,25.66007 -62.24305,56.92655 z m 61.39618,112.19993 -0.21167,50.52951 -52.92786,-51.53578 c -29.07497,-28.3914 -52.92775,-51.89516 -52.92775,-52.25456 0,-0.35937 23.85278,-22.71309 52.92775,-49.66696 l 52.92786,-49.0201 0.21167,50.67326 c 0.0711,27.96015 0.0711,73.45826 0,101.27463 z" sodipodi:nodetypes="ccccccccccccccccccccccsccccccccccccccsccccscccc" />
</svg>
