<?xml version="1.0" encoding="UTF-8" standalone="no"?>
<svg xmlns:dc="http://purl.org/dc/elements/1.1/" xmlns:cc="http://creativecommons.org/ns#" xmlns:rdf="http://www.w3.org/1999/02/22-rdf-syntax-ns#" xmlns:svg="http://www.w3.org/2000/svg" xmlns="http://www.w3.org/2000/svg" xmlns:sodipodi="http://sodipodi.sourceforge.net/DTD/sodipodi-0.dtd" xmlns:inkscape="http://www.inkscape.org/namespaces/inkscape" version="1.0" width="1024.000000pt" height="1024.000000pt" viewBox="0 0 1024.000000 1024.000000" preserveAspectRatio="xMidYMid meet" id="svg2" inkscape:version="0.48.5 r10040" sodipodi:docname="sym2999999.svg">
  <defs id="defs12" />
  <sodipodi:namedview pagecolor="#ffffff" bordercolor="#666666" borderopacity="1" objecttolerance="10" gridtolerance="10" guidetolerance="10" inkscape:pageopacity="0" inkscape:pageshadow="2" inkscape:window-width="1511" inkscape:window-height="940" id="namedview10" showgrid="false" inkscape:zoom="0.24560666" inkscape:cx="2395.7655" inkscape:cy="377.35632" inkscape:window-x="946" inkscape:window-y="452" inkscape:window-maximized="0" inkscape:current-layer="svg2" />
  <metadata id="metadata4">
Created by potrace 1.11, written by Peter Selinger 2001-2013
<rdf:RDF>
  <cc:Work rdf:about="">
    <dc:format>image/svg+xml</dc:format>
    <dc:type rdf:resource="http://purl.org/dc/dcmitype/StillImage" />
  </cc:Work>
</rdf:RDF>
</metadata>
  <path d="M 499.76187,773.87578 C 384.33505,763.60466 288.94534,685.37824 261.02118,578.10218 c -6.50142,-25.00338 -7.88695,-36.93448 -7.88695,-65.05037 0,-28.11581 1.38553,-40.04691 7.88695,-65.05033 14.49499,-55.40169 47.0021,-103.85228 94.32394,-140.57927 34.95841,-27.0784 81.32103,-46.37562 128.42968,-53.4305 17.1595,-2.59375 58.5128,-2.59375 75.6723,0 47.10866,7.05488 93.47122,26.3521 128.42971,53.4305 47.32181,36.72699 79.82893,85.17758 94.32387,140.57927 6.50142,25.00342 7.88699,36.93452 7.88699,65.05033 0,28.11589 -1.38557,40.04699 -7.88699,65.05037 -14.49494,55.40174 -47.00206,103.85231 -94.32387,140.57931 -34.74531,26.87088 -81.00135,46.27186 -127.36393,53.22298 -10.76463,1.66006 -50.19949,2.90498 -60.75101,1.97131 z" id="path8" style="fill:#dcdcdc;fill-opacity:1" inkscape:connector-curvature="0" />
  <path style="fill:#7b7b7b;fill-opacity:1" d="M 467.52541,734.40989 C 432.64876,727.64888 385.10448,700.92031 356.88135,672.20763 284.919,598.99708 269.23322,497.04322 315.75112,404.87099 347.25516,342.44774 416.71572,292.91909 483.81605,285.03276 l 24.7849,-2.91297 -24.6761,27.26796 c -28.4616,31.45108 -56.46459,84.8533 -66.08705,126.0292 -9.46019,40.48152 -8.76867,116.65593 1.401,154.32733 14.74506,54.61996 36.39274,94.27057 71.49948,130.9608 16.7652,17.52142 17.1131,18.41699 6.97868,17.96526 -5.86636,-0.26147 -19.45256,-2.1787 -30.19155,-4.26045 z" id="path3757" />
</svg>
