<?xml version="1.0" encoding="UTF-8" standalone="no"?>
<svg xmlns:dc="http://purl.org/dc/elements/1.1/" xmlns:cc="http://creativecommons.org/ns#" xmlns:rdf="http://www.w3.org/1999/02/22-rdf-syntax-ns#" xmlns:svg="http://www.w3.org/2000/svg" xmlns="http://www.w3.org/2000/svg" xmlns:sodipodi="http://sodipodi.sourceforge.net/DTD/sodipodi-0.dtd" xmlns:inkscape="http://www.inkscape.org/namespaces/inkscape" version="1.0" width="1024.000000pt" height="1024.000000pt" viewBox="0 0 1024.000000 1024.000000" preserveAspectRatio="xMidYMid meet" id="svg2" inkscape:version="0.48.2 r9819" sodipodi:docname="9339999.png.svg">
  <defs id="defs22" />
  <sodipodi:namedview pagecolor="#ffffff" bordercolor="#666666" borderopacity="1" objecttolerance="10" gridtolerance="10" guidetolerance="10" inkscape:pageopacity="0" inkscape:pageshadow="2" inkscape:window-width="877" inkscape:window-height="717" id="namedview20" showgrid="false" inkscape:zoom="0.184375" inkscape:cx="640" inkscape:cy="640" inkscape:window-x="412" inkscape:window-y="230" inkscape:window-maximized="0" inkscape:current-layer="svg2" />
  <metadata id="metadata4">
Created by potrace 1.11, written by Peter Selinger 2001-2013
<rdf:RDF>
  <cc:Work rdf:about="">
    <dc:format>image/svg+xml</dc:format>
    <dc:type rdf:resource="http://purl.org/dc/dcmitype/StillImage" />
  </cc:Work>
</rdf:RDF>
</metadata>
  <path style="fill:#a0a0a0;stroke:none;fill-opacity:1" inkscape:connector-curvature="0" id="path8" d="m 502.8,224.1 c -56.1,5.4 -107.8,36.4 -139.4,83.5 l -7.4,11.1 -14.3,0.6 c -29.2,1.2 -55.8,10.7 -79.3,28.3 -9.3,7 -25.7,24.1 -31.7,33.2 -10.7,16 -18.2,33.6 -22.2,52.2 -2.4,11.3 -3,36.3 -1.1,48.5 4.8,31.3 17.9,57.1 40.5,79.6 20.8,20.7 42.1,32.3 71.6,39.2 9,2.1 10,2.1 200.5,2.5 212.8,0.3 200.9,0.6 221.9,-6.4 42.2,-14 73.4,-50.8 81.2,-95.4 1.8,-10.4 1.6,-30.6 -0.5,-41.2 -8,-41.4 -35.1,-74.9 -73.4,-90.7 -10.3,-4.3 -26.3,-8.1 -36.8,-8.8 l -9.1,-0.6 -2.3,-7.1 c -10,-31.3 -31.1,-62.3 -57.3,-84.3 -39.3,-33 -90.6,-49 -140.9,-44.2 z m 30.1,60 c 44.7,4.2 83.7,30.6 103.8,70.4 4.1,8 8.7,19.6 8.1,20 -8.1,4.8 -18.4,12.5 -20.7,15.4 -13.3,16.7 -6.1,40.6 14.2,47.5 9.5,3.2 17.3,1.6 29.4,-6.1 14.4,-9.1 25.1,-12 39.9,-11 25.6,1.8 48.3,20.6 54.9,45.3 1.9,7.1 2.1,22.9 0.5,29.9 -4.1,17.1 -16.5,32.7 -32.1,40.4 -15.5,7.6 -1,7.2 -210.2,6.9 l -187.2,-0.3 -7.5,-2.3 c -22.8,-7 -40.8,-22.1 -51,-42.7 -6.1,-12.2 -7.9,-19 -8.7,-31.7 -2.2,-35.8 18.3,-67.7 52.2,-81.3 19.9,-7.9 45.9,-6.9 64.8,2.7 12.9,6.5 19.1,11.8 35.1,30.3 6.3,7.2 11.1,9.7 20.2,10.3 12.9,0.8 23.4,-5.1 28.9,-16.1 5.3,-10.9 4.1,-21 -3.7,-32.8 -6.3,-9.6 -25.7,-28.4 -36.8,-35.8 -5.2,-3.5 -9.7,-6.5 -9.9,-6.7 -1.4,-1.3 13.3,-17.1 23.4,-24.9 23.3,-18.1 45.7,-26.2 78.5,-28.3 1.4,-0.1 7.6,0.3 13.9,0.9 z" />
  <path style="fill:#80d3ff;stroke:none;fill-opacity:1" inkscape:connector-curvature="0" id="path10" d="m 513.5,668.1 c -38,20.4 -48.7,29.4 -53.1,44.5 -7,24.1 16.4,48.2 40.7,41.9 20.4,-5.2 28,-18.9 29.6,-53.5 0.6,-13.9 -0.4,-41 -1.6,-41 -0.3,0 -7.3,3.7 -15.6,8.1 z m -0.9,33.1 c -0.9,15.5 -2.2,23.3 -4.8,27.8 -5.5,9.9 -17.7,11.3 -25.9,3.1 -7.8,-7.7 -5.8,-18.2 5,-26.8 4.8,-3.8 24.7,-16.3 25.9,-16.3 0.3,0 0.2,5.5 -0.2,12.2 z" />
  <path style="fill:#80d3ff;stroke:none;fill-opacity:1" inkscape:connector-curvature="0" id="path12" d="M 384.5,672.7 C 320,706.6 302,724 302,752.5 c 0,13.9 5,25.7 14.9,35.5 20,19.6 50.1,20.1 70.5,1 15.7,-14.8 20,-33.5 19.8,-87.3 -0.1,-30.3 -0.5,-39.8 -2,-39.6 -0.4,0 -9.7,4.8 -20.7,10.6 z m -5.1,48.5 c -0.6,14.5 -2.5,30.2 -4.4,37 -2.8,9.7 -12.1,16.8 -22,16.8 -12.6,0 -22,-8.8 -22.8,-21.4 -0.7,-10.7 4.6,-18.2 20.3,-28.9 7.4,-5.1 27.7,-17.6 28.7,-17.6 0.4,-0.1 0.5,6.3 0.2,14.1 z" />
  <path style="fill:#80d3ff;stroke:none;fill-opacity:1" inkscape:connector-curvature="0" id="path14" d="m 677,670.1 c -45.9,23.9 -69,39.9 -79.1,54.5 -13.5,19.7 -10.2,47.6 7.5,64.2 20.6,19.3 50.9,18.9 70.6,-0.8 14.3,-14.3 19,-34.5 19,-82.1 0,-23.6 -0.9,-43.9 -1.9,-43.9 -0.3,0 -7.6,3.7 -16.1,8.1 z m -10.3,54.1 c -1.1,30.8 -4.8,42.4 -15.6,48 -15.7,8.2 -33.4,-2.2 -33.4,-19.7 0,-12.8 8.3,-21.3 38.3,-39.2 5.8,-3.4 10.7,-6.3 10.9,-6.3 0.2,0 0.1,7.8 -0.2,17.2 z" />
  <path style="fill:#80d3ff;stroke:none;fill-opacity:1" inkscape:connector-curvature="0" id="path16" d="M 555.5,767.4 C 489.9,801.1 470,820 470,848.5 c 0,13.2 5.3,25.8 15,35.5 22.7,22.7 59.6,19.2 77.8,-7.2 10,-14.6 13.9,-42.8 12.6,-91.6 -0.4,-14.4 -1,-26.4 -1.3,-26.7 -0.4,-0.2 -8.8,3.8 -18.6,8.9 z m -7.9,50.3 c -1.6,34.2 -5.6,46.1 -17.1,51.4 -10.8,5 -24.3,0.5 -29.7,-10 -6.4,-12.3 -2.5,-23 12.7,-34.6 6.3,-4.8 32.9,-21.5 34.3,-21.5 0.2,0 0.2,6.6 -0.2,14.7 z" />
  <path style="fill:#80d3ff;stroke:none;fill-opacity:1" inkscape:connector-curvature="0" id="path18" d="m 395.5,812.6 c -30.4,16.3 -44,26.8 -49.3,38.1 -2.3,4.9 -2.7,7.1 -2.7,14.3 0.1,10.6 3.1,17.4 10.5,24.4 7.6,7.1 12.7,9.1 23.5,9.1 10.8,0 15.9,-2 23.5,-9.1 8.5,-7.9 12.1,-19 13.6,-42.1 0.9,-13.7 -0.4,-43.3 -2,-43.3 -0.6,0.1 -8.3,3.9 -17.1,8.6 z m 1,31.1 c -1.3,22.3 -3.4,30 -9.5,34.3 -8.9,6.4 -21.8,1.9 -25,-8.7 -3.2,-10.7 3.5,-18.7 26.8,-32.4 3.7,-2.1 7.1,-3.9 7.5,-3.9 0.5,0 0.6,4.8 0.2,10.7 z" />
</svg>
