<?xml version="1.0" encoding="UTF-8" standalone="no"?>
<svg xmlns:dc="http://purl.org/dc/elements/1.1/" xmlns:cc="http://creativecommons.org/ns#" xmlns:rdf="http://www.w3.org/1999/02/22-rdf-syntax-ns#" xmlns:svg="http://www.w3.org/2000/svg" xmlns="http://www.w3.org/2000/svg" xmlns:sodipodi="http://sodipodi.sourceforge.net/DTD/sodipodi-0.dtd" xmlns:inkscape="http://www.inkscape.org/namespaces/inkscape" version="1.0" width="1024.000000pt" height="1024.000000pt" viewBox="0 0 1024.000000 1024.000000" preserveAspectRatio="xMidYMid meet" id="svg2" inkscape:version="0.48.5 r10040" sodipodi:docname="9293992.svg">
  <defs id="defs20" />
  <sodipodi:namedview pagecolor="#ffffff" bordercolor="#666666" borderopacity="1" objecttolerance="10" gridtolerance="10" guidetolerance="10" inkscape:pageopacity="0" inkscape:pageshadow="2" inkscape:window-width="887" inkscape:window-height="583" id="namedview18" showgrid="false" inkscape:zoom="0.184375" inkscape:cx="640" inkscape:cy="640" inkscape:window-x="826" inkscape:window-y="570" inkscape:window-maximized="0" inkscape:current-layer="svg2" />
  <metadata id="metadata4">
Created by potrace 1.11, written by Peter Selinger 2001-2013
<rdf:RDF>
  <cc:Work rdf:about="">
    <dc:format>image/svg+xml</dc:format>
    <dc:type rdf:resource="http://purl.org/dc/dcmitype/StillImage" />
  </cc:Work>
</rdf:RDF>
</metadata>
  <path style="fill:#dcdcdc;stroke:none;fill-opacity:1" inkscape:connector-curvature="0" id="path10" d="m 418.9,644.6 c -5,3.2 -5.4,4.7 -5.9,24.6 l -0.5,18.7 -14.5,-9 c -8,-4.9 -15.5,-9.2 -16.8,-9.6 -3.9,-0.9 -8.7,0.6 -11.8,3.8 -2.5,2.6 -2.9,3.8 -2.9,8.4 0,3.9 0.5,5.9 2,7.5 1.1,1.2 8.8,6.4 17.2,11.7 8.4,5.2 15.3,9.6 15.3,9.7 0,0.2 -7.2,4.7 -15.9,10.1 -17.9,11 -19.8,13.1 -18.8,20.5 0.7,5.1 3.7,8.6 8.8,10.1 5,1.5 6.6,0.9 23.4,-9.5 l 14,-8.7 0.5,19 0.5,19.1 3.3,3.2 c 2.9,2.9 3.9,3.3 8.7,3.3 4.8,0 5.8,-0.4 8.7,-3.3 l 3.3,-3.2 0.5,-18.9 0.5,-19 14.5,9.1 c 16.2,10.2 20.1,11.4 25.8,7.9 6.2,-4 7.9,-12.6 3.4,-18.1 -0.9,-1.2 -8.5,-6.3 -16.7,-11.4 -8.3,-5.1 -14.9,-9.7 -14.8,-10.2 0.2,-0.5 6.7,-4.8 14.5,-9.6 17.1,-10.5 18.9,-12.1 19.5,-17.9 0.8,-8.1 -6.3,-15 -13.8,-13.5 -1.9,0.3 -9.9,4.6 -17.9,9.5 l -14.5,9 -0.5,-18.9 -0.5,-19 -3.2,-3.1 c -3.9,-3.9 -11.2,-5 -15.4,-2.3 z" />
  <path style="fill:#dcdcdc;stroke:none;fill-opacity:1" inkscape:connector-curvature="0" id="path12" d="m 623.5,644 c -1.1,0.4 -3.1,2 -4.5,3.5 -2.4,2.6 -2.5,3.1 -3,21.5 l -0.5,18.9 -14.5,-9.1 c -15.2,-9.6 -20,-11.2 -25,-8.6 -3.4,1.9 -7,7.5 -7,11.2 0,5.8 3.1,8.8 18.1,18.1 7.9,4.9 15,9.4 15.7,10 1.1,1 -1.5,3 -13.5,10.4 -8.2,5 -15.9,10.2 -17.2,11.5 -3.3,3.5 -3.8,10.1 -1.1,14.4 2.5,4 8.1,6.6 12.4,5.8 1.7,-0.4 9.6,-4.7 17.6,-9.6 l 14.5,-8.9 0.5,18.9 0.5,19 3.3,3.2 c 2.9,2.9 3.9,3.3 8.7,3.3 4.8,0 5.8,-0.4 8.7,-3.3 l 3.3,-3.2 0.5,-19 0.5,-18.9 14.5,9 c 8,4.9 15.5,9.2 16.8,9.6 6.9,1.7 14.1,-3.5 14.9,-10.9 0.7,-6.9 -1.6,-9.4 -19.1,-20.3 -8.6,-5.3 -15.6,-9.8 -15.6,-10 0,-0.2 6.7,-4.4 15,-9.5 16.7,-10.2 20,-13.3 20,-18.8 0,-4.9 -1.8,-8.1 -6,-11 -5.5,-3.7 -8.9,-2.7 -25.7,7.7 L 641.5,688 641,669.3 c -0.3,-10.4 -0.9,-19.6 -1.4,-20.5 -2.1,-4.5 -10.8,-7.1 -16.1,-4.8 z" />
  <path style="fill:#dcdcdc;stroke:none;fill-opacity:1" inkscape:connector-curvature="0" id="path14" d="m 523.9,753.9 c -2.2,1.8 -2.4,2.8 -2.9,14 l -0.5,12 -9,-5.6 c -10.2,-6.4 -14.5,-7.3 -17.6,-3.4 -2.1,2.5 -2.4,6.2 -0.9,9.1 0.5,1 5.3,4.4 10.5,7.7 5.2,3.2 9.5,6 9.5,6.3 0,0.3 -3.8,2.7 -8.3,5.4 -4.5,2.7 -9.2,5.8 -10.4,6.9 -2.8,2.5 -3,7.6 -0.4,10.8 3.1,3.8 7.3,3 17.6,-3.4 l 9,-5.6 0.5,11.9 c 0.6,13.5 1.5,15.4 7.5,15.4 6,0 6.9,-1.9 7.5,-15.4 l 0.5,-11.8 9,5.6 c 10.2,6.3 14.5,7.1 17.6,3.3 2.1,-2.5 2.4,-6.2 0.9,-9.1 -0.5,-1 -5.3,-4.4 -10.5,-7.7 -5.2,-3.2 -9.5,-6 -9.5,-6.3 0,-0.3 3.8,-2.7 8.3,-5.4 4.5,-2.7 9.2,-5.8 10.5,-6.9 2.7,-2.5 2.9,-7.6 0.3,-10.8 -3.1,-3.8 -7.3,-3 -17.6,3.4 l -9,5.6 -0.5,-12 c -0.5,-11.2 -0.7,-12.2 -2.9,-14 -1.3,-1 -3.3,-1.9 -4.6,-1.9 -1.3,0 -3.3,0.9 -4.6,1.9 z" />
  <path style="fill:#dcdcdc;stroke:none;fill-opacity:1" inkscape:connector-curvature="0" id="path16" d="m 436,807 c -1.8,1.8 -2,3.3 -2,13.5 0,6.3 -0.2,11.5 -0.5,11.5 -0.3,0 -4.5,-2.5 -9.4,-5.5 -9.9,-6.1 -13.5,-6.8 -16.9,-3.2 -2.4,2.6 -2.9,7.5 -0.9,9.8 0.6,0.9 5.4,4.2 10.5,7.3 5,3.2 9.2,5.9 9.2,6.1 0,0.1 -4.3,2.9 -9.6,6.1 -10.1,6.1 -11.4,7.5 -11.4,12.3 0,3.3 3.9,7.1 7.3,7.1 1.2,0 6.3,-2.5 11.3,-5.5 5.1,-3 9.5,-5.5 9.8,-5.5 0.3,0 0.6,5.1 0.6,11.3 0,10.6 0.2,11.5 2.3,13.5 3.3,3.1 8,2.9 10.6,-0.4 1.8,-2.3 2.1,-4.1 2.1,-13.5 0,-6 0.2,-10.9 0.5,-10.9 0.3,0 4.5,2.5 9.4,5.5 4.9,3 10.1,5.5 11.5,5.5 3.6,0 7.6,-4.1 7.6,-7.8 0,-3.5 -2,-5.4 -12.7,-12.2 -4.6,-2.9 -8.3,-5.4 -8.3,-5.5 0,-0.2 4.2,-2.9 9.3,-6 5,-3.2 9.8,-6.4 10.5,-7.3 2,-2.6 1.5,-7.6 -1.1,-10 -3.6,-3.4 -7,-2.7 -16.8,3.3 -4.9,3 -9.1,5.5 -9.4,5.5 -0.3,0 -0.5,-5.1 -0.5,-11.3 0,-10.6 -0.2,-11.5 -2.3,-13.5 -3,-2.8 -8,-2.9 -10.7,-0.2 z" />
  <path style="fill:#a0a0a0;fill-opacity:1;stroke:none" inkscape:connector-curvature="0" id="path8-5" d="m 499.71008,210.18204 c -59.64462,5.64686 -114.61124,38.06401 -148.20786,87.31719 l -7.86756,11.60743 -15.20353,0.62743 c -31.04497,1.25486 -59.32567,11.18914 -84.31049,29.59371 -9.88762,7.32001 -27.32383,25.20173 -33.70294,34.71773 -11.37607,16.73143 -19.34995,35.13601 -23.60269,54.5863 -2.55164,11.81658 -3.18955,37.95944 -1.1695,50.71716 5.10329,32.73087 19.031,59.7103 43.05896,83.23888 22.11422,21.6463 44.76005,33.77658 76.12397,40.99202 9.56866,2.196 10.63185,2.196 213.16841,2.61428 226.24557,0.31372 213.59368,0.62743 235.92055,-6.69257 44.86637,-14.64001 78.0377,-53.1223 86.33053,-99.76118 1.91373,-10.87543 1.7011,-31.99886 -0.53159,-43.08344 -8.50547,-43.29258 -37.31775,-78.32402 -78.0377,-94.84631 -10.95079,-4.49658 -27.96174,-8.47029 -39.12517,-9.20229 l -9.67498,-0.62743 -2.44532,-7.42457 C 699.80133,311.82552 677.36815,279.40836 649.51272,256.40263 607.72959,221.89404 553.18824,205.16261 499.71008,210.18204 z m 32.00184,62.74289 c 47.52433,4.392 88.98852,31.99887 110.35852,73.6183 4.35905,8.36572 9.2497,20.49601 8.61179,20.9143 -8.61179,5.01943 -19.56259,13.07143 -22.00791,16.104 -14.14035,17.46344 -6.48543,42.45601 15.09721,49.67145 10.10025,3.34628 18.39308,1.67314 31.25761,-6.37886 15.30985,-9.51601 26.68592,-12.54858 42.42105,-11.50286 27.21751,1.88228 51.35178,21.54172 58.3688,47.37087 2.02005,7.42457 2.23269,23.94686 0.53159,31.26686 -4.35905,17.88172 -17.54254,34.19487 -34.12821,42.24687 -16.47935,7.94744 -1.06318,7.52915 -223.48129,7.21544 l -199.02806,-0.31372 -7.97388,-2.40514 c -24.2406,-7.32 -43.37791,-23.1103 -54.22239,-44.65202 -6.48542,-12.75771 -8.39915,-19.86857 -9.2497,-33.14915 -2.339,-37.43658 19.45627,-70.79488 55.49821,-85.0166 21.15736,-8.26114 48.80015,-7.21543 68.89433,2.82343 13.71507,6.79715 20.30681,12.33943 37.31776,31.68515 6.69806,7.52915 11.80134,10.14344 21.47632,10.77087 13.71507,0.83657 24.8785,-5.33315 30.72601,-16.83601 5.63488,-11.39829 4.35906,-21.96001 -3.93378,-34.29944 -6.69806,-10.03886 -27.32383,-29.69829 -39.12517,-37.43658 -5.52856,-3.66 -10.31289,-6.79715 -10.52552,-7.00629 -1.48846,-1.35943 14.14035,-17.88171 24.8785,-26.03828 24.77219,-18.92745 48.58752,-27.39774 83.45995,-29.59374 1.48846,-0.10457 8.0802,0.31372 14.77826,0.94115 z" />
  <path inkscape:connector-curvature="0" style="fill:#ba381a;fill-opacity:1;stroke:none" id="path8-1" d="m 565.15587,222.94416 -61.89028,56.99844 0,137.06936 -0.0711,137.14125 9.87982,0 9.87984,0 0.14123,-126.86284 0.21165,-126.86284 31.4038,31.05084 c 17.28974,17.03484 40.64852,40.17923 51.93976,51.32016 l 20.536,20.41307 30.27472,-11.5722 30.27472,-11.50031 25.40528,-3.95324 c 19.40692,-2.94696 33.4504,-5.67827 59.27912,-11.42843 18.6306,-4.09698 45.16508,-9.77527 58.92631,-12.50661 13.76121,-2.80319 36.90831,-7.54708 51.37521,-10.56591 l 26.25219,-5.53452 -0.14115,-54.33899 -0.21169,-54.2671 -27.1696,-5.60641 c -14.96089,-3.01883 -28.86327,-5.53452 -29.49839,-5.60639 -1.19972,0 -0.14114,2.08442 -0.14114,33.42277 l 0.0706,33.4228 -25.47592,0 -25.40527,0 0,-38.31042 0,-38.31043 -30.48648,-6.10953 -30.55692,-6.10956 -0.21179,44.41997 -0.14109,44.41997 -25.40531,0 -25.40541,0 0,-48.3732 0,-48.3732 -30.48636,-10.20651 c -16.79576,-5.60641 -30.69816,-10.20653 -30.90982,-10.20653 -0.21177,0 -28.22823,25.66007 -62.24306,56.92654 z m 61.39619,112.19993 -0.21167,50.52952 -52.92787,-51.53579 c -29.07497,-28.3914 -52.92775,-51.89516 -52.92775,-52.25456 0,-0.35937 23.85278,-22.71309 52.92775,-49.66696 l 52.92787,-49.02009 0.21167,50.67325 c 0.0711,27.96015 0.0711,73.45826 0,101.27463 z" sodipodi:nodetypes="ccccccccccccccccccccccsccccccccccccccsccccscccc" />
</svg>
