<?xml version="1.0" encoding="UTF-8" standalone="no"?>
<svg xmlns:dc="http://purl.org/dc/elements/1.1/" xmlns:cc="http://creativecommons.org/ns#" xmlns:rdf="http://www.w3.org/1999/02/22-rdf-syntax-ns#" xmlns:svg="http://www.w3.org/2000/svg" xmlns="http://www.w3.org/2000/svg" xmlns:sodipodi="http://sodipodi.sourceforge.net/DTD/sodipodi-0.dtd" xmlns:inkscape="http://www.inkscape.org/namespaces/inkscape" version="1.0" width="1024.000000pt" height="1024.000000pt" viewBox="0 0 1024.000000 1024.000000" preserveAspectRatio="xMidYMid meet" id="svg2" inkscape:version="0.48.5 r10040" sodipodi:docname="1999982.svg">
  <defs id="defs34" />
  <sodipodi:namedview pagecolor="#ffffff" bordercolor="#666666" borderopacity="1" objecttolerance="10" gridtolerance="10" guidetolerance="10" inkscape:pageopacity="0" inkscape:pageshadow="2" inkscape:window-width="640" inkscape:window-height="480" id="namedview32" showgrid="false" inkscape:zoom="0.184375" inkscape:cx="640" inkscape:cy="640" inkscape:window-x="1018" inkscape:window-y="363" inkscape:window-maximized="0" inkscape:current-layer="svg2" />
  <metadata id="metadata4">
Created by potrace 1.11, written by Peter Selinger 2001-2013
<rdf:RDF>
  <cc:Work rdf:about="">
    <dc:format>image/svg+xml</dc:format>
    <dc:type rdf:resource="http://purl.org/dc/dcmitype/StillImage" />
  </cc:Work>
</rdf:RDF>
</metadata>
  <path style="fill:#fedc00;fill-opacity:1;stroke:none" inkscape:connector-curvature="0" id="path8-7" d="m 504.4265,61.013707 c -5.2,2 -9.1,5.5 -11.3,10.000001 -2,4.2 -2.1,5.7 -2.1,50.799992 0,52.1 0,51.4 7.5,57.6 9.7,8.1 23.5,6 31,-4.5 l 3,-4.4 0.3,-46.1 c 0.2,-31.699992 0,-47.399992 -0.8,-49.999992 -1.4,-4.9 -6.5,-10.600001 -11.5,-12.800001 -4.5,-2.100004 -11.5,-2.300004 -16.1,-0.6 z" />
  <path style="fill:#fedc00;fill-opacity:1;stroke:none" inkscape:connector-curvature="0" id="path10-0" d="m 379.2265,94.013708 c -11,4.1 -17.1,16.799992 -12.9,26.999992 2.5,5.8 43.8,76.1 46.6,79.1 5.6,6.1 15.3,8.2 22.9,5 10.9,-4.5 16.2,-17.4 11.3,-27.9 -3.9,-8.4 -43.4,-75.2 -46.3,-78.199992 -5.3,-5.5 -14.4,-7.6 -21.6,-5 z" />
  <path style="fill:#fedc00;fill-opacity:1;stroke:none" inkscape:connector-curvature="0" id="path12-2" d="m 630.6265,94.113708 c -2.2,0.8 -5.6,3.2 -7.7,5.3 -2,2.099992 -13.5,20.699992 -25.5,41.299992 -21.5,37 -21.8,37.6 -22.2,44 -0.3,5.4 0,7.3 2.1,11 6.1,11.5 22.3,14.4 32,5.8 3.9,-3.5 46.4,-75.2 48.7,-82.2 2,-6.2 -0.8,-16.4 -5.6,-20.699992 -5.7,-5 -15.2,-6.9 -21.8,-4.5 z" />
  <path style="fill:#fedc00;fill-opacity:1;stroke:none" inkscape:connector-curvature="0" id="path14-0" d="m 287.8265,185.1137 c -8.9,3.2 -13.9,9.4 -14.6,18.1 -0.4,4.5 0,6.5 2.1,10.8 1.5,2.9 3.9,6.2 5.4,7.3 1.5,1.1 19.9,11.8 40.80001,23.7 25.09999,14.30002 39.39999,21.80002 41.99999,22.30002 8.9,1.3 17.6,-3.3 21.8,-11.5 3,-6.00002 3.3,-9.30002 1.5,-15.30002 -2.2,-7.5 -6.5,-10.6 -45.7,-32.9 -20.59999,-11.7 -39.1,-21.8 -41,-22.5 -4.6,-1.7 -7.7,-1.6 -12.3,0 z" />
  <path style="fill:#fedc00;fill-opacity:1;stroke:none" inkscape:connector-curvature="0" id="path16-9" d="m 724.4265,184.7137 c -4.5,1.4 -78.3,43.7 -81.8,46.9 -12.2,11.2 -6.4,31.50002 10.1,35.20002 4.2,1 6.2,0.9 9.5,0 7,-2.1 78.8,-43.70002 83,-48.00002 6.6,-7 7.4,-16.3 2.1,-24.9 -4.5,-7.3 -15.1,-11.5 -22.9,-9.2 z" />
  <path style="fill:#fedc00;fill-opacity:1;stroke:none" inkscape:connector-curvature="0" id="path18-3" d="m 493.6265,228.3137 c -51.4,9.3 -88.1,55.00002 -85.3,106.30002 2.1,38.3 24.2,71.2 59.1,87.7 34,16.1 73,12.8 104.1,-8.7 10,-6.9 23.8,-21.6 29.6,-31.5 29.2,-49.9 13.1,-111.7 -37,-141.40002 -19.7,-11.7 -47.4,-16.6 -70.5,-12.4 z" />
  <path style="fill:#fedc00;fill-opacity:1;stroke:none" inkscape:connector-curvature="0" id="path20-2" d="m 251.2265,310.81372 c -17.4,8.6 -15,33.7 3.7,38.9 5,1.4 90.4,1.3 95.4,-0.1 4.8,-1.3 10.2,-6.1 12.9,-11.2 1.6,-3.2 1.9,-5.4 1.6,-10.3 -0.5,-8 -4,-13.3 -11.1,-16.9 l -5.1,-2.5 -46.5,0 c -45.4,0 -46.7,0.1 -50.9,2.1 z" />
  <path style="fill:#fedc00;fill-opacity:1;stroke:none" inkscape:connector-curvature="0" id="path22-6" d="m 672.5265,309.91372 c -16.4,5.8 -18.8,28.1 -4,37.3 l 4.8,3 48.1,0 c 43.1,0 48.4,-0.2 51.2,-1.7 8,-4.4 13.1,-13.8 11.7,-22 -0.8,-5.5 -6,-12.7 -10.8,-15.2 -3.9,-2 -5.6,-2.1 -51,-2.3 -31.1,-0.1 -48,0.2 -50,0.9 z" />
  <path style="fill:#fedc00;fill-opacity:1;stroke:none" inkscape:connector-curvature="0" id="path24-1" d="m 356.5265,394.51372 c -3.3,1.7 -21.99999,12.2 -41.5,23.4 -41.2,23.7 -41.5,23.9 -41.5,35.6 0,8.3 2.5,13.5 8.4,17.7 3.9,2.7 5,3 11.9,3 l 7.7,0 39.5,-22.6 c 27.9,-16 40.2,-23.6 42.2,-26 10.5,-13.1 2,-32.2 -15,-33.6 -4.9,-0.4 -6.6,0 -11.7,2.5 z" />
  <path style="fill:#fedc00;fill-opacity:1;stroke:none" inkscape:connector-curvature="0" id="path26-0" d="m 648.5265,393.51372 c -13.7,6.6 -16.8,25.1 -5.7,34.4 1.8,1.5 20.3,12.5 41.3,24.4 36.9,21.1 38.4,21.8 44.4,22.2 7.5,0.5 11.9,-1.3 16.9,-6.8 7.4,-8.3 7.1,-20.3 -0.8,-28.2 -1.5,-1.4 -20.2,-12.6 -41.7,-24.9 -36.5,-20.8 -39.5,-22.3 -44.8,-22.6 -4,-0.3 -6.7,0.2 -9.6,1.5 z" />
  <path style="fill:#fedc00;fill-opacity:1;stroke:none" inkscape:connector-curvature="0" id="path28-4" d="m 419.4265,454.21372 c -1.7,0.8 -4.4,2.7 -6,4.3 -2.9,3 -44,72.6 -46.9,79.5 -4.5,10.9 1.9,23.7 13.6,27.2 7.8,2.3 16.4,0 21.5,-5.7 1.2,-1.2 12.2,-19.6 24.4,-40.7 20,-34.3 22.4,-38.9 22.8,-43.6 0.2,-2.9 -0.1,-6.9 -0.7,-8.8 -1.5,-4.4 -7.1,-10.3 -11.8,-12.2 -4.3,-1.8 -12.7,-1.8 -16.9,0 z" />
  <path style="fill:#fedc00;fill-opacity:1;stroke:none" inkscape:connector-curvature="0" id="path30-1" d="m 585.9265,455.01372 c -6.6,3.5 -10.2,9.3 -10.7,17 -0.5,7.8 -1.6,5.5 24.7,50.7 21.9,37.6 24.5,40.9 33.1,43 14.9,3.6 29.6,-11.5 25,-25.6 -1.6,-5 -43.4,-76.9 -46.9,-80.8 -6.1,-6.7 -17.1,-8.5 -25.2,-4.3 z" />
  <path style="fill:#fedc00;fill-opacity:1;stroke:none" inkscape:connector-curvature="0" id="path32-8" d="m 504.0265,476.31372 c -4.5,2 -8.7,5.9 -11.1,10.6 -1.8,3.5 -1.9,6.4 -1.9,50.3 0,43.9 0.1,46.8 1.9,50.3 6.6,12.8 22.3,16.1 32.8,6.9 7.4,-6.5 7.3,-5.7 7.3,-57.2 0,-42.4 -0.2,-46.3 -1.9,-50 -4.6,-10.1 -17.2,-15.2 -27.1,-10.9 z" />
  <path style="fill:#e6b85c;fill-opacity:1;stroke:none" inkscape:connector-curvature="0" id="path10-2" d="m 679.12856,696.70137 c -45,5.8 -79,41.6 -82.8,87 -0.8,8.9 0.4,13.5 4.8,18.4 5.9,6.8 17,8.3 24.2,3.5 5.8,-4.1 7.8,-8 8.8,-18.2 1.6,-16.6 7.1,-28.2 18.1,-38.4 22.4,-21 56.9,-20.3 78.7,1.6 11.1,11.1 16,23.2 16,39.5 0,15.8 -5,27.8 -16.4,39 -3.9,3.9 -9.8,8.5 -13.2,10.2 -12.8,6.8 4.5,6.3 -234.4,6.3 -241.7,0 -223.6,-0.5 -230.3,6.9 -8.3,9.2 -5.3,24.2 5.7,29.2 4,1.8 11.4,1.9 223.1,1.9 209.6,0 219.4,-0.1 228,-1.9 37.9,-7.8 66.4,-36.3 74,-74 2.3,-11.1 1.6,-32.5 -1.3,-42.1 -5.3,-17.5 -13.3,-31 -25.4,-42.6 -15.6,-15.1 -33.6,-23.6 -55.8,-26.4 -9.4,-1.1 -12.7,-1.1 -21.8,0.1 z" />
  <path style="fill:#e6b85c;fill-opacity:1;stroke:none" inkscape:connector-curvature="0" id="path12-23" d="m 308.12856,698.70137 c -15.5,7.7 -12.3,30.9 4.8,34.8 6.5,1.5 244.1,1.5 251.1,0 3.4,-0.7 6.4,-2.3 9,-4.6 9.6,-8.7 7.2,-25.1 -4.5,-30.4 -3.9,-1.8 -9.2,-1.9 -130.1,-1.9 l -126,0 -4.3,2.1 z" />
  <path style="fill:#e6b85c;fill-opacity:1;stroke:none" inkscape:connector-curvature="0" id="path14-3" d="m 282.72856,773.60137 c -10.7,5.7 -13.1,20 -4.9,29.4 0.9,1 3.3,2.7 5.3,3.7 3.7,1.9 7.6,1.9 134.2,1.7 l 130.4,-0.3 3.9,-3.1 c 5,-4 7.3,-8.7 7.3,-14.9 0,-6.2 -2.3,-10.9 -7.3,-14.9 l -3.9,-3.1 -130.6,-0.2 c -128.1,-0.2 -130.8,-0.2 -134.4,1.7 z" />
  <path inkscape:connector-curvature="0" style="fill:#ba381a;fill-opacity:1;stroke:none" id="path8-1" d="m 561.98681,227.33333 -61.89028,56.99845 0,137.06935 -0.0711,137.14125 9.87983,0 9.87984,0 0.14122,-126.86284 0.21165,-126.86283 31.4038,31.05084 c 17.28974,17.03484 40.64853,40.17922 51.93977,51.32015 l 20.53599,20.41307 30.27471,-11.5722 30.27472,-11.50031 25.40529,-3.95324 c 19.40691,-2.94696 33.45041,-5.67827 59.27913,-11.42843 18.63059,-4.09698 45.16507,-9.77527 58.9263,-12.50661 13.76121,-2.80318 36.90831,-7.54707 51.37522,-10.5659 l 26.25218,-5.53452 -0.14114,-54.33899 -0.2117,-54.26711 -27.1696,-5.60641 c -14.96091,-3.01883 -28.86329,-5.53452 -29.49841,-5.60639 -1.19971,0 -0.14114,2.08442 -0.14114,33.42277 l 0.0706,33.42281 -25.47591,0 -25.40528,0 0,-38.31044 0,-38.31042 -30.48649,-6.10953 -30.55692,-6.10956 -0.21178,44.41997 -0.1411,44.41998 -25.4053,0 -25.40541,0 0,-48.37321 0,-48.37321 -30.48637,-10.20651 c -16.79574,-5.60641 -30.69814,-10.20653 -30.9098,-10.20653 -0.21177,0 -28.22822,25.66007 -62.24305,56.92655 z m 61.39618,112.19994 -0.21167,50.52951 -52.92786,-51.53578 c -29.07497,-28.3914 -52.92775,-51.89516 -52.92775,-52.25456 0,-0.35937 23.85278,-22.71312 52.92775,-49.66697 l 52.92786,-49.0201 0.21167,50.67326 c 0.0711,27.96015 0.0711,73.45827 0,101.27464 z" sodipodi:nodetypes="ccccccccccccccccccccccsccccccccccccccsccccscccc" />
</svg>
