<?xml version="1.0" encoding="UTF-8" standalone="no"?>
<svg xmlns:dc="http://purl.org/dc/elements/1.1/" xmlns:cc="http://creativecommons.org/ns#" xmlns:rdf="http://www.w3.org/1999/02/22-rdf-syntax-ns#" xmlns:svg="http://www.w3.org/2000/svg" xmlns="http://www.w3.org/2000/svg" xmlns:sodipodi="http://sodipodi.sourceforge.net/DTD/sodipodi-0.dtd" xmlns:inkscape="http://www.inkscape.org/namespaces/inkscape" version="1.0" width="1024.000000pt" height="1024.000000pt" viewBox="0 0 1024.000000 1024.000000" preserveAspectRatio="xMidYMid meet" id="svg2" inkscape:version="0.48.5 r10040" sodipodi:docname="1399942.svg">
  <defs id="defs40" />
  <sodipodi:namedview pagecolor="#ffffff" bordercolor="#666666" borderopacity="1" objecttolerance="10" gridtolerance="10" guidetolerance="10" inkscape:pageopacity="0" inkscape:pageshadow="2" inkscape:window-width="640" inkscape:window-height="480" id="namedview38" showgrid="false" inkscape:zoom="0.184375" inkscape:cx="640" inkscape:cy="640" inkscape:window-x="800" inkscape:window-y="0" inkscape:window-maximized="0" inkscape:current-layer="svg2" />
  <metadata id="metadata4">
Created by potrace 1.11, written by Peter Selinger 2001-2013
<rdf:RDF>
  <cc:Work rdf:about="">
    <dc:format>image/svg+xml</dc:format>
    <dc:type rdf:resource="http://purl.org/dc/dcmitype/StillImage" />
  </cc:Work>
</rdf:RDF>
</metadata>
  <path style="fill:#fedc00;fill-opacity:1;stroke:none" inkscape:connector-curvature="0" id="path8-8" d="m 381.93468,45.668858 c -5.1,1.8 -11,8.1 -12.4,13.1 -1.5,5.2 -1.5,90.500002 0,95.700002 0.5,2.1 2.4,5.4 4.2,7.4 10.1,11.5 28.3,8.8 34.8,-5.2 1.7,-3.7 1.9,-7.3 1.9,-49 0,-28.400002 -0.4,-46.400002 -1.1,-48.800002 -3,-11.1 -15.9,-17.3 -27.4,-13.2 z" />
  <path style="fill:#fedc00;fill-opacity:1;stroke:none" inkscape:connector-curvature="0" id="path10-7" d="m 258.53468,78.668858 c -12,3.7 -17.9,17.7 -12.3,29.000002 5.1,10.4 43.2,75.2 45.7,77.7 12.7,13.1 35.5,3 35.5,-15.7 0,-4.3 -2.5,-9.1 -24.9,-48 -21.6,-37.500002 -24.5,-41.400002 -32.5,-43.400002 -5.4,-1.3 -6,-1.3 -11.5,0.4 z" />
  <path style="fill:#fedc00;fill-opacity:1;stroke:none" inkscape:connector-curvature="0" id="path12-6" d="m 508.73468,78.368858 c -7.7,1.7 -10.7,5.8 -32.9,44.300002 -11.4,19.8 -21.5,37.8 -22.5,40 -6,13.1 4.4,28.5 19.1,28.5 6.2,0 10.6,-1.7 14.5,-5.7 3.7,-3.7 45.5,-75.9 47.3,-81.7 3.1,-9.900002 -3.7,-22.000002 -14.1,-25.100002 -5.6,-1.7 -5.5,-1.7 -11.4,-0.3 z" />
  <path style="fill:#fedc00;fill-opacity:1;stroke:none" inkscape:connector-curvature="0" id="path14-4" d="m 164.73468,170.76886 c -11.1,5.6 -15.1,18.8 -9.1,29.6 2.8,4.9 4.5,6 47.6,30.8 29.5,16.9 36.2,20.4 40.2,20.8 19.6,1.9 30.9,-22.8 16.4,-35.9 -1.6,-1.4 -20,-12.4 -40.9,-24.5 -37.7,-21.7 -38,-21.8 -44.5,-22.2 -4.6,-0.2 -7.5,0.2 -9.7,1.4 z" />
  <path style="fill:#fedc00;fill-opacity:1;stroke:none" inkscape:connector-curvature="0" id="path16-7" d="m 598.43468,169.86886 c -3.3,1.2 -76.5,43.8 -79.3,46.2 -6.3,5.3 -8.4,15.7 -4.8,23.6 2.3,5.1 7.9,10.1 13.1,11.6 8.2,2.5 11.4,1.1 53.4,-23.1 35.4,-20.4 39.2,-22.9 41.7,-26.9 5.4,-8.5 4.7,-18 -1.9,-25.3 -2,-2.3 -5.1,-4.7 -6.9,-5.5 -3.2,-1.3 -12.4,-1.7 -15.3,-0.6 z" />
  <path style="fill:#fedc00;fill-opacity:1;stroke:none" inkscape:connector-curvature="0" id="path18-6" d="m 378.93468,211.86886 c -36,4.6 -66,25.5 -81.5,56.8 -14.6,29.2 -14.4,62.9 0.4,92.3 2.5,4.9 4.1,7 4.9,6.5 0.7,-0.4 4.6,-2.9 8.7,-5.6 9.8,-6.4 27.2,-14.8 38.6,-18.6 7.6,-2.5 17.3,-4.7 33,-7.7 1.2,-0.2 4.7,-3.4 7.7,-7.2 19.2,-23.4 48.6,-45.7 77,-58.4 6.2,-2.8 11.4,-5.2 11.6,-5.4 0.9,-0.9 -10.2,-15.6 -16.9,-22.5 -21.6,-21.8 -55,-33.9 -83.5,-30.2 z" />
  <path style="fill:#fedc00;fill-opacity:1;stroke:none" inkscape:connector-curvature="0" id="path20-0" d="m 133.63468,294.46886 c -14.6,5.3 -18.9,23.7 -8.1,34.6 2.1,2.1 5.5,4.3 7.7,4.9 2.8,0.9 17.4,1.2 49.3,1.2 42.1,0 45.7,-0.2 49.4,-1.9 5.2,-2.4 9.1,-6.6 11,-12 2.2,-6.2 1.9,-10 -1.2,-16.2 -3,-5.7 -7.1,-9.2 -13.2,-10.9 -5.4,-1.5 -90.7,-1.2 -94.9,0.3 z" />
  <path style="fill:#a0a0a0;fill-opacity:1;stroke:none" inkscape:connector-curvature="0" id="path22-6" d="m 537.43468,301.26886 c -50.6,4.4 -99.1,33.9 -125.3,76.1 l -4.2,6.8 -9.1,0 c -11.4,0 -25.3,2.3 -36.9,6.2 -17.9,6 -32.1,14.6 -45.9,27.8 -25.6,24.5 -38.7,54.8 -38.7,89.5 0,28.2 8.1,52.4 24.8,74.6 18.6,24.7 43.4,40.3 74.5,47.1 9.8,2.1 12.6,2.2 55.2,2.2 l 44.9,0.1 13.3,-25.5 c 7.3,-14 13.3,-25.8 13.4,-26.2 0,-0.4 -26.2,-0.8 -58.2,-1 l -58.3,-0.3 -8,-2.8 c -19.5,-6.9 -33,-18.6 -42,-36.5 -9.9,-19.9 -9.9,-42.3 0.1,-63.1 7.8,-16.1 23.8,-30.2 40.9,-36.1 18.7,-6.4 41.9,-4 59.3,6.2 5.9,3.4 17.8,14.7 24.6,23.2 12.2,15.2 36.6,11.7 44.4,-6.3 2.4,-5.6 2,-15.7 -0.8,-21.1 -5.7,-11.1 -24,-29.9 -36.8,-38 -3.9,-2.5 -7.2,-5 -7.2,-5.6 0,-2.2 15.8,-18 23.7,-23.6 21.8,-15.7 45.8,-22.8 72.8,-21.5 15.8,0.8 28.8,4.1 43.1,11.2 24.4,11.9 42.3,30 53.7,54.3 5.8,12.5 5.7,12.8 -3.8,19.3 -9.1,6.2 -12.9,11.4 -14.7,19.9 -2.8,13.6 7.1,27.4 21.7,30.1 6.5,1.2 13.1,-0.6 21.4,-6 9.9,-6.3 17.6,-9 27.2,-9.8 26.8,-2.1 50.8,16 56.4,42.4 1.8,8.6 1.8,13 0,21.8 -4.1,19.5 -19.8,36 -39,41 -4.9,1.2 -14,1.5 -53.5,1.5 l -47.5,0 -13.2,25.8 c -7.3,14.3 -13,26.2 -12.6,26.5 1,1.1 113.9,0.8 123.8,-0.3 37.5,-4.2 68.9,-26.2 85,-59.4 6.8,-14 9.6,-25.4 10.2,-42.1 0.6,-16.5 -1.5,-29.1 -7.2,-43.3 -15.1,-37.3 -49.7,-62.9 -89.4,-66 l -8.3,-0.7 -3.3,-9 c -8.7,-24.2 -23.1,-46.3 -41.5,-63.9 -28,-26.7 -62.6,-42.2 -102,-45.6 -12.7,-1.1 -13.4,-1.1 -27,0.1 z" />
  <path style="fill:#fedc00;fill-opacity:1;stroke:none" inkscape:connector-curvature="0" id="path24-3" d="m 239.43468,377.56886 c -1.9,0.6 -20.1,10.8 -40.5,22.5 -39.5,22.6 -43.2,25.4 -45.5,33.5 -1.9,6.8 0.7,16.4 5.6,20.7 5.4,4.7 14,6.8 19.9,4.9 2.1,-0.7 20.5,-10.8 40.9,-22.6 37.7,-21.7 42.1,-24.8 45.2,-32.1 4.6,-10.6 -2.6,-24.3 -14.2,-27.2 -5.4,-1.4 -7,-1.3 -11.4,0.3 z" />
  <path style="fill:#fedc00;fill-opacity:1;stroke:none" inkscape:connector-curvature="0" id="path26-4" d="m 544.03468,556.36886 c -3,6.2 -24.9,51.2 -48.9,100 -23.9,48.8 -43.3,88.8 -43.2,89 0.2,0.2 16,0 35.1,-0.4 19.2,-0.4 35,-0.6 35.1,-0.4 0.1,0.1 -9.6,22 -21.7,48.7 -12.1,26.6 -22.3,49.2 -22.6,50.1 -0.5,1.69999 0.8,1.79999 17.3,1.89999 9.8,0.1 23.9,0.4 31.4,0.8 l 13.6,0.6 -17.3,38.4 c -9.6,21.2 -17.2,38.6 -17,38.8 0.2,0.2 21.3,-23.2 46.9,-51.9 l 46.6,-52.29999 -29.4,-0.3 c -16.2,-0.1 -29.5,-0.6 -29.5,-1 0,-0.4 10.8,-24.6 23.9,-53.7 l 23.9,-53 -27.8,-0.5 -27.8,-0.5 41.9,-82 c 23,-45.1 41.9,-82.3 41.9,-82.8 0,-0.4 -15.1,-0.7 -33.6,-0.7 l -33.5,0 -5.3,11.2 z" />
  <path style="fill:#80d3ff;fill-opacity:1;stroke:none" inkscape:connector-curvature="0" id="path28-6" d="m 337.03468,708.16886 c -29.8,15.9 -44.2,26.9 -49.5,38 -3.5,7.4 -3.7,21 -0.4,28.1 6.3,13.8 22.3,22.5 36.5,20 16.2,-2.8 25.8,-12.8 29.9,-30.9 1.8,-8.3 2.8,-29.3 2.2,-47 -0.3,-9.4 -0.9,-17.2 -1.2,-17.2 -0.3,0 -8.2,4.1 -17.5,9 z m 0.4,31.1 c 0,18.4 -2.8,29.2 -8.6,33.8 -11.3,8.9 -27.5,0.1 -26.2,-14.1 0.6,-5.9 2.5,-8.7 10.1,-14.8 5.4,-4.5 22.3,-15 23.9,-15 0.4,0 0.8,4.5 0.8,10.1 z" />
  <path style="fill:#80d3ff;fill-opacity:1;stroke:none" inkscape:connector-curvature="0" id="path30-3" d="m 791.93468,707.06886 c -42.8,22.2 -55,34.2 -54.8,54.2 0.1,20.3 20.4,36.9 40.1,32.8 8.2,-1.6 14.3,-5 19.5,-10.9 9,-10 11.7,-23.6 11.6,-57.5 -0.1,-12.1 -0.4,-23 -0.7,-24.2 -0.7,-2.2 -1.2,-1.9 -15.7,5.6 z m -1.8,34.8 c -1,20.5 -3.4,28.1 -10.4,32.4 -10.6,6.6 -24.3,-1.1 -24.3,-13.5 0,-6.7 3.1,-11.5 11.3,-17.8 5.3,-3.9 22.4,-14.7 23.6,-14.8 0.2,0 0.1,6.2 -0.2,13.7 z" />
  <path style="fill:#fedc00;fill-opacity:1;stroke:none" inkscape:connector-curvature="0" id="path32-3" d="m 371.63468,762.86886 -22.1,52.8 36,0.3 35.9,0.2 -27.1,54.29999 c -14.9,29.8 -26.6,53.7 -26.1,53.2 0.6,-0.6 24.5,-34.1 53.1,-74.5 32.8,-46.29999 51.6,-73.59999 50.7,-73.79999 -0.7,-0.2 -14.4,-0.6 -30.3,-1 l -29,-0.7 14.8,-31 c 8.2,-17.1 14.8,-31.3 14.9,-31.8 0,-0.4 -10.9,-0.7 -24.3,-0.7 l -24.3,0 -22.2,52.7 z" />
  <path style="fill:#fedc00;fill-opacity:1;stroke:none" inkscape:connector-curvature="0" id="path34-1" d="m 618.93468,713.36886 c -0.7,1.8 -9.2,21.6 -18.8,44 l -17.5,40.8 38.9,0 38.9,0 -31.5,62.99999 c -17.3,34.6 -31.3,63 -31.1,63 0.6,0 125,-160.69999 125.4,-161.99999 0.2,-0.6 -13.4,-1 -38.2,-1 -21.2,0 -38.6,-0.2 -38.6,-0.6 0,-0.3 4.1,-9.4 9.1,-20.2 5.1,-10.8 10.2,-22.1 11.5,-25 l 2.4,-5.2 -24.6,0 -24.5,0 -1.4,3.2 z" />
  <path style="fill:#80d3ff;fill-opacity:1;stroke:none" inkscape:connector-curvature="0" id="path36-1" d="m 243.03468,805.76886 c -40.7,21.3 -57.4,32.4 -70.6,46.79999 -8.5,9.2 -12.4,19.8 -12.4,33.1 0,44.9 53.9,67.3 86.1,35.9 13.9,-13.6 19.3,-35.9 19.3,-79.89999 0,-21 -1.1,-46.5 -1.9,-46.5 -0.3,0 -9.6,4.8 -20.5,10.6 z m -6.6,62.79999 c -2.1,23.1 -5.6,31.9 -14.9,36.9 -6.2,3.4 -15.2,3.7 -21,0.7 -8.4,-4.2 -14.1,-14.6 -12.7,-23.1 1.8,-11.5 11,-20.2 38.6,-36.5 l 10.5,-6.29999 0.3,8.19999 c 0.2,4.5 -0.2,13.6 -0.8,20.1 z" />
  <path style="fill:#80d3ff;fill-opacity:1;stroke:none" inkscape:connector-curvature="0" id="path38" d="m 815.43468,804.26886 c -65.3,34 -84,50.99999 -85.7,78.39999 -1.5,23.3 12.8,43.9 35.6,51.3 6.5,2 8.9,2.3 17.1,1.9 11.2,-0.5 18.2,-2.9 27.3,-9.1 15.8,-10.8 22.3,-27.2 24.8,-62.2 1.1,-16.1 0.4,-69.39999 -1,-69.39999 -0.3,0 -8.5,4.1 -18.1,9.1 z m -8.9,59.89999 c -2,27.8 -6.1,37.7 -17.3,42.4 -14.8,6.2 -31.8,-4.9 -31.8,-20.8 0.1,-12.2 8.7,-21.2 36.4,-37.8 l 13.1,-7.89999 0.3,4.3 c 0.2,2.39999 -0.1,11.29999 -0.7,19.79999 z" />
  <path inkscape:connector-curvature="0" style="fill:#ba381a;fill-opacity:1;stroke:none" id="path8-1" d="m 566.32579,224.13333 -61.89028,56.99844 0,137.06935 -0.0711,137.14125 9.87983,0 9.87984,0 0.14122,-126.86284 0.21165,-126.86283 31.4038,31.05084 c 17.28974,17.03484 40.64853,40.17922 51.93977,51.32015 l 20.53599,20.41307 30.27471,-11.5722 30.27472,-11.50031 25.40529,-3.95324 c 19.40691,-2.94696 33.45041,-5.67827 59.27913,-11.42843 18.63059,-4.09698 45.16507,-9.77527 58.9263,-12.50661 13.76121,-2.80318 36.90831,-7.54707 51.37522,-10.5659 l 26.25218,-5.53452 -0.14114,-54.33899 -0.2117,-54.2671 -27.1696,-5.60641 c -14.96091,-3.01883 -28.86329,-5.53452 -29.49841,-5.60639 -1.19971,0 -0.14114,2.08442 -0.14114,33.42277 l 0.0706,33.4228 -25.47591,0 -25.40528,0 0,-38.31043 0,-38.31042 -30.48649,-6.10953 -30.55692,-6.10956 -0.21178,44.41997 -0.1411,44.41997 -25.4053,0 -25.40541,0 0,-48.3732 0,-48.37321 -30.48637,-10.20651 c -16.79574,-5.60641 -30.69814,-10.20653 -30.9098,-10.20653 -0.21177,0 -28.22822,25.66007 -62.24305,56.92655 z m 61.39618,112.19993 -0.21167,50.52951 -52.92786,-51.53578 c -29.07497,-28.3914 -52.92775,-51.89516 -52.92775,-52.25456 0,-0.35937 23.85278,-22.71311 52.92775,-49.66696 l 52.92786,-49.0201 0.21167,50.67326 c 0.0711,27.96014 0.0711,73.45826 0,101.27463 z" sodipodi:nodetypes="ccccccccccccccccccccccsccccccccccccccsccccscccc" />
</svg>
