<?xml version="1.0" encoding="UTF-8" standalone="no"?>
<svg xmlns:dc="http://purl.org/dc/elements/1.1/" xmlns:cc="http://creativecommons.org/ns#" xmlns:rdf="http://www.w3.org/1999/02/22-rdf-syntax-ns#" xmlns:svg="http://www.w3.org/2000/svg" xmlns="http://www.w3.org/2000/svg" xmlns:sodipodi="http://sodipodi.sourceforge.net/DTD/sodipodi-0.dtd" xmlns:inkscape="http://www.inkscape.org/namespaces/inkscape" version="1.0" width="1024.000000pt" height="1024.000000pt" viewBox="0 0 1024.000000 1024.000000" preserveAspectRatio="xMidYMid meet" id="svg2" inkscape:version="0.48.5 r10040" sodipodi:docname="sym1999971.svg">
  <defs id="defs40" />
  <sodipodi:namedview pagecolor="#ffffff" bordercolor="#666666" borderopacity="1" objecttolerance="10" gridtolerance="10" guidetolerance="10" inkscape:pageopacity="0" inkscape:pageshadow="2" inkscape:window-width="1549" inkscape:window-height="1139" id="namedview38" showgrid="false" inkscape:zoom="2.085965" inkscape:cx="809.52594" inkscape:cy="917.20765" inkscape:window-x="723" inkscape:window-y="0" inkscape:window-maximized="0" inkscape:current-layer="svg2" />
  <metadata id="metadata4">
Created by potrace 1.11, written by Peter Selinger 2001-2013
<rdf:RDF>
  <cc:Work rdf:about="">
    <dc:format>image/svg+xml</dc:format>
    <dc:type rdf:resource="http://purl.org/dc/dcmitype/StillImage" />
  </cc:Work>
</rdf:RDF>
</metadata>
  <path style="fill:#cccccc;stroke:none;fill-opacity:1" inkscape:connector-curvature="0" id="path32" d="m 265.5,704.4 c -3.9,1.7 -8,6.5 -9.5,11.2 -2.7,8 1.7,18 9.3,21.5 4.1,1.8 10.6,1.9 246.2,1.9 235.6,0 242.1,-0.1 246.2,-1.9 7.6,-3.5 12,-13.5 9.3,-21.5 -1.6,-4.8 -5.6,-9.6 -9.7,-11.2 -4.8,-2 -487.2,-2 -491.8,0 z" />
  <path style="fill:#cccccc;stroke:none;fill-opacity:1" inkscape:connector-curvature="0" id="path34" d="m 267.2,779.2 c -1.8,0.6 -5,3 -7.1,5.3 -4.5,4.9 -6.1,11.3 -4.3,17.4 1.4,4.4 7.4,10.4 12.1,12 4.9,1.6 482.3,1.6 487.2,0 4.7,-1.6 10.7,-7.6 12.1,-12 0.6,-2.2 0.8,-5.7 0.4,-8.4 -0.9,-5.9 -6.7,-12.6 -12.4,-14.3 -5.3,-1.6 -483.1,-1.5 -488,0 z" />
  <path style="fill:#cccccc;stroke:none;fill-opacity:1" inkscape:connector-curvature="0" id="path36" d="m 265.3,855.9 c -10.5,4.8 -13.3,19 -5.5,28.3 5.3,6.2 -13.2,5.8 251.7,5.8 264.9,0 246.4,0.4 251.7,-5.8 7.8,-9.3 5,-23.5 -5.5,-28.3 -4.1,-1.8 -10.6,-1.9 -246.2,-1.9 -235.6,0 -242.1,0.1 -246.2,1.9 z" />
  <path style="fill:#fedc00;fill-opacity:1;stroke:none" inkscape:connector-curvature="0" id="path8-7" d="m 504.4265,61.013713 c -5.2,2 -9.1,5.5 -11.3,10 -2,4.2 -2.1,5.7 -2.1,50.799997 0,52.1 0,51.4 7.5,57.6 9.7,8.1 23.5,6 31,-4.5 l 3,-4.4 0.3,-46.1 c 0.2,-31.699997 0,-47.399997 -0.8,-49.999997 -1.4,-4.9 -6.5,-10.6 -11.5,-12.8 -4.5,-2.1 -11.5,-2.3 -16.1,-0.6 z" />
  <path style="fill:#fedc00;fill-opacity:1;stroke:none" inkscape:connector-curvature="0" id="path10-0" d="m 379.2265,94.013713 c -11,4.1 -17.1,16.799997 -12.9,26.999997 2.5,5.8 43.8,76.1 46.6,79.1 5.6,6.1 15.3,8.2 22.9,5 10.9,-4.5 16.2,-17.4 11.3,-27.9 -3.9,-8.4 -43.4,-75.2 -46.3,-78.199997 -5.3,-5.5 -14.4,-7.6 -21.6,-5 z" />
  <path style="fill:#fedc00;fill-opacity:1;stroke:none" inkscape:connector-curvature="0" id="path12-2" d="m 630.6265,94.113713 c -2.2,0.8 -5.6,3.2 -7.7,5.3 -2,2.099997 -13.5,20.699997 -25.5,41.299997 -21.5,37 -21.8,37.6 -22.2,44 -0.3,5.4 0,7.3 2.1,11 6.1,11.5 22.3,14.4 32,5.8 3.9,-3.5 46.4,-75.2 48.7,-82.2 2,-6.2 -0.8,-16.4 -5.6,-20.699997 -5.7,-5 -15.2,-6.9 -21.8,-4.5 z" />
  <path style="fill:#fedc00;fill-opacity:1;stroke:none" inkscape:connector-curvature="0" id="path14-0" d="m 287.8265,185.11371 c -8.9,3.2 -13.9,9.4 -14.6,18.1 -0.4,4.5 0,6.5 2.1,10.8 1.5,2.9 3.9,6.2 5.4,7.3 1.5,1.1 19.9,11.8 40.80001,23.7 25.09999,14.30001 39.39999,21.80001 41.99999,22.30001 8.9,1.3 17.6,-3.3 21.8,-11.5 3,-6.00001 3.3,-9.30001 1.5,-15.30001 -2.2,-7.5 -6.5,-10.6 -45.7,-32.9 -20.59999,-11.7 -39.1,-21.8 -41,-22.5 -4.6,-1.7 -7.7,-1.6 -12.3,0 z" />
  <path style="fill:#fedc00;fill-opacity:1;stroke:none" inkscape:connector-curvature="0" id="path16-9" d="m 724.4265,184.71371 c -4.5,1.4 -78.3,43.7 -81.8,46.9 -12.2,11.2 -6.4,31.50001 10.1,35.20001 4.2,1 6.2,0.9 9.5,0 7,-2.1 78.8,-43.70001 83,-48.00001 6.6,-7 7.4,-16.3 2.1,-24.9 -4.5,-7.3 -15.1,-11.5 -22.9,-9.2 z" />
  <path style="fill:#fedc00;fill-opacity:1;stroke:none" inkscape:connector-curvature="0" id="path18-3" d="m 493.6265,228.31371 c -51.4,9.3 -88.1,55.00001 -85.3,106.30001 2.1,38.3 24.2,71.2 59.1,87.7 34,16.1 73,12.8 104.1,-8.7 10,-6.9 23.8,-21.6 29.6,-31.5 29.2,-49.9 13.1,-111.7 -37,-141.40001 -19.7,-11.7 -47.4,-16.6 -70.5,-12.4 z" />
  <path style="fill:#fedc00;fill-opacity:1;stroke:none" inkscape:connector-curvature="0" id="path20-2" d="m 251.2265,310.81372 c -17.4,8.6 -15,33.7 3.7,38.9 5,1.4 90.4,1.3 95.4,-0.1 4.8,-1.3 10.2,-6.1 12.9,-11.2 1.6,-3.2 1.9,-5.4 1.6,-10.3 -0.5,-8 -4,-13.3 -11.1,-16.9 l -5.1,-2.5 -46.5,0 c -45.4,0 -46.7,0.1 -50.9,2.1 z" />
  <path style="fill:#fedc00;fill-opacity:1;stroke:none" inkscape:connector-curvature="0" id="path22-6" d="m 672.5265,309.91372 c -16.4,5.8 -18.8,28.1 -4,37.3 l 4.8,3 48.1,0 c 43.1,0 48.4,-0.2 51.2,-1.7 8,-4.4 13.1,-13.8 11.7,-22 -0.8,-5.5 -6,-12.7 -10.8,-15.2 -3.9,-2 -5.6,-2.1 -51,-2.3 -31.1,-0.1 -48,0.2 -50,0.9 z" />
  <path style="fill:#fedc00;fill-opacity:1;stroke:none" inkscape:connector-curvature="0" id="path24-1" d="m 356.5265,394.51372 c -3.3,1.7 -21.99999,12.2 -41.5,23.4 -41.2,23.7 -41.5,23.9 -41.5,35.6 0,8.3 2.5,13.5 8.4,17.7 3.9,2.7 5,3 11.9,3 l 7.7,0 39.5,-22.6 c 27.9,-16 40.2,-23.6 42.2,-26 10.5,-13.1 2,-32.2 -15,-33.6 -4.9,-0.4 -6.6,0 -11.7,2.5 z" />
  <path style="fill:#fedc00;fill-opacity:1;stroke:none" inkscape:connector-curvature="0" id="path26-0" d="m 648.5265,393.51372 c -13.7,6.6 -16.8,25.1 -5.7,34.4 1.8,1.5 20.3,12.5 41.3,24.4 36.9,21.1 38.4,21.8 44.4,22.2 7.5,0.5 11.9,-1.3 16.9,-6.8 7.4,-8.3 7.1,-20.3 -0.8,-28.2 -1.5,-1.4 -20.2,-12.6 -41.7,-24.9 -36.5,-20.8 -39.5,-22.3 -44.8,-22.6 -4,-0.3 -6.7,0.2 -9.6,1.5 z" />
  <path style="fill:#fedc00;fill-opacity:1;stroke:none" inkscape:connector-curvature="0" id="path28-4" d="m 419.4265,454.21372 c -1.7,0.8 -4.4,2.7 -6,4.3 -2.9,3 -44,72.6 -46.9,79.5 -4.5,10.9 1.9,23.7 13.6,27.2 7.8,2.3 16.4,0 21.5,-5.7 1.2,-1.2 12.2,-19.6 24.4,-40.7 20,-34.3 22.4,-38.9 22.8,-43.6 0.2,-2.9 -0.1,-6.9 -0.7,-8.8 -1.5,-4.4 -7.1,-10.3 -11.8,-12.2 -4.3,-1.8 -12.7,-1.8 -16.9,0 z" />
  <path style="fill:#fedc00;fill-opacity:1;stroke:none" inkscape:connector-curvature="0" id="path30-1" d="m 585.9265,455.01372 c -6.6,3.5 -10.2,9.3 -10.7,17 -0.5,7.8 -1.6,5.5 24.7,50.7 21.9,37.6 24.5,40.9 33.1,43 14.9,3.6 29.6,-11.5 25,-25.6 -1.6,-5 -43.4,-76.9 -46.9,-80.8 -6.1,-6.7 -17.1,-8.5 -25.2,-4.3 z" />
  <path style="fill:#fedc00;fill-opacity:1;stroke:none" inkscape:connector-curvature="0" id="path32-8" d="m 504.0265,476.31372 c -4.5,2 -8.7,5.9 -11.1,10.6 -1.8,3.5 -1.9,6.4 -1.9,50.3 0,43.9 0.1,46.8 1.9,50.3 6.6,12.8 22.3,16.1 32.8,6.9 7.4,-6.5 7.3,-5.7 7.3,-57.2 0,-42.4 -0.2,-46.3 -1.9,-50 -4.6,-10.1 -17.2,-15.2 -27.1,-10.9 z" />
  <path style="fill:#ba381a;fill-opacity:1;stroke:none" sodipodi:nodetypes="ssccccccssscccsscccccccscscccsccccsscccccscccscssssscccccsccccsscsscccccscccsccccccccccscscscsccccccccccss" inkscape:connector-curvature="0" id="path14-9" d="m 761.50044,129.06168 c -36.56587,59.09144 -74.53369,120.25239 -119.9,186.19999 -8.54496,12.4216 -9.2,16.1 -6.9,20.9 1.3,2.7 2.8,3.9 5.7,4.9 3,1 30.3,1.2 129.7,1 125.4,-0.3 125.8,-0.3 128.5,-2.4 3.3,-2.4 4.6,-6.3 3.4,-10.3 -1.2,-4.2 -123.7,-194.99999 -127.6,-198.89999 -3.9,-3.7 -10.02124,-6.05217 -12.9,-1.4 z m 9.3,76.4 c 0.8,0.8 1.2,4.8 1.2,11.2 l 0,9.99999 6.4,-6.29999 c 5.6,-5.5 6.7,-6.2 8,-5.1 0.9,0.7 1.6,1.7 1.6,2.4 0,0.6 -3.6,4.7 -8,9.09999 l -8.1,8.1 0.3,10.6 0.3,10.7 8.5,-4.8 8.5,-4.8 1.7,-5.9 c 0.9,-3.3 2.4,-8.5 3.3,-11.7 1.4,-4.89999 2,-5.69999 4.1,-5.69999 3,0 3.1,2.1 0.4,10.99999 -1.1,3.6 -2,6.6 -2,6.7 0,1 3.2,-0.3 10.2,-4.3 7.2,-4.1 8.2,-4.4 9.6,-3.1 2.4,2.5 0.9,4.2 -7.7,8.8 -4.5,2.3 -8.1,4.6 -8.1,5 0,0.4 2.6,1.5 5.8,2.4 3.1,0.8 6.7,2 8,2.5 2.2,1 3,4.4 1.2,5.5 -0.5,0.3 -5.6,-0.8 -11.4,-2.5 -5.7,-1.6 -11.1,-3 -12,-3 -1.8,0 -17.6,8.2 -17.6,9.1 0,0.4 3.9,2.7 8.8,5.2 l 8.7,4.5 11.5,-3.5 c 10.7,-3.3 11.5,-3.4 12.7,-1.7 1.9,2.6 0,4.1 -8.3,6.6 -4.1,1.1 -7.4,2.4 -7.4,2.7 0,0.4 3.7,2.7 8.2,5.1 5.1,2.8 8.4,5.2 8.6,6.4 0.8,3.8 -2.2,3.6 -10.7,-0.9 -4.6,-2.5 -8.7,-4.5 -9.1,-4.5 -0.5,0 0.3,3.7 1.7,8.1 2.2,7.4 2.3,8.3 0.9,9.7 -1.4,1.4 -1.8,1.4 -3,0.2 -1.1,-1.1 -7.6,-20.5 -7.6,-22.5 0,-0.4 -16.7,-9.5 -17.4,-9.5 -0.3,0 -0.6,4.6 -0.6,10.2 l 0,10.2 8.1,8.2 c 8.1,8.3 9.5,11.5 5.5,12.2 -1.2,0.3 -3.9,-1.6 -7.7,-5.4 l -5.9,-5.8 0,9.4 c 0,10.5 -0.9,13.2 -3.7,11.4 -1.5,-0.9 -1.9,-2.9 -2.3,-10.7 l -0.5,-9.7 -6.2,5.5 c -6.2,5.6 -10.3,7.1 -10.3,3.7 0,-0.9 3.8,-5.5 8.5,-10.2 l 8.5,-8.5 0,-10.2 c 0,-5.7 -0.2,-10.3 -0.6,-10.3 -0.3,0 -4.5,2.1 -9.4,4.7 l -8.8,4.8 -3.4,10.9 c -3.6,11.5 -5.6,14.2 -8.3,11.6 -1.3,-1.4 -1.2,-2.4 1,-9.5 1.3,-4.4 2.3,-8.1 2.1,-8.3 -0.2,-0.2 -4.1,1.8 -8.69999,4.3 -8.8,4.8 -11.2,5.3 -11.7,2 -0.2,-1.7 1.4,-3 8.3,-6.8 4.7,-2.6 8.49999,-5 8.49999,-5.2 0,-0.3 -3.29999,-1.4 -7.19999,-2.6 -8.6,-2.5 -10.7,-4.1 -8.8,-6.3 1.7,-2.1 2.4,-2.1 14.5,1.5 l 10.39999,3.1 8.7,-4.8 c 10,-5.4 10.1,-4.9 -2,-11.1 l -7,-3.5 -10.49999,3.1 c -12.2,3.6 -13.7,3.7 -14.5,1.4 -1,-2.5 1.1,-3.9 9.3,-6.3 4,-1.2 6.99999,-2.5 6.49999,-3 -0.5,-0.5 -4.39999,-2.7 -8.59999,-5 -5.6,-3 -7.8,-4.7 -7.8,-6.1 0,-3.5 2.8,-3.2 11.5,1.4 5.49999,3 8.49999,4.1 8.49999,3.2 0,-0.7 -0.9,-4.3 -2.1,-8 -2.2,-7.29999 -2,-9.49999 0.9,-9.49999 2.8,0 3.5,1.3 7.2,13.09999 l 3.2,10.6 9.4,4.6 9.4,4.7 0,-10.8 0,-10.8 -8.5,-7.8 c -8.3,-7.59999 -10.1,-10.79999 -6.9,-11.99999 1.2,-0.4 3.9,1.3 8.5,5.5 l 6.9,6.1 0,-9.2 c 0,-11.2 1.6,-15 4.8,-11.8 z" />
  <path style="fill:#ffffff;fill-opacity:1;stroke:none" d="m 767.99797,316.78027 c -1.01647,-1.1232 -1.90381,-8.05107 -1.93025,-15.0704 -0.008,-2.14511 -0.2584,-4.0508 -0.55624,-4.23488 -0.29786,-0.18408 -1.82328,0.86052 -3.38984,2.32129 -6.49912,6.06035 -11.24122,9.02763 -12.46751,7.80135 -1.03188,-1.03188 0.48376,-3.04344 8.67007,-11.50692 l 7.72881,-7.99052 0,-10.27332 c 0,-5.65032 -0.16272,-10.43603 -0.36159,-10.63488 -0.42866,-0.42868 -16.8658,8.00272 -18.15364,9.31188 -0.48846,0.49656 -2.04022,4.56384 -3.44836,9.0384 -2.56818,8.1608 -4.01933,11.65588 -5.5735,13.42372 -1.02735,1.1686 -1.43836,1.18436 -2.52587,0.0969 -1.201,-1.201 -1.07364,-2.81923 0.71627,-9.10067 2.2544,-7.91152 2.36056,-8.48861 1.56041,-8.48213 -0.37857,0.003 -4.32001,1.83357 -8.75875,4.06777 -4.43873,2.23424 -8.51829,4.06224 -9.06565,4.06224 -0.54736,0 -1.25195,-0.47972 -1.56575,-1.06604 -0.85368,-1.59512 1.43188,-3.74784 7.8544,-7.39797 6.72627,-3.82275 8.49856,-5.05039 8.13662,-5.63603 -0.1556,-0.25176 -3.28279,-1.45748 -6.94935,-2.67936 -9.05824,-3.01868 -10.39916,-4.07028 -7.98076,-6.25892 1.40501,-1.27152 3.11228,-0.98508 14.7784,2.47956 l 9.16859,2.72292 7.15206,-3.88424 c 3.93363,-2.13636 7.60474,-4.31832 8.158,-4.84884 1.94674,-1.86676 0.76682,-2.98028 -7.68017,-7.248 l -7.96984,-4.02668 -8.94915,2.66696 c -5.55973,1.65684 -10.18165,2.71208 -12.20337,2.7862 -3.16292,0.11592 -3.25896,0.0783 -3.42259,-1.33832 -0.21964,-1.90168 0.83084,-2.55552 8.14272,-5.0684 3.19271,-1.0972 6.24355,-2.32028 6.77966,-2.71789 0.93177,-0.69107 0.92692,-0.75895 -0.10998,-1.53899 -0.5966,-0.4488 -3.29041,-2.03924 -5.98621,-3.53428 -7.20783,-3.99728 -9.57428,-5.83345 -9.36984,-7.27024 0.31968,-2.247 2.69269,-1.79861 10.70265,2.02224 7.11947,3.39612 9.26358,4.11752 9.26358,3.11683 0,-0.24659 -0.72647,-3.03547 -1.61436,-6.19752 -2.24479,-7.9944 -2.48444,-9.78413 -1.42756,-10.66127 1.40532,-1.1663 3.45136,-0.26618 4.62524,2.0348 0.57978,1.13648 2.37804,6.31903 3.99612,11.51676 l 2.94197,9.45044 9.43421,4.64739 9.4342,4.64737 0.14718,-10.85668 0.14716,-10.85668 -7.84547,-7.6212 c -4.31501,-4.19168 -8.0712,-8.23138 -8.34709,-8.97714 -1.23108,-3.32776 1.35977,-3.6352 5.13765,-0.60964 1.44375,1.15622 4.45549,3.7046 6.69279,5.66305 l 4.06778,3.56085 0.40795,-8.51054 c 0.46439,-9.68792 0.84839,-11.95501 2.16563,-12.78591 0.71892,-0.45348 1.15042,-0.36895 1.89082,0.37043 0.83471,0.83354 0.9813,2.25912 1.12846,10.97385 0.093,5.50872 0.29742,10.01589 0.45421,10.01589 0.15679,0 2.76543,-2.34122 5.79696,-5.2027 6.55087,-6.18336 7.5112,-6.75472 9.03513,-5.37559 0.59782,0.54103 1.08694,1.20539 1.08694,1.47639 0,0.271 -3.6242,4.19926 -8.05378,8.72949 l -8.05378,8.23681 0.2586,10.98304 c 0.14224,6.04068 0.34558,10.98304 0.45188,10.98304 0.1063,0 4.0614,-2.19369 8.78909,-4.87489 l 8.59581,-4.87491 3.093,-10.69672 c 1.70116,-5.8832 3.48834,-11.13358 3.97151,-11.66749 1.08384,-1.19763 2.51759,-1.24721 3.45355,-0.11945 0.58925,0.71 0.4106,1.99262 -1.07652,7.72882 -2.5517,9.84244 -2.47255,9.3182 -1.40692,9.3182 0.51072,0 4.57989,-1.88168 9.04262,-4.18152 8.44296,-4.351 9.02968,-4.4696 10.458,-2.11357 0.78328,1.29189 -1.51608,3.20305 -8.91288,7.40817 -3.13224,1.78068 -6.16869,3.60107 -6.74774,4.04532 -1.02722,0.78808 -1.02808,0.8258 -0.0356,1.55148 0.55944,0.40908 3.89414,1.63267 7.41046,2.71908 6.51664,2.01347 7.50848,2.69987 7.50848,5.19648 0,0.6256 -0.31992,1.2602 -0.71096,1.41024 -0.39104,0.15008 -4.4792,-0.72269 -9.0848,-1.93945 -4.6055,-1.21679 -9.88782,-2.49315 -11.7384,-2.83639 l -3.36469,-0.62408 -7.21157,3.64236 c -3.96638,2.00332 -7.82176,4.11332 -8.56752,4.68892 -1.34158,1.03544 -1.34444,1.05523 -0.2712,1.8678 1.49553,1.13228 15.22341,8.4936 16.4258,8.80804 0.53658,0.14032 5.44225,-1.10244 10.90149,-2.76168 5.45921,-1.65921 10.62681,-3.01677 11.48361,-3.01677 1.47056,0 2.68064,1.20172 2.68064,2.66228 0,0.87185 -2.94928,2.27781 -9.76272,4.65397 -3.4305,1.1964 -6.23118,2.41932 -6.22372,2.71764 0.007,0.29831 3.22384,2.49492 7.14748,4.88136 8.23288,5.00736 9.48872,6.03211 9.26928,7.56328 -0.274,1.91095 -3.36088,1.1206 -11.73232,-3.00376 -4.27708,-2.1072 -7.917,-3.69081 -8.08868,-3.51912 -0.17168,0.17168 0.59244,3.74876 1.69806,7.94912 2.06561,7.84748 2.10885,9.31628 0.30269,10.28291 -0.87909,0.47048 -1.21408,0.28181 -2.10705,-1.18655 -1.12126,-1.84376 -7.0793,-19.22472 -7.0793,-20.65192 0,-0.45968 -1.64746,-1.80208 -3.66102,-2.98312 -7.10764,-4.16896 -14.15808,-7.76344 -14.41084,-7.34697 -0.14072,0.23185 -0.43428,4.8714 -0.65236,10.31009 l -0.39654,9.88852 6.98411,7.23416 c 7.12099,7.37596 9.31791,10.39364 8.71345,11.9688 -0.71214,1.85587 -2.98442,0.96775 -7.28522,-2.84744 -2.31376,-2.05248 -4.92368,-4.49316 -5.79983,-5.42372 -0.87615,-0.93056 -1.79141,-1.69192 -2.03389,-1.69192 -0.24251,0 -0.44227,3.84408 -0.44392,8.54239 -0.004,11.43565 -0.90075,14.42233 -3.47576,11.57697 l 0,0 z" id="path2986-0" inkscape:connector-curvature="0" />
  <g transform="matrix(0.93390856,0,0,0.93390856,54.669138,22.730026)" id="g2993" />
</svg>
