<?xml version="1.0" encoding="UTF-8" standalone="no"?>
<svg xmlns:dc="http://purl.org/dc/elements/1.1/" xmlns:cc="http://creativecommons.org/ns#" xmlns:rdf="http://www.w3.org/1999/02/22-rdf-syntax-ns#" xmlns:svg="http://www.w3.org/2000/svg" xmlns="http://www.w3.org/2000/svg" xmlns:sodipodi="http://sodipodi.sourceforge.net/DTD/sodipodi-0.dtd" xmlns:inkscape="http://www.inkscape.org/namespaces/inkscape" version="1.0" width="1024.000000pt" height="1024.000000pt" viewBox="0 0 1024.000000 1024.000000" preserveAspectRatio="xMidYMid meet" id="svg2" inkscape:version="0.48.5 r10040" sodipodi:docname="sym1299971.svg">
  <defs id="defs34" />
  <sodipodi:namedview pagecolor="#ffffff" bordercolor="#666666" borderopacity="1" objecttolerance="10" gridtolerance="10" guidetolerance="10" inkscape:pageopacity="0" inkscape:pageshadow="2" inkscape:window-width="1347" inkscape:window-height="792" id="namedview32" showgrid="false" inkscape:zoom="0.7375" inkscape:cx="969.59958" inkscape:cy="807.3776" inkscape:window-x="1058" inkscape:window-y="0" inkscape:window-maximized="0" inkscape:current-layer="svg2" />
  <metadata id="metadata4">
Created by potrace 1.11, written by Peter Selinger 2001-2013
<rdf:RDF>
  <cc:Work rdf:about="">
    <dc:format>image/svg+xml</dc:format>
    <dc:type rdf:resource="http://purl.org/dc/dcmitype/StillImage" />
  </cc:Work>
</rdf:RDF>
</metadata>
  <path style="fill:#fedc00;stroke:none;fill-opacity:1" inkscape:connector-curvature="0" id="path8" d="m 383.5,48.5 c -5.1,1.8 -11,8.1 -12.4,13.1 -1.5,5.2 -1.5,90.5 0,95.7 0.5,2.1 2.4,5.4 4.2,7.4 10.1,11.5 28.3,8.8 34.8,-5.2 1.7,-3.7 1.9,-7.3 1.9,-49 0,-28.4 -0.4,-46.4 -1.1,-48.8 -3,-11.1 -15.9,-17.3 -27.4,-13.2 z" />
  <path style="fill:#fedc00;stroke:none;fill-opacity:1" inkscape:connector-curvature="0" id="path10" d="m 260.1,81.5 c -12,3.7 -17.9,17.7 -12.3,29 5.1,10.4 43.2,75.2 45.7,77.7 12.7,13.1 35.5,3 35.5,-15.7 0,-4.3 -2.5,-9.1 -24.9,-48 C 282.5,87 279.6,83.1 271.6,81.1 c -5.4,-1.3 -6,-1.3 -11.5,0.4 z" />
  <path style="fill:#fedc00;stroke:none;fill-opacity:1" inkscape:connector-curvature="0" id="path12" d="m 510.3,81.2 c -7.7,1.7 -10.7,5.8 -32.9,44.3 -11.4,19.8 -21.5,37.8 -22.5,40 -6,13.1 4.4,28.5 19.1,28.5 6.2,0 10.6,-1.7 14.5,-5.7 3.7,-3.7 45.5,-75.9 47.3,-81.7 3.1,-9.9 -3.7,-22 -14.1,-25.1 -5.6,-1.7 -5.5,-1.7 -11.4,-0.3 z" />
  <path style="fill:#fedc00;stroke:none;fill-opacity:1" inkscape:connector-curvature="0" id="path16" d="m 166.3,173.6 c -11.1,5.6 -15.1,18.8 -9.1,29.6 2.8,4.9 4.5,6 47.6,30.8 29.5,16.9 36.2,20.4 40.2,20.8 19.6,1.9 30.9,-22.8 16.4,-35.9 -1.6,-1.4 -20,-12.4 -40.9,-24.5 -37.7,-21.7 -38,-21.8 -44.5,-22.2 -4.6,-0.2 -7.5,0.2 -9.7,1.4 z" />
  <path style="fill:#fedc00;stroke:none;fill-opacity:1" inkscape:connector-curvature="0" id="path18" d="m 600,172.7 c -3.3,1.2 -76.5,43.8 -79.3,46.2 -6.3,5.3 -8.4,15.7 -4.8,23.6 2.3,5.1 7.9,10.1 13.1,11.6 8.2,2.5 11.4,1.1 53.4,-23.1 35.4,-20.4 39.2,-22.9 41.7,-26.9 5.4,-8.5 4.7,-18 -1.9,-25.3 -2,-2.3 -5.1,-4.7 -6.9,-5.5 -3.2,-1.3 -12.4,-1.7 -15.3,-0.6 z" />
  <path style="fill:#fedc00;stroke:none;fill-opacity:1" inkscape:connector-curvature="0" id="path20" d="m 380.5,214.7 c -36,4.6 -66,25.5 -81.5,56.8 -14.6,29.2 -14.4,62.9 0.4,92.3 2.5,4.9 4.1,7 4.9,6.5 0.7,-0.4 4.6,-2.9 8.7,-5.6 9.8,-6.4 27.2,-14.8 38.6,-18.6 7.6,-2.5 17.3,-4.7 33,-7.7 1.2,-0.2 4.7,-3.4 7.7,-7.2 19.2,-23.4 48.6,-45.7 77,-58.4 6.2,-2.8 11.4,-5.2 11.6,-5.4 0.9,-0.9 -10.2,-15.6 -16.9,-22.5 -21.6,-21.8 -55,-33.9 -83.5,-30.2 z" />
  <path style="fill:#fedc00;stroke:none;fill-opacity:1" inkscape:connector-curvature="0" id="path22" d="m 135.2,297.3 c -14.6,5.3 -18.9,23.7 -8.1,34.6 2.1,2.1 5.5,4.3 7.7,4.9 2.8,0.9 17.4,1.2 49.3,1.2 42.1,0 45.7,-0.2 49.4,-1.9 5.2,-2.4 9.1,-6.6 11,-12 2.2,-6.2 1.9,-10 -1.2,-16.2 -3,-5.7 -7.1,-9.2 -13.2,-10.9 -5.4,-1.5 -90.7,-1.2 -94.9,0.3 z" />
  <path style="fill:#fedc00;stroke:none;fill-opacity:1" inkscape:connector-curvature="0" id="path24" d="m 241,380.4 c -1.9,0.6 -20.1,10.8 -40.5,22.5 -39.5,22.6 -43.2,25.4 -45.5,33.5 -1.9,6.8 0.7,16.4 5.6,20.7 5.4,4.7 14,6.8 19.9,4.9 2.1,-0.7 20.5,-10.8 40.9,-22.6 37.7,-21.7 42.1,-24.8 45.2,-32.1 4.6,-10.6 -2.6,-24.3 -14.2,-27.2 -5.4,-1.4 -7,-1.3 -11.4,0.3 z" />
  <path style="fill:#cccccc;stroke:none" inkscape:connector-curvature="0" id="path26" d="m 295.5,744.4 c -3.9,1.7 -8,6.5 -9.5,11.2 -2.7,8 1.7,18 9.3,21.5 4.1,1.8 10.6,1.9 246.2,1.9 235.6,0 242.1,-0.1 246.2,-1.9 7.6,-3.5 12,-13.5 9.3,-21.5 -1.6,-4.8 -5.6,-9.6 -9.7,-11.2 -4.8,-2 -487.2,-2 -491.8,0 z" />
  <path style="fill:#cccccc;stroke:none" inkscape:connector-curvature="0" id="path28" d="m 297.2,819.2 c -1.8,0.6 -5,3 -7.1,5.3 -4.5,4.9 -6.1,11.3 -4.3,17.4 1.4,4.4 7.4,10.4 12.1,12 4.9,1.6 482.3,1.6 487.2,0 4.7,-1.6 10.7,-7.6 12.1,-12 0.6,-2.2 0.8,-5.7 0.4,-8.4 -0.9,-5.9 -6.7,-12.6 -12.4,-14.3 -5.3,-1.6 -483.1,-1.5 -488,0 z" />
  <path style="fill:#cccccc;stroke:none" inkscape:connector-curvature="0" id="path30" d="m 295.3,895.9 c -10.5,4.8 -13.3,19 -5.5,28.3 5.3,6.2 -13.2,5.8 251.7,5.8 264.9,0 246.4,0.4 251.7,-5.8 7.8,-9.3 5,-23.5 -5.5,-28.3 -4.1,-1.8 -10.6,-1.9 -246.2,-1.9 -235.6,0 -242.1,0.1 -246.2,1.9 z" />
  <path style="fill:#cecece;fill-opacity:1;stroke:none" inkscape:connector-curvature="0" id="path22-5" d="m 536.22349,303.66503 c -50.6,4.4 -99.1,33.9 -125.3,76.1 l -4.2,6.79999 -9.1,0 c -11.4,0 -25.3,2.3 -36.9,6.2 -17.9,6 -32.1,14.6 -45.9,27.8 -25.6,24.5 -38.7,54.8 -38.7,89.5 0,28.19999 8.1,52.39999 24.8,74.59999 18.4,24.4 42.8,39.9 74,47.1 l 9.8,2.2 161.5,0.4 c 168.2,0.3 174.9,0.2 190.6,-3.9 28.8,-7.5 54.6,-28.9 67.9,-56.3 6.8,-14 9.6,-25.4 10.2,-42.1 0.6,-16.49999 -1.5,-29.09999 -7.2,-43.29999 -15.1,-37.3 -49.7,-62.9 -89.4,-66 l -8.3,-0.7 -3.3,-9 c -8.7,-24.2 -23.1,-46.29999 -41.5,-63.89999 -28,-26.7 -62.6,-42.2 -102,-45.6 -12.7,-1.1 -13.4,-1.1 -27,0.1 z m 42.5,55.3 c 12.5,3.3 29.7,11.6 40.2,19.5 14.6,10.99999 26.6,25.79999 34.6,42.89999 5.8,12.5 5.7,12.8 -3.8,19.3 -9.1,6.2 -12.9,11.4 -14.7,19.9 -2.8,13.6 7.1,27.4 21.7,30.1 6.5,1.2 13.1,-0.6 21.4,-6 9.9,-6.3 17.6,-9 27.2,-9.8 26.8,-2.1 50.8,16 56.4,42.4 1.8,8.59999 1.8,12.99999 0,21.79999 -4.2,20 -21.3,37.4 -40.7,41.4 -3.7,0.8 -54,1.1 -170.3,0.9 l -165,-0.3 -8,-2.8 c -19.5,-6.9 -33,-18.6 -42,-36.5 -9.9,-19.9 -9.9,-42.29999 0.1,-63.09999 7.8,-16.1 23.8,-30.2 40.9,-36.1 18.7,-6.4 41.9,-4 59.3,6.2 5.9,3.4 17.8,14.7 24.6,23.2 12.2,15.2 36.6,11.7 44.4,-6.3 2.4,-5.6 2,-15.7 -0.8,-21.1 -5.7,-11.1 -24,-29.9 -36.8,-38 -3.9,-2.5 -7.2,-5 -7.2,-5.6 0,-2.2 15.8,-18 23.7,-23.59999 14.6,-10.5 32.9,-18.1 49.8,-20.8 3.3,-0.5 12.5,-0.7 20.5,-0.5 11.5,0.3 16.6,0.9 24.5,2.9 z" />
  <path style="fill:#ffffff;fill-opacity:1;stroke:none" d="m 971.0021,412.15318 c -1.40278,-1.55005 -1.81811,-3.58842 -2.31106,-11.34236 -0.26969,-4.24198 -0.60289,-9.06432 -0.74046,-10.71631 l -0.25012,-3.00362 -1.81981,1.56544 c -11.73927,10.09832 -15.60035,12.78155 -17.39902,12.09134 -2.70174,-1.03675 -0.40451,-4.38619 11.02718,-16.07798 l 8.74895,-8.94801 -0.007,-12.40513 c -0.004,-6.82282 -0.19668,-12.70411 -0.4281,-13.06952 -0.33567,-0.53003 -1.76418,0.0191 -7.06373,2.71527 -3.65363,1.85882 -8.78097,4.54876 -11.39408,5.97764 l -4.75113,2.59797 -2.9632,9.30829 c -3.8744,12.17065 -5.73525,16.84286 -7.43129,18.65847 -1.35592,1.45152 -1.42155,1.46844 -2.84337,0.73319 -2.1869,-1.13089 -2.32342,-2.61689 -0.77225,-8.4055 3.2936,-12.29095 3.69826,-13.98146 3.41469,-14.26503 -0.16542,-0.16542 -4.55594,1.87736 -9.75672,4.5395 -5.20077,2.66215 -10.37221,5.11052 -11.49207,5.44082 -1.80918,0.5336 -2.14311,0.50369 -2.99621,-0.26835 -1.32487,-1.19899 -1.2011,-2.74551 0.34333,-4.28994 0.7169,-0.71689 4.4382,-3.14588 8.26956,-5.39774 10.02603,-5.89275 11.03916,-6.5505 11.04011,-7.16751 4.7e-4,-0.30503 -3.18112,-1.57579 -7.07021,-2.82392 -8.37201,-2.68684 -11.54261,-4.03006 -12.76714,-5.40878 -0.85326,-0.96071 -0.85838,-1.08249 -0.0945,-2.24832 1.92695,-2.9409 3.30571,-2.80055 19.64828,2.00011 5.82526,1.71118 10.91498,3.13234 11.31048,3.15812 0.7265,0.0474 12.97061,-6.57544 17.61775,-9.52939 4.75074,-3.01981 3.79877,-4.08177 -9.72735,-10.85122 l -8.16932,-4.08852 -10.52706,3.09545 c -11.89934,3.49895 -17.06069,4.68858 -18.63151,4.29433 -0.59366,-0.149 -1.33954,-0.8419 -1.65751,-1.53977 -1.19302,-2.6184 1.02275,-4.23421 9.83996,-7.17558 6.3942,-2.13306 9.74958,-3.54679 9.74958,-4.10779 0,-0.5319 -3.53469,-2.78109 -10.06729,-6.40601 -9.30272,-5.16205 -10.98849,-6.68635 -10.06909,-9.10455 0.86753,-2.28179 3.82975,-1.57562 13.79123,3.28772 4.67633,2.28306 8.98781,4.14811 9.58106,4.14457 1.49743,-0.009 1.4172,-0.87861 -0.81681,-8.85388 -2.52439,-9.01191 -2.73943,-10.48715 -1.74903,-11.9987 0.85604,-1.30647 2.53257,-1.57826 4.20718,-0.68203 1.81894,0.97347 3.8538,6.38781 10.16284,27.0412 0.58482,1.91447 0.60478,1.92695 12.30816,7.70047 l 11.72239,5.7829 0.12739,-13.68889 0.12739,-13.68888 -4.20224,-3.82073 c -14.95412,-13.59646 -18.44205,-18.16616 -15.34676,-20.1065 1.35483,-0.84931 4.25489,1.03309 12.14705,7.88451 l 7.14717,6.20468 0.35271,-9.22714 c 0.52771,-13.80504 1.3953,-18.09593 3.6589,-18.09593 2.6694,0 3.41243,3.77976 3.41623,17.37805 0.001,5.47109 0.16457,9.94358 0.36232,9.93887 0.19775,-0.005 3.65817,-3.12101 7.68982,-6.92511 4.03165,-3.80409 7.79416,-7.06377 8.36113,-7.24372 0.78793,-0.25008 1.3514,0.0316 2.39109,1.19519 1.35256,1.51378 1.35542,1.5307 0.50767,2.99826 -0.46891,0.81174 -5.01127,5.74587 -10.09413,10.96474 l -9.24156,9.48886 0.32299,12.62262 c 0.17764,6.94243 0.45325,12.96233 0.61246,13.37755 0.23274,0.60697 2.37441,-0.42304 10.92715,-5.25532 l 10.63767,-6.01027 2.92519,-10.4264 c 3.8578,-13.75075 4.6966,-16.24891 5.8879,-17.53435 1.3543,-1.46135 3.4618,-1.42195 4.448,0.0831 0.9524,1.4535 0.5678,3.80184 -2.1706,13.25462 -1.0584,3.65335 -1.9243,6.99719 -1.9243,7.43076 0,1.18143 1.8025,0.5977 7.91,-2.56163 15.9759,-8.26409 15.7976,-8.20753 17.2168,-5.46319 0.5544,1.07203 0.5611,1.49176 0.04,2.48284 -0.8397,1.59682 -2.1428,2.50308 -10.3055,7.16702 -8.9309,5.10292 -10.3703,6.16024 -9.5125,6.98787 0.3541,0.34156 4.2032,1.75215 8.5537,3.13464 4.3505,1.38248 8.2813,2.74269 8.735,3.02269 1.1108,0.68557 1.9202,2.76403 1.7287,4.43914 -0.148,1.29368 -0.2772,1.36608 -2.3233,1.30173 -1.1916,-0.0375 -7.232,-1.41783 -13.423,-3.06744 -6.1911,-1.6496 -12.3351,-3.01654 -13.6535,-3.03764 -1.828,-0.0292 -3.30716,0.39081 -6.23208,1.76989 -4.87881,2.30031 -14.01532,7.26632 -15.58032,8.46843 -1.18683,0.91163 -1.18916,0.92782 -0.2397,1.66351 1.34506,1.04222 6.86703,4.10915 14.71005,8.17005 l 6.69345,3.46568 9.1931,-2.82313 c 9.151,-2.81021 17.7762,-5.18032 18.8822,-5.18865 0.9279,-0.007 2.5355,1.99623 2.5355,3.15947 0,1.88439 -2.4932,3.28992 -10.8403,6.11116 -4.4527,1.50495 -8.4194,2.94765 -8.8149,3.20599 -0.9393,0.61358 0.097,1.42595 6.4719,5.07413 7.5748,4.3348 12.5731,7.6869 13.4443,9.01643 0.5262,0.80311 0.6943,1.66142 0.4871,2.48702 -0.5706,2.27337 -3.5475,1.47099 -14.1329,-3.80932 -5.1107,-2.54941 -9.5831,-4.63529 -9.9386,-4.63529 -1.037,0 -0.7781,1.73383 1.5078,10.0966 2.5007,9.14843 2.6071,10.41005 1.0047,11.91536 -1.6955,1.59289 -2.7431,1.12374 -4.1922,-1.87739 -1.3598,-2.81645 -7.08359,-19.73868 -8.02644,-23.73013 l -0.56623,-2.39709 -5.1344,-2.96232 c -9.10934,-5.25571 -16.4487,-8.92585 -16.91566,-8.45889 -0.24329,0.24328 -0.58458,5.97007 -0.75842,12.72619 l -0.31609,12.28386 8.01638,8.30661 c 11.31235,11.72193 13.72164,15.67991 10.27747,16.8838 -2.13179,0.74516 -3.9414,-0.44849 -11.1158,-7.33212 l -6.78654,-6.51148 -0.27917,11.7417 c -0.30254,12.72458 -0.67149,14.85777 -2.56979,14.85777 -0.59251,0 -1.4193,-0.37792 -1.83731,-0.83982 z" id="path3007" inkscape:connector-curvature="0" transform="scale(0.8,0.8)" />
  <g transform="matrix(0.93390856,0,0,0.93390856,60.092842,34.662228)" id="g2993">
    <path d="m 759.47595,113.61818 c -37.46522,63.40714 -76.36686,129.03492 -122.84896,199.79893 -8.75513,13.32879 -9.42628,17.27587 -7.06971,22.42642 1.33197,2.8972 2.86887,4.18484 5.8402,5.25786 3.07378,1.07304 31.04523,1.28764 132.88999,1.07304 128.48424,-0.3219 128.89408,-0.3219 131.66049,-2.57529 3.38117,-2.57527 4.71314,-6.76009 3.48363,-11.05224 -1.22952,-4.50673 -126.74244,-209.24165 -130.73836,-213.42647 -3.99592,-3.97023 -10.26772,-6.49419 -13.21728,-1.50225 z" id="path14-8" inkscape:connector-curvature="0" sodipodi:nodetypes="ssccccccs" style="fill:#ba381a;fill-opacity:1;stroke:none" />
    <path inkscape:transform-center-y="65.053824" inkscape:transform-center-x="45.961941" inkscape:connector-curvature="0" id="path2986-0" d="m 766.69898,316.178 c -2.53144,-6.40985 -1.42158,-13.54665 -2.33111,-20.24555 -3.87423,0.39898 -7.20167,6.46327 -11.24501,8.55158 -2.65419,3.36684 -8.02377,1.80581 -3.7735,-2.07071 4.85208,-5.90381 10.22114,-11.35592 15.35683,-17.01004 -0.091,-7.47706 0.25946,-14.98103 -0.37048,-22.43522 -6.49556,2.65856 -12.73313,6.13475 -18.60014,9.992 -3.84846,7.71776 -4.48726,16.8151 -9.24375,24.10261 -5.98883,2.15316 -2.17036,-8.67804 -1.26146,-11.84741 0.764,-2.59354 3.28319,-9.64508 -1.92094,-5.63102 -5.13956,2.41695 -9.98938,5.4882 -15.33574,7.43924 -4.85486,-4.08761 5.13309,-7.81943 8.25017,-10.16414 2.50072,-1.5314 10.2779,-5.23104 3.27141,-6.42608 -4.23229,-2.19188 -10.56179,-2.30295 -13.11167,-6.54602 3.35157,-5.26483 10.41582,0.20468 15.12373,0.73741 3.49542,1.08557 6.99003,2.17373 10.4851,3.26039 5.45207,-3.30633 11.45592,-5.92709 16.27614,-10.09238 -0.27081,-4.39448 -6.625,-5.43842 -9.85438,-7.79443 -2.36554,-1.07224 -4.66846,-2.8226 -7.07156,-3.48811 -7.67972,2.1771 -15.20521,5.50225 -23.26284,5.79916 -5.13493,-3.53677 4.82394,-6.25994 7.94293,-7.3623 3.15992,-0.82503 9.62425,-3.42069 3.3584,-5.59714 -4.4248,-3.14325 -10.2492,-4.94294 -13.42411,-9.51649 1.98317,-5.01094 9.12591,1.45237 12.836,2.51809 2.4881,1.31946 9.844,5.4176 6.84092,-0.73032 -0.7188,-4.89947 -3.99029,-10.14493 -2.38582,-14.96534 5.90161,-1.74977 6.01289,7.75471 7.89084,11.43425 1.34582,4.4078 2.63762,8.83188 3.9569,13.24767 6.44416,3.32453 12.88832,6.64906 19.33249,9.97358 0.10053,-7.76639 0.20105,-15.53278 0.30157,-23.29917 -5.58644,-5.87756 -11.70555,-11.32382 -16.59081,-17.81059 -0.19037,-6.87497 7.96374,1.68747 10.29088,3.76093 2.01108,1.81472 3.99937,3.65447 5.99836,5.48246 0.53771,-7.26204 0.0824,-14.69255 1.78771,-21.79381 4.88012,-3.94348 3.70233,7.25159 3.92855,10.26084 0.45672,3.3124 -0.60755,9.74703 1.03857,11.16083 4.39212,-3.6699 7.87246,-8.50739 12.79237,-11.48501 6.72048,1.70243 -2.65689,7.66795 -4.4521,10.62287 -3.0283,3.2495 -6.06196,6.494 -9.09248,9.74143 0.22874,7.85663 0.20917,15.72723 0.72796,23.57037 6.00775,-3.36487 11.87881,-6.96845 17.8125,-10.46188 2.34558,-8.01497 4.0922,-16.25309 7.23825,-23.99753 6.96472,-2.9076 2.09337,8.20069 1.57814,11.62697 -1.15362,3.1504 -2.58047,9.04095 2.52989,5.21885 5.12132,-2.1273 9.644,-5.9596 15.11363,-7.06126 5.19484,4.10154 -5.03434,7.54493 -7.97953,9.93204 -2.71868,1.77422 -10.97557,5.20511 -3.68996,6.83343 4.13171,2.38384 13.12537,1.8661 12.41163,8.25537 -5.01505,0.91796 -10.78617,-2.32417 -16.06179,-3.17701 -3.12163,-0.65731 -6.3892,-1.84397 -9.51465,-1.90435 -5.58307,3.09193 -11.50798,5.67649 -16.66596,9.45134 1.60655,3.53327 7.75326,5.04586 11.17508,7.59633 4.86713,4.34637 10.78412,2.67336 16.28324,0.56492 4.63941,-0.35144 13.83144,-7.20358 15.41032,-0.33014 -4.75707,3.7049 -11.21524,4.28635 -16.23614,7.5314 5.05987,4.65969 11.93119,7.08917 16.61767,12.14789 -0.58832,5.33557 -8.62193,-0.95432 -11.81801,-2.0175 -3.51998,-1.74721 -10.72078,-6.56445 -7.48873,0.81514 0.35669,4.81431 4.57378,10.7999 1.25105,14.97228 -4.39821,-1.60562 -4.32034,-9.35975 -6.52744,-13.47572 -2.1386,-4.7641 -1.50909,-11.47853 -7.31825,-13.57613 -4.60571,-2.61228 -9.07694,-5.745 -14.08295,-7.46609 -0.69089,7.20118 -0.73851,14.44895 -1.07468,21.67381 5.22575,5.89258 11.06779,11.31342 15.45479,17.88596 2.6886,6.88535 -6.15216,1.57792 -7.73471,-1.17737 -2.71148,-1.89492 -8.37761,-10.77724 -7.50293,-2.74337 -0.41978,6.04032 0.65209,12.38113 -1.35522,18.18488 -0.57855,0.99889 -1.91968,-0.0351 -2.28517,-0.64669 z" style="fill:#ffffff;fill-opacity:1;stroke:none" />
  </g>
</svg>
