<?xml version="1.0" encoding="UTF-8" standalone="no"?>
<svg xmlns:dc="http://purl.org/dc/elements/1.1/" xmlns:cc="http://creativecommons.org/ns#" xmlns:rdf="http://www.w3.org/1999/02/22-rdf-syntax-ns#" xmlns:svg="http://www.w3.org/2000/svg" xmlns="http://www.w3.org/2000/svg" xmlns:sodipodi="http://sodipodi.sourceforge.net/DTD/sodipodi-0.dtd" xmlns:inkscape="http://www.inkscape.org/namespaces/inkscape" version="1.0" width="1024.000000pt" height="1024.000000pt" viewBox="0 0 1024.000000 1024.000000" preserveAspectRatio="xMidYMid meet" id="svg2" inkscape:version="0.48.5 r10040" sodipodi:docname="1199959.svg">
  <defs id="defs44" />
  <sodipodi:namedview pagecolor="#ffffff" bordercolor="#666666" borderopacity="1" objecttolerance="10" gridtolerance="10" guidetolerance="10" inkscape:pageopacity="0" inkscape:pageshadow="2" inkscape:window-width="836" inkscape:window-height="480" id="namedview42" showgrid="false" inkscape:zoom="0.184375" inkscape:cx="640" inkscape:cy="640" inkscape:window-x="1637" inkscape:window-y="417" inkscape:window-maximized="0" inkscape:current-layer="svg2" />
  <metadata id="metadata4">
Created by potrace 1.11, written by Peter Selinger 2001-2013
<rdf:RDF>
  <cc:Work rdf:about="">
    <dc:format>image/svg+xml</dc:format>
    <dc:type rdf:resource="http://purl.org/dc/dcmitype/StillImage" />
  </cc:Work>
</rdf:RDF>
</metadata>
  <path style="fill:#fedc00;stroke:none;fill-opacity:1" inkscape:connector-curvature="0" id="path8" d="m 428.2,71.3 c -5.2,1.6 -12.8,9 -14.9,14.5 -1.7,4.3 -1.8,8.9 -1.8,60.2 0,61.4 -0.3,58.6 6.6,66.5 11.7,13.2 32.8,10.5 41.1,-5.4 l 2.8,-5.3 0,-56.2 0,-56.1 -2.4,-5 c -2.8,-6 -6.6,-9.7 -12.6,-12.4 -5,-2.3 -13.2,-2.6 -18.8,-0.8 z" />
  <path style="fill:#fedc00;stroke:none;fill-opacity:1" inkscape:connector-curvature="0" id="path10" d="m 278,111.5 c -13.6,4.4 -21,21.1 -15.1,34.1 2.6,5.6 50.7,89.1 53.8,93.1 5.8,7.8 18.6,11.4 28,7.8 14,-5.4 20.8,-21.8 14.3,-34.5 -3.8,-7.6 -51.1,-89.3 -53.5,-92.5 -5.4,-7.2 -18.3,-11 -27.5,-8 z" />
  <path style="fill:#fedc00;stroke:none;fill-opacity:1" inkscape:connector-curvature="0" id="path12" d="m 579.9,111.5 c -8.8,2.8 -11.1,5.9 -39,54.4 -14.4,25 -26.8,47.4 -27.6,49.9 -2.9,8.4 -0.1,18.4 6.9,25.3 9.4,9.1 25.5,9.1 34.5,-0.1 3.8,-3.8 53.1,-87.9 56.5,-96.3 7.8,-19.4 -11.3,-39.6 -31.3,-33.2 z" />
  <path style="fill:#fedc00;stroke:none;fill-opacity:1" inkscape:connector-curvature="0" id="path14" d="m 164.2,223.6 c -15.1,7.5 -18.8,26.9 -7.4,39.3 5.4,5.8 93.9,56.7 101.4,58.3 10.3,2.1 21.8,-3.6 27.1,-13.6 1.6,-3.1 2.1,-5.9 2.1,-11.1 0.1,-8 -1.9,-12.9 -6.9,-17.9 -3,-2.9 -91,-54.3 -96.9,-56.6 -5.1,-1.9 -13.8,-1.2 -19.4,1.6 z" />
  <path style="fill:#fedc00;stroke:none;fill-opacity:1" inkscape:connector-curvature="0" id="path16" d="m 687.5,223.3 c -8.7,4.3 -91.9,52.7 -94.2,54.9 -1.3,1.2 -3.4,4.4 -4.8,7.2 -2.8,5.7 -3.3,13.7 -1.1,19.7 4.1,11.6 17.9,19 29.5,15.9 4.1,-1.1 91.1,-50.6 97.8,-55.6 1.7,-1.3 4.4,-5 6,-8.1 4.9,-10.1 3.1,-21.4 -4.6,-29.1 -4.9,-4.8 -8.8,-6.5 -16.6,-6.9 -5.9,-0.3 -7.8,0 -12,2 z" />
  <path style="fill:#fedc00;stroke:none;fill-opacity:1" inkscape:connector-curvature="0" id="path18" d="m 423.2,273 c -48.5,6.1 -89.2,38.8 -104.1,83.6 -5,15.1 -6.5,24.4 -6.5,40.4 0,16 1.5,25.3 6.5,40.4 13.6,40.8 50,72.9 92.4,81.5 5.5,1.1 14.7,2.3 20.5,2.7 l 10.6,0.7 2.2,-13.2 c 7,-42.6 28.9,-78.2 64.9,-105.3 9.2,-6.9 33.9,-19.6 43.6,-22.4 l 6.8,-1.9 -0.6,-4.5 c -1.2,-8 -5.5,-21.3 -10,-30.8 -17.3,-36.5 -50.4,-62.2 -89.7,-69.7 -10.2,-1.9 -27.4,-2.6 -36.6,-1.5 z" />
  <path style="fill:#fedc00;stroke:none;fill-opacity:1" inkscape:connector-curvature="0" id="path20" d="m 126,373.3 c -4.9,1.6 -13.3,10.2 -14.8,15.3 -3,10.1 -0.9,18.8 6.3,25.9 3.1,3.2 6.5,5.5 9.1,6.3 3,0.9 18.9,1.2 59.5,1.2 l 55.4,0 5.1,-2.4 c 5.9,-2.7 10.7,-8.2 12.9,-14.5 4.1,-12.1 -1.5,-25.4 -12.9,-30.7 l -5.1,-2.4 -56,0.1 c -37.8,0.1 -57.1,0.5 -59.5,1.2 z" />
  <path style="fill:#dcdcdc;stroke:none;fill-opacity:1" inkscape:connector-curvature="0" id="path22" d="m 700.8,373 c -23.1,2.2 -45.3,10.1 -65.1,23.3 -10.9,7.3 -28.1,24.1 -35,34.3 l -4.9,7.1 -8.9,0.7 c -44.8,3.4 -82.8,35.2 -94.6,79.1 -2.3,8.8 -2.6,12 -2.7,26 -0.1,13.8 0.3,17.3 2.3,25 7.5,28.8 24.1,51.1 49.1,66.3 11.2,6.8 9,8.6 23.4,-19.3 6.9,-13.6 12.6,-24.9 12.6,-25.3 -0.1,-0.4 -2.4,-1.8 -5.3,-3.1 -7.9,-3.7 -17,-13.4 -21.4,-22.8 -3.5,-7.2 -3.8,-8.6 -4.1,-18.3 -0.3,-8.8 0,-11.6 1.8,-17 5.5,-16.4 19.3,-29.1 35.9,-33 6.9,-1.6 21.1,-0.8 27.1,1.6 6.6,2.6 14.4,7.8 18.3,12.1 1.9,2.1 5.6,6.1 8.1,9 8.2,8.9 17.6,11.8 28.7,8.7 5.3,-1.5 7.3,-2.7 12,-7.3 4.6,-4.7 5.8,-6.7 7.3,-12 1.9,-6.8 1.6,-12.7 -1,-18.9 -3,-7.3 -15.7,-21.6 -26.1,-29.4 l -5.6,-4.3 5.9,-5.3 c 36.8,-33.7 95.5,-25.8 122.7,16.4 5.7,8.9 8.4,15.1 10.8,24.9 2.2,9.1 2.6,25.6 0.8,35.1 -4.5,24.7 -23.6,48.3 -47.5,58.9 -10.4,4.6 -17,5.8 -34.8,6.4 l -17,0.6 -11.3,27.9 c -6.2,15.3 -11.3,28.1 -11.3,28.4 0,0.2 13.6,0.2 30.3,-0.1 23.2,-0.4 31.9,-0.9 37.7,-2.2 29.9,-6.7 52.6,-19.2 72.7,-39.8 11.7,-12.1 18.6,-22 25.9,-37.1 C 859.5,523.6 854,468.7 823.3,427.9 794.6,389.7 747.7,368.7 700.8,373 z" />
  <path style="fill:#fedc00;stroke:none;fill-opacity:1" inkscape:connector-curvature="0" id="path24" d="m 255.5,473.4 c -2.2,0.7 -24.5,13.1 -49.5,27.5 -32.4,18.7 -46.6,27.3 -49.2,30.2 -14.8,16.1 -3.3,41.9 18.6,41.9 4.2,0 7.5,-0.7 10.7,-2.3 11.6,-5.6 91.4,-52.6 94.4,-55.6 5.2,-5.1 7,-9.6 6.9,-17.6 0,-5.2 -0.5,-8 -2.1,-11.1 -3.1,-5.8 -9.3,-11 -15.4,-12.8 -6.2,-1.9 -9,-1.9 -14.4,-0.2 z" />
  <path style="fill:#fedc00;stroke:none;fill-opacity:1" inkscape:connector-curvature="0" id="path26" d="m 327.9,547.4 c -4.7,1.7 -9.3,5 -11.7,8.4 -3,4.3 -51.2,88.1 -53.3,92.6 -4.3,9.5 -1.2,22.9 6.9,29.6 4.8,4 13.1,6.4 19,5.6 5.7,-0.8 13.8,-5.2 16.7,-9.1 2.4,-3.2 49.7,-84.9 53.5,-92.5 4.4,-8.6 2.8,-19.9 -3.9,-27.3 -6.8,-7.6 -18,-10.6 -27.2,-7.3 z" />
  <path style="fill:#fedc00;stroke:none;fill-opacity:1" inkscape:connector-curvature="0" id="path28" d="m 625.6,559.2 c -3,6.2 -24.9,51.2 -48.9,100 -23.9,48.8 -43.3,88.8 -43.2,89 0.2,0.2 16,0 35.1,-0.4 19.2,-0.4 35,-0.6 35.1,-0.4 0.1,0.1 -9.6,22 -21.7,48.7 -12.1,26.6 -22.3,49.2 -22.6,50.1 -0.5,1.7 0.8,1.8 17.3,1.9 9.8,0.1 23.9,0.4 31.4,0.8 l 13.6,0.6 -17.3,38.4 c -9.6,21.2 -17.2,38.6 -17,38.8 0.2,0.2 21.3,-23.2 46.9,-51.9 l 46.6,-52.3 -29.4,-0.3 c -16.2,-0.1 -29.5,-0.6 -29.5,-1 0,-0.4 10.8,-24.6 23.9,-53.7 l 23.9,-53 -27.8,-0.5 -27.8,-0.5 41.9,-82 c 23,-45.1 41.9,-82.3 41.9,-82.8 0,-0.4 -15.1,-0.7 -33.6,-0.7 l -33.5,0 -5.3,11.2 z" />
  <path style="fill:#80d3ff;stroke:none;fill-opacity:1" inkscape:connector-curvature="0" id="path30" d="m 304.6,713.2 c 0.4,0.7 10.2,15.8 21.7,33.6 17,26.2 21.2,32.1 22.3,31 1.5,-1.6 42.4,-64.5 42.4,-65.3 0,-0.3 -19.6,-0.5 -43.6,-0.5 -34.5,0 -43.4,0.3 -42.8,1.2 z m 54.1,19 c -1.3,2.4 -4.3,7.6 -6.7,11.6 -2.3,4.1 -4.5,7 -5,6.5 -1,-1.1 -13,-21.3 -13,-21.8 0,-0.3 6.1,-0.5 13.6,-0.5 l 13.6,0 -2.5,4.2 z" />
  <path style="fill:#80d3ff;stroke:none;fill-opacity:1" inkscape:connector-curvature="0" id="path32" d="m 832,712.5 c 0,0.8 40.9,63.7 42.4,65.3 1.1,1.1 5.3,-4.8 22.3,-31 11.5,-17.8 21.3,-32.9 21.7,-33.6 0.6,-0.9 -8.3,-1.2 -42.8,-1.2 -24,0 -43.6,0.2 -43.6,0.5 z m 56,16.2 c 0,0.3 -2.8,5.5 -6.1,11.5 -5,8.9 -6.4,10.7 -7.4,9.6 -0.7,-0.7 -4,-5.9 -7.3,-11.6 l -6.1,-10.2 13.4,0 c 7.4,0 13.5,0.3 13.5,0.7 z" />
  <path style="fill:#fedc00;stroke:none;fill-opacity:1" inkscape:connector-curvature="0" id="path34" d="m 453.2,765.7 -22.1,52.8 36,0.3 35.9,0.2 -27.1,54.3 c -14.9,29.8 -26.6,53.7 -26.1,53.2 0.6,-0.6 24.5,-34.1 53.1,-74.5 32.8,-46.3 51.6,-73.6 50.7,-73.8 -0.7,-0.2 -14.4,-0.6 -30.3,-1 l -29,-0.7 14.8,-31 c 8.2,-17.1 14.8,-31.3 14.9,-31.8 0,-0.4 -10.9,-0.7 -24.3,-0.7 l -24.3,0 -22.2,52.7 z" />
  <path style="fill:#fedc00;stroke:none;fill-opacity:1" inkscape:connector-curvature="0" id="path36" d="m 700.5,716.2 c -0.7,1.8 -9.2,21.6 -18.8,44 l -17.5,40.8 38.9,0 38.9,0 -31.5,63 c -17.3,34.6 -31.3,63 -31.1,63 0.6,0 125,-160.7 125.4,-162 0.2,-0.6 -13.4,-1 -38.2,-1 -21.2,0 -38.6,-0.2 -38.6,-0.6 0,-0.3 4.1,-9.4 9.1,-20.2 5.1,-10.8 10.2,-22.1 11.5,-25 l 2.4,-5.2 -24.6,0 -24.5,0 -1.4,3.2 z" />
  <path style="fill:#80d3ff;stroke:none;fill-opacity:1" inkscape:connector-curvature="0" id="path38" d="m 273.6,798.2 c 0.4,0.7 17.2,26.6 37.3,57.6 32.8,50.6 36.7,56.1 37.9,54.5 3,-4 73.2,-112.1 73.2,-112.7 0,-0.3 -33.6,-0.6 -74.6,-0.6 -59.3,0 -74.4,0.3 -73.8,1.2 z m 110.2,21 c -11.2,17.5 -36.2,55.7 -36.4,55.5 -0.1,-0.2 -20.5,-31.5 -32.1,-49.5 l -5.3,-8.2 37.6,0 37.6,0 -1.4,2.2 z" />
  <path style="fill:#80d3ff;stroke:none;fill-opacity:1" inkscape:connector-curvature="0" id="path40" d="m 801,797.6 c 0,0.7 71.8,111.4 73.4,113.1 0.9,1 9.6,-11.7 37.7,-55 20.2,-30.9 36.9,-56.8 37.3,-57.5 0.6,-0.9 -14.5,-1.2 -73.8,-1.2 -41,0 -74.6,0.3 -74.6,0.6 z m 106.7,27.6 c -13.8,21.3 -32,49.3 -32.2,49.6 -0.1,0.1 -23.4,-35.5 -36.3,-55.6 l -1.4,-2.2 37.6,0 37.6,0 -5.3,8.2 z" />
</svg>
