<?xml version="1.0" encoding="UTF-8" standalone="no"?>
<svg xmlns:dc="http://purl.org/dc/elements/1.1/" xmlns:cc="http://creativecommons.org/ns#" xmlns:rdf="http://www.w3.org/1999/02/22-rdf-syntax-ns#" xmlns:svg="http://www.w3.org/2000/svg" xmlns="http://www.w3.org/2000/svg" xmlns:sodipodi="http://sodipodi.sourceforge.net/DTD/sodipodi-0.dtd" xmlns:inkscape="http://www.inkscape.org/namespaces/inkscape" version="1.0" width="1024.000000pt" height="1024.000000pt" viewBox="0 0 1024.000000 1024.000000" preserveAspectRatio="xMidYMid meet" id="svg2" inkscape:version="0.48.5 r10040" sodipodi:docname="1999969.svg">
  <defs id="defs52" />
  <sodipodi:namedview pagecolor="#ffffff" bordercolor="#666666" borderopacity="1" objecttolerance="10" gridtolerance="10" guidetolerance="10" inkscape:pageopacity="0" inkscape:pageshadow="2" inkscape:window-width="887" inkscape:window-height="594" id="namedview50" showgrid="false" inkscape:zoom="0.184375" inkscape:cx="640" inkscape:cy="640" inkscape:window-x="1416" inkscape:window-y="251" inkscape:window-maximized="0" inkscape:current-layer="svg2" />
  <metadata id="metadata4">
Created by potrace 1.11, written by Peter Selinger 2001-2013
<rdf:RDF>
  <cc:Work rdf:about="">
    <dc:format>image/svg+xml</dc:format>
    <dc:type rdf:resource="http://purl.org/dc/dcmitype/StillImage" />
  </cc:Work>
</rdf:RDF>
</metadata>
  <path style="fill:#fedc00;stroke:none;fill-opacity:1" inkscape:connector-curvature="0" id="path8" d="m 504.4,63.3 c -5.2,2 -9.1,5.5 -11.3,10 -2,4.2 -2.1,5.7 -2.1,50.8 0,52.1 0,51.4 7.5,57.6 9.7,8.1 23.5,6 31,-4.5 l 3,-4.4 0.3,-46.1 C 533,95 532.8,79.3 532,76.7 530.6,71.8 525.5,66.1 520.5,63.9 516,61.8 509,61.6 504.4,63.3 z" />
  <path style="fill:#fedc00;stroke:none;fill-opacity:1" inkscape:connector-curvature="0" id="path10" d="m 379.2,96.3 c -11,4.1 -17.1,16.8 -12.9,27 2.5,5.8 43.8,76.1 46.6,79.1 5.6,6.1 15.3,8.2 22.9,5 10.9,-4.5 16.2,-17.4 11.3,-27.9 -3.9,-8.4 -43.4,-75.2 -46.3,-78.2 -5.3,-5.5 -14.4,-7.6 -21.6,-5 z" />
  <path style="fill:#fedc00;stroke:none;fill-opacity:1" inkscape:connector-curvature="0" id="path12" d="m 630.6,96.4 c -2.2,0.8 -5.6,3.2 -7.7,5.3 -2,2.1 -13.5,20.7 -25.5,41.3 -21.5,37 -21.8,37.6 -22.2,44 -0.3,5.4 0,7.3 2.1,11 6.1,11.5 22.3,14.4 32,5.8 3.9,-3.5 46.4,-75.2 48.7,-82.2 2,-6.2 -0.8,-16.4 -5.6,-20.7 -5.7,-5 -15.2,-6.9 -21.8,-4.5 z" />
  <path style="fill:#fedc00;stroke:none;fill-opacity:1" inkscape:connector-curvature="0" id="path14" d="m 287.8,187.4 c -8.9,3.2 -13.9,9.4 -14.6,18.1 -0.4,4.5 0,6.5 2.1,10.8 1.5,2.9 3.9,6.2 5.4,7.3 1.5,1.1 19.9,11.8 40.8,23.7 25.1,14.3 39.4,21.8 42,22.3 8.9,1.3 17.6,-3.3 21.8,-11.5 3,-6 3.3,-9.3 1.5,-15.3 -2.2,-7.5 -6.5,-10.6 -45.7,-32.9 -20.6,-11.7 -39.1,-21.8 -41,-22.5 -4.6,-1.7 -7.7,-1.6 -12.3,0 z" />
  <path style="fill:#fedc00;stroke:none;fill-opacity:1" inkscape:connector-curvature="0" id="path16" d="m 724.4,187 c -4.5,1.4 -78.3,43.7 -81.8,46.9 -12.2,11.2 -6.4,31.5 10.1,35.2 4.2,1 6.2,0.9 9.5,0 7,-2.1 78.8,-43.7 83,-48 6.6,-7 7.4,-16.3 2.1,-24.9 -4.5,-7.3 -15.1,-11.5 -22.9,-9.2 z" />
  <path style="fill:#fedc00;stroke:none;fill-opacity:1" inkscape:connector-curvature="0" id="path18" d="m 493.6,230.6 c -51.4,9.3 -88.1,55 -85.3,106.3 2.1,38.3 24.2,71.2 59.1,87.7 34,16.1 73,12.8 104.1,-8.7 10,-6.9 23.8,-21.6 29.6,-31.5 29.2,-49.9 13.1,-111.7 -37,-141.4 -19.7,-11.7 -47.4,-16.6 -70.5,-12.4 z" />
  <path style="fill:#fedc00;stroke:none;fill-opacity:1" inkscape:connector-curvature="0" id="path20" d="m 251.2,313.1 c -17.4,8.6 -15,33.7 3.7,38.9 5,1.4 90.4,1.3 95.4,-0.1 4.8,-1.3 10.2,-6.1 12.9,-11.2 1.6,-3.2 1.9,-5.4 1.6,-10.3 -0.5,-8 -4,-13.3 -11.1,-16.9 l -5.1,-2.5 -46.5,0 c -45.4,0 -46.7,0.1 -50.9,2.1 z" />
  <path style="fill:#fedc00;stroke:none;fill-opacity:1" inkscape:connector-curvature="0" id="path22" d="m 672.5,312.2 c -16.4,5.8 -18.8,28.1 -4,37.3 l 4.8,3 48.1,0 c 43.1,0 48.4,-0.2 51.2,-1.7 8,-4.4 13.1,-13.8 11.7,-22 -0.8,-5.5 -6,-12.7 -10.8,-15.2 -3.9,-2 -5.6,-2.1 -51,-2.3 -31.1,-0.1 -48,0.2 -50,0.9 z" />
  <path style="fill:#fedc00;stroke:none;fill-opacity:1" inkscape:connector-curvature="0" id="path24" d="m 356.5,396.8 c -3.3,1.7 -22,12.2 -41.5,23.4 -41.2,23.7 -41.5,23.9 -41.5,35.6 0,8.3 2.5,13.5 8.4,17.7 3.9,2.7 5,3 11.9,3 l 7.7,0 39.5,-22.6 c 27.9,-16 40.2,-23.6 42.2,-26 10.5,-13.1 2,-32.2 -15,-33.6 -4.9,-0.4 -6.6,0 -11.7,2.5 z" />
  <path style="fill:#fedc00;stroke:none;fill-opacity:1" inkscape:connector-curvature="0" id="path26" d="m 648.5,395.8 c -13.7,6.6 -16.8,25.1 -5.7,34.4 1.8,1.5 20.3,12.5 41.3,24.4 36.9,21.1 38.4,21.8 44.4,22.2 7.5,0.5 11.9,-1.3 16.9,-6.8 7.4,-8.3 7.1,-20.3 -0.8,-28.2 -1.5,-1.4 -20.2,-12.6 -41.7,-24.9 -36.5,-20.8 -39.5,-22.3 -44.8,-22.6 -4,-0.3 -6.7,0.2 -9.6,1.5 z" />
  <path style="fill:#fedc00;stroke:none;fill-opacity:1" inkscape:connector-curvature="0" id="path28" d="m 419.4,456.5 c -1.7,0.8 -4.4,2.7 -6,4.3 -2.9,3 -44,72.6 -46.9,79.5 -4.5,10.9 1.9,23.7 13.6,27.2 7.8,2.3 16.4,0 21.5,-5.7 1.2,-1.2 12.2,-19.6 24.4,-40.7 20,-34.3 22.4,-38.9 22.8,-43.6 0.2,-2.9 -0.1,-6.9 -0.7,-8.8 -1.5,-4.4 -7.1,-10.3 -11.8,-12.2 -4.3,-1.8 -12.7,-1.8 -16.9,0 z" />
  <path style="fill:#fedc00;stroke:none;fill-opacity:1" inkscape:connector-curvature="0" id="path30" d="m 585.9,457.3 c -6.6,3.5 -10.2,9.3 -10.7,17 -0.5,7.8 -1.6,5.5 24.7,50.7 21.9,37.6 24.5,40.9 33.1,43 14.9,3.6 29.6,-11.5 25,-25.6 -1.6,-5 -43.4,-76.9 -46.9,-80.8 -6.1,-6.7 -17.1,-8.5 -25.2,-4.3 z" />
  <path style="fill:#fedc00;stroke:none;fill-opacity:1" inkscape:connector-curvature="0" id="path32" d="m 504,478.6 c -4.5,2 -8.7,5.9 -11.1,10.6 -1.8,3.5 -1.9,6.4 -1.9,50.3 0,43.9 0.1,46.8 1.9,50.3 6.6,12.8 22.3,16.1 32.8,6.9 7.4,-6.5 7.3,-5.7 7.3,-57.2 0,-42.4 -0.2,-46.3 -1.9,-50 -4.6,-10.1 -17.2,-15.2 -27.1,-10.9 z" />
  <path style="fill:#dcdcdc;stroke:none;fill-opacity:1" inkscape:connector-curvature="0" id="path34" d="m 265.5,703.4 c -6.3,2.8 -10.5,9.4 -10.5,16.6 0,5 1.5,8.8 4.8,12.3 5.5,5.9 3.5,5.7 61.8,5.7 l 53.7,0 4.3,-2.5 c 12.3,-7.2 10.6,-27.3 -2.9,-32.4 -4.5,-1.7 -107.3,-1.4 -111.2,0.3 z" />
  <path style="fill:#dcdcdc;stroke:none;fill-opacity:1" inkscape:connector-curvature="0" id="path36" d="m 454.5,703.4 c -6.3,2.8 -10.5,9.4 -10.5,16.6 0,5 1.5,8.8 4.8,12.3 5.5,5.9 3.5,5.7 61.8,5.7 l 53.7,0 4.3,-2.5 c 12.3,-7.2 10.6,-27.3 -2.9,-32.4 -4.5,-1.7 -107.3,-1.4 -111.2,0.3 z" />
  <path style="fill:#dcdcdc;stroke:none;fill-opacity:1" inkscape:connector-curvature="0" id="path38" d="m 643.5,703.4 c -3.7,1.7 -8,6.2 -9.4,9.9 -3,8 0.3,18.1 7.3,22.2 l 4.3,2.5 53.7,0 c 58.3,0 56.3,0.2 61.8,-5.7 8.6,-9.1 5.1,-24.8 -6.5,-29.2 -4.5,-1.7 -107.3,-1.4 -111.2,0.3 z" />
  <path style="fill:#dcdcdc;stroke:none;fill-opacity:1" inkscape:connector-curvature="0" id="path40" d="m 359.2,780.1 c -15.2,7.6 -12.1,30.2 4.8,33.8 7,1.5 97,1.5 104,0 13.1,-2.8 18.8,-16.9 11.4,-28.2 -1.5,-2.3 -4.2,-4.6 -6.7,-5.8 -4,-1.7 -7.3,-1.9 -56.7,-1.9 -51.4,0 -52.6,0 -56.8,2.1 z" />
  <path style="fill:#dcdcdc;stroke:none;fill-opacity:1" inkscape:connector-curvature="0" id="path42" d="m 548.2,780.1 c -15.2,7.5 -12.1,30.2 4.6,33.8 3.5,0.7 21,1.1 52.2,1.1 52.9,0 55.5,-0.2 61.2,-5.9 8.8,-8.9 6.5,-24.2 -4.5,-29.2 -4,-1.7 -7.3,-1.9 -56.7,-1.9 -51.4,0 -52.6,0 -56.8,2.1 z" />
  <path style="fill:#dcdcdc;stroke:none;fill-opacity:1" inkscape:connector-curvature="0" id="path44" d="m 265,855.9 c -10.4,5.5 -13.3,19.2 -5.8,27.7 6.4,7.2 3.3,6.9 62.3,6.9 l 53,0 4.3,-2.5 c 13.1,-7.5 11.8,-27.7 -2.1,-32.9 -1.9,-0.7 -20.7,-1.1 -55.5,-1.1 -49.5,0 -52.9,0.1 -56.2,1.9 z" />
  <path style="fill:#dcdcdc;stroke:none;fill-opacity:1" inkscape:connector-curvature="0" id="path46" d="m 454.5,855.4 c -13.2,5.9 -14.1,25 -1.7,32.4 l 4.7,2.7 53,0 53,0 4.7,-2.7 c 12.7,-7.5 11.2,-27.5 -2.5,-32.7 -4.5,-1.7 -107.3,-1.4 -111.2,0.3 z" />
  <path style="fill:#dcdcdc;stroke:none;fill-opacity:1" inkscape:connector-curvature="0" id="path48" d="m 643.5,855.4 c -13.4,6 -14.2,25.3 -1.3,32.6 l 4.3,2.5 53,0 c 59,0 55.9,0.3 62.3,-6.9 7.5,-8.5 4.6,-22.2 -5.8,-27.7 -3.3,-1.8 -6.7,-1.9 -56.5,-1.9 -42.1,0.1 -53.6,0.4 -56,1.4 z" />
</svg>
