<?xml version="1.0" encoding="UTF-8" standalone="no"?>
<svg xmlns:dc="http://purl.org/dc/elements/1.1/" xmlns:cc="http://creativecommons.org/ns#" xmlns:rdf="http://www.w3.org/1999/02/22-rdf-syntax-ns#" xmlns:svg="http://www.w3.org/2000/svg" xmlns="http://www.w3.org/2000/svg" xmlns:sodipodi="http://sodipodi.sourceforge.net/DTD/sodipodi-0.dtd" xmlns:inkscape="http://www.inkscape.org/namespaces/inkscape" version="1.0" width="1024.000000pt" height="1024.000000pt" viewBox="0 0 1024.000000 1024.000000" preserveAspectRatio="xMidYMid meet" id="svg2" inkscape:version="0.48.5 r10040" sodipodi:docname="2299299.svg">
  <defs id="defs22" />
  <sodipodi:namedview pagecolor="#ffffff" bordercolor="#666666" borderopacity="1" objecttolerance="10" gridtolerance="10" guidetolerance="10" inkscape:pageopacity="0" inkscape:pageshadow="2" inkscape:window-width="1481" inkscape:window-height="1063" id="namedview20" showgrid="false" inkscape:zoom="1.7144025" inkscape:cx="381.15578" inkscape:cy="914.55384" inkscape:window-x="949" inkscape:window-y="94" inkscape:window-maximized="0" inkscape:current-layer="svg2" />
  <metadata id="metadata4">
Created by potrace 1.11, written by Peter Selinger 2001-2013
<rdf:RDF>
  <cc:Work rdf:about="">
    <dc:format>image/svg+xml</dc:format>
    <dc:type rdf:resource="http://purl.org/dc/dcmitype/StillImage" />
  </cc:Work>
</rdf:RDF>
</metadata>
  <path style="fill:#dcdcdc;stroke:none;fill-opacity:1" inkscape:connector-curvature="0" id="path8" d="m 394,138.6 c -1.9,0.2 -7.8,0.9 -13,1.5 -5.2,0.6 -15.4,2.6 -22.6,4.4 -110,28.1 -172.8,142.7 -137.4,250.8 4.9,14.7 13.7,33 22,45.6 l 6.3,9.4 4.9,-9.9 c 19.4,-38.8 52.2,-68.4 92.3,-83.4 10.6,-4 26.4,-8.2 35.6,-9.5 4,-0.5 5,-1.2 8.5,-5.7 5.5,-7.3 21.5,-23.1 30.9,-30.7 30,-24.2 70.2,-41 107.7,-45 13,-1.5 40.1,-1.3 51.8,0.3 5.2,0.7 9.7,1.2 9.8,1 0.6,-0.4 -7.8,-19.5 -11.6,-26.4 -9.9,-17.9 -22.5,-34.3 -37.5,-48.6 -35.1,-33.5 -80.4,-52.3 -129.4,-53.8 -8.2,-0.2 -16.4,-0.2 -18.3,0 z" />
  <path style="fill:#dcdcdc;stroke:none;fill-opacity:1" inkscape:connector-curvature="0" id="path10" d="M 538.5,304 C 488,308.1 440.8,336.2 413,378.8 l -5.1,7.9 -12.2,0.6 c -33.3,1.5 -62.6,14.9 -85,38.7 -17,18 -28.1,40 -32.2,63.8 -1.9,11 -1.9,31.6 0,42.8 7.8,44.2 40,81.6 82.6,95.8 20.8,7 11.7,6.7 198.4,6.4 l 168,-0.3 9.7,-2.7 c 20.1,-5.5 34.2,-13.9 49.3,-29.2 14.4,-14.7 22.2,-28.6 27.6,-49.2 2,-7.6 2.3,-11.3 2.3,-24.9 0,-14 -0.4,-17.2 -2.7,-25.7 -10.9,-40.6 -43.9,-71.2 -84.6,-78.3 -4.6,-0.8 -10.5,-1.5 -13.1,-1.5 l -4.7,0 -3.3,-9.3 C 694.3,374.3 664.2,340.3 625.9,320.9 600.3,308 567.7,301.7 538.5,304 z m 30.8,53.5 c 39.3,5.9 73.3,33.2 88.3,70.8 1.4,3.7 2.5,7 2.3,7.2 -0.2,0.2 -3.9,2.6 -8.1,5.4 -12.2,7.9 -16.6,15.7 -15.5,27.4 1.4,15.3 16.3,26.1 31.2,22.8 3,-0.7 7.8,-2.8 10.7,-4.8 15.9,-11 31.8,-13.6 49.4,-8.2 16.3,5 31.5,21.3 35.3,37.9 1.5,6.3 1.3,20.6 -0.3,26.5 -4.6,17.2 -17.5,31 -35,37.4 l -7.1,2.6 -165,0 c -186,0 -169.4,0.7 -187,-7.9 -36.6,-18 -50.3,-64.4 -29.5,-99.7 9.9,-16.8 27,-29.3 45.8,-33.5 11.3,-2.5 29.3,-1.6 39.2,2.1 14.5,5.2 23.9,12.6 37.7,29.2 5.4,6.5 11.8,9.6 19.9,9.6 18,0.1 30.8,-17.5 24.9,-34.3 -4.2,-11.9 -25.8,-34.2 -42.2,-43.6 -1.8,-1 -3.3,-2.1 -3.3,-2.4 0,-1.3 11.1,-13.6 16.6,-18.3 25.5,-21.8 58.4,-31.2 91.7,-26.2 z" />
  <path style="fill:#80d3ff;stroke:none;fill-opacity:1" inkscape:connector-curvature="0" id="path12" d="m 345.2,707.8 c 5.7,9.4 73.4,113.2 73.8,113.2 0.5,0 75.1,-114.3 75.8,-116.2 C 495,704.4 460.9,704 419,704 l -76.1,0 2.3,3.8 z m 106.5,25.4 C 427.9,770.1 419.4,783 419,783 c -0.3,0 -5.5,-7.8 -11.6,-17.3 -6.1,-9.4 -14.5,-22.5 -18.7,-29 L 381,725 l 38,0 38,0 -5.3,8.2 z" />
  <path style="fill:#80d3ff;stroke:none;fill-opacity:1" inkscape:connector-curvature="0" id="path14" d="m 652,704.6 c 0,0.5 70.3,108.7 73.2,112.7 1.3,1.7 5,-3.7 38.6,-55.2 20.5,-31.4 37.2,-57.3 37.2,-57.6 0,-0.3 -33.5,-0.5 -74.5,-0.5 -41,0 -74.5,0.3 -74.5,0.6 z m 111.4,20.6 c -1,1.7 -36.6,56.2 -36.8,56.5 -0.2,0.2 -25,-37.6 -36.4,-55.5 l -1.4,-2.2 37.6,0 c 29.9,0 37.6,0.3 37,1.2 z" />
  <path style="fill:#80d3ff;stroke:none;fill-opacity:1" inkscape:connector-curvature="0" id="path16" d="m 569.2,795.8 c 1.4,3.7 43.2,66.1 43.8,65.5 0.6,-0.7 40.4,-61.8 42.4,-65.1 0.6,-0.9 -8.3,-1.2 -42.9,-1.2 -24,0 -43.5,0.4 -43.3,0.8 z m 55.8,15.8 c 0,0.7 -9.4,17.5 -11.6,20.7 -1.1,1.6 -1.9,0.6 -7.8,-9.1 -3.6,-6.1 -6.6,-11.3 -6.6,-11.6 0,-0.3 5.9,-0.6 13,-0.6 7.2,0 13,0.3 13,0.6 z" />
  <path style="fill:#80d3ff;stroke:none;fill-opacity:1" inkscape:connector-curvature="0" id="path18" d="m 268.3,797.3 c 0.7,1.7 41.6,64.9 43.1,66.5 1,1 5.7,-5.7 22.9,-32.2 11.9,-18.3 21.7,-33.9 21.7,-34.5 0,-0.8 -12.4,-1.1 -44.1,-1.1 -35.4,0 -44,0.3 -43.6,1.3 z m 51.8,25.9 c -3.2,5.7 -6.2,11.1 -6.8,12.1 -0.8,1.6 -1.8,0.4 -6.8,-8 -3.2,-5.4 -6.5,-10.8 -7.3,-12.1 l -1.4,-2.2 14,0 14.1,0 -5.8,10.2 z" />
  <path inkscape:connector-curvature="0" style="fill:#7b7b7b;fill-opacity:1;stroke:none" d="m 404.96944,154.96013 -21.03355,5.04254 c -48.75221,5.72315 -100.74801,47.53216 -123.63752,92.83255 -28.12286,55.65777 -24.94659,116.21732 7.03255,165.59794 16.53072,-22.85846 38.42827,-41.65525 64.04644,-55.0532 -3.10381,-28.63478 -2.13631,-66.02409 3.09767,-88.39456 6.99128,-29.88121 27.32095,-68.63909 47.99989,-91.46307 z" id="path8-0-7" sodipodi:nodetypes="ccsccscc" />
</svg>
