<?xml version="1.0" encoding="UTF-8" standalone="no"?>
<svg xmlns:dc="http://purl.org/dc/elements/1.1/" xmlns:cc="http://creativecommons.org/ns#" xmlns:rdf="http://www.w3.org/1999/02/22-rdf-syntax-ns#" xmlns:svg="http://www.w3.org/2000/svg" xmlns="http://www.w3.org/2000/svg" xmlns:sodipodi="http://sodipodi.sourceforge.net/DTD/sodipodi-0.dtd" xmlns:inkscape="http://www.inkscape.org/namespaces/inkscape" version="1.0" width="1024.000000pt" height="1024.000000pt" viewBox="0 0 1024.000000 1024.000000" preserveAspectRatio="xMidYMid meet" id="svg2" inkscape:version="0.48.5 r10040" sodipodi:docname="2399929.svg">
  <defs id="defs24" />
  <sodipodi:namedview pagecolor="#ffffff" bordercolor="#666666" borderopacity="1" objecttolerance="10" gridtolerance="10" guidetolerance="10" inkscape:pageopacity="0" inkscape:pageshadow="2" inkscape:window-width="1096" inkscape:window-height="734" id="namedview22" showgrid="false" inkscape:zoom="0.184375" inkscape:cx="640" inkscape:cy="640" inkscape:window-x="1300" inkscape:window-y="271" inkscape:window-maximized="0" inkscape:current-layer="svg2" />
  <metadata id="metadata4">
Created by potrace 1.11, written by Peter Selinger 2001-2013
<rdf:RDF>
  <cc:Work rdf:about="">
    <dc:format>image/svg+xml</dc:format>
    <dc:type rdf:resource="http://purl.org/dc/dcmitype/StillImage" />
  </cc:Work>
</rdf:RDF>
</metadata>
  <path style="fill:#dcdcdc;stroke:none;fill-opacity:1" inkscape:connector-curvature="0" id="path10" d="m 539,304.1 c -50.6,4.4 -99.1,33.9 -125.3,76.1 l -4.2,6.8 -9.1,0 c -11.4,0 -25.3,2.3 -36.9,6.2 -17.9,6 -32.1,14.6 -45.9,27.8 -25.6,24.5 -38.7,54.8 -38.7,89.5 0,28.2 8.1,52.4 24.8,74.6 18.6,24.7 43.4,40.3 74.5,47.1 9.8,2.1 12.6,2.2 55.2,2.2 l 44.9,0.1 13.3,-25.5 c 7.3,-14 13.3,-25.8 13.4,-26.2 0,-0.4 -26.2,-0.8 -58.2,-1 l -58.3,-0.3 -8,-2.8 c -19.5,-6.9 -33,-18.6 -42,-36.5 -9.9,-19.9 -9.9,-42.3 0.1,-63.1 7.8,-16.1 23.8,-30.2 40.9,-36.1 18.7,-6.4 41.9,-4 59.3,6.2 5.9,3.4 17.8,14.7 24.6,23.2 12.2,15.2 36.6,11.7 44.4,-6.3 2.4,-5.6 2,-15.7 -0.8,-21.1 -5.7,-11.1 -24,-29.9 -36.8,-38 -3.9,-2.5 -7.2,-5 -7.2,-5.6 0,-2.2 15.8,-18 23.7,-23.6 21.8,-15.7 45.8,-22.8 72.8,-21.5 15.8,0.8 28.8,4.1 43.1,11.2 24.4,11.9 42.3,30 53.7,54.3 5.8,12.5 5.7,12.8 -3.8,19.3 -9.1,6.2 -12.9,11.4 -14.7,19.9 -2.8,13.6 7.1,27.4 21.7,30.1 6.5,1.2 13.1,-0.6 21.4,-6 9.9,-6.3 17.6,-9 27.2,-9.8 26.8,-2.1 50.8,16 56.4,42.4 1.8,8.6 1.8,13 0,21.8 -4.1,19.5 -19.8,36 -39,41 -4.9,1.2 -14,1.5 -53.5,1.5 l -47.5,0 -13.2,25.8 c -7.3,14.3 -13,26.2 -12.6,26.5 1,1.1 113.9,0.8 123.8,-0.3 37.5,-4.2 68.9,-26.2 85,-59.4 6.8,-14 9.6,-25.4 10.2,-42.1 0.6,-16.5 -1.5,-29.1 -7.2,-43.3 -15.1,-37.3 -49.7,-62.9 -89.4,-66 l -8.3,-0.7 -3.3,-9 C 700.8,389.3 686.4,367.2 668,349.6 640,322.9 605.4,307.4 566,304 c -12.7,-1.1 -13.4,-1.1 -27,0.1 z" />
  <path style="fill:#fedc00;stroke:none;fill-opacity:1" inkscape:connector-curvature="0" id="path12" d="m 548.6,553.2 c -4.1,7.3 -104.5,194.4 -105.2,196.2 -0.6,1.5 2.7,1.6 39,1.6 21.8,0 39.6,0.4 39.6,0.8 0,0.5 -18.7,35.9 -41.6,78.8 -44,82.4 -48.2,90.5 -46.6,88.9 0.6,-0.6 40.7,-48.3 89.1,-106 l 88,-105 -41.9,-0.3 c -23.1,-0.1 -42,-0.6 -42,-1 0,-0.4 19.3,-35.8 42.9,-78.7 23.5,-42.9 42.6,-78.3 42.4,-78.8 -0.2,-0.4 -14.1,-0.7 -30.8,-0.7 l -30.4,0 -2.5,4.2 z" />
  <path style="fill:#80d3ff;stroke:none;fill-opacity:1" inkscape:connector-curvature="0" id="path14" d="m 381.5,712.6 c -36.4,19.2 -53.6,30.2 -65.8,42.2 -12.4,12.2 -17,22.4 -17,37.7 0,43.4 51.3,66.5 84.1,37.9 14.5,-12.7 19.9,-30.8 20.9,-70.9 0.6,-22.3 -0.4,-57.5 -1.6,-57.5 -0.3,0 -9.6,4.8 -20.6,10.6 z m -6.5,64.1 c -2,21.8 -5.4,30.2 -14.3,35.3 -15.5,8.9 -34,-1.8 -34,-19.5 0,-12.5 8.2,-21.1 36.5,-38 l 12.3,-7.4 0.3,8.7 c 0.2,4.8 -0.2,14.2 -0.8,20.9 z" />
  <path style="fill:#80d3ff;stroke:none;fill-opacity:1" inkscape:connector-curvature="0" id="path16" d="m 709.5,711.6 c -39.3,20.8 -54.8,30.7 -67.6,43.4 -9,8.9 -12.5,14.4 -15.4,24.4 -7.6,26.1 9.2,55.1 36,62.1 13,3.3 29.2,0.8 40.5,-6.5 20.3,-13 27,-35.2 27,-89.1 0,-23.6 -0.9,-43.9 -1.9,-43.8 -0.3,0 -8.7,4.3 -18.6,9.5 z m -8.5,65.9 c -1.9,21.1 -5.5,29.8 -14.5,34.7 -11.4,6.3 -25.8,1.9 -31.7,-9.5 -3.1,-6.1 -2.8,-15.2 0.5,-21 4.6,-7.8 17.1,-17.6 37.7,-29.4 l 8.5,-4.9 0.3,9 c 0.2,5 -0.1,14.5 -0.8,21.1 z" />
  <path style="fill:#80d3ff;stroke:none;fill-opacity:1" inkscape:connector-curvature="0" id="path18" d="m 276.5,852.6 c -29.9,16.1 -44.3,27.1 -49.5,37.9 -2,4.1 -2.4,6.6 -2.5,14 0,7.7 0.4,9.8 2.6,14.6 3.4,7.2 9.6,13.4 16.8,16.8 4.8,2.2 6.9,2.6 14.6,2.6 10.8,0 15.9,-2 23.3,-8.9 10.5,-9.9 13.2,-21.9 13.2,-59.7 0,-20.1 -0.3,-25.9 -1.2,-25.9 -0.7,0 -8.5,3.9 -17.3,8.6 z m -0.9,49 c -1.7,9.9 -4.4,14.7 -9.7,17.4 -10.6,5.5 -22.5,-1 -23.7,-12.9 -0.9,-9.3 4.5,-15.2 25.5,-27.9 l 8.8,-5.3 0.3,10.1 c 0.1,5.8 -0.4,13.8 -1.2,18.6 z" />
  <path style="fill:#80d3ff;stroke:none;fill-opacity:1" inkscape:connector-curvature="0" id="path20" d="m 602.5,852.6 c -30.6,16.4 -43.3,26.1 -48.7,37.2 -2.9,5.9 -3.3,7.6 -3.3,15.2 0,7.1 0.4,9.4 2.6,14.1 3.4,7.2 9.6,13.4 16.8,16.8 7.5,3.5 21.1,3.7 28.3,0.4 5.3,-2.4 12.8,-9 15.7,-13.7 3.4,-5.4 6.1,-17.5 7.1,-31.5 1.1,-16.1 0.2,-47.1 -1.4,-47.1 -0.6,0.1 -8.3,3.9 -17.1,8.6 z m -0.5,47.8 c -1.4,9.1 -4,14.7 -8,17.6 -3.9,2.8 -11.7,3.8 -16,2 -4.2,-1.7 -8.8,-7.3 -9.6,-11.5 -1.9,-10.6 4.9,-18.5 27.4,-31.5 l 6.7,-3.9 0.3,10.2 c 0.1,5.6 -0.2,13.3 -0.8,17.1 z" />
  <path style="fill:#dcdcdc;fill-opacity:1;stroke:none" inkscape:connector-curvature="0" id="path8-7" d="m 396.55658,139.27584 c -1.9,0.2 -7.8,0.9 -13,1.5 -5.2,0.6 -15.4,2.6 -22.6,4.4 -110.00003,28.1 -172.80003,142.70001 -137.40003,250.80001 4.9,14.7 13.7,33 22,45.6 l 6.3,9.4 4.9,-9.9 c 19.4,-38.8 52.20001,-68.4 92.30003,-83.4 10.6,-4 26.4,-8.2 35.6,-9.5 4,-0.5 5,-1.2 8.5,-5.7 5.5,-7.3 21.5,-23.1 30.9,-30.7 30,-24.2 70.19999,-41.00001 107.69999,-45.00001 13,-1.5 40.1,-1.3 51.8,0.3 5.2,0.7 9.7,1.2 9.8,1 0.6,-0.4 -7.8,-19.5 -11.6,-26.4 -9.9,-17.9 -22.5,-34.3 -37.5,-48.6 -35.1,-33.5 -80.39999,-52.3 -129.39999,-53.8 -8.2,-0.2 -16.4,-0.2 -18.3,0 z" />
  <path inkscape:connector-curvature="0" style="fill:#7b7b7b;fill-opacity:1;stroke:none" d="m 403.24806,150.09736 -21.27316,5.28367 c -49.30756,5.99683 -101.89567,49.80512 -125.04592,97.27175 -28.44322,58.31931 -25.23077,121.77478 7.11266,173.51676 16.71902,-23.95154 38.86602,-43.64718 64.77602,-57.68582 -3.13916,-30.00407 -2.16064,-69.18132 3.13296,-92.62154 7.07092,-31.31012 27.63216,-71.92138 48.54668,-95.83679 z" id="path8-0-7" sodipodi:nodetypes="ccsccscc" />
</svg>
