<?xml version="1.0" encoding="UTF-8" standalone="no"?>
<svg xmlns:dc="http://purl.org/dc/elements/1.1/" xmlns:cc="http://creativecommons.org/ns#" xmlns:rdf="http://www.w3.org/1999/02/22-rdf-syntax-ns#" xmlns:svg="http://www.w3.org/2000/svg" xmlns="http://www.w3.org/2000/svg" xmlns:sodipodi="http://sodipodi.sourceforge.net/DTD/sodipodi-0.dtd" xmlns:inkscape="http://www.inkscape.org/namespaces/inkscape" version="1.0" width="1024.000000pt" height="1024.000000pt" viewBox="0 0 1024.000000 1024.000000" preserveAspectRatio="xMidYMid meet" id="svg2" inkscape:version="0.48.5 r10040" sodipodi:docname="2144919.svg">
  <defs id="defs28" />
  <sodipodi:namedview pagecolor="#ffffff" bordercolor="#666666" borderopacity="1" objecttolerance="10" gridtolerance="10" guidetolerance="10" inkscape:pageopacity="0" inkscape:pageshadow="2" inkscape:window-width="943" inkscape:window-height="685" id="namedview26" showgrid="false" inkscape:zoom="0.184375" inkscape:cx="640" inkscape:cy="640" inkscape:window-x="1406" inkscape:window-y="225" inkscape:window-maximized="0" inkscape:current-layer="svg2" />
  <metadata id="metadata4">
Created by potrace 1.11, written by Peter Selinger 2001-2013
<rdf:RDF>
  <cc:Work rdf:about="">
    <dc:format>image/svg+xml</dc:format>
    <dc:type rdf:resource="http://purl.org/dc/dcmitype/StillImage" />
  </cc:Work>
</rdf:RDF>
</metadata>
  <path style="fill:#fedc00;stroke:none;fill-opacity:1" inkscape:connector-curvature="0" id="path12" d="m 547.9,706.8 -21.6,39.7 26.8,0.3 c 14.8,0.1 26.9,0.4 26.9,0.7 0,0.2 -13.5,25.7 -30,56.6 -16.5,30.9 -29.9,56.3 -29.8,56.5 0.4,0.3 119.2,-141.4 119.6,-142.6 0.2,-0.6 -9.5,-1 -27.7,-1 -15.5,0 -28.1,-0.2 -28.1,-0.5 0,-0.2 6.1,-11.1 13.5,-24.1 7.4,-13 13.5,-24.1 13.5,-24.5 0,-0.5 -9.3,-0.9 -20.7,-0.9 l -20.8,0 -21.6,39.8 z" />
  <path style="fill:#80d3ff;stroke:none;fill-opacity:1" inkscape:connector-curvature="0" id="path14" d="m 479,689.6 c -37.1,19.3 -56,31.4 -69.1,44.4 -9.3,9.2 -13.7,16.6 -15.8,26.8 -3.4,16.4 1.7,33.7 13.5,45.7 19.5,19.8 50.5,20.4 70.9,1.3 12.3,-11.5 17.2,-26 19.5,-58 1.4,-18.7 0.4,-68.8 -1.4,-68.8 -0.6,0 -8.5,3.9 -17.6,8.6 z m -8.4,51.1 c -1.6,34.3 -5.3,45.5 -17,50.9 -9.3,4.3 -18.4,2.7 -25.8,-4.7 -7.2,-7.2 -8.8,-16.2 -4.4,-25.4 3.8,-8 12.6,-15.3 33.8,-28.1 6.8,-4 12.7,-7.4 13.2,-7.4 0.5,0 0.6,6.3 0.2,14.7 z" />
  <path style="fill:#80d3ff;stroke:none;fill-opacity:1" inkscape:connector-curvature="0" id="path16" d="m 806.5,690.6 c -35,18.4 -54.4,30.8 -66.2,42.1 -12.3,11.9 -17.4,22.9 -17.6,37.8 -0.1,14.2 4.8,26.2 14.8,36.2 18.2,18.2 46.2,20 66.8,4.5 17.9,-13.7 23.7,-34.8 23.7,-87.1 0,-28.1 -0.8,-43.1 -2.4,-43 -0.6,0 -9.2,4.3 -19.1,9.5 z m -6.8,53.1 c -1,27 -3.7,37.5 -11.5,44.5 -7,6.4 -16.3,7.5 -25.1,3.2 -6.3,-3.2 -10.5,-8.6 -12,-15.4 -2.6,-11.9 3.1,-21 20.8,-33.2 6.8,-4.7 26.9,-16.8 28,-16.8 0.2,0 0.1,8 -0.2,17.7 z" />
  <path style="fill:#dcdcdc;stroke:none;fill-opacity:1" inkscape:connector-curvature="0" id="path18" d="m 329.5,728.5 c -2.4,2.3 -2.5,3 -2.5,13.9 l 0,11.6 -9.7,-6.1 c -8,-4.9 -10.3,-5.9 -12.8,-5.5 -5.3,1 -8.1,6.8 -5.6,11.5 0.6,1 5.3,4.4 10.5,7.5 5.3,3.2 9.6,6.1 9.6,6.5 0,0.3 -4.1,3 -9.1,6 -12.3,7.4 -14.3,10.8 -9.8,16.5 3.2,4.1 7,3.5 17.4,-2.9 l 9,-5.5 0.3,11.2 c 0.2,9.9 0.5,11.5 2.4,13.5 2.7,2.9 8,3.1 10.8,0.3 1.8,-1.8 2,-3.3 2,-13.5 0,-6.3 0.2,-11.5 0.5,-11.5 0.3,0 4.5,2.5 9.4,5.5 9.7,6 13.8,6.8 17.1,3.5 1.9,-1.9 2.6,-6.3 1.4,-9.4 -0.3,-0.8 -4.8,-4.1 -10,-7.2 -5.2,-3.1 -9.7,-6 -9.9,-6.4 -0.3,-0.4 3.8,-3.3 9.1,-6.5 10,-6.1 11.4,-7.6 11.4,-12.4 0,-3.4 -3.9,-7.1 -7.4,-7.1 -1.1,0 -6.1,2.5 -11.1,5.5 -4.9,3 -9.3,5.5 -9.7,5.5 -0.5,0 -0.8,-5.1 -0.8,-11.4 0,-11.2 -0.1,-11.5 -2.6,-13.5 -3.5,-2.8 -6.9,-2.6 -9.9,0.4 z" />
  <path style="fill:#dcdcdc;stroke:none;fill-opacity:1" inkscape:connector-curvature="0" id="path20" d="m 650.9,727.9 c -2.2,1.8 -2.4,2.7 -2.7,13.6 -0.3,8.3 -0.7,11.5 -1.5,11.2 -0.7,-0.3 -5,-2.8 -9.6,-5.6 -4.6,-2.8 -9.1,-5.1 -9.8,-5.1 -2.9,0 -7.1,3 -7.7,5.6 -1.3,5 0.9,7.7 11.5,14.1 l 9.9,6 -10.2,6.4 c -8.5,5.3 -10.4,7 -11.2,9.7 -1.3,4.6 1.7,8.6 6.7,9 2.8,0.3 5.2,-0.7 12.4,-5.2 l 8.8,-5.5 0.5,11.3 c 0.6,13.3 1.8,15.6 8,15.6 6.2,0 7.4,-2.3 8,-15.6 l 0.5,-11.3 8.8,5.4 c 5.1,3.2 9.8,5.5 11.5,5.5 5.6,0 9.2,-5.1 7.3,-10.3 -0.6,-1.5 -4.7,-4.7 -11.1,-8.7 l -10.2,-6.3 3.4,-2.1 c 17.5,-10.8 19.8,-13 18.3,-17.7 -0.8,-2.5 -5.3,-5.9 -7.8,-5.9 -1.1,0 -6,2.5 -10.9,5.5 -4.8,3 -9,5.5 -9.3,5.5 -0.3,0 -0.5,-4.2 -0.5,-9.4 0,-10 -1,-14.1 -3.8,-16.2 -2.5,-1.9 -6.6,-1.7 -9.3,0.5 z" />
  <path style="fill:#dcdcdc;stroke:none;fill-opacity:1" inkscape:connector-curvature="0" id="path22" d="m 369.4,828 c -3.5,1.4 -3.9,2.8 -4.4,15.2 l -0.5,11.7 -8,-5 c -4.4,-2.8 -9,-5.5 -10.3,-6 -3.4,-1.3 -9,1.3 -9.8,4.7 -1.3,5.1 0.6,7.6 10.8,13.9 5.4,3.3 9.8,6.2 9.8,6.5 0,0.3 -4.4,3.2 -9.7,6.6 -10.3,6.4 -12.2,8.8 -10.9,13.7 0.8,3.2 5.8,6.1 8.9,5.1 1.2,-0.3 6.1,-3.1 11,-6 l 8.7,-5.4 0,10.9 c 0,6 0.3,11.7 0.6,12.6 0.9,2.3 6,4.6 8.8,3.9 4.8,-1.2 5.5,-3.1 5.8,-15.7 l 0.3,-11.7 9.3,5.7 c 10.2,6.1 14,6.9 17.3,3.6 2.5,-2.5 2.8,-7.7 0.4,-10.3 -0.9,-1 -5.7,-4.3 -10.6,-7.2 -4.9,-2.9 -8.8,-5.5 -8.9,-5.8 0,-0.3 3,-2.2 6.5,-4.4 12.7,-7.5 14.5,-9.2 14.5,-13.5 0,-2.6 -0.7,-4.4 -2,-5.6 -3.6,-3.2 -7.7,-2.3 -17.5,3.8 l -9,5.6 -0.3,-11.9 c -0.3,-11.5 -0.4,-12 -2.9,-14 -2.8,-2.1 -4.5,-2.4 -7.9,-1 z" />
  <path style="fill:#dcdcdc;stroke:none;fill-opacity:1" inkscape:connector-curvature="0" id="path24" d="m 690.4,828.2 c -3.4,1.6 -4.4,5.2 -4.4,16.4 l 0,10.4 -9.2,-5.7 c -10.5,-6.5 -13.9,-7.1 -17.5,-2.9 -4.8,5.6 -3,8.9 9.2,16.2 5.2,3.1 9.5,6 9.5,6.4 0,0.4 -4.2,3.3 -9.4,6.5 -8.8,5.5 -11.6,8.4 -11.6,12.1 0,2.2 5.5,7.4 7.7,7.4 1,0 6.2,-2.7 11.6,-5.9 l 9.7,-5.9 0,11 c 0,10.8 0,11 2.9,13.9 3.6,3.5 6.1,3.7 9.8,0.5 2.7,-2.4 2.8,-2.7 3.1,-14 l 0.4,-11.5 9,5.6 c 10.4,6.5 13.9,7.1 17.5,2.9 4.6,-5.4 2.5,-9 -9.3,-16.2 -5.2,-3.1 -9.4,-6 -9.4,-6.4 0,-0.5 3.9,-3.2 8.6,-6.1 10,-6.1 12.8,-9.2 11.9,-12.9 -0.8,-3.2 -3.3,-5.7 -6.5,-6.5 -1.9,-0.4 -4.5,0.6 -11,4.6 -4.7,2.8 -9,5.3 -9.7,5.6 -0.8,0.3 -1.2,-2.8 -1.5,-10.7 -0.3,-10.8 -0.4,-11.3 -3.1,-13.6 -3,-2.6 -5,-2.9 -8.3,-1.2 z" />
  <path style="fill:#dcdcdc;fill-opacity:1;stroke:none" inkscape:connector-curvature="0" id="path8-7" d="m 378.2094,169.73118 c -34.3,3.4 -55.8,9.1 -82.5,22 -65.9,31.8 -111.3,95.19999 -121.1,169.4 -1.8,13.4 -1.5,43 0.5,56.5 6,39.6 22.1,76.6 46.3,106.5 8.1,10 27.8,29.1 38.1,36.9 22.4,16.9 48.6,29.7 76.2,37 20.8,5.5 29.2,6.5 55.5,6.5 20.6,0.1 25.8,-0.2 36.5,-2.2 11.6,-2 32.1,-7.4 34.8,-9.1 0.8,-0.4 0.3,-3.1 -1.8,-9.2 -15,-44.6 -7.6,-94.6 19.6,-132.5 7.9,-11 14.8,-18.7 23.4,-26.1 18.3,-15.7 41.8,-27.8 63.9,-32.8 6.4,-1.5 7,-1.9 16.1,-11.1 5.2,-5.2 12.7,-12.1 16.7,-15.2 8.4,-6.6 8.3,-6 5.3,-21 -6.5,-32.50001 -20.3,-63.30001 -40.1,-89.4 -8.2,-10.8 -27.2,-30.2 -37.9,-38.8 -30,-23.9 -66.9,-39.9 -105.1,-45.5 -10.7,-1.5 -36.9,-2.7 -44.4,-1.9 z" />
  <path style="fill:#dcdcdc;fill-opacity:1;stroke:none" inkscape:connector-curvature="0" id="path10-1" d="m 700.50941,370.13118 c -23.1,2.2 -45.3,10.1 -65.1,23.3 -10.9,7.3 -28.10001,24.1 -35.00001,34.3 l -4.9,7.1 -8.9,0.7 c -44.8,3.4 -82.8,35.2 -94.6,79.1 -2.3,8.8 -2.6,12 -2.7,26 -0.1,13.8 0.3,17.3 2.3,25 5.2,20 14,35.5 28,49.6 15.8,15.8 33.2,25.2 55.1,29.6 6.3,1.3 18.2,1.5 76.00001,1.4 67.5,-0.2 80.7,-0.7 92.5,-3.7 28,-7 49,-19 68.2,-38.7 11.69999,-12.1 18.59999,-22 25.89999,-37.1 21.9,-46 16.4,-100.9 -14.3,-141.7 -28.69999,-38.2 -75.59999,-59.2 -122.49999,-54.9 z m 32.2,58.6 c 23.9,6.1 44.8,24 54.9,46.9 5.6,12.6 7.7,33.3 5,48.1 -5.6,30.6 -32.3,57.6 -62.9,63.7 -10.2,2.1 -134.00001,3.5 -144.00001,1.7 -15.5,-2.8 -28.8,-13.1 -35.7,-27.7 -3.5,-7.2 -3.8,-8.6 -4.1,-18.3 -0.3,-8.8 0,-11.6 1.8,-17 5.5,-16.4 19.3,-29.1 35.9,-33 6.9,-1.6 21.1,-0.8 27.1,1.6 6.60001,2.6 14.40001,7.8 18.30001,12.1 1.9,2.1 5.6,6.1 8.1,9 8.2,8.9 17.6,11.8 28.7,8.7 5.3,-1.5 7.3,-2.7 12,-7.3 4.6,-4.7 5.8,-6.7 7.3,-12 1.9,-6.8 1.6,-12.7 -1,-18.9 -3,-7.3 -15.7,-21.6 -26.1,-29.4 l -5.6,-4.3 5.9,-5.3 c 10.8,-9.8 24.9,-16.9 39.9,-19.8 8.7,-1.7 25.5,-1.1 34.5,1.2 z" />
  <path style="fill:#7b7b7b;fill-opacity:1;stroke:none" d="m 342.28438,572.76536 c -25.11593,-5.51174 -59.35433,-27.30158 -79.67883,-50.70893 -51.82279,-59.68311 -63.11871,-142.79859 -29.61945,-217.93978 22.68728,-50.8891 72.70833,-91.26611 121.02981,-97.69531 l 17.84854,-2.37467 -17.77019,22.2295 c -20.49625,25.63976 -40.66223,69.17462 -47.59175,102.74229 -6.81264,33.00166 -6.31468,95.10104 1.00891,125.81174 10.61848,44.52756 26.20772,76.85178 51.48943,106.76266 12.07324,14.28389 12.32377,15.014 5.02562,14.64568 -4.22462,-0.2131 -14.00854,-1.77612 -21.74209,-3.47318 z" id="path3757" inkscape:connector-curvature="0" />
</svg>
