<?xml version="1.0" encoding="UTF-8" standalone="no"?>
<svg xmlns:dc="http://purl.org/dc/elements/1.1/" xmlns:cc="http://creativecommons.org/ns#" xmlns:rdf="http://www.w3.org/1999/02/22-rdf-syntax-ns#" xmlns:svg="http://www.w3.org/2000/svg" xmlns="http://www.w3.org/2000/svg" xmlns:sodipodi="http://sodipodi.sourceforge.net/DTD/sodipodi-0.dtd" xmlns:inkscape="http://www.inkscape.org/namespaces/inkscape" version="1.0" width="1024.000000pt" height="1024.000000pt" viewBox="0 0 1024.000000 1024.000000" preserveAspectRatio="xMidYMid meet" id="svg2" inkscape:version="0.48.5 r10040" sodipodi:docname="2299969.svg">
  <defs id="defs30" />
  <sodipodi:namedview pagecolor="#ffffff" bordercolor="#666666" borderopacity="1" objecttolerance="10" gridtolerance="10" guidetolerance="10" inkscape:pageopacity="0" inkscape:pageshadow="2" inkscape:window-width="1088" inkscape:window-height="852" id="namedview28" showgrid="false" inkscape:zoom="0.7375" inkscape:cx="546.41211" inkscape:cy="741.3031" inkscape:window-x="1414" inkscape:window-y="111" inkscape:window-maximized="0" inkscape:current-layer="svg2" />
  <metadata id="metadata4">
Created by potrace 1.11, written by Peter Selinger 2001-2013
<rdf:RDF>
  <cc:Work rdf:about="">
    <dc:format>image/svg+xml</dc:format>
    <dc:type rdf:resource="http://purl.org/dc/dcmitype/StillImage" />
  </cc:Work>
</rdf:RDF>
</metadata>
  <path style="fill:#dcdcdc;stroke:none;fill-opacity:1" inkscape:connector-curvature="0" id="path8" d="m 394,138.6 c -1.9,0.2 -7.8,0.9 -13,1.5 -5.2,0.6 -15.4,2.6 -22.6,4.4 -110,28.1 -172.8,142.7 -137.4,250.8 4.9,14.7 13.7,33 22,45.6 l 6.3,9.4 4.9,-9.9 c 19.4,-38.8 52.2,-68.4 92.3,-83.4 10.6,-4 26.4,-8.2 35.6,-9.5 4,-0.5 5,-1.2 8.5,-5.7 5.5,-7.3 21.5,-23.1 30.9,-30.7 30,-24.2 70.2,-41 107.7,-45 13,-1.5 40.1,-1.3 51.8,0.3 5.2,0.7 9.7,1.2 9.8,1 0.6,-0.4 -7.8,-19.5 -11.6,-26.4 -9.9,-17.9 -22.5,-34.3 -37.5,-48.6 -35.1,-33.5 -80.4,-52.3 -129.4,-53.8 -8.2,-0.2 -16.4,-0.2 -18.3,0 z" />
  <path style="fill:#dcdcdc;stroke:none;fill-opacity:1" inkscape:connector-curvature="0" id="path10" d="M 538.5,304 C 488,308.1 440.8,336.2 413,378.8 l -5.1,7.9 -12.2,0.6 c -33.3,1.5 -62.6,14.9 -85,38.7 -17,18 -28.1,40 -32.2,63.8 -1.9,11 -1.9,31.6 0,42.8 7.8,44.2 40,81.6 82.6,95.8 20.8,7 11.7,6.7 198.4,6.4 l 168,-0.3 9.7,-2.7 c 20.1,-5.5 34.2,-13.9 49.3,-29.2 14.4,-14.7 22.2,-28.6 27.6,-49.2 2,-7.6 2.3,-11.3 2.3,-24.9 0,-14 -0.4,-17.2 -2.7,-25.7 -10.9,-40.6 -43.9,-71.2 -84.6,-78.3 -4.6,-0.8 -10.5,-1.5 -13.1,-1.5 l -4.7,0 -3.3,-9.3 C 694.3,374.3 664.2,340.3 625.9,320.9 600.3,308 567.7,301.7 538.5,304 z m 30.8,53.5 c 39.3,5.9 73.3,33.2 88.3,70.8 1.4,3.7 2.5,7 2.3,7.2 -0.2,0.2 -3.9,2.6 -8.1,5.4 -12.2,7.9 -16.6,15.7 -15.5,27.4 1.4,15.3 16.3,26.1 31.2,22.8 3,-0.7 7.8,-2.8 10.7,-4.8 15.9,-11 31.8,-13.6 49.4,-8.2 16.3,5 31.5,21.3 35.3,37.9 1.5,6.3 1.3,20.6 -0.3,26.5 -4.6,17.2 -17.5,31 -35,37.4 l -7.1,2.6 -165,0 c -186,0 -169.4,0.7 -187,-7.9 -36.6,-18 -50.3,-64.4 -29.5,-99.7 9.9,-16.8 27,-29.3 45.8,-33.5 11.3,-2.5 29.3,-1.6 39.2,2.1 14.5,5.2 23.9,12.6 37.7,29.2 5.4,6.5 11.8,9.6 19.9,9.6 18,0.1 30.8,-17.5 24.9,-34.3 -4.2,-11.9 -25.8,-34.2 -42.2,-43.6 -1.8,-1 -3.3,-2.1 -3.3,-2.4 0,-1.3 11.1,-13.6 16.6,-18.3 25.5,-21.8 58.4,-31.2 91.7,-26.2 z" />
  <path style="fill:#cccccc;stroke:none;fill-opacity:1" inkscape:connector-curvature="0" id="path12" d="m 295.5,743.4 c -6.3,2.8 -10.5,9.4 -10.5,16.6 0,5 1.5,8.8 4.8,12.3 5.5,5.9 3.5,5.7 61.8,5.7 l 53.7,0 4.3,-2.5 c 12.3,-7.2 10.6,-27.3 -2.9,-32.4 -4.5,-1.7 -107.3,-1.4 -111.2,0.3 z" />
  <path style="fill:#cccccc;stroke:none;fill-opacity:1" inkscape:connector-curvature="0" id="path14" d="m 484.5,743.4 c -6.3,2.8 -10.5,9.4 -10.5,16.6 0,5 1.5,8.8 4.8,12.3 5.5,5.9 3.5,5.7 61.8,5.7 l 53.7,0 4.3,-2.5 c 12.3,-7.2 10.6,-27.3 -2.9,-32.4 -4.5,-1.7 -107.3,-1.4 -111.2,0.3 z" />
  <path style="fill:#cccccc;stroke:none;fill-opacity:1" inkscape:connector-curvature="0" id="path16" d="m 673.5,743.4 c -3.7,1.7 -8,6.2 -9.4,9.9 -3,8 0.3,18.1 7.3,22.2 l 4.3,2.5 53.7,0 c 58.3,0 56.3,0.2 61.8,-5.7 8.6,-9.1 5.1,-24.8 -6.5,-29.2 -4.5,-1.7 -107.3,-1.4 -111.2,0.3 z" />
  <path style="fill:#cccccc;stroke:none;fill-opacity:1" inkscape:connector-curvature="0" id="path18" d="m 389.2,820.1 c -15.2,7.6 -12.1,30.2 4.8,33.8 7,1.5 97,1.5 104,0 13.1,-2.8 18.8,-16.9 11.4,-28.2 -1.5,-2.3 -4.2,-4.6 -6.7,-5.8 -4,-1.7 -7.3,-1.9 -56.7,-1.9 -51.4,0 -52.6,0 -56.8,2.1 z" />
  <path style="fill:#cccccc;stroke:none;fill-opacity:1" inkscape:connector-curvature="0" id="path20" d="m 578.2,820.1 c -15.2,7.5 -12.1,30.2 4.6,33.8 3.5,0.7 21,1.1 52.2,1.1 52.9,0 55.5,-0.2 61.2,-5.9 8.8,-8.9 6.5,-24.2 -4.5,-29.2 -4,-1.7 -7.3,-1.9 -56.7,-1.9 -51.4,0 -52.6,0 -56.8,2.1 z" />
  <path style="fill:#cccccc;stroke:none;fill-opacity:1" inkscape:connector-curvature="0" id="path22" d="m 295,895.9 c -10.4,5.5 -13.3,19.2 -5.8,27.7 6.4,7.2 3.3,6.9 62.3,6.9 l 53,0 4.3,-2.5 c 13.1,-7.5 11.8,-27.7 -2.1,-32.9 -1.9,-0.7 -20.7,-1.1 -55.5,-1.1 -49.5,0 -52.9,0.1 -56.2,1.9 z" />
  <path style="fill:#cccccc;stroke:none;fill-opacity:1" inkscape:connector-curvature="0" id="path24" d="m 484.5,895.4 c -13.2,5.9 -14.1,25 -1.7,32.4 l 4.7,2.7 53,0 53,0 4.7,-2.7 c 12.7,-7.5 11.2,-27.5 -2.5,-32.7 -4.5,-1.7 -107.3,-1.4 -111.2,0.3 z" />
  <path style="fill:#cccccc;stroke:none;fill-opacity:1" inkscape:connector-curvature="0" id="path26" d="m 673.5,895.4 c -13.4,6 -14.2,25.3 -1.3,32.6 l 4.3,2.5 53,0 c 59,0 55.9,0.3 62.3,-6.9 7.5,-8.5 4.6,-22.2 -5.8,-27.7 -3.3,-1.8 -6.7,-1.9 -56.5,-1.9 -42.1,0.1 -53.6,0.4 -56,1.4 z" />
  <path inkscape:connector-curvature="0" style="fill:#7b7b7b;fill-opacity:1;stroke:none" d="m 400.69149,149.42154 -21.27314,5.28367 c -49.30757,5.99683 -101.89567,49.80512 -125.04592,97.27175 -28.44322,58.3193 -25.23077,121.77477 7.11266,173.51675 16.71902,-23.95154 38.86602,-43.64718 64.776,-57.68582 -3.13916,-30.00407 -2.16064,-69.18132 3.13296,-92.62153 7.07092,-31.31012 27.63218,-71.92138 48.54668,-95.83679 z" id="path8-0" sodipodi:nodetypes="ccsccscc" />
</svg>
