<?xml version="1.0" encoding="UTF-8" standalone="no"?>
<svg xmlns:dc="http://purl.org/dc/elements/1.1/" xmlns:cc="http://creativecommons.org/ns#" xmlns:rdf="http://www.w3.org/1999/02/22-rdf-syntax-ns#" xmlns:svg="http://www.w3.org/2000/svg" xmlns="http://www.w3.org/2000/svg" xmlns:sodipodi="http://sodipodi.sourceforge.net/DTD/sodipodi-0.dtd" xmlns:inkscape="http://www.inkscape.org/namespaces/inkscape" version="1.0" width="1024.000000pt" height="1024.000000pt" viewBox="0 0 1024.000000 1024.000000" preserveAspectRatio="xMidYMid meet" id="svg2" inkscape:version="0.48.5 r10040" sodipodi:docname="2199939.svg">
  <defs id="defs26" />
  <sodipodi:namedview pagecolor="#ffffff" bordercolor="#666666" borderopacity="1" objecttolerance="10" gridtolerance="10" guidetolerance="10" inkscape:pageopacity="0" inkscape:pageshadow="2" inkscape:window-width="938" inkscape:window-height="637" id="namedview24" showgrid="false" inkscape:zoom="0.184375" inkscape:cx="640" inkscape:cy="640" inkscape:window-x="1248" inkscape:window-y="203" inkscape:window-maximized="0" inkscape:current-layer="svg2" />
  <metadata id="metadata4">
Created by potrace 1.11, written by Peter Selinger 2001-2013
<rdf:RDF>
  <cc:Work rdf:about="">
    <dc:format>image/svg+xml</dc:format>
    <dc:type rdf:resource="http://purl.org/dc/dcmitype/StillImage" />
  </cc:Work>
</rdf:RDF>
</metadata>
  <path style="fill:#dcdcdc;stroke:none;fill-opacity:1" inkscape:connector-curvature="0" id="path10" d="m 700.8,373 c -23.1,2.2 -45.3,10.1 -65.1,23.3 -10.9,7.3 -28.1,24.1 -35,34.3 l -4.9,7.1 -8.9,0.7 c -44.8,3.4 -82.8,35.2 -94.6,79.1 -2.3,8.8 -2.6,12 -2.7,26 -0.1,13.8 0.3,17.3 2.3,25 7.5,28.8 24.1,51.1 49.1,66.3 11.2,6.8 9,8.6 23.4,-19.3 6.9,-13.6 12.6,-24.9 12.6,-25.3 -0.1,-0.4 -2.4,-1.8 -5.3,-3.1 -7.9,-3.7 -17,-13.4 -21.4,-22.8 -3.5,-7.2 -3.8,-8.6 -4.1,-18.3 -0.3,-8.8 0,-11.6 1.8,-17 5.5,-16.4 19.3,-29.1 35.9,-33 6.9,-1.6 21.1,-0.8 27.1,1.6 6.6,2.6 14.4,7.8 18.3,12.1 1.9,2.1 5.6,6.1 8.1,9 8.2,8.9 17.6,11.8 28.7,8.7 5.3,-1.5 7.3,-2.7 12,-7.3 4.6,-4.7 5.8,-6.7 7.3,-12 1.9,-6.8 1.6,-12.7 -1,-18.9 -3,-7.3 -15.7,-21.6 -26.1,-29.4 l -5.6,-4.3 5.9,-5.3 c 36.8,-33.7 95.5,-25.8 122.7,16.4 5.7,8.9 8.4,15.1 10.8,24.9 2.2,9.1 2.6,25.6 0.8,35.1 -4.5,24.7 -23.6,48.3 -47.5,58.9 -10.4,4.6 -17,5.8 -34.8,6.4 l -17,0.6 -11.3,27.9 c -6.2,15.3 -11.3,28.1 -11.3,28.4 0,0.2 13.6,0.2 30.3,-0.1 23.2,-0.4 31.9,-0.9 37.7,-2.2 29.9,-6.7 52.6,-19.2 72.7,-39.8 11.7,-12.1 18.6,-22 25.9,-37.1 C 859.5,523.6 854,468.7 823.3,427.9 794.6,389.7 747.7,368.7 700.8,373 z" />
  <path style="fill:#fedc00;stroke:none;fill-opacity:1" inkscape:connector-curvature="0" id="path12" d="m 627.7,558.2 c -7.2,13.1 -102.8,191 -103.4,192.3 -0.4,1.3 5.1,1.5 39.1,1.7 l 39.6,0.3 -43.8,76 c -24.1,41.8 -44.1,76.6 -44.5,77.2 -0.5,0.7 -0.6,1.3 -0.4,1.3 0.6,0 176.1,-196.9 176.5,-198.1 0.2,-0.5 -16.1,-0.9 -41.2,-0.9 -22.9,0 -41.6,-0.2 -41.6,-0.5 0,-0.3 82.5,-151.1 84.7,-154.8 0.2,-0.4 -13.5,-0.7 -30.6,-0.7 l -30.9,0 -3.5,6.2 z" />
  <path style="fill:#80d3ff;stroke:none;fill-opacity:1" inkscape:connector-curvature="0" id="path14" d="m 290,709.6 c 0,0.3 16.7,26.2 37.2,57.5 29.4,45.2 37.4,56.7 38.3,55.7 0.6,-0.7 9.1,-13.5 18.7,-28.3 9.6,-14.9 26.1,-40.2 36.6,-56.3 L 439.9,709 365,709 c -41.3,0 -75,0.3 -75,0.6 z m 111.4,20.6 c -0.4,0.7 -8.8,13.8 -18.7,29 l -18,27.8 -2.4,-3.4 c -2.6,-3.9 -33.5,-51.4 -34.7,-53.4 -0.6,-0.9 7.1,-1.2 36.9,-1.2 29.8,0 37.5,0.3 36.9,1.2 z" />
  <path style="fill:#80d3ff;stroke:none;fill-opacity:1" inkscape:connector-curvature="0" id="path16" d="m 710,709.5 c 0,0.8 40.9,63.7 42.5,65.3 1,1.1 5.3,-4.9 22.9,-31.8 11.9,-18.2 21.6,-33.3 21.6,-33.5 0,-0.3 -19.6,-0.5 -43.5,-0.5 -23.9,0 -43.5,0.2 -43.5,0.5 z m 55.6,17.2 c -1.7,4.5 -11.8,21.3 -12.6,20.8 -0.9,-0.6 -13,-20.8 -13,-21.8 0,-0.4 5.9,-0.7 13.1,-0.7 12.1,0 13.1,0.1 12.5,1.7 z" />
  <path style="fill:#fedc00;stroke:none;fill-opacity:1" inkscape:connector-curvature="0" id="path18" d="m 467.6,716.2 c -0.8,1.3 -13.8,23.7 -29,49.8 l -27.5,47.5 45.3,0.3 45.4,0.2 -27,44.8 c -30.4,50.3 -30.1,49.7 -26.6,46.2 1.4,-1.4 27.1,-29.8 57.2,-63.3 L 560,781 l -41.5,0 c -22.8,0 -41.5,-0.2 -41.5,-0.5 0,-0.2 9,-15.3 20,-33.5 l 20,-33 -24,0 c -23.7,0 -24,0 -25.4,2.2 z" />
  <path style="fill:#80d3ff;stroke:none;fill-opacity:1" inkscape:connector-curvature="0" id="path20" d="m 679,794.6 c 0,1.6 74.4,114.4 75,113.7 1.2,-1.4 74,-113.4 74,-113.8 0,-0.3 -33.5,-0.5 -74.5,-0.5 -41,0 -74.5,0.3 -74.5,0.6 z m 110.4,22.1 c -1,1.6 -9.4,14.5 -18.7,28.8 -9.4,14.3 -17,26.1 -17.1,26.2 -0.2,0.2 -34.9,-52.8 -36.9,-56.3 -0.7,-1.2 5,-1.4 36.9,-1.4 l 37.6,0 -1.8,2.7 z" />
  <path style="fill:#80d3ff;stroke:none;fill-opacity:1" inkscape:connector-curvature="0" id="path22" d="m 321.6,837.2 c 1.8,3 41.7,64.4 42.4,65.1 0.5,0.6 42.4,-61.8 43.8,-65.5 0.2,-0.4 -19.3,-0.8 -43.3,-0.8 -34.6,0 -43.5,0.3 -42.9,1.2 z m 49.8,26 c -3.5,6.2 -6.7,11.2 -7,11.1 -0.6,-0.2 -13.4,-21 -13.4,-21.9 0,-0.2 6,-0.4 13.4,-0.4 l 13.5,0 -6.5,11.2 z" />
  <path style="fill:#dcdcdc;fill-opacity:1;stroke:none" inkscape:connector-curvature="0" id="path8-5" d="m 378.20941,174.07016 c -34.3,3.4 -55.8,9.1 -82.5,22 -65.9,31.8 -111.3,95.2 -121.1,169.4 -1.8,13.4 -1.5,43 0.5,56.5 6,39.6 22.1,76.6 46.3,106.5 8.1,10 27.8,29.1 38.1,36.9 22.4,16.9 48.6,29.7 76.2,37 20.8,5.5 29.2,6.5 55.5,6.5 20.6,0.1 25.8,-0.2 36.5,-2.2 11.6,-2 32.1,-7.4 34.8,-9.1 0.8,-0.4 0.3,-3.1 -1.8,-9.2 -15,-44.6 -7.6,-94.6 19.6,-132.5 7.9,-11 14.8,-18.7 23.4,-26.1 18.3,-15.7 41.8,-27.8 63.9,-32.8 6.4,-1.5 7,-1.9 16.1,-11.1 5.2,-5.2 12.7,-12.1 16.7,-15.2 8.4,-6.6 8.3,-6 5.3,-21 -6.5,-32.5 -20.3,-63.3 -40.1,-89.4 -8.2,-10.8 -27.2,-30.2 -37.9,-38.8 -30,-23.9 -66.9,-39.9 -105.1,-45.5 -10.7,-1.5 -36.9,-2.7 -44.4,-1.9 z" />
  <path style="fill:#7b7b7b;fill-opacity:1;stroke:none" d="M 342.28439,577.10434 C 317.16846,571.5926 282.93006,549.80276 262.60556,526.39541 210.78277,466.7123 199.48685,383.59682 232.98611,308.45564 c 22.68727,-50.88911 72.70833,-91.26612 121.02981,-97.69532 l 17.84854,-2.37467 -17.77019,22.2295 c -20.49625,25.63976 -40.66223,69.17463 -47.59175,102.74229 -6.81264,33.00166 -6.31468,95.10104 1.00891,125.81174 10.61848,44.52756 26.20772,76.85178 51.48943,106.76266 12.07324,14.28389 12.32377,15.014 5.02562,14.64568 -4.22462,-0.2131 -14.00854,-1.77612 -21.74209,-3.47318 z" id="path3757" inkscape:connector-curvature="0" />
</svg>
