<?xml version="1.0" encoding="UTF-8" standalone="no"?>
<svg xmlns:dc="http://purl.org/dc/elements/1.1/" xmlns:cc="http://creativecommons.org/ns#" xmlns:rdf="http://www.w3.org/1999/02/22-rdf-syntax-ns#" xmlns:svg="http://www.w3.org/2000/svg" xmlns="http://www.w3.org/2000/svg" xmlns:sodipodi="http://sodipodi.sourceforge.net/DTD/sodipodi-0.dtd" xmlns:inkscape="http://www.inkscape.org/namespaces/inkscape" version="1.0" width="1024.000000pt" height="1024.000000pt" viewBox="0 0 1024.000000 1024.000000" preserveAspectRatio="xMidYMid meet" id="svg2" inkscape:version="0.48.5 r10040" sodipodi:docname="2299929.svg">
  <defs id="defs24" />
  <sodipodi:namedview pagecolor="#ffffff" bordercolor="#666666" borderopacity="1" objecttolerance="10" gridtolerance="10" guidetolerance="10" inkscape:pageopacity="0" inkscape:pageshadow="2" inkscape:window-width="836" inkscape:window-height="643" id="namedview22" showgrid="false" inkscape:zoom="0.7375" inkscape:cx="496.98731" inkscape:cy="865.42676" inkscape:window-x="1662" inkscape:window-y="68" inkscape:window-maximized="0" inkscape:current-layer="svg2" />
  <metadata id="metadata4">
Created by potrace 1.11, written by Peter Selinger 2001-2013
<rdf:RDF>
  <cc:Work rdf:about="">
    <dc:format>image/svg+xml</dc:format>
    <dc:type rdf:resource="http://purl.org/dc/dcmitype/StillImage" />
  </cc:Work>
</rdf:RDF>
</metadata>
  <path style="fill:#dcdcdc;stroke:none;fill-opacity:1" inkscape:connector-curvature="0" id="path8" d="m 394,138.6 c -1.9,0.2 -7.8,0.9 -13,1.5 -5.2,0.6 -15.4,2.6 -22.6,4.4 -110,28.1 -172.8,142.7 -137.4,250.8 4.9,14.7 13.7,33 22,45.6 l 6.3,9.4 4.9,-9.9 c 19.4,-38.8 52.2,-68.4 92.3,-83.4 10.6,-4 26.4,-8.2 35.6,-9.5 4,-0.5 5,-1.2 8.5,-5.7 5.5,-7.3 21.5,-23.1 30.9,-30.7 30,-24.2 70.2,-41 107.7,-45 13,-1.5 40.1,-1.3 51.8,0.3 5.2,0.7 9.7,1.2 9.8,1 0.6,-0.4 -7.8,-19.5 -11.6,-26.4 -9.9,-17.9 -22.5,-34.3 -37.5,-48.6 -35.1,-33.5 -80.4,-52.3 -129.4,-53.8 -8.2,-0.2 -16.4,-0.2 -18.3,0 z" />
  <path style="fill:#dcdcdc;stroke:none;fill-opacity:1" inkscape:connector-curvature="0" id="path10" d="M 538.5,304 C 488,308.1 440.8,336.2 413,378.8 l -5.1,7.9 -12.2,0.6 c -33.3,1.5 -62.6,14.9 -85,38.7 -17,18 -28.1,40 -32.2,63.8 -1.9,11 -1.9,31.6 0,42.8 7.8,44.2 40,81.6 82.6,95.8 18.2,6.1 24.8,6.7 73.8,6.4 l 43.4,-0.3 13.3,-25.5 13.2,-25.5 -57.6,-0.6 c -64.8,-0.6 -62.4,-0.3 -78.7,-8.3 -36.6,-18 -50.3,-64.4 -29.5,-99.7 9.9,-16.8 27,-29.3 45.8,-33.5 11.3,-2.5 29.3,-1.6 39.2,2.1 14.5,5.2 23.9,12.6 37.7,29.2 5.4,6.5 11.8,9.6 19.9,9.6 18,0.1 30.8,-17.5 24.9,-34.3 -4.2,-11.9 -25.8,-34.2 -42.2,-43.6 -1.8,-1 -3.3,-2.1 -3.3,-2.4 0,-1.3 11.1,-13.6 16.6,-18.3 11.6,-9.9 23.9,-16.9 38.4,-21.7 57,-19.1 119.2,10 141.6,66.3 1.4,3.7 2.5,7 2.3,7.2 -0.2,0.2 -3.9,2.6 -8.1,5.4 -12.2,7.9 -16.6,15.7 -15.5,27.4 1.4,15.3 16.3,26.1 31.2,22.8 3,-0.7 7.8,-2.8 10.7,-4.8 15.9,-11 31.8,-13.6 49.4,-8.2 16.3,5 31.5,21.3 35.3,37.9 1.5,6.3 1.3,20.6 -0.3,26.5 -4.6,17.2 -17.5,31 -35,37.4 l -7.1,2.6 -48.4,0.5 -48.3,0.5 -12.9,25 c -7.1,13.7 -12.9,25.4 -12.9,25.8 0,0.4 29.1,0.6 64.8,0.5 l 64.7,-0.4 9.7,-2.6 c 20,-5.5 34.1,-13.9 49.3,-29.2 14.4,-14.7 22.2,-28.6 27.6,-49.2 2,-7.6 2.3,-11.3 2.3,-24.9 0,-14 -0.4,-17.2 -2.7,-25.7 -10.9,-40.6 -43.9,-71.2 -84.6,-78.3 -4.6,-0.8 -10.5,-1.5 -13.1,-1.5 l -4.7,0 -3.3,-9.3 C 694.3,374.3 664.2,340.3 625.9,320.9 600.3,308 567.7,301.7 538.5,304 z" />
  <path style="fill:#fedc00;stroke:none;fill-opacity:1" inkscape:connector-curvature="0" id="path12" d="m 548.6,553.2 c -4.1,7.3 -104.5,194.4 -105.2,196.2 -0.6,1.5 2.7,1.6 39,1.6 21.8,0 39.6,0.4 39.6,0.8 0,0.5 -18.7,35.9 -41.6,78.8 -44,82.4 -48.2,90.5 -46.6,88.9 0.6,-0.6 40.7,-48.3 89.1,-106 l 88,-105 -41.9,-0.3 c -23.1,-0.1 -42,-0.6 -42,-1 0,-0.4 19.3,-35.8 42.9,-78.7 23.5,-42.9 42.6,-78.3 42.4,-78.8 -0.2,-0.4 -14.1,-0.7 -30.8,-0.7 l -30.4,0 -2.5,4.2 z" />
  <path style="fill:#80d3ff;stroke:none;fill-opacity:1" inkscape:connector-curvature="0" id="path14" d="m 381.5,712.6 c -36.4,19.2 -53.6,30.2 -65.8,42.2 -12.4,12.2 -17,22.4 -17,37.7 0,43.4 51.3,66.5 84.1,37.9 14.5,-12.7 19.9,-30.8 20.9,-70.9 0.6,-22.3 -0.4,-57.5 -1.6,-57.5 -0.3,0 -9.6,4.8 -20.6,10.6 z m -6.5,64.1 c -2,21.8 -5.4,30.2 -14.3,35.3 -15.5,8.9 -34,-1.8 -34,-19.5 0,-12.5 8.2,-21.1 36.5,-38 l 12.3,-7.4 0.3,8.7 c 0.2,4.8 -0.2,14.2 -0.8,20.9 z" />
  <path style="fill:#80d3ff;stroke:none;fill-opacity:1" inkscape:connector-curvature="0" id="path16" d="m 709.5,711.6 c -39.3,20.8 -54.8,30.7 -67.6,43.4 -9,8.9 -12.5,14.4 -15.4,24.4 -7.6,26.1 9.2,55.1 36,62.1 13,3.3 29.2,0.8 40.5,-6.5 20.3,-13 27,-35.2 27,-89.1 0,-23.6 -0.9,-43.9 -1.9,-43.8 -0.3,0 -8.7,4.3 -18.6,9.5 z m -8.5,65.9 c -1.9,21.1 -5.5,29.8 -14.5,34.7 -11.4,6.3 -25.8,1.9 -31.7,-9.5 -3.1,-6.1 -2.8,-15.2 0.5,-21 4.6,-7.8 17.1,-17.6 37.7,-29.4 l 8.5,-4.9 0.3,9 c 0.2,5 -0.1,14.5 -0.8,21.1 z" />
  <path style="fill:#80d3ff;stroke:none;fill-opacity:1" inkscape:connector-curvature="0" id="path18" d="m 276.5,852.6 c -29.9,16.1 -44.3,27.1 -49.5,37.9 -2,4.1 -2.4,6.6 -2.5,14 0,7.7 0.4,9.8 2.6,14.6 3.4,7.2 9.6,13.4 16.8,16.8 4.8,2.2 6.9,2.6 14.6,2.6 10.8,0 15.9,-2 23.3,-8.9 10.5,-9.9 13.2,-21.9 13.2,-59.7 0,-20.1 -0.3,-25.9 -1.2,-25.9 -0.7,0 -8.5,3.9 -17.3,8.6 z m -0.9,49 c -1.7,9.9 -4.4,14.7 -9.7,17.4 -10.6,5.5 -22.5,-1 -23.7,-12.9 -0.9,-9.3 4.5,-15.2 25.5,-27.9 l 8.8,-5.3 0.3,10.1 c 0.1,5.8 -0.4,13.8 -1.2,18.6 z" />
  <path style="fill:#80d3ff;stroke:none;fill-opacity:1" inkscape:connector-curvature="0" id="path20" d="m 602.5,852.6 c -30.6,16.4 -43.3,26.1 -48.7,37.2 -2.9,5.9 -3.3,7.6 -3.3,15.2 0,7.1 0.4,9.4 2.6,14.1 3.4,7.2 9.6,13.4 16.8,16.8 7.5,3.5 21.1,3.7 28.3,0.4 5.3,-2.4 12.8,-9 15.7,-13.7 3.4,-5.4 6.1,-17.5 7.1,-31.5 1.1,-16.1 0.2,-47.1 -1.4,-47.1 -0.6,0.1 -8.3,3.9 -17.1,8.6 z m -0.5,47.8 c -1.4,9.1 -4,14.7 -8,17.6 -3.9,2.8 -11.7,3.8 -16,2 -4.2,-1.7 -8.8,-7.3 -9.6,-11.5 -1.9,-10.6 4.9,-18.5 27.4,-31.5 l 6.7,-3.9 0.3,10.2 c 0.1,5.6 -0.2,13.3 -0.8,17.1 z" />
  <path inkscape:connector-curvature="0" style="fill:#7b7b7b;fill-opacity:1;stroke:none" d="m 398.522,158.09951 -20.85541,5.07607 c -48.33932,5.76119 -99.89477,47.84816 -122.59043,93.44973 -27.88469,56.02783 -24.73532,116.99 6.97299,166.69892 16.39071,-23.01044 38.10282,-41.9322 63.50402,-55.41922 -3.07752,-28.82515 -2.11821,-66.46304 3.07144,-88.98224 6.93207,-30.07987 27.08957,-69.09544 47.59338,-92.07117 z" id="path8-0-7" sodipodi:nodetypes="ccsccscc" />
</svg>
