<?xml version="1.0" encoding="UTF-8" standalone="no"?>
<svg xmlns:dc="http://purl.org/dc/elements/1.1/" xmlns:cc="http://creativecommons.org/ns#" xmlns:rdf="http://www.w3.org/1999/02/22-rdf-syntax-ns#" xmlns:svg="http://www.w3.org/2000/svg" xmlns="http://www.w3.org/2000/svg" xmlns:sodipodi="http://sodipodi.sourceforge.net/DTD/sodipodi-0.dtd" xmlns:inkscape="http://www.inkscape.org/namespaces/inkscape" version="1.0" width="1024.000000pt" height="1024.000000pt" viewBox="0 0 1024.000000 1024.000000" preserveAspectRatio="xMidYMid meet" id="svg2" inkscape:version="0.48.5 r10040" sodipodi:docname="9293999.svg">
  <defs id="defs20" />
  <sodipodi:namedview pagecolor="#ffffff" bordercolor="#666666" borderopacity="1" objecttolerance="10" gridtolerance="10" guidetolerance="10" inkscape:pageopacity="0" inkscape:pageshadow="2" inkscape:window-width="836" inkscape:window-height="646" id="namedview18" showgrid="false" inkscape:zoom="0.184375" inkscape:cx="640" inkscape:cy="640" inkscape:window-x="1511" inkscape:window-y="114" inkscape:window-maximized="0" inkscape:current-layer="svg2" />
  <metadata id="metadata4">
Created by potrace 1.11, written by Peter Selinger 2001-2013
<rdf:RDF>
  <cc:Work rdf:about="">
    <dc:format>image/svg+xml</dc:format>
    <dc:type rdf:resource="http://purl.org/dc/dcmitype/StillImage" />
  </cc:Work>
</rdf:RDF>
</metadata>
  <path style="fill:#a0a0a0;stroke:none;fill-opacity:1" inkscape:connector-curvature="0" id="path8" d="m 504.6,223.1 c -56.2,5 -108.4,36.1 -140.2,83.5 l -7.4,11.1 -13.3,0.6 c -36.2,1.5 -67.4,14.7 -92.9,39.5 -22,21.3 -35,44.9 -41.5,75.2 -2.5,12 -2.5,42 0,54 6.5,30.5 19.6,54.1 41.9,75.5 19.8,19 41.7,30.7 68.8,36.7 l 10.5,2.3 196,0 196,0 9.5,-2.6 c 26.4,-7.4 46.4,-19.2 61.9,-36.7 20.9,-23.7 31.4,-51 31.4,-81.7 0,-14.6 -1.7,-25.5 -6.2,-38.5 C 806.9,405.8 778.7,377.5 743,365.6 732.2,362 716.9,359 709,359 l -4.5,0 -3.4,-9.9 c -4.4,-13.2 -13.2,-30.5 -21.9,-43.2 -32.5,-47.7 -84,-77.8 -141.7,-82.8 -13.5,-1.2 -18.7,-1.2 -32.9,0 z m 40.3,61.5 c 24.1,4.3 47.3,15.9 65.8,32.9 8.9,8.1 20.4,23.2 26.1,34.2 4,7.7 9.6,21.3 9,21.7 -13.7,8.9 -18.4,12.5 -21.3,16.3 -14.4,18.9 -2.4,45.9 21.5,48 6.9,0.7 13.9,-1.4 20.8,-6.2 11.6,-7.9 20.8,-11.3 33.3,-12.2 28.7,-2 56,17.7 63.4,45.7 0.8,3.1 1.5,9.9 1.5,15.5 0,11.8 -1.5,18.2 -6.7,28.5 -7.8,15.6 -26,29.1 -42.9,31.9 -5.1,0.9 -57.1,1.1 -193.9,0.9 l -187,-0.3 -7.3,-2.3 C 299.6,530.7 280.1,512 270.8,485 c -3.1,-9.1 -3.3,-10.1 -3.3,-25 0,-14.9 0.2,-15.9 3.3,-25 5.6,-16.3 14.2,-28.8 26.6,-38.6 36.8,-29.3 89,-22.6 117.4,15.1 5.7,7.6 8.5,10.1 14.7,13.1 6,2.9 15.7,3.2 22.8,0.8 9.7,-3.3 17.9,-13.9 19.3,-25 0.8,-6.9 -1.4,-14.3 -6.8,-22.4 -6.5,-9.9 -25.7,-28.6 -36.3,-35.5 -4.9,-3.2 -9.4,-6.2 -9.9,-6.6 -1.3,-1.1 6.5,-10.8 14.8,-18.5 7.6,-7.1 21.6,-16.9 30.5,-21.4 24.1,-12 53.6,-16.2 81,-11.4 z" />
  <path style="fill:#dcdcdc;stroke:none;fill-opacity:1" inkscape:connector-curvature="0" id="path10" d="m 418.9,644.6 c -5,3.2 -5.4,4.7 -5.9,24.6 l -0.5,18.7 -14.5,-9 c -8,-4.9 -15.5,-9.2 -16.8,-9.6 -3.9,-0.9 -8.7,0.6 -11.8,3.8 -2.5,2.6 -2.9,3.8 -2.9,8.4 0,3.9 0.5,5.9 2,7.5 1.1,1.2 8.8,6.4 17.2,11.7 8.4,5.2 15.3,9.6 15.3,9.7 0,0.2 -7.2,4.7 -15.9,10.1 -17.9,11 -19.8,13.1 -18.8,20.5 0.7,5.1 3.7,8.6 8.8,10.1 5,1.5 6.6,0.9 23.4,-9.5 l 14,-8.7 0.5,19 0.5,19.1 3.3,3.2 c 2.9,2.9 3.9,3.3 8.7,3.3 4.8,0 5.8,-0.4 8.7,-3.3 l 3.3,-3.2 0.5,-18.9 0.5,-19 14.5,9.1 c 16.2,10.2 20.1,11.4 25.8,7.9 6.2,-4 7.9,-12.6 3.4,-18.1 -0.9,-1.2 -8.5,-6.3 -16.7,-11.4 -8.3,-5.1 -14.9,-9.7 -14.8,-10.2 0.2,-0.5 6.7,-4.8 14.5,-9.6 17.1,-10.5 18.9,-12.1 19.5,-17.9 0.8,-8.1 -6.3,-15 -13.8,-13.5 -1.9,0.3 -9.9,4.6 -17.9,9.5 l -14.5,9 -0.5,-18.9 -0.5,-19 -3.2,-3.1 c -3.9,-3.9 -11.2,-5 -15.4,-2.3 z" />
  <path style="fill:#dcdcdc;stroke:none;fill-opacity:1" inkscape:connector-curvature="0" id="path12" d="m 623.5,644 c -1.1,0.4 -3.1,2 -4.5,3.5 -2.4,2.6 -2.5,3.1 -3,21.5 l -0.5,18.9 -14.5,-9.1 c -15.2,-9.6 -20,-11.2 -25,-8.6 -3.4,1.9 -7,7.5 -7,11.2 0,5.8 3.1,8.8 18.1,18.1 7.9,4.9 15,9.4 15.7,10 1.1,1 -1.5,3 -13.5,10.4 -8.2,5 -15.9,10.2 -17.2,11.5 -3.3,3.5 -3.8,10.1 -1.1,14.4 2.5,4 8.1,6.6 12.4,5.8 1.7,-0.4 9.6,-4.7 17.6,-9.6 l 14.5,-8.9 0.5,18.9 0.5,19 3.3,3.2 c 2.9,2.9 3.9,3.3 8.7,3.3 4.8,0 5.8,-0.4 8.7,-3.3 l 3.3,-3.2 0.5,-19 0.5,-18.9 14.5,9 c 8,4.9 15.5,9.2 16.8,9.6 6.9,1.7 14.1,-3.5 14.9,-10.9 0.7,-6.9 -1.6,-9.4 -19.1,-20.3 -8.6,-5.3 -15.6,-9.8 -15.6,-10 0,-0.2 6.7,-4.4 15,-9.5 16.7,-10.2 20,-13.3 20,-18.8 0,-4.9 -1.8,-8.1 -6,-11 -5.5,-3.7 -8.9,-2.7 -25.7,7.7 L 641.5,688 641,669.3 c -0.3,-10.4 -0.9,-19.6 -1.4,-20.5 -2.1,-4.5 -10.8,-7.1 -16.1,-4.8 z" />
  <path style="fill:#dcdcdc;stroke:none;fill-opacity:1" inkscape:connector-curvature="0" id="path14" d="m 523.9,753.9 c -2.2,1.8 -2.4,2.8 -2.9,14 l -0.5,12 -9,-5.6 c -10.2,-6.4 -14.5,-7.3 -17.6,-3.4 -2.1,2.5 -2.4,6.2 -0.9,9.1 0.5,1 5.3,4.4 10.5,7.7 5.2,3.2 9.5,6 9.5,6.3 0,0.3 -3.8,2.7 -8.3,5.4 -4.5,2.7 -9.2,5.8 -10.4,6.9 -2.8,2.5 -3,7.6 -0.4,10.8 3.1,3.8 7.3,3 17.6,-3.4 l 9,-5.6 0.5,11.9 c 0.6,13.5 1.5,15.4 7.5,15.4 6,0 6.9,-1.9 7.5,-15.4 l 0.5,-11.8 9,5.6 c 10.2,6.3 14.5,7.1 17.6,3.3 2.1,-2.5 2.4,-6.2 0.9,-9.1 -0.5,-1 -5.3,-4.4 -10.5,-7.7 -5.2,-3.2 -9.5,-6 -9.5,-6.3 0,-0.3 3.8,-2.7 8.3,-5.4 4.5,-2.7 9.2,-5.8 10.5,-6.9 2.7,-2.5 2.9,-7.6 0.3,-10.8 -3.1,-3.8 -7.3,-3 -17.6,3.4 l -9,5.6 -0.5,-12 c -0.5,-11.2 -0.7,-12.2 -2.9,-14 -1.3,-1 -3.3,-1.9 -4.6,-1.9 -1.3,0 -3.3,0.9 -4.6,1.9 z" />
  <path style="fill:#dcdcdc;stroke:none;fill-opacity:1" inkscape:connector-curvature="0" id="path16" d="m 436,807 c -1.8,1.8 -2,3.3 -2,13.5 0,6.3 -0.2,11.5 -0.5,11.5 -0.3,0 -4.5,-2.5 -9.4,-5.5 -9.9,-6.1 -13.5,-6.8 -16.9,-3.2 -2.4,2.6 -2.9,7.5 -0.9,9.8 0.6,0.9 5.4,4.2 10.5,7.3 5,3.2 9.2,5.9 9.2,6.1 0,0.1 -4.3,2.9 -9.6,6.1 -10.1,6.1 -11.4,7.5 -11.4,12.3 0,3.3 3.9,7.1 7.3,7.1 1.2,0 6.3,-2.5 11.3,-5.5 5.1,-3 9.5,-5.5 9.8,-5.5 0.3,0 0.6,5.1 0.6,11.3 0,10.6 0.2,11.5 2.3,13.5 3.3,3.1 8,2.9 10.6,-0.4 1.8,-2.3 2.1,-4.1 2.1,-13.5 0,-6 0.2,-10.9 0.5,-10.9 0.3,0 4.5,2.5 9.4,5.5 4.9,3 10.1,5.5 11.5,5.5 3.6,0 7.6,-4.1 7.6,-7.8 0,-3.5 -2,-5.4 -12.7,-12.2 -4.6,-2.9 -8.3,-5.4 -8.3,-5.5 0,-0.2 4.2,-2.9 9.3,-6 5,-3.2 9.8,-6.4 10.5,-7.3 2,-2.6 1.5,-7.6 -1.1,-10 -3.6,-3.4 -7,-2.7 -16.8,3.3 -4.9,3 -9.1,5.5 -9.4,5.5 -0.3,0 -0.5,-5.1 -0.5,-11.3 0,-10.6 -0.2,-11.5 -2.3,-13.5 -3,-2.8 -8,-2.9 -10.7,-0.2 z" />
</svg>
