<?xml version="1.0" encoding="UTF-8" standalone="no"?>
<svg xmlns:dc="http://purl.org/dc/elements/1.1/" xmlns:cc="http://creativecommons.org/ns#" xmlns:rdf="http://www.w3.org/1999/02/22-rdf-syntax-ns#" xmlns:svg="http://www.w3.org/2000/svg" xmlns="http://www.w3.org/2000/svg" xmlns:sodipodi="http://sodipodi.sourceforge.net/DTD/sodipodi-0.dtd" xmlns:inkscape="http://www.inkscape.org/namespaces/inkscape" version="1.0" width="1024.000000pt" height="1024.000000pt" viewBox="0 0 1024.000000 1024.000000" preserveAspectRatio="xMidYMid meet" id="svg2" inkscape:version="0.48.5 r10040" sodipodi:docname="9999971.svg">
  <defs id="defs18" />
  <sodipodi:namedview pagecolor="#ffffff" bordercolor="#666666" borderopacity="1" objecttolerance="10" gridtolerance="10" guidetolerance="10" inkscape:pageopacity="0" inkscape:pageshadow="2" inkscape:window-width="978" inkscape:window-height="775" id="namedview16" showgrid="false" inkscape:zoom="4.17193" inkscape:cx="948.95763" inkscape:cy="953.4297" inkscape:window-x="1313" inkscape:window-y="368" inkscape:window-maximized="0" inkscape:current-layer="svg2" />
  <metadata id="metadata4">
Created by potrace 1.11, written by Peter Selinger 2001-2013
<rdf:RDF>
  <cc:Work rdf:about="">
    <dc:format>image/svg+xml</dc:format>
    <dc:type rdf:resource="http://purl.org/dc/dcmitype/StillImage" />
  </cc:Work>
</rdf:RDF>
</metadata>
  <path inkscape:connector-curvature="0" style="fill:#ba381a;fill-opacity:1;stroke:none" id="path8" d="m 759.5,130.8 c -2.2,1.4 -19.9,28.5 -64.4,98.8 -33.8,53.3 -62.1,98.6 -62.8,100.8 -1.9,5.4 0.6,10.6 6.1,12.4 3,1 30.3,1.2 129.7,1 125.4,-0.3 125.8,-0.3 128.5,-2.4 3.3,-2.4 4.6,-6.3 3.4,-10.3 -1.2,-4.2 -123.7,-195 -127.6,-198.9 -3.9,-3.7 -8.2,-4.2 -12.9,-1.4 z m 9.3,76.4 c 0.8,0.8 1.2,4.8 1.2,11.2 l 0,10 6.4,-6.3 c 5.6,-5.5 6.7,-6.2 8,-5.1 0.9,0.7 1.6,1.7 1.6,2.4 0,0.6 -3.6,4.7 -8,9.1 l -8.1,8.1 0.3,10.6 0.3,10.7 8.5,-4.8 8.5,-4.8 1.7,-5.9 c 0.9,-3.3 2.4,-8.5 3.3,-11.7 1.4,-4.9 2,-5.7 4.1,-5.7 3,0 3.1,2.1 0.4,11 -1.1,3.6 -2,6.6 -2,6.7 0,1 3.2,-0.3 10.2,-4.3 7.2,-4.1 8.2,-4.4 9.6,-3.1 2.4,2.5 0.9,4.2 -7.7,8.8 -4.5,2.3 -8.1,4.6 -8.1,5 0,0.4 2.6,1.5 5.8,2.4 3.1,0.8 6.7,2 8,2.5 2.2,1 3,4.4 1.2,5.5 -0.5,0.3 -5.6,-0.8 -11.4,-2.5 -5.7,-1.6 -11.1,-3 -12,-3 -1.8,0 -17.6,8.2 -17.6,9.1 0,0.4 3.9,2.7 8.8,5.2 l 8.7,4.5 11.5,-3.5 c 10.7,-3.3 11.5,-3.4 12.7,-1.7 1.9,2.6 0,4.1 -8.3,6.6 -4.1,1.1 -7.4,2.4 -7.4,2.7 0,0.4 3.7,2.7 8.2,5.1 5.1,2.8 8.4,5.2 8.6,6.4 0.8,3.8 -2.2,3.6 -10.7,-0.9 -4.6,-2.5 -8.7,-4.5 -9.1,-4.5 -0.5,0 0.3,3.7 1.7,8.1 2.2,7.4 2.3,8.3 0.9,9.7 -1.4,1.4 -1.8,1.4 -3,0.2 -1.1,-1.1 -7.6,-20.5 -7.6,-22.5 0,-0.4 -16.7,-9.5 -17.4,-9.5 -0.3,0 -0.6,4.6 -0.6,10.2 l 0,10.2 8.1,8.2 c 8.1,8.3 9.5,11.5 5.5,12.2 -1.2,0.3 -3.9,-1.6 -7.7,-5.4 l -5.9,-5.8 0,9.4 c 0,10.5 -0.9,13.2 -3.7,11.4 -1.5,-0.9 -1.9,-2.9 -2.3,-10.7 l -0.5,-9.7 -6.2,5.5 c -6.2,5.6 -10.3,7.1 -10.3,3.7 0,-0.9 3.8,-5.5 8.5,-10.2 l 8.5,-8.5 0,-10.2 c 0,-5.7 -0.2,-10.3 -0.6,-10.3 -0.3,0 -4.5,2.1 -9.4,4.7 l -8.8,4.8 -3.4,10.9 c -3.6,11.5 -5.6,14.2 -8.3,11.6 -1.3,-1.4 -1.2,-2.4 1,-9.5 1.3,-4.4 2.3,-8.1 2.1,-8.3 -0.2,-0.2 -4.1,1.8 -8.7,4.3 -8.8,4.8 -11.2,5.3 -11.7,2 -0.2,-1.7 1.4,-3 8.3,-6.8 4.7,-2.6 8.5,-5 8.5,-5.2 0,-0.3 -3.3,-1.4 -7.2,-2.6 -8.6,-2.5 -10.7,-4.1 -8.8,-6.3 1.7,-2.1 2.4,-2.1 14.5,1.5 l 10.4,3.1 8.7,-4.8 c 10,-5.4 10.1,-4.9 -2,-11.1 l -7,-3.5 -10.5,3.1 c -12.2,3.6 -13.7,3.7 -14.5,1.4 -1,-2.5 1.1,-3.9 9.3,-6.3 4,-1.2 7,-2.5 6.5,-3 -0.5,-0.5 -4.4,-2.7 -8.6,-5 -5.6,-3 -7.8,-4.7 -7.8,-6.1 0,-3.5 2.8,-3.2 11.5,1.4 5.5,3 8.5,4.1 8.5,3.2 0,-0.7 -0.9,-4.3 -2.1,-8 -2.2,-7.3 -2,-9.5 0.9,-9.5 2.8,0 3.5,1.3 7.2,13.1 l 3.2,10.6 9.4,4.6 9.4,4.7 0,-10.8 0,-10.8 -8.5,-7.8 c -8.3,-7.6 -10.1,-10.8 -6.9,-12 1.2,-0.4 3.9,1.3 8.5,5.5 l 6.9,6.1 0,-9.2 c 0,-11.2 1.6,-15 4.8,-11.8 z" />
  <path inkscape:connector-curvature="0" style="fill:#cccccc;stroke:none;fill-opacity:1" id="path10" d="m 265.5,424.4 c -3.9,1.7 -8,6.5 -9.5,11.2 -2.7,8 1.7,18 9.3,21.5 4.1,1.8 10.6,1.9 246.2,1.9 235.6,0 242.1,-0.1 246.2,-1.9 7.6,-3.5 12,-13.5 9.3,-21.5 -1.6,-4.8 -5.6,-9.6 -9.7,-11.2 -4.8,-2 -487.2,-2 -491.8,0 z" />
  <path inkscape:connector-curvature="0" style="fill:#cccccc;stroke:none;fill-opacity:1" id="path12" d="m 267.2,499.2 c -1.8,0.6 -5,3 -7.1,5.3 -4.5,4.9 -6.1,11.3 -4.3,17.4 1.4,4.4 7.4,10.4 12.1,12 4.9,1.6 482.3,1.6 487.2,0 4.7,-1.6 10.7,-7.6 12.1,-12 0.6,-2.2 0.8,-5.7 0.4,-8.4 -0.9,-5.9 -6.7,-12.6 -12.4,-14.3 -5.3,-1.6 -483.1,-1.5 -488,0 z" />
  <path inkscape:connector-curvature="0" style="fill:#cccccc;stroke:none;fill-opacity:1" id="path14" d="m 265.3,575.9 c -10.5,4.8 -13.3,19 -5.5,28.3 5.3,6.2 -13.2,5.8 251.7,5.8 264.9,0 246.4,0.4 251.7,-5.8 7.8,-9.3 5,-23.5 -5.5,-28.3 -4.1,-1.8 -10.6,-1.9 -246.2,-1.9 -235.6,0 -242.1,0.1 -246.2,1.9 z" />
  <path style="fill:#ffffff;fill-opacity:1;stroke:none" d="m 958.08958,399.17729 c -2.13413,-1.43747 -2.47098,-3.49041 -3.35137,-20.42491 -0.14393,-2.7685 -0.29031,-5.06274 -0.3253,-5.09831 -0.035,-0.0356 -2.26368,1.88538 -4.95267,4.26877 -2.68899,2.3834 -5.80591,5.03199 -6.9265,5.88576 -4.00013,3.04767 -7.33942,4.22885 -8.25596,2.9203 -0.44232,-0.63149 -0.47888,-1.45579 -0.0967,-2.17962 1.13411,-2.1479 5.66627,-7.23511 13.96755,-15.67817 l 6.88728,-7.00491 -0.10135,-12.29072 c -0.0557,-6.75989 -0.18472,-12.53341 -0.28662,-12.83003 -0.10189,-0.29663 -0.32554,-0.53932 -0.497,-0.53932 -0.47074,0 -10.25661,4.98597 -16.89055,8.60586 l -5.87258,3.20445 -1.29731,4.22205 c -5.89197,19.17522 -8.43813,24.95586 -10.99215,24.95586 -0.93341,0 -2.30701,-1.00823 -2.80589,-2.05954 -0.62454,-1.31611 -0.3936,-2.59716 1.92478,-10.67705 2.0347,-7.09125 2.8254,-10.27258 2.60738,-10.4906 -0.25702,-0.25702 -2.25237,0.68893 -9.57138,4.53756 -8.45048,4.4436 -10.82847,5.49329 -12.87605,5.68371 -1.71936,0.1599 -2.45945,-0.26135 -2.82152,-1.60599 -0.67914,-2.52212 0.40558,-3.49419 10.18454,-9.12694 7.10552,-4.09282 9.71648,-5.67451 10.29313,-6.23546 0.45893,-0.44642 0.44656,-0.46126 -0.8703,-1.04364 -0.73472,-0.32492 -3.8026,-1.36848 -6.81752,-2.31901 -8.38598,-2.6439 -10.30895,-3.44716 -11.89358,-4.96819 -1.07793,-1.03467 -1.11979,-1.58707 -0.21492,-2.83621 1.36646,-1.88635 2.56395,-2.23264 5.6955,-1.64704 2.04348,0.38214 10.77346,2.83264 20.74711,5.82373 l 4.71488,1.41398 8.45321,-4.65318 c 9.95754,-5.48125 10.94386,-6.10313 11.39601,-7.18529 0.3886,-0.93005 0.254,-1.28023 -0.91509,-2.38078 -1.05255,-0.99083 -2.93751,-2.03693 -11.82477,-6.56243 l -7.43061,-3.78376 -4.79394,1.42686 c -20.66709,6.15133 -24.13838,6.89434 -25.63613,5.48727 -0.73279,-0.68842 -1.19766,-2.33337 -0.88892,-3.14543 0.66559,-1.75062 2.99646,-2.91756 11.23912,-5.62681 5.9761,-1.96426 8.69425,-3.14488 8.69425,-3.7763 0,-0.36565 -2.66978,-1.99573 -9.70773,-5.92722 -9.95402,-5.56045 -11.46727,-6.90749 -10.62335,-9.45652 0.4507,-1.36133 1.26949,-1.71176 3.17554,-1.3591 2.21261,0.40939 4.23828,1.27257 11.11485,4.73626 6.13851,3.09194 8.67287,4.17008 9.80254,4.17008 0.99219,0 0.87188,-0.72119 -1.49939,-8.98865 -2.24207,-7.81699 -2.67261,-10.42673 -1.95741,-11.86501 0.46022,-0.92551 1.89503,-1.52214 3.19259,-1.32756 1.42119,0.21312 2.454,1.14613 3.52338,3.18291 1.02111,1.94482 3.88888,10.39412 6.6568,19.61283 l 2.01972,6.7268 11.59305,5.73745 c 6.37618,3.1556 11.68906,5.77341 11.8064,5.81736 0.12311,0.0461 0.21336,-5.69264 0.21336,-13.56734 l 0,-13.64724 -6.29206,-5.76338 c -9.75877,-8.93882 -13.38645,-12.83488 -14.32437,-15.38412 -0.50897,-1.38337 -0.32042,-2.13802 0.70725,-2.83056 1.00333,-0.67614 1.28189,-0.67362 2.77083,0.0251 2.16129,1.01419 5.22158,3.51019 15.42536,12.58102 l 1.71299,1.5228 0.005,-4.87856 c 0.007,-7.05292 0.39977,-15.35785 0.8335,-17.63386 0.89142,-4.67786 1.9929,-5.90973 4.11273,-4.5996 1.92288,1.18841 2.24138,3.42385 2.41186,16.92769 l 0.13079,10.35915 6.38026,-6.167 c 6.97179,-6.73874 8.14185,-7.76869 9.44343,-8.31252 1.10555,-0.46193 1.71418,-0.24142 2.87254,1.04075 1.33135,1.47365 1.36497,1.96068 0.23837,3.45285 -1.64127,2.17385 -5.46369,6.27925 -12.43086,13.35113 l -6.73619,6.83743 0.3599,13.30319 c 0.19794,7.31676 0.38478,13.33512 0.41519,13.37413 0.0304,0.039 4.86308,-2.6482 10.73928,-5.97158 l 10.68399,-6.04252 0.47819,-1.57888 c 0.263,-0.86838 1.67573,-5.8395 3.13939,-11.04692 3.96077,-14.09164 4.415,-15.31359 5.99687,-16.13271 1.03094,-0.53384 2.6587,-0.42012 3.55395,0.24829 1.59807,1.19312 1.16147,4.06934 -2.46149,16.21581 -0.86047,2.88485 -1.49904,5.35107 -1.41905,5.4805 0.50011,0.8092 3.94292,-0.67508 12.54654,-5.40912 8.1159,-4.46563 8.9466,-4.83362 10.7091,-4.74385 1.2304,0.0627 2.8776,2.29114 2.5775,3.48702 -0.4485,1.78689 -3.3147,3.91468 -10.7688,7.99455 -6.829,3.73774 -10.18711,5.79943 -10.18711,6.25434 0,0.76177 2.54291,1.78917 9.85741,3.98271 7.0928,2.12708 8.2894,2.64365 9.214,3.97785 0.9345,1.34852 1.0997,3.40225 0.3501,4.35214 -0.9412,1.19264 -2.4237,0.93338 -16.3054,-2.85146 -10.16037,-2.77021 -12.38943,-3.2763 -13.77864,-3.12836 -1.43762,0.1531 -5.0736,1.74178 -11.03007,4.81942 -7.3242,3.78433 -10.66652,5.81931 -10.66652,6.49435 0,0.68388 3.89002,2.95601 14.30354,8.35457 3.97786,2.0622 7.40985,3.74945 7.62664,3.74945 0.2168,0 3.9194,-1.07325 8.228,-2.385 13.50125,-4.11045 16.82135,-5.04216 18.53455,-5.20138 2.011,-0.18691 2.6386,0.0826 3.4613,1.48637 0.8262,1.40988 0.7606,2.30728 -0.2419,3.30978 -1.4101,1.41012 -3.809,2.36262 -14.5194,5.76508 -1.9116,0.60727 -3.83785,1.32446 -4.28061,1.59376 -0.779,0.4738 -0.79132,0.5048 -0.38071,0.95852 0.63036,0.69653 3.48472,2.47078 8.85602,5.50479 5.8091,3.28127 9.275,5.59405 10.756,7.17732 1.0111,1.08103 1.109,1.29087 1.109,2.37706 0,1.01377 -0.098,1.26889 -0.6591,1.71148 -0.5401,0.42614 -0.8541,0.49389 -1.7378,0.37493 -2.1458,-0.28888 -5.0261,-1.47359 -11.0261,-4.53518 -8.40857,-4.29063 -10.15783,-5.14731 -10.88081,-5.32877 -0.59268,-0.14875 -0.62444,-0.10944 -0.62049,0.76807 0.006,1.38442 0.49196,3.43402 2.35468,9.93574 2.01836,7.04497 2.35205,8.72426 1.966,9.89401 -0.31136,0.94341 -2.17934,2.78831 -2.82138,2.78651 -0.72066,-0.002 -1.69562,-1.01078 -2.43132,-2.51563 -1.82126,-3.72527 -8.66003,-24.44361 -8.66003,-26.23591 0,-0.5103 -1.40327,-1.39653 -8.10295,-5.1174 -8.33171,-4.62727 -13.62956,-7.28766 -13.927,-6.99363 -0.45654,0.45129 -0.74012,6.63741 -0.74071,16.15788 l -4.8e-4,9.45098 6.17532,6.24919 c 8.59749,8.70035 11.12046,11.59698 12.72739,14.61241 1.09043,2.0462 0.9664,3.13095 -0.44122,3.85886 -1.17018,0.60512 -2.62775,0.46292 -3.9728,-0.38759 -1.90246,-1.20297 -3.26056,-2.3985 -9.00571,-7.92772 l -5.42324,-5.21941 -0.13216,10.00451 c -0.0727,5.50248 -0.24248,10.76672 -0.37732,11.69831 -0.28748,1.98625 -0.88592,3.88683 -1.41013,4.47841 -0.51144,0.57716 -1.5076,0.52528 -2.47915,-0.12913 l -1.1e-4,0 z" id="path2985" inkscape:connector-curvature="0" transform="scale(0.8,0.8)" />
</svg>
