<?xml version="1.0" encoding="UTF-8" standalone="no"?>
<svg xmlns:dc="http://purl.org/dc/elements/1.1/" xmlns:cc="http://creativecommons.org/ns#" xmlns:rdf="http://www.w3.org/1999/02/22-rdf-syntax-ns#" xmlns:svg="http://www.w3.org/2000/svg" xmlns="http://www.w3.org/2000/svg" xmlns:sodipodi="http://sodipodi.sourceforge.net/DTD/sodipodi-0.dtd" xmlns:inkscape="http://www.inkscape.org/namespaces/inkscape" version="1.0" width="1024.000000pt" height="1024.000000pt" viewBox="0 0 1024.000000 1024.000000" preserveAspectRatio="xMidYMid meet" id="svg2" inkscape:version="0.48.5 r10040" sodipodi:docname="9399929.svg">
  <defs id="defs22" />
  <sodipodi:namedview pagecolor="#ffffff" bordercolor="#666666" borderopacity="1" objecttolerance="10" gridtolerance="10" guidetolerance="10" inkscape:pageopacity="0" inkscape:pageshadow="2" inkscape:window-width="1185" inkscape:window-height="676" id="namedview20" showgrid="false" inkscape:zoom="0.184375" inkscape:cx="-561.35593" inkscape:cy="640" inkscape:window-x="1277" inkscape:window-y="108" inkscape:window-maximized="0" inkscape:current-layer="svg2" />
  <metadata id="metadata4">
Created by potrace 1.11, written by Peter Selinger 2001-2013
<rdf:RDF>
  <cc:Work rdf:about="">
    <dc:format>image/svg+xml</dc:format>
    <dc:type rdf:resource="http://purl.org/dc/dcmitype/StillImage" />
  </cc:Work>
</rdf:RDF>
</metadata>
  <path style="fill:#dcdcdc;stroke:none;fill-opacity:1" inkscape:connector-curvature="0" id="path8" d="m 502.8,224.1 c -56.1,5.4 -107.8,36.4 -139.4,83.5 l -7.4,11.1 -14.3,0.6 c -29.2,1.2 -55.8,10.7 -79.3,28.3 -9.3,7 -25.7,24.1 -31.7,33.2 -10.7,16 -18.2,33.6 -22.2,52.2 -2.4,11.3 -3,36.3 -1.1,48.5 4.8,31.3 17.9,57.1 40.5,79.6 20.9,20.7 42.4,32.5 71.6,39.2 8.3,1.9 13,2.1 61.6,2.4 l 52.6,0.4 15.5,-29.8 15.4,-29.8 -65.5,-0.5 c -64.5,-0.6 -65.7,-0.6 -73.1,-2.9 -22.6,-6.8 -40.8,-22 -51,-42.6 -6.1,-12.2 -7.9,-19 -8.7,-31.7 -2.2,-35.8 18.3,-67.7 52.2,-81.3 19.9,-7.9 45.9,-6.9 64.8,2.7 12.9,6.5 19.1,11.8 35.1,30.3 6.3,7.2 11.1,9.7 20.2,10.3 12.9,0.8 23.4,-5.1 28.9,-16.1 5.3,-10.9 4.1,-21 -3.7,-32.8 -6.3,-9.6 -25.7,-28.4 -36.8,-35.8 -5.2,-3.5 -9.7,-6.5 -9.9,-6.7 -1.4,-1.3 13.4,-17.1 23.4,-24.9 27.4,-21.2 58.5,-30.5 91.9,-27.4 45.1,4 84.1,30.4 104.3,70.4 4.1,8 8.7,19.6 8.1,20 -8.1,4.8 -18.4,12.5 -20.7,15.4 -13.3,16.7 -6.1,40.6 14.2,47.5 9.5,3.2 17.3,1.6 29.4,-6.1 14.4,-9.1 25.1,-12 39.9,-11 20.9,1.5 40,14 49.8,32.6 4.9,9.3 6.7,16.9 6.7,28.1 0.1,11.6 -1.1,17 -6.3,27.9 -6.9,14.5 -20.6,26 -37.8,31.7 -5,1.7 -11.3,1.9 -73.4,2.4 l -67.8,0.5 -14.9,29 c -8.2,15.9 -14.9,29.3 -14.9,29.7 0,0.5 36.8,0.8 81.8,0.8 90.8,0 91.6,-0.1 111.2,-6.6 42,-14 73.3,-50.8 81.1,-95.4 1.8,-10.4 1.6,-30.6 -0.5,-41.2 -8,-41.4 -35.1,-74.9 -73.4,-90.7 -10.3,-4.3 -26.3,-8.1 -36.8,-8.8 l -9.1,-0.6 -2.3,-7.1 c -10,-31.3 -31.1,-62.3 -57.3,-84.3 -39.3,-33 -90.6,-49 -140.9,-44.2 z" />
  <path style="fill:#fedc00;stroke:none;fill-opacity:1" inkscape:connector-curvature="0" id="path10" d="m 508.6,513.2 c -4.1,7.3 -104.5,194.4 -105.2,196.2 -0.6,1.5 2.7,1.6 39,1.6 21.8,0 39.6,0.4 39.6,0.8 0,0.5 -18.7,35.9 -41.6,78.8 -44,82.4 -48.2,90.5 -46.6,88.9 0.6,-0.6 40.7,-48.3 89.1,-106 l 88,-105 -41.9,-0.3 c -23.1,-0.1 -42,-0.6 -42,-1 0,-0.4 19.3,-35.8 42.9,-78.7 23.5,-42.9 42.6,-78.3 42.4,-78.8 -0.2,-0.4 -14.1,-0.7 -30.8,-0.7 l -30.4,0 -2.5,4.2 z" />
  <path style="fill:#80d3ff;stroke:none;fill-opacity:1" inkscape:connector-curvature="0" id="path12" d="m 341.5,672.6 c -36.4,19.2 -53.6,30.2 -65.8,42.2 -12.4,12.2 -17,22.4 -17,37.7 0,43.4 51.3,66.5 84.1,37.9 14.5,-12.7 19.9,-30.8 20.9,-70.9 0.6,-22.3 -0.4,-57.5 -1.6,-57.5 -0.3,0 -9.6,4.8 -20.6,10.6 z m -6.5,64.1 c -2,21.8 -5.4,30.2 -14.3,35.3 -15.5,8.9 -34,-1.8 -34,-19.5 0,-12.5 8.2,-21.1 36.5,-38 l 12.3,-7.4 0.3,8.7 c 0.2,4.8 -0.2,14.2 -0.8,20.9 z" />
  <path style="fill:#80d3ff;stroke:none;fill-opacity:1" inkscape:connector-curvature="0" id="path14" d="m 669.5,671.6 c -39.3,20.8 -54.8,30.7 -67.6,43.4 -9,8.9 -12.5,14.4 -15.4,24.4 -7.6,26.1 9.2,55.1 36,62.1 13,3.3 29.2,0.8 40.5,-6.5 20.3,-13 27,-35.2 27,-89.1 0,-23.6 -0.9,-43.9 -1.9,-43.8 -0.3,0 -8.7,4.3 -18.6,9.5 z m -8.5,65.9 c -1.9,21.1 -5.5,29.8 -14.5,34.7 -11.4,6.3 -25.8,1.9 -31.7,-9.5 -3.1,-6.1 -2.8,-15.2 0.5,-21 4.6,-7.8 17.1,-17.6 37.7,-29.4 l 8.5,-4.9 0.3,9 c 0.2,5 -0.1,14.5 -0.8,21.1 z" />
  <path style="fill:#80d3ff;stroke:none;fill-opacity:1" inkscape:connector-curvature="0" id="path16" d="m 236.5,812.6 c -29.9,16.1 -44.3,27.1 -49.5,37.9 -2,4.1 -2.4,6.6 -2.5,14 0,7.7 0.4,9.8 2.6,14.6 3.4,7.2 9.6,13.4 16.8,16.8 4.8,2.2 6.9,2.6 14.6,2.6 10.8,0 15.9,-2 23.3,-8.9 10.5,-9.9 13.2,-21.9 13.2,-59.7 0,-20.1 -0.3,-25.9 -1.2,-25.9 -0.7,0 -8.5,3.9 -17.3,8.6 z m -0.9,49 c -1.7,9.9 -4.4,14.7 -9.7,17.4 -10.6,5.5 -22.5,-1 -23.7,-12.9 -0.9,-9.3 4.5,-15.2 25.5,-27.9 l 8.8,-5.3 0.3,10.1 c 0.1,5.8 -0.4,13.8 -1.2,18.6 z" />
  <path style="fill:#80d3ff;stroke:none;fill-opacity:1" inkscape:connector-curvature="0" id="path18" d="m 562.5,812.6 c -30.6,16.4 -43.3,26.1 -48.7,37.2 -2.9,5.9 -3.3,7.6 -3.3,15.2 0,7.1 0.4,9.4 2.6,14.1 3.4,7.2 9.6,13.4 16.8,16.8 7.5,3.5 21.1,3.7 28.3,0.4 5.3,-2.4 12.8,-9 15.7,-13.7 3.4,-5.4 6.1,-17.5 7.1,-31.5 1.1,-16.1 0.2,-47.1 -1.4,-47.1 -0.6,0.1 -8.3,3.9 -17.1,8.6 z m -0.5,47.8 c -1.4,9.1 -4,14.7 -8,17.6 -3.9,2.8 -11.7,3.8 -16,2 -4.2,-1.7 -8.8,-7.3 -9.6,-11.5 -1.9,-10.6 4.9,-18.5 27.4,-31.5 l 6.7,-3.9 0.3,10.2 c 0.1,5.6 -0.2,13.3 -0.8,17.1 z" />
</svg>
