<?xml version="1.0" encoding="UTF-8" standalone="no"?>
<svg xmlns:dc="http://purl.org/dc/elements/1.1/" xmlns:cc="http://creativecommons.org/ns#" xmlns:rdf="http://www.w3.org/1999/02/22-rdf-syntax-ns#" xmlns:svg="http://www.w3.org/2000/svg" xmlns="http://www.w3.org/2000/svg" xmlns:sodipodi="http://sodipodi.sourceforge.net/DTD/sodipodi-0.dtd" xmlns:inkscape="http://www.inkscape.org/namespaces/inkscape" version="1.0" width="1024.000000pt" height="1024.000000pt" viewBox="0 0 1024.000000 1024.000000" preserveAspectRatio="xMidYMid meet" id="svg2" inkscape:version="0.48.5 r10040" sodipodi:docname="9399499.svg">
  <defs id="defs24" />
  <sodipodi:namedview pagecolor="#ffffff" bordercolor="#666666" borderopacity="1" objecttolerance="10" gridtolerance="10" guidetolerance="10" inkscape:pageopacity="0" inkscape:pageshadow="2" inkscape:window-width="856" inkscape:window-height="636" id="namedview22" showgrid="false" inkscape:zoom="0.184375" inkscape:cx="640" inkscape:cy="640" inkscape:window-x="1688" inkscape:window-y="153" inkscape:window-maximized="0" inkscape:current-layer="svg2" />
  <metadata id="metadata4">
Created by potrace 1.11, written by Peter Selinger 2001-2013
<rdf:RDF>
  <cc:Work rdf:about="">
    <dc:format>image/svg+xml</dc:format>
    <dc:type rdf:resource="http://purl.org/dc/dcmitype/StillImage" />
  </cc:Work>
</rdf:RDF>
</metadata>
  <path style="fill:#a0a0a0;stroke:none;fill-opacity:1" inkscape:connector-curvature="0" id="path8" d="m 502.8,224.1 c -56.1,5.4 -107.8,36.4 -139.4,83.5 l -7.4,11.1 -14.3,0.6 c -29.2,1.2 -55.8,10.7 -79.3,28.3 -9.3,7 -25.7,24.1 -31.7,33.2 -10.7,16 -18.2,33.6 -22.2,52.2 -2.4,11.3 -3,36.3 -1.1,48.5 4.8,31.3 17.9,57.1 40.5,79.6 20.8,20.7 42.1,32.3 71.6,39.2 9,2.1 10,2.1 200.5,2.5 212.8,0.3 200.9,0.6 221.9,-6.4 42.2,-14 73.4,-50.8 81.2,-95.4 1.8,-10.4 1.6,-30.6 -0.5,-41.2 -8,-41.4 -35.1,-74.9 -73.4,-90.7 -10.3,-4.3 -26.3,-8.1 -36.8,-8.8 l -9.1,-0.6 -2.3,-7.1 c -10,-31.3 -31.1,-62.3 -57.3,-84.3 -39.3,-33 -90.6,-49 -140.9,-44.2 z m 30.1,60 c 44.7,4.2 83.7,30.6 103.8,70.4 4.1,8 8.7,19.6 8.1,20 -8.1,4.8 -18.4,12.5 -20.7,15.4 -13.3,16.7 -6.1,40.6 14.2,47.5 9.5,3.2 17.3,1.6 29.4,-6.1 14.4,-9.1 25.1,-12 39.9,-11 25.6,1.8 48.3,20.6 54.9,45.3 1.9,7.1 2.1,22.9 0.5,29.9 -4.1,17.1 -16.5,32.7 -32.1,40.4 -15.5,7.6 -1,7.2 -210.2,6.9 l -187.2,-0.3 -7.5,-2.3 c -22.8,-7 -40.8,-22.1 -51,-42.7 -6.1,-12.2 -7.9,-19 -8.7,-31.7 -2.2,-35.8 18.3,-67.7 52.2,-81.3 19.9,-7.9 45.9,-6.9 64.8,2.7 12.9,6.5 19.1,11.8 35.1,30.3 6.3,7.2 11.1,9.7 20.2,10.3 12.9,0.8 23.4,-5.1 28.9,-16.1 5.3,-10.9 4.1,-21 -3.7,-32.8 -6.3,-9.6 -25.7,-28.4 -36.8,-35.8 -5.2,-3.5 -9.7,-6.5 -9.9,-6.7 -1.4,-1.3 13.3,-17.1 23.4,-24.9 23.3,-18.1 45.7,-26.2 78.5,-28.3 1.4,-0.1 7.6,0.3 13.9,0.9 z" />
  <path style="fill:#80d3ff;stroke:none;fill-opacity:1" inkscape:connector-curvature="0" id="path10" d="m 340.3,673.2 c 5.1,7.9 14.9,23 21.7,33.5 6.9,10.6 12.7,19.3 13,19.3 0.4,0 22.2,-33.2 39.2,-59.6 l 4.8,-7.4 -44,0 -44,0 9.3,14.2 z m 47.5,2.6 c -1,2.6 -12.3,22.2 -12.8,22.2 -0.3,0 -2.4,-3.3 -4.7,-7.3 -2.4,-3.9 -5.4,-9.1 -6.8,-11.5 l -2.6,-4.2 13.6,0 c 7.5,0 13.5,0.4 13.3,0.8 z" />
  <path style="fill:#80d3ff;stroke:none;fill-opacity:1" inkscape:connector-curvature="0" id="path12" d="m 719.2,660 c 0.6,1.8 42.3,65.9 42.9,65.9 0.4,0.1 39.4,-59 43.2,-65.5 0.7,-1.2 -6.2,-1.4 -42.8,-1.4 -28.7,0 -43.6,0.3 -43.3,1 z m 55.8,15.6 c 0,0.4 -2.8,5.5 -6.2,11.5 -4.8,8.5 -6.5,10.6 -7.4,9.7 -0.6,-0.7 -3.9,-5.9 -7.2,-11.6 l -6.1,-10.2 13.4,0 c 7.4,0 13.5,0.3 13.5,0.6 z" />
  <path style="fill:#80d3ff;stroke:none;fill-opacity:1" inkscape:connector-curvature="0" id="path14" d="m 173.7,701.9 c 1,1.6 17.8,27.4 37.3,57.4 27.1,41.8 35.8,54.3 36.7,53.4 0.9,-1 21.4,-32.4 66.9,-102.5 l 7.3,-11.2 -75,0 -75.1,0 1.9,2.9 z m 110.1,18 c -0.7,2 -36.4,56.1 -36.9,56.1 -0.4,0 -9,-12.8 -19.2,-28.5 l -18.6,-28.5 37.5,0 c 21.2,0 37.4,0.4 37.2,0.9 z" />
  <path style="fill:#80d3ff;stroke:none;fill-opacity:1" inkscape:connector-curvature="0" id="path16" d="m 566.8,710.9 c 4.2,6.6 21,32.4 37.2,57.5 16.2,25 29.7,45.5 30,45.5 0.4,0 41.4,-62.7 73.3,-112 l 1.9,-2.9 -75.1,0 -75.1,0 7.8,11.9 z m 104.2,8.7 c 0,1.3 -36.4,56.4 -37.1,56.2 -0.8,-0.3 -36.9,-55.4 -36.9,-56.3 0,-0.3 16.7,-0.5 37,-0.5 20.4,0 37,0.3 37,0.6 z" />
  <path style="fill:#80d3ff;stroke:none;fill-opacity:1" inkscape:connector-curvature="0" id="path18" d="m 309,778.2 c 0,1.2 42.2,66.7 43,66.7 0.5,0 43.1,-65.2 43.8,-67.1 0.2,-0.4 -19.2,-0.8 -43.2,-0.8 -32.2,0 -43.6,0.3 -43.6,1.2 z m 51.9,23.5 c -2.4,4.3 -5.2,9.5 -6.4,11.5 -1.1,2.1 -2.2,3.8 -2.5,3.8 -0.3,0 -3.5,-5.2 -7.2,-11.5 l -6.6,-11.5 13.5,0 13.4,0 -4.2,7.7 z" />
  <path style="fill:#80d3ff;stroke:none;fill-opacity:1" inkscape:connector-curvature="0" id="path20" d="m 696,778 c 0,1 40.3,63.6 42.4,65.7 0.8,0.9 6.1,-6.5 22.6,-31.8 11.8,-18.2 21.7,-33.4 21.8,-34 0.2,-0.5 -16.6,-0.9 -43.2,-0.9 -27.2,0 -43.6,0.4 -43.6,1 z m 56,16.5 c 0,1.3 -12.5,22.3 -13.1,21.9 -0.9,-0.5 -12.9,-20.8 -12.9,-21.7 0,-0.4 5.9,-0.7 13,-0.7 7.2,0 13,0.2 13,0.5 z" />
</svg>
