<?xml version="1.0" encoding="UTF-8" standalone="no"?>
<svg xmlns:dc="http://purl.org/dc/elements/1.1/" xmlns:cc="http://creativecommons.org/ns#" xmlns:rdf="http://www.w3.org/1999/02/22-rdf-syntax-ns#" xmlns:svg="http://www.w3.org/2000/svg" xmlns="http://www.w3.org/2000/svg" xmlns:sodipodi="http://sodipodi.sourceforge.net/DTD/sodipodi-0.dtd" xmlns:inkscape="http://www.inkscape.org/namespaces/inkscape" version="1.0" width="1024.000000pt" height="1024.000000pt" viewBox="0 0 1024.000000 1024.000000" preserveAspectRatio="xMidYMid meet" id="svg2" inkscape:version="0.48.5 r10040" sodipodi:docname="9399939.svg">
  <defs id="defs24" />
  <sodipodi:namedview pagecolor="#ffffff" bordercolor="#666666" borderopacity="1" objecttolerance="10" gridtolerance="10" guidetolerance="10" inkscape:pageopacity="0" inkscape:pageshadow="2" inkscape:window-width="1216" inkscape:window-height="977" id="namedview22" showgrid="false" inkscape:zoom="0.184375" inkscape:cx="-561.35593" inkscape:cy="640" inkscape:window-x="1277" inkscape:window-y="48" inkscape:window-maximized="0" inkscape:current-layer="svg2" />
  <metadata id="metadata4">
Created by potrace 1.11, written by Peter Selinger 2001-2013
<rdf:RDF>
  <cc:Work rdf:about="">
    <dc:format>image/svg+xml</dc:format>
    <dc:type rdf:resource="http://purl.org/dc/dcmitype/StillImage" />
  </cc:Work>
</rdf:RDF>
</metadata>
  <path style="fill:#a0a0a0;stroke:none;fill-opacity:1" inkscape:connector-curvature="0" id="path8" d="m 502.8,224.1 c -56.1,5.4 -107.8,36.4 -139.4,83.5 l -7.4,11.1 -14.3,0.6 c -29.2,1.2 -55.8,10.7 -79.3,28.3 -9.3,7 -25.7,24.1 -31.7,33.2 -10.7,16 -18.2,33.6 -22.2,52.2 -2.4,11.3 -3,36.3 -1.1,48.5 4.8,31.3 17.9,57.1 40.5,79.6 20.9,20.7 42.4,32.5 71.6,39.2 8.3,1.9 12.9,2.1 62.6,2.4 l 53.6,0.4 15.5,-29.8 15.4,-29.8 -66.5,-0.5 c -65.6,-0.6 -66.7,-0.6 -74.1,-2.9 -22.7,-6.8 -40.8,-22 -51,-42.6 -6.1,-12.2 -7.9,-19 -8.7,-31.7 -2.2,-35.8 18.3,-67.7 52.2,-81.3 19.9,-7.9 45.9,-6.9 64.8,2.7 12.9,6.5 19.1,11.8 35.1,30.3 6.3,7.2 11.1,9.7 20.2,10.3 12.9,0.8 23.4,-5.1 28.9,-16.1 5.3,-10.9 4.1,-21 -3.7,-32.8 -6.3,-9.6 -25.7,-28.4 -36.8,-35.8 -5.2,-3.5 -9.7,-6.5 -9.9,-6.7 -1.4,-1.3 13.4,-17.1 23.4,-24.9 27.4,-21.2 58.5,-30.5 91.9,-27.4 45.1,4 84.1,30.4 104.3,70.4 4.1,8 8.7,19.6 8.1,20 -8.1,4.8 -18.4,12.5 -20.7,15.4 -13.3,16.7 -6.1,40.6 14.2,47.5 9.5,3.2 17.3,1.6 29.4,-6.1 14.4,-9.1 25.1,-12 39.9,-11 20.9,1.5 40,14 49.8,32.6 4.9,9.3 6.7,16.9 6.7,28.1 0.1,11.6 -1.1,17 -6.3,27.9 -6.9,14.5 -20.6,26 -37.8,31.7 -5,1.7 -11.2,1.9 -72.4,2.4 l -66.8,0.5 -14.9,29 c -8.2,15.9 -14.9,29.3 -14.9,29.7 0,0.5 36.3,0.8 80.8,0.8 89.7,0 90.7,-0.1 110.2,-6.6 42,-14 73.3,-50.8 81.1,-95.4 1.8,-10.4 1.6,-30.6 -0.5,-41.2 -8,-41.4 -35.1,-74.9 -73.4,-90.7 -10.3,-4.3 -26.3,-8.1 -36.8,-8.8 l -9.1,-0.6 -2.3,-7.1 c -10,-31.3 -31.1,-62.3 -57.3,-84.3 -39.3,-33 -90.6,-49 -140.9,-44.2 z" />
  <path style="fill:#fedc00;stroke:none;fill-opacity:1" inkscape:connector-curvature="0" id="path10" d="m 507.7,518.2 c -7.2,13.1 -102.8,191 -103.4,192.3 -0.4,1.3 5.1,1.5 39.1,1.7 l 39.6,0.3 -43.8,76 c -24.1,41.8 -44.1,76.6 -44.5,77.2 -0.5,0.7 -0.6,1.3 -0.4,1.3 0.6,0 176.1,-196.9 176.5,-198.1 0.2,-0.5 -16.1,-0.9 -41.2,-0.9 -22.9,0 -41.6,-0.2 -41.6,-0.5 0,-0.3 82.5,-151.1 84.7,-154.8 0.2,-0.4 -13.5,-0.7 -30.6,-0.7 l -30.9,0 -3.5,6.2 z" />
  <path style="fill:#80d3ff;stroke:none;fill-opacity:1" inkscape:connector-curvature="0" id="path12" d="m 170,669.6 c 0,0.3 16.7,26.2 37.2,57.5 29.4,45.2 37.4,56.7 38.3,55.7 0.6,-0.7 9.1,-13.5 18.7,-28.3 9.6,-14.9 26.1,-40.2 36.6,-56.3 L 319.9,669 245,669 c -41.3,0 -75,0.3 -75,0.6 z m 111.4,20.6 c -0.4,0.7 -8.8,13.8 -18.7,29 l -18,27.8 -2.4,-3.4 c -2.6,-3.9 -33.5,-51.4 -34.7,-53.4 -0.6,-0.9 7.1,-1.2 36.9,-1.2 29.8,0 37.5,0.3 36.9,1.2 z" />
  <path style="fill:#80d3ff;stroke:none;fill-opacity:1" inkscape:connector-curvature="0" id="path14" d="m 590,669.5 c 0,0.8 40.9,63.7 42.5,65.3 1,1.1 5.3,-4.9 22.9,-31.8 11.9,-18.2 21.6,-33.3 21.6,-33.5 0,-0.3 -19.6,-0.5 -43.5,-0.5 -23.9,0 -43.5,0.2 -43.5,0.5 z m 55.6,17.2 c -1.7,4.5 -11.8,21.3 -12.6,20.8 -0.9,-0.6 -13,-20.8 -13,-21.8 0,-0.4 5.9,-0.7 13.1,-0.7 12.1,0 13.1,0.1 12.5,1.7 z" />
  <path style="fill:#fedc00;stroke:none;fill-opacity:1" inkscape:connector-curvature="0" id="path16" d="m 347.6,676.2 c -0.8,1.3 -13.8,23.7 -29,49.8 l -27.5,47.5 45.3,0.3 45.4,0.2 -27,44.8 c -30.4,50.3 -30.1,49.7 -26.6,46.2 1.4,-1.4 27.1,-29.8 57.2,-63.3 L 440,741 l -41.5,0 c -22.8,0 -41.5,-0.2 -41.5,-0.5 0,-0.2 9,-15.3 20,-33.5 l 20,-33 -24,0 c -23.7,0 -24,0 -25.4,2.2 z" />
  <path style="fill:#80d3ff;stroke:none;fill-opacity:1" inkscape:connector-curvature="0" id="path18" d="m 559,754.6 c 0,1.6 74.4,114.4 75,113.7 1.2,-1.4 74,-113.4 74,-113.8 0,-0.3 -33.5,-0.5 -74.5,-0.5 -41,0 -74.5,0.3 -74.5,0.6 z m 110.4,22.1 c -1,1.6 -9.4,14.5 -18.7,28.8 -9.4,14.3 -17,26.1 -17.1,26.2 -0.2,0.2 -34.9,-52.8 -36.9,-56.3 -0.7,-1.2 5,-1.4 36.9,-1.4 l 37.6,0 -1.8,2.7 z" />
  <path style="fill:#80d3ff;stroke:none;fill-opacity:1" inkscape:connector-curvature="0" id="path20" d="m 201.6,797.2 c 1.8,3 41.7,64.4 42.4,65.1 0.5,0.6 42.4,-61.8 43.8,-65.5 0.2,-0.4 -19.3,-0.8 -43.3,-0.8 -34.6,0 -43.5,0.3 -42.9,1.2 z m 49.8,26 c -3.5,6.2 -6.7,11.2 -7,11.1 -0.6,-0.2 -13.4,-21 -13.4,-21.9 0,-0.2 6,-0.4 13.4,-0.4 l 13.5,0 -6.5,11.2 z" />
</svg>
