<?xml version="1.0" encoding="UTF-8" standalone="no"?>
<svg xmlns:dc="http://purl.org/dc/elements/1.1/" xmlns:cc="http://creativecommons.org/ns#" xmlns:rdf="http://www.w3.org/1999/02/22-rdf-syntax-ns#" xmlns:svg="http://www.w3.org/2000/svg" xmlns="http://www.w3.org/2000/svg" xmlns:sodipodi="http://sodipodi.sourceforge.net/DTD/sodipodi-0.dtd" xmlns:inkscape="http://www.inkscape.org/namespaces/inkscape" version="1.0" width="1024.000000pt" height="1024.000000pt" viewBox="0 0 1024.000000 1024.000000" preserveAspectRatio="xMidYMid meet" id="svg2" inkscape:version="0.48.5 r10040" sodipodi:docname="9392999.svg">
  <defs id="defs20" />
  <sodipodi:namedview pagecolor="#ffffff" bordercolor="#666666" borderopacity="1" objecttolerance="10" gridtolerance="10" guidetolerance="10" inkscape:pageopacity="0" inkscape:pageshadow="2" inkscape:window-width="836" inkscape:window-height="480" id="namedview18" showgrid="false" inkscape:zoom="0.184375" inkscape:cx="640" inkscape:cy="640" inkscape:window-x="786" inkscape:window-y="182" inkscape:window-maximized="0" inkscape:current-layer="svg2" />
  <metadata id="metadata4">
Created by potrace 1.11, written by Peter Selinger 2001-2013
<rdf:RDF>
  <cc:Work rdf:about="">
    <dc:format>image/svg+xml</dc:format>
    <dc:type rdf:resource="http://purl.org/dc/dcmitype/StillImage" />
  </cc:Work>
</rdf:RDF>
</metadata>
  <path style="fill:#dcdcdc;stroke:none;fill-opacity:1" inkscape:connector-curvature="0" id="path8" d="m 502.8,224.1 c -56.1,5.4 -107.8,36.4 -139.4,83.5 l -7.4,11.1 -14.3,0.6 c -29.2,1.2 -55.8,10.7 -79.3,28.3 -9.3,7 -25.7,24.1 -31.7,33.2 -10.7,16 -18.2,33.6 -22.2,52.2 -2.4,11.3 -3,36.3 -1.1,48.5 4.8,31.3 17.9,57.1 40.5,79.6 20.8,20.7 42.1,32.3 71.6,39.2 9,2.1 10,2.1 200.5,2.5 212.8,0.3 200.9,0.6 221.9,-6.4 42.2,-14 73.4,-50.8 81.2,-95.4 1.8,-10.4 1.6,-30.6 -0.5,-41.2 -8,-41.4 -35.1,-74.9 -73.4,-90.7 -10.3,-4.3 -26.3,-8.1 -36.8,-8.8 l -9.1,-0.6 -2.3,-7.1 c -10,-31.3 -31.1,-62.3 -57.3,-84.3 -39.3,-33 -90.6,-49 -140.9,-44.2 z m 30.1,60 c 44.7,4.2 83.7,30.6 103.8,70.4 4.1,8 8.7,19.6 8.1,20 -8.1,4.8 -18.4,12.5 -20.7,15.4 -13.3,16.7 -6.1,40.6 14.2,47.5 9.5,3.2 17.3,1.6 29.4,-6.1 14.4,-9.1 25.1,-12 39.9,-11 25.6,1.8 48.3,20.6 54.9,45.3 1.9,7.1 2.1,22.9 0.5,29.9 -4.1,17.1 -16.5,32.7 -32.1,40.4 -15.5,7.6 -1,7.2 -210.2,6.9 l -187.2,-0.3 -7.5,-2.3 c -22.8,-7 -40.8,-22.1 -51,-42.7 -6.1,-12.2 -7.9,-19 -8.7,-31.7 -2.2,-35.8 18.3,-67.7 52.2,-81.3 19.9,-7.9 45.9,-6.9 64.8,2.7 12.9,6.5 19.1,11.8 35.1,30.3 6.3,7.2 11.1,9.7 20.2,10.3 12.9,0.8 23.4,-5.1 28.9,-16.1 5.3,-10.9 4.1,-21 -3.7,-32.8 -6.3,-9.6 -25.7,-28.4 -36.8,-35.8 -5.2,-3.5 -9.7,-6.5 -9.9,-6.7 -1.4,-1.3 13.3,-17.1 23.4,-24.9 23.3,-18.1 45.7,-26.2 78.5,-28.3 1.4,-0.1 7.6,0.3 13.9,0.9 z" />
  <path style="fill:#80d3ff;stroke:none;fill-opacity:1" inkscape:connector-curvature="0" id="path10" d="m 305.4,644.8 c -3.8,2.4 -5.8,7.1 -5.2,12 0.4,2.3 3.7,8.8 9.2,17.4 4.7,7.6 8.6,14 8.6,14.3 0,0.3 -7.8,0.5 -17.2,0.5 -19.6,0 -22.7,0.8 -26,7 -2.3,4.4 -2.3,7.7 0.2,11.7 3.8,6.2 5.6,6.7 25.2,7.3 l 17.8,0.5 -9.1,14.8 c -10.1,16.3 -11.1,20.2 -7.2,25.5 2.8,3.8 8.6,6.5 12.3,5.7 5.1,-1.1 8.3,-4.7 17.6,-19.9 4.9,-8 9.2,-14.6 9.5,-14.6 0.4,0 4.8,6.8 9.9,15 11.8,19.3 15,21.8 23.3,18.9 4.9,-1.7 7.7,-5.2 8.4,-10.5 0.4,-3.6 -0.3,-5.3 -9.1,-19.7 l -9.5,-15.7 16.7,0 c 14.2,0 17.3,-0.3 20.9,-1.9 8.9,-4.1 10,-15.6 2,-21.5 -2.6,-1.9 -4.6,-2.1 -21.1,-2.6 l -18.3,-0.5 9.4,-15 c 8.9,-14.1 9.4,-15.2 9,-19.4 -0.4,-3.1 -1.3,-5.2 -3.6,-7.5 -2.7,-2.7 -3.8,-3.1 -8.5,-3.1 -7.1,0 -8.1,1 -19.7,19.6 -7.3,11.7 -9.5,14.7 -10.4,13.7 -0.6,-0.7 -5.1,-7.6 -9.8,-15.4 -4.8,-7.8 -9.6,-14.9 -10.7,-15.9 -3,-2.7 -10.8,-3.1 -14.6,-0.7 z" />
  <path style="fill:#80d3ff;stroke:none;fill-opacity:1" inkscape:connector-curvature="0" id="path12" d="m 663.4,644.8 c -3.8,2.4 -5.8,7.1 -5.2,12 0.4,2.3 3.7,8.8 9.2,17.4 4.7,7.6 8.6,14 8.6,14.3 0,0.3 -7.8,0.5 -17.2,0.5 -19.6,0 -22.7,0.8 -26,7 -2.3,4.4 -2.3,7.7 0.2,11.7 3.8,6.2 5.6,6.7 25.2,7.3 l 17.8,0.5 -9.1,14.8 c -10.1,16.3 -11.1,20.2 -7.2,25.5 2.8,3.8 8.6,6.5 12.3,5.7 5.1,-1.1 8.3,-4.7 17.6,-19.9 4.9,-8 9.2,-14.6 9.5,-14.6 0.4,0 4.8,6.8 9.9,15 11.8,19.3 15,21.8 23.3,18.9 4.9,-1.7 7.7,-5.2 8.4,-10.5 0.4,-3.6 -0.3,-5.3 -9.1,-19.7 l -9.5,-15.7 16.7,0 c 14.2,0 17.3,-0.3 20.9,-1.9 8.9,-4.1 10,-15.6 2,-21.5 -2.6,-1.9 -4.6,-2.1 -21.1,-2.6 l -18.3,-0.5 9.4,-15 c 8.9,-14.1 9.4,-15.2 9,-19.4 -0.4,-3.1 -1.3,-5.2 -3.6,-7.5 -2.7,-2.7 -3.8,-3.1 -8.5,-3.1 -7.1,0 -8.1,1 -19.7,19.6 -7.3,11.7 -9.5,14.7 -10.4,13.7 -0.6,-0.7 -5.1,-7.6 -9.8,-15.4 -4.8,-7.8 -9.6,-14.9 -10.7,-15.9 -3,-2.7 -10.8,-3.1 -14.6,-0.7 z" />
  <path style="fill:#80d3ff;stroke:none;fill-opacity:1" inkscape:connector-curvature="0" id="path14" d="m 237.1,779.6 c -1.2,1.5 -2.1,3.6 -2.1,4.7 0,1.2 2.5,6.3 5.5,11.3 3,5.1 5.5,9.5 5.5,9.8 0,0.3 -5,0.6 -11,0.6 -10.4,0 -11.2,0.1 -13.5,2.5 -2.6,2.5 -3.2,6.3 -1.5,9.5 1.5,2.8 6.5,4 16.6,4 5.2,0 9.4,0.2 9.4,0.4 0,0.2 -2.5,4.3 -5.5,9.1 -3,4.9 -5.5,9.9 -5.5,11.2 0,3.4 4.2,7.3 8,7.3 3.8,0 5.4,-1.6 11.9,-12.3 3,-4.8 5.6,-8.7 6,-8.7 0.3,0 3,4.1 6,9.1 5.8,9.6 8.1,11.9 11.9,11.9 3.5,0 5.8,-1.6 7.1,-4.9 1.4,-3.3 1.4,-3.5 -5.5,-14.7 -2.4,-3.9 -4.4,-7.3 -4.4,-7.6 0,-0.3 5,-0.7 11.1,-1 10.8,-0.3 11.2,-0.4 13.6,-3.2 1.9,-2.3 2.3,-3.6 1.9,-6 -1.1,-5.5 -2.5,-6.1 -15.6,-6.4 l -11.9,-0.4 6.1,-9.8 c 5.1,-8.4 5.9,-10.3 5.3,-12.9 -1.3,-5.9 -8.6,-8.1 -12.8,-3.9 -1.3,1.3 -4.5,6 -7.2,10.5 -2.8,4.5 -5.2,8.3 -5.5,8.3 -0.3,0 -2.5,-3.3 -4.9,-7.3 C 248.4,778 247.4,777 243,777 c -3,0 -4.3,0.6 -5.9,2.6 z" />
  <path style="fill:#80d3ff;stroke:none;fill-opacity:1" inkscape:connector-curvature="0" id="path16" d="m 595.1,779.6 c -1.2,1.5 -2.1,3.6 -2.1,4.7 0,1.2 2.5,6.3 5.5,11.3 3,5.1 5.5,9.5 5.5,9.8 0,0.3 -5,0.6 -11,0.6 -10.4,0 -11.2,0.1 -13.5,2.5 -2.6,2.5 -3.2,6.3 -1.5,9.5 1.5,2.8 6.5,4 16.6,4 5.2,0 9.4,0.2 9.4,0.4 0,0.2 -2.5,4.3 -5.5,9.1 -3,4.9 -5.5,9.9 -5.5,11.2 0,3.4 4.2,7.3 8,7.3 3.8,0 5.4,-1.6 11.9,-12.3 3,-4.8 5.6,-8.7 6,-8.7 0.3,0 3,4.1 6,9.1 5.8,9.6 8.1,11.9 11.9,11.9 3.5,0 5.8,-1.6 7.1,-4.9 1.4,-3.3 1.4,-3.5 -5.5,-14.7 -2.4,-3.9 -4.4,-7.3 -4.4,-7.6 0,-0.3 5,-0.7 11.1,-1 10.8,-0.3 11.2,-0.4 13.6,-3.2 1.9,-2.3 2.3,-3.6 1.9,-6 -1.1,-5.5 -2.5,-6.1 -15.6,-6.4 l -11.9,-0.4 6.1,-9.8 c 5.1,-8.4 5.9,-10.3 5.3,-12.9 -1.3,-5.9 -8.6,-8.1 -12.8,-3.9 -1.3,1.3 -4.5,6 -7.2,10.5 -2.8,4.5 -5.2,8.3 -5.5,8.3 -0.3,0 -2.5,-3.3 -4.9,-7.3 C 606.4,778 605.4,777 601,777 c -3,0 -4.3,0.6 -5.9,2.6 z" />
</svg>
