<?xml version="1.0" encoding="UTF-8" standalone="no"?>
<svg xmlns:dc="http://purl.org/dc/elements/1.1/" xmlns:cc="http://creativecommons.org/ns#" xmlns:rdf="http://www.w3.org/1999/02/22-rdf-syntax-ns#" xmlns:svg="http://www.w3.org/2000/svg" xmlns="http://www.w3.org/2000/svg" xmlns:sodipodi="http://sodipodi.sourceforge.net/DTD/sodipodi-0.dtd" xmlns:inkscape="http://www.inkscape.org/namespaces/inkscape" version="1.0" width="1024.000000pt" height="1024.000000pt" viewBox="0 0 1024.000000 1024.000000" preserveAspectRatio="xMidYMid meet" id="svg2" inkscape:version="0.48.5 r10040" sodipodi:docname="9222999.svg">
  <defs id="defs20" />
  <sodipodi:namedview pagecolor="#ffffff" bordercolor="#666666" borderopacity="1" objecttolerance="10" gridtolerance="10" guidetolerance="10" inkscape:pageopacity="0" inkscape:pageshadow="2" inkscape:window-width="836" inkscape:window-height="543" id="namedview18" showgrid="false" inkscape:zoom="0.184375" inkscape:cx="640" inkscape:cy="640" inkscape:window-x="1649" inkscape:window-y="594" inkscape:window-maximized="0" inkscape:current-layer="svg2" />
  <metadata id="metadata4">
Created by potrace 1.11, written by Peter Selinger 2001-2013
<rdf:RDF>
  <cc:Work rdf:about="">
    <dc:format>image/svg+xml</dc:format>
    <dc:type rdf:resource="http://purl.org/dc/dcmitype/StillImage" />
  </cc:Work>
</rdf:RDF>
</metadata>
  <path style="fill:#cccccc;stroke:none;fill-opacity:1" inkscape:connector-curvature="0" id="path8" d="m 504.6,223.1 c -56.2,5 -108.4,36.1 -140.2,83.5 l -7.4,11.1 -13.3,0.6 c -36.2,1.5 -67.4,14.7 -92.9,39.5 -22,21.3 -35,44.9 -41.5,75.2 -2.5,12 -2.5,42 0,54 6.5,30.5 19.6,54.1 41.9,75.5 19.8,19 41.7,30.7 68.8,36.7 l 10.5,2.3 196,0 196,0 9.5,-2.6 c 26.4,-7.4 46.4,-19.2 61.9,-36.7 20.9,-23.7 31.4,-51 31.4,-81.7 0,-14.6 -1.7,-25.5 -6.2,-38.5 C 806.9,405.8 778.7,377.5 743,365.6 732.2,362 716.9,359 709,359 l -4.5,0 -3.4,-9.9 c -4.4,-13.2 -13.2,-30.5 -21.9,-43.2 -32.5,-47.7 -84,-77.8 -141.7,-82.8 -13.5,-1.2 -18.7,-1.2 -32.9,0 z m 40.3,61.5 c 24.1,4.3 47.3,15.9 65.8,32.9 8.9,8.1 20.4,23.2 26.1,34.2 4,7.7 9.6,21.3 9,21.7 -13.7,8.9 -18.4,12.5 -21.3,16.3 -14.4,18.9 -2.4,45.9 21.5,48 6.9,0.7 13.9,-1.4 20.8,-6.2 11.6,-7.9 20.8,-11.3 33.3,-12.2 28.7,-2 56,17.7 63.4,45.7 0.8,3.1 1.5,9.9 1.5,15.5 0,11.8 -1.5,18.2 -6.7,28.5 -7.8,15.6 -26,29.1 -42.9,31.9 -5.1,0.9 -57.1,1.1 -193.9,0.9 l -187,-0.3 -7.3,-2.3 C 299.6,530.7 280.1,512 270.8,485 c -3.1,-9.1 -3.3,-10.1 -3.3,-25 0,-14.9 0.2,-15.9 3.3,-25 5.6,-16.3 14.2,-28.8 26.6,-38.6 36.8,-29.3 89,-22.6 117.4,15.1 5.7,7.6 8.5,10.1 14.7,13.1 6,2.9 15.7,3.2 22.8,0.8 9.7,-3.3 17.9,-13.9 19.3,-25 0.8,-6.9 -1.4,-14.3 -6.8,-22.4 -6.5,-9.9 -25.7,-28.6 -36.3,-35.5 -4.9,-3.2 -9.4,-6.2 -9.9,-6.6 -1.3,-1.1 6.5,-10.8 14.8,-18.5 7.6,-7.1 21.6,-16.9 30.5,-21.4 24.1,-12 53.6,-16.2 81,-11.4 z" />
  <path style="fill:#dcdcdc;stroke:none;fill-opacity:1" inkscape:connector-curvature="0" id="path10" d="m 644,641.7 c -6.2,3.2 -7,6.3 -7,27.2 0,14.3 -0.3,18.2 -1.2,17.8 -0.7,-0.3 -8.5,-4 -17.3,-8.1 -8.8,-4.2 -16.8,-7.6 -17.7,-7.6 -3.7,0 -8.8,3 -10.8,6.2 -2.5,4 -2.2,10.8 0.6,14 1.1,1.1 9,5.6 17.7,9.8 l 15.7,7.8 -14.5,9.1 c -7.9,5.1 -15.3,10.3 -16.5,11.8 -3,3.9 -2.8,11.2 0.6,15.2 2.8,3.4 8.4,5.4 12.3,4.4 1.3,-0.3 8.5,-4.4 15.9,-9 7.3,-4.6 14,-8.7 14.8,-9 1.2,-0.4 1.4,2.2 1.4,16.7 0,20.4 0.8,23.1 7.6,26.2 4.6,2 8,1.7 12.2,-1 4.7,-3 5.2,-5.8 5.2,-26.1 l 0,-19 17.4,8.6 c 15.4,7.6 17.8,8.5 21,7.9 5.7,-1.1 9.7,-5.3 10.3,-10.7 0.9,-8.3 -0.6,-9.8 -19.4,-19.3 l -16.7,-8.3 3.9,-2.5 c 2.2,-1.4 8.9,-5.5 14.9,-9.3 11.2,-7.1 14.6,-10.7 14.6,-15.8 0,-4.4 -2.9,-9.6 -6.3,-11.4 -6.4,-3.3 -9.3,-2.3 -25.6,8 l -15.1,9.6 0,-17.7 c 0,-12.1 -0.4,-18.5 -1.3,-20.1 -3,-5.9 -10.8,-8.4 -16.7,-5.4 z" />
  <path style="fill:#80d3ff;stroke:none;fill-opacity:1" inkscape:connector-curvature="0" id="path12" d="m 387.1,651.1 c -45.6,23.6 -69.9,41.5 -77.4,57 -9.9,20.4 -6.3,43.3 9.3,58.9 24.5,24.5 65.8,17.7 81,-13.4 7.8,-16 10.6,-41.1 9.5,-85.4 C 409,649 408.4,641 407.6,641 c -0.6,0 -9.8,4.6 -20.5,10.1 z m -5.5,50.1 c -1.7,35.5 -5.7,46.2 -19,51.3 -13.6,5.2 -28.8,-4.2 -30.3,-18.8 -1.1,-10.4 3.4,-17.8 16.8,-27.8 7.4,-5.5 30.8,-19.9 32.3,-19.9 0.5,0 0.6,6.1 0.2,15.2 z" />
  <path style="fill:#80d3ff;stroke:none;fill-opacity:1" inkscape:connector-curvature="0" id="path14" d="m 626.5,799.8 c -32.7,17.1 -48.4,29 -53.8,40.9 -3.3,7.5 -3.1,19.9 0.6,27.8 9.4,20.1 35.2,26.2 52.7,12.4 9.4,-7.5 13.3,-17.8 15.2,-40.4 1.1,-13.7 0.3,-47.5 -1.1,-47.5 -0.3,0 -6.4,3.1 -13.6,6.8 z m -3.1,34.4 c -0.7,14.6 -2.7,25.4 -5.2,28.8 -7.1,9.5 -20.4,9.4 -27.5,-0.1 -5.2,-7.1 -2.2,-17.2 7.4,-24.9 5.5,-4.3 23.6,-15.8 25.2,-15.9 0.4,-0.1 0.5,5.4 0.1,12.1 z" />
  <path style="fill:#dcdcdc;stroke:none;fill-opacity:1" inkscape:connector-curvature="0" id="path16" d="m 287.3,810.4 c -2.7,2.4 -2.8,2.7 -3.1,14.4 l -0.4,12.1 -10.5,-5.5 c -8,-4.2 -11.2,-5.4 -13.2,-4.9 -3.4,0.8 -6.1,4.1 -6.1,7.5 0,4.2 2.6,6.6 12.8,11.9 l 9.3,4.8 -9.5,5.7 c -12.1,7.2 -14,10.3 -9.5,16 3.2,4.1 7,3.5 17.4,-2.8 l 9,-5.4 0.5,11.6 c 0.3,6.5 0.8,12.2 1.2,12.8 0.4,0.6 2.1,1.7 3.7,2.3 2.4,1 3.4,1 6,-0.3 3.6,-1.9 3.8,-2.7 4.6,-16.5 0.3,-5.8 0.7,-10.6 0.9,-10.8 0.1,-0.2 4.5,1.9 9.7,4.7 10.6,5.6 13.9,6.1 17.4,2.5 5.5,-5.4 2.7,-9.9 -10.2,-16.3 l -9.5,-4.8 9.6,-5.7 c 12.1,-7.3 14,-10.4 9.5,-16.1 -3.2,-4.1 -7,-3.5 -17.4,2.8 l -9,5.4 -0.5,-12 c -0.5,-11.1 -0.7,-12.1 -2.9,-13.9 -3.1,-2.6 -6.4,-2.4 -9.8,0.5 z" />
</svg>
