<?xml version="1.0" encoding="UTF-8" standalone="no"?>
<svg xmlns:dc="http://purl.org/dc/elements/1.1/" xmlns:cc="http://creativecommons.org/ns#" xmlns:rdf="http://www.w3.org/1999/02/22-rdf-syntax-ns#" xmlns:svg="http://www.w3.org/2000/svg" xmlns="http://www.w3.org/2000/svg" xmlns:sodipodi="http://sodipodi.sourceforge.net/DTD/sodipodi-0.dtd" xmlns:inkscape="http://www.inkscape.org/namespaces/inkscape" version="1.0" width="1024.000000pt" height="1024.000000pt" viewBox="0 0 1024.000000 1024.000000" preserveAspectRatio="xMidYMid meet" id="svg2" inkscape:version="0.48.5 r10040" sodipodi:docname="sym1999991.svg">
  <defs id="defs34" />
  <sodipodi:namedview pagecolor="#ffffff" bordercolor="#666666" borderopacity="1" objecttolerance="10" gridtolerance="10" guidetolerance="10" inkscape:pageopacity="0" inkscape:pageshadow="2" inkscape:window-width="1038" inkscape:window-height="845" id="namedview32" showgrid="false" inkscape:zoom="0.7375" inkscape:cx="953.70147" inkscape:cy="986.2051" inkscape:window-x="1039" inkscape:window-y="117" inkscape:window-maximized="0" inkscape:current-layer="svg2" />
  <metadata id="metadata4">
Created by potrace 1.11, written by Peter Selinger 2001-2013
<rdf:RDF>
  <cc:Work rdf:about="">
    <dc:format>image/svg+xml</dc:format>
    <dc:type rdf:resource="http://purl.org/dc/dcmitype/StillImage" />
  </cc:Work>
</rdf:RDF>
</metadata>
  <path inkscape:connector-curvature="0" style="fill:#fedc00;fill-opacity:1;stroke:none" id="path8-1" d="m 504.02778,148.67967 c -7.1,2.3 -14,8.2 -17.6,15.1 -1.8,3.3 -1.9,7 -1.9,67 l 0,63.5 2.2,4.1 c 11,20.6 39.6,20.6 50.6,0 l 2.2,-4.1 0,-63.5 c 0,-60 -0.1,-63.7 -1.9,-67 -2.6,-4.9 -8.4,-10.8 -13.1,-13.2 -4.3,-2.3 -16.1,-3.4 -20.5,-1.9 z" />
  <path inkscape:connector-curvature="0" style="fill:#fedc00;fill-opacity:1;stroke:none" id="path10-1" d="m 336.82778,193.07967 c -14.8,4.2 -23.7,19.6 -19.7,34.1 0.6,2.1 14.3,26.7 30.5,54.5 22.9,39.4 30.4,51.5 34,54.8 10.7,10 27.9,9.5 38.1,-0.9 2.3,-2.4 5.1,-6.3 6.2,-8.8 2.5,-5.4 2.8,-15.4 0.7,-20.5 -3.1,-7.3 -59.1,-102.2 -62.4,-105.7 -6.5,-6.9 -18.2,-10 -27.4,-7.5 z" />
  <path inkscape:connector-curvature="0" style="fill:#fedc00;fill-opacity:1;stroke:none" id="path12-6" d="m 673.72778,192.77967 c -5.5,1.4 -10.8,4.4 -14.3,8.2 -3.4,3.6 -59.9,100.1 -62,105.8 -2,5.4 -1.7,14.8 0.7,20 7.9,17.5 30.6,22.5 44.3,9.7 3.5,-3.2 11.2,-15.6 33.6,-54.1 16,-27.5 29.7,-51.9 30.5,-54.3 2.1,-6 1.9,-11.2 -0.6,-17.9 -4.8,-12.7 -19.3,-20.6 -32.2,-17.4 z" />
  <path inkscape:connector-curvature="0" style="fill:#fedc00;fill-opacity:1;stroke:none" id="path14-4" d="m 212.92778,315.17967 c -9.6,3.4 -15.8,9.9 -18.5,19.4 -2.8,9.5 0,19.5 7.2,26.5 4.3,4.1 101.1,59.9 108.3,62.4 9.7,3.4 23.7,-0.6 30.2,-8.8 8.6,-10.9 8,-27 -1.4,-36.7 -3.2,-3.4 -101.9,-60.4 -108.6,-62.8 -4.6,-1.7 -12.6,-1.7 -17.2,0 z" />
  <path inkscape:connector-curvature="0" style="fill:#fedc00;fill-opacity:1;stroke:none" id="path16-7" d="m 793.92778,315.07967 c -7,2.6 -105.4,59.6 -108.6,62.9 -12.3,12.7 -8.9,34.7 6.6,43.2 6.7,3.6 15.9,4.6 22.2,2.3 7.2,-2.5 104,-58.3 108.3,-62.4 17.1,-16.5 5.9,-45.6 -18.2,-47 -4.1,-0.2 -8.1,0.2 -10.3,1 z" />
  <path inkscape:connector-curvature="0" style="fill:#fedc00;fill-opacity:1;stroke:none" id="path18-5" d="m 495.52778,371.37967 c -32,4.9 -57.5,17 -79.2,37.7 -21.8,20.8 -35.8,46.8 -40.9,75.7 -2.1,12.5 -2.1,33.5 0,46 9.8,55.7 52.6,99.2 109.6,111.6 12.1,2.7 42,2.6 54,0 29.5,-6.4 53.4,-19.7 73.7,-40.9 24.7,-25.9 37.5,-57.9 37.5,-93.7 0,-38.1 -14.6,-71.9 -42.5,-98.7 -18.7,-17.8 -40.4,-29.4 -66.6,-35.4 -8.4,-2 -38,-3.4 -45.6,-2.3 z" />
  <path inkscape:connector-curvature="0" style="fill:#fedc00;fill-opacity:1;stroke:none" id="path20-9" d="m 168.22778,481.27967 c -13.7,4.3 -22.1,18.1 -19.2,31.9 1.4,6.6 5.7,13.4 10.9,17 8,5.6 8.4,5.6 72.6,5.6 69.1,0 66.6,0.3 75.6,-8.9 5.9,-6 8.2,-11.4 8.2,-19.1 0,-7.7 -2.3,-13.1 -8.2,-19.1 -9,-9.2 -6.4,-8.9 -76,-8.8 -47.1,0 -60.5,0.3 -63.9,1.4 z" />
  <path inkscape:connector-curvature="0" style="fill:#fedc00;fill-opacity:1;stroke:none" id="path22-9" d="m 726.02778,481.67967 c -7.1,2.5 -15.1,10.7 -17,17.5 -3.1,11 -0.9,19.7 6.9,27.8 9.1,9.2 6.4,8.9 77.7,8.6 59.7,-0.3 61,-0.3 65.5,-2.4 17.7,-8.2 22,-31.3 8.4,-44.9 -2.1,-2.1 -5.9,-4.7 -8.4,-5.9 -4.5,-2.1 -5.8,-2.1 -66.1,-2.3 -58.2,-0.3 -61.8,-0.2 -67,1.6 z" />
  <path inkscape:connector-curvature="0" style="fill:#fedc00;fill-opacity:1;stroke:none" id="path24-6" d="m 309.52778,591.97967 c -6.8,2.6 -104.7,59.3 -108.1,62.7 -7.1,7 -9.7,17 -7,26.4 4.1,13.9 17.5,22.4 32,20.3 3.3,-0.5 17.6,-8.2 56.3,-30.3 28.5,-16.2 53.5,-31.1 55.5,-33 4.9,-4.8 8,-12.2 8,-19.2 -0.1,-15.7 -10.9,-27 -26.6,-27.7 -3.9,-0.2 -8.4,0.1 -10.1,0.8 z" />
  <path inkscape:connector-curvature="0" style="fill:#fedc00;fill-opacity:1;stroke:none" id="path26-8" d="m 696.92778,592.17967 c -12.1,4.3 -19.2,14.4 -19.1,27.1 0,6.7 3.3,14.2 8,18.8 2,1.9 27,16.8 55.5,33 38.7,22.1 53,29.8 56.3,30.3 14.5,2.1 27.9,-6.4 32,-20.3 2.7,-9.3 0,-19.5 -7,-26.4 -3.7,-3.7 -102.1,-60.5 -108.5,-62.7 -4.4,-1.6 -12.7,-1.4 -17.2,0.2 z" />
  <path inkscape:connector-curvature="0" style="fill:#fedc00;fill-opacity:1;stroke:none" id="path28-7" d="m 390.82778,673.37967 c -9.3,2.8 -11.5,6 -43.2,60.5 -16.2,27.8 -29.9,52.4 -30.5,54.5 -3.6,12.8 3.4,27.1 15.8,32.7 10.1,4.5 23.8,1.8 31.3,-6.1 3.3,-3.5 59.3,-98.4 62.4,-105.7 2.1,-5.1 1.8,-15.1 -0.7,-20.5 -6,-13.4 -20.7,-19.8 -35.1,-15.4 z" />
  <path inkscape:connector-curvature="0" style="fill:#fedc00;fill-opacity:1;stroke:none" id="path30-3" d="m 613.62778,673.77967 c -13.5,5.3 -21.1,21.7 -16.2,35 2.3,6.3 58.8,102.4 62.4,106.2 5,5.3 12.2,8.2 20.2,8.2 11.9,-0.1 21.8,-6.9 25.9,-17.8 2.5,-6.7 2.7,-11.9 0.6,-17.9 -0.8,-2.4 -14.5,-26.8 -30.5,-54.3 -31.1,-53.5 -33.4,-56.6 -42.7,-59.8 -6.2,-2.1 -13.7,-2 -19.7,0.4 z" />
  <path inkscape:connector-curvature="0" style="fill:#fedc00;fill-opacity:1;stroke:none" id="path32" d="m 500.52778,704.17967 c -5.9,2.7 -10.7,7.2 -13.8,13 l -2.2,4.1 0,63.5 c 0,63.2 0,63.5 2.2,67.5 2.5,4.8 8.4,10.6 13.3,13.1 4.9,2.6 19.1,2.6 24,0 4.9,-2.5 10.8,-8.3 13.3,-13.1 2.2,-4 2.2,-4.3 2.2,-67.5 l 0,-63.5 -2.2,-4.1 c -5.2,-9.8 -14.5,-15.4 -25.3,-15.4 -4.7,0 -7.9,0.7 -11.5,2.4 z" />
  <g transform="matrix(0.93390856,0,0,0.93390856,45.991145,18.391043)" id="g2993">
    <path d="m 759.47595,113.61818 c -37.46522,63.40714 -76.36686,129.03492 -122.84896,199.79893 -8.75513,13.32879 -9.42628,17.27587 -7.06971,22.42642 1.33197,2.8972 2.86887,4.18484 5.8402,5.25786 3.07378,1.07304 31.04523,1.28764 132.88999,1.07304 128.48424,-0.3219 128.89408,-0.3219 131.66049,-2.57529 3.38117,-2.57527 4.71314,-6.76009 3.48363,-11.05224 -1.22952,-4.50673 -126.74244,-209.24165 -130.73836,-213.42647 -3.99592,-3.97023 -10.26772,-6.49419 -13.21728,-1.50225 z" id="path14-8" inkscape:connector-curvature="0" sodipodi:nodetypes="ssccccccs" style="fill:#ba381a;fill-opacity:1;stroke:none" />
    <path inkscape:transform-center-y="65.053824" inkscape:transform-center-x="45.961941" inkscape:connector-curvature="0" id="path2986-0" d="m 766.69898,316.178 c -2.53144,-6.40985 -1.42158,-13.54665 -2.33111,-20.24555 -3.87423,0.39898 -7.20167,6.46327 -11.24501,8.55158 -2.65419,3.36684 -8.02377,1.80581 -3.7735,-2.07071 4.85208,-5.90381 10.22114,-11.35592 15.35683,-17.01004 -0.091,-7.47706 0.25946,-14.98103 -0.37048,-22.43522 -6.49556,2.65856 -12.73313,6.13475 -18.60014,9.992 -3.84846,7.71776 -4.48726,16.8151 -9.24375,24.10261 -5.98883,2.15316 -2.17036,-8.67804 -1.26146,-11.84741 0.764,-2.59354 3.28319,-9.64508 -1.92094,-5.63102 -5.13956,2.41695 -9.98938,5.4882 -15.33574,7.43924 -4.85486,-4.08761 5.13309,-7.81943 8.25017,-10.16414 2.50072,-1.5314 10.2779,-5.23104 3.27141,-6.42608 -4.23229,-2.19188 -10.56179,-2.30295 -13.11167,-6.54602 3.35157,-5.26483 10.41582,0.20468 15.12373,0.73741 3.49542,1.08557 6.99003,2.17373 10.4851,3.26039 5.45207,-3.30633 11.45592,-5.92709 16.27614,-10.09238 -0.27081,-4.39448 -6.625,-5.43842 -9.85438,-7.79443 -2.36554,-1.07224 -4.66846,-2.8226 -7.07156,-3.48811 -7.67972,2.1771 -15.20521,5.50225 -23.26284,5.79916 -5.13493,-3.53677 4.82394,-6.25994 7.94293,-7.3623 3.15992,-0.82503 9.62425,-3.42069 3.3584,-5.59714 -4.4248,-3.14325 -10.2492,-4.94294 -13.42411,-9.51649 1.98317,-5.01094 9.12591,1.45237 12.836,2.51809 2.4881,1.31946 9.844,5.4176 6.84092,-0.73032 -0.7188,-4.89947 -3.99029,-10.14493 -2.38582,-14.96534 5.90161,-1.74977 6.01289,7.75471 7.89084,11.43425 1.34582,4.4078 2.63762,8.83188 3.9569,13.24767 6.44416,3.32453 12.88832,6.64906 19.33249,9.97358 0.10053,-7.76639 0.20105,-15.53278 0.30157,-23.29917 -5.58644,-5.87756 -11.70555,-11.32382 -16.59081,-17.81059 -0.19037,-6.87497 7.96374,1.68747 10.29088,3.76093 2.01108,1.81472 3.99937,3.65447 5.99836,5.48246 0.53771,-7.26204 0.0824,-14.69255 1.78771,-21.79381 4.88012,-3.94348 3.70233,7.25159 3.92855,10.26084 0.45672,3.3124 -0.60755,9.74703 1.03857,11.16083 4.39212,-3.6699 7.87246,-8.50739 12.79237,-11.48501 6.72048,1.70243 -2.65689,7.66795 -4.4521,10.62287 -3.0283,3.2495 -6.06196,6.494 -9.09248,9.74143 0.22874,7.85663 0.20917,15.72723 0.72796,23.57037 6.00775,-3.36487 11.87881,-6.96845 17.8125,-10.46188 2.34558,-8.01497 4.0922,-16.25309 7.23825,-23.99753 6.96472,-2.9076 2.09337,8.20069 1.57814,11.62697 -1.15362,3.1504 -2.58047,9.04095 2.52989,5.21885 5.12132,-2.1273 9.644,-5.9596 15.11363,-7.06126 5.19484,4.10154 -5.03434,7.54493 -7.97953,9.93204 -2.71868,1.77422 -10.97557,5.20511 -3.68996,6.83343 4.13171,2.38384 13.12537,1.8661 12.41163,8.25537 -5.01505,0.91796 -10.78617,-2.32417 -16.06179,-3.17701 -3.12163,-0.65731 -6.3892,-1.84397 -9.51465,-1.90435 -5.58307,3.09193 -11.50798,5.67649 -16.66596,9.45134 1.60655,3.53327 7.75326,5.04586 11.17508,7.59633 4.86713,4.34637 10.78412,2.67336 16.28324,0.56492 4.63941,-0.35144 13.83144,-7.20358 15.41032,-0.33014 -4.75707,3.7049 -11.21524,4.28635 -16.23614,7.5314 5.05987,4.65969 11.93119,7.08917 16.61767,12.14789 -0.58832,5.33557 -8.62193,-0.95432 -11.81801,-2.0175 -3.51998,-1.74721 -10.72078,-6.56445 -7.48873,0.81514 0.35669,4.81431 4.57378,10.7999 1.25105,14.97228 -4.39821,-1.60562 -4.32034,-9.35975 -6.52744,-13.47572 -2.1386,-4.7641 -1.50909,-11.47853 -7.31825,-13.57613 -4.60571,-2.61228 -9.07694,-5.745 -14.08295,-7.46609 -0.69089,7.20118 -0.73851,14.44895 -1.07468,21.67381 5.22575,5.89258 11.06779,11.31342 15.45479,17.88596 2.6886,6.88535 -6.15216,1.57792 -7.73471,-1.17737 -2.71148,-1.89492 -8.37761,-10.77724 -7.50293,-2.74337 -0.41978,6.04032 0.65209,12.38113 -1.35522,18.18488 -0.57855,0.99889 -1.91968,-0.0351 -2.28517,-0.64669 z" style="fill:#ffffff;fill-opacity:1;stroke:none" />
  </g>
</svg>
