<?xml version="1.0" encoding="UTF-8" standalone="no"?>
<svg xmlns:dc="http://purl.org/dc/elements/1.1/" xmlns:cc="http://creativecommons.org/ns#" xmlns:rdf="http://www.w3.org/1999/02/22-rdf-syntax-ns#" xmlns:svg="http://www.w3.org/2000/svg" xmlns="http://www.w3.org/2000/svg" xmlns:sodipodi="http://sodipodi.sourceforge.net/DTD/sodipodi-0.dtd" xmlns:inkscape="http://www.inkscape.org/namespaces/inkscape" version="1.0" width="1024.000000pt" height="1024.000000pt" viewBox="0 0 1024.000000 1024.000000" preserveAspectRatio="xMidYMid meet" id="svg2" inkscape:version="0.48.5 r10040" sodipodi:docname="sym1195991.svg">
  <defs id="defs48" />
  <sodipodi:namedview pagecolor="#ffffff" bordercolor="#666666" borderopacity="1" objecttolerance="10" gridtolerance="10" guidetolerance="10" inkscape:pageopacity="0" inkscape:pageshadow="2" inkscape:window-width="1743" inkscape:window-height="1060" id="namedview46" showgrid="false" inkscape:zoom="1.475" inkscape:cx="773.76717" inkscape:cy="260.61573" inkscape:window-x="129" inkscape:window-y="188" inkscape:window-maximized="0" inkscape:current-layer="svg2" />
  <metadata id="metadata4">
Created by potrace 1.11, written by Peter Selinger 2001-2013
<rdf:RDF>
  <cc:Work rdf:about="">
    <dc:format>image/svg+xml</dc:format>
    <dc:type rdf:resource="http://purl.org/dc/dcmitype/StillImage" />
  </cc:Work>
</rdf:RDF>
</metadata>
  <path style="fill:#dcdcdc;stroke:none;fill-opacity:1" inkscape:connector-curvature="0" id="path22" d="m 700.8,373 c -23.1,2.2 -45.3,10.1 -65.1,23.3 -10.9,7.3 -28.1,24.1 -35,34.3 l -4.9,7.1 -8.9,0.7 c -44.8,3.4 -82.8,35.2 -94.6,79.1 -2.3,8.8 -2.6,12 -2.7,26 -0.1,13.8 0.3,17.3 2.3,25 5.2,20 14,35.5 28,49.6 15.8,15.8 33.2,25.2 55.1,29.6 6.3,1.3 18.2,1.5 76,1.4 67.5,-0.2 80.7,-0.7 92.5,-3.7 28,-7 49,-19 68.2,-38.7 11.7,-12.1 18.6,-22 25.9,-37.1 C 859.5,523.6 854,468.7 823.3,427.9 794.6,389.7 747.7,368.7 700.8,373 z m 32.2,58.6 c 23.9,6.1 44.8,24 54.9,46.9 5.6,12.6 7.7,33.3 5,48.1 -5.6,30.6 -32.3,57.6 -62.9,63.7 -10.2,2.1 -134,3.5 -144,1.7 -15.5,-2.8 -28.8,-13.1 -35.7,-27.7 -3.5,-7.2 -3.8,-8.6 -4.1,-18.3 -0.3,-8.8 0,-11.6 1.8,-17 5.5,-16.4 19.3,-29.1 35.9,-33 6.9,-1.6 21.1,-0.8 27.1,1.6 6.6,2.6 14.4,7.8 18.3,12.1 1.9,2.1 5.6,6.1 8.1,9 8.2,8.9 17.6,11.8 28.7,8.7 5.3,-1.5 7.3,-2.7 12,-7.3 4.6,-4.7 5.8,-6.7 7.3,-12 1.9,-6.8 1.6,-12.7 -1,-18.9 -3,-7.3 -15.7,-21.6 -26.1,-29.4 l -5.6,-4.3 5.9,-5.3 c 10.8,-9.8 24.9,-16.9 39.9,-19.8 8.7,-1.7 25.5,-1.1 34.5,1.2 z" />
  <path style="fill:#80d3ff;fill-opacity:1;stroke:none" d="m 387.9,684.6 c -6.49172,3.42736 -5.08642,11.86336 -5.70801,17.96074 -0.25553,8.44569 -0.45932,16.8929 -0.69199,25.33926 -10.43375,-6.21499 -20.23349,-13.74391 -31.64454,-18.09943 -5.61067,-2.4653 -11.29725,1.63113 -13.5371,6.72267 -2.71067,5.53404 -0.29381,12.68266 5.27085,15.38103 8.76949,6.32476 18.41863,11.31152 27.21079,17.59573 -2.24495,5.15905 -9.8732,7.35296 -14.37618,10.96921 -5.77457,3.82088 -12.20238,6.98341 -17.11642,11.90205 -5.53397,7.61925 1.04721,20.98162 10.92937,19.07703 9.71831,-2.85466 17.81549,-9.31784 26.5155,-14.30968 2.24925,-1.37954 4.49849,-2.75907 6.74773,-4.13861 0.33333,12.66667 0.66667,25.33333 1,38 3.20771,2.94013 6.18069,7.22581 11.14314,6.4948 4.96236,0.98766 8.80317,-2.10912 11.87347,-5.54121 1.93714,-1.54525 0.67727,-4.49378 1.1351,-6.68835 0.28277,-10.68841 0.56553,-21.37683 0.84829,-32.06524 9.51404,5.73829 18.59348,12.25973 28.52207,17.26196 5.63648,2.21519 13.13845,1.37281 16.12227,-4.602 3.83833,-6.14134 0.83837,-13.89857 -5.2189,-17.22861 C 437.94338,762.09594 428.08351,756.87748 419,750.5 c 10.41434,-7.36718 22.2396,-12.77285 31.875,-21.2125 7.38983,-6.99175 0.18107,-21.26372 -9.78948,-20.0572 -6.66372,1.65808 -12.34625,6.05294 -18.33571,9.31218 -5.08563,3.11532 -10.16618,6.23894 -15.24981,9.35752 -0.33472,-12.6333 -0.66803,-25.26663 -1,-37.9 -3.78534,-4.21616 -8.9751,-7.89692 -14.97031,-6.72812 -1.27819,0.20656 -2.5356,0.6254 -3.62969,1.32812 z" id="path28" inkscape:connector-curvature="0" />
  <path style="fill:#80d3ff;fill-opacity:1;stroke:none" d="m 601.9,684.6 c -6.49172,3.42736 -5.08642,11.86336 -5.70801,17.96074 -0.25553,8.44569 -0.45932,16.8929 -0.69199,25.33926 -10.43375,-6.21499 -20.23349,-13.74391 -31.64454,-18.09943 -5.61067,-2.4653 -11.29725,1.63113 -13.5371,6.72267 -2.71067,5.53404 -0.29381,12.68266 5.27085,15.38103 8.76949,6.32476 18.41863,11.31152 27.21079,17.59573 -2.24495,5.15905 -9.8732,7.35296 -14.37618,10.96921 -5.77457,3.82088 -12.20238,6.98341 -17.11642,11.90205 -5.53397,7.61925 1.04721,20.98162 10.92937,19.07703 9.71831,-2.85466 17.81549,-9.31784 26.5155,-14.30968 2.24925,-1.37954 4.49849,-2.75907 6.74773,-4.13861 0.33333,12.66667 0.66667,25.33333 1,38 3.20771,2.94013 6.18069,7.22581 11.14314,6.4948 4.96236,0.98766 8.80317,-2.10912 11.87347,-5.54121 1.93714,-1.54525 0.67727,-4.49378 1.1351,-6.68835 0.28277,-10.68841 0.56553,-21.37683 0.84829,-32.06524 9.51404,5.73829 18.59348,12.25973 28.52207,17.26196 5.63648,2.21519 13.13845,1.37281 16.12227,-4.602 3.83833,-6.14134 0.83837,-13.89857 -5.2189,-17.22861 C 651.94338,762.09594 642.08351,756.87748 633,750.5 c 10.41434,-7.36718 22.2396,-12.77285 31.875,-21.2125 7.38983,-6.99175 0.18107,-21.26372 -9.78948,-20.0572 -6.66372,1.65808 -12.34625,6.05294 -18.33571,9.31218 -5.08563,3.11532 -10.16618,6.23894 -15.24981,9.35752 -0.33472,-12.6333 -0.66803,-25.26663 -1,-37.9 -3.78534,-4.21616 -8.9751,-7.89692 -14.97031,-6.72812 -1.27819,0.20656 -2.5356,0.6254 -3.62969,1.32812 z" id="path30" inkscape:connector-curvature="0" />
  <path style="fill:#80d3ff;fill-opacity:1;stroke:none" d="m 815.9,684.6 c -6.49172,3.42736 -5.08642,11.86336 -5.70801,17.96074 -0.25553,8.44569 -0.45932,16.8929 -0.69199,25.33926 -10.43375,-6.21499 -20.23349,-13.74391 -31.64454,-18.09943 -5.61067,-2.4653 -11.29725,1.63113 -13.5371,6.72267 -2.71067,5.53404 -0.29381,12.68266 5.27085,15.38103 8.76949,6.32476 18.41863,11.31152 27.21079,17.59573 -2.24495,5.15905 -9.8732,7.35296 -14.37618,10.96921 -5.77457,3.82088 -12.20238,6.98341 -17.11642,11.90205 -5.53397,7.61925 1.04721,20.98162 10.92937,19.07703 9.71831,-2.85466 17.81549,-9.31784 26.5155,-14.30968 2.24925,-1.37954 4.49849,-2.75907 6.74773,-4.13861 0.33333,12.66667 0.66667,25.33333 1,38 3.20771,2.94013 6.18069,7.22581 11.14314,6.4948 4.96236,0.98766 8.80317,-2.10912 11.87347,-5.54121 1.93714,-1.54525 0.67727,-4.49378 1.1351,-6.68835 0.28277,-10.68841 0.56553,-21.37683 0.84829,-32.06524 9.51404,5.73829 18.59348,12.25973 28.52207,17.26196 5.63648,2.21519 13.13845,1.37281 16.12227,-4.602 3.83833,-6.14134 0.83837,-13.89857 -5.2189,-17.22861 C 865.94338,762.09594 856.08351,756.87748 847,750.5 c 10.41434,-7.36718 22.2396,-12.77285 31.875,-21.2125 7.38983,-6.99175 0.18107,-21.26372 -9.78948,-20.0572 -6.66372,1.65808 -12.34625,6.05294 -18.33571,9.31218 -5.08563,3.11532 -10.16618,6.23894 -15.24981,9.35752 -0.33472,-12.6333 -0.66803,-25.26663 -1,-37.9 -3.78534,-4.21616 -8.9751,-7.89692 -14.97031,-6.72812 -1.27819,0.20656 -2.5356,0.6254 -3.62969,1.32812 z" id="path32" inkscape:connector-curvature="0" />
  <path style="fill:#80d3ff;fill-opacity:1;stroke:none" d="m 289.8,794 c -4.01467,2.80042 -2.38316,8.27649 -2.95804,12.41702 -0.11815,4.49422 -0.22722,8.98867 -0.34196,13.48298 -6.86275,-3.9487 -13.2194,-9.21989 -20.96233,-11.32044 -5.75796,-0.72324 -9.51476,6.68595 -6.44893,11.26631 2.4157,3.39894 6.50881,5.03808 9.81064,7.45811 3.42351,2.1431 6.90636,4.21357 10.10062,6.69602 -6.35878,5.27395 -14.67623,8.07264 -20.00672,14.57542 -2.94178,4.58209 1.11289,10.80713 6.27092,10.97053 4.27285,-0.49855 7.66208,-3.56011 11.39609,-5.46831 3.46907,-2.05514 6.92455,-4.13386 10.33971,-6.27764 0.15398,7.66481 -0.36644,15.37761 0.39768,23.00968 1.68191,5.91474 11.29094,6.59592 13.6349,0.78244 1.45515,-4.49435 0.7583,-9.3429 0.96799,-14.00481 0.003,-3.19577 -0.004,-6.39154 -5.9e-4,-9.58731 6.95818,4.03055 13.43794,9.25659 21.29468,11.44296 5.9861,0.89371 9.96421,-7.17507 6.32637,-11.70934 -2.60706,-3.1359 -6.47576,-4.86038 -9.76528,-7.19382 C 316.51161,838.45228 313.11394,836.42801 310,834 c 6.23787,-4.8421 13.80772,-7.83335 19.61142,-13.2278 3.02745,-4.01856 1.21891,-11.48424 -4.2916,-12.03746 -6.49327,2.2e-4 -11.64002,4.51772 -17.0199,7.55642 -1.93331,1.20295 -3.86661,2.40589 -5.79992,3.60884 -0.54561,-7.94626 -0.10569,-16.03748 -1.75962,-23.85791 C 298.97875,792.00644 292.93691,791.01453 289.8,794 z" id="path34" inkscape:connector-curvature="0" />
  <path style="fill:#80d3ff;fill-opacity:1;stroke:none" d="m 503.8,794 c -4.01467,2.80042 -2.38316,8.27649 -2.95804,12.41702 -0.11815,4.49422 -0.22722,8.98867 -0.34196,13.48298 -6.86275,-3.9487 -13.2194,-9.21989 -20.96233,-11.32044 -5.75796,-0.72324 -9.51476,6.68595 -6.44893,11.26631 2.4157,3.39894 6.50881,5.03808 9.81064,7.45811 3.42351,2.1431 6.90636,4.21357 10.10062,6.69602 -6.35878,5.27395 -14.67623,8.07264 -20.00672,14.57542 -2.94178,4.58209 1.11289,10.80713 6.27092,10.97053 4.27285,-0.49855 7.66208,-3.56011 11.39609,-5.46831 3.46907,-2.05514 6.92455,-4.13386 10.33971,-6.27764 0.15398,7.66481 -0.36644,15.37761 0.39768,23.00968 1.68191,5.91474 11.29094,6.59592 13.6349,0.78244 1.45515,-4.49435 0.7583,-9.3429 0.96799,-14.00481 0.003,-3.19577 -0.004,-6.39154 -5.9e-4,-9.58731 6.95818,4.03055 13.43794,9.25659 21.29468,11.44296 5.9861,0.89371 9.96421,-7.17507 6.32637,-11.70934 -2.60706,-3.1359 -6.47576,-4.86038 -9.76528,-7.19382 C 530.51161,838.45228 527.11394,836.42801 524,834 c 6.23787,-4.8421 13.80772,-7.83335 19.61142,-13.2278 3.02745,-4.01856 1.21891,-11.48424 -4.2916,-12.03746 -6.49327,2.2e-4 -11.64002,4.51772 -17.0199,7.55642 -1.93331,1.20295 -3.86661,2.40589 -5.79992,3.60884 -0.54561,-7.94626 -0.10569,-16.03748 -1.75962,-23.85791 C 512.97875,792.00644 506.93691,791.01453 503.8,794 z" id="path36" inkscape:connector-curvature="0" />
  <path style="fill:#80d3ff;fill-opacity:1;stroke:none" d="m 717.8,794 c -4.01467,2.80042 -2.38316,8.27649 -2.95804,12.41702 -0.11815,4.49422 -0.22722,8.98867 -0.34196,13.48298 -6.86275,-3.9487 -13.2194,-9.21989 -20.96233,-11.32044 -5.75796,-0.72324 -9.51476,6.68595 -6.44893,11.26631 2.4157,3.39894 6.50881,5.03808 9.81064,7.45811 3.42351,2.1431 6.90636,4.21357 10.10062,6.69602 -6.35878,5.27395 -14.67623,8.07264 -20.00672,14.57542 -2.94178,4.58209 1.11289,10.80713 6.27092,10.97053 4.27285,-0.49855 7.66208,-3.56011 11.39609,-5.46831 3.46907,-2.05514 6.92455,-4.13386 10.33971,-6.27764 0.15398,7.66481 -0.36644,15.37761 0.39768,23.00968 1.68191,5.91474 11.29094,6.59592 13.6349,0.78244 1.45515,-4.49435 0.7583,-9.3429 0.96799,-14.00481 0.003,-3.19577 -0.004,-6.39154 -5.9e-4,-9.58731 6.95818,4.03055 13.43794,9.25659 21.29468,11.44296 5.9861,0.89371 9.96423,-7.17506 6.32637,-11.70934 -2.60706,-3.1359 -6.47576,-4.86038 -9.76528,-7.19382 C 744.51161,838.45228 741.11394,836.42801 738,834 c 6.23787,-4.8421 13.80772,-7.83335 19.61142,-13.2278 3.02745,-4.01856 1.21891,-11.48424 -4.2916,-12.03746 -6.49327,2.2e-4 -11.64002,4.51772 -17.0199,7.55642 -1.93331,1.20295 -3.86661,2.40589 -5.79992,3.60884 -0.54561,-7.94626 -0.10569,-16.03748 -1.75962,-23.85791 C 726.97875,792.00644 720.93691,791.01453 717.8,794 z" id="path38" inkscape:connector-curvature="0" />
  <path style="fill:#80d3ff;fill-opacity:1;stroke:none" d="m 405,847 c -2.99422,3.50481 -1.54648,8.4335 -2.01791,12.62205 -0.0231,4.12828 0.15173,8.28186 -0.48209,12.37795 -7.07547,-3.46211 -13.16626,-9.1135 -20.9567,-10.97576 -6.02464,-0.45644 -10.24314,8.37146 -5.45452,12.43188 5.47975,5.10172 12.58471,7.90947 18.41122,12.54388 -3.88201,4.21663 -9.3364,6.49079 -13.92645,9.81872 -3.25974,2.13406 -7.79043,4.83383 -6.29222,9.42629 0.61898,3.44897 3.78771,7.2772 7.56923,6.54648 7.16087,-2.3388 13.09746,-7.22713 19.8525,-10.36895 2.65206,2.177 0.50139,7.06028 1.32667,10.32726 0.12033,4.31265 -0.63183,8.98556 1.28334,12.98793 2.73476,4.23964 10.25196,4.43656 12.33913,-0.53415 2.19081,-4.86459 0.94812,-10.34034 1.40482,-15.49039 0.0608,-2.54898 -0.91246,-9.93655 3.23339,-6.22605 5.91892,3.34732 11.45424,7.76355 18.13209,9.47417 6.19316,0.49635 10.39814,-8.80631 5.4896,-12.85214 C 439.00309,894.3424 432.12815,890.96427 426,886.5 c 6.31677,-4.81689 13.98773,-7.77516 19.6835,-13.39964 3.66464,-4.58492 -0.67222,-13.00375 -6.62442,-11.91423 -7.28189,2.18138 -13.31166,7.17059 -19.99846,10.46364 -2.17552,-2.60966 -0.44697,-7.06465 -1.09103,-10.41896 -0.10082,-4.28424 0.61477,-8.93378 -1.26694,-12.90813 C 414.15631,844.69742 408.24014,843.80264 405,847 z" id="path40" inkscape:connector-curvature="0" />
  <path style="fill:#80d3ff;fill-opacity:1;stroke:none" d="m 619,847 c -2.99422,3.50481 -1.54648,8.4335 -2.01791,12.62205 -0.0231,4.12828 0.15173,8.28186 -0.48209,12.37795 -7.07547,-3.46211 -13.16626,-9.1135 -20.9567,-10.97576 -6.02464,-0.45644 -10.24314,8.37146 -5.45452,12.43188 5.47975,5.10172 12.58471,7.90947 18.41122,12.54388 -3.88201,4.21663 -9.3364,6.49079 -13.92645,9.81872 -3.25974,2.13406 -7.79043,4.83383 -6.29222,9.42629 0.61898,3.44897 3.78771,7.2772 7.56923,6.54648 7.16087,-2.3388 13.09746,-7.22713 19.8525,-10.36895 2.65206,2.177 0.50139,7.06028 1.32667,10.32726 0.12033,4.31265 -0.63183,8.98556 1.28334,12.98793 2.73476,4.23964 10.25196,4.43656 12.33913,-0.53415 2.19081,-4.86459 0.94812,-10.34034 1.40482,-15.49039 0.0608,-2.54898 -0.91246,-9.93655 3.23339,-6.22605 5.91892,3.34732 11.45424,7.76355 18.13209,9.47417 6.19316,0.49635 10.39814,-8.80631 5.4896,-12.85214 C 653.00309,894.3424 646.12815,890.96427 640,886.5 c 6.31677,-4.81689 13.98773,-7.77516 19.6835,-13.39964 3.66464,-4.58492 -0.67222,-13.00375 -6.62442,-11.91423 -7.28189,2.18138 -13.31166,7.17059 -19.99846,10.46364 -2.17552,-2.60966 -0.44697,-7.06465 -1.09103,-10.41896 -0.10082,-4.28424 0.61477,-8.93378 -1.26694,-12.90813 C 628.15631,844.69742 622.24014,843.80264 619,847 z" id="path42" inkscape:connector-curvature="0" />
  <path style="fill:#80d3ff;fill-opacity:1;stroke:none" d="m 833,847 c -2.99422,3.50481 -1.54648,8.4335 -2.01791,12.62205 -0.0231,4.12828 0.15173,8.28186 -0.48209,12.37795 -7.07547,-3.46211 -13.16626,-9.1135 -20.9567,-10.97576 -6.02464,-0.45644 -10.24314,8.37146 -5.45452,12.43188 5.47975,5.10172 12.58471,7.90947 18.41122,12.54388 -3.88201,4.21663 -9.3364,6.49079 -13.92645,9.81872 -3.25974,2.13406 -7.79043,4.83383 -6.29222,9.42629 0.61898,3.44897 3.78771,7.2772 7.56923,6.54648 7.16087,-2.3388 13.09746,-7.22713 19.8525,-10.36895 2.65206,2.177 0.50139,7.06028 1.32667,10.32726 0.12033,4.31265 -0.63183,8.98556 1.28334,12.98793 2.73476,4.23964 10.25196,4.43656 12.33913,-0.53415 2.19081,-4.86459 0.94812,-10.34034 1.40482,-15.49039 0.0608,-2.54898 -0.91246,-9.93655 3.23339,-6.22605 5.91892,3.34732 11.45424,7.76355 18.13209,9.47417 6.19316,0.49635 10.39814,-8.80631 5.4896,-12.85214 C 867.00309,894.3424 860.12815,890.96427 854,886.5 c 6.31677,-4.81689 13.98773,-7.77516 19.6835,-13.39964 3.66464,-4.58492 -0.67222,-13.00375 -6.62442,-11.91423 -7.28189,2.18138 -13.31166,7.17059 -19.99846,10.46364 -2.17552,-2.60966 -0.44697,-7.06465 -1.09103,-10.41896 -0.10082,-4.28424 0.61477,-8.93378 -1.26694,-12.90813 C 842.15631,844.69742 836.24014,843.80264 833,847 z" id="path44" inkscape:connector-curvature="0" />
  <path style="fill:#fedc00;fill-opacity:1;stroke:none" inkscape:connector-curvature="0" id="path8-3" d="m 428.09006,67.508468 c -5.2,1.6 -12.8,9 -14.9,14.5 -1.7,4.300002 -1.8,8.900002 -1.8,60.200002 0,61.4 -0.3,58.6 6.6,66.5 11.7,13.2 32.8,10.5 41.1,-5.4 l 2.8,-5.3 0,-56.2 0,-56.1 -2.4,-5.000002 c -2.8,-6 -6.6,-9.7 -12.6,-12.4 -5,-2.3 -13.2,-2.6 -18.8,-0.8 z" />
  <path style="fill:#fedc00;fill-opacity:1;stroke:none" inkscape:connector-curvature="0" id="path10-1" d="m 277.89006,107.70847 c -13.6,4.4 -21,21.1 -15.1,34.1 2.6,5.6 50.7,89.1 53.8,93.1 5.8,7.8 18.6,11.4 28,7.8 14,-5.4 20.8,-21.8 14.3,-34.5 -3.8,-7.6 -51.1,-89.3 -53.5,-92.5 -5.4,-7.2 -18.3,-11 -27.5,-8 z" />
  <path style="fill:#fedc00;fill-opacity:1;stroke:none" inkscape:connector-curvature="0" id="path12-9" d="m 579.79006,107.70847 c -8.8,2.8 -11.1,5.9 -39,54.4 -14.4,25 -26.8,47.4 -27.6,49.9 -2.9,8.4 -0.1,18.4 6.9,25.3 9.4,9.1 25.5,9.1 34.5,-0.1 3.8,-3.8 53.1,-87.9 56.5,-96.3 7.8,-19.4 -11.3,-39.6 -31.3,-33.2 z" />
  <path style="fill:#fedc00;fill-opacity:1;stroke:none" inkscape:connector-curvature="0" id="path14-9" d="m 164.09006,219.80847 c -15.1,7.5 -18.8,26.9 -7.4,39.3 5.4,5.8 93.9,56.7 101.4,58.3 10.3,2.1 21.8,-3.6 27.1,-13.6 1.6,-3.1 2.1,-5.9 2.1,-11.1 0.1,-8 -1.9,-12.9 -6.9,-17.9 -3,-2.9 -91,-54.3 -96.9,-56.6 -5.1,-1.9 -13.8,-1.2 -19.4,1.6 z" />
  <path style="fill:#fedc00;fill-opacity:1;stroke:none" inkscape:connector-curvature="0" id="path16-3" d="m 687.39006,219.50847 c -8.7,4.3 -91.9,52.7 -94.2,54.9 -1.3,1.2 -3.4,4.4 -4.8,7.2 -2.8,5.7 -3.3,13.7 -1.1,19.7 4.1,11.6 17.9,19 29.5,15.9 4.1,-1.1 91.10001,-50.6 97.80001,-55.6 1.7,-1.3 4.4,-5 6,-8.1 4.9,-10.1 3.1,-21.4 -4.6,-29.1 -4.9,-4.8 -8.8,-6.5 -16.60001,-6.9 -5.9,-0.3 -7.8,0 -12,2 z" />
  <path style="fill:#fedc00;fill-opacity:1;stroke:none" inkscape:connector-curvature="0" id="path18-6" d="m 423.09006,269.20847 c -48.5,6.1 -89.2,38.8 -104.1,83.6 -5,15.1 -6.5,24.4 -6.5,40.4 0,16 1.5,25.3 6.5,40.4 13.6,40.8 50,72.9 92.4,81.5 5.5,1.1 14.7,2.3 20.5,2.7 l 10.6,0.7 2.2,-13.2 c 7,-42.6 28.9,-78.2 64.9,-105.3 9.2,-6.9 33.9,-19.6 43.6,-22.4 l 6.8,-1.9 -0.6,-4.5 c -1.2,-8 -5.5,-21.3 -10,-30.8 -17.3,-36.5 -50.4,-62.2 -89.7,-69.7 -10.2,-1.9 -27.4,-2.6 -36.6,-1.5 z" />
  <path style="fill:#fedc00;fill-opacity:1;stroke:none" inkscape:connector-curvature="0" id="path20-0" d="m 125.89006,369.50847 c -4.9,1.6 -13.3,10.2 -14.8,15.3 -3,10.1 -0.9,18.8 6.3,25.9 3.1,3.2 6.5,5.5 9.1,6.3 3,0.9 18.9,1.2 59.5,1.2 l 55.4,0 5.1,-2.4 c 5.9,-2.7 10.7,-8.2 12.9,-14.5 4.1,-12.1 -1.5,-25.4 -12.9,-30.7 l -5.1,-2.4 -56,0.1 c -37.8,0.1 -57.1,0.5 -59.5,1.2 z" />
  <path style="fill:#fedc00;fill-opacity:1;stroke:none" inkscape:connector-curvature="0" id="path24-7" d="m 255.39006,469.60847 c -2.2,0.7 -24.5,13.1 -49.5,27.5 -32.4,18.7 -46.6,27.3 -49.2,30.2 -14.8,16.1 -3.3,41.9 18.6,41.9 4.2,0 7.5,-0.7 10.7,-2.3 11.6,-5.6 91.4,-52.6 94.4,-55.6 5.2,-5.1 7,-9.6 6.9,-17.6 0,-5.2 -0.5,-8 -2.1,-11.1 -3.1,-5.8 -9.3,-11 -15.4,-12.8 -6.2,-1.9 -9,-1.9 -14.4,-0.2 z" />
  <path style="fill:#fedc00;fill-opacity:1;stroke:none" inkscape:connector-curvature="0" id="path26-1" d="m 327.79006,543.60847 c -4.7,1.7 -9.3,5 -11.7,8.4 -3,4.3 -51.2,88.1 -53.3,92.6 -4.3,9.5 -1.2,22.9 6.9,29.6 4.8,4 13.1,6.4 19,5.6 5.7,-0.8 13.8,-5.2 16.7,-9.1 2.4,-3.2 49.7,-84.9 53.5,-92.5 4.4,-8.6 2.8,-19.9 -3.9,-27.3 -6.8,-7.6 -18,-10.6 -27.2,-7.3 z" />
  <g transform="matrix(0.9339086,0,0,0.9339086,48.819488,21.049259)" id="g2993">
    <path d="m 759.47595,113.61818 c -37.46522,63.40714 -76.36686,129.03492 -122.84896,199.79893 -8.75513,13.32879 -9.42628,17.27587 -7.06971,22.42642 1.33197,2.8972 2.86887,4.18484 5.8402,5.25786 3.07378,1.07304 31.04523,1.28764 132.88999,1.07304 128.48424,-0.3219 128.89408,-0.3219 131.66049,-2.57529 3.38117,-2.57527 4.71314,-6.76009 3.48363,-11.05224 -1.22952,-4.50673 -126.74244,-209.24165 -130.73836,-213.42647 -3.99592,-3.97023 -10.26772,-6.49419 -13.21728,-1.50225 z" id="path14-8" inkscape:connector-curvature="0" sodipodi:nodetypes="ssccccccs" style="fill:#ba381a;fill-opacity:1;stroke:none" />
    <path inkscape:transform-center-y="65.053824" inkscape:transform-center-x="45.961941" inkscape:connector-curvature="0" id="path2986-0" d="m 766.69898,316.178 c -2.53144,-6.40985 -1.42158,-13.54665 -2.33111,-20.24555 -3.87423,0.39898 -7.20167,6.46327 -11.24501,8.55158 -2.65419,3.36684 -8.02377,1.80581 -3.7735,-2.07071 4.85208,-5.90381 10.22114,-11.35592 15.35683,-17.01004 -0.091,-7.47706 0.25946,-14.98103 -0.37048,-22.43522 -6.49556,2.65856 -12.73313,6.13475 -18.60014,9.992 -3.84846,7.71776 -4.48726,16.8151 -9.24375,24.10261 -5.98883,2.15316 -2.17036,-8.67804 -1.26146,-11.84741 0.764,-2.59354 3.28319,-9.64508 -1.92094,-5.63102 -5.13956,2.41695 -9.98938,5.4882 -15.33574,7.43924 -4.85486,-4.08761 5.13309,-7.81943 8.25017,-10.16414 2.50072,-1.5314 10.2779,-5.23104 3.27141,-6.42608 -4.23229,-2.19188 -10.56179,-2.30295 -13.11167,-6.54602 3.35157,-5.26483 10.41582,0.20468 15.12373,0.73741 3.49542,1.08557 6.99003,2.17373 10.4851,3.26039 5.45207,-3.30633 11.45592,-5.92709 16.27614,-10.09238 -0.27081,-4.39448 -6.625,-5.43842 -9.85438,-7.79443 -2.36554,-1.07224 -4.66846,-2.8226 -7.07156,-3.48811 -7.67972,2.1771 -15.20521,5.50225 -23.26284,5.79916 -5.13493,-3.53677 4.82394,-6.25994 7.94293,-7.3623 3.15992,-0.82503 9.62425,-3.42069 3.3584,-5.59714 -4.4248,-3.14325 -10.2492,-4.94294 -13.42411,-9.51649 1.98317,-5.01094 9.12591,1.45237 12.836,2.51809 2.4881,1.31946 9.844,5.4176 6.84092,-0.73032 -0.7188,-4.89947 -3.99029,-10.14493 -2.38582,-14.96534 5.90161,-1.74977 6.01289,7.75471 7.89084,11.43425 1.34582,4.4078 2.63762,8.83188 3.9569,13.24767 6.44416,3.32453 12.88832,6.64906 19.33249,9.97358 0.10053,-7.76639 0.20105,-15.53278 0.30157,-23.29917 -5.58644,-5.87756 -11.70555,-11.32382 -16.59081,-17.81059 -0.19037,-6.87497 7.96374,1.68747 10.29088,3.76093 2.01108,1.81472 3.99937,3.65447 5.99836,5.48246 0.53771,-7.26204 0.0824,-14.69255 1.78771,-21.79381 4.88012,-3.94348 3.70233,7.25159 3.92855,10.26084 0.45672,3.3124 -0.60755,9.74703 1.03857,11.16083 4.39212,-3.6699 7.87246,-8.50739 12.79237,-11.48501 6.72048,1.70243 -2.65689,7.66795 -4.4521,10.62287 -3.0283,3.2495 -6.06196,6.494 -9.09248,9.74143 0.22874,7.85663 0.20917,15.72723 0.72796,23.57037 6.00775,-3.36487 11.87881,-6.96845 17.8125,-10.46188 2.34558,-8.01497 4.0922,-16.25309 7.23825,-23.99753 6.96472,-2.9076 2.09337,8.20069 1.57814,11.62697 -1.15362,3.1504 -2.58047,9.04095 2.52989,5.21885 5.12132,-2.1273 9.644,-5.9596 15.11363,-7.06126 5.19484,4.10154 -5.03434,7.54493 -7.97953,9.93204 -2.71868,1.77422 -10.97557,5.20511 -3.68996,6.83343 4.13171,2.38384 13.12537,1.8661 12.41163,8.25537 -5.01505,0.91796 -10.78617,-2.32417 -16.06179,-3.17701 -3.12163,-0.65731 -6.3892,-1.84397 -9.51465,-1.90435 -5.58307,3.09193 -11.50798,5.67649 -16.66596,9.45134 1.60655,3.53327 7.75326,5.04586 11.17508,7.59633 4.86713,4.34637 10.78412,2.67336 16.28324,0.56492 4.63941,-0.35144 13.83144,-7.20358 15.41032,-0.33014 -4.75707,3.7049 -11.21524,4.28635 -16.23614,7.5314 5.05987,4.65969 11.93119,7.08917 16.61767,12.14789 -0.58832,5.33557 -8.62193,-0.95432 -11.81801,-2.0175 -3.51998,-1.74721 -10.72078,-6.56445 -7.48873,0.81514 0.35669,4.81431 4.57378,10.7999 1.25105,14.97228 -4.39821,-1.60562 -4.32034,-9.35975 -6.52744,-13.47572 -2.1386,-4.7641 -1.50909,-11.47853 -7.31825,-13.57613 -4.60571,-2.61228 -9.07694,-5.745 -14.08295,-7.46609 -0.69089,7.20118 -0.73851,14.44895 -1.07468,21.67381 5.22575,5.89258 11.06779,11.31342 15.45479,17.88596 2.6886,6.88535 -6.15216,1.57792 -7.73471,-1.17737 -2.71148,-1.89492 -8.37761,-10.77724 -7.50293,-2.74337 -0.41978,6.04032 0.65209,12.38113 -1.35522,18.18488 -0.57855,0.99889 -1.91968,-0.0351 -2.28517,-0.64669 z" style="fill:#ffffff;fill-opacity:1;stroke:none" />
  </g>
</svg>
