<?xml version="1.0" encoding="UTF-8" standalone="no"?>
<svg
   xmlns:dc="http://purl.org/dc/elements/1.1/"
   xmlns:cc="http://creativecommons.org/ns#"
   xmlns:rdf="http://www.w3.org/1999/02/22-rdf-syntax-ns#"
   xmlns:svg="http://www.w3.org/2000/svg"
   xmlns="http://www.w3.org/2000/svg"
   xmlns:sodipodi="http://sodipodi.sourceforge.net/DTD/sodipodi-0.dtd"
   xmlns:inkscape="http://www.inkscape.org/namespaces/inkscape"
   version="1.0"
   width="1024.000000pt"
   height="1024.000000pt"
   viewBox="0 0 1024.000000 1024.000000"
   preserveAspectRatio="xMidYMid meet"
   id="svg2"
   inkscape:version="0.48.2 r9819"
   sodipodi:docname="1249999.png.svg">
  <defs
     id="defs40" />
  <sodipodi:namedview
     pagecolor="#ffffff"
     bordercolor="#666666"
     borderopacity="1"
     objecttolerance="10"
     gridtolerance="10"
     guidetolerance="10"
     inkscape:pageopacity="0"
     inkscape:pageshadow="2"
     inkscape:window-width="1262"
     inkscape:window-height="807"
     id="namedview38"
     showgrid="false"
     inkscape:zoom="0.184375"
     inkscape:cx="-553.22034"
     inkscape:cy="640"
     inkscape:window-x="0"
     inkscape:window-y="0"
     inkscape:window-maximized="0"
     inkscape:current-layer="svg2" />
  <metadata
     id="metadata4">
Created by potrace 1.11, written by Peter Selinger 2001-2013
<rdf:RDF>
  <cc:Work
     rdf:about="">
    <dc:format>image/svg+xml</dc:format>
    <dc:type
       rdf:resource="http://purl.org/dc/dcmitype/StillImage" />
  </cc:Work>
</rdf:RDF>
</metadata>
  <g
     transform="translate(0.000000,1024.000000) scale(0.100000,-0.100000)"
     fill="#000000"
     stroke="none"
     id="g6">
    <path
       d="M3835 9755 c-51 -18 -110 -81 -124 -131 -15 -52 -15 -905 0 -957 5 -21 24 -54 42 -74 101 -115 283 -88 348 52 17 37 19 73 19 490 0 284 -4 464 -11 488 -30 111 -159 173 -274 132z"
       id="path8"
       style="fill:#fedc00;fill-opacity:1" />
    <path
       d="M2601 9425 c-120 -37 -179 -177 -123 -290 51 -104 432 -752 457 -777 127 -131 355 -30 355 157 0 43 -25 91 -249 480 -216 375 -245 414 -325 434 -54 13 -60 13 -115 -4z"
       id="path10"
       style="fill:#fedc00;fill-opacity:1" />
    <path
       d="M5103 9428 c-77 -17 -107 -58 -329 -443 -114 -198 -215 -378 -225 -400 -60 -131 44 -285 191 -285 62 0 106 17 145 57 37 37 455 759 473 817 31 99 -37 220 -141 251 -56 17 -55 17 -114 3z"
       id="path12"
       style="fill:#fedc00;fill-opacity:1" />
    <path
       d="M1663 8504 c-111 -56 -151 -188 -91 -296 28 -49 45 -60 476 -308 295 -169 362 -204 402 -208 196 -19 309 228 164 359 -16 14 -200 124 -409 245 -377 217 -380 218 -445 222 -46 2 -75 -2 -97 -14z"
       id="path14"
       style="fill:#fedc00;fill-opacity:1" />
    <path
       d="M6000 8513 c-33 -12 -765 -438 -793 -462 -63 -53 -84 -157 -48 -236 23 -51 79 -101 131 -116 82 -25 114 -11 534 231 354 204 392 229 417 269 54 85 47 180 -19 253 -20 23 -51 47 -69 55 -32 13 -124 17 -153 6z"
       id="path16"
       style="fill:#fedc00;fill-opacity:1" />
    <path
       d="M3805 8093 c-360 -46 -660 -255 -815 -568 -146 -292 -144 -629 4 -923 25 -49 41 -70 49 -65 7 4 46 29 87 56 98 64 272 148 386 186 76 25 173 47 330 77 12 2 47 34 77 72 192 234 486 457 770 584 62 28 114 52 116 54 9 9 -102 156 -169 225 -216 218 -550 339 -835 302z"
       id="path18"
       style="fill:#fedc00;fill-opacity:1" />
    <path
       d="M1352 7267 c-146 -53 -189 -237 -81 -346 21 -21 55 -43 77 -49 28 -9 174 -12 493 -12 421 0 457 2 494 19 52 24 91 66 110 120 22 62 19 100 -12 162 -30 57 -71 92 -132 109 -54 15 -907 12 -949 -3z"
       id="path20"
       style="fill:#fedc00;fill-opacity:1" />
    <path
       d="M5455 7200 c-505 -41 -977 -322 -1255 -748 l-51 -79 -122 -6 c-333 -15 -626 -149 -850 -387 -170 -180 -281 -400 -322 -638 -19 -110 -19 -316 0 -428 78 -442 400 -816 826 -958 208 -70 117 -67 1984 -64 l1680 3 97 27 c201 55 342 139 493 292 144 147 222 286 276 492 20 76 23 113 23 249 0 140 -4 172 -27 257 -109 406 -439 712 -846 783 -46 8 -105 15 -131 15 l-47 0 -33 93 c-137 394 -438 734 -821 928 -256 129 -582 192 -874 169z m308 -535 c393 -59 733 -332 883 -708 14 -37 25 -70 23 -72 -2 -2 -39 -26 -81 -54 -122 -79 -166 -157 -155 -274 14 -153 163 -261 312 -228 30 7 78 28 107 48 159 110 318 136 494 82 163 -50 315 -213 353 -379 15 -63 13 -206 -3 -265 -46 -172 -175 -310 -350 -374 l-71 -26 -1650 0 c-1860 0 -1694 -7 -1870 79 -366 180 -503 644 -295 997 99 168 270 293 458 335 113 25 293 16 392 -21 145 -52 239 -126 377 -292 54 -65 118 -96 199 -96 180 -1 308 175 249 343 -42 119 -258 342 -422 436 -18 10 -33 21 -33 24 0 13 111 136 166 183 255 218 584 312 917 262z"
       id="path22"
       style="fill:#dcdcdc;fill-opacity:1" />
    <path
       d="M2410 6436 c-19 -6 -201 -108 -405 -225 -395 -226 -432 -254 -455 -335 -19 -68 7 -164 56 -207 54 -47 140 -68 199 -49 21 7 205 108 409 226 377 217 421 248 452 321 46 106 -26 243 -142 272 -54 14 -70 13 -114 -3z"
       id="path24"
       style="fill:#fedc00;fill-opacity:1" />
    <path
       d="M3051 3144 c-190 -98 -332 -188 -413 -263 -160 -147 -168 -365 -17 -512 134 -131 356 -125 485 13 93 99 114 189 121 508 2 129 1 258 -4 287 l-8 52 -164 -85z m-11 -424 c-8 -81 -18 -130 -34 -166 -66 -144 -265 -128 -306 26 -27 101 26 166 245 300 l100 61 3 -53 c2 -29 -2 -105 -8 -168z"
       id="path26"
       style="fill:#80d3ff;fill-opacity:1" />
    <path
       d="M4335 3124 c-652 -343 -826 -510 -829 -794 -1 -114 24 -197 86 -290 141 -212 436 -284 662 -162 155 84 239 219 281 454 28 153 33 900 6 897 -3 0 -96 -47 -206 -105z m-58 -521 c-10 -285 -47 -410 -139 -471 -57 -37 -166 -44 -225 -13 -57 29 -109 93 -123 152 -30 124 34 221 233 353 73 48 245 153 256 155 2 1 1 -79 -2 -176z"
       id="path28"
       style="fill:#80d3ff;fill-opacity:1" />
    <path
       d="M6691 3144 c-190 -98 -332 -188 -413 -263 -160 -147 -168 -365 -17 -512 134 -131 356 -125 485 13 93 99 114 189 121 508 2 129 1 258 -4 287 l-8 52 -164 -85z m-11 -424 c-8 -81 -18 -130 -34 -166 -66 -144 -265 -128 -306 26 -27 101 26 166 245 300 l100 61 3 -53 c2 -29 -2 -105 -8 -168z"
       id="path30"
       style="fill:#80d3ff;fill-opacity:1" />
    <path
       d="M7975 3124 c-652 -343 -826 -510 -829 -794 -1 -114 24 -197 86 -290 141 -212 436 -284 662 -162 155 84 239 219 281 454 28 153 33 900 6 897 -3 0 -96 -47 -206 -105z m-58 -521 c-10 -285 -47 -410 -139 -471 -57 -37 -166 -44 -225 -13 -57 29 -109 93 -123 152 -30 124 34 221 233 353 73 48 245 153 256 155 2 1 1 -79 -2 -176z"
       id="path32"
       style="fill:#80d3ff;fill-opacity:1" />
    <path
       d="M3110 2199 c-647 -334 -840 -518 -840 -804 0 -138 50 -256 149 -356 220 -219 579 -194 766 54 113 150 153 417 140 935 -4 149 -10 272 -14 272 -3 0 -94 -46 -201 -101z m-69 -579 c-17 -237 -42 -330 -108 -392 -105 -100 -288 -69 -355 61 -57 109 -27 219 86 313 68 58 188 137 304 204 l77 44 3 -33 c2 -17 -1 -106 -7 -197z"
       id="path34"
       style="fill:#80d3ff;fill-opacity:1" />
    <path
       d="M6750 2199 c-647 -334 -840 -518 -840 -804 0 -138 50 -256 149 -356 220 -219 579 -194 766 54 113 150 153 417 140 935 -4 149 -10 272 -14 272 -3 0 -94 -46 -201 -101z m-69 -579 c-17 -237 -42 -330 -108 -392 -105 -100 -288 -69 -355 61 -57 109 -27 219 86 313 68 58 188 137 304 204 l77 44 3 -33 c2 -17 -1 -106 -7 -197z"
       id="path36"
       style="fill:#80d3ff;fill-opacity:1" />
  </g>
</svg>
