<?xml version="1.0" encoding="UTF-8" standalone="no"?>
<svg xmlns:dc="http://purl.org/dc/elements/1.1/" xmlns:cc="http://creativecommons.org/ns#" xmlns:rdf="http://www.w3.org/1999/02/22-rdf-syntax-ns#" xmlns:svg="http://www.w3.org/2000/svg" xmlns="http://www.w3.org/2000/svg" xmlns:sodipodi="http://sodipodi.sourceforge.net/DTD/sodipodi-0.dtd" xmlns:inkscape="http://www.inkscape.org/namespaces/inkscape" version="1.0" width="1024.000000pt" height="1024.000000pt" viewBox="0 0 1024.000000 1024.000000" preserveAspectRatio="xMidYMid meet" id="svg2" inkscape:version="0.48.5 r10040" sodipodi:docname="1119991.svg">
  <defs id="defs32" />
  <sodipodi:namedview pagecolor="#a4ffff" bordercolor="#666666" borderopacity="1" objecttolerance="10" gridtolerance="10" guidetolerance="10" inkscape:pageopacity="0.69019608" inkscape:pageshadow="2" inkscape:window-width="1756" inkscape:window-height="1143" id="namedview30" showgrid="false" inkscape:zoom="1.0429825" inkscape:cx="513.44189" inkscape:cy="601.82815" inkscape:window-x="186" inkscape:window-y="103" inkscape:window-maximized="0" inkscape:current-layer="svg2" />
  <metadata id="metadata4">
Created by potrace 1.11, written by Peter Selinger 2001-2013
<rdf:RDF>
  <cc:Work rdf:about="">
    <dc:format>image/svg+xml</dc:format>
    <dc:type rdf:resource="http://purl.org/dc/dcmitype/StillImage" />
  </cc:Work>
</rdf:RDF>
</metadata>
  <path inkscape:connector-curvature="0" style="fill:#fedc00;fill-opacity:1;stroke:none" id="path8" d="m 428.2,71.3 c -5.2,1.6 -12.8,9 -14.9,14.5 -1.7,4.3 -1.8,8.9 -1.8,60.2 0,61.4 -0.3,58.6 6.6,66.5 11.7,13.2 32.8,10.5 41.1,-5.4 l 2.8,-5.3 0,-56.2 0,-56.1 -2.4,-5 c -2.8,-6 -6.6,-9.7 -12.6,-12.4 -5,-2.3 -13.2,-2.6 -18.8,-0.8 z" />
  <path inkscape:connector-curvature="0" style="fill:#fedc00;fill-opacity:1;stroke:none" id="path10" d="m 278,111.5 c -13.6,4.4 -21,21.1 -15.1,34.1 2.6,5.6 50.7,89.1 53.8,93.1 5.8,7.8 18.6,11.4 28,7.8 14,-5.4 20.8,-21.8 14.3,-34.5 -3.8,-7.6 -51.1,-89.3 -53.5,-92.5 -5.4,-7.2 -18.3,-11 -27.5,-8 z" />
  <path inkscape:connector-curvature="0" style="fill:#fedc00;fill-opacity:1;stroke:none" id="path12" d="m 579.9,111.5 c -8.8,2.8 -11.1,5.9 -39,54.4 -14.4,25 -26.8,47.4 -27.6,49.9 -2.9,8.4 -0.1,18.4 6.9,25.3 9.4,9.1 25.5,9.1 34.5,-0.1 3.8,-3.8 53.1,-87.9 56.5,-96.3 7.8,-19.4 -11.3,-39.6 -31.3,-33.2 z" />
  <path style="fill:#ba381a;fill-opacity:1;stroke:none" sodipodi:nodetypes="ssccccccssscccsscccccccscscccsccccsscccccscccscssssscccccsccccsscsscccccscccsccccccccccscscscsccccccccccss" inkscape:connector-curvature="0" id="path14" d="m 759.5,130.8 c -36.56589,59.09144 -74.5337,120.25238 -119.9,186.2 -8.54497,12.42157 -9.2,16.1 -6.9,20.9 1.3,2.7 2.8,3.9 5.7,4.9 3,1 30.3,1.2 129.7,1 125.4,-0.3 125.8,-0.3 128.5,-2.4 3.3,-2.4 4.6,-6.3 3.4,-10.3 -1.2,-4.2 -123.7,-195 -127.6,-198.9 -3.9,-3.7 -10.02123,-6.05217 -12.9,-1.4 z m 9.3,76.4 c 0.8,0.8 1.2,4.8 1.2,11.2 l 0,10 6.4,-6.3 c 5.6,-5.5 6.7,-6.2 8,-5.1 0.9,0.7 1.6,1.7 1.6,2.4 0,0.6 -3.6,4.7 -8,9.1 l -8.1,8.1 0.3,10.6 0.3,10.7 8.5,-4.8 8.5,-4.8 1.7,-5.9 c 0.9,-3.3 2.4,-8.5 3.3,-11.7 1.4,-4.9 2,-5.7 4.1,-5.7 3,0 3.1,2.1 0.4,11 -1.1,3.6 -2,6.6 -2,6.7 0,1 3.2,-0.3 10.2,-4.3 7.2,-4.1 8.2,-4.4 9.6,-3.1 2.4,2.5 0.9,4.2 -7.7,8.8 -4.5,2.3 -8.1,4.6 -8.1,5 0,0.4 2.6,1.5 5.8,2.4 3.1,0.8 6.7,2 8,2.5 2.2,1 3,4.4 1.2,5.5 -0.5,0.3 -5.6,-0.8 -11.4,-2.5 -5.7,-1.6 -11.1,-3 -12,-3 -1.8,0 -17.6,8.2 -17.6,9.1 0,0.4 3.9,2.7 8.8,5.2 l 8.7,4.5 11.5,-3.5 c 10.7,-3.3 11.5,-3.4 12.7,-1.7 1.9,2.6 0,4.1 -8.3,6.6 -4.1,1.1 -7.4,2.4 -7.4,2.7 0,0.4 3.7,2.7 8.2,5.1 5.1,2.8 8.4,5.2 8.6,6.4 0.8,3.8 -2.2,3.6 -10.7,-0.9 -4.6,-2.5 -8.7,-4.5 -9.1,-4.5 -0.5,0 0.3,3.7 1.7,8.1 2.2,7.4 2.3,8.3 0.9,9.7 -1.4,1.4 -1.8,1.4 -3,0.2 -1.1,-1.1 -7.6,-20.5 -7.6,-22.5 0,-0.4 -16.7,-9.5 -17.4,-9.5 -0.3,0 -0.6,4.6 -0.6,10.2 l 0,10.2 8.1,8.2 c 8.1,8.3 9.5,11.5 5.5,12.2 -1.2,0.3 -3.9,-1.6 -7.7,-5.4 l -5.9,-5.8 0,9.4 c 0,10.5 -0.9,13.2 -3.7,11.4 -1.5,-0.9 -1.9,-2.9 -2.3,-10.7 l -0.5,-9.7 -6.2,5.5 c -6.2,5.6 -10.3,7.1 -10.3,3.7 0,-0.9 3.8,-5.5 8.5,-10.2 l 8.5,-8.5 0,-10.2 c 0,-5.7 -0.2,-10.3 -0.6,-10.3 -0.3,0 -4.5,2.1 -9.4,4.7 l -8.8,4.8 -3.4,10.9 c -3.6,11.5 -5.6,14.2 -8.3,11.6 -1.3,-1.4 -1.2,-2.4 1,-9.5 1.3,-4.4 2.3,-8.1 2.1,-8.3 -0.2,-0.2 -4.1,1.8 -8.7,4.3 -8.8,4.8 -11.2,5.3 -11.7,2 -0.2,-1.7 1.4,-3 8.3,-6.8 4.7,-2.6 8.5,-5 8.5,-5.2 0,-0.3 -3.3,-1.4 -7.2,-2.6 -8.6,-2.5 -10.7,-4.1 -8.8,-6.3 1.7,-2.1 2.4,-2.1 14.5,1.5 l 10.4,3.1 8.7,-4.8 c 10,-5.4 10.1,-4.9 -2,-11.1 l -7,-3.5 -10.5,3.1 c -12.2,3.6 -13.7,3.7 -14.5,1.4 -1,-2.5 1.1,-3.9 9.3,-6.3 4,-1.2 7,-2.5 6.5,-3 -0.5,-0.5 -4.4,-2.7 -8.6,-5 -5.6,-3 -7.8,-4.7 -7.8,-6.1 0,-3.5 2.8,-3.2 11.5,1.4 5.5,3 8.5,4.1 8.5,3.2 0,-0.7 -0.9,-4.3 -2.1,-8 -2.2,-7.3 -2,-9.5 0.9,-9.5 2.8,0 3.5,1.3 7.2,13.1 l 3.2,10.6 9.4,4.6 9.4,4.7 0,-10.8 0,-10.8 -8.5,-7.8 c -8.3,-7.6 -10.1,-10.8 -6.9,-12 1.2,-0.4 3.9,1.3 8.5,5.5 l 6.9,6.1 0,-9.2 c 0,-11.2 1.6,-15 4.8,-11.8 z" />
  <path inkscape:connector-curvature="0" style="fill:#fedc00;fill-opacity:1;stroke:none" id="path16" d="m 164.2,223.6 c -15.1,7.5 -18.8,26.9 -7.4,39.3 5.4,5.8 93.9,56.7 101.4,58.3 10.3,2.1 21.8,-3.6 27.1,-13.6 1.6,-3.1 2.1,-5.9 2.1,-11.1 0.1,-8 -1.9,-12.9 -6.9,-17.9 -3,-2.9 -91,-54.3 -96.9,-56.6 -5.1,-1.9 -13.8,-1.2 -19.4,1.6 z" />
  <path inkscape:connector-curvature="0" style="fill:#fedc00;fill-opacity:1;stroke:none" id="path18" d="m 423.2,273 c -48.5,6.1 -89.2,38.8 -104.1,83.6 -5,15.1 -6.5,24.4 -6.5,40.4 0,16 1.5,25.3 6.5,40.4 13.6,40.8 50,72.9 92.4,81.5 5.5,1.1 14.7,2.3 20.5,2.7 l 10.6,0.7 2.2,-13.2 c 7,-42.6 28.9,-78.2 64.9,-105.3 9.2,-6.9 33.9,-19.6 43.6,-22.4 l 6.8,-1.9 -0.6,-4.5 c -1.2,-8 -5.5,-21.3 -10,-30.8 -17.3,-36.5 -50.4,-62.2 -89.7,-69.7 -10.2,-1.9 -27.4,-2.6 -36.6,-1.5 z" />
  <path inkscape:connector-curvature="0" style="fill:#fedc00;fill-opacity:1;stroke:none" id="path20" d="m 126,373.3 c -4.9,1.6 -13.3,10.2 -14.8,15.3 -3,10.1 -0.9,18.8 6.3,25.9 3.1,3.2 6.5,5.5 9.1,6.3 3,0.9 18.9,1.2 59.5,1.2 l 55.4,0 5.1,-2.4 c 5.9,-2.7 10.7,-8.2 12.9,-14.5 4.1,-12.1 -1.5,-25.4 -12.9,-30.7 l -5.1,-2.4 -56,0.1 c -37.8,0.1 -57.1,0.5 -59.5,1.2 z" />
  <path inkscape:connector-curvature="0" style="fill:#bcbcbc;fill-opacity:1;stroke:none" id="path22" d="m 700.8,373 c -23.1,2.2 -45.3,10.1 -65.1,23.3 -10.9,7.3 -28.1,24.1 -35,34.3 l -4.9,7.1 -8.9,0.7 c -44.8,3.4 -82.8,35.2 -94.6,79.1 -2.3,8.8 -2.6,12 -2.7,26 -0.1,13.8 0.3,17.3 2.3,25 5.2,20 14,35.5 28,49.6 15.8,15.8 33.2,25.2 55.1,29.6 6.3,1.3 18.2,1.5 76,1.4 67.5,-0.2 80.7,-0.7 92.5,-3.7 28,-7 49,-19 68.2,-38.7 11.7,-12.1 18.6,-22 25.9,-37.1 C 859.5,523.6 854,468.7 823.3,427.9 794.6,389.7 747.7,368.7 700.8,373 z m 32.2,58.6 c 23.9,6.1 44.8,24 54.9,46.9 5.6,12.6 7.7,33.3 5,48.1 -5.6,30.6 -32.3,57.6 -62.9,63.7 -10.2,2.1 -134,3.5 -144,1.7 -15.5,-2.8 -28.8,-13.1 -35.7,-27.7 -3.5,-7.2 -3.8,-8.6 -4.1,-18.3 -0.3,-8.8 0,-11.6 1.8,-17 5.5,-16.4 19.3,-29.1 35.9,-33 6.9,-1.6 21.1,-0.8 27.1,1.6 6.6,2.6 14.4,7.8 18.3,12.1 1.9,2.1 5.6,6.1 8.1,9 8.2,8.9 17.6,11.8 28.7,8.7 5.3,-1.5 7.3,-2.7 12,-7.3 4.6,-4.7 5.8,-6.7 7.3,-12 1.9,-6.8 1.6,-12.7 -1,-18.9 -3,-7.3 -15.7,-21.6 -26.1,-29.4 l -5.6,-4.3 5.9,-5.3 c 10.8,-9.8 24.9,-16.9 39.9,-19.8 8.7,-1.7 25.5,-1.1 34.5,1.2 z" />
  <path inkscape:connector-curvature="0" style="fill:#fedc00;fill-opacity:1;stroke:none" id="path24" d="m 255.5,473.4 c -2.2,0.7 -24.5,13.1 -49.5,27.5 -32.4,18.7 -46.6,27.3 -49.2,30.2 -14.8,16.1 -3.3,41.9 18.6,41.9 4.2,0 7.5,-0.7 10.7,-2.3 11.6,-5.6 91.4,-52.6 94.4,-55.6 5.2,-5.1 7,-9.6 6.9,-17.6 0,-5.2 -0.5,-8 -2.1,-11.1 -3.1,-5.8 -9.3,-11 -15.4,-12.8 -6.2,-1.9 -9,-1.9 -14.4,-0.2 z" />
  <path inkscape:connector-curvature="0" style="fill:#fedc00;fill-opacity:1;stroke:none" id="path26" d="m 327.9,547.4 c -4.7,1.7 -9.3,5 -11.7,8.4 -3,4.3 -51.2,88.1 -53.3,92.6 -4.3,9.5 -1.2,22.9 6.9,29.6 4.8,4 13.1,6.4 19,5.6 5.7,-0.8 13.8,-5.2 16.7,-9.1 2.4,-3.2 49.7,-84.9 53.5,-92.5 4.4,-8.6 2.8,-19.9 -3.9,-27.3 -6.8,-7.6 -18,-10.6 -27.2,-7.3 z" />
  <path inkscape:connector-curvature="0" style="fill:#80d3ff;fill-opacity:1;stroke:none" id="path28" d="m 581.5,713.1 c -48.5,25.5 -68.9,40.5 -76.9,56.3 -14.2,28.1 -0.2,61.7 29.5,71.1 18.8,5.9 38.1,1.3 52,-12.5 14.2,-14.2 18.9,-34.5 18.9,-82.1 0,-23.6 -0.9,-43.9 -1.9,-43.9 -0.3,0.1 -10,5 -21.6,11.1 z M 576,776 c -1.5,15.4 -3.5,23.9 -7,29.3 -9.4,14 -31.4,12.8 -39.2,-2.2 -2,-3.8 -2.8,-6.8 -2.8,-10.5 0.1,-12.3 8.4,-20.9 37.5,-38.3 l 12,-7.2 0.3,8.7 c 0.2,4.8 -0.2,13.9 -0.8,20.2 z" />
  <path style="fill:#ffffff;fill-opacity:1;stroke:none" d="m 957.16779,397.05199 c -0.56532,-1.05629 -1.29368,-6.88094 -1.61859,-12.94365 -0.32491,-6.0627 -0.75859,-11.0231 -0.96374,-11.0231 -0.20515,0 -3.57453,2.79215 -7.48751,6.20479 -6.51028,5.67781 -11.24335,8.27522 -12.60256,6.916 -0.81806,-0.81805 1.641,-3.91914 11.60095,-14.6298 l 9.15546,-9.84555 0,-12.48312 c 0,-6.86572 -0.34301,-12.69512 -0.76225,-12.95422 -0.41923,-0.2591 -5.84501,2.1963 -12.05729,5.45645 l -11.29506,5.92754 -3.59927,11.02607 c -5.26088,16.11622 -7.74603,20.23992 -10.18635,16.90258 -0.95038,-1.29972 -0.71469,-3.44446 1.23135,-11.20523 1.32368,-5.27884 2.1547,-9.84987 1.8467,-10.15787 -0.308,-0.308 -4.93987,1.64825 -10.29303,4.34723 -9.77644,4.92913 -12.73029,5.76069 -13.87628,3.90645 -0.99382,-1.60804 1.03911,-3.34582 11.26635,-9.63068 10.85689,-6.6718 10.90171,-6.22541 -1.00265,-9.986 -8.85699,-2.79792 -11.45135,-4.66806 -9.58892,-6.91216 1.58365,-1.90818 6.01529,-1.25401 19.68957,2.90645 l 10.7505,3.27088 9.86346,-5.46554 c 13.37023,-7.40872 13.37301,-7.90213 0.0829,-14.70017 l -10.36476,-5.3017 -12.8449,3.75468 c -14.02511,4.09967 -16.86425,4.47607 -17.68231,2.34425 -1.00794,-2.62665 0.95351,-3.82268 13.51942,-8.24368 3.29584,-1.15956 5.99243,-2.4629 5.99243,-2.89632 0,-0.43341 -3.12805,-2.59152 -6.95122,-4.79579 -9.19535,-5.30164 -13.18334,-8.33514 -13.18334,-10.02805 0,-2.40659 3.97854,-1.53958 13.42304,2.92516 10.01396,4.73394 11.8819,5.17554 11.15293,2.63667 -2.9066,-10.12316 -4.54385,-17.76557 -4.07032,-18.99957 0.34746,-0.90548 1.44173,-1.3864 2.73552,-1.20225 2.74993,0.39143 4.47508,4.00027 8.55806,17.90259 l 3.19656,10.88412 12.22456,6.14124 12.22456,6.14125 0,-14.20565 0,-14.20564 -7.7903,-7.06851 c -8.15317,-7.39776 -13.63074,-14.04386 -12.74964,-15.46951 1.14119,-1.84648 3.59141,-0.53306 11.64414,6.24173 l 8.4164,7.08074 0.63303,-11.77692 c 0.64723,-12.04094 1.73807,-16.12528 4.06795,-15.23122 1.87329,0.71885 2.48994,4.87988 2.48994,16.80166 0,5.73476 0.33439,10.42683 0.74309,10.42683 0.40869,0 3.9574,-3.23591 7.88601,-7.19092 3.92861,-3.955 7.64021,-7.19091 8.24801,-7.19091 0.60779,0 1.63151,0.6343 2.27492,1.40957 0.97256,1.17186 -0.54367,3.1667 -8.9911,11.82916 l -10.16093,10.41959 0.0948,9.0245 c 0.0521,4.96347 0.37574,11.24287 0.71909,13.95422 l 0.62427,4.92973 10.24725,-5.90868 c 5.63598,-3.24978 10.50396,-6.16541 10.81773,-6.47918 0.31378,-0.31377 2.27385,-6.53086 4.35571,-13.81576 2.08187,-7.28489 4.1792,-13.63925 4.66074,-14.12078 0.48154,-0.48154 1.6764,-0.71029 2.65525,-0.50834 2.26819,0.46796 2.10841,3.4997 -0.71126,13.49607 -1.15599,4.09822 -1.80526,7.74784 -1.44283,8.11027 0.36244,0.36244 5.68709,-1.84389 11.83261,-4.90294 10.4086,-5.18113 11.2586,-5.44558 12.416,-3.8627 1.6875,2.3077 -0.2265,4.33175 -8.3051,8.78275 -9.8003,5.39956 -11.76769,6.94974 -10.6023,8.35395 0.55411,0.66766 4.477,2.20182 8.7175,3.40925 7.5764,2.1573 10.8841,4.54999 9.8859,7.15121 -0.5429,1.41495 -4.0956,0.85207 -17.6138,-2.79071 -5.0097,-1.34996 -10.30364,-2.45557 -11.76435,-2.4569 -2.53914,-0.002 -17.29564,6.86991 -21.31389,9.92605 -1.90098,1.44581 -1.90134,1.47047 -0.0416,2.84822 1.03181,0.76438 6.12404,3.63931 11.31607,6.38873 l 9.44005,4.99894 7.85971,-2.41367 c 19.30628,-5.92885 22.72098,-6.40896 22.72098,-3.19467 0,1.98677 -3.319,3.82817 -12.2246,6.78239 -4.3505,1.44317 -7.91001,2.92782 -7.91001,3.29923 0,0.37141 4.02251,3.12996 8.93881,6.13011 9.8995,6.04106 13.0295,8.84511 11.538,10.33656 -1.2141,1.21415 -5.9943,-0.44057 -16.4294,-5.68725 -9.17142,-4.6113 -9.14574,-4.64075 -5.96498,6.83737 2.27611,8.21364 2.38541,10.64983 0.54626,12.1762 -1.85702,1.54119 -2.79334,-0.34198 -7.83815,-15.76452 -4.57392,-13.98302 -3.67477,-12.96398 -17.77525,-20.14551 -9.91538,-5.05001 -9.4164,-5.63555 -9.43617,11.07305 l -0.0131,11.06212 4.90031,4.7579 c 7.5736,7.35351 14.27546,15.68717 14.27546,17.75133 0,3.59498 -3.78051,1.91421 -10.89486,-4.84372 -3.88601,-3.69134 -7.33896,-6.71152 -7.6732,-6.71152 -0.33424,0 -0.60771,4.47634 -0.60771,9.94743 0,11.54548 -0.68455,15.93986 -2.48309,15.93986 -0.70653,0 -1.74713,-0.86424 -2.31244,-1.92054 z" id="path2992" inkscape:connector-curvature="0" transform="scale(0.8,0.8)" />
</svg>
