<?xml version="1.0" encoding="UTF-8" standalone="no"?>
<svg xmlns:dc="http://purl.org/dc/elements/1.1/" xmlns:cc="http://creativecommons.org/ns#" xmlns:rdf="http://www.w3.org/1999/02/22-rdf-syntax-ns#" xmlns:svg="http://www.w3.org/2000/svg" xmlns="http://www.w3.org/2000/svg" xmlns:sodipodi="http://sodipodi.sourceforge.net/DTD/sodipodi-0.dtd" xmlns:inkscape="http://www.inkscape.org/namespaces/inkscape" version="1.0" width="1024.000000pt" height="1024.000000pt" viewBox="0 0 1024.000000 1024.000000" preserveAspectRatio="xMidYMid meet" id="svg2" inkscape:version="0.48.5 r10040" sodipodi:docname="1329999.svg">
  <defs id="defs36" />
  <sodipodi:namedview pagecolor="#ffffff" bordercolor="#666666" borderopacity="1" objecttolerance="10" gridtolerance="10" guidetolerance="10" inkscape:pageopacity="0" inkscape:pageshadow="2" inkscape:window-width="953" inkscape:window-height="687" id="namedview34" showgrid="false" inkscape:zoom="0.184375" inkscape:cx="640" inkscape:cy="640" inkscape:window-x="1403" inkscape:window-y="30" inkscape:window-maximized="0" inkscape:current-layer="svg2" />
  <metadata id="metadata4">
Created by potrace 1.11, written by Peter Selinger 2001-2013
<rdf:RDF>
  <cc:Work rdf:about="">
    <dc:format>image/svg+xml</dc:format>
    <dc:type rdf:resource="http://purl.org/dc/dcmitype/StillImage" />
  </cc:Work>
</rdf:RDF>
</metadata>
  <path style="fill:#fedc00;stroke:none;fill-opacity:1" inkscape:connector-curvature="0" id="path8" d="m 383.5,48.5 c -5.1,1.8 -11,8.1 -12.4,13.1 -1.5,5.2 -1.5,90.5 0,95.7 0.5,2.1 2.4,5.4 4.2,7.4 10.1,11.5 28.3,8.8 34.8,-5.2 1.7,-3.7 1.9,-7.3 1.9,-49 0,-28.4 -0.4,-46.4 -1.1,-48.8 -3,-11.1 -15.9,-17.3 -27.4,-13.2 z" />
  <path style="fill:#fedc00;stroke:none;fill-opacity:1" inkscape:connector-curvature="0" id="path10" d="m 260.1,81.5 c -12,3.7 -17.9,17.7 -12.3,29 5.1,10.4 43.2,75.2 45.7,77.7 12.7,13.1 35.5,3 35.5,-15.7 0,-4.3 -2.5,-9.1 -24.9,-48 C 282.5,87 279.6,83.1 271.6,81.1 c -5.4,-1.3 -6,-1.3 -11.5,0.4 z" />
  <path style="fill:#fedc00;stroke:none;fill-opacity:1" inkscape:connector-curvature="0" id="path12" d="m 510.3,81.2 c -7.7,1.7 -10.7,5.8 -32.9,44.3 -11.4,19.8 -21.5,37.8 -22.5,40 -6,13.1 4.4,28.5 19.1,28.5 6.2,0 10.6,-1.7 14.5,-5.7 3.7,-3.7 45.5,-75.9 47.3,-81.7 3.1,-9.9 -3.7,-22 -14.1,-25.1 -5.6,-1.7 -5.5,-1.7 -11.4,-0.3 z" />
  <path style="fill:#fedc00;stroke:none;fill-opacity:1" inkscape:connector-curvature="0" id="path14" d="m 166.3,173.6 c -11.1,5.6 -15.1,18.8 -9.1,29.6 2.8,4.9 4.5,6 47.6,30.8 29.5,16.9 36.2,20.4 40.2,20.8 19.6,1.9 30.9,-22.8 16.4,-35.9 -1.6,-1.4 -20,-12.4 -40.9,-24.5 -37.7,-21.7 -38,-21.8 -44.5,-22.2 -4.6,-0.2 -7.5,0.2 -9.7,1.4 z" />
  <path style="fill:#fedc00;stroke:none;fill-opacity:1" inkscape:connector-curvature="0" id="path16" d="m 600,172.7 c -3.3,1.2 -76.5,43.8 -79.3,46.2 -6.3,5.3 -8.4,15.7 -4.8,23.6 2.3,5.1 7.9,10.1 13.1,11.6 8.2,2.5 11.4,1.1 53.4,-23.1 35.4,-20.4 39.2,-22.9 41.7,-26.9 5.4,-8.5 4.7,-18 -1.9,-25.3 -2,-2.3 -5.1,-4.7 -6.9,-5.5 -3.2,-1.3 -12.4,-1.7 -15.3,-0.6 z" />
  <path style="fill:#fedc00;stroke:none;fill-opacity:1" inkscape:connector-curvature="0" id="path18" d="m 380.5,214.7 c -36,4.6 -66,25.5 -81.5,56.8 -14.6,29.2 -14.4,62.9 0.4,92.3 2.5,4.9 4.1,7 4.9,6.5 0.7,-0.4 4.6,-2.9 8.7,-5.6 9.8,-6.4 27.2,-14.8 38.6,-18.6 7.6,-2.5 17.3,-4.7 33,-7.7 1.2,-0.2 4.7,-3.4 7.7,-7.2 19.2,-23.4 48.6,-45.7 77,-58.4 6.2,-2.8 11.4,-5.2 11.6,-5.4 0.9,-0.9 -10.2,-15.6 -16.9,-22.5 -21.6,-21.8 -55,-33.9 -83.5,-30.2 z" />
  <path style="fill:#fedc00;stroke:none;fill-opacity:1" inkscape:connector-curvature="0" id="path20" d="m 135.2,297.3 c -14.6,5.3 -18.9,23.7 -8.1,34.6 2.1,2.1 5.5,4.3 7.7,4.9 2.8,0.9 17.4,1.2 49.3,1.2 42.1,0 45.7,-0.2 49.4,-1.9 5.2,-2.4 9.1,-6.6 11,-12 2.2,-6.2 1.9,-10 -1.2,-16.2 -3,-5.7 -7.1,-9.2 -13.2,-10.9 -5.4,-1.5 -90.7,-1.2 -94.9,0.3 z" />
  <path style="fill:#dcdcdc;stroke:none;fill-opacity:1" inkscape:connector-curvature="0" id="path22" d="m 539,304.1 c -50.6,4.4 -99.1,33.9 -125.3,76.1 l -4.2,6.8 -9.1,0 c -11.4,0 -25.3,2.3 -36.9,6.2 -17.9,6 -32.1,14.6 -45.9,27.8 -25.6,24.5 -38.7,54.8 -38.7,89.5 0,28.2 8.1,52.4 24.8,74.6 18.4,24.4 42.8,39.9 74,47.1 l 9.8,2.2 161.5,0.4 c 168.2,0.3 174.9,0.2 190.6,-3.9 28.8,-7.5 54.6,-28.9 67.9,-56.3 6.8,-14 9.6,-25.4 10.2,-42.1 0.6,-16.5 -1.5,-29.1 -7.2,-43.3 -15.1,-37.3 -49.7,-62.9 -89.4,-66 l -8.3,-0.7 -3.3,-9 C 700.8,389.3 686.4,367.2 668,349.6 640,322.9 605.4,307.4 566,304 c -12.7,-1.1 -13.4,-1.1 -27,0.1 z m 42.5,55.3 c 12.5,3.3 29.7,11.6 40.2,19.5 14.6,11 26.6,25.8 34.6,42.9 5.8,12.5 5.7,12.8 -3.8,19.3 -9.1,6.2 -12.9,11.4 -14.7,19.9 -2.8,13.6 7.1,27.4 21.7,30.1 6.5,1.2 13.1,-0.6 21.4,-6 9.9,-6.3 17.6,-9 27.2,-9.8 26.8,-2.1 50.8,16 56.4,42.4 1.8,8.6 1.8,13 0,21.8 -4.2,20 -21.3,37.4 -40.7,41.4 -3.7,0.8 -54,1.1 -170.3,0.9 l -165,-0.3 -8,-2.8 c -19.5,-6.9 -33,-18.6 -42,-36.5 -9.9,-19.9 -9.9,-42.3 0.1,-63.1 7.8,-16.1 23.8,-30.2 40.9,-36.1 18.7,-6.4 41.9,-4 59.3,6.2 5.9,3.4 17.8,14.7 24.6,23.2 12.2,15.2 36.6,11.7 44.4,-6.3 2.4,-5.6 2,-15.7 -0.8,-21.1 -5.7,-11.1 -24,-29.9 -36.8,-38 -3.9,-2.5 -7.2,-5 -7.2,-5.6 0,-2.2 15.8,-18 23.7,-23.6 14.6,-10.5 32.9,-18.1 49.8,-20.8 3.3,-0.5 12.5,-0.7 20.5,-0.5 11.5,0.3 16.6,0.9 24.5,2.9 z" />
  <path style="fill:#fedc00;stroke:none;fill-opacity:1" inkscape:connector-curvature="0" id="path24" d="m 241,380.4 c -1.9,0.6 -20.1,10.8 -40.5,22.5 -39.5,22.6 -43.2,25.4 -45.5,33.5 -1.9,6.8 0.7,16.4 5.6,20.7 5.4,4.7 14,6.8 19.9,4.9 2.1,-0.7 20.5,-10.8 40.9,-22.6 37.7,-21.7 42.1,-24.8 45.2,-32.1 4.6,-10.6 -2.6,-24.3 -14.2,-27.2 -5.4,-1.4 -7,-1.3 -11.4,0.3 z" />
  <path style="fill:#80d3ff;stroke:none;fill-opacity:1" inkscape:connector-curvature="0" id="path26" d="m 404.5,712.6 c -36.3,19.1 -52.3,29.4 -65.7,42.2 -9.4,9 -15.1,19.4 -16.8,30.6 -3.8,24.9 12.8,49.6 37.7,56.1 12.8,3.3 29.1,0.7 40.3,-6.5 20.3,-13 27,-35.2 27,-89.1 0,-23.6 -0.9,-43.9 -1.9,-43.8 -0.3,0 -9.6,4.7 -20.6,10.5 z m -5.8,51.6 c -0.7,21.3 -2.8,32.8 -7.1,40 -9.1,15.2 -31.6,14.3 -39.8,-1.6 -2.9,-5.6 -2.9,-14.6 0,-20.2 3.8,-7.4 16.5,-17.5 38.2,-30.2 4.7,-2.8 8.7,-5.1 8.9,-5.1 0.2,-0.1 0.1,7.7 -0.2,17.1 z" />
  <path style="fill:#80d3ff;stroke:none;fill-opacity:1" inkscape:connector-curvature="0" id="path28" d="m 713.5,712.6 c -36.3,19.1 -52.3,29.4 -65.7,42.2 -9.4,9 -15.1,19.4 -16.8,30.6 -3.8,24.9 12.8,49.6 37.7,56.1 12.8,3.3 29.1,0.7 40.3,-6.5 20.3,-13 27,-35.2 27,-89.1 0,-23.6 -0.9,-43.9 -1.9,-43.8 -0.3,0 -9.6,4.7 -20.6,10.5 z m -5.8,51.6 c -0.7,21.3 -2.8,32.8 -7.1,40 -9.1,15.2 -31.6,14.3 -39.8,-1.6 -2.9,-5.6 -2.9,-14.6 0,-20.2 3.8,-7.4 16.5,-17.5 38.2,-30.2 4.7,-2.8 8.7,-5.1 8.9,-5.1 0.2,-0.1 0.1,7.7 -0.2,17.1 z" />
  <path style="fill:#80d3ff;stroke:none;fill-opacity:1" inkscape:connector-curvature="0" id="path30" d="m 299.5,852.6 c -29.9,16.1 -44.3,27.1 -49.5,37.9 -2,4.1 -2.4,6.6 -2.5,14 0,7.7 0.4,9.8 2.6,14.6 3.4,7.2 9.6,13.4 16.8,16.8 4.8,2.2 6.9,2.6 14.6,2.6 10.8,0 15.9,-2 23.3,-8.9 11.2,-10.5 14.2,-27 13.4,-72.4 -0.1,-9.8 -0.5,-13.2 -1.4,-13.2 -0.7,0 -8.5,3.9 -17.3,8.6 z m -0.5,46.9 c -1.3,10.4 -4.3,16.3 -9.5,19.2 -10.9,6.1 -23.3,-0.5 -24.3,-12.9 -0.3,-4.6 0,-5.9 2.5,-9.6 3.3,-4.9 11,-10.9 23.3,-18.2 l 8.5,-5.1 0.3,9.3 c 0.2,5.1 -0.2,12.9 -0.8,17.3 z" />
  <path style="fill:#80d3ff;stroke:none;fill-opacity:1" inkscape:connector-curvature="0" id="path32" d="m 608.5,852.6 c -29.9,16.1 -44.3,27.1 -49.5,37.9 -2,4.1 -2.4,6.6 -2.5,14 0,7.7 0.4,9.8 2.6,14.6 3.4,7.2 9.6,13.4 16.8,16.8 4.8,2.2 6.9,2.6 14.6,2.6 10.8,0 15.9,-2 23.3,-8.9 11.2,-10.5 14.2,-27 13.4,-72.4 -0.1,-9.8 -0.5,-13.2 -1.4,-13.2 -0.7,0 -8.5,3.9 -17.3,8.6 z m -0.5,46.9 c -1.3,10.4 -4.3,16.3 -9.5,19.2 -10.9,6.1 -23.3,-0.5 -24.3,-12.9 -0.3,-4.6 0,-5.9 2.5,-9.6 3.3,-4.9 11,-10.9 23.3,-18.2 l 8.5,-5.1 0.3,9.3 c 0.2,5.1 -0.2,12.9 -0.8,17.3 z" />
</svg>
