<?xml version="1.0" encoding="UTF-8" standalone="no"?>
<svg xmlns:dc="http://purl.org/dc/elements/1.1/" xmlns:cc="http://creativecommons.org/ns#" xmlns:rdf="http://www.w3.org/1999/02/22-rdf-syntax-ns#" xmlns:svg="http://www.w3.org/2000/svg" xmlns="http://www.w3.org/2000/svg" xmlns:sodipodi="http://sodipodi.sourceforge.net/DTD/sodipodi-0.dtd" xmlns:inkscape="http://www.inkscape.org/namespaces/inkscape" version="1.0" width="1024.000000pt" height="1024.000000pt" viewBox="0 0 1024.000000 1024.000000" preserveAspectRatio="xMidYMid meet" id="svg2" inkscape:version="0.48.5 r10040" sodipodi:docname="1999992.svg">
  <defs id="defs30" />
  <sodipodi:namedview pagecolor="#ffffff" bordercolor="#666666" borderopacity="1" objecttolerance="10" gridtolerance="10" guidetolerance="10" inkscape:pageopacity="0" inkscape:pageshadow="2" inkscape:window-width="946" inkscape:window-height="772" id="namedview28" showgrid="false" inkscape:zoom="0.184375" inkscape:cx="-67.79661" inkscape:cy="640" inkscape:window-x="210" inkscape:window-y="293" inkscape:window-maximized="0" inkscape:current-layer="svg2" />
  <metadata id="metadata4">
Created by potrace 1.11, written by Peter Selinger 2001-2013
<rdf:RDF>
  <cc:Work rdf:about="">
    <dc:format>image/svg+xml</dc:format>
    <dc:type rdf:resource="http://purl.org/dc/dcmitype/StillImage" />
  </cc:Work>
</rdf:RDF>
</metadata>
  <path inkscape:connector-curvature="0" style="fill:#fedc00;fill-opacity:1;stroke:none" id="path8" d="m 504.02778,153.01865 c -7.1,2.3 -14,8.2 -17.6,15.1 -1.8,3.3 -1.9,7 -1.9,67 l 0,63.5 2.2,4.1 c 11,20.6 39.6,20.6 50.6,0 l 2.2,-4.1 0,-63.5 c 0,-60 -0.1,-63.7 -1.9,-67 -2.6,-4.9 -8.4,-10.8 -13.1,-13.2 -4.3,-2.3 -16.1,-3.4 -20.5,-1.9 z" />
  <path inkscape:connector-curvature="0" style="fill:#fedc00;fill-opacity:1;stroke:none" id="path10" d="m 336.82778,197.41865 c -14.8,4.2 -23.7,19.6 -19.7,34.1 0.6,2.1 14.3,26.7 30.5,54.5 22.9,39.4 30.4,51.5 34,54.8 10.7,10 27.9,9.5 38.1,-0.9 2.3,-2.4 5.1,-6.3 6.2,-8.8 2.5,-5.4 2.8,-15.4 0.7,-20.5 -3.1,-7.3 -59.1,-102.2 -62.4,-105.7 -6.5,-6.9 -18.2,-10 -27.4,-7.5 z" />
  <path inkscape:connector-curvature="0" style="fill:#fedc00;fill-opacity:1;stroke:none" id="path12" d="m 673.72778,197.11865 c -5.5,1.4 -10.8,4.4 -14.3,8.2 -3.4,3.6 -59.9,100.1 -62,105.8 -2,5.4 -1.7,14.8 0.7,20 7.9,17.5 30.6,22.5 44.3,9.7 3.5,-3.2 11.2,-15.6 33.6,-54.1 16,-27.5 29.7,-51.9 30.5,-54.3 2.1,-6 1.9,-11.2 -0.6,-17.9 -4.8,-12.7 -19.3,-20.6 -32.2,-17.4 z" />
  <path inkscape:connector-curvature="0" style="fill:#fedc00;fill-opacity:1;stroke:none" id="path14" d="m 212.92778,319.51865 c -9.6,3.4 -15.8,9.9 -18.5,19.4 -2.8,9.5 0,19.5 7.2,26.5 4.3,4.1 101.1,59.9 108.3,62.4 9.7,3.4 23.7,-0.6 30.2,-8.8 8.6,-10.9 8,-27 -1.4,-36.7 -3.2,-3.4 -101.9,-60.4 -108.6,-62.8 -4.6,-1.7 -12.6,-1.7 -17.2,0 z" />
  <path inkscape:connector-curvature="0" style="fill:#fedc00;fill-opacity:1;stroke:none" id="path16" d="m 793.92778,319.41865 c -7,2.6 -105.4,59.6 -108.6,62.9 -12.3,12.7 -8.9,34.7 6.6,43.2 6.7,3.6 15.9,4.6 22.2,2.3 7.2,-2.5 104,-58.3 108.3,-62.4 17.1,-16.5 5.9,-45.6 -18.2,-47 -4.1,-0.2 -8.1,0.2 -10.3,1 z" />
  <path inkscape:connector-curvature="0" style="fill:#fedc00;fill-opacity:1;stroke:none" id="path18" d="m 495.52778,375.71865 c -32,4.9 -57.5,17 -79.2,37.7 -21.8,20.8 -35.8,46.8 -40.9,75.7 -2.1,12.5 -2.1,33.5 0,46 9.8,55.7 52.6,99.2 109.6,111.6 12.1,2.7 42,2.6 54,0 29.5,-6.4 53.4,-19.7 73.7,-40.9 24.7,-25.9 37.5,-57.9 37.5,-93.7 0,-38.1 -14.6,-71.9 -42.5,-98.7 -18.7,-17.8 -40.4,-29.4 -66.6,-35.4 -8.4,-2 -38,-3.4 -45.6,-2.3 z" />
  <path inkscape:connector-curvature="0" style="fill:#fedc00;fill-opacity:1;stroke:none" id="path20" d="m 168.22778,485.61865 c -13.7,4.3 -22.1,18.1 -19.2,31.9 1.4,6.6 5.7,13.4 10.9,17 8,5.6 8.4,5.6 72.6,5.6 69.1,0 66.6,0.3 75.6,-8.9 5.9,-6 8.2,-11.4 8.2,-19.1 0,-7.7 -2.3,-13.1 -8.2,-19.1 -9,-9.2 -6.4,-8.9 -76,-8.8 -47.1,0 -60.5,0.3 -63.9,1.4 z" />
  <path inkscape:connector-curvature="0" style="fill:#fedc00;fill-opacity:1;stroke:none" id="path22" d="m 726.02778,486.01865 c -7.1,2.5 -15.1,10.7 -17,17.5 -3.1,11 -0.9,19.7 6.9,27.8 9.1,9.2 6.4,8.9 77.7,8.6 59.7,-0.3 61,-0.3 65.5,-2.4 17.7,-8.2 22,-31.3 8.4,-44.9 -2.1,-2.1 -5.9,-4.7 -8.4,-5.9 -4.5,-2.1 -5.8,-2.1 -66.1,-2.3 -58.2,-0.3 -61.8,-0.2 -67,1.6 z" />
  <path inkscape:connector-curvature="0" style="fill:#fedc00;fill-opacity:1;stroke:none" id="path24" d="m 309.52778,596.31865 c -6.8,2.6 -104.7,59.3 -108.1,62.7 -7.1,6.99999 -9.7,16.99999 -7,26.39999 4.1,13.9 17.5,22.4 32,20.3 3.3,-0.5 17.6,-8.2 56.3,-30.3 28.5,-16.19999 53.5,-31.09999 55.5,-32.99999 4.9,-4.8 8,-12.2 8,-19.2 -0.1,-15.7 -10.9,-27 -26.6,-27.7 -3.9,-0.2 -8.4,0.1 -10.1,0.8 z" />
  <path inkscape:connector-curvature="0" style="fill:#fedc00;fill-opacity:1;stroke:none" id="path26" d="m 696.92778,596.51865 c -12.1,4.3 -19.2,14.4 -19.1,27.1 0,6.7 3.3,14.2 8,18.8 2,1.9 27,16.8 55.5,32.99999 38.7,22.1 53,29.8 56.3,30.3 14.5,2.1 27.9,-6.4 32,-20.3 2.7,-9.3 0,-19.5 -7,-26.39999 -3.7,-3.7 -102.1,-60.5 -108.5,-62.7 -4.4,-1.6 -12.7,-1.4 -17.2,0.2 z" />
  <path inkscape:connector-curvature="0" style="fill:#fedc00;fill-opacity:1;stroke:none" id="path28" d="m 390.82778,677.71864 c -9.3,2.8 -11.5,6 -43.2,60.5 -16.2,27.8 -29.9,52.4 -30.5,54.5 -3.6,12.8 3.4,27.1 15.8,32.7 10.1,4.5 23.8,1.8 31.3,-6.1 3.3,-3.5 59.3,-98.4 62.4,-105.7 2.1,-5.1 1.8,-15.1 -0.7,-20.5 -6,-13.4 -20.7,-19.8 -35.1,-15.4 z" />
  <path inkscape:connector-curvature="0" style="fill:#fedc00;fill-opacity:1;stroke:none" id="path30" d="m 613.62778,678.11864 c -13.5,5.3 -21.1,21.7 -16.2,35 2.3,6.3 58.8,102.4 62.4,106.2 5,5.3 12.2,8.2 20.2,8.2 11.9,-0.1 21.8,-6.9 25.9,-17.8 2.5,-6.7 2.7,-11.9 0.6,-17.9 -0.8,-2.4 -14.5,-26.8 -30.5,-54.3 -31.1,-53.5 -33.4,-56.6 -42.7,-59.8 -6.2,-2.1 -13.7,-2 -19.7,0.4 z" />
  <path inkscape:connector-curvature="0" style="fill:#fedc00;fill-opacity:1;stroke:none" id="path32" d="m 500.52778,708.51864 c -5.9,2.7 -10.7,7.2 -13.8,13 l -2.2,4.1 0,63.5 c 0,63.2 0,63.5 2.2,67.5 2.5,4.80001 8.4,10.60001 13.3,13.10001 4.9,2.6 19.1,2.6 24,0 4.9,-2.5 10.8,-8.3 13.3,-13.10001 2.2,-4 2.2,-4.3 2.2,-67.5 l 0,-63.5 -2.2,-4.1 c -5.2,-9.8 -14.5,-15.4 -25.3,-15.4 -4.7,0 -7.9,0.7 -11.5,2.4 z" />
  <path inkscape:connector-curvature="0" style="fill:#ba381a;fill-opacity:1;stroke:none" id="path8-1" d="m 564.15583,207.80791 -61.89028,56.99844 0,137.06935 -0.0711,137.14125 9.87983,0 9.87984,0 0.14122,-126.86284 0.21165,-126.86283 31.4038,31.05084 c 17.28974,17.03484 40.64853,40.17922 51.93977,51.32015 l 20.53599,20.41307 30.27471,-11.5722 30.27472,-11.50031 25.40529,-3.95324 c 19.40691,-2.94696 33.45041,-5.67827 59.27913,-11.42843 18.63059,-4.09698 45.16507,-9.77527 58.9263,-12.50661 13.76121,-2.80318 36.90831,-7.54707 51.37522,-10.5659 l 26.25218,-5.53452 -0.14114,-54.33899 -0.2117,-54.2671 -27.1696,-5.60641 c -14.96091,-3.01883 -28.86329,-5.53452 -29.49841,-5.60639 -1.19971,0 -0.14114,2.08442 -0.14114,33.42278 l 0.0706,33.42279 -25.47591,0 -25.40528,0 0,-38.31043 0,-38.31042 -30.48649,-6.10953 -30.55692,-6.10956 -0.21178,44.41997 -0.1411,44.41997 -25.4053,0 -25.40541,0 0,-48.3732 0,-48.37321 -30.48637,-10.20651 c -16.79574,-5.60641 -30.69814,-10.20653 -30.9098,-10.20653 -0.21177,0 -28.22822,25.66007 -62.24305,56.92655 z m 61.39618,112.19993 -0.21167,50.52951 -52.92786,-51.53578 c -29.07497,-28.3914 -52.92775,-51.89516 -52.92775,-52.25456 0,-0.35937 23.85278,-22.71311 52.92775,-49.66696 l 52.92786,-49.0201 0.21167,50.67326 c 0.0711,27.96014 0.0711,73.45826 0,101.27463 z" sodipodi:nodetypes="ccccccccccccccccccccccsccccccccccccccsccccscccc" />
</svg>
