<?xml version="1.0" encoding="UTF-8" standalone="no"?>
<svg xmlns:dc="http://purl.org/dc/elements/1.1/" xmlns:cc="http://creativecommons.org/ns#" xmlns:rdf="http://www.w3.org/1999/02/22-rdf-syntax-ns#" xmlns:svg="http://www.w3.org/2000/svg" xmlns="http://www.w3.org/2000/svg" xmlns:sodipodi="http://sodipodi.sourceforge.net/DTD/sodipodi-0.dtd" xmlns:inkscape="http://www.inkscape.org/namespaces/inkscape" version="1.0" width="1024.000000pt" height="1024.000000pt" viewBox="0 0 1024.000000 1024.000000" preserveAspectRatio="xMidYMid meet" id="svg2" inkscape:version="0.48.5 r10040" sodipodi:docname="1129919.svg">
  <defs id="defs40" />
  <sodipodi:namedview pagecolor="#ffffff" bordercolor="#666666" borderopacity="1" objecttolerance="10" gridtolerance="10" guidetolerance="10" inkscape:pageopacity="0" inkscape:pageshadow="2" inkscape:window-width="900" inkscape:window-height="553" id="namedview38" showgrid="false" inkscape:zoom="0.184375" inkscape:cx="640" inkscape:cy="640" inkscape:window-x="1574" inkscape:window-y="760" inkscape:window-maximized="0" inkscape:current-layer="svg2" />
  <metadata id="metadata4">
Created by potrace 1.11, written by Peter Selinger 2001-2013
<rdf:RDF>
  <cc:Work rdf:about="">
    <dc:format>image/svg+xml</dc:format>
    <dc:type rdf:resource="http://purl.org/dc/dcmitype/StillImage" />
  </cc:Work>
</rdf:RDF>
</metadata>
  <path style="fill:#fedc00;stroke:none;fill-opacity:1" inkscape:connector-curvature="0" id="path8" d="m 428.2,71.3 c -5.2,1.6 -12.8,9 -14.9,14.5 -1.7,4.3 -1.8,8.9 -1.8,60.2 0,61.4 -0.3,58.6 6.6,66.5 11.7,13.2 32.8,10.5 41.1,-5.4 l 2.8,-5.3 0,-56.2 0,-56.1 -2.4,-5 c -2.8,-6 -6.6,-9.7 -12.6,-12.4 -5,-2.3 -13.2,-2.6 -18.8,-0.8 z" />
  <path style="fill:#fedc00;stroke:none;fill-opacity:1" inkscape:connector-curvature="0" id="path10" d="m 278,111.5 c -13.6,4.4 -21,21.1 -15.1,34.1 2.6,5.6 50.7,89.1 53.8,93.1 5.8,7.8 18.6,11.4 28,7.8 14,-5.4 20.8,-21.8 14.3,-34.5 -3.8,-7.6 -51.1,-89.3 -53.5,-92.5 -5.4,-7.2 -18.3,-11 -27.5,-8 z" />
  <path style="fill:#fedc00;stroke:none;fill-opacity:1" inkscape:connector-curvature="0" id="path12" d="m 579.9,111.5 c -8.8,2.8 -11.1,5.9 -39,54.4 -14.4,25 -26.8,47.4 -27.6,49.9 -2.9,8.4 -0.1,18.4 6.9,25.3 9.4,9.1 25.5,9.1 34.5,-0.1 3.8,-3.8 53.1,-87.9 56.5,-96.3 7.8,-19.4 -11.3,-39.6 -31.3,-33.2 z" />
  <path style="fill:#fedc00;stroke:none;fill-opacity:1" inkscape:connector-curvature="0" id="path14" d="m 164.2,223.6 c -15.1,7.5 -18.8,26.9 -7.4,39.3 5.4,5.8 93.9,56.7 101.4,58.3 10.3,2.1 21.8,-3.6 27.1,-13.6 1.6,-3.1 2.1,-5.9 2.1,-11.1 0.1,-8 -1.9,-12.9 -6.9,-17.9 -3,-2.9 -91,-54.3 -96.9,-56.6 -5.1,-1.9 -13.8,-1.2 -19.4,1.6 z" />
  <path style="fill:#fedc00;stroke:none;fill-opacity:1" inkscape:connector-curvature="0" id="path16" d="m 687.5,223.3 c -8.7,4.3 -91.9,52.7 -94.2,54.9 -1.3,1.2 -3.4,4.4 -4.8,7.2 -2.8,5.7 -3.3,13.7 -1.1,19.7 4.1,11.6 17.9,19 29.5,15.9 4.1,-1.1 91.1,-50.6 97.8,-55.6 1.7,-1.3 4.4,-5 6,-8.1 4.9,-10.1 3.1,-21.4 -4.6,-29.1 -4.9,-4.8 -8.8,-6.5 -16.6,-6.9 -5.9,-0.3 -7.8,0 -12,2 z" />
  <path style="fill:#fedc00;stroke:none;fill-opacity:1" inkscape:connector-curvature="0" id="path18" d="m 423.2,273 c -48.5,6.1 -89.2,38.8 -104.1,83.6 -5,15.1 -6.5,24.4 -6.5,40.4 0,16 1.5,25.3 6.5,40.4 13.6,40.8 50,72.9 92.4,81.5 5.5,1.1 14.7,2.3 20.5,2.7 l 10.6,0.7 2.2,-13.2 c 7,-42.6 28.9,-78.2 64.9,-105.3 9.2,-6.9 33.9,-19.6 43.6,-22.4 l 6.8,-1.9 -0.6,-4.5 c -1.2,-8 -5.5,-21.3 -10,-30.8 -17.3,-36.5 -50.4,-62.2 -89.7,-69.7 -10.2,-1.9 -27.4,-2.6 -36.6,-1.5 z" />
  <path style="fill:#fedc00;stroke:none;fill-opacity:1" inkscape:connector-curvature="0" id="path20" d="m 126,373.3 c -4.9,1.6 -13.3,10.2 -14.8,15.3 -3,10.1 -0.9,18.8 6.3,25.9 3.1,3.2 6.5,5.5 9.1,6.3 3,0.9 18.9,1.2 59.5,1.2 l 55.4,0 5.1,-2.4 c 5.9,-2.7 10.7,-8.2 12.9,-14.5 4.1,-12.1 -1.5,-25.4 -12.9,-30.7 l -5.1,-2.4 -56,0.1 c -37.8,0.1 -57.1,0.5 -59.5,1.2 z" />
  <path style="fill:#dcdcdc;stroke:none;fill-opacity:1" inkscape:connector-curvature="0" id="path22" d="m 700.8,373 c -23.1,2.2 -45.3,10.1 -65.1,23.3 -10.9,7.3 -28.1,24.1 -35,34.3 l -4.9,7.1 -8.9,0.7 c -44.8,3.4 -82.8,35.2 -94.6,79.1 -2.3,8.8 -2.6,12 -2.7,26 -0.1,13.8 0.3,17.3 2.3,25 5.2,20 14,35.5 28,49.6 15.8,15.8 33.2,25.2 55.1,29.6 6.3,1.3 18.2,1.5 76,1.4 67.5,-0.2 80.7,-0.7 92.5,-3.7 28,-7 49,-19 68.2,-38.7 11.7,-12.1 18.6,-22 25.9,-37.1 C 859.5,523.6 854,468.7 823.3,427.9 794.6,389.7 747.7,368.7 700.8,373 z m 32.2,58.6 c 23.9,6.1 44.8,24 54.9,46.9 5.6,12.6 7.7,33.3 5,48.1 -5.6,30.6 -32.3,57.6 -62.9,63.7 -10.2,2.1 -134,3.5 -144,1.7 -15.5,-2.8 -28.8,-13.1 -35.7,-27.7 -3.5,-7.2 -3.8,-8.6 -4.1,-18.3 -0.3,-8.8 0,-11.6 1.8,-17 5.5,-16.4 19.3,-29.1 35.9,-33 6.9,-1.6 21.1,-0.8 27.1,1.6 6.6,2.6 14.4,7.8 18.3,12.1 1.9,2.1 5.6,6.1 8.1,9 8.2,8.9 17.6,11.8 28.7,8.7 5.3,-1.5 7.3,-2.7 12,-7.3 4.6,-4.7 5.8,-6.7 7.3,-12 1.9,-6.8 1.6,-12.7 -1,-18.9 -3,-7.3 -15.7,-21.6 -26.1,-29.4 l -5.6,-4.3 5.9,-5.3 c 10.8,-9.8 24.9,-16.9 39.9,-19.8 8.7,-1.7 25.5,-1.1 34.5,1.2 z" />
  <path style="fill:#fedc00;stroke:none;fill-opacity:1" inkscape:connector-curvature="0" id="path24" d="m 255.5,473.4 c -2.2,0.7 -24.5,13.1 -49.5,27.5 -32.4,18.7 -46.6,27.3 -49.2,30.2 -14.8,16.1 -3.3,41.9 18.6,41.9 4.2,0 7.5,-0.7 10.7,-2.3 11.6,-5.6 91.4,-52.6 94.4,-55.6 5.2,-5.1 7,-9.6 6.9,-17.6 0,-5.2 -0.5,-8 -2.1,-11.1 -3.1,-5.8 -9.3,-11 -15.4,-12.8 -6.2,-1.9 -9,-1.9 -14.4,-0.2 z" />
  <path style="fill:#fedc00;stroke:none;fill-opacity:1" inkscape:connector-curvature="0" id="path26" d="m 327.9,547.4 c -4.7,1.7 -9.3,5 -11.7,8.4 -3,4.3 -51.2,88.1 -53.3,92.6 -4.3,9.5 -1.2,22.9 6.9,29.6 4.8,4 13.1,6.4 19,5.6 5.7,-0.8 13.8,-5.2 16.7,-9.1 2.4,-3.2 49.7,-84.9 53.5,-92.5 4.4,-8.6 2.8,-19.9 -3.9,-27.3 -6.8,-7.6 -18,-10.6 -27.2,-7.3 z" />
  <path style="fill:#fedc00;stroke:none;fill-opacity:1" inkscape:connector-curvature="0" id="path28" d="m 547.9,706.8 -21.6,39.7 26.8,0.3 c 14.8,0.1 26.9,0.4 26.9,0.7 0,0.2 -13.5,25.7 -30,56.6 -16.5,30.9 -29.9,56.3 -29.8,56.5 0.4,0.3 119.2,-141.4 119.6,-142.6 0.2,-0.6 -9.5,-1 -27.7,-1 -15.5,0 -28.1,-0.2 -28.1,-0.5 0,-0.2 6.1,-11.1 13.5,-24.1 7.4,-13 13.5,-24.1 13.5,-24.5 0,-0.5 -9.3,-0.9 -20.7,-0.9 l -20.8,0 -21.6,39.8 z" />
  <path style="fill:#80d3ff;stroke:none;fill-opacity:1" inkscape:connector-curvature="0" id="path30" d="m 444.5,712.6 c -36.3,19.1 -52.3,29.4 -65.7,42.2 -9.4,9 -15.1,19.4 -16.8,30.6 -3.8,24.9 12.8,49.6 37.7,56.1 12.8,3.3 29.1,0.7 40.3,-6.5 20.3,-13 27,-35.2 27,-89.1 0,-23.6 -0.9,-43.9 -1.9,-43.8 -0.3,0 -9.6,4.7 -20.6,10.5 z m -5.8,51.6 c -0.7,21.3 -2.8,32.8 -7.1,40 -9.1,15.2 -31.6,14.3 -39.8,-1.6 -2.9,-5.6 -2.9,-14.6 0,-20.2 3.8,-7.4 16.5,-17.5 38.2,-30.2 4.7,-2.8 8.7,-5.1 8.9,-5.1 0.2,-0.1 0.1,7.7 -0.2,17.1 z" />
  <path style="fill:#80d3ff;stroke:none;fill-opacity:1" inkscape:connector-curvature="0" id="path32" d="m 753.5,712.6 c -36.3,19.1 -52.3,29.4 -65.7,42.2 -9.4,9 -15.1,19.4 -16.8,30.6 -3.8,24.9 12.8,49.6 37.7,56.1 12.8,3.3 29.1,0.7 40.3,-6.5 20.3,-13 27,-35.2 27,-89.1 0,-23.6 -0.9,-43.9 -1.9,-43.8 -0.3,0 -9.6,4.7 -20.6,10.5 z m -5.8,51.6 c -0.7,21.3 -2.8,32.8 -7.1,40 -9.1,15.2 -31.6,14.3 -39.8,-1.6 -2.9,-5.6 -2.9,-14.6 0,-20.2 3.8,-7.4 16.5,-17.5 38.2,-30.2 4.7,-2.8 8.7,-5.1 8.9,-5.1 0.2,-0.1 0.1,7.7 -0.2,17.1 z" />
  <path style="fill:#80d3ff;stroke:none;fill-opacity:1" inkscape:connector-curvature="0" id="path34" d="m 339.5,852.6 c -29.9,16.1 -44.3,27.1 -49.5,37.9 -2,4.1 -2.4,6.6 -2.5,14 0,7.7 0.4,9.8 2.6,14.6 3.4,7.2 9.6,13.4 16.8,16.8 4.8,2.2 6.9,2.6 14.6,2.6 10.8,0 15.9,-2 23.3,-8.9 11.2,-10.5 14.2,-27 13.4,-72.4 -0.1,-9.8 -0.5,-13.2 -1.4,-13.2 -0.7,0 -8.5,3.9 -17.3,8.6 z m -0.5,46.9 c -1.3,10.4 -4.3,16.3 -9.5,19.2 -10.9,6.1 -23.3,-0.5 -24.3,-12.9 -0.3,-4.6 0,-5.9 2.5,-9.6 3.3,-4.9 11,-10.9 23.3,-18.2 l 8.5,-5.1 0.3,9.3 c 0.2,5.1 -0.2,12.9 -0.8,17.3 z" />
  <path style="fill:#80d3ff;stroke:none;fill-opacity:1" inkscape:connector-curvature="0" id="path36" d="m 648.5,852.6 c -29.9,16.1 -44.3,27.1 -49.5,37.9 -2,4.1 -2.4,6.6 -2.5,14 0,7.7 0.4,9.8 2.6,14.6 3.4,7.2 9.6,13.4 16.8,16.8 4.8,2.2 6.9,2.6 14.6,2.6 10.8,0 15.9,-2 23.3,-8.9 11.2,-10.5 14.2,-27 13.4,-72.4 -0.1,-9.8 -0.5,-13.2 -1.4,-13.2 -0.7,0 -8.5,3.9 -17.3,8.6 z m -0.5,46.9 c -1.3,10.4 -4.3,16.3 -9.5,19.2 -10.9,6.1 -23.3,-0.5 -24.3,-12.9 -0.3,-4.6 0,-5.9 2.5,-9.6 3.3,-4.9 11,-10.9 23.3,-18.2 l 8.5,-5.1 0.3,9.3 c 0.2,5.1 -0.2,12.9 -0.8,17.3 z" />
</svg>
