<?xml version="1.0" encoding="UTF-8" standalone="no"?>
<svg xmlns:dc="http://purl.org/dc/elements/1.1/" xmlns:cc="http://creativecommons.org/ns#" xmlns:rdf="http://www.w3.org/1999/02/22-rdf-syntax-ns#" xmlns:svg="http://www.w3.org/2000/svg" xmlns="http://www.w3.org/2000/svg" xmlns:sodipodi="http://sodipodi.sourceforge.net/DTD/sodipodi-0.dtd" xmlns:inkscape="http://www.inkscape.org/namespaces/inkscape" version="1.0" width="1024.000000pt" height="1024.000000pt" viewBox="0 0 1024.000000 1024.000000" preserveAspectRatio="xMidYMid meet" id="svg2" inkscape:version="0.48.5 r10040" sodipodi:docname="1244999.svg">
  <defs id="defs40" />
  <sodipodi:namedview pagecolor="#ffffff" bordercolor="#666666" borderopacity="1" objecttolerance="10" gridtolerance="10" guidetolerance="10" inkscape:pageopacity="0" inkscape:pageshadow="2" inkscape:window-width="836" inkscape:window-height="480" id="namedview38" showgrid="false" inkscape:zoom="0.184375" inkscape:cx="640" inkscape:cy="640" inkscape:window-x="1598" inkscape:window-y="156" inkscape:window-maximized="0" inkscape:current-layer="svg2" />
  <metadata id="metadata4">
Created by potrace 1.11, written by Peter Selinger 2001-2013
<rdf:RDF>
  <cc:Work rdf:about="">
    <dc:format>image/svg+xml</dc:format>
    <dc:type rdf:resource="http://purl.org/dc/dcmitype/StillImage" />
  </cc:Work>
</rdf:RDF>
</metadata>
  <path style="fill:#fedc00;stroke:none;fill-opacity:1" inkscape:connector-curvature="0" id="path8" d="m 383.5,48.5 c -5.1,1.8 -11,8.1 -12.4,13.1 -1.5,5.2 -1.5,90.5 0,95.7 0.5,2.1 2.4,5.4 4.2,7.4 10.1,11.5 28.3,8.8 34.8,-5.2 1.7,-3.7 1.9,-7.3 1.9,-49 0,-28.4 -0.4,-46.4 -1.1,-48.8 -3,-11.1 -15.9,-17.3 -27.4,-13.2 z" />
  <path style="fill:#fedc00;stroke:none;fill-opacity:1" inkscape:connector-curvature="0" id="path10" d="m 260.1,81.5 c -12,3.7 -17.9,17.7 -12.3,29 5.1,10.4 43.2,75.2 45.7,77.7 12.7,13.1 35.5,3 35.5,-15.7 0,-4.3 -2.5,-9.1 -24.9,-48 C 282.5,87 279.6,83.1 271.6,81.1 c -5.4,-1.3 -6,-1.3 -11.5,0.4 z" />
  <path style="fill:#fedc00;stroke:none;fill-opacity:1" inkscape:connector-curvature="0" id="path12" d="m 510.3,81.2 c -7.7,1.7 -10.7,5.8 -32.9,44.3 -11.4,19.8 -21.5,37.8 -22.5,40 -6,13.1 4.4,28.5 19.1,28.5 6.2,0 10.6,-1.7 14.5,-5.7 3.7,-3.7 45.5,-75.9 47.3,-81.7 3.1,-9.9 -3.7,-22 -14.1,-25.1 -5.6,-1.7 -5.5,-1.7 -11.4,-0.3 z" />
  <path style="fill:#fedc00;stroke:none;fill-opacity:1" inkscape:connector-curvature="0" id="path14" d="m 166.3,173.6 c -11.1,5.6 -15.1,18.8 -9.1,29.6 2.8,4.9 4.5,6 47.6,30.8 29.5,16.9 36.2,20.4 40.2,20.8 19.6,1.9 30.9,-22.8 16.4,-35.9 -1.6,-1.4 -20,-12.4 -40.9,-24.5 -37.7,-21.7 -38,-21.8 -44.5,-22.2 -4.6,-0.2 -7.5,0.2 -9.7,1.4 z" />
  <path style="fill:#fedc00;stroke:none;fill-opacity:1" inkscape:connector-curvature="0" id="path16" d="m 600,172.7 c -3.3,1.2 -76.5,43.8 -79.3,46.2 -6.3,5.3 -8.4,15.7 -4.8,23.6 2.3,5.1 7.9,10.1 13.1,11.6 8.2,2.5 11.4,1.1 53.4,-23.1 35.4,-20.4 39.2,-22.9 41.7,-26.9 5.4,-8.5 4.7,-18 -1.9,-25.3 -2,-2.3 -5.1,-4.7 -6.9,-5.5 -3.2,-1.3 -12.4,-1.7 -15.3,-0.6 z" />
  <path style="fill:#fedc00;stroke:none;fill-opacity:1" inkscape:connector-curvature="0" id="path18" d="m 380.5,214.7 c -36,4.6 -66,25.5 -81.5,56.8 -14.6,29.2 -14.4,62.9 0.4,92.3 2.5,4.9 4.1,7 4.9,6.5 0.7,-0.4 4.6,-2.9 8.7,-5.6 9.8,-6.4 27.2,-14.8 38.6,-18.6 7.6,-2.5 17.3,-4.7 33,-7.7 1.2,-0.2 4.7,-3.4 7.7,-7.2 19.2,-23.4 48.6,-45.7 77,-58.4 6.2,-2.8 11.4,-5.2 11.6,-5.4 0.9,-0.9 -10.2,-15.6 -16.9,-22.5 -21.6,-21.8 -55,-33.9 -83.5,-30.2 z" />
  <path style="fill:#fedc00;stroke:none;fill-opacity:1" inkscape:connector-curvature="0" id="path20" d="m 135.2,297.3 c -14.6,5.3 -18.9,23.7 -8.1,34.6 2.1,2.1 5.5,4.3 7.7,4.9 2.8,0.9 17.4,1.2 49.3,1.2 42.1,0 45.7,-0.2 49.4,-1.9 5.2,-2.4 9.1,-6.6 11,-12 2.2,-6.2 1.9,-10 -1.2,-16.2 -3,-5.7 -7.1,-9.2 -13.2,-10.9 -5.4,-1.5 -90.7,-1.2 -94.9,0.3 z" />
  <path style="fill:#dcdcdc;stroke:none;fill-opacity:1" inkscape:connector-curvature="0" id="path22" d="M 545.5,304 C 495,308.1 447.8,336.2 420,378.8 l -5.1,7.9 -12.2,0.6 c -33.3,1.5 -62.6,14.9 -85,38.7 -17,18 -28.1,40 -32.2,63.8 -1.9,11 -1.9,31.6 0,42.8 7.8,44.2 40,81.6 82.6,95.8 20.8,7 11.7,6.7 198.4,6.4 l 168,-0.3 9.7,-2.7 c 20.1,-5.5 34.2,-13.9 49.3,-29.2 14.4,-14.7 22.2,-28.6 27.6,-49.2 2,-7.6 2.3,-11.3 2.3,-24.9 0,-14 -0.4,-17.2 -2.7,-25.7 -10.9,-40.6 -43.9,-71.2 -84.6,-78.3 -4.6,-0.8 -10.5,-1.5 -13.1,-1.5 l -4.7,0 -3.3,-9.3 C 701.3,374.3 671.2,340.3 632.9,320.9 607.3,308 574.7,301.7 545.5,304 z m 30.8,53.5 c 39.3,5.9 73.3,33.2 88.3,70.8 1.4,3.7 2.5,7 2.3,7.2 -0.2,0.2 -3.9,2.6 -8.1,5.4 -12.2,7.9 -16.6,15.7 -15.5,27.4 1.4,15.3 16.3,26.1 31.2,22.8 3,-0.7 7.8,-2.8 10.7,-4.8 15.9,-11 31.8,-13.6 49.4,-8.2 16.3,5 31.5,21.3 35.3,37.9 1.5,6.3 1.3,20.6 -0.3,26.5 -4.6,17.2 -17.5,31 -35,37.4 l -7.1,2.6 -165,0 c -186,0 -169.4,0.7 -187,-7.9 -36.6,-18 -50.3,-64.4 -29.5,-99.7 9.9,-16.8 27,-29.3 45.8,-33.5 11.3,-2.5 29.3,-1.6 39.2,2.1 14.5,5.2 23.9,12.6 37.7,29.2 5.4,6.5 11.8,9.6 19.9,9.6 18,0.1 30.8,-17.5 24.9,-34.3 -4.2,-11.9 -25.8,-34.2 -42.2,-43.6 -1.8,-1 -3.3,-2.1 -3.3,-2.4 0,-1.3 11.1,-13.6 16.6,-18.3 25.5,-21.8 58.4,-31.2 91.7,-26.2 z" />
  <path style="fill:#fedc00;stroke:none;fill-opacity:1" inkscape:connector-curvature="0" id="path24" d="m 241,380.4 c -1.9,0.6 -20.1,10.8 -40.5,22.5 -39.5,22.6 -43.2,25.4 -45.5,33.5 -1.9,6.8 0.7,16.4 5.6,20.7 5.4,4.7 14,6.8 19.9,4.9 2.1,-0.7 20.5,-10.8 40.9,-22.6 37.7,-21.7 42.1,-24.8 45.2,-32.1 4.6,-10.6 -2.6,-24.3 -14.2,-27.2 -5.4,-1.4 -7,-1.3 -11.4,0.3 z" />
  <path style="fill:#80d3ff;stroke:none;fill-opacity:1" inkscape:connector-curvature="0" id="path26" d="m 439,689.6 c -37.1,19.3 -56,31.4 -69.1,44.4 -9.3,9.2 -13.7,16.6 -15.8,26.8 -3.4,16.4 1.7,33.7 13.5,45.7 19.5,19.8 50.5,20.4 70.9,1.3 12.3,-11.5 17.2,-26 19.5,-58 1.4,-18.7 0.4,-68.8 -1.4,-68.8 -0.6,0 -8.5,3.9 -17.6,8.6 z m -8.4,51.1 c -1.6,34.3 -5.3,45.5 -17,50.9 -9.3,4.3 -18.4,2.7 -25.8,-4.7 -7.2,-7.2 -8.8,-16.2 -4.4,-25.4 3.8,-8 12.6,-15.3 33.8,-28.1 6.8,-4 12.7,-7.4 13.2,-7.4 0.5,0 0.6,6.3 0.2,14.7 z" />
  <path style="fill:#80d3ff;stroke:none;fill-opacity:1" inkscape:connector-curvature="0" id="path28" d="m 766.5,690.6 c -35,18.4 -54.4,30.8 -66.2,42.1 -12.3,11.9 -17.4,22.9 -17.6,37.8 -0.1,14.2 4.8,26.2 14.8,36.2 18.2,18.2 46.2,20 66.8,4.5 17.9,-13.7 23.7,-34.8 23.7,-87.1 0,-28.1 -0.8,-43.1 -2.4,-43 -0.6,0 -9.2,4.3 -19.1,9.5 z m -6.8,53.1 c -1,27 -3.7,37.5 -11.5,44.5 -7,6.4 -16.3,7.5 -25.1,3.2 -6.3,-3.2 -10.5,-8.6 -12,-15.4 -2.6,-11.9 3.1,-21 20.8,-33.2 6.8,-4.7 26.9,-16.8 28,-16.8 0.2,0 0.1,8 -0.2,17.7 z" />
  <path style="fill:#dcdcdc;stroke:none;fill-opacity:1" inkscape:connector-curvature="0" id="path30" d="m 289.5,728.5 c -2.4,2.3 -2.5,3 -2.5,13.9 l 0,11.6 -9.7,-6.1 c -8,-4.9 -10.3,-5.9 -12.8,-5.5 -5.3,1 -8.1,6.8 -5.6,11.5 0.6,1 5.3,4.4 10.5,7.5 5.3,3.2 9.6,6.1 9.6,6.5 0,0.3 -4.1,3 -9.1,6 -12.3,7.4 -14.3,10.8 -9.8,16.5 3.2,4.1 7,3.5 17.4,-2.9 l 9,-5.5 0.3,11.2 c 0.2,9.9 0.5,11.5 2.4,13.5 2.7,2.9 8,3.1 10.8,0.3 1.8,-1.8 2,-3.3 2,-13.5 0,-6.3 0.2,-11.5 0.5,-11.5 0.3,0 4.5,2.5 9.4,5.5 9.7,6 13.8,6.8 17.1,3.5 1.9,-1.9 2.6,-6.3 1.4,-9.4 -0.3,-0.8 -4.8,-4.1 -10,-7.2 -5.2,-3.1 -9.7,-6 -9.9,-6.4 -0.3,-0.4 3.8,-3.3 9.1,-6.5 10,-6.1 11.4,-7.6 11.4,-12.4 0,-3.4 -3.9,-7.1 -7.4,-7.1 -1.1,0 -6.1,2.5 -11.1,5.5 -4.9,3 -9.3,5.5 -9.7,5.5 -0.5,0 -0.8,-5.1 -0.8,-11.4 0,-11.2 -0.1,-11.5 -2.6,-13.5 -3.5,-2.8 -6.9,-2.6 -9.9,0.4 z" />
  <path style="fill:#dcdcdc;stroke:none;fill-opacity:1" inkscape:connector-curvature="0" id="path32" d="m 610.9,727.9 c -2.2,1.8 -2.4,2.7 -2.7,13.6 -0.3,8.3 -0.7,11.5 -1.5,11.2 -0.7,-0.3 -5,-2.8 -9.6,-5.6 -4.6,-2.8 -9.1,-5.1 -9.8,-5.1 -2.9,0 -7.1,3 -7.7,5.6 -1.3,5 0.9,7.7 11.5,14.1 l 9.9,6 -10.2,6.4 c -8.5,5.3 -10.4,7 -11.2,9.7 -1.3,4.6 1.7,8.6 6.7,9 2.8,0.3 5.2,-0.7 12.4,-5.2 l 8.8,-5.5 0.5,11.3 c 0.6,13.3 1.8,15.6 8,15.6 6.2,0 7.4,-2.3 8,-15.6 l 0.5,-11.3 8.8,5.4 c 5.1,3.2 9.8,5.5 11.5,5.5 5.6,0 9.2,-5.1 7.3,-10.3 -0.6,-1.5 -4.7,-4.7 -11.1,-8.7 l -10.2,-6.3 3.4,-2.1 c 17.5,-10.8 19.8,-13 18.3,-17.7 -0.8,-2.5 -5.3,-5.9 -7.8,-5.9 -1.1,0 -6,2.5 -10.9,5.5 -4.8,3 -9,5.5 -9.3,5.5 -0.3,0 -0.5,-4.2 -0.5,-9.4 0,-10 -1,-14.1 -3.8,-16.2 -2.5,-1.9 -6.6,-1.7 -9.3,0.5 z" />
  <path style="fill:#dcdcdc;stroke:none;fill-opacity:1" inkscape:connector-curvature="0" id="path34" d="m 329.4,828 c -3.5,1.4 -3.9,2.8 -4.4,15.2 l -0.5,11.7 -8,-5 c -4.4,-2.8 -9,-5.5 -10.3,-6 -3.4,-1.3 -9,1.3 -9.8,4.7 -1.3,5.1 0.6,7.6 10.8,13.9 5.4,3.3 9.8,6.2 9.8,6.5 0,0.3 -4.4,3.2 -9.7,6.6 -10.3,6.4 -12.2,8.8 -10.9,13.7 0.8,3.2 5.8,6.1 8.9,5.1 1.2,-0.3 6.1,-3.1 11,-6 l 8.7,-5.4 0,10.9 c 0,6 0.3,11.7 0.6,12.6 0.9,2.3 6,4.6 8.8,3.9 4.8,-1.2 5.5,-3.1 5.8,-15.7 l 0.3,-11.7 9.3,5.7 c 10.2,6.1 14,6.9 17.3,3.6 2.5,-2.5 2.8,-7.7 0.4,-10.3 -0.9,-1 -5.7,-4.3 -10.6,-7.2 -4.9,-2.9 -8.8,-5.5 -8.9,-5.8 0,-0.3 3,-2.2 6.5,-4.4 12.7,-7.5 14.5,-9.2 14.5,-13.5 0,-2.6 -0.7,-4.4 -2,-5.6 -3.6,-3.2 -7.7,-2.3 -17.5,3.8 l -9,5.6 -0.3,-11.9 c -0.3,-11.5 -0.4,-12 -2.9,-14 -2.8,-2.1 -4.5,-2.4 -7.9,-1 z" />
  <path style="fill:#dcdcdc;stroke:none;fill-opacity:1" inkscape:connector-curvature="0" id="path36" d="m 650.4,828.2 c -3.4,1.6 -4.4,5.2 -4.4,16.4 l 0,10.4 -9.2,-5.7 c -10.5,-6.5 -13.9,-7.1 -17.5,-2.9 -4.8,5.6 -3,8.9 9.2,16.2 5.2,3.1 9.5,6 9.5,6.4 0,0.4 -4.2,3.3 -9.4,6.5 -8.8,5.5 -11.6,8.4 -11.6,12.1 0,2.2 5.5,7.4 7.7,7.4 1,0 6.2,-2.7 11.6,-5.9 l 9.7,-5.9 0,11 c 0,10.8 0,11 2.9,13.9 3.6,3.5 6.1,3.7 9.8,0.5 2.7,-2.4 2.8,-2.7 3.1,-14 l 0.4,-11.5 9,5.6 c 10.4,6.5 13.9,7.1 17.5,2.9 4.6,-5.4 2.5,-9 -9.3,-16.2 -5.2,-3.1 -9.4,-6 -9.4,-6.4 0,-0.5 3.9,-3.2 8.6,-6.1 10,-6.1 12.8,-9.2 11.9,-12.9 -0.8,-3.2 -3.3,-5.7 -6.5,-6.5 -1.9,-0.4 -4.5,0.6 -11,4.6 -4.7,2.8 -9,5.3 -9.7,5.6 -0.8,0.3 -1.2,-2.8 -1.5,-10.7 -0.3,-10.8 -0.4,-11.3 -3.1,-13.6 -3,-2.6 -5,-2.9 -8.3,-1.2 z" />
</svg>
