<?xml version="1.0" encoding="UTF-8" standalone="no"?>
<svg xmlns:dc="http://purl.org/dc/elements/1.1/" xmlns:cc="http://creativecommons.org/ns#" xmlns:rdf="http://www.w3.org/1999/02/22-rdf-syntax-ns#" xmlns:svg="http://www.w3.org/2000/svg" xmlns="http://www.w3.org/2000/svg" xmlns:sodipodi="http://sodipodi.sourceforge.net/DTD/sodipodi-0.dtd" xmlns:inkscape="http://www.inkscape.org/namespaces/inkscape" version="1.0" width="1024.000000pt" height="1024.000000pt" viewBox="0 0 1024.000000 1024.000000" preserveAspectRatio="xMidYMid meet" id="svg2" inkscape:version="0.48.2 r9819" sodipodi:docname="1293992.svg">
  <defs id="defs34" />
  <sodipodi:namedview pagecolor="#ffffff" bordercolor="#666666" borderopacity="1" objecttolerance="10" gridtolerance="10" guidetolerance="10" inkscape:pageopacity="0" inkscape:pageshadow="2" inkscape:window-width="1492" inkscape:window-height="896" id="namedview32" showgrid="false" inkscape:zoom="0.52149125" inkscape:cx="438.56169" inkscape:cy="730.64622" inkscape:window-x="946" inkscape:window-y="111" inkscape:window-maximized="0" inkscape:current-layer="svg2" />
  <metadata id="metadata4">
Created by potrace 1.11, written by Peter Selinger 2001-2013
<rdf:RDF>
  <cc:Work rdf:about="">
    <dc:format>image/svg+xml</dc:format>
    <dc:type rdf:resource="http://purl.org/dc/dcmitype/StillImage" />
  </cc:Work>
</rdf:RDF>
</metadata>
  <path style="fill:#cccccc;stroke:none;fill-opacity:1" inkscape:connector-curvature="0" id="path24" d="m 458.9,684.6 c -5,3.2 -5.4,4.7 -5.9,24.6 l -0.5,18.7 -14.5,-9 c -8,-4.9 -15.5,-9.2 -16.8,-9.6 -3.9,-0.9 -8.7,0.6 -11.8,3.8 -2.5,2.6 -2.9,3.8 -2.9,8.4 0,3.9 0.5,5.9 2,7.5 1.1,1.2 8.8,6.4 17.2,11.7 8.4,5.2 15.3,9.6 15.3,9.7 0,0.2 -7.2,4.7 -15.9,10.1 -17.9,11 -19.8,13.1 -18.8,20.5 0.7,5.1 3.7,8.6 8.8,10.1 5,1.5 6.6,0.9 23.4,-9.5 l 14,-8.7 0.5,19 0.5,19.1 3.3,3.2 c 2.9,2.9 3.9,3.3 8.7,3.3 4.8,0 5.8,-0.4 8.7,-3.3 l 3.3,-3.2 0.5,-18.9 0.5,-19 14.5,9.1 c 16.2,10.2 20.1,11.4 25.8,7.9 6.2,-4 7.9,-12.6 3.4,-18.1 -0.9,-1.2 -8.5,-6.3 -16.7,-11.4 -8.3,-5.1 -14.9,-9.7 -14.8,-10.2 0.2,-0.5 6.7,-4.8 14.5,-9.6 17.1,-10.5 18.9,-12.1 19.5,-17.9 0.8,-8.1 -6.3,-15 -13.8,-13.5 -1.9,0.3 -9.9,4.6 -17.9,9.5 l -14.5,9 -0.5,-18.9 -0.5,-19 -3.2,-3.1 c -3.9,-3.9 -11.2,-5 -15.4,-2.3 z" />
  <path style="fill:#cccccc;stroke:none;fill-opacity:1" inkscape:connector-curvature="0" id="path26" d="m 663.5,684 c -1.1,0.4 -3.1,2 -4.5,3.5 -2.4,2.6 -2.5,3.1 -3,21.5 l -0.5,18.9 -14.5,-9.1 c -15.2,-9.6 -20,-11.2 -25,-8.6 -3.4,1.9 -7,7.5 -7,11.2 0,5.8 3.1,8.8 18.1,18.1 7.9,4.9 15,9.4 15.7,10 1.1,1 -1.5,3 -13.5,10.4 -8.2,5 -15.9,10.2 -17.2,11.5 -3.3,3.5 -3.8,10.1 -1.1,14.4 2.5,4 8.1,6.6 12.4,5.8 1.7,-0.4 9.6,-4.7 17.6,-9.6 l 14.5,-8.9 0.5,18.9 0.5,19 3.3,3.2 c 2.9,2.9 3.9,3.3 8.7,3.3 4.8,0 5.8,-0.4 8.7,-3.3 l 3.3,-3.2 0.5,-19 0.5,-18.9 14.5,9 c 8,4.9 15.5,9.2 16.8,9.6 6.9,1.7 14.1,-3.5 14.9,-10.9 0.7,-6.9 -1.6,-9.4 -19.1,-20.3 -8.6,-5.3 -15.6,-9.8 -15.6,-10 0,-0.2 6.7,-4.4 15,-9.5 16.7,-10.2 20,-13.3 20,-18.8 0,-4.9 -1.8,-8.1 -6,-11 -5.5,-3.7 -8.9,-2.7 -25.7,7.7 L 681.5,728 681,709.3 c -0.3,-10.4 -0.9,-19.6 -1.4,-20.5 -2.1,-4.5 -10.8,-7.1 -16.1,-4.8 z" />
  <path style="fill:#cccccc;stroke:none;fill-opacity:1" inkscape:connector-curvature="0" id="path28" d="m 563.9,793.9 c -2.2,1.8 -2.4,2.8 -2.9,14 l -0.5,12 -9,-5.6 c -10.2,-6.4 -14.5,-7.3 -17.6,-3.4 -2.1,2.5 -2.4,6.2 -0.9,9.1 0.5,1 5.3,4.4 10.5,7.7 5.2,3.2 9.5,6 9.5,6.3 0,0.3 -3.8,2.7 -8.3,5.4 -4.5,2.7 -9.2,5.8 -10.4,6.9 -2.8,2.5 -3,7.6 -0.4,10.8 3.1,3.8 7.3,3 17.6,-3.4 l 9,-5.6 0.5,11.9 c 0.6,13.5 1.5,15.4 7.5,15.4 6,0 6.9,-1.9 7.5,-15.4 l 0.5,-11.8 9,5.6 c 10.2,6.3 14.5,7.1 17.6,3.3 2.1,-2.5 2.4,-6.2 0.9,-9.1 -0.5,-1 -5.3,-4.4 -10.5,-7.7 -5.2,-3.2 -9.5,-6 -9.5,-6.3 0,-0.3 3.8,-2.7 8.3,-5.4 4.5,-2.7 9.2,-5.8 10.5,-6.9 2.7,-2.5 2.9,-7.6 0.3,-10.8 -3.1,-3.8 -7.3,-3 -17.6,3.4 l -9,5.6 -0.5,-12 c -0.5,-11.2 -0.7,-12.2 -2.9,-14 -1.3,-1 -3.3,-1.9 -4.6,-1.9 -1.3,0 -3.3,0.9 -4.6,1.9 z" />
  <path style="fill:#cccccc;stroke:none;fill-opacity:1" inkscape:connector-curvature="0" id="path30" d="m 476,847 c -1.8,1.8 -2,3.3 -2,13.5 0,6.3 -0.2,11.5 -0.5,11.5 -0.3,0 -4.5,-2.5 -9.4,-5.5 -9.9,-6.1 -13.5,-6.8 -16.9,-3.2 -2.4,2.6 -2.9,7.5 -0.9,9.8 0.6,0.9 5.4,4.2 10.5,7.3 5,3.2 9.2,5.9 9.2,6.1 0,0.1 -4.3,2.9 -9.6,6.1 -10.1,6.1 -11.4,7.5 -11.4,12.3 0,3.3 3.9,7.1 7.3,7.1 1.2,0 6.3,-2.5 11.3,-5.5 5.1,-3 9.5,-5.5 9.8,-5.5 0.3,0 0.6,5.1 0.6,11.3 0,10.6 0.2,11.5 2.3,13.5 3.3,3.1 8,2.9 10.6,-0.4 1.8,-2.3 2.1,-4.1 2.1,-13.5 0,-6 0.2,-10.9 0.5,-10.9 0.3,0 4.5,2.5 9.4,5.5 4.9,3 10.1,5.5 11.5,5.5 3.6,0 7.6,-4.1 7.6,-7.8 0,-3.5 -2,-5.4 -12.7,-12.2 -4.6,-2.9 -8.3,-5.4 -8.3,-5.5 0,-0.2 4.2,-2.9 9.3,-6 5,-3.2 9.8,-6.4 10.5,-7.3 2,-2.6 1.5,-7.6 -1.1,-10 -3.6,-3.4 -7,-2.7 -16.8,3.3 -4.9,3 -9.1,5.5 -9.4,5.5 -0.3,0 -0.5,-5.1 -0.5,-11.3 0,-10.6 -0.2,-11.5 -2.3,-13.5 -3,-2.8 -8,-2.9 -10.7,-0.2 z" />
  <g transform="matrix(1.0140556,0,0,1.0139314,4.2073726,-18.626235)" id="sonne_1_">
    <g id="g52">
      <g id="_x3C_Sonne_x3E__1_">
        <path style="fill:#fedc00" inkscape:connector-curvature="0" d="m 385.004,184.923 c -11.696,0 -21.155,-9.462 -21.155,-21.155 V 79.152 c 0,-11.693 9.459,-21.152 21.155,-21.152 11.689,0 21.15,9.459 21.15,21.152 v 84.616 c 0,11.693 -9.461,21.155 -21.15,21.155 z" id="path55" />
        <path style="fill:#fedc00" inkscape:connector-curvature="0" d="m 215.772,354.155 h -84.615 c -11.693,0 -21.157,-9.461 -21.157,-21.157 0,-11.691 9.464,-21.15 21.157,-21.15 h 84.615 c 11.693,0 21.154,9.458 21.154,21.15 0.001,11.696 -9.461,21.157 -21.154,21.157 z" id="path57" />
        <path style="fill:#fedc00" inkscape:connector-curvature="0" d="m 300.41,207.606 c -7.316,0 -14.421,-3.802 -18.347,-10.578 l -42.308,-73.297 c -5.848,-10.121 -2.373,-23.052 7.746,-28.901 10.08,-5.843 23.035,-2.374 28.899,7.747 l 42.311,73.297 c 5.845,10.121 2.375,23.054 -7.748,28.898 -3.324,1.924 -6.962,2.834 -10.553,2.834 z" id="path59" />
        <path style="fill:#fedc00" inkscape:connector-curvature="0" d="m 531.55,269.536 c -7.272,0 -14.421,-3.801 -18.304,-10.576 -5.868,-10.124 -2.395,-23.054 7.725,-28.9 l 73.293,-42.307 c 10.125,-5.825 23.056,-2.395 28.883,7.746 5.863,10.123 2.394,23.057 -7.727,28.901 l -73.294,42.309 c -3.348,1.922 -6.982,2.827 -10.576,2.827 z" id="path61" />
        <path style="fill:#fedc00" inkscape:connector-curvature="0" d="m 165.179,481.078 c -7.314,0 -14.419,-3.799 -18.344,-10.575 -5.845,-10.124 -2.375,-23.058 7.745,-28.883 l 73.294,-42.307 c 10.08,-5.905 23.035,-2.396 28.902,7.728 5.848,10.121 2.375,23.052 -7.745,28.879 l -73.298,42.305 c -3.322,1.943 -6.96,2.853 -10.554,2.853 z" id="path63" />
        <path style="fill:#fedc00" inkscape:connector-curvature="0" d="m 238.432,269.536 c -3.594,0 -7.229,-0.905 -10.558,-2.828 L 154.58,224.399 c -10.12,-5.843 -13.59,-18.778 -7.745,-28.901 5.847,-10.12 18.8,-13.613 28.899,-7.746 l 73.298,42.307 c 10.12,5.846 13.593,18.777 7.745,28.9 -3.926,6.777 -11.031,10.577 -18.345,10.577 z" id="path65" />
        <path style="fill:#fedc00" inkscape:connector-curvature="0" d="m 469.617,207.606 c -3.595,0 -7.23,-0.91 -10.578,-2.834 -10.124,-5.844 -13.594,-18.776 -7.728,-28.898 l 42.31,-73.297 c 5.784,-10.1 18.755,-13.508 28.882,-7.747 10.12,5.849 13.591,18.78 7.723,28.901 l -42.307,73.297 c -3.881,6.777 -11.032,10.578 -18.302,10.578 z" id="path67" />
      </g>
      <g id="g69">
        <path style="fill:#fedc00" inkscape:connector-curvature="0" d="m 280.35,332.998 c 0,16.198 3.698,31.545 10.293,45.245 21.433,-11.845 45.28,-19.834 70.608,-23.002 19.03,-24.521 42.655,-45.296 69.594,-61.028 13.158,-7.684 26.982,-14.082 41.265,-19.152 -18.777,-28.137 -50.808,-46.714 -87.106,-46.714 -57.701,0 -104.654,46.955 -104.654,104.651 z" id="path71" />
      </g>
    </g>
  </g>
  <g transform="matrix(0.8946005,0,0,0.89169878,64.057594,33.934032)" id="wolke">
    <g id="dark_1_">
      <path style="fill:#808080" inkscape:connector-curvature="0" d="M 730.771,439.491 C 708.318,362.24 636.728,306.954 553.984,306.954 c -66.831,0 -127.534,35.854 -159.956,93.004 -2.69,-0.169 -5.379,-0.25 -8.104,-0.25 -75.888,0 -137.628,61.738 -137.628,137.627 0,75.921 61.74,137.665 137.628,137.665 h 344.639 c 64.928,0 117.733,-52.852 117.733,-117.775 0,-64.841 -52.682,-117.608 -117.525,-117.734 z m -0.209,177.613 H 385.924 c -43.96,0 -79.731,-35.773 -79.731,-79.769 0,-43.958 35.771,-79.731 79.731,-79.731 26.548,0 51.276,13.147 66.164,35.19 8.934,13.232 26.921,16.71 40.195,7.774 13.236,-8.972 16.708,-26.959 7.776,-40.197 -12.528,-18.52 -29.031,-33.37 -48.008,-43.749 23.402,-32.128 60.995,-51.772 101.933,-51.772 55.99,0 104.542,36.927 120.548,88.783 -5.461,2.979 -10.711,6.41 -15.76,10.258 -12.691,9.757 -15.051,27.915 -5.291,40.567 9.761,12.697 27.915,15.053 40.608,5.294 10.501,-8.065 23.119,-12.365 36.437,-12.365 h 0.037 c 33.001,0 59.84,26.839 59.84,59.837 -10e-4,33.001 -26.84,59.88 -59.841,59.88 z" id="path49" />
    </g>
  </g>
  <g transform="matrix(0.97784295,0,0,0.97382827,16.492834,-1.5766114)" id="g74">
    <polygon style="fill:#ffffff" id="polygon76" points="684.054,387.074 624.535,403.762 645.331,289.523 633.258,201.996 636.287,177.41 684.054,193.476 736.57,201.328 798.715,213.549 851.232,223.181 876.626,250.321 867.174,343.486 851.232,355.178 798.715,365.487 736.57,379.218 " />
    <polygon style="fill:#d9dadb" id="polygon78" points="684.054,387.111 736.57,379.236 798.715,365.497 851.232,355.183 867.174,343.563 873.047,291 642.813,291 649.115,390.143 " />
    <g id="g80">
      <polygon style="fill:#bb381a" id="polygon82" points="799,213.549 737,201.328 737,379.218 799,365.487 " />
      <polygon style="fill:#bb381a" id="polygon84" points="909,343.202 909,234.598 851,223.181 851,355.178 " />
      <path style="fill:#bb381a" inkscape:connector-curvature="0" id="path86" d="M 621.74,172.693 494.955,287.469 495,287.472 V 561 h 20 V 307.013 l 106,102.749 v 0.397 l 0.736,-0.073 0.357,0.15 0.537,-0.237 L 684,387.074 V 193.476 l -61.769,-20.498 -0.491,-0.285 z M 511.679,288.94 621,189.509 V 393.528 L 511.679,288.94 z" />
    </g>
  </g>
</svg>
