<?xml version="1.0" encoding="UTF-8" standalone="no"?>
<svg xmlns:dc="http://purl.org/dc/elements/1.1/" xmlns:cc="http://creativecommons.org/ns#" xmlns:rdf="http://www.w3.org/1999/02/22-rdf-syntax-ns#" xmlns:svg="http://www.w3.org/2000/svg" xmlns="http://www.w3.org/2000/svg" xmlns:sodipodi="http://sodipodi.sourceforge.net/DTD/sodipodi-0.dtd" xmlns:inkscape="http://www.inkscape.org/namespaces/inkscape" version="1.0" width="1024.000000pt" height="1024.000000pt" viewBox="0 0 1024.000000 1024.000000" preserveAspectRatio="xMidYMid meet" id="svg2" inkscape:version="0.48.5 r10040" sodipodi:docname="1394999.svg">
  <defs id="defs40" />
  <sodipodi:namedview pagecolor="#ffffff" bordercolor="#666666" borderopacity="1" objecttolerance="10" gridtolerance="10" guidetolerance="10" inkscape:pageopacity="0" inkscape:pageshadow="2" inkscape:window-width="852" inkscape:window-height="637" id="namedview38" showgrid="false" inkscape:zoom="0.184375" inkscape:cx="640" inkscape:cy="640" inkscape:window-x="892" inkscape:window-y="141" inkscape:window-maximized="0" inkscape:current-layer="svg2" />
  <metadata id="metadata4">
Created by potrace 1.11, written by Peter Selinger 2001-2013
<rdf:RDF>
  <cc:Work rdf:about="">
    <dc:format>image/svg+xml</dc:format>
    <dc:type rdf:resource="http://purl.org/dc/dcmitype/StillImage" />
  </cc:Work>
</rdf:RDF>
</metadata>
  <path style="fill:#fedc00;stroke:none;fill-opacity:1" inkscape:connector-curvature="0" id="path8" d="m 383.5,48.5 c -5.1,1.8 -11,8.1 -12.4,13.1 -1.5,5.2 -1.5,90.5 0,95.7 0.5,2.1 2.4,5.4 4.2,7.4 10.1,11.5 28.3,8.8 34.8,-5.2 1.7,-3.7 1.9,-7.3 1.9,-49 0,-28.4 -0.4,-46.4 -1.1,-48.8 -3,-11.1 -15.9,-17.3 -27.4,-13.2 z" />
  <path style="fill:#fedc00;stroke:none;fill-opacity:1" inkscape:connector-curvature="0" id="path10" d="m 260.1,81.5 c -12,3.7 -17.9,17.7 -12.3,29 5.1,10.4 43.2,75.2 45.7,77.7 12.7,13.1 35.5,3 35.5,-15.7 0,-4.3 -2.5,-9.1 -24.9,-48 C 282.5,87 279.6,83.1 271.6,81.1 c -5.4,-1.3 -6,-1.3 -11.5,0.4 z" />
  <path style="fill:#fedc00;stroke:none;fill-opacity:1" inkscape:connector-curvature="0" id="path12" d="m 510.3,81.2 c -7.7,1.7 -10.7,5.8 -32.9,44.3 -11.4,19.8 -21.5,37.8 -22.5,40 -6,13.1 4.4,28.5 19.1,28.5 6.2,0 10.6,-1.7 14.5,-5.7 3.7,-3.7 45.5,-75.9 47.3,-81.7 3.1,-9.9 -3.7,-22 -14.1,-25.1 -5.6,-1.7 -5.5,-1.7 -11.4,-0.3 z" />
  <path style="fill:#fedc00;stroke:none;fill-opacity:1" inkscape:connector-curvature="0" id="path14" d="m 166.3,173.6 c -11.1,5.6 -15.1,18.8 -9.1,29.6 2.8,4.9 4.5,6 47.6,30.8 29.5,16.9 36.2,20.4 40.2,20.8 19.6,1.9 30.9,-22.8 16.4,-35.9 -1.6,-1.4 -20,-12.4 -40.9,-24.5 -37.7,-21.7 -38,-21.8 -44.5,-22.2 -4.6,-0.2 -7.5,0.2 -9.7,1.4 z" />
  <path style="fill:#fedc00;stroke:none;fill-opacity:1" inkscape:connector-curvature="0" id="path16" d="m 600,172.7 c -3.3,1.2 -76.5,43.8 -79.3,46.2 -6.3,5.3 -8.4,15.7 -4.8,23.6 2.3,5.1 7.9,10.1 13.1,11.6 8.2,2.5 11.4,1.1 53.4,-23.1 35.4,-20.4 39.2,-22.9 41.7,-26.9 5.4,-8.5 4.7,-18 -1.9,-25.3 -2,-2.3 -5.1,-4.7 -6.9,-5.5 -3.2,-1.3 -12.4,-1.7 -15.3,-0.6 z" />
  <path style="fill:#fedc00;stroke:none;fill-opacity:1" inkscape:connector-curvature="0" id="path18" d="m 380.5,214.7 c -36,4.6 -66,25.5 -81.5,56.8 -14.6,29.2 -14.4,62.9 0.4,92.3 2.5,4.9 4.1,7 4.9,6.5 0.7,-0.4 4.6,-2.9 8.7,-5.6 9.8,-6.4 27.2,-14.8 38.6,-18.6 7.6,-2.5 17.3,-4.7 33,-7.7 1.2,-0.2 4.7,-3.4 7.7,-7.2 19.2,-23.4 48.6,-45.7 77,-58.4 6.2,-2.8 11.4,-5.2 11.6,-5.4 0.9,-0.9 -10.2,-15.6 -16.9,-22.5 -21.6,-21.8 -55,-33.9 -83.5,-30.2 z" />
  <path style="fill:#fedc00;stroke:none;fill-opacity:1" inkscape:connector-curvature="0" id="path20" d="m 135.2,297.3 c -14.6,5.3 -18.9,23.7 -8.1,34.6 2.1,2.1 5.5,4.3 7.7,4.9 2.8,0.9 17.4,1.2 49.3,1.2 42.1,0 45.7,-0.2 49.4,-1.9 5.2,-2.4 9.1,-6.6 11,-12 2.2,-6.2 1.9,-10 -1.2,-16.2 -3,-5.7 -7.1,-9.2 -13.2,-10.9 -5.4,-1.5 -90.7,-1.2 -94.9,0.3 z" />
  <path style="fill:#cecece;stroke:none;fill-opacity:1" inkscape:connector-curvature="0" id="path22" d="m 539,304.1 c -50.6,4.4 -99.1,33.9 -125.3,76.1 l -4.2,6.8 -9.1,0 c -11.4,0 -25.3,2.3 -36.9,6.2 -17.9,6 -32.1,14.6 -45.9,27.8 -25.6,24.5 -38.7,54.8 -38.7,89.5 0,28.2 8.1,52.4 24.8,74.6 18.4,24.4 42.8,39.9 74,47.1 l 9.8,2.2 161.5,0.4 c 168.2,0.3 174.9,0.2 190.6,-3.9 28.8,-7.5 54.6,-28.9 67.9,-56.3 6.8,-14 9.6,-25.4 10.2,-42.1 0.6,-16.5 -1.5,-29.1 -7.2,-43.3 -15.1,-37.3 -49.7,-62.9 -89.4,-66 l -8.3,-0.7 -3.3,-9 C 700.8,389.3 686.4,367.2 668,349.6 640,322.9 605.4,307.4 566,304 c -12.7,-1.1 -13.4,-1.1 -27,0.1 z m 42.5,55.3 c 12.5,3.3 29.7,11.6 40.2,19.5 14.6,11 26.6,25.8 34.6,42.9 5.8,12.5 5.7,12.8 -3.8,19.3 -9.1,6.2 -12.9,11.4 -14.7,19.9 -2.8,13.6 7.1,27.4 21.7,30.1 6.5,1.2 13.1,-0.6 21.4,-6 9.9,-6.3 17.6,-9 27.2,-9.8 26.8,-2.1 50.8,16 56.4,42.4 1.8,8.6 1.8,13 0,21.8 -4.2,20 -21.3,37.4 -40.7,41.4 -3.7,0.8 -54,1.1 -170.3,0.9 l -165,-0.3 -8,-2.8 c -19.5,-6.9 -33,-18.6 -42,-36.5 -9.9,-19.9 -9.9,-42.3 0.1,-63.1 7.8,-16.1 23.8,-30.2 40.9,-36.1 18.7,-6.4 41.9,-4 59.3,6.2 5.9,3.4 17.8,14.7 24.6,23.2 12.2,15.2 36.6,11.7 44.4,-6.3 2.4,-5.6 2,-15.7 -0.8,-21.1 -5.7,-11.1 -24,-29.9 -36.8,-38 -3.9,-2.5 -7.2,-5 -7.2,-5.6 0,-2.2 15.8,-18 23.7,-23.6 14.6,-10.5 32.9,-18.1 49.8,-20.8 3.3,-0.5 12.5,-0.7 20.5,-0.5 11.5,0.3 16.6,0.9 24.5,2.9 z" />
  <path style="fill:#fedc00;stroke:none;fill-opacity:1" inkscape:connector-curvature="0" id="path24" d="m 241,380.4 c -1.9,0.6 -20.1,10.8 -40.5,22.5 -39.5,22.6 -43.2,25.4 -45.5,33.5 -1.9,6.8 0.7,16.4 5.6,20.7 5.4,4.7 14,6.8 19.9,4.9 2.1,-0.7 20.5,-10.8 40.9,-22.6 37.7,-21.7 42.1,-24.8 45.2,-32.1 4.6,-10.6 -2.6,-24.3 -14.2,-27.2 -5.4,-1.4 -7,-1.3 -11.4,0.3 z" />
  <path style="fill:#dcdcdc;stroke:none;fill-opacity:1" inkscape:connector-curvature="0" id="path26" d="m 365.9,684.6 c -5,3.2 -5.4,4.7 -5.9,24.6 l -0.5,18.7 -14.5,-9.1 C 326.1,707 321.1,706.3 315.2,715 c -2.7,3.9 -2.6,9.2 0.1,13.4 0.9,1.3 8,6.3 15.9,11.1 7.9,4.8 14.9,9.3 15.6,10 1.1,1 -1.5,3 -13.6,10.5 -8.3,5 -16,10.2 -17.1,11.4 -4.6,4.9 -3.2,14.5 2.5,18.3 5.7,3.7 9.6,2.6 25.9,-7.5 l 15,-9.2 0.5,19 0.5,19 3.3,3.2 c 2.9,2.9 3.9,3.3 8.7,3.3 4.8,0 5.8,-0.4 8.7,-3.3 l 3.3,-3.2 0.5,-18.9 0.5,-18.9 14.5,9.1 c 13.4,8.5 14.9,9.1 19.7,9.2 4.6,0 5.7,-0.4 8.4,-3.1 2.3,-2.3 3.2,-4.3 3.6,-7.5 0.7,-7.1 -1.6,-9.5 -19.1,-20.4 -8.6,-5.3 -15.6,-9.8 -15.6,-10 0,-0.2 6.7,-4.4 15,-9.5 18,-11 20.4,-13.5 19.8,-20.2 -0.8,-7.6 -7.1,-12.7 -14,-11.4 -1.8,0.4 -9.8,4.7 -17.8,9.6 l -14.5,8.9 -0.5,-18.9 -0.5,-19 -3.2,-3.1 c -3.9,-3.9 -11.2,-5 -15.4,-2.3 z" />
  <path style="fill:#dcdcdc;stroke:none;fill-opacity:1" inkscape:connector-curvature="0" id="path28" d="m 758.9,684.6 c -5,3.2 -5.4,4.7 -5.9,24.6 l -0.5,18.7 -14.5,-9.1 C 719.1,707 714.1,706.3 708.2,715 c -2.7,3.9 -2.6,9.2 0.1,13.4 0.9,1.3 8,6.3 15.9,11.1 7.9,4.8 14.9,9.3 15.6,10 1.1,1 -1.5,3 -13.6,10.5 -8.3,5 -16,10.2 -17.1,11.4 -4.6,4.9 -3.2,14.5 2.5,18.3 5.7,3.7 9.6,2.6 25.9,-7.5 l 15,-9.2 0.5,19 0.5,19 3.3,3.2 c 2.9,2.9 3.9,3.3 8.7,3.3 4.8,0 5.8,-0.4 8.7,-3.3 l 3.3,-3.2 0.5,-18.9 0.5,-18.9 14.5,9.1 c 13.4,8.5 14.9,9.1 19.7,9.2 4.6,0 5.7,-0.4 8.4,-3.1 2.3,-2.3 3.2,-4.3 3.6,-7.5 0.7,-7.1 -1.6,-9.5 -19.1,-20.4 -8.6,-5.3 -15.6,-9.8 -15.6,-10 0,-0.2 6.7,-4.4 15,-9.5 18,-11 20.4,-13.5 19.8,-20.2 -0.8,-7.6 -7.1,-12.7 -14,-11.4 -1.8,0.4 -9.8,4.7 -17.8,9.6 l -14.5,8.9 -0.5,-18.9 -0.5,-19 -3.2,-3.1 c -3.9,-3.9 -11.2,-5 -15.4,-2.3 z" />
  <path style="fill:#dcdcdc;stroke:none;fill-opacity:1" inkscape:connector-curvature="0" id="path30" d="m 267.8,794 c -2.7,2 -2.7,2.4 -3,14 l -0.3,11.9 -9,-5.6 c -10.2,-6.4 -14.5,-7.3 -17.6,-3.4 -2.1,2.5 -2.4,6.2 -0.9,9.1 0.5,1 5.3,4.4 10.5,7.7 5.2,3.2 9.5,6 9.5,6.3 0,0.3 -4.4,3.2 -9.8,6.5 -10.2,6.3 -12.1,8.8 -10.8,13.9 0.4,1.7 1.9,3.2 4.1,4.3 3.7,1.8 3.3,1.9 20.8,-8.6 l 3.7,-2.3 0,12 c 0,11.9 0,12.1 2.7,14.2 3.3,2.6 7.9,2.1 10.6,-1.1 1.4,-1.7 1.7,-4.1 1.7,-13.5 l 0,-11.4 9.2,5.7 c 10.5,6.5 14.8,7.3 17.9,3.4 2.1,-2.5 2.4,-6.2 0.9,-9.1 -0.5,-1 -5.3,-4.4 -10.5,-7.7 -5.2,-3.2 -9.5,-6 -9.5,-6.3 0,-0.3 3.8,-2.7 8.3,-5.4 4.5,-2.7 9.2,-5.8 10.5,-6.9 2.9,-2.7 3,-8.6 0.2,-11.2 -3.6,-3.2 -7.7,-2.3 -17.5,3.8 l -9,5.6 L 280,808 c -0.5,-13 -1.2,-14.5 -6.5,-15.6 -2.2,-0.4 -3.8,0 -5.7,1.6 z" />
  <path style="fill:#dcdcdc;stroke:none;fill-opacity:1" inkscape:connector-curvature="0" id="path32" d="m 660.8,794 c -2.7,2 -2.7,2.4 -3,14 l -0.3,11.9 -9,-5.6 c -10.2,-6.4 -14.5,-7.3 -17.6,-3.4 -2.1,2.5 -2.4,6.2 -0.9,9.1 0.5,1 5.3,4.4 10.5,7.7 5.2,3.2 9.5,6 9.5,6.3 0,0.3 -4.4,3.2 -9.8,6.5 -10.2,6.3 -12.1,8.8 -10.8,13.9 0.4,1.7 1.9,3.2 4.1,4.3 3.7,1.8 3.3,1.9 20.8,-8.6 l 3.7,-2.3 0,12 c 0,11.9 0,12.1 2.7,14.2 3.3,2.6 7.9,2.1 10.6,-1.1 1.4,-1.7 1.7,-4.1 1.7,-13.5 l 0,-11.4 9.2,5.7 c 10.5,6.5 14.8,7.3 17.9,3.4 2.1,-2.5 2.4,-6.2 0.9,-9.1 -0.5,-1 -5.3,-4.4 -10.5,-7.7 -5.2,-3.2 -9.5,-6 -9.5,-6.3 0,-0.3 3.8,-2.7 8.3,-5.4 4.5,-2.7 9.2,-5.8 10.5,-6.9 2.9,-2.7 3,-8.6 0.2,-11.2 -3.6,-3.2 -7.7,-2.3 -17.5,3.8 l -9,5.6 L 673,808 c -0.5,-13 -1.2,-14.5 -6.5,-15.6 -2.2,-0.4 -3.8,0 -5.7,1.6 z" />
  <path style="fill:#dcdcdc;stroke:none;fill-opacity:1" inkscape:connector-curvature="0" id="path34" d="m 383,847 c -1.8,1.8 -2,3.3 -2,13.5 0,6.3 -0.2,11.5 -0.5,11.5 -0.3,0 -4.5,-2.5 -9.3,-5.5 -5.6,-3.5 -10,-5.5 -11.9,-5.5 -3.8,0 -7.3,3.6 -7.3,7.7 0,3.7 2.2,5.8 12.8,12.2 4,2.4 7.5,4.7 7.7,5.1 0.3,0.5 -4,3.6 -9.4,6.9 -5.5,3.4 -10.2,6.9 -10.5,7.7 -1.9,4.9 1.8,11.4 6.6,11.4 1.2,0 6.4,-2.5 11.4,-5.5 5.1,-3 9.5,-5.5 9.8,-5.5 0.3,0 0.6,5.1 0.6,11.3 0,10.6 0.2,11.5 2.3,13.5 3.3,3.1 8,2.9 10.6,-0.4 1.8,-2.3 2.1,-4.1 2.1,-13.5 0,-6 0.2,-10.9 0.5,-10.9 0.3,0 4.5,2.5 9.4,5.5 5.5,3.4 10,5.5 11.8,5.5 5.2,0 8.8,-6 6.7,-11.4 -0.3,-0.8 -5,-4.3 -10.5,-7.7 -5.4,-3.3 -9.9,-6.2 -9.9,-6.4 0,-0.2 3.9,-2.7 8.7,-5.6 10.8,-6.5 12.3,-8 12.3,-12.2 0,-4.1 -3.5,-7.7 -7.3,-7.7 -1.4,0 -6.7,2.5 -11.7,5.5 -5,3 -9.3,5.5 -9.5,5.5 -0.3,0 -0.5,-5.1 -0.5,-11.3 0,-10.6 -0.2,-11.5 -2.3,-13.5 -3,-2.8 -8,-2.9 -10.7,-0.2 z" />
  <path style="fill:#dcdcdc;stroke:none;fill-opacity:1" inkscape:connector-curvature="0" id="path36" d="m 776,847 c -1.8,1.8 -2,3.3 -2,13.5 0,6.3 -0.2,11.5 -0.5,11.5 -0.3,0 -4.5,-2.5 -9.3,-5.5 -5.6,-3.5 -10,-5.5 -11.9,-5.5 -3.8,0 -7.3,3.6 -7.3,7.7 0,3.7 2.2,5.8 12.8,12.2 4,2.4 7.5,4.7 7.7,5.1 0.3,0.5 -4,3.6 -9.4,6.9 -5.5,3.4 -10.2,6.9 -10.5,7.7 -1.9,4.9 1.8,11.4 6.6,11.4 1.2,0 6.4,-2.5 11.4,-5.5 5.1,-3 9.5,-5.5 9.8,-5.5 0.3,0 0.6,5.1 0.6,11.3 0,10.6 0.2,11.5 2.3,13.5 3.3,3.1 8,2.9 10.6,-0.4 1.8,-2.3 2.1,-4.1 2.1,-13.5 0,-6 0.2,-10.9 0.5,-10.9 0.3,0 4.5,2.5 9.4,5.5 5.5,3.4 10,5.5 11.8,5.5 5.2,0 8.8,-6 6.7,-11.4 -0.3,-0.8 -5,-4.3 -10.5,-7.7 -5.4,-3.3 -9.9,-6.2 -9.9,-6.4 0,-0.2 3.9,-2.7 8.7,-5.6 10.8,-6.5 12.3,-8 12.3,-12.2 0,-4.1 -3.5,-7.7 -7.3,-7.7 -1.4,0 -6.7,2.5 -11.7,5.5 -5,3 -9.3,5.5 -9.5,5.5 -0.3,0 -0.5,-5.1 -0.5,-11.3 0,-10.6 -0.2,-11.5 -2.3,-13.5 -3,-2.8 -8,-2.9 -10.7,-0.2 z" />
</svg>
