<?xml version="1.0" encoding="UTF-8" standalone="no"?>
<svg xmlns:dc="http://purl.org/dc/elements/1.1/" xmlns:cc="http://creativecommons.org/ns#" xmlns:rdf="http://www.w3.org/1999/02/22-rdf-syntax-ns#" xmlns:svg="http://www.w3.org/2000/svg" xmlns="http://www.w3.org/2000/svg" xmlns:sodipodi="http://sodipodi.sourceforge.net/DTD/sodipodi-0.dtd" xmlns:inkscape="http://www.inkscape.org/namespaces/inkscape" version="1.0" width="1024.000000pt" height="1024.000000pt" viewBox="0 0 1024.000000 1024.000000" preserveAspectRatio="xMidYMid meet" id="svg2" inkscape:version="0.48.5 r10040" sodipodi:docname="2293999.svg">
  <defs id="defs22" />
  <sodipodi:namedview pagecolor="#ffffff" bordercolor="#666666" borderopacity="1" objecttolerance="10" gridtolerance="10" guidetolerance="10" inkscape:pageopacity="0" inkscape:pageshadow="2" inkscape:window-width="910" inkscape:window-height="758" id="namedview20" showgrid="false" showguides="false" inkscape:zoom="0.184375" inkscape:cx="-561.35593" inkscape:cy="423.05085" inkscape:window-x="1414" inkscape:window-y="334" inkscape:window-maximized="0" inkscape:current-layer="svg2" />
  <metadata id="metadata4">
Created by potrace 1.11, written by Peter Selinger 2001-2013
<rdf:RDF>
  <cc:Work rdf:about="">
    <dc:format>image/svg+xml</dc:format>
    <dc:type rdf:resource="http://purl.org/dc/dcmitype/StillImage" />
  </cc:Work>
</rdf:RDF>
</metadata>
  <path style="fill:#dcdcdc;stroke:none;fill-opacity:1" inkscape:connector-curvature="0" id="path12" d="m 458.9,684.6 c -5,3.2 -5.4,4.7 -5.9,24.6 l -0.5,18.7 -14.5,-9 c -8,-4.9 -15.5,-9.2 -16.8,-9.6 -3.9,-0.9 -8.7,0.6 -11.8,3.8 -2.5,2.6 -2.9,3.8 -2.9,8.4 0,3.9 0.5,5.9 2,7.5 1.1,1.2 8.8,6.4 17.2,11.7 8.4,5.2 15.3,9.6 15.3,9.7 0,0.2 -7.2,4.7 -15.9,10.1 -17.9,11 -19.8,13.1 -18.8,20.5 0.7,5.1 3.7,8.6 8.8,10.1 5,1.5 6.6,0.9 23.4,-9.5 l 14,-8.7 0.5,19 0.5,19.1 3.3,3.2 c 2.9,2.9 3.9,3.3 8.7,3.3 4.8,0 5.8,-0.4 8.7,-3.3 l 3.3,-3.2 0.5,-18.9 0.5,-19 14.5,9.1 c 16.2,10.2 20.1,11.4 25.8,7.9 6.2,-4 7.9,-12.6 3.4,-18.1 -0.9,-1.2 -8.5,-6.3 -16.7,-11.4 -8.3,-5.1 -14.9,-9.7 -14.8,-10.2 0.2,-0.5 6.7,-4.8 14.5,-9.6 17.1,-10.5 18.9,-12.1 19.5,-17.9 0.8,-8.1 -6.3,-15 -13.8,-13.5 -1.9,0.3 -9.9,4.6 -17.9,9.5 l -14.5,9 -0.5,-18.9 -0.5,-19 -3.2,-3.1 c -3.9,-3.9 -11.2,-5 -15.4,-2.3 z" />
  <path style="fill:#dcdcdc;stroke:none;fill-opacity:1" inkscape:connector-curvature="0" id="path14" d="m 663.5,684 c -1.1,0.4 -3.1,2 -4.5,3.5 -2.4,2.6 -2.5,3.1 -3,21.5 l -0.5,18.9 -14.5,-9.1 c -15.2,-9.6 -20,-11.2 -25,-8.6 -3.4,1.9 -7,7.5 -7,11.2 0,5.8 3.1,8.8 18.1,18.1 7.9,4.9 15,9.4 15.7,10 1.1,1 -1.5,3 -13.5,10.4 -8.2,5 -15.9,10.2 -17.2,11.5 -3.3,3.5 -3.8,10.1 -1.1,14.4 2.5,4 8.1,6.6 12.4,5.8 1.7,-0.4 9.6,-4.7 17.6,-9.6 l 14.5,-8.9 0.5,18.9 0.5,19 3.3,3.2 c 2.9,2.9 3.9,3.3 8.7,3.3 4.8,0 5.8,-0.4 8.7,-3.3 l 3.3,-3.2 0.5,-19 0.5,-18.9 14.5,9 c 8,4.9 15.5,9.2 16.8,9.6 6.9,1.7 14.1,-3.5 14.9,-10.9 0.7,-6.9 -1.6,-9.4 -19.1,-20.3 -8.6,-5.3 -15.6,-9.8 -15.6,-10 0,-0.2 6.7,-4.4 15,-9.5 16.7,-10.2 20,-13.3 20,-18.8 0,-4.9 -1.8,-8.1 -6,-11 -5.5,-3.7 -8.9,-2.7 -25.7,7.7 L 681.5,728 681,709.3 c -0.3,-10.4 -0.9,-19.6 -1.4,-20.5 -2.1,-4.5 -10.8,-7.1 -16.1,-4.8 z" />
  <path style="fill:#dcdcdc;stroke:none;fill-opacity:1" inkscape:connector-curvature="0" id="path16" d="m 563.9,793.9 c -2.2,1.8 -2.4,2.8 -2.9,14 l -0.5,12 -9,-5.6 c -10.2,-6.4 -14.5,-7.3 -17.6,-3.4 -2.1,2.5 -2.4,6.2 -0.9,9.1 0.5,1 5.3,4.4 10.5,7.7 5.2,3.2 9.5,6 9.5,6.3 0,0.3 -3.8,2.7 -8.3,5.4 -4.5,2.7 -9.2,5.8 -10.4,6.9 -2.8,2.5 -3,7.6 -0.4,10.8 3.1,3.8 7.3,3 17.6,-3.4 l 9,-5.6 0.5,11.9 c 0.6,13.5 1.5,15.4 7.5,15.4 6,0 6.9,-1.9 7.5,-15.4 l 0.5,-11.8 9,5.6 c 10.2,6.3 14.5,7.1 17.6,3.3 2.1,-2.5 2.4,-6.2 0.9,-9.1 -0.5,-1 -5.3,-4.4 -10.5,-7.7 -5.2,-3.2 -9.5,-6 -9.5,-6.3 0,-0.3 3.8,-2.7 8.3,-5.4 4.5,-2.7 9.2,-5.8 10.5,-6.9 2.7,-2.5 2.9,-7.6 0.3,-10.8 -3.1,-3.8 -7.3,-3 -17.6,3.4 l -9,5.6 -0.5,-12 c -0.5,-11.2 -0.7,-12.2 -2.9,-14 -1.3,-1 -3.3,-1.9 -4.6,-1.9 -1.3,0 -3.3,0.9 -4.6,1.9 z" />
  <path style="fill:#dcdcdc;stroke:none;fill-opacity:1" inkscape:connector-curvature="0" id="path18" d="m 476,847 c -1.8,1.8 -2,3.3 -2,13.5 0,6.3 -0.2,11.5 -0.5,11.5 -0.3,0 -4.5,-2.5 -9.4,-5.5 -9.9,-6.1 -13.5,-6.8 -16.9,-3.2 -2.4,2.6 -2.9,7.5 -0.9,9.8 0.6,0.9 5.4,4.2 10.5,7.3 5,3.2 9.2,5.9 9.2,6.1 0,0.1 -4.3,2.9 -9.6,6.1 -10.1,6.1 -11.4,7.5 -11.4,12.3 0,3.3 3.9,7.1 7.3,7.1 1.2,0 6.3,-2.5 11.3,-5.5 5.1,-3 9.5,-5.5 9.8,-5.5 0.3,0 0.6,5.1 0.6,11.3 0,10.6 0.2,11.5 2.3,13.5 3.3,3.1 8,2.9 10.6,-0.4 1.8,-2.3 2.1,-4.1 2.1,-13.5 0,-6 0.2,-10.9 0.5,-10.9 0.3,0 4.5,2.5 9.4,5.5 4.9,3 10.1,5.5 11.5,5.5 3.6,0 7.6,-4.1 7.6,-7.8 0,-3.5 -2,-5.4 -12.7,-12.2 -4.6,-2.9 -8.3,-5.4 -8.3,-5.5 0,-0.2 4.2,-2.9 9.3,-6 5,-3.2 9.8,-6.4 10.5,-7.3 2,-2.6 1.5,-7.6 -1.1,-10 -3.6,-3.4 -7,-2.7 -16.8,3.3 -4.9,3 -9.1,5.5 -9.4,5.5 -0.3,0 -0.5,-5.1 -0.5,-11.3 0,-10.6 -0.2,-11.5 -2.3,-13.5 -3,-2.8 -8,-2.9 -10.7,-0.2 z" />
  <path style="fill:#dcdcdc;fill-opacity:0.94117647;stroke:none" inkscape:connector-curvature="0" id="path10-4" d="m 537.63761,303.14575 c -50.5,4.1 -97.7,32.2 -125.5,74.8 l -5.1,7.9 -12.2,0.6 c -33.3,1.5 -62.6,14.9 -85,38.7 -17,18 -28.1,40 -32.2,63.8 -1.9,11 -1.9,31.6 0,42.8 7.8,44.2 40,81.6 82.6,95.8 20.8,7 11.7,6.7 198.4,6.4 l 168,-0.3 9.7,-2.7 c 20.1,-5.5 34.2,-13.9 49.3,-29.2 14.4,-14.7 22.2,-28.6 27.6,-49.2 2,-7.6 2.3,-11.3 2.3,-24.9 0,-14 -0.4,-17.2 -2.7,-25.7 -10.9,-40.6 -43.9,-71.2 -84.6,-78.3 -4.6,-0.8 -10.5,-1.5 -13.1,-1.5 l -4.7,0 -3.3,-9.3 c -13.7,-39.4 -43.8,-73.4 -82.1,-92.8 -25.6,-12.9 -58.2,-19.2 -87.4,-16.9 z m 30.8,53.5 c 39.3,5.9 73.3,33.2 88.3,70.8 1.4,3.7 2.5,7 2.3,7.2 -0.2,0.2 -3.9,2.6 -8.1,5.4 -12.2,7.9 -16.6,15.7 -15.5,27.4 1.4,15.3 16.3,26.1 31.2,22.8 3,-0.7 7.8,-2.8 10.7,-4.8 15.9,-11 31.8,-13.6 49.4,-8.2 16.3,5 31.5,21.3 35.3,37.9 1.5,6.3 1.3,20.6 -0.3,26.5 -4.6,17.2 -17.5,31 -35,37.4 l -7.1,2.6 -165,0 c -186,0 -169.4,0.7 -187,-7.9 -36.6,-18 -50.3,-64.4 -29.5,-99.7 9.9,-16.8 27,-29.3 45.8,-33.5 11.3,-2.5 29.3,-1.6 39.2,2.1 14.5,5.2 23.9,12.6 37.7,29.2 5.4,6.5 11.8,9.6 19.9,9.6 18,0.1 30.8,-17.5 24.9,-34.3 -4.2,-11.9 -25.8,-34.2 -42.2,-43.6 -1.8,-1 -3.3,-2.1 -3.3,-2.4 0,-1.3 11.1,-13.6 16.6,-18.3 25.5,-21.8 58.4,-31.2 91.7,-26.2 z" />
  <path style="fill:#dcdcdc;fill-opacity:1;stroke:none" inkscape:connector-curvature="0" id="path8-7" d="m 391.35519,138.4216 c -1.9,0.2 -7.8,0.9 -13,1.5 -5.2,0.6 -15.4,2.6 -22.6,4.4 -110,28.1 -172.8,142.7 -137.4,250.8 4.9,14.7 13.7,33 22,45.6 l 6.3,9.4 4.9,-9.9 c 19.4,-38.8 52.2,-68.4 92.3,-83.4 10.6,-4 26.4,-8.2 35.6,-9.5 4,-0.5 5,-1.2 8.5,-5.7 5.5,-7.3 21.5,-23.1 30.9,-30.7 30,-24.2 70.2,-41 107.7,-45 13,-1.5 40.1,-1.3 51.8,0.3 5.2,0.7 9.7,1.2 9.8,1 0.6,-0.4 -7.8,-19.5 -11.6,-26.4 -9.9,-17.9 -22.5,-34.3 -37.5,-48.6 -35.1,-33.5 -80.4,-52.3 -129.4,-53.8 -8.2,-0.2 -16.4,-0.2 -18.3,0 z" />
  <path inkscape:connector-curvature="0" style="fill:#7b7b7b;fill-opacity:1;stroke:none" d="m 398.04668,149.24314 -21.27315,5.28367 c -49.30756,5.99683 -101.89566,49.80512 -125.04591,97.27175 -28.44322,58.3193 -25.23077,121.77477 7.11266,173.51675 16.71902,-23.95154 38.86602,-43.64718 64.776,-57.68582 -3.13916,-30.00407 -2.16064,-69.18132 3.13296,-92.62153 7.07092,-31.31012 27.63217,-71.92138 48.54668,-95.83679 z" id="path8-0" sodipodi:nodetypes="ccsccscc" />
</svg>
