<?xml version="1.0" encoding="UTF-8" standalone="no"?>
<svg xmlns:dc="http://purl.org/dc/elements/1.1/" xmlns:cc="http://creativecommons.org/ns#" xmlns:rdf="http://www.w3.org/1999/02/22-rdf-syntax-ns#" xmlns:svg="http://www.w3.org/2000/svg" xmlns="http://www.w3.org/2000/svg" xmlns:sodipodi="http://sodipodi.sourceforge.net/DTD/sodipodi-0.dtd" xmlns:inkscape="http://www.inkscape.org/namespaces/inkscape" version="1.0" width="1024.000000pt" height="1024.000000pt" viewBox="0 0 1024.000000 1024.000000" preserveAspectRatio="xMidYMid meet" id="svg2" inkscape:version="0.48.5 r10040" sodipodi:docname="2292999.svg">
  <defs id="defs22" />
  <sodipodi:namedview pagecolor="#ffffff" bordercolor="#666666" borderopacity="1" objecttolerance="10" gridtolerance="10" guidetolerance="10" inkscape:pageopacity="0" inkscape:pageshadow="2" inkscape:window-width="890" inkscape:window-height="595" id="namedview20" showgrid="false" inkscape:zoom="0.184375" inkscape:cx="640" inkscape:cy="640" inkscape:window-x="103" inkscape:window-y="153" inkscape:window-maximized="0" inkscape:current-layer="svg2" />
  <metadata id="metadata4">
Created by potrace 1.11, written by Peter Selinger 2001-2013
<rdf:RDF>
  <cc:Work rdf:about="">
    <dc:format>image/svg+xml</dc:format>
    <dc:type rdf:resource="http://purl.org/dc/dcmitype/StillImage" />
  </cc:Work>
</rdf:RDF>
</metadata>
  <path style="fill:#dcdcdc;stroke:none;fill-opacity:1" inkscape:connector-curvature="0" id="path12" d="m 345.4,684.8 c -3.8,2.4 -5.8,7.1 -5.2,12 0.4,2.3 3.7,8.8 9.2,17.4 4.7,7.6 8.6,14 8.6,14.3 0,0.3 -7.8,0.5 -17.2,0.5 -19.6,0 -22.7,0.8 -26,7 -2.3,4.4 -2.3,7.7 0.2,11.7 3.8,6.2 5.6,6.7 25.2,7.3 l 17.8,0.5 -9.1,14.8 c -10.1,16.3 -11.1,20.2 -7.2,25.5 2.8,3.8 8.6,6.5 12.3,5.7 5.1,-1.1 8.3,-4.7 17.6,-19.9 4.9,-8 9.2,-14.6 9.5,-14.6 0.4,0 4.8,6.8 9.9,15 11.8,19.3 15,21.8 23.3,18.9 4.9,-1.7 7.7,-5.2 8.4,-10.5 0.4,-3.6 -0.3,-5.3 -9.1,-19.7 l -9.5,-15.7 16.7,0 c 14.2,0 17.3,-0.3 20.9,-1.9 8.9,-4.1 10,-15.6 2,-21.5 -2.6,-1.9 -4.6,-2.1 -21.1,-2.6 l -18.3,-0.5 9.4,-15 c 8.9,-14.1 9.4,-15.2 9,-19.4 -0.4,-3.1 -1.3,-5.2 -3.6,-7.5 -2.7,-2.7 -3.8,-3.1 -8.5,-3.1 -7.1,0 -8.1,1 -19.7,19.6 -7.3,11.7 -9.5,14.7 -10.4,13.7 -0.6,-0.7 -5.1,-7.6 -9.8,-15.4 -4.8,-7.8 -9.6,-14.9 -10.7,-15.9 -3,-2.7 -10.8,-3.1 -14.6,-0.7 z" />
  <path style="fill:#dcdcdc;stroke:none;fill-opacity:1" inkscape:connector-curvature="0" id="path14" d="m 703.4,684.8 c -3.8,2.4 -5.8,7.1 -5.2,12 0.4,2.3 3.7,8.8 9.2,17.4 4.7,7.6 8.6,14 8.6,14.3 0,0.3 -7.8,0.5 -17.2,0.5 -19.6,0 -22.7,0.8 -26,7 -2.3,4.4 -2.3,7.7 0.2,11.7 3.8,6.2 5.6,6.7 25.2,7.3 l 17.8,0.5 -9.1,14.8 c -10.1,16.3 -11.1,20.2 -7.2,25.5 2.8,3.8 8.6,6.5 12.3,5.7 5.1,-1.1 8.3,-4.7 17.6,-19.9 4.9,-8 9.2,-14.6 9.5,-14.6 0.4,0 4.8,6.8 9.9,15 11.8,19.3 15,21.8 23.3,18.9 4.9,-1.7 7.7,-5.2 8.4,-10.5 0.4,-3.6 -0.3,-5.3 -9.1,-19.7 l -9.5,-15.7 16.7,0 c 14.2,0 17.3,-0.3 20.9,-1.9 8.9,-4.1 10,-15.6 2,-21.5 -2.6,-1.9 -4.6,-2.1 -21.1,-2.6 l -18.3,-0.5 9.4,-15 c 8.9,-14.1 9.4,-15.2 9,-19.4 -0.4,-3.1 -1.3,-5.2 -3.6,-7.5 -2.7,-2.7 -3.8,-3.1 -8.5,-3.1 -7.1,0 -8.1,1 -19.7,19.6 -7.3,11.7 -9.5,14.7 -10.4,13.7 -0.6,-0.7 -5.1,-7.6 -9.8,-15.4 -4.8,-7.8 -9.6,-14.9 -10.7,-15.9 -3,-2.7 -10.8,-3.1 -14.6,-0.7 z" />
  <path style="fill:#dcdcdc;stroke:none;fill-opacity:1" inkscape:connector-curvature="0" id="path16" d="m 277.1,819.6 c -1.2,1.5 -2.1,3.6 -2.1,4.7 0,1.2 2.5,6.3 5.5,11.3 3,5.1 5.5,9.5 5.5,9.8 0,0.3 -5,0.6 -11,0.6 -10.4,0 -11.2,0.1 -13.5,2.5 -2.6,2.5 -3.2,6.3 -1.5,9.5 1.5,2.8 6.5,4 16.6,4 5.2,0 9.4,0.2 9.4,0.4 0,0.2 -2.5,4.3 -5.5,9.1 -3,4.9 -5.5,9.9 -5.5,11.2 0,3.4 4.2,7.3 8,7.3 3.8,0 5.4,-1.6 11.9,-12.3 3,-4.8 5.6,-8.7 6,-8.7 0.3,0 3,4.1 6,9.1 5.8,9.6 8.1,11.9 11.9,11.9 3.5,0 5.8,-1.6 7.1,-4.9 1.4,-3.3 1.4,-3.5 -5.5,-14.7 -2.4,-3.9 -4.4,-7.3 -4.4,-7.6 0,-0.3 5,-0.7 11.1,-1 10.8,-0.3 11.2,-0.4 13.6,-3.2 1.9,-2.3 2.3,-3.6 1.9,-6 -1.1,-5.5 -2.5,-6.1 -15.6,-6.4 l -11.9,-0.4 6.1,-9.8 c 5.1,-8.4 5.9,-10.3 5.3,-12.9 -1.3,-5.9 -8.6,-8.1 -12.8,-3.9 -1.3,1.3 -4.5,6 -7.2,10.5 -2.8,4.5 -5.2,8.3 -5.5,8.3 -0.3,0 -2.5,-3.3 -4.9,-7.3 C 288.4,818 287.4,817 283,817 c -3,0 -4.3,0.6 -5.9,2.6 z" />
  <path style="fill:#dcdcdc;stroke:none;fill-opacity:1" inkscape:connector-curvature="0" id="path18" d="m 635.1,819.6 c -1.2,1.5 -2.1,3.6 -2.1,4.7 0,1.2 2.5,6.3 5.5,11.3 3,5.1 5.5,9.5 5.5,9.8 0,0.3 -5,0.6 -11,0.6 -10.4,0 -11.2,0.1 -13.5,2.5 -2.6,2.5 -3.2,6.3 -1.5,9.5 1.5,2.8 6.5,4 16.6,4 5.2,0 9.4,0.2 9.4,0.4 0,0.2 -2.5,4.3 -5.5,9.1 -3,4.9 -5.5,9.9 -5.5,11.2 0,3.4 4.2,7.3 8,7.3 3.8,0 5.4,-1.6 11.9,-12.3 3,-4.8 5.6,-8.7 6,-8.7 0.3,0 3,4.1 6,9.1 5.8,9.6 8.1,11.9 11.9,11.9 3.5,0 5.8,-1.6 7.1,-4.9 1.4,-3.3 1.4,-3.5 -5.5,-14.7 -2.4,-3.9 -4.4,-7.3 -4.4,-7.6 0,-0.3 5,-0.7 11.1,-1 10.8,-0.3 11.2,-0.4 13.6,-3.2 1.9,-2.3 2.3,-3.6 1.9,-6 -1.1,-5.5 -2.5,-6.1 -15.6,-6.4 l -11.9,-0.4 6.1,-9.8 c 5.1,-8.4 5.9,-10.3 5.3,-12.9 -1.3,-5.9 -8.6,-8.1 -12.8,-3.9 -1.3,1.3 -4.5,6 -7.2,10.5 -2.8,4.5 -5.2,8.3 -5.5,8.3 -0.3,0 -2.5,-3.3 -4.9,-7.3 C 646.4,818 645.4,817 641,817 c -3,0 -4.3,0.6 -5.9,2.6 z" />
  <path style="fill:#dcdcdc;fill-opacity:1;stroke:none" inkscape:connector-curvature="0" id="path10-8" d="m 535.26873,303.25497 c -50.6,4.4 -99.1,33.9 -125.3,76.1 l -4.2,6.8 -9.1,0 c -11.4,0 -25.3,2.3 -36.9,6.2 -17.9,6 -32.1,14.6 -45.9,27.8 -25.60001,24.5 -38.70001,54.8 -38.70001,89.5 0,28.2 8.1,52.4 24.80001,74.6 18.4,24.4 42.8,39.9 74,47.1 l 9.8,2.2 161.5,0.4 c 168.19999,0.3 174.89999,0.2 190.59999,-3.9 28.8,-7.5 54.6,-28.9 67.9,-56.3 6.8,-14 9.6,-25.4 10.2,-42.1 0.6,-16.5 -1.5,-29.1 -7.2,-43.3 -15.1,-37.3 -49.7,-62.9 -89.4,-66 l -8.3,-0.7 -3.3,-9 c -8.7,-24.2 -23.09999,-46.3 -41.49999,-63.9 -28,-26.7 -62.6,-42.2 -102,-45.6 -12.7,-1.1 -13.4,-1.1 -27,0.1 z m 42.5,55.3 c 12.5,3.3 29.7,11.6 40.2,19.5 14.6,11 26.6,25.8 34.6,42.9 5.8,12.5 5.7,12.8 -3.8,19.3 -9.1,6.2 -12.9,11.4 -14.7,19.9 -2.8,13.6 7.1,27.4 21.7,30.1 6.5,1.2 13.1,-0.6 21.4,-6 9.9,-6.3 17.59999,-9 27.19999,-9.8 26.8,-2.1 50.8,16 56.4,42.4 1.8,8.6 1.8,13 0,21.8 -4.2,20 -21.3,37.4 -40.7,41.4 -3.7,0.8 -53.99999,1.1 -170.29999,0.9 l -165,-0.3 -8,-2.8 c -19.5,-6.9 -33,-18.6 -42,-36.5 -9.9,-19.9 -9.9,-42.3 0.1,-63.1 7.8,-16.1 23.8,-30.2 40.9,-36.1 18.7,-6.4 41.9,-4 59.3,6.2 5.9,3.4 17.8,14.7 24.6,23.2 12.2,15.2 36.6,11.7 44.4,-6.3 2.4,-5.6 2,-15.7 -0.8,-21.1 -5.7,-11.1 -24,-29.9 -36.8,-38 -3.9,-2.5 -7.2,-5 -7.2,-5.6 0,-2.2 15.8,-18 23.7,-23.6 14.6,-10.5 32.9,-18.1 49.8,-20.8 3.3,-0.5 12.5,-0.7 20.5,-0.5 11.5,0.3 16.6,0.9 24.5,2.9 z" />
  <path style="fill:#dcdcdc;fill-opacity:1;stroke:none" inkscape:connector-curvature="0" id="path8-5" d="m 392.82529,138.43081 c -1.9,0.2 -7.8,0.9 -13,1.5 -5.2,0.6 -15.4,2.6 -22.6,4.4 -110.00001,28.1 -172.80001,142.70001 -137.40001,250.80001 4.9,14.7 13.7,33 22,45.6 l 6.3,9.4 4.9,-9.9 c 19.4,-38.8 52.20001,-68.4 92.30001,-83.4 10.6,-4 26.4,-8.2 35.6,-9.5 4,-0.5 5,-1.2 8.5,-5.7 5.5,-7.3 21.5,-23.1 30.9,-30.7 30,-24.2 70.2,-41.00001 107.7,-45.00001 13,-1.5 40.1,-1.3 51.8,0.3 5.2,0.7 9.7,1.2 9.8,1 0.6,-0.4 -7.8,-19.5 -11.6,-26.4 -9.9,-17.9 -22.5,-34.3 -37.5,-48.6 -35.1,-33.5 -80.4,-52.3 -129.4,-53.8 -8.2,-0.2 -16.4,-0.2 -18.3,0 z" />
  <path inkscape:connector-curvature="0" style="fill:#7b7b7b;fill-opacity:1;stroke:none" d="m 397.34729,157.93032 -20.85543,5.07607 c -48.33932,5.76119 -99.89476,47.84816 -122.59042,93.44973 -27.8847,56.02784 -24.73532,116.99001 6.97298,166.69893 16.39072,-23.01044 38.10283,-41.9322 63.50404,-55.41922 -3.07752,-28.82515 -2.11821,-66.46304 3.07144,-88.98224 6.93207,-30.07988 27.08956,-69.09545 47.59336,-92.07118 z" id="path8-0-7" sodipodi:nodetypes="ccsccscc" />
</svg>
