<?xml version="1.0" encoding="UTF-8" standalone="no"?>
<svg xmlns:dc="http://purl.org/dc/elements/1.1/" xmlns:cc="http://creativecommons.org/ns#" xmlns:rdf="http://www.w3.org/1999/02/22-rdf-syntax-ns#" xmlns:svg="http://www.w3.org/2000/svg" xmlns="http://www.w3.org/2000/svg" xmlns:sodipodi="http://sodipodi.sourceforge.net/DTD/sodipodi-0.dtd" xmlns:inkscape="http://www.inkscape.org/namespaces/inkscape" version="1.0" width="1024.000000pt" height="1024.000000pt" viewBox="0 0 1024.000000 1024.000000" preserveAspectRatio="xMidYMid meet" id="svg2" inkscape:version="0.48.5 r10040" sodipodi:docname="sym2195991.svg">
  <defs id="defs34" />
  <sodipodi:namedview pagecolor="#ffffff" bordercolor="#666666" borderopacity="1" objecttolerance="10" gridtolerance="10" guidetolerance="10" inkscape:pageopacity="0" inkscape:pageshadow="2" inkscape:window-width="1450" inkscape:window-height="1044" id="namedview32" showgrid="false" inkscape:zoom="0.52149125" inkscape:cx="456.61731" inkscape:cy="669.48615" inkscape:window-x="104" inkscape:window-y="70" inkscape:window-maximized="0" inkscape:current-layer="svg2" />
  <metadata id="metadata4">
Created by potrace 1.11, written by Peter Selinger 2001-2013
<rdf:RDF>
  <cc:Work rdf:about="">
    <dc:format>image/svg+xml</dc:format>
    <dc:type rdf:resource="http://purl.org/dc/dcmitype/StillImage" />
  </cc:Work>
</rdf:RDF>
</metadata>
  <path style="fill:#dcdcdc;stroke:none;fill-opacity:1" inkscape:connector-curvature="0" id="path14" d="m 387.9,684.6 c -5,3.2 -5.4,4.7 -5.9,24.6 l -0.5,18.7 -14.5,-9.1 C 348.1,707 343.1,706.3 337.2,715 c -2.7,3.9 -2.6,9.2 0.1,13.4 0.9,1.3 8,6.3 15.9,11.1 7.9,4.8 14.9,9.3 15.6,10 1.1,1 -1.5,3 -13.6,10.5 -8.3,5 -16,10.2 -17.1,11.4 -4.6,4.9 -3.2,14.5 2.5,18.3 5.7,3.7 9.6,2.6 25.9,-7.5 l 15,-9.2 0.5,19 0.5,19 3.3,3.2 c 2.9,2.9 3.9,3.3 8.7,3.3 4.8,0 5.8,-0.4 8.7,-3.3 l 3.3,-3.2 0.5,-18.9 0.5,-18.9 14.5,9.1 c 13.4,8.5 14.9,9.1 19.7,9.2 4.6,0 5.7,-0.4 8.4,-3.1 2.3,-2.3 3.2,-4.3 3.6,-7.5 0.7,-7.1 -1.6,-9.5 -19.1,-20.4 -8.6,-5.3 -15.6,-9.8 -15.6,-10 0,-0.2 6.7,-4.4 15,-9.5 18,-11 20.4,-13.5 19.8,-20.2 -0.8,-7.6 -7.1,-12.7 -14,-11.4 -1.8,0.4 -9.8,4.7 -17.8,9.6 l -14.5,8.9 -0.5,-18.9 -0.5,-19 -3.2,-3.1 c -3.9,-3.9 -11.2,-5 -15.4,-2.3 z" />
  <path style="fill:#dcdcdc;stroke:none;fill-opacity:1" inkscape:connector-curvature="0" id="path16" d="m 601.9,684.6 c -5,3.2 -5.4,4.7 -5.9,24.6 l -0.5,18.7 -14.5,-9.1 C 562.1,707 557.1,706.3 551.2,715 c -2.7,3.9 -2.6,9.2 0.1,13.4 0.9,1.3 8,6.3 15.9,11.1 7.9,4.8 14.9,9.3 15.6,10 1.1,1 -1.5,3 -13.6,10.5 -8.3,5 -16,10.2 -17.1,11.4 -4.6,4.9 -3.2,14.5 2.5,18.3 5.7,3.7 9.6,2.6 25.9,-7.5 l 15,-9.2 0.5,19 0.5,19 3.3,3.2 c 2.9,2.9 3.9,3.3 8.7,3.3 4.8,0 5.8,-0.4 8.7,-3.3 l 3.3,-3.2 0.5,-18.9 0.5,-18.9 14.5,9.1 c 13.4,8.5 14.9,9.1 19.7,9.2 4.6,0 5.7,-0.4 8.4,-3.1 2.3,-2.3 3.2,-4.3 3.6,-7.5 0.7,-7.1 -1.6,-9.5 -19.1,-20.4 -8.6,-5.3 -15.6,-9.8 -15.6,-10 0,-0.2 6.7,-4.4 15,-9.5 18,-11 20.4,-13.5 19.8,-20.2 -0.8,-7.6 -7.1,-12.7 -14,-11.4 -1.8,0.4 -9.8,4.7 -17.8,9.6 l -14.5,8.9 -0.5,-18.9 -0.5,-19 -3.2,-3.1 c -3.9,-3.9 -11.2,-5 -15.4,-2.3 z" />
  <path style="fill:#dcdcdc;stroke:none;fill-opacity:1" inkscape:connector-curvature="0" id="path18" d="m 815.9,684.6 c -5,3.2 -5.4,4.7 -5.9,24.6 l -0.5,18.7 -14.5,-9.1 C 776.1,707 771.1,706.3 765.2,715 c -2.7,3.9 -2.6,9.2 0.1,13.4 0.9,1.3 8,6.3 15.9,11.1 7.9,4.8 14.9,9.3 15.6,10 1.1,1 -1.5,3 -13.6,10.5 -8.3,5 -16,10.2 -17.1,11.4 -4.6,4.9 -3.2,14.5 2.5,18.3 5.7,3.7 9.6,2.6 25.9,-7.5 l 15,-9.2 0.5,19 0.5,19 3.3,3.2 c 2.9,2.9 3.9,3.3 8.7,3.3 4.8,0 5.8,-0.4 8.7,-3.3 l 3.3,-3.2 0.5,-18.9 0.5,-18.9 14.5,9.1 c 13.4,8.5 14.9,9.1 19.7,9.2 4.6,0 5.7,-0.4 8.4,-3.1 2.3,-2.3 3.2,-4.3 3.6,-7.5 0.7,-7.1 -1.6,-9.5 -19.1,-20.4 -8.6,-5.3 -15.6,-9.8 -15.6,-10 0,-0.2 6.7,-4.4 15,-9.5 18,-11 20.4,-13.5 19.8,-20.2 -0.8,-7.6 -7.1,-12.7 -14,-11.4 -1.8,0.4 -9.8,4.7 -17.8,9.6 l -14.5,8.9 -0.5,-18.9 -0.5,-19 -3.2,-3.1 c -3.9,-3.9 -11.2,-5 -15.4,-2.3 z" />
  <path style="fill:#dcdcdc;stroke:none;fill-opacity:1" inkscape:connector-curvature="0" id="path20" d="m 289.8,794 c -2.7,2 -2.7,2.4 -3,14 l -0.3,11.9 -9,-5.6 c -10.2,-6.4 -14.5,-7.3 -17.6,-3.4 -2.1,2.5 -2.4,6.2 -0.9,9.1 0.5,1 5.3,4.4 10.5,7.7 5.2,3.2 9.5,6 9.5,6.3 0,0.3 -4.4,3.2 -9.8,6.5 -10.2,6.3 -12.1,8.8 -10.8,13.9 0.4,1.7 1.9,3.2 4.1,4.3 3.7,1.8 3.3,1.9 20.8,-8.6 l 3.7,-2.3 0,12 c 0,11.9 0,12.1 2.7,14.2 3.3,2.6 7.9,2.1 10.6,-1.1 1.4,-1.7 1.7,-4.1 1.7,-13.5 l 0,-11.4 9.2,5.7 c 10.5,6.5 14.8,7.3 17.9,3.4 2.1,-2.5 2.4,-6.2 0.9,-9.1 -0.5,-1 -5.3,-4.4 -10.5,-7.7 -5.2,-3.2 -9.5,-6 -9.5,-6.3 0,-0.3 3.8,-2.7 8.3,-5.4 4.5,-2.7 9.2,-5.8 10.5,-6.9 2.9,-2.7 3,-8.6 0.2,-11.2 -3.6,-3.2 -7.7,-2.3 -17.5,3.8 l -9,5.6 L 302,808 c -0.5,-13 -1.2,-14.5 -6.5,-15.6 -2.2,-0.4 -3.8,0 -5.7,1.6 z" />
  <path style="fill:#dcdcdc;stroke:none;fill-opacity:1" inkscape:connector-curvature="0" id="path22" d="m 503.8,794 c -2.7,2 -2.7,2.4 -3,14 l -0.3,11.9 -9,-5.6 c -10.2,-6.4 -14.5,-7.3 -17.6,-3.4 -2.1,2.5 -2.4,6.2 -0.9,9.1 0.5,1 5.3,4.4 10.5,7.7 5.2,3.2 9.5,6 9.5,6.3 0,0.3 -4.4,3.2 -9.8,6.5 -10.2,6.3 -12.1,8.8 -10.8,13.9 0.4,1.7 1.9,3.2 4.1,4.3 3.7,1.8 3.3,1.9 20.8,-8.6 l 3.7,-2.3 0,12 c 0,11.9 0,12.1 2.7,14.2 3.3,2.6 7.9,2.1 10.6,-1.1 1.4,-1.7 1.7,-4.1 1.7,-13.5 l 0,-11.4 9.2,5.7 c 10.5,6.5 14.8,7.3 17.9,3.4 2.1,-2.5 2.4,-6.2 0.9,-9.1 -0.5,-1 -5.3,-4.4 -10.5,-7.7 -5.2,-3.2 -9.5,-6 -9.5,-6.3 0,-0.3 3.8,-2.7 8.3,-5.4 4.5,-2.7 9.2,-5.8 10.5,-6.9 2.9,-2.7 3,-8.6 0.2,-11.2 -3.6,-3.2 -7.7,-2.3 -17.5,3.8 l -9,5.6 L 516,808 c -0.5,-13 -1.2,-14.5 -6.5,-15.6 -2.2,-0.4 -3.8,0 -5.7,1.6 z" />
  <path style="fill:#dcdcdc;stroke:none;fill-opacity:1" inkscape:connector-curvature="0" id="path24" d="m 717.8,794 c -2.7,2 -2.7,2.4 -3,14 l -0.3,11.9 -9,-5.6 c -10.2,-6.4 -14.5,-7.3 -17.6,-3.4 -2.1,2.5 -2.4,6.2 -0.9,9.1 0.5,1 5.3,4.4 10.5,7.7 5.2,3.2 9.5,6 9.5,6.3 0,0.3 -4.4,3.2 -9.8,6.5 -10.2,6.3 -12.1,8.8 -10.8,13.9 0.4,1.7 1.9,3.2 4.1,4.3 3.7,1.8 3.3,1.9 20.8,-8.6 l 3.7,-2.3 0,12 c 0,11.9 0,12.1 2.7,14.2 3.3,2.6 7.9,2.1 10.6,-1.1 1.4,-1.7 1.7,-4.1 1.7,-13.5 l 0,-11.4 9.2,5.7 c 10.5,6.5 14.8,7.3 17.9,3.4 2.1,-2.5 2.4,-6.2 0.9,-9.1 -0.5,-1 -5.3,-4.4 -10.5,-7.7 -5.2,-3.2 -9.5,-6 -9.5,-6.3 0,-0.3 3.8,-2.7 8.3,-5.4 4.5,-2.7 9.2,-5.8 10.5,-6.9 2.9,-2.7 3,-8.6 0.2,-11.2 -3.6,-3.2 -7.7,-2.3 -17.5,3.8 l -9,5.6 L 730,808 c -0.5,-13 -1.2,-14.5 -6.5,-15.6 -2.2,-0.4 -3.8,0 -5.7,1.6 z" />
  <path style="fill:#dcdcdc;stroke:none;fill-opacity:1" inkscape:connector-curvature="0" id="path26" d="m 405,847 c -1.8,1.8 -2,3.3 -2,13.5 0,6.3 -0.2,11.5 -0.5,11.5 -0.3,0 -4.5,-2.5 -9.3,-5.5 -5.6,-3.5 -10,-5.5 -11.9,-5.5 -3.8,0 -7.3,3.6 -7.3,7.7 0,3.7 2.2,5.8 12.8,12.2 4,2.4 7.5,4.7 7.7,5.1 0.3,0.5 -4,3.6 -9.4,6.9 -5.5,3.4 -10.2,6.9 -10.5,7.7 -1.9,4.9 1.8,11.4 6.6,11.4 1.2,0 6.4,-2.5 11.4,-5.5 5.1,-3 9.5,-5.5 9.8,-5.5 0.3,0 0.6,5.1 0.6,11.3 0,10.6 0.2,11.5 2.3,13.5 3.3,3.1 8,2.9 10.6,-0.4 1.8,-2.3 2.1,-4.1 2.1,-13.5 0,-6 0.2,-10.9 0.5,-10.9 0.3,0 4.5,2.5 9.4,5.5 5.5,3.4 10,5.5 11.8,5.5 5.2,0 8.8,-6 6.7,-11.4 -0.3,-0.8 -5,-4.3 -10.5,-7.7 -5.4,-3.3 -9.9,-6.2 -9.9,-6.4 0,-0.2 3.9,-2.7 8.7,-5.6 10.8,-6.5 12.3,-8 12.3,-12.2 0,-4.1 -3.5,-7.7 -7.3,-7.7 -1.4,0 -6.7,2.5 -11.7,5.5 -5,3 -9.3,5.5 -9.5,5.5 -0.3,0 -0.5,-5.1 -0.5,-11.3 0,-10.6 -0.2,-11.5 -2.3,-13.5 -3,-2.8 -8,-2.9 -10.7,-0.2 z" />
  <path style="fill:#dcdcdc;stroke:none;fill-opacity:1" inkscape:connector-curvature="0" id="path28" d="m 619,847 c -1.8,1.8 -2,3.3 -2,13.5 0,6.3 -0.2,11.5 -0.5,11.5 -0.3,0 -4.5,-2.5 -9.3,-5.5 -5.6,-3.5 -10,-5.5 -11.9,-5.5 -3.8,0 -7.3,3.6 -7.3,7.7 0,3.7 2.2,5.8 12.8,12.2 4,2.4 7.5,4.7 7.7,5.1 0.3,0.5 -4,3.6 -9.4,6.9 -5.5,3.4 -10.2,6.9 -10.5,7.7 -1.9,4.9 1.8,11.4 6.6,11.4 1.2,0 6.4,-2.5 11.4,-5.5 5.1,-3 9.5,-5.5 9.8,-5.5 0.3,0 0.6,5.1 0.6,11.3 0,10.6 0.2,11.5 2.3,13.5 3.3,3.1 8,2.9 10.6,-0.4 1.8,-2.3 2.1,-4.1 2.1,-13.5 0,-6 0.2,-10.9 0.5,-10.9 0.3,0 4.5,2.5 9.4,5.5 5.5,3.4 10,5.5 11.8,5.5 5.2,0 8.8,-6 6.7,-11.4 -0.3,-0.8 -5,-4.3 -10.5,-7.7 -5.4,-3.3 -9.9,-6.2 -9.9,-6.4 0,-0.2 3.9,-2.7 8.7,-5.6 10.8,-6.5 12.3,-8 12.3,-12.2 0,-4.1 -3.5,-7.7 -7.3,-7.7 -1.4,0 -6.7,2.5 -11.7,5.5 -5,3 -9.3,5.5 -9.5,5.5 -0.3,0 -0.5,-5.1 -0.5,-11.3 0,-10.6 -0.2,-11.5 -2.3,-13.5 -3,-2.8 -8,-2.9 -10.7,-0.2 z" />
  <path style="fill:#dcdcdc;stroke:none;fill-opacity:1" inkscape:connector-curvature="0" id="path30" d="m 833,847 c -1.8,1.8 -2,3.3 -2,13.5 0,6.3 -0.2,11.5 -0.5,11.5 -0.3,0 -4.5,-2.5 -9.3,-5.5 -5.6,-3.5 -10,-5.5 -11.9,-5.5 -3.8,0 -7.3,3.6 -7.3,7.7 0,3.7 2.2,5.8 12.8,12.2 4,2.4 7.5,4.7 7.7,5.1 0.3,0.5 -4,3.6 -9.4,6.9 -5.5,3.4 -10.2,6.9 -10.5,7.7 -1.9,4.9 1.8,11.4 6.6,11.4 1.2,0 6.4,-2.5 11.4,-5.5 5.1,-3 9.5,-5.5 9.8,-5.5 0.3,0 0.6,5.1 0.6,11.3 0,10.6 0.2,11.5 2.3,13.5 3.3,3.1 8,2.9 10.6,-0.4 1.8,-2.3 2.1,-4.1 2.1,-13.5 0,-6 0.2,-10.9 0.5,-10.9 0.3,0 4.5,2.5 9.4,5.5 5.5,3.4 10,5.5 11.8,5.5 5.2,0 8.8,-6 6.7,-11.4 -0.3,-0.8 -5,-4.3 -10.5,-7.7 -5.4,-3.3 -9.9,-6.2 -9.9,-6.4 0,-0.2 3.9,-2.7 8.7,-5.6 10.8,-6.5 12.3,-8 12.3,-12.2 0,-4.1 -3.5,-7.7 -7.3,-7.7 -1.4,0 -6.7,2.5 -11.7,5.5 -5,3 -9.3,5.5 -9.5,5.5 -0.3,0 -0.5,-5.1 -0.5,-11.3 0,-10.6 -0.2,-11.5 -2.3,-13.5 -3,-2.8 -8,-2.9 -10.7,-0.2 z" />
  <path style="fill:#dcdcdc;fill-opacity:1;stroke:none" inkscape:connector-curvature="0" id="path8-3" d="m 378.2094,169.73118 c -34.3,3.4 -55.8,9.1 -82.5,22 -65.89999,31.8 -111.29999,95.19999 -121.09999,169.4 -1.8,13.4 -1.5,43 0.5,56.5 6,39.6 22.1,76.6 46.3,106.5 8.1,10 27.8,29.1 38.09999,36.9 22.4,16.9 48.6,29.7 76.2,37 20.8,5.5 29.2,6.5 55.5,6.5 20.6,0.1 25.8,-0.2 36.5,-2.2 11.6,-2 32.1,-7.4 34.8,-9.1 0.8,-0.4 0.3,-3.1 -1.8,-9.2 -15,-44.6 -7.6,-94.6 19.6,-132.5 7.90001,-11 14.80001,-18.7 23.40001,-26.1 18.3,-15.7 41.8,-27.8 63.9,-32.8 6.4,-1.5 7,-1.9 16.1,-11.1 5.2,-5.2 12.7,-12.1 16.7,-15.2 8.4,-6.6 8.3,-6 5.3,-21 -6.5,-32.50001 -20.3,-63.30001 -40.1,-89.4 -8.2,-10.8 -27.2,-30.2 -37.9,-38.8 -30,-23.9 -66.90001,-39.9 -105.10001,-45.5 -10.7,-1.5 -36.9,-2.7 -44.4,-1.9 z" />
  <path style="fill:#dcdcdc;fill-opacity:1;stroke:none" inkscape:connector-curvature="0" id="path10-6" d="m 700.5094,370.13118 c -23.09999,2.2 -45.29999,10.1 -65.09999,23.3 -10.9,7.3 -28.1,24.1 -35,34.3 l -4.9,7.1 -8.9,0.7 c -44.8,3.4 -82.8,35.2 -94.6,79.1 -2.3,8.8 -2.6,12 -2.7,26 -0.1,13.8 0.3,17.3 2.3,25 5.2,20 14,35.5 28,49.6 15.8,15.8 33.2,25.2 55.1,29.6 6.3,1.3 18.2,1.5 76,1.4 67.49999,-0.2 80.69999,-0.7 92.49999,-3.7 28,-7 49,-19 68.2,-38.7 11.7,-12.1 18.6,-22 25.9,-37.1 21.9,-46 16.4,-100.9 -14.3,-141.7 -28.7,-38.2 -75.6,-59.2 -122.5,-54.9 z m 32.2,58.6 c 23.9,6.1 44.8,24 54.9,46.9 5.6,12.6 7.7,33.3 5,48.1 -5.6,30.6 -32.3,57.6 -62.9,63.7 -10.2,2.1 -133.99999,3.5 -143.99999,1.7 -15.5,-2.8 -28.8,-13.1 -35.7,-27.7 -3.5,-7.2 -3.8,-8.6 -4.1,-18.3 -0.3,-8.8 0,-11.6 1.8,-17 5.5,-16.4 19.3,-29.1 35.9,-33 6.9,-1.6 21.1,-0.8 27.1,1.6 6.6,2.6 14.4,7.8 18.3,12.1 1.9,2.1 5.6,6.1 8.1,9 8.2,8.9 17.6,11.8 28.7,8.7 5.3,-1.5 7.3,-2.7 12,-7.3 4.6,-4.7 5.8,-6.7 7.3,-12 1.89999,-6.8 1.59999,-12.7 -1,-18.9 -3,-7.3 -15.7,-21.6 -26.1,-29.4 l -5.6,-4.3 5.9,-5.3 c 10.8,-9.8 24.9,-16.9 39.89999,-19.8 8.7,-1.7 25.5,-1.1 34.5,1.2 z" />
  <path style="fill:#7b7b7b;fill-opacity:1;stroke:none" d="m 342.28438,572.76536 c -25.11593,-5.51174 -59.35433,-27.30158 -79.67883,-50.70893 -51.82278,-59.68311 -63.1187,-142.79859 -29.61944,-217.93978 22.68727,-50.8891 72.70832,-91.26611 121.0298,-97.69531 l 17.84854,-2.37467 -17.77019,22.2295 c -20.49625,25.63976 -40.66223,69.17462 -47.59175,102.74229 -6.81264,33.00166 -6.31468,95.10104 1.00891,125.81174 10.61848,44.52756 26.20772,76.85178 51.48943,106.76266 12.07324,14.28389 12.32377,15.014 5.02562,14.64568 -4.22462,-0.2131 -14.00854,-1.77612 -21.74209,-3.47318 z" id="path3757" inkscape:connector-curvature="0" />
  <g transform="matrix(0.93390856,0,0,0.93390856,55.830955,21.722373)" id="g2993">
    <path d="m 759.47595,113.61818 c -37.46522,63.40714 -76.36686,129.03492 -122.84896,199.79893 -8.75513,13.32879 -9.42628,17.27587 -7.06971,22.42642 1.33197,2.8972 2.86887,4.18484 5.8402,5.25786 3.07378,1.07304 31.04523,1.28764 132.88999,1.07304 128.48424,-0.3219 128.89408,-0.3219 131.66049,-2.57529 3.38117,-2.57527 4.71314,-6.76009 3.48363,-11.05224 -1.22952,-4.50673 -126.74244,-209.24165 -130.73836,-213.42647 -3.99592,-3.97023 -10.26772,-6.49419 -13.21728,-1.50225 z" id="path14-8" inkscape:connector-curvature="0" sodipodi:nodetypes="ssccccccs" style="fill:#ba381a;fill-opacity:1;stroke:none" />
    <path inkscape:transform-center-y="65.053824" inkscape:transform-center-x="45.961941" inkscape:connector-curvature="0" id="path2986-0-0" d="m 766.69898,316.178 c -2.53144,-6.40985 -1.42158,-13.54665 -2.33111,-20.24555 -3.87423,0.39898 -7.20167,6.46327 -11.24501,8.55158 -2.65419,3.36684 -8.02377,1.80581 -3.7735,-2.07071 4.85208,-5.90381 10.22114,-11.35592 15.35683,-17.01004 -0.091,-7.47706 0.25946,-14.98103 -0.37048,-22.43522 -6.49556,2.65856 -12.73313,6.13475 -18.60014,9.992 -3.84846,7.71776 -4.48726,16.8151 -9.24375,24.10261 -5.98883,2.15316 -2.17036,-8.67804 -1.26146,-11.84741 0.764,-2.59354 3.28319,-9.64508 -1.92094,-5.63102 -5.13956,2.41695 -9.98938,5.4882 -15.33574,7.43924 -4.85486,-4.08761 5.13309,-7.81943 8.25017,-10.16414 2.50072,-1.5314 10.2779,-5.23104 3.27141,-6.42608 -4.23229,-2.19188 -10.56179,-2.30295 -13.11167,-6.54602 3.35157,-5.26483 10.41582,0.20468 15.12373,0.73741 3.49542,1.08557 6.99003,2.17373 10.4851,3.26039 5.45207,-3.30633 11.45592,-5.92709 16.27614,-10.09238 -0.27081,-4.39448 -6.625,-5.43842 -9.85438,-7.79443 -2.36554,-1.07224 -4.66846,-2.8226 -7.07156,-3.48811 -7.67972,2.1771 -15.20521,5.50225 -23.26284,5.79916 -5.13493,-3.53677 4.82394,-6.25994 7.94293,-7.3623 3.15992,-0.82503 9.62425,-3.42069 3.3584,-5.59714 -4.4248,-3.14325 -10.2492,-4.94294 -13.42411,-9.51649 1.98317,-5.01094 9.12591,1.45237 12.836,2.51809 2.4881,1.31946 9.844,5.4176 6.84092,-0.73032 -0.7188,-4.89947 -3.99029,-10.14493 -2.38582,-14.96534 5.90161,-1.74977 6.01289,7.75471 7.89084,11.43425 1.34582,4.4078 2.63762,8.83188 3.9569,13.24767 6.44416,3.32453 12.88832,6.64906 19.33249,9.97358 0.10053,-7.76639 0.20105,-15.53278 0.30157,-23.29917 -5.58644,-5.87756 -11.70555,-11.32382 -16.59081,-17.81059 -0.19037,-6.87497 7.96374,1.68747 10.29088,3.76093 2.01108,1.81472 3.99937,3.65447 5.99836,5.48246 0.53771,-7.26204 0.0824,-14.69255 1.78771,-21.79381 4.88012,-3.94348 3.70233,7.25159 3.92855,10.26084 0.45672,3.3124 -0.60755,9.74703 1.03857,11.16083 4.39212,-3.6699 7.87246,-8.50739 12.79237,-11.48501 6.72048,1.70243 -2.65689,7.66795 -4.4521,10.62287 -3.0283,3.2495 -6.06196,6.494 -9.09248,9.74143 0.22874,7.85663 0.20917,15.72723 0.72796,23.57037 6.00775,-3.36487 11.87881,-6.96845 17.8125,-10.46188 2.34558,-8.01497 4.0922,-16.25309 7.23825,-23.99753 6.96472,-2.9076 2.09337,8.20069 1.57814,11.62697 -1.15362,3.1504 -2.58047,9.04095 2.52989,5.21885 5.12132,-2.1273 9.644,-5.9596 15.11363,-7.06126 5.19484,4.10154 -5.03434,7.54493 -7.97953,9.93204 -2.71868,1.77422 -10.97557,5.20511 -3.68996,6.83343 4.13171,2.38384 13.12537,1.8661 12.41163,8.25537 -5.01505,0.91796 -10.78617,-2.32417 -16.06179,-3.17701 -3.12163,-0.65731 -6.3892,-1.84397 -9.51465,-1.90435 -5.58307,3.09193 -11.50798,5.67649 -16.66596,9.45134 1.60655,3.53327 7.75326,5.04586 11.17508,7.59633 4.86713,4.34637 10.78412,2.67336 16.28324,0.56492 4.63941,-0.35144 13.83144,-7.20358 15.41032,-0.33014 -4.75707,3.7049 -11.21524,4.28635 -16.23614,7.5314 5.05987,4.65969 11.93119,7.08917 16.61767,12.14789 -0.58832,5.33557 -8.62193,-0.95432 -11.81801,-2.0175 -3.51998,-1.74721 -10.72078,-6.56445 -7.48873,0.81514 0.35669,4.81431 4.57378,10.7999 1.25105,14.97228 -4.39821,-1.60562 -4.32034,-9.35975 -6.52744,-13.47572 -2.1386,-4.7641 -1.50909,-11.47853 -7.31825,-13.57613 -4.60571,-2.61228 -9.07694,-5.745 -14.08295,-7.46609 -0.69089,7.20118 -0.73851,14.44895 -1.07468,21.67381 5.22575,5.89258 11.06779,11.31342 15.45479,17.88596 2.6886,6.88535 -6.15216,1.57792 -7.73471,-1.17737 -2.71148,-1.89492 -8.37761,-10.77724 -7.50293,-2.74337 -0.41978,6.04032 0.65209,12.38113 -1.35522,18.18488 -0.57855,0.99889 -1.91968,-0.0351 -2.28517,-0.64669 z" style="fill:#ffffff;fill-opacity:1;stroke:none" />
  </g>
</svg>
