<?xml version="1.0" encoding="UTF-8" standalone="no"?>
<svg xmlns:dc="http://purl.org/dc/elements/1.1/" xmlns:cc="http://creativecommons.org/ns#" xmlns:rdf="http://www.w3.org/1999/02/22-rdf-syntax-ns#" xmlns:svg="http://www.w3.org/2000/svg" xmlns="http://www.w3.org/2000/svg" xmlns:sodipodi="http://sodipodi.sourceforge.net/DTD/sodipodi-0.dtd" xmlns:inkscape="http://www.inkscape.org/namespaces/inkscape" version="1.0" width="1024.000000pt" height="1024.000000pt" viewBox="0 0 1024.000000 1024.000000" preserveAspectRatio="xMidYMid meet" id="svg2" inkscape:version="0.48.5 r10040" sodipodi:docname="2199969.svg">
  <defs id="defs30" />
  <sodipodi:namedview pagecolor="#ffffff" bordercolor="#666666" borderopacity="1" objecttolerance="10" gridtolerance="10" guidetolerance="10" inkscape:pageopacity="0" inkscape:pageshadow="2" inkscape:window-width="1931" inkscape:window-height="1141" id="namedview28" showgrid="false" inkscape:zoom="0.36875" inkscape:cx="633.26894" inkscape:cy="900.92129" inkscape:window-x="392" inkscape:window-y="0" inkscape:window-maximized="0" inkscape:current-layer="svg2" />
  <metadata id="metadata4">
Created by potrace 1.11, written by Peter Selinger 2001-2013
<rdf:RDF>
  <cc:Work rdf:about="">
    <dc:format>image/svg+xml</dc:format>
    <dc:type rdf:resource="http://purl.org/dc/dcmitype/StillImage" />
  </cc:Work>
</rdf:RDF>
</metadata>
  <path style="fill:#dcdcdc;stroke:none;fill-opacity:1" inkscape:connector-curvature="0" id="path8" d="m 378.5,172.6 c -34.3,3.4 -55.8,9.1 -82.5,22 -65.9,31.8 -111.3,95.2 -121.1,169.4 -1.8,13.4 -1.5,43 0.5,56.5 6,39.6 22.1,76.6 46.3,106.5 8.1,10 27.8,29.1 38.1,36.9 22.4,16.9 48.6,29.7 76.2,37 20.8,5.5 29.2,6.5 55.5,6.5 20.6,0.1 25.8,-0.2 36.5,-2.2 11.6,-2 32.1,-7.4 34.8,-9.1 0.8,-0.4 0.3,-3.1 -1.8,-9.2 -15,-44.6 -7.6,-94.6 19.6,-132.5 7.9,-11 14.8,-18.7 23.4,-26.1 18.3,-15.7 41.8,-27.8 63.9,-32.8 6.4,-1.5 7,-1.9 16.1,-11.1 5.2,-5.2 12.7,-12.1 16.7,-15.2 8.4,-6.6 8.3,-6 5.3,-21 -6.5,-32.5 -20.3,-63.3 -40.1,-89.4 C 557.7,248 538.7,228.6 528,220 498,196.1 461.1,180.1 422.9,174.5 412.2,173 386,171.8 378.5,172.6 z" />
  <path style="fill:#dcdcdc;stroke:none;fill-opacity:1" inkscape:connector-curvature="0" id="path10" d="m 700.8,373 c -23.1,2.2 -45.3,10.1 -65.1,23.3 -10.9,7.3 -28.1,24.1 -35,34.3 l -4.9,7.1 -8.9,0.7 c -44.8,3.4 -82.8,35.2 -94.6,79.1 -2.3,8.8 -2.6,12 -2.7,26 -0.1,13.8 0.3,17.3 2.3,25 5.2,20 14,35.5 28,49.6 15.8,15.8 33.2,25.2 55.1,29.6 6.3,1.3 18.2,1.5 76,1.4 67.5,-0.2 80.7,-0.7 92.5,-3.7 28,-7 49,-19 68.2,-38.7 11.7,-12.1 18.6,-22 25.9,-37.1 C 859.5,523.6 854,468.7 823.3,427.9 794.6,389.7 747.7,368.7 700.8,373 z m 32.2,58.6 c 23.9,6.1 44.8,24 54.9,46.9 5.6,12.6 7.7,33.3 5,48.1 -5.6,30.6 -32.3,57.6 -62.9,63.7 -10.2,2.1 -134,3.5 -144,1.7 -15.5,-2.8 -28.8,-13.1 -35.7,-27.7 -3.5,-7.2 -3.8,-8.6 -4.1,-18.3 -0.3,-8.8 0,-11.6 1.8,-17 5.5,-16.4 19.3,-29.1 35.9,-33 6.9,-1.6 21.1,-0.8 27.1,1.6 6.6,2.6 14.4,7.8 18.3,12.1 1.9,2.1 5.6,6.1 8.1,9 8.2,8.9 17.6,11.8 28.7,8.7 5.3,-1.5 7.3,-2.7 12,-7.3 4.6,-4.7 5.8,-6.7 7.3,-12 1.9,-6.8 1.6,-12.7 -1,-18.9 -3,-7.3 -15.7,-21.6 -26.1,-29.4 l -5.6,-4.3 5.9,-5.3 c 10.8,-9.8 24.9,-16.9 39.9,-19.8 8.7,-1.7 25.5,-1.1 34.5,1.2 z" />
  <path style="fill:#dcdcdc;stroke:none;fill-opacity:1" inkscape:connector-curvature="0" id="path12" d="m 335.5,743.4 c -6.3,2.8 -10.5,9.4 -10.5,16.6 0,5 1.5,8.8 4.8,12.3 5.5,5.9 3.5,5.7 61.8,5.7 l 53.7,0 4.3,-2.5 c 12.3,-7.2 10.6,-27.3 -2.9,-32.4 -4.5,-1.7 -107.3,-1.4 -111.2,0.3 z" />
  <path style="fill:#dcdcdc;stroke:none;fill-opacity:1" inkscape:connector-curvature="0" id="path14" d="m 524.5,743.4 c -6.3,2.8 -10.5,9.4 -10.5,16.6 0,5 1.5,8.8 4.8,12.3 5.5,5.9 3.5,5.7 61.8,5.7 l 53.7,0 4.3,-2.5 c 12.3,-7.2 10.6,-27.3 -2.9,-32.4 -4.5,-1.7 -107.3,-1.4 -111.2,0.3 z" />
  <path style="fill:#dcdcdc;stroke:none;fill-opacity:1" inkscape:connector-curvature="0" id="path16" d="m 713.5,743.4 c -3.7,1.7 -8,6.2 -9.4,9.9 -3,8 0.3,18.1 7.3,22.2 l 4.3,2.5 53.7,0 c 58.3,0 56.3,0.2 61.8,-5.7 8.6,-9.1 5.1,-24.8 -6.5,-29.2 -4.5,-1.7 -107.3,-1.4 -111.2,0.3 z" />
  <path style="fill:#dcdcdc;stroke:none;fill-opacity:1" inkscape:connector-curvature="0" id="path18" d="m 429.2,820.1 c -15.2,7.6 -12.1,30.2 4.8,33.8 7,1.5 97,1.5 104,0 13.1,-2.8 18.8,-16.9 11.4,-28.2 -1.5,-2.3 -4.2,-4.6 -6.7,-5.8 -4,-1.7 -7.3,-1.9 -56.7,-1.9 -51.4,0 -52.6,0 -56.8,2.1 z" />
  <path style="fill:#dcdcdc;stroke:none;fill-opacity:1" inkscape:connector-curvature="0" id="path20" d="m 618.2,820.1 c -15.2,7.5 -12.1,30.2 4.6,33.8 3.5,0.7 21,1.1 52.2,1.1 52.9,0 55.5,-0.2 61.2,-5.9 8.8,-8.9 6.5,-24.2 -4.5,-29.2 -4,-1.7 -7.3,-1.9 -56.7,-1.9 -51.4,0 -52.6,0 -56.8,2.1 z" />
  <path style="fill:#dcdcdc;stroke:none;fill-opacity:1" inkscape:connector-curvature="0" id="path22" d="m 335,895.9 c -10.4,5.5 -13.3,19.2 -5.8,27.7 6.4,7.2 3.3,6.9 62.3,6.9 l 53,0 4.3,-2.5 c 13.1,-7.5 11.8,-27.7 -2.1,-32.9 -1.9,-0.7 -20.7,-1.1 -55.5,-1.1 -49.5,0 -52.9,0.1 -56.2,1.9 z" />
  <path style="fill:#dcdcdc;stroke:none;fill-opacity:1" inkscape:connector-curvature="0" id="path24" d="m 524.5,895.4 c -13.2,5.9 -14.1,25 -1.7,32.4 l 4.7,2.7 53,0 53,0 4.7,-2.7 c 12.7,-7.5 11.2,-27.5 -2.5,-32.7 -4.5,-1.7 -107.3,-1.4 -111.2,0.3 z" />
  <path style="fill:#dcdcdc;stroke:none;fill-opacity:1" inkscape:connector-curvature="0" id="path26" d="m 713.5,895.4 c -13.4,6 -14.2,25.3 -1.3,32.6 l 4.3,2.5 53,0 c 59,0 55.9,0.3 62.3,-6.9 7.5,-8.5 4.6,-22.2 -5.8,-27.7 -3.3,-1.8 -6.7,-1.9 -56.5,-1.9 -42.1,0.1 -53.6,0.4 -56,1.4 z" />
  <path style="fill:#7b7b7b;fill-opacity:1;stroke:none" d="m 337.7719,573.02246 c -25.11593,-5.51175 -59.35434,-27.3016 -79.67884,-50.70894 -51.82279,-59.68311 -63.11871,-142.79859 -29.61945,-217.93977 22.68727,-50.8891 72.70834,-91.26611 121.02982,-97.69531 l 17.84853,-2.37467 -17.77018,22.2295 c -20.49625,25.63976 -40.66224,69.17463 -47.59176,102.74229 -6.81264,33.00166 -6.31467,95.10102 1.00891,125.81173 10.61849,44.52756 26.20773,76.85177 51.48944,106.76265 12.07324,14.28391 12.32377,15.01402 5.02562,14.6457 -4.22462,-0.2131 -14.00854,-1.77613 -21.74209,-3.47318 z" id="path3757" inkscape:connector-curvature="0" />
</svg>
