<?xml version="1.0" encoding="UTF-8" standalone="no"?>
<svg xmlns:dc="http://purl.org/dc/elements/1.1/" xmlns:cc="http://creativecommons.org/ns#" xmlns:rdf="http://www.w3.org/1999/02/22-rdf-syntax-ns#" xmlns:svg="http://www.w3.org/2000/svg" xmlns="http://www.w3.org/2000/svg" xmlns:sodipodi="http://sodipodi.sourceforge.net/DTD/sodipodi-0.dtd" xmlns:inkscape="http://www.inkscape.org/namespaces/inkscape" version="1.0" width="1024.000000pt" height="1024.000000pt" viewBox="0 0 1024.000000 1024.000000" preserveAspectRatio="xMidYMid meet" id="svg2" inkscape:version="0.48.5 r10040" sodipodi:docname="2199989.svg">
  <defs id="defs20" />
  <sodipodi:namedview pagecolor="#ffffff" bordercolor="#666666" borderopacity="1" objecttolerance="10" gridtolerance="10" guidetolerance="10" inkscape:pageopacity="0" inkscape:pageshadow="2" inkscape:window-width="906" inkscape:window-height="545" id="namedview18" showgrid="false" inkscape:zoom="0.184375" inkscape:cx="640" inkscape:cy="640" inkscape:window-x="1290" inkscape:window-y="685" inkscape:window-maximized="0" inkscape:current-layer="svg2" />
  <metadata id="metadata4">
Created by potrace 1.11, written by Peter Selinger 2001-2013
<rdf:RDF>
  <cc:Work rdf:about="">
    <dc:format>image/svg+xml</dc:format>
    <dc:type rdf:resource="http://purl.org/dc/dcmitype/StillImage" />
  </cc:Work>
</rdf:RDF>
</metadata>
  <path style="fill:#e6b85c;stroke:none;fill-opacity:1" inkscape:connector-curvature="0" id="path12" d="m 747.2,743.1 c -45,5.8 -79,41.6 -82.8,87 -0.8,8.9 0.4,13.5 4.8,18.4 5.9,6.8 17,8.3 24.2,3.5 5.8,-4.1 7.8,-8 8.8,-18.2 1.6,-16.6 7.1,-28.2 18.1,-38.4 22.4,-21 56.9,-20.3 78.7,1.6 11.1,11.1 16,23.2 16,39.5 0,15.8 -5,27.8 -16.4,39 -3.9,3.9 -9.8,8.5 -13.2,10.2 -12.8,6.8 4.5,6.3 -234.4,6.3 -241.7,0 -223.6,-0.5 -230.3,6.9 -8.3,9.2 -5.3,24.2 5.7,29.2 4,1.8 11.4,1.9 223.1,1.9 209.6,0 219.4,-0.1 228,-1.9 37.9,-7.8 66.4,-36.3 74,-74 2.3,-11.1 1.6,-32.5 -1.3,-42.1 -5.3,-17.5 -13.3,-31 -25.4,-42.6 -15.6,-15.1 -33.6,-23.6 -55.8,-26.4 -9.4,-1.1 -12.7,-1.1 -21.8,0.1 z" />
  <path style="fill:#e6b85c;stroke:none;fill-opacity:1" inkscape:connector-curvature="0" id="path14" d="m 376.2,745.1 c -15.5,7.7 -12.3,30.9 4.8,34.8 6.5,1.5 244.1,1.5 251.1,0 3.4,-0.7 6.4,-2.3 9,-4.6 9.6,-8.7 7.2,-25.1 -4.5,-30.4 -3.9,-1.8 -9.2,-1.9 -130.1,-1.9 l -126,0 -4.3,2.1 z" />
  <path style="fill:#e6b85c;stroke:none;fill-opacity:1" inkscape:connector-curvature="0" id="path16" d="m 350.8,820 c -10.7,5.7 -13.1,20 -4.9,29.4 0.9,1 3.3,2.7 5.3,3.7 3.7,1.9 7.6,1.9 134.2,1.7 l 130.4,-0.3 3.9,-3.1 c 5,-4 7.3,-8.7 7.3,-14.9 0,-6.2 -2.3,-10.9 -7.3,-14.9 l -3.9,-3.1 -130.6,-0.2 C 357.1,818.1 354.4,818.1 350.8,820 z" />
  <path style="fill:#dcdcdc;fill-opacity:1;stroke:none" inkscape:connector-curvature="0" id="path8-5" d="m 378.2094,174.07016 c -34.3,3.4 -55.8,9.1 -82.5,22 -65.9,31.8 -111.3,95.2 -121.1,169.4 -1.8,13.4 -1.5,43 0.5,56.5 6,39.6 22.1,76.6 46.3,106.5 8.1,10 27.8,29.1 38.1,36.9 22.4,16.9 48.6,29.7 76.2,37 20.8,5.5 29.2,6.5 55.5,6.5 20.6,0.1 25.8,-0.2 36.5,-2.2 11.6,-2 32.1,-7.4 34.8,-9.1 0.8,-0.4 0.3,-3.1 -1.8,-9.2 -15,-44.6 -7.6,-94.6 19.6,-132.5 7.9,-11 14.8,-18.7 23.4,-26.1 18.3,-15.7 41.8,-27.8 63.9,-32.8 6.4,-1.5 7,-1.9 16.1,-11.1 5.2,-5.2 12.7,-12.1 16.7,-15.2 8.4,-6.6 8.3,-6 5.3,-21 -6.5,-32.5 -20.3,-63.3 -40.1,-89.4 -8.2,-10.8 -27.2,-30.2 -37.9,-38.8 -30,-23.9 -66.9,-39.9 -105.1,-45.5 -10.7,-1.5 -36.9,-2.7 -44.4,-1.9 z" />
  <path style="fill:#dcdcdc;fill-opacity:1;stroke:none" inkscape:connector-curvature="0" id="path10-9" d="m 700.50941,374.47016 c -23.1,2.2 -45.3,10.1 -65.10001,23.3 -10.9,7.3 -28.1,24.1 -35,34.3 l -4.9,7.1 -8.9,0.7 c -44.8,3.4 -82.8,35.2 -94.6,79.1 -2.3,8.8 -2.6,12 -2.7,26 -0.1,13.8 0.3,17.3 2.3,25 5.2,20 14,35.5 28,49.6 15.8,15.8 33.2,25.2 55.1,29.6 6.3,1.3 18.2,1.5 76.00001,1.4 67.5,-0.2 80.7,-0.7 92.5,-3.7 28,-7 49,-19 68.2,-38.7 11.7,-12.1 18.6,-22 25.9,-37.1 21.89999,-46 16.39999,-100.9 -14.3,-141.7 -28.7,-38.2 -75.6,-59.2 -122.5,-54.9 z m 32.2,58.6 c 23.9,6.1 44.8,24 54.9,46.9 5.6,12.6 7.7,33.3 5,48.1 -5.6,30.6 -32.3,57.6 -62.9,63.7 -10.2,2.1 -134.00001,3.5 -144.00001,1.7 -15.5,-2.8 -28.8,-13.1 -35.7,-27.7 -3.5,-7.2 -3.8,-8.6 -4.1,-18.3 -0.3,-8.8 0,-11.6 1.8,-17 5.5,-16.4 19.3,-29.1 35.9,-33 6.9,-1.6 21.1,-0.8 27.1,1.6 6.6,2.6 14.4,7.8 18.3,12.1 1.9,2.1 5.6,6.1 8.1,9 8.2,8.9 17.60001,11.8 28.70001,8.7 5.3,-1.5 7.3,-2.7 12,-7.3 4.6,-4.7 5.8,-6.7 7.3,-12 1.9,-6.8 1.6,-12.7 -1,-18.9 -3,-7.3 -15.7,-21.6 -26.1,-29.4 l -5.6,-4.3 5.9,-5.3 c 10.8,-9.8 24.9,-16.9 39.9,-19.8 8.7,-1.7 25.5,-1.1 34.5,1.2 z" />
  <path style="fill:#7b7b7b;fill-opacity:1;stroke:none" d="M 342.28438,577.10434 C 317.16845,571.5926 282.93005,549.80276 262.60555,526.39541 210.78276,466.7123 199.48684,383.59682 232.9861,308.45564 c 22.68728,-50.88911 72.70833,-91.26612 121.02981,-97.69532 l 17.84854,-2.37467 -17.77019,22.2295 c -20.49625,25.63976 -40.66223,69.17463 -47.59175,102.74229 -6.81264,33.00166 -6.31468,95.10104 1.00891,125.81174 10.61848,44.52756 26.20772,76.85178 51.48943,106.76266 12.07324,14.28389 12.32377,15.014 5.02562,14.64568 -4.22462,-0.2131 -14.00854,-1.77612 -21.74209,-3.47318 z" id="path3757" inkscape:connector-curvature="0" />
</svg>
