<?xml version="1.0" encoding="UTF-8" standalone="no"?>
<svg xmlns:dc="http://purl.org/dc/elements/1.1/" xmlns:cc="http://creativecommons.org/ns#" xmlns:rdf="http://www.w3.org/1999/02/22-rdf-syntax-ns#" xmlns:svg="http://www.w3.org/2000/svg" xmlns="http://www.w3.org/2000/svg" xmlns:sodipodi="http://sodipodi.sourceforge.net/DTD/sodipodi-0.dtd" xmlns:inkscape="http://www.inkscape.org/namespaces/inkscape" version="1.0" width="1024.000000pt" height="1024.000000pt" viewBox="0 0 1024.000000 1024.000000" preserveAspectRatio="xMidYMid meet" id="svg2" inkscape:version="0.48.5 r10040" sodipodi:docname="2259999.svg">
  <defs id="defs28" />
  <sodipodi:namedview pagecolor="#ffffff" bordercolor="#666666" borderopacity="1" objecttolerance="10" gridtolerance="10" guidetolerance="10" inkscape:pageopacity="0" inkscape:pageshadow="2" inkscape:window-width="917" inkscape:window-height="708" id="namedview26" showgrid="false" inkscape:zoom="0.184375" inkscape:cx="640" inkscape:cy="640" inkscape:window-x="1454" inkscape:window-y="348" inkscape:window-maximized="0" inkscape:current-layer="svg2" />
  <metadata id="metadata4">
Created by potrace 1.11, written by Peter Selinger 2001-2013
<rdf:RDF>
  <cc:Work rdf:about="">
    <dc:format>image/svg+xml</dc:format>
    <dc:type rdf:resource="http://purl.org/dc/dcmitype/StillImage" />
  </cc:Work>
</rdf:RDF>
</metadata>
  <path style="fill:#80d3ff;stroke:none;fill-opacity:1" id="path12" d="m 345,707.1 c -26.9,14.2 -38.9,22 -47.4,30.9 -8.1,8.5 -10.1,13.3 -10.1,24.5 0,7.8 0.4,9.7 2.8,14.7 8.2,16.8 28.3,24.2 45,16.5 10.6,-4.8 16.4,-12.4 20.3,-26.2 1.4,-4.8 1.8,-12 2.1,-36.3 0.3,-16.6 0.1,-30.2 -0.4,-30.2 -0.4,0 -6,2.8 -12.3,6.1 z m -5,33.3 c 0,11.1 -1.5,23.2 -3.5,28 -0.8,1.8 -3,4.7 -4.9,6.4 -10.3,9 -26.6,1.5 -26.6,-12.3 0,-8.3 5.7,-14.5 23.2,-25.3 5.6,-3.4 10.6,-6.2 11,-6.2 0.4,0 0.8,4.2 0.8,9.4 z" inkscape:connector-curvature="0" />
  <path style="fill:#80d3ff;stroke:none;fill-opacity:1" id="path14" d="m 496.5,711.6 c -37.6,19.9 -52.6,29.6 -65.7,42.4 -6.9,6.8 -9.4,10.1 -12.2,16 -15.2,32.2 5.1,68 40.9,72.5 12.4,1.5 29.2,-4.3 39,-13.6 14.2,-13.4 19.1,-30.2 20.2,-69.9 0.6,-21 -0.4,-58 -1.6,-58 -0.3,0 -9.6,4.8 -20.6,10.6 z m -5.8,51.6 c -1.2,31.3 -5.1,43.4 -15.9,48.9 -12.7,6.5 -28.4,-0.1 -32.4,-13.7 -3.8,-13.1 2.2,-22.8 22.6,-36.5 8.6,-5.8 24.2,-14.9 25.4,-14.9 0.6,0 0.7,6.1 0.3,16.2 z" inkscape:connector-curvature="0" />
  <path style="fill:#80d3ff;stroke:none;fill-opacity:1" id="path16" d="m 626.6,710.1 c -29.9,16 -43.9,26.7 -49.3,37.7 -2.4,5 -2.8,6.8 -2.7,14.7 0,10.4 1.9,15.7 8.1,22.6 13.1,14.5 34.5,15.6 49,2.6 8.1,-7.4 11.6,-17.5 13.3,-38.7 1,-12.2 0.3,-48 -0.9,-48 -0.3,0 -8.2,4.1 -17.5,9.1 z m 0.4,31.6 c 0,13 -1.4,22.3 -4.1,28 -5.7,11.8 -22.8,12 -28.6,0.3 -4.4,-8.6 -2,-16.2 7.7,-23.6 6.2,-4.9 22.8,-15.4 24.2,-15.4 0.5,0 0.8,4.8 0.8,10.7 z" inkscape:connector-curvature="0" />
  <path style="fill:#80d3ff;stroke:none;fill-opacity:1" id="path18" d="m 793,706.7 c -5.8,3 -16.3,8.7 -23.5,12.6 -52.1,28.1 -68.7,45.6 -68.7,72.7 0,34.7 33.5,58.8 66.7,47.8 8,-2.6 14.1,-6.6 20.9,-13.8 9.4,-9.9 14.1,-23.2 16.5,-46.9 1.8,-17.2 1.1,-78.2 -0.8,-78.1 -0.3,0.1 -5.3,2.6 -11.1,5.7 z m -15,51.5 c 0,22.5 -3.2,40.3 -8.4,47.1 -8.2,10.7 -22.6,12.5 -32.5,4 -5.7,-4.8 -8.4,-10.5 -8.4,-17.4 0,-10.2 4.6,-16.5 20.3,-27.8 7,-5 27,-17.1 28.2,-17.1 0.5,0 0.8,5.1 0.8,11.2 z" inkscape:connector-curvature="0" />
  <path style="fill:#80d3ff;stroke:none;fill-opacity:1" id="path20" d="m 375.5,808.1 c -52.9,28 -71.8,43.2 -78.4,63.1 -6.1,18.4 -1.6,38 12,51.6 19.7,19.9 51.5,20.2 71.4,0.7 13,-12.7 18,-30.3 19.2,-68 0.7,-24.1 -0.5,-58.5 -2.1,-58.5 -0.6,0 -10.5,5 -22.1,11.1 z m -3.8,50.1 c -0.7,17 -2.7,31.4 -5.3,37.6 -3.5,8.4 -12,14.1 -21.2,14.2 -8.8,0 -16.3,-4.5 -20.4,-12.4 -2.9,-5.3 -3,-14.5 -0.3,-20 2.5,-5.2 10,-12.3 20.3,-19.4 7.9,-5.4 26,-16.2 27.1,-16.2 0.2,0 0.1,7.3 -0.2,16.2 z" inkscape:connector-curvature="0" />
  <path style="fill:#80d3ff;stroke:none;fill-opacity:1" id="path22" d="m 665.5,807.1 c -52.1,27.6 -72.7,43.5 -79.4,61.4 -7.7,20.6 -2.9,41.1 13.1,56.1 19.4,18.3 50.1,17.8 69.4,-1.1 9.2,-9 13.8,-19.2 17,-38 3,-17.6 3.1,-88.6 0,-88.4 -0.6,0 -9.6,4.5 -20.1,10 z m -5.8,52.1 c -1.3,32.3 -5.2,43.4 -17.2,48.9 -4.7,2.2 -13.3,2.5 -17.8,0.6 -4.8,-2.1 -9.5,-6.4 -11.9,-11.1 -2.9,-5.5 -2.9,-14.6 -0.1,-20.1 2.3,-4.4 9.9,-11.9 17.9,-17.7 4.9,-3.6 28.3,-17.8 29.2,-17.8 0.3,0 0.2,7.8 -0.1,17.2 z" inkscape:connector-curvature="0" />
  <path style="fill:#80d3ff;stroke:none;fill-opacity:1" id="path24" d="m 508.5,852.1 c -29.2,15.6 -44.5,27.1 -49.4,37.3 -8.4,17.2 -1.3,37.9 15.8,46.3 4.9,2.4 6.8,2.8 14.6,2.8 7.6,0 9.9,-0.4 14.5,-2.6 7.8,-3.7 12.5,-8.1 16,-15.2 5,-10.2 6.1,-17.7 6.6,-43.2 0.3,-12.7 0.2,-25.6 -0.3,-28.7 l -0.8,-5.7 -17,9 z m 0.1,34.1 c -1.3,25.3 -5.3,33.4 -17.4,34.6 -9.8,0.9 -17.2,-5.9 -17.2,-15.9 0,-6.5 2,-10.1 8.4,-15.5 4.9,-4.1 24.3,-16.4 26,-16.4 0.5,0 0.6,5.1 0.2,13.2 z" inkscape:connector-curvature="0" />
  <path style="fill:#dcdcdc;fill-opacity:1;stroke:none" inkscape:connector-curvature="0" id="path10-8" d="m 539.60772,307.59395 c -50.6,4.4 -99.1,33.9 -125.3,76.1 l -4.2,6.8 -9.1,0 c -11.4,0 -25.3,2.3 -36.9,6.2 -17.9,6 -32.1,14.6 -45.9,27.8 -25.60002,24.5 -38.70002,54.8 -38.70002,89.5 0,28.2 8.1,52.4 24.80001,74.6 18.40001,24.4 42.80001,39.9 74.00001,47.1 l 9.8,2.2 161.5,0.4 c 168.19999,0.3 174.89999,0.2 190.59999,-3.9 28.8,-7.5 54.59999,-28.9 67.89999,-56.3 6.8,-14 9.6,-25.4 10.2,-42.1 0.6,-16.5 -1.5,-29.1 -7.2,-43.3 -15.1,-37.3 -49.69999,-62.9 -89.39999,-66 l -8.3,-0.7 -3.3,-9 c -8.7,-24.2 -23.09999,-46.3 -41.49999,-63.9 -28,-26.7 -62.6,-42.2 -102,-45.6 -12.7,-1.1 -13.4,-1.1 -27,0.1 z m 42.5,55.3 c 12.5,3.3 29.7,11.6 40.2,19.5 14.6,11 26.6,25.8 34.6,42.9 5.8,12.5 5.7,12.8 -3.8,19.3 -9.1,6.2 -12.9,11.4 -14.7,19.9 -2.8,13.6 7.1,27.4 21.7,30.1 6.5,1.2 13.1,-0.6 21.4,-6 9.9,-6.3 17.59999,-9 27.19999,-9.8 26.8,-2.1 50.8,16 56.4,42.4 1.8,8.6 1.8,13 0,21.8 -4.2,20 -21.3,37.4 -40.7,41.4 -3.7,0.8 -53.99999,1.1 -170.29999,0.9 l -165,-0.3 -8,-2.8 c -19.5,-6.9 -33,-18.6 -42,-36.5 -9.9,-19.9 -9.9,-42.3 0.1,-63.1 7.8,-16.1 23.8,-30.2 40.9,-36.1 18.7,-6.4 41.9,-4 59.3,6.2 5.9,3.4 17.8,14.7 24.6,23.2 12.2,15.2 36.6,11.7 44.4,-6.3 2.4,-5.6 2,-15.7 -0.8,-21.1 -5.7,-11.1 -24,-29.9 -36.8,-38 -3.9,-2.5 -7.2,-5 -7.2,-5.6 0,-2.2 15.8,-18 23.7,-23.6 14.6,-10.5 32.9,-18.1 49.8,-20.8 3.3,-0.5 12.5,-0.7 20.5,-0.5 11.5,0.3 16.6,0.9 24.5,2.9 z" />
  <path style="fill:#dcdcdc;fill-opacity:1;stroke:none" inkscape:connector-curvature="0" id="path8-5" d="m 397.16428,142.76979 c -1.9,0.2 -7.8,0.9 -13,1.5 -5.2,0.6 -15.4,2.6 -22.6,4.4 -110.00002,28.1 -172.80002,142.70001 -137.40002,250.80001 4.9,14.7 13.7,33 22,45.6 l 6.3,9.4 4.9,-9.9 c 19.4,-38.8 52.20001,-68.4 92.30002,-83.4 10.6,-4 26.4,-8.2 35.6,-9.5 4,-0.5 5,-1.2 8.5,-5.7 5.5,-7.3 21.5,-23.1 30.9,-30.7 30,-24.2 70.2,-41.00001 107.7,-45.00001 13,-1.5 40.1,-1.3 51.8,0.3 5.2,0.7 9.7,1.2 9.8,1 0.6,-0.4 -7.8,-19.5 -11.6,-26.4 -9.9,-17.9 -22.5,-34.3 -37.5,-48.6 -35.1,-33.5 -80.4,-52.3 -129.4,-53.8 -8.2,-0.2 -16.4,-0.2 -18.3,0 z" />
  <path inkscape:connector-curvature="0" style="fill:#7b7b7b;fill-opacity:1;stroke:none" d="m 401.68628,162.2693 -20.85543,5.07607 c -48.33932,5.76119 -99.89477,47.84816 -122.59043,93.44973 -27.88469,56.02784 -24.73532,116.99001 6.97299,166.69893 16.39071,-23.01044 38.10282,-41.9322 63.50404,-55.41922 -3.07752,-28.82515 -2.11821,-66.46304 3.07144,-88.98224 6.93207,-30.07988 27.08956,-69.09545 47.59336,-92.07118 z" id="path8-0-7" sodipodi:nodetypes="ccsccscc" />
</svg>
