<?xml version="1.0" encoding="UTF-8" standalone="no"?>
<svg xmlns:dc="http://purl.org/dc/elements/1.1/" xmlns:cc="http://creativecommons.org/ns#" xmlns:rdf="http://www.w3.org/1999/02/22-rdf-syntax-ns#" xmlns:svg="http://www.w3.org/2000/svg" xmlns="http://www.w3.org/2000/svg" xmlns:sodipodi="http://sodipodi.sourceforge.net/DTD/sodipodi-0.dtd" xmlns:inkscape="http://www.inkscape.org/namespaces/inkscape" version="1.0" width="1024.000000pt" height="1024.000000pt" viewBox="0 0 1024.000000 1024.000000" preserveAspectRatio="xMidYMid meet" id="svg2" inkscape:version="0.48.5 r10040" sodipodi:docname="2299971.svg">
  <defs id="defs20" />
  <sodipodi:namedview pagecolor="#d7ffff" bordercolor="#666666" borderopacity="1" objecttolerance="10" gridtolerance="10" guidetolerance="10" inkscape:pageopacity="0.31372549" inkscape:pageshadow="2" inkscape:window-width="1475" inkscape:window-height="948" id="namedview18" showgrid="false" inkscape:zoom="0.36875" inkscape:cx="932.29706" inkscape:cy="883.71472" inkscape:window-x="717" inkscape:window-y="172" inkscape:window-maximized="0" inkscape:current-layer="svg2" />
  <metadata id="metadata4">
Created by potrace 1.11, written by Peter Selinger 2001-2013
<rdf:RDF>
  <cc:Work rdf:about="">
    <dc:format>image/svg+xml</dc:format>
    <dc:type rdf:resource="http://purl.org/dc/dcmitype/StillImage" />
  </cc:Work>
</rdf:RDF>
</metadata>
  <path style="fill:#dcdcdc;stroke:none;fill-opacity:1" inkscape:connector-curvature="0" id="path10" d="m 394,138.6 c -1.9,0.2 -7.8,0.9 -13,1.5 -5.2,0.6 -15.4,2.6 -22.6,4.4 -110,28.1 -172.8,142.7 -137.4,250.8 4.9,14.7 13.7,33 22,45.6 l 6.3,9.4 4.9,-9.9 c 19.4,-38.8 52.2,-68.4 92.3,-83.4 10.6,-4 26.4,-8.2 35.6,-9.5 4,-0.5 5,-1.2 8.5,-5.7 5.5,-7.3 21.5,-23.1 30.9,-30.7 30,-24.2 70.2,-41 107.7,-45 13,-1.5 40.1,-1.3 51.8,0.3 5.2,0.7 9.7,1.2 9.8,1 0.6,-0.4 -7.8,-19.5 -11.6,-26.4 -9.9,-17.9 -22.5,-34.3 -37.5,-48.6 -35.1,-33.5 -80.4,-52.3 -129.4,-53.8 -8.2,-0.2 -16.4,-0.2 -18.3,0 z" />
  <path style="fill:#cccccc;stroke:none;fill-opacity:1" inkscape:connector-curvature="0" id="path12" d="m 295.5,744.4 c -3.9,1.7 -8,6.5 -9.5,11.2 -2.7,8 1.7,18 9.3,21.5 4.1,1.8 10.6,1.9 246.2,1.9 235.6,0 242.1,-0.1 246.2,-1.9 7.6,-3.5 12,-13.5 9.3,-21.5 -1.6,-4.8 -5.6,-9.6 -9.7,-11.2 -4.8,-2 -487.2,-2 -491.8,0 z" />
  <path style="fill:#cccccc;stroke:none;fill-opacity:1" inkscape:connector-curvature="0" id="path14" d="m 297.2,819.2 c -1.8,0.6 -5,3 -7.1,5.3 -4.5,4.9 -6.1,11.3 -4.3,17.4 1.4,4.4 7.4,10.4 12.1,12 4.9,1.6 482.3,1.6 487.2,0 4.7,-1.6 10.7,-7.6 12.1,-12 0.6,-2.2 0.8,-5.7 0.4,-8.4 -0.9,-5.9 -6.7,-12.6 -12.4,-14.3 -5.3,-1.6 -483.1,-1.5 -488,0 z" />
  <path style="fill:#cccccc;stroke:none;fill-opacity:1" inkscape:connector-curvature="0" id="path16" d="m 295.3,895.9 c -10.5,4.8 -13.3,19 -5.5,28.3 5.3,6.2 -13.2,5.8 251.7,5.8 264.9,0 246.4,0.4 251.7,-5.8 7.8,-9.3 5,-23.5 -5.5,-28.3 -4.1,-1.8 -10.6,-1.9 -246.2,-1.9 -235.6,0 -242.1,0.1 -246.2,1.9 z" />
  <path style="fill:#cecece;fill-opacity:1;stroke:none" inkscape:connector-curvature="0" id="path22-5" d="m 537.07111,302.6542 c -50.6,4.4 -99.1,33.9 -125.3,76.1 l -4.2,6.79999 -9.1,0 c -11.4,0 -25.3,2.3 -36.9,6.2 -17.9,6 -32.1,14.6 -45.9,27.8 -25.6,24.5 -38.7,54.8 -38.7,89.5 0,28.19999 8.1,52.39999 24.8,74.59999 18.4,24.4 42.8,39.9 74,47.1 l 9.8,2.2 161.5,0.4 c 168.2,0.3 174.9,0.2 190.6,-3.9 28.8,-7.5 54.6,-28.9 67.9,-56.3 6.8,-14 9.6,-25.4 10.2,-42.1 0.6,-16.49999 -1.5,-29.09999 -7.2,-43.29999 -15.1,-37.3 -49.7,-62.9 -89.4,-66 l -8.3,-0.7 -3.3,-9 c -8.7,-24.2 -23.1,-46.29999 -41.5,-63.89999 -28,-26.7 -62.6,-42.2 -102,-45.6 -12.7,-1.1 -13.4,-1.1 -27,0.1 z m 42.5,55.3 c 12.5,3.3 29.7,11.6 40.2,19.5 14.6,10.99999 26.6,25.79999 34.6,42.89999 5.8,12.5 5.7,12.8 -3.8,19.3 -9.1,6.2 -12.9,11.4 -14.7,19.9 -2.8,13.6 7.1,27.4 21.7,30.1 6.5,1.2 13.1,-0.6 21.4,-6 9.9,-6.3 17.6,-9 27.2,-9.8 26.8,-2.1 50.8,16 56.4,42.4 1.8,8.59999 1.8,12.99999 0,21.79999 -4.2,20 -21.3,37.4 -40.7,41.4 -3.7,0.8 -54,1.1 -170.3,0.9 l -165,-0.3 -8,-2.8 c -19.5,-6.9 -33,-18.6 -42,-36.5 -9.9,-19.9 -9.9,-42.29999 0.1,-63.09999 7.8,-16.1 23.8,-30.2 40.9,-36.1 18.7,-6.4 41.9,-4 59.3,6.2 5.9,3.4 17.8,14.7 24.6,23.2 12.2,15.2 36.6,11.7 44.4,-6.3 2.4,-5.6 2,-15.7 -0.8,-21.1 -5.7,-11.1 -24,-29.9 -36.8,-38 -3.9,-2.5 -7.2,-5 -7.2,-5.6 0,-2.2 15.8,-18 23.7,-23.59999 14.6,-10.5 32.9,-18.1 49.8,-20.8 3.3,-0.5 12.5,-0.7 20.5,-0.5 11.5,0.3 16.6,0.9 24.5,2.9 z" />
  <path inkscape:connector-curvature="0" style="fill:#ba381a;fill-opacity:1;stroke:none" id="path8-2" d="m 761.37107,124.67112 c -2.2,1.4 -19.9,28.5 -64.4,98.8 -33.8,53.3 -62.1,98.6 -62.8,100.8 -1.9,5.4 0.6,10.6 6.1,12.4 3,1 30.3,1.2 129.7,1 125.4,-0.3 125.8,-0.3 128.5,-2.4 3.3,-2.4 4.6,-6.3 3.4,-10.3 -1.2,-4.2 -123.7,-195 -127.6,-198.9 -3.9,-3.7 -8.2,-4.2 -12.9,-1.4 z m 9.3,76.4 c 0.8,0.8 1.2,4.8 1.2,11.2 l 0,10 6.4,-6.3 c 5.6,-5.5 6.7,-6.2 8,-5.1 0.9,0.7 1.6,1.7 1.6,2.4 0,0.6 -3.6,4.7 -8,9.1 l -8.1,8.1 0.3,10.6 0.3,10.7 8.5,-4.8 8.5,-4.8 1.7,-5.9 c 0.9,-3.3 2.4,-8.5 3.3,-11.7 1.4,-4.9 2,-5.7 4.1,-5.7 3,0 3.1,2.1 0.4,11 -1.1,3.6 -2,6.6 -2,6.7 0,1 3.2,-0.3 10.2,-4.3 7.2,-4.1 8.2,-4.4 9.6,-3.1 2.4,2.5 0.9,4.2 -7.7,8.8 -4.5,2.3 -8.1,4.6 -8.1,5 0,0.4 2.6,1.5 5.8,2.4 3.1,0.8 6.7,2 8,2.5 2.2,1 3,4.4 1.2,5.5 -0.5,0.3 -5.6,-0.8 -11.4,-2.5 -5.7,-1.6 -11.1,-3 -12,-3 -1.8,0 -17.6,8.2 -17.6,9.1 0,0.4 3.9,2.7 8.8,5.2 l 8.7,4.5 11.5,-3.5 c 10.7,-3.3 11.5,-3.4 12.7,-1.7 1.9,2.6 0,4.1 -8.3,6.6 -4.1,1.1 -7.4,2.4 -7.4,2.7 0,0.4 3.7,2.7 8.2,5.1 5.1,2.8 8.4,5.2 8.6,6.4 0.8,3.8 -2.2,3.6 -10.7,-0.9 -4.6,-2.5 -8.7,-4.5 -9.1,-4.5 -0.5,0 0.3,3.7 1.7,8.1 2.2,7.4 2.3,8.3 0.9,9.7 -1.4,1.4 -1.8,1.4 -3,0.2 -1.1,-1.1 -7.6,-20.5 -7.6,-22.5 0,-0.4 -16.7,-9.5 -17.4,-9.5 -0.3,0 -0.6,4.6 -0.6,10.2 l 0,10.2 8.1,8.2 c 8.1,8.3 9.5,11.5 5.5,12.2 -1.2,0.3 -3.9,-1.6 -7.7,-5.4 l -5.9,-5.8 0,9.4 c 0,10.5 -0.9,13.2 -3.7,11.4 -1.5,-0.9 -1.9,-2.9 -2.3,-10.7 l -0.5,-9.7 -6.2,5.5 c -6.2,5.6 -10.3,7.1 -10.3,3.7 0,-0.9 3.8,-5.5 8.5,-10.2 l 8.5,-8.5 0,-10.2 c 0,-5.7 -0.2,-10.3 -0.6,-10.3 -0.3,0 -4.5,2.1 -9.4,4.7 l -8.8,4.8 -3.4,10.9 c -3.6,11.5 -5.6,14.2 -8.3,11.6 -1.3,-1.4 -1.2,-2.4 1,-9.5 1.3,-4.4 2.3,-8.1 2.1,-8.3 -0.2,-0.2 -4.1,1.8 -8.7,4.3 -8.8,4.8 -11.2,5.3 -11.7,2 -0.2,-1.7 1.4,-3 8.3,-6.8 4.7,-2.6 8.5,-5 8.5,-5.2 0,-0.3 -3.3,-1.4 -7.2,-2.6 -8.6,-2.5 -10.7,-4.1 -8.8,-6.3 1.7,-2.1 2.4,-2.1 14.5,1.5 l 10.4,3.1 8.7,-4.8 c 10,-5.4 10.1,-4.9 -2,-11.1 l -7,-3.5 -10.5,3.1 c -12.2,3.6 -13.7,3.7 -14.5,1.4 -1,-2.5 1.1,-3.9 9.3,-6.3 4,-1.2 7,-2.5 6.5,-3 -0.5,-0.5 -4.4,-2.7 -8.6,-5 -5.6,-3 -7.8,-4.7 -7.8,-6.1 0,-3.5 2.8,-3.2 11.5,1.4 5.5,3 8.5,4.1 8.5,3.2 0,-0.7 -0.9,-4.3 -2.1,-8 -2.2,-7.3 -2,-9.5 0.9,-9.5 2.8,0 3.5,1.3 7.2,13.1 l 3.2,10.6 9.4,4.6 9.4,4.7 0,-10.8 0,-10.8 -8.5,-7.8 c -8.3,-7.6 -10.1,-10.8 -6.9,-12 1.2,-0.4 3.9,1.3 8.5,5.5 l 6.9,6.1 0,-9.2 c 0,-11.2 1.6,-15 4.8,-11.8 z" />
  <path style="fill:#ffffff;fill-opacity:1;stroke:none" d="m 960.62883,391.34678 c -1.75812,-0.998 -2.51084,-4.78149 -2.95524,-14.85435 -0.22217,-5.03597 -0.52667,-9.55064 -0.67665,-10.03262 -0.16686,-0.53621 -2.71058,1.26002 -6.55408,4.62809 -8.0668,7.06897 -12.49702,9.44427 -13.77076,7.38332 -0.68457,-1.10767 2.05581,-4.5531 11.81275,-14.8519 l 8.89696,-9.39105 0,-12.55861 c 0,-7.31495 -0.27247,-12.72699 -0.65255,-12.9619 -0.71257,-0.44038 -3.85156,1.03838 -15.4095,7.25933 l -7.58746,4.08389 -3.82338,11.60868 c -5.24834,15.9352 -7.20687,19.13951 -10.1868,16.66638 -1.46718,-1.21764 -1.22963,-3.34216 1.453,-12.99473 1.34056,-4.82357 2.28495,-8.92257 2.09865,-9.10887 -0.18631,-0.18631 -4.96962,1.97111 -10.62957,4.79425 -10.27874,5.12696 -13.73133,6.0947 -14.50946,4.06693 -0.79576,-2.07371 1.08605,-3.72423 10.79146,-9.46512 5.39635,-3.192 9.81154,-6.06918 9.81154,-6.39374 0,-0.32455 -3.43221,-1.72535 -7.62712,-3.11289 -9.67446,-3.19999 -12.71187,-4.71336 -12.71187,-6.33363 0,-3.82847 4.44413,-3.5789 20.29378,1.13961 l 11.14123,3.3168 8.3569,-4.6244 c 10.88882,-6.02548 11.73352,-6.60634 11.73352,-8.06865 0,-1.6469 -2.16399,-3.08672 -12.15045,-8.08435 l -8.42164,-4.21453 -11.91735,3.42688 c -14.43296,4.15026 -16.68792,4.58481 -18.02647,3.47392 -2.79115,-2.31645 -0.0483,-4.96407 7.80404,-7.5332 6.94248,-2.27143 10.91829,-4.1098 10.65726,-4.92779 -0.13219,-0.41425 -3.95579,-2.88878 -8.49689,-5.49895 -9.62971,-5.53504 -12.36233,-7.89198 -11.20941,-9.66834 1.22436,-1.88641 3.98519,-1.20541 12.99673,3.20585 4.59495,2.24928 9.10076,4.08961 10.01291,4.08961 1.86885,0 1.8668,-0.0381 -0.43926,-8.13559 -3.19995,-11.23641 -3.20362,-13.55932 -0.0214,-13.55932 3.31874,0 4.63934,2.55683 9.48893,18.3717 1.83774,5.993 3.4523,11.00732 3.58791,11.14293 0.31923,0.31922 22.98106,11.16333 23.32894,11.16333 0.14508,0 0.26378,-6.13867 0.26378,-13.64148 l 0,-13.64148 -9.11617,-8.76201 c -5.01389,-4.81911 -9.78305,-9.84106 -10.59814,-11.15989 -1.37382,-2.2229 -1.4008,-2.47907 -0.36958,-3.51029 1.03122,-1.03121 1.27319,-1.0258 3.31574,0.0742 1.21184,0.65262 5.31084,3.92398 9.10889,7.2697 3.79806,3.34572 7.0301,6.08313 7.18232,6.08313 0.15222,0 0.49268,-4.91331 0.75659,-10.91845 0.53185,-12.1021 1.34525,-15.86122 3.43209,-15.86122 2.30697,0 2.91946,2.74293 3.42971,15.35928 l 0.49092,12.13828 6.88248,-6.69614 c 8.45295,-8.22409 9.36632,-8.78465 11.24786,-6.90311 1.93704,1.93704 1.45428,2.64366 -9.4692,13.8599 l -9.28117,9.52993 0.303,13.38983 c 0.16665,7.36441 0.56459,13.38983 0.88433,13.38983 0.31973,0 5.27889,-2.65987 11.02035,-5.91081 l 10.43901,-5.91082 3.55383,-12.56376 c 4.29994,-15.20143 4.798,-16.29257 7.43682,-16.29257 3.38081,0 3.33011,2.16872 -0.34756,14.88594 -0.91193,3.15337 -1.65806,6.16102 -1.65806,6.68367 0,1.49682 2.48762,0.56672 11.52743,-4.31002 8.8906,-4.79625 11.6235,-5.70185 13.2167,-4.37963 2.5023,2.07677 0.1876,4.50496 -9.4899,9.95525 -9.75,5.49109 -10.8255,6.30345 -9.7189,7.34067 0.4979,0.46672 4.4138,1.9925 8.702,3.39063 8.743,2.85063 10.1695,3.76777 10.1695,6.53856 0,2.67942 -1.0789,2.58401 -16.6567,-1.47312 l -13.0622,-3.40194 -3.61515,1.41612 c -4.74079,1.85706 -17.10276,8.48278 -18.1251,9.71462 -1.05162,1.26713 0.40471,2.2791 12.15476,8.44601 l 9.17023,4.81292 3.37214,-1.02933 c 1.85468,-0.56612 8.06612,-2.39528 13.80312,-4.0648 9.7303,-2.83155 10.5387,-2.96491 12.0339,-1.98522 3.6845,2.41417 0.9602,4.65038 -10.1977,8.37059 -4.347,1.44937 -8.1005,2.83202 -8.341,3.07255 -0.5964,0.59636 0.9215,1.67162 9.841,6.97104 8.8074,5.23283 10.9786,7.03294 10.9786,9.10238 0,1.34269 -0.2583,1.44293 -2.8292,1.0981 -1.5561,-0.20872 -7.0424,-2.44053 -12.1919,-4.95959 -5.1494,-2.51907 -9.5466,-4.39608 -9.77154,-4.17115 -0.22493,0.22494 0.42248,3.56065 1.4387,7.4127 3.44274,13.05004 3.37844,12.59704 2.00534,14.1143 -1.87382,2.0705 -2.86036,1.6678 -4.39094,-1.79233 -1.7488,-3.95345 -7.28886,-20.55475 -7.8403,-23.49417 -0.45682,-2.43507 -0.10373,-2.18791 -13.39891,-9.37931 -4.77052,-2.58039 -8.96543,-4.51128 -9.32204,-4.29089 -0.37477,0.23162 -0.64838,5.70048 -0.64838,12.95978 l 0,12.55905 7.8684,8.36615 c 4.32762,4.60139 8.59881,9.44105 9.49153,10.7548 1.72025,2.53158 2.09221,4.80251 0.90662,5.53525 -1.59273,0.98435 -4.22666,-0.65842 -10.9124,-6.80604 l -7.01516,-6.45054 -0.1824,3.90451 c -0.9063,19.40173 -1.69305,23.33146 -4.36719,21.81348 l 0,0 z" id="path3779" inkscape:connector-curvature="0" transform="scale(0.8,0.8)" />
</svg>
