<?xml version="1.0" encoding="UTF-8" standalone="no"?>
<svg xmlns:dc="http://purl.org/dc/elements/1.1/" xmlns:cc="http://creativecommons.org/ns#" xmlns:rdf="http://www.w3.org/1999/02/22-rdf-syntax-ns#" xmlns:svg="http://www.w3.org/2000/svg" xmlns="http://www.w3.org/2000/svg" xmlns:sodipodi="http://sodipodi.sourceforge.net/DTD/sodipodi-0.dtd" xmlns:inkscape="http://www.inkscape.org/namespaces/inkscape" version="1.0" width="1024.000000pt" height="1024.000000pt" viewBox="0 0 1024.000000 1024.000000" preserveAspectRatio="xMidYMid meet" id="svg2" inkscape:version="0.48.5 r10040" sodipodi:docname="2199499.svg">
  <defs id="defs26" />
  <sodipodi:namedview pagecolor="#ffffff" bordercolor="#666666" borderopacity="1" objecttolerance="10" gridtolerance="10" guidetolerance="10" inkscape:pageopacity="0" inkscape:pageshadow="2" inkscape:window-width="874" inkscape:window-height="549" id="namedview24" showgrid="false" inkscape:zoom="0.184375" inkscape:cx="640" inkscape:cy="640" inkscape:window-x="792" inkscape:window-y="598" inkscape:window-maximized="0" inkscape:current-layer="svg2" />
  <metadata id="metadata4">
Created by potrace 1.11, written by Peter Selinger 2001-2013
<rdf:RDF>
  <cc:Work rdf:about="">
    <dc:format>image/svg+xml</dc:format>
    <dc:type rdf:resource="http://purl.org/dc/dcmitype/StillImage" />
  </cc:Work>
</rdf:RDF>
</metadata>
  <path style="fill:#80d3ff;stroke:none;fill-opacity:1" inkscape:connector-curvature="0" id="path12" d="m 420.3,713.2 c 5.1,7.9 14.9,23 21.7,33.5 6.9,10.6 12.7,19.3 13,19.3 0.4,0 22.2,-33.2 39.2,-59.6 l 4.8,-7.4 -44,0 -44,0 9.3,14.2 z m 47.5,2.6 c -1,2.6 -12.3,22.2 -12.8,22.2 -0.3,0 -2.4,-3.3 -4.7,-7.3 -2.4,-3.9 -5.4,-9.1 -6.8,-11.5 l -2.6,-4.2 13.6,0 c 7.5,0 13.5,0.4 13.3,0.8 z" />
  <path style="fill:#80d3ff;stroke:none;fill-opacity:1" inkscape:connector-curvature="0" id="path14" d="m 799.2,700 c 0.6,1.8 42.3,65.9 42.9,65.9 0.4,0.1 39.4,-59 43.2,-65.5 0.7,-1.2 -6.2,-1.4 -42.8,-1.4 -28.7,0 -43.6,0.3 -43.3,1 z m 55.8,15.6 c 0,0.4 -2.8,5.5 -6.2,11.5 -4.8,8.5 -6.5,10.6 -7.4,9.7 -0.6,-0.7 -3.9,-5.9 -7.2,-11.6 l -6.1,-10.2 13.4,0 c 7.4,0 13.5,0.3 13.5,0.6 z" />
  <path style="fill:#80d3ff;stroke:none;fill-opacity:1" inkscape:connector-curvature="0" id="path16" d="m 253.7,741.9 c 1,1.6 17.8,27.4 37.3,57.4 27.1,41.8 35.8,54.3 36.7,53.4 0.9,-1 21.4,-32.4 66.9,-102.5 l 7.3,-11.2 -75,0 -75.1,0 1.9,2.9 z m 110.1,18 c -0.7,2 -36.4,56.1 -36.9,56.1 -0.4,0 -9,-12.8 -19.2,-28.5 l -18.6,-28.5 37.5,0 c 21.2,0 37.4,0.4 37.2,0.9 z" />
  <path style="fill:#80d3ff;stroke:none;fill-opacity:1" inkscape:connector-curvature="0" id="path18" d="m 646.8,750.9 c 4.2,6.6 21,32.4 37.2,57.5 16.2,25 29.7,45.5 30,45.5 0.4,0 41.4,-62.7 73.3,-112 l 1.9,-2.9 -75.1,0 -75.1,0 7.8,11.9 z m 104.2,8.7 c 0,1.3 -36.4,56.4 -37.1,56.2 -0.8,-0.3 -36.9,-55.4 -36.9,-56.3 0,-0.3 16.7,-0.5 37,-0.5 20.4,0 37,0.3 37,0.6 z" />
  <path style="fill:#80d3ff;stroke:none;fill-opacity:1" inkscape:connector-curvature="0" id="path20" d="m 389,818.2 c 0,1.2 42.2,66.7 43,66.7 0.5,0 43.1,-65.2 43.8,-67.1 0.2,-0.4 -19.2,-0.8 -43.2,-0.8 -32.2,0 -43.6,0.3 -43.6,1.2 z m 51.9,23.5 c -2.4,4.3 -5.2,9.5 -6.4,11.5 -1.1,2.1 -2.2,3.8 -2.5,3.8 -0.3,0 -3.5,-5.2 -7.2,-11.5 l -6.6,-11.5 13.5,0 13.4,0 -4.2,7.7 z" />
  <path style="fill:#80d3ff;stroke:none;fill-opacity:1" inkscape:connector-curvature="0" id="path22" d="m 776,818 c 0,1 40.3,63.6 42.4,65.7 0.8,0.9 6.1,-6.5 22.6,-31.8 11.8,-18.2 21.7,-33.4 21.8,-34 0.2,-0.5 -16.6,-0.9 -43.2,-0.9 -27.2,0 -43.6,0.4 -43.6,1 z m 56,16.5 c 0,1.3 -12.5,22.3 -13.1,21.9 -0.9,-0.5 -12.9,-20.8 -12.9,-21.7 0,-0.4 5.9,-0.7 13,-0.7 7.2,0 13,0.2 13,0.5 z" />
  <path style="fill:#dcdcdc;fill-opacity:1;stroke:none" inkscape:connector-curvature="0" id="path8-7" d="m 378.20941,174.07016 c -34.3,3.4 -55.8,9.1 -82.5,22 -65.9,31.8 -111.3,95.2 -121.1,169.4 -1.8,13.4 -1.5,43 0.5,56.5 6,39.6 22.1,76.6 46.3,106.5 8.1,10 27.8,29.1 38.1,36.9 22.4,16.9 48.6,29.7 76.2,37 20.8,5.5 29.2,6.5 55.5,6.5 20.6,0.1 25.8,-0.2 36.5,-2.2 11.6,-2 32.1,-7.4 34.8,-9.1 0.8,-0.4 0.3,-3.1 -1.8,-9.2 -15,-44.6 -7.6,-94.6 19.6,-132.5 7.9,-11 14.8,-18.7 23.4,-26.1 18.3,-15.7 41.8,-27.8 63.9,-32.8 6.4,-1.5 7,-1.9 16.1,-11.1 5.2,-5.2 12.7,-12.1 16.7,-15.2 8.4,-6.6 8.3,-6 5.3,-21 -6.5,-32.5 -20.3,-63.3 -40.1,-89.4 -8.2,-10.8 -27.2,-30.2 -37.9,-38.8 -30,-23.9 -66.9,-39.9 -105.1,-45.5 -10.7,-1.5 -36.9,-2.7 -44.4,-1.9 z" />
  <path style="fill:#dcdcdc;fill-opacity:1;stroke:none" inkscape:connector-curvature="0" id="path10-0" d="m 700.50941,374.47016 c -23.1,2.2 -45.3,10.1 -65.1,23.3 -10.9,7.3 -28.1,24.1 -35,34.3 l -4.9,7.1 -8.9,0.7 c -44.8,3.4 -82.8,35.2 -94.6,79.1 -2.3,8.8 -2.6,12 -2.7,26 -0.1,13.8 0.3,17.3 2.3,25 5.2,20 14,35.5 28,49.6 15.8,15.8 33.2,25.2 55.1,29.6 6.3,1.3 18.2,1.5 76,1.4 67.5,-0.2 80.7,-0.7 92.5,-3.7 28,-7 49,-19 68.2,-38.7 11.7,-12.1 18.6,-22 25.9,-37.1 21.9,-46 16.4,-100.9 -14.3,-141.7 -28.7,-38.2 -75.6,-59.2 -122.5,-54.9 z m 32.2,58.6 c 23.9,6.1 44.8,24 54.9,46.9 5.6,12.6 7.7,33.3 5,48.1 -5.6,30.6 -32.3,57.6 -62.9,63.7 -10.2,2.1 -134,3.5 -144,1.7 -15.5,-2.8 -28.8,-13.1 -35.7,-27.7 -3.5,-7.2 -3.8,-8.6 -4.1,-18.3 -0.3,-8.8 0,-11.6 1.8,-17 5.5,-16.4 19.3,-29.1 35.9,-33 6.9,-1.6 21.1,-0.8 27.1,1.6 6.6,2.6 14.4,7.8 18.3,12.1 1.9,2.1 5.6,6.1 8.1,9 8.2,8.9 17.6,11.8 28.7,8.7 5.3,-1.5 7.3,-2.7 12,-7.3 4.6,-4.7 5.8,-6.7 7.3,-12 1.9,-6.8 1.6,-12.7 -1,-18.9 -3,-7.3 -15.7,-21.6 -26.1,-29.4 l -5.6,-4.3 5.9,-5.3 c 10.8,-9.8 24.9,-16.9 39.9,-19.8 8.7,-1.7 25.5,-1.1 34.5,1.2 z" />
  <path style="fill:#7b7b7b;fill-opacity:1;stroke:none" d="M 342.28439,577.10434 C 317.16846,571.5926 282.93006,549.80276 262.60556,526.39541 210.78277,466.7123 199.48685,383.59682 232.98611,308.45564 c 22.68727,-50.88911 72.70833,-91.26612 121.02981,-97.69532 l 17.84854,-2.37467 -17.77019,22.2295 c -20.49625,25.63976 -40.66223,69.17463 -47.59175,102.74229 -6.81264,33.00166 -6.31468,95.10104 1.00891,125.81174 10.61848,44.52756 26.20772,76.85178 51.48943,106.76266 12.07324,14.28389 12.32377,15.014 5.02562,14.64568 -4.22462,-0.2131 -14.00854,-1.77612 -21.74209,-3.47318 z" id="path3757" inkscape:connector-curvature="0" />
</svg>
