<?xml version="1.0" encoding="UTF-8" standalone="no"?>
<svg xmlns:dc="http://purl.org/dc/elements/1.1/" xmlns:cc="http://creativecommons.org/ns#" xmlns:rdf="http://www.w3.org/1999/02/22-rdf-syntax-ns#" xmlns:svg="http://www.w3.org/2000/svg" xmlns="http://www.w3.org/2000/svg" xmlns:sodipodi="http://sodipodi.sourceforge.net/DTD/sodipodi-0.dtd" xmlns:inkscape="http://www.inkscape.org/namespaces/inkscape" version="1.0" width="1024.000000pt" height="1024.000000pt" viewBox="0 0 1024.000000 1024.000000" preserveAspectRatio="xMidYMid meet" id="svg2" inkscape:version="0.48.5 r10040" sodipodi:docname="2299992.svg">
  <defs id="defs12" />
  <sodipodi:namedview pagecolor="#ffffff" bordercolor="#666666" borderopacity="1" objecttolerance="10" gridtolerance="10" guidetolerance="10" inkscape:pageopacity="0" inkscape:pageshadow="2" inkscape:window-width="640" inkscape:window-height="480" id="namedview10" showgrid="false" inkscape:zoom="0.184375" inkscape:cx="640" inkscape:cy="640" inkscape:window-x="615" inkscape:window-y="670" inkscape:window-maximized="0" inkscape:current-layer="svg2" />
  <metadata id="metadata4">
Created by potrace 1.11, written by Peter Selinger 2001-2013
<rdf:RDF>
  <cc:Work rdf:about="">
    <dc:format>image/svg+xml</dc:format>
    <dc:type rdf:resource="http://purl.org/dc/dcmitype/StillImage" />
  </cc:Work>
</rdf:RDF>
</metadata>
  <path style="fill:#dcdcdc;fill-opacity:1;stroke:none" inkscape:connector-curvature="0" id="path10-8" d="m 552.31521,411.72954 c -50.6,4.4 -99.1,33.9 -125.3,76.1 l -4.2,6.8 -9.1,0 c -11.4,0 -25.3,2.3 -36.9,6.2 -17.9,6 -32.1,14.6 -45.9,27.8 -25.60001,24.5 -38.70001,54.8 -38.70001,89.5 0,28.2 8.1,52.4 24.8,74.6 18.40001,24.4 42.80001,39.9 74.00001,47.1 l 9.8,2.2 161.5,0.4 c 168.2,0.3 174.9,0.2 190.6,-3.9 28.8,-7.5 54.6,-28.9 67.9,-56.3 6.8,-14 9.6,-25.4 10.2,-42.1 0.6,-16.5 -1.5,-29.1 -7.2,-43.3 -15.1,-37.3 -49.7,-62.9 -89.4,-66 l -8.3,-0.7 -3.3,-9 c -8.7,-24.2 -23.1,-46.3 -41.5,-63.9 -28,-26.7 -62.6,-42.2 -102,-45.6 -12.7,-1.1 -13.4,-1.1 -27,0.1 z m 42.5,55.3 c 12.5,3.3 29.7,11.6 40.2,19.5 14.6,11 26.6,25.8 34.6,42.9 5.8,12.5 5.7,12.8 -3.8,19.3 -9.1,6.2 -12.9,11.4 -14.7,19.9 -2.8,13.6 7.1,27.4 21.7,30.1 6.5,1.2 13.1,-0.6 21.4,-6 9.9,-6.3 17.6,-9 27.2,-9.8 26.8,-2.1 50.8,16 56.4,42.4 1.8,8.6 1.8,13 0,21.8 -4.2,20 -21.3,37.4 -40.7,41.4 -3.7,0.8 -54,1.1 -170.3,0.9 l -165,-0.3 -8,-2.8 c -19.5,-6.9 -33,-18.6 -42,-36.5 -9.9,-19.9 -9.9,-42.3 0.1,-63.1 7.8,-16.1 23.8,-30.2 40.9,-36.1 18.7,-6.4 41.9,-4 59.3,6.2 5.9,3.4 17.8,14.7 24.6,23.2 12.2,15.2 36.6,11.7 44.4,-6.3 2.4,-5.6 2,-15.7 -0.8,-21.1 -5.7,-11.1 -24,-29.9 -36.8,-38 -3.9,-2.5 -7.2,-5 -7.2,-5.6 0,-2.2 15.8,-18 23.7,-23.6 14.6,-10.5 32.9,-18.1 49.8,-20.8 3.3,-0.5 12.5,-0.7 20.5,-0.5 11.5,0.3 16.6,0.9 24.5,2.9 z" />
  <path style="fill:#dcdcdc;fill-opacity:1;stroke:none" inkscape:connector-curvature="0" id="path8-5" d="m 409.87181,246.90538 c -1.9,0.2 -7.8,0.9 -13,1.5 -5.2,0.6 -15.4,2.6 -22.6,4.4 -110.00011,28.1 -172.80011,142.70001 -137.40011,250.80001 4.9,14.7 13.7,33 22,45.6 l 6.3,9.4 4.9,-9.9 c 19.4,-38.8 52.2,-68.4 92.30011,-83.4 10.6,-4 26.4,-8.2 35.6,-9.5 4,-0.5 5,-1.2 8.5,-5.7 5.5,-7.3 21.5,-23.1 30.9,-30.7 30,-24.2 70.2,-41.00001 107.7,-45.00001 13,-1.5 40.1,-1.3 51.8,0.3 5.2,0.7 9.7,1.2 9.8,1 0.6,-0.4 -7.8,-19.5 -11.6,-26.4 -9.9,-17.9 -22.5,-34.3 -37.5,-48.6 -35.1,-33.5 -80.4,-52.3 -129.4,-53.8 -8.2,-0.2 -16.4,-0.2 -18.3,0 z" />
  <path inkscape:connector-curvature="0" style="fill:#7b7b7b;fill-opacity:1;stroke:none" d="m 414.39381,266.40489 -20.85551,5.07607 c -48.33929,5.76119 -99.8947,47.84816 -122.5904,93.44973 -27.8847,56.02784 -24.7353,116.99001 6.973,166.69893 16.3907,-23.01044 38.1028,-41.9322 63.504,-55.41922 -3.07749,-28.82515 -2.1182,-66.46304 3.07151,-88.98224 6.932,-30.07988 27.08949,-69.09545 47.59329,-92.07118 z" id="path8-0-7" sodipodi:nodetypes="ccsccscc" />
  <path inkscape:connector-curvature="0" style="fill:#ba381a;fill-opacity:1;stroke:none" id="path8-1" d="m 566.01636,222.99434 -61.89031,56.99844 0,137.06936 -0.071,137.14124 9.8798,0 9.87991,0 0.1412,-126.86283 0.2116,-126.86284 31.4038,31.05084 c 17.2898,17.03484 40.64849,40.17923 51.9398,51.32016 l 20.536,20.41307 30.27469,-11.5722 30.27471,-11.50031 25.40529,-3.95324 c 19.40691,-2.94696 33.4504,-5.67827 59.27911,-11.42843 18.6306,-4.09698 45.16509,-9.77527 58.9264,-12.50661 13.7612,-2.80319 36.90829,-7.54708 51.3752,-10.56591 l 26.25209,-5.53452 -0.14109,-54.33899 -0.21171,-54.2671 -27.1696,-5.60641 c -14.96089,-3.01883 -28.86329,-5.53452 -29.4984,-5.60639 -1.19969,0 -0.14109,2.08442 -0.14109,33.42277 l 0.071,33.4228 -25.47591,0 -25.40529,0 0,-38.31042 0,-38.31043 -30.48651,-6.10953 -30.55689,-6.10956 -0.2118,44.41997 -0.14111,44.41997 -25.40529,0 -25.4054,0 0,-48.3732 0,-48.3732 -30.4864,-10.20651 c -16.79571,-5.60641 -30.69811,-10.20653 -30.9098,-10.20653 -0.2118,0 -28.2282,25.66007 -62.243,56.92654 z m 61.3962,112.19993 -0.21171,50.52952 -52.92789,-51.53579 c -29.07491,-28.3914 -52.92771,-51.89516 -52.92771,-52.25456 0,-0.35937 23.8528,-22.71309 52.92771,-49.66696 l 52.92789,-49.02009 0.21171,50.67325 c 0.071,27.96015 0.071,73.45826 0,101.27463 z" sodipodi:nodetypes="ccccccccccccccccccccccsccccccccccccccsccccscccc" />
</svg>
