<?xml version="1.0" encoding="UTF-8" standalone="no"?>
<svg xmlns:dc="http://purl.org/dc/elements/1.1/" xmlns:cc="http://creativecommons.org/ns#" xmlns:rdf="http://www.w3.org/1999/02/22-rdf-syntax-ns#" xmlns:svg="http://www.w3.org/2000/svg" xmlns="http://www.w3.org/2000/svg" xmlns:sodipodi="http://sodipodi.sourceforge.net/DTD/sodipodi-0.dtd" xmlns:inkscape="http://www.inkscape.org/namespaces/inkscape" version="1.0" width="1024.000000pt" height="1024.000000pt" viewBox="0 0 1024.000000 1024.000000" preserveAspectRatio="xMidYMid meet" id="svg2" inkscape:version="0.48.5 r10040" sodipodi:docname="2159999.svg">
  <defs id="defs28" />
  <sodipodi:namedview pagecolor="#ffffff" bordercolor="#666666" borderopacity="1" objecttolerance="10" gridtolerance="10" guidetolerance="10" inkscape:pageopacity="0" inkscape:pageshadow="2" inkscape:window-width="836" inkscape:window-height="480" id="namedview26" showgrid="false" inkscape:zoom="0.184375" inkscape:cx="640" inkscape:cy="640" inkscape:window-x="766" inkscape:window-y="574" inkscape:window-maximized="0" inkscape:current-layer="svg2" />
  <metadata id="metadata4">
Created by potrace 1.11, written by Peter Selinger 2001-2013
<rdf:RDF>
  <cc:Work rdf:about="">
    <dc:format>image/svg+xml</dc:format>
    <dc:type rdf:resource="http://purl.org/dc/dcmitype/StillImage" />
  </cc:Work>
</rdf:RDF>
</metadata>
  <path style="fill:#80d3ff;stroke:none;fill-opacity:1" inkscape:connector-curvature="0" id="path12" d="m 385,707.1 c -26.9,14.2 -38.9,22 -47.4,30.9 -8.1,8.5 -10.1,13.3 -10.1,24.5 0,7.8 0.4,9.7 2.8,14.7 8.2,16.8 28.3,24.2 45,16.5 10.6,-4.8 16.4,-12.4 20.3,-26.2 1.4,-4.8 1.8,-12 2.1,-36.3 0.3,-16.6 0.1,-30.2 -0.4,-30.2 -0.4,0 -6,2.8 -12.3,6.1 z m -5,33.3 c 0,11.1 -1.5,23.2 -3.5,28 -0.8,1.8 -3,4.7 -4.9,6.4 -10.3,9 -26.6,1.5 -26.6,-12.3 0,-8.3 5.7,-14.5 23.2,-25.3 5.6,-3.4 10.6,-6.2 11,-6.2 0.4,0 0.8,4.2 0.8,9.4 z" />
  <path style="fill:#80d3ff;stroke:none;fill-opacity:1" inkscape:connector-curvature="0" id="path14" d="m 536.5,711.6 c -37.6,19.9 -52.6,29.6 -65.7,42.4 -6.9,6.8 -9.4,10.1 -12.2,16 -15.2,32.2 5.1,68 40.9,72.5 12.4,1.5 29.2,-4.3 39,-13.6 14.2,-13.4 19.1,-30.2 20.2,-69.9 0.6,-21 -0.4,-58 -1.6,-58 -0.3,0 -9.6,4.8 -20.6,10.6 z m -5.8,51.6 c -1.2,31.3 -5.1,43.4 -15.9,48.9 -12.7,6.5 -28.4,-0.1 -32.4,-13.7 -3.8,-13.1 2.2,-22.8 22.6,-36.5 8.6,-5.8 24.2,-14.9 25.4,-14.9 0.6,0 0.7,6.1 0.3,16.2 z" />
  <path style="fill:#80d3ff;stroke:none;fill-opacity:1" inkscape:connector-curvature="0" id="path16" d="m 666.6,710.1 c -29.9,16 -43.9,26.7 -49.3,37.7 -2.4,5 -2.8,6.8 -2.7,14.7 0,10.4 1.9,15.7 8.1,22.6 13.1,14.5 34.5,15.6 49,2.6 8.1,-7.4 11.6,-17.5 13.3,-38.7 1,-12.2 0.3,-48 -0.9,-48 -0.3,0 -8.2,4.1 -17.5,9.1 z m 0.4,31.6 c 0,13 -1.4,22.3 -4.1,28 -5.7,11.8 -22.8,12 -28.6,0.3 -4.4,-8.6 -2,-16.2 7.7,-23.6 6.2,-4.9 22.8,-15.4 24.2,-15.4 0.5,0 0.8,4.8 0.8,10.7 z" />
  <path style="fill:#80d3ff;stroke:none;fill-opacity:1" inkscape:connector-curvature="0" id="path18" d="m 833,706.7 c -5.8,3 -16.3,8.7 -23.5,12.6 -52.1,28.1 -68.7,45.6 -68.7,72.7 0,34.7 33.5,58.8 66.7,47.8 8,-2.6 14.1,-6.6 20.9,-13.8 9.4,-9.9 14.1,-23.2 16.5,-46.9 1.8,-17.2 1.1,-78.2 -0.8,-78.1 -0.3,0.1 -5.3,2.6 -11.1,5.7 z m -15,51.5 c 0,22.5 -3.2,40.3 -8.4,47.1 -8.2,10.7 -22.6,12.5 -32.5,4 -5.7,-4.8 -8.4,-10.5 -8.4,-17.4 0,-10.2 4.6,-16.5 20.3,-27.8 7,-5 27,-17.1 28.2,-17.1 0.5,0 0.8,5.1 0.8,11.2 z" />
  <path style="fill:#80d3ff;stroke:none;fill-opacity:1" inkscape:connector-curvature="0" id="path20" d="m 415.5,808.1 c -52.9,28 -71.8,43.2 -78.4,63.1 -6.1,18.4 -1.6,38 12,51.6 19.7,19.9 51.5,20.2 71.4,0.7 13,-12.7 18,-30.3 19.2,-68 0.7,-24.1 -0.5,-58.5 -2.1,-58.5 -0.6,0 -10.5,5 -22.1,11.1 z m -3.8,50.1 c -0.7,17 -2.7,31.4 -5.3,37.6 -3.5,8.4 -12,14.1 -21.2,14.2 -8.8,0 -16.3,-4.5 -20.4,-12.4 -2.9,-5.3 -3,-14.5 -0.3,-20 2.5,-5.2 10,-12.3 20.3,-19.4 7.9,-5.4 26,-16.2 27.1,-16.2 0.2,0 0.1,7.3 -0.2,16.2 z" />
  <path style="fill:#80d3ff;stroke:none;fill-opacity:1" inkscape:connector-curvature="0" id="path22" d="m 705.5,807.1 c -52.1,27.6 -72.7,43.5 -79.4,61.4 -7.7,20.6 -2.9,41.1 13.1,56.1 19.4,18.3 50.1,17.8 69.4,-1.1 9.2,-9 13.8,-19.2 17,-38 3,-17.6 3.1,-88.6 0,-88.4 -0.6,0 -9.6,4.5 -20.1,10 z m -5.8,52.1 c -1.3,32.3 -5.2,43.4 -17.2,48.9 -4.7,2.2 -13.3,2.5 -17.8,0.6 -4.8,-2.1 -9.5,-6.4 -11.9,-11.1 -2.9,-5.5 -2.9,-14.6 -0.1,-20.1 2.3,-4.4 9.9,-11.9 17.9,-17.7 4.9,-3.6 28.3,-17.8 29.2,-17.8 0.3,0 0.2,7.8 -0.1,17.2 z" />
  <path style="fill:#80d3ff;stroke:none;fill-opacity:1" inkscape:connector-curvature="0" id="path24" d="m 548.5,852.1 c -29.2,15.6 -44.5,27.1 -49.4,37.3 -8.4,17.2 -1.3,37.9 15.8,46.3 4.9,2.4 6.8,2.8 14.6,2.8 7.6,0 9.9,-0.4 14.5,-2.6 7.8,-3.7 12.5,-8.1 16,-15.2 5,-10.2 6.1,-17.7 6.6,-43.2 0.3,-12.7 0.2,-25.6 -0.3,-28.7 l -0.8,-5.7 -17,9 z m 0.1,34.1 c -1.3,25.3 -5.3,33.4 -17.4,34.6 -9.8,0.9 -17.2,-5.9 -17.2,-15.9 0,-6.5 2,-10.1 8.4,-15.5 4.9,-4.1 24.3,-16.4 26,-16.4 0.5,0 0.6,5.1 0.2,13.2 z" />
  <path style="fill:#dcdcdc;fill-opacity:1;stroke:none" inkscape:connector-curvature="0" id="path8-0" d="m 373.87042,174.07016 c -34.3,3.4 -55.8,9.1 -82.5,22 -65.89999,31.8 -111.29999,95.2 -121.09999,169.4 -1.8,13.4 -1.5,43 0.5,56.5 6,39.6 22.1,76.6 46.3,106.5 8.1,10 27.8,29.1 38.09999,36.9 22.4,16.9 48.6,29.7 76.2,37 20.8,5.5 29.2,6.5 55.5,6.5 20.6,0.1 25.8,-0.2 36.5,-2.2 11.6,-2 32.1,-7.4 34.8,-9.1 0.8,-0.4 0.3,-3.1 -1.8,-9.2 -15,-44.6 -7.6,-94.6 19.6,-132.5 7.9,-11 14.8,-18.7 23.4,-26.1 18.3,-15.7 41.8,-27.8 63.9,-32.8 6.4,-1.5 7,-1.9 16.1,-11.1 5.2,-5.2 12.7,-12.1 16.7,-15.2 8.4,-6.6 8.3,-6 5.3,-21 -6.5,-32.5 -20.3,-63.3 -40.1,-89.4 -8.2,-10.8 -27.2,-30.2 -37.9,-38.8 -30,-23.9 -66.9,-39.9 -105.1,-45.5 -10.7,-1.5 -36.9,-2.7 -44.4,-1.9 z" />
  <path style="fill:#dcdcdc;fill-opacity:1;stroke:none" inkscape:connector-curvature="0" id="path10-5" d="m 696.17042,374.47016 c -23.1,2.2 -45.3,10.1 -65.1,23.3 -10.9,7.3 -28.1,24.1 -35,34.3 l -4.9,7.1 -8.9,0.7 c -44.8,3.4 -82.8,35.2 -94.6,79.1 -2.3,8.8 -2.6,12 -2.7,26 -0.1,13.8 0.3,17.3 2.3,25 5.2,20 14,35.5 28,49.6 15.8,15.8 33.2,25.2 55.1,29.6 6.3,1.3 18.2,1.5 76,1.4 67.5,-0.2 80.7,-0.7 92.5,-3.7 28,-7 49,-19 68.2,-38.7 11.7,-12.1 18.6,-22 25.9,-37.1 21.9,-46 16.4,-100.9 -14.3,-141.7 -28.7,-38.2 -75.6,-59.2 -122.5,-54.9 z m 32.2,58.6 c 23.9,6.1 44.8,24 54.9,46.9 5.6,12.6 7.7,33.3 5,48.1 -5.6,30.6 -32.3,57.6 -62.9,63.7 -10.2,2.1 -134,3.5 -144,1.7 -15.5,-2.8 -28.8,-13.1 -35.7,-27.7 -3.5,-7.2 -3.8,-8.6 -4.1,-18.3 -0.3,-8.8 0,-11.6 1.8,-17 5.5,-16.4 19.3,-29.1 35.9,-33 6.9,-1.6 21.1,-0.8 27.1,1.6 6.6,2.6 14.4,7.8 18.3,12.1 1.9,2.1 5.6,6.1 8.1,9 8.2,8.9 17.6,11.8 28.7,8.7 5.3,-1.5 7.3,-2.7 12,-7.3 4.6,-4.7 5.8,-6.7 7.3,-12 1.9,-6.8 1.6,-12.7 -1,-18.9 -3,-7.3 -15.7,-21.6 -26.1,-29.4 l -5.6,-4.3 5.9,-5.3 c 10.8,-9.8 24.9,-16.9 39.9,-19.8 8.7,-1.7 25.5,-1.1 34.5,1.2 z" />
  <path style="fill:#7b7b7b;fill-opacity:1;stroke:none" d="m 337.9454,577.10434 c -25.11593,-5.51174 -59.35433,-27.30158 -79.67883,-50.70893 -51.82278,-59.68311 -63.1187,-142.79859 -29.61944,-217.93977 22.68727,-50.88911 72.70832,-91.26612 121.0298,-97.69532 l 17.84854,-2.37467 -17.77019,22.2295 c -20.49625,25.63976 -40.66223,69.17463 -47.59175,102.74229 -6.81264,33.00166 -6.31468,95.10104 1.00891,125.81174 10.61848,44.52756 26.20772,76.85178 51.48943,106.76266 12.07324,14.28389 12.32377,15.014 5.02562,14.64568 -4.22462,-0.2131 -14.00854,-1.77612 -21.74209,-3.47318 z" id="path3757" inkscape:connector-curvature="0" />
</svg>
