<?xml version="1.0" encoding="UTF-8" standalone="no"?>
<svg xmlns:dc="http://purl.org/dc/elements/1.1/" xmlns:cc="http://creativecommons.org/ns#" xmlns:rdf="http://www.w3.org/1999/02/22-rdf-syntax-ns#" xmlns:svg="http://www.w3.org/2000/svg" xmlns="http://www.w3.org/2000/svg" xmlns:sodipodi="http://sodipodi.sourceforge.net/DTD/sodipodi-0.dtd" xmlns:inkscape="http://www.inkscape.org/namespaces/inkscape" version="1.0" width="1024.000000pt" height="1024.000000pt" viewBox="0 0 1024.000000 1024.000000" preserveAspectRatio="xMidYMid meet" id="svg2" inkscape:version="0.48.5 r10040" sodipodi:docname="2122999.svg">
  <defs id="defs22" />
  <sodipodi:namedview pagecolor="#ffffff" bordercolor="#666666" borderopacity="1" objecttolerance="10" gridtolerance="10" guidetolerance="10" inkscape:pageopacity="0" inkscape:pageshadow="2" inkscape:window-width="907" inkscape:window-height="617" id="namedview20" showgrid="false" inkscape:zoom="0.184375" inkscape:cx="640" inkscape:cy="640" inkscape:window-x="1277" inkscape:window-y="157" inkscape:window-maximized="0" inkscape:current-layer="svg2" />
  <metadata id="metadata4">
Created by potrace 1.11, written by Peter Selinger 2001-2013
<rdf:RDF>
  <cc:Work rdf:about="">
    <dc:format>image/svg+xml</dc:format>
    <dc:type rdf:resource="http://purl.org/dc/dcmitype/StillImage" />
  </cc:Work>
</rdf:RDF>
</metadata>
  <path style="fill:#dcdcdc;stroke:none;fill-opacity:1" inkscape:connector-curvature="0" id="path12" d="m 724,681.7 c -6.2,3.2 -7,6.3 -7,27.2 0,14.3 -0.3,18.2 -1.2,17.8 -0.7,-0.3 -8.5,-4 -17.3,-8.1 -8.8,-4.2 -16.8,-7.6 -17.7,-7.6 -3.7,0 -8.8,3 -10.8,6.2 -2.5,4 -2.2,10.8 0.6,14 1.1,1.1 9,5.6 17.7,9.8 l 15.7,7.8 -14.5,9.1 c -7.9,5.1 -15.3,10.3 -16.5,11.8 -3,3.9 -2.8,11.2 0.6,15.2 2.8,3.4 8.4,5.4 12.3,4.4 1.3,-0.3 8.5,-4.4 15.9,-9 7.3,-4.6 14,-8.7 14.8,-9 1.2,-0.4 1.4,2.2 1.4,16.7 0,20.4 0.8,23.1 7.6,26.2 4.6,2 8,1.7 12.2,-1 4.7,-3 5.2,-5.8 5.2,-26.1 l 0,-19 17.4,8.6 c 15.4,7.6 17.8,8.5 21,7.9 5.7,-1.1 9.7,-5.3 10.3,-10.7 0.9,-8.3 -0.6,-9.8 -19.4,-19.3 l -16.7,-8.3 3.9,-2.5 c 2.2,-1.4 8.9,-5.5 14.9,-9.3 11.2,-7.1 14.6,-10.7 14.6,-15.8 0,-4.4 -2.9,-9.6 -6.3,-11.4 -6.4,-3.3 -9.3,-2.3 -25.6,8 l -15.1,9.6 0,-17.7 c 0,-12.1 -0.4,-18.5 -1.3,-20.1 -3,-5.9 -10.8,-8.4 -16.7,-5.4 z" />
  <path style="fill:#80d3ff;stroke:none;fill-opacity:1" inkscape:connector-curvature="0" id="path14" d="m 467.1,691.1 c -45.6,23.6 -69.9,41.5 -77.4,57 -9.9,20.4 -6.3,43.3 9.3,58.9 24.5,24.5 65.8,17.7 81,-13.4 7.8,-16 10.6,-41.1 9.5,-85.4 C 489,689 488.4,681 487.6,681 c -0.6,0 -9.8,4.6 -20.5,10.1 z m -5.5,50.1 c -1.7,35.5 -5.7,46.2 -19,51.3 -13.6,5.2 -28.8,-4.2 -30.3,-18.8 -1.1,-10.4 3.4,-17.8 16.8,-27.8 7.4,-5.5 30.8,-19.9 32.3,-19.9 0.5,0 0.6,6.1 0.2,15.2 z" />
  <path style="fill:#80d3ff;stroke:none;fill-opacity:1" inkscape:connector-curvature="0" id="path16" d="m 706.5,839.8 c -32.7,17.1 -48.4,29 -53.8,40.9 -3.3,7.5 -3.1,19.9 0.6,27.8 9.4,20.1 35.2,26.2 52.7,12.4 9.4,-7.5 13.3,-17.8 15.2,-40.4 1.1,-13.7 0.3,-47.5 -1.1,-47.5 -0.3,0 -6.4,3.1 -13.6,6.8 z m -3.1,34.4 c -0.7,14.6 -2.7,25.4 -5.2,28.8 -5.3,7.1 -15.5,9.3 -22.2,4.7 -11.2,-7.6 -10.3,-19.8 2.1,-29.7 5.5,-4.3 23.6,-15.8 25.2,-15.9 0.4,-0.1 0.5,5.4 0.1,12.1 z" />
  <path style="fill:#dcdcdc;stroke:none;fill-opacity:1" inkscape:connector-curvature="0" id="path18" d="m 367.3,850.4 c -2.7,2.4 -2.8,2.7 -3.1,14.4 l -0.4,12.1 -10.5,-5.5 c -8,-4.2 -11.2,-5.4 -13.2,-4.9 -3.4,0.8 -6.1,4.1 -6.1,7.5 0,4.2 2.6,6.6 12.8,11.9 l 9.3,4.8 -9.5,5.7 c -12.1,7.2 -14,10.3 -9.5,16 3.2,4.1 7,3.5 17.4,-2.8 l 9,-5.4 0.5,11.6 c 0.3,6.5 0.8,12.2 1.2,12.8 0.4,0.6 2.1,1.7 3.7,2.3 2.4,1 3.4,1 6,-0.3 3.6,-1.9 3.8,-2.7 4.6,-16.5 0.3,-5.8 0.7,-10.6 0.9,-10.8 0.1,-0.2 4.5,1.9 9.7,4.7 10.6,5.6 13.9,6.1 17.4,2.5 5.5,-5.4 2.7,-9.9 -10.2,-16.3 l -9.5,-4.8 9.6,-5.7 c 12.1,-7.3 14,-10.4 9.5,-16.1 -3.2,-4.1 -7,-3.5 -17.4,2.8 l -9,5.4 -0.5,-12 c -0.5,-11.1 -0.7,-12.1 -2.9,-13.9 -3.1,-2.6 -6.4,-2.4 -9.8,0.5 z" />
  <path style="fill:#dcdcdc;fill-opacity:1;stroke:none" inkscape:connector-curvature="0" id="path8-3" d="m 378.2094,169.73118 c -34.3,3.4 -55.8,9.1 -82.5,22 -65.9,31.8 -111.3,95.19999 -121.1,169.4 -1.8,13.4 -1.5,43 0.5,56.5 6,39.6 22.1,76.6 46.3,106.5 8.1,10 27.8,29.1 38.1,36.9 22.4,16.9 48.6,29.7 76.2,37 20.8,5.5 29.2,6.5 55.5,6.5 20.6,0.1 25.8,-0.2 36.5,-2.2 11.6,-2 32.1,-7.4 34.8,-9.1 0.8,-0.4 0.3,-3.1 -1.8,-9.2 -15,-44.6 -7.6,-94.6 19.6,-132.5 7.9,-11 14.8,-18.7 23.4,-26.1 18.3,-15.7 41.8,-27.8 63.9,-32.8 6.4,-1.5 7,-1.9 16.1,-11.1 5.2,-5.2 12.7,-12.1 16.7,-15.2 8.4,-6.6 8.3,-6 5.3,-21.00001 -6.5,-32.5 -20.3,-63.3 -40.1,-89.39999 -8.2,-10.8 -27.2,-30.2 -37.9,-38.8 -30,-23.9 -66.9,-39.9 -105.1,-45.5 -10.7,-1.5 -36.9,-2.7 -44.4,-1.9 z" />
  <path style="fill:#dcdcdc;fill-opacity:1;stroke:none" inkscape:connector-curvature="0" id="path10-3" d="m 700.5094,370.13118 c -23.1,2.2 -45.3,10.1 -65.1,23.3 -10.9,7.3 -28.1,24.1 -35,34.3 l -4.9,7.1 -8.9,0.7 c -44.8,3.4 -82.8,35.2 -94.6,79.1 -2.3,8.8 -2.6,12 -2.7,26 -0.1,13.8 0.3,17.3 2.3,25 5.2,20 14,35.5 28,49.6 15.8,15.8 33.2,25.2 55.1,29.6 6.3,1.3 18.2,1.5 76,1.4 67.5,-0.2 80.7,-0.7 92.5,-3.7 28.00001,-7 49.00001,-19 68.20001,-38.7 11.7,-12.1 18.6,-22 25.9,-37.1 21.9,-46 16.4,-100.9 -14.3,-141.7 -28.7,-38.2 -75.60001,-59.2 -122.50001,-54.9 z m 32.2,58.6 c 23.9,6.1 44.80001,24 54.90001,46.9 5.6,12.6 7.7,33.3 5,48.1 -5.6,30.6 -32.3,57.6 -62.90001,63.7 -10.2,2.1 -134,3.5 -144,1.7 -15.5,-2.8 -28.8,-13.1 -35.7,-27.7 -3.5,-7.2 -3.8,-8.6 -4.1,-18.3 -0.3,-8.8 0,-11.6 1.8,-17 5.5,-16.4 19.3,-29.1 35.9,-33 6.9,-1.6 21.1,-0.8 27.1,1.6 6.6,2.6 14.4,7.8 18.3,12.1 1.9,2.1 5.6,6.1 8.1,9 8.2,8.9 17.6,11.8 28.7,8.7 5.3,-1.5 7.3,-2.7 12,-7.3 4.6,-4.7 5.8,-6.7 7.3,-12 1.9,-6.8 1.6,-12.7 -1,-18.9 -3,-7.3 -15.7,-21.6 -26.1,-29.4 l -5.6,-4.3 5.9,-5.3 c 10.8,-9.8 24.9,-16.9 39.9,-19.8 8.7,-1.7 25.5,-1.1 34.5,1.2 z" />
  <path style="fill:#7b7b7b;fill-opacity:1;stroke:none" d="m 342.28438,572.76536 c -25.11593,-5.51174 -59.35433,-27.30158 -79.67883,-50.70893 -51.82279,-59.68311 -63.11871,-142.79859 -29.61945,-217.93978 22.68728,-50.8891 72.70833,-91.26611 121.02981,-97.69531 l 17.84854,-2.37467 -17.77019,22.2295 c -20.49625,25.63976 -40.66223,69.17462 -47.59175,102.74228 -6.81264,33.00167 -6.31468,95.10105 1.00891,125.81175 10.61848,44.52756 26.20772,76.85178 51.48943,106.76266 12.07324,14.28389 12.32377,15.014 5.02562,14.64568 -4.22462,-0.2131 -14.00854,-1.77612 -21.74209,-3.47318 z" id="path3757" inkscape:connector-curvature="0" />
</svg>
