<?xml version="1.0" encoding="UTF-8" standalone="no"?>
<svg xmlns:dc="http://purl.org/dc/elements/1.1/" xmlns:cc="http://creativecommons.org/ns#" xmlns:rdf="http://www.w3.org/1999/02/22-rdf-syntax-ns#" xmlns:svg="http://www.w3.org/2000/svg" xmlns="http://www.w3.org/2000/svg" xmlns:sodipodi="http://sodipodi.sourceforge.net/DTD/sodipodi-0.dtd" xmlns:inkscape="http://www.inkscape.org/namespaces/inkscape" version="1.0" width="1024.000000pt" height="1024.000000pt" viewBox="0 0 1024.000000 1024.000000" preserveAspectRatio="xMidYMid meet" id="svg2" inkscape:version="0.48.5 r10040" sodipodi:docname="2199942.svg">
  <defs id="defs26" />
  <sodipodi:namedview pagecolor="#ffffff" bordercolor="#666666" borderopacity="1" objecttolerance="10" gridtolerance="10" guidetolerance="10" inkscape:pageopacity="0" inkscape:pageshadow="2" inkscape:window-width="927" inkscape:window-height="604" id="namedview24" showgrid="false" inkscape:zoom="0.184375" inkscape:cx="640" inkscape:cy="640" inkscape:window-x="600" inkscape:window-y="187" inkscape:window-maximized="0" inkscape:current-layer="svg2" />
  <metadata id="metadata4">
Created by potrace 1.11, written by Peter Selinger 2001-2013
<rdf:RDF>
  <cc:Work rdf:about="">
    <dc:format>image/svg+xml</dc:format>
    <dc:type rdf:resource="http://purl.org/dc/dcmitype/StillImage" />
  </cc:Work>
</rdf:RDF>
</metadata>
  <path style="fill:#fedc00;stroke:none;fill-opacity:1" inkscape:connector-curvature="0" id="path10" d="m 625.6,559.2 c -3,6.2 -24.9,51.2 -48.9,100 -23.9,48.8 -43.3,88.8 -43.2,89 0.2,0.2 16,0 35.1,-0.4 19.2,-0.4 35,-0.6 35.1,-0.4 0.1,0.1 -9.6,22 -21.7,48.7 -12.1,26.6 -22.3,49.2 -22.6,50.1 -0.5,1.7 0.8,1.8 17.3,1.9 9.8,0.1 23.9,0.4 31.4,0.8 l 13.6,0.6 -17.3,38.4 c -9.6,21.2 -17.2,38.6 -17,38.8 0.2,0.2 21.3,-23.2 46.9,-51.9 l 46.6,-52.3 -29.4,-0.3 c -16.2,-0.1 -29.5,-0.6 -29.5,-1 0,-0.4 10.8,-24.6 23.9,-53.7 l 23.9,-53 -27.8,-0.5 -27.8,-0.5 41.9,-82 c 23,-45.1 41.9,-82.3 41.9,-82.8 0,-0.4 -15.1,-0.7 -33.6,-0.7 l -33.5,0 -5.3,11.2 z" />
  <path style="fill:#80d3ff;stroke:none;fill-opacity:1" inkscape:connector-curvature="0" id="path12" d="m 418.6,711 c -29.8,15.9 -44.2,26.9 -49.5,38 -3.5,7.4 -3.7,21 -0.4,28.1 6.3,13.8 22.3,22.5 36.5,20 16.2,-2.8 25.8,-12.8 29.9,-30.9 1.8,-8.3 2.8,-29.3 2.2,-47 -0.3,-9.4 -0.9,-17.2 -1.2,-17.2 -0.3,0 -8.2,4.1 -17.5,9 z m 0.4,31.1 c 0,18.4 -2.8,29.2 -8.6,33.8 -11.3,8.9 -27.5,0.1 -26.2,-14.1 0.6,-5.9 2.5,-8.7 10.1,-14.8 5.4,-4.5 22.3,-15 23.9,-15 0.4,0 0.8,4.5 0.8,10.1 z" />
  <path style="fill:#80d3ff;stroke:none;fill-opacity:1" inkscape:connector-curvature="0" id="path14" d="m 873.5,709.9 c -42.8,22.2 -55,34.2 -54.8,54.2 0.1,20.3 20.4,36.9 40.1,32.8 8.2,-1.6 14.3,-5 19.5,-10.9 9,-10 11.7,-23.6 11.6,-57.5 -0.1,-12.1 -0.4,-23 -0.7,-24.2 -0.7,-2.2 -1.2,-1.9 -15.7,5.6 z m -1.8,34.8 c -1,20.5 -3.4,28.1 -10.4,32.4 -10.6,6.6 -24.3,-1.1 -24.3,-13.5 0,-6.7 3.1,-11.5 11.3,-17.8 5.3,-3.9 22.4,-14.7 23.6,-14.8 0.2,0 0.1,6.2 -0.2,13.7 z" />
  <path style="fill:#fedc00;stroke:none;fill-opacity:1" inkscape:connector-curvature="0" id="path16" d="m 453.2,765.7 -22.1,52.8 36,0.3 35.9,0.2 -27.1,54.3 c -14.9,29.8 -26.6,53.7 -26.1,53.2 0.6,-0.6 24.5,-34.1 53.1,-74.5 32.8,-46.3 51.6,-73.6 50.7,-73.8 -0.7,-0.2 -14.4,-0.6 -30.3,-1 l -29,-0.7 14.8,-31 c 8.2,-17.1 14.8,-31.3 14.9,-31.8 0,-0.4 -10.9,-0.7 -24.3,-0.7 l -24.3,0 -22.2,52.7 z" />
  <path style="fill:#fedc00;stroke:none;fill-opacity:1" inkscape:connector-curvature="0" id="path18" d="m 700.5,716.2 c -0.7,1.8 -9.2,21.6 -18.8,44 l -17.5,40.8 38.9,0 38.9,0 -31.5,63 c -17.3,34.6 -31.3,63 -31.1,63 0.6,0 125,-160.7 125.4,-162 0.2,-0.6 -13.4,-1 -38.2,-1 -21.2,0 -38.6,-0.2 -38.6,-0.6 0,-0.3 4.1,-9.4 9.1,-20.2 5.1,-10.8 10.2,-22.1 11.5,-25 l 2.4,-5.2 -24.6,0 -24.5,0 -1.4,3.2 z" />
  <path style="fill:#80d3ff;stroke:none;fill-opacity:1" inkscape:connector-curvature="0" id="path20" d="m 324.6,808.6 c -40.7,21.3 -57.4,32.4 -70.6,46.8 -8.5,9.2 -12.4,19.8 -12.4,33.1 0,44.9 53.9,67.3 86.1,35.9 13.9,-13.6 19.3,-35.9 19.3,-79.9 0,-21 -1.1,-46.5 -1.9,-46.5 -0.3,0 -9.6,4.8 -20.5,10.6 z m -6.6,62.8 c -2.1,23.1 -5.6,31.9 -14.9,36.9 -6.2,3.4 -15.2,3.7 -21,0.7 -8.4,-4.2 -14.1,-14.6 -12.7,-23.1 1.8,-11.5 11,-20.2 38.6,-36.5 l 10.5,-6.3 0.3,8.2 c 0.2,4.5 -0.2,13.6 -0.8,20.1 z" />
  <path style="fill:#80d3ff;stroke:none;fill-opacity:1" inkscape:connector-curvature="0" id="path22" d="m 897,807.1 c -65.3,34 -84,51 -85.7,78.4 -1.5,23.3 12.8,43.9 35.6,51.3 6.5,2 8.9,2.3 17.1,1.9 11.2,-0.5 18.2,-2.9 27.3,-9.1 15.8,-10.8 22.3,-27.2 24.8,-62.2 1.1,-16.1 0.4,-69.4 -1,-69.4 -0.3,0 -8.5,4.1 -18.1,9.1 z m -8.9,59.9 c -2,27.8 -6.1,37.7 -17.3,42.4 -14.8,6.2 -31.8,-4.9 -31.8,-20.8 0.1,-12.2 8.7,-21.2 36.4,-37.8 l 13.1,-7.9 0.3,4.3 c 0.2,2.4 -0.1,11.3 -0.7,19.8 z" />
  <path style="fill:#dcdcdc;fill-opacity:1;stroke:none" inkscape:connector-curvature="0" id="path10-6" d="m 700.6547,370.62667 c -23.1,2.2 -45.3,10.1 -65.1,23.3 -10.9,7.3 -28.1,24.1 -35,34.3 l -4.9,7.1 -8.9,0.7 c -44.8,3.4 -82.8,35.2 -94.6,79.1 -2.3,8.8 -2.6,12 -2.7,26 -0.1,13.8 0.3,17.3 2.3,25 7.5,28.8 24.1,51.1 49.1,66.3 11.2,6.8 9,8.6 23.4,-19.3 6.9,-13.6 12.6,-24.9 12.6,-25.3 -0.1,-0.4 -2.4,-1.8 -5.3,-3.1 -7.9,-3.7 -17,-13.4 -21.4,-22.8 -3.5,-7.2 -3.8,-8.6 -4.1,-18.3 -0.3,-8.8 0,-11.6 1.8,-17 5.5,-16.4 19.3,-29.1 35.9,-33 6.9,-1.6 21.1,-0.8 27.1,1.6 6.6,2.6 14.4,7.8 18.3,12.1 1.9,2.1 5.6,6.1 8.1,9 8.2,8.9 17.6,11.8 28.7,8.7 5.3,-1.5 7.3,-2.7 12,-7.3 4.6,-4.7 5.8,-6.7 7.3,-12 1.9,-6.8 1.6,-12.7 -1,-18.9 -3,-7.3 -15.7,-21.6 -26.1,-29.4 l -5.6,-4.3 5.9,-5.3 c 36.8,-33.7 95.5,-25.8 122.7,16.4 5.7,8.9 8.4,15.1 10.8,24.9 2.2,9.1 2.6,25.6 0.8,35.1 -4.5,24.7 -23.6,48.3 -47.5,58.9 -10.4,4.6 -17,5.8 -34.8,6.4 l -17,0.6 -11.3,27.9 c -6.2,15.3 -11.3,28.1 -11.3,28.4 0,0.2 13.6,0.2 30.3,-0.1 23.2,-0.4 31.9,-0.9 37.7,-2.2 29.9,-6.7 52.6,-19.2 72.7,-39.8 11.7,-12.1 18.6,-22 25.9,-37.1 21.9,-46 16.4,-100.9 -14.3,-141.7 -28.7,-38.2 -75.6,-59.2 -122.5,-54.9 z" />
  <path style="fill:#dcdcdc;fill-opacity:1;stroke:none" inkscape:connector-curvature="0" id="path8-5" d="m 378.06411,171.69683 c -34.3,3.4 -55.8,9.1 -82.5,22 -65.9,31.8 -111.3,95.2 -121.1,169.4 -1.8,13.4 -1.5,43 0.5,56.5 6,39.6 22.1,76.6 46.3,106.5 8.1,10 27.8,29.1 38.1,36.9 22.4,16.9 48.6,29.7 76.2,37 20.8,5.5 29.2,6.5 55.5,6.5 20.6,0.1 25.8,-0.2 36.5,-2.2 11.6,-2 32.1,-7.4 34.8,-9.1 0.8,-0.4 0.3,-3.1 -1.8,-9.2 -15,-44.6 -7.6,-94.6 19.6,-132.5 7.9,-11 14.8,-18.7 23.4,-26.1 18.3,-15.7 41.8,-27.8 63.9,-32.8 6.4,-1.5 7,-1.9 16.1,-11.1 5.2,-5.2 12.7,-12.1 16.7,-15.2 8.4,-6.6 8.3,-6 5.3,-21 -6.5,-32.5 -20.3,-63.3 -40.1,-89.4 -8.2,-10.8 -27.2,-30.2 -37.9,-38.8 -30,-23.9 -66.9,-39.9 -105.1,-45.5 -10.7,-1.5 -36.9,-2.7 -44.4,-1.9 z" />
  <path style="fill:#7b7b7b;fill-opacity:1;stroke:none" d="m 342.13909,574.73101 c -25.11593,-5.51174 -59.35433,-27.30158 -79.67883,-50.70893 -51.82279,-59.68311 -63.11871,-142.79859 -29.61945,-217.93977 22.68727,-50.88911 72.70833,-91.26612 121.02981,-97.69532 l 17.84854,-2.37467 -17.77019,22.2295 c -20.49625,25.63976 -40.66223,69.17463 -47.59175,102.74229 -6.81264,33.00166 -6.31468,95.10104 1.00891,125.81174 10.61848,44.52756 26.20772,76.85178 51.48943,106.76266 12.07324,14.28389 12.32377,15.014 5.02562,14.64568 -4.22462,-0.2131 -14.00854,-1.77612 -21.74209,-3.47318 z" id="path3757" inkscape:connector-curvature="0" />
  <path inkscape:connector-curvature="0" style="fill:#ba381a;fill-opacity:1;stroke:none" id="path8-1" d="m 566.3258,218.65535 -61.89028,56.99844 0,137.06937 -0.0711,137.14124 9.87982,0 9.87984,0 0.14123,-126.86283 0.21165,-126.86285 31.4038,31.05084 c 17.28974,17.03485 40.6485,40.17924 51.93976,51.32017 l 20.536,20.41307 30.27472,-11.5722 30.27472,-11.50031 25.40528,-3.95324 c 19.40692,-2.94696 33.4504,-5.67827 59.27912,-11.42843 18.6306,-4.09698 45.16508,-9.77527 58.92631,-12.50661 13.7612,-2.80319 36.9083,-7.54709 51.3752,-10.56592 l 26.25219,-5.53452 -0.14115,-54.33899 -0.21169,-54.2671 -27.1696,-5.60641 c -14.96089,-3.01883 -28.86327,-5.53452 -29.49839,-5.60639 -1.19972,0 -0.14114,2.08442 -0.14114,33.42277 l 0.0706,33.4228 -25.47591,0 -25.40527,0 0,-38.31042 0,-38.31043 -30.48648,-6.10953 -30.55692,-6.10956 -0.21179,44.41997 -0.14109,44.41997 -25.40531,0 -25.40541,0 0,-48.3732 0,-48.3732 -30.48636,-10.20651 c -16.79576,-5.60641 -30.69816,-10.20653 -30.90982,-10.20653 -0.21177,0 -28.22823,25.66007 -62.24306,56.92654 z m 61.39619,112.19993 -0.21167,50.52953 -52.92787,-51.5358 c -29.07497,-28.3914 -52.92775,-51.89516 -52.92775,-52.25456 0,-0.35937 23.85278,-22.71308 52.92775,-49.66696 l 52.92787,-49.02009 0.21167,50.67325 c 0.0711,27.96016 0.0711,73.45826 0,101.27463 z" sodipodi:nodetypes="ccccccccccccccccccccccsccccccccccccccsccccscccc" />
</svg>
