<?xml version="1.0" encoding="UTF-8" standalone="no"?>
<svg xmlns:dc="http://purl.org/dc/elements/1.1/" xmlns:cc="http://creativecommons.org/ns#" xmlns:rdf="http://www.w3.org/1999/02/22-rdf-syntax-ns#" xmlns:svg="http://www.w3.org/2000/svg" xmlns="http://www.w3.org/2000/svg" xmlns:sodipodi="http://sodipodi.sourceforge.net/DTD/sodipodi-0.dtd" xmlns:inkscape="http://www.inkscape.org/namespaces/inkscape" version="1.0" width="1024.000000pt" height="1024.000000pt" viewBox="0 0 1024.000000 1024.000000" preserveAspectRatio="xMidYMid meet" id="svg2" inkscape:version="0.48.5 r10040" sodipodi:docname="2299949.svg">
  <defs id="defs28" />
  <sodipodi:namedview pagecolor="#ffffff" bordercolor="#666666" borderopacity="1" objecttolerance="10" gridtolerance="10" guidetolerance="10" inkscape:pageopacity="0" inkscape:pageshadow="2" inkscape:window-width="926" inkscape:window-height="586" id="namedview26" showgrid="false" inkscape:zoom="0.184375" inkscape:cx="640" inkscape:cy="640" inkscape:window-x="815" inkscape:window-y="642" inkscape:window-maximized="0" inkscape:current-layer="svg2" />
  <metadata id="metadata4">
Created by potrace 1.11, written by Peter Selinger 2001-2013
<rdf:RDF>
  <cc:Work rdf:about="">
    <dc:format>image/svg+xml</dc:format>
    <dc:type rdf:resource="http://purl.org/dc/dcmitype/StillImage" />
  </cc:Work>
</rdf:RDF>
</metadata>
  <path style="fill:#fedc00;stroke:none;fill-opacity:1" inkscape:connector-curvature="0" id="path12" d="m 545.6,559.2 c -3,6.2 -24.9,51.2 -48.9,100 -23.9,48.8 -43.3,88.8 -43.2,89 0.2,0.2 16,0 35.1,-0.4 19.2,-0.4 35,-0.6 35.1,-0.4 0.1,0.1 -9.6,22 -21.7,48.7 -12.1,26.6 -22.3,49.2 -22.6,50.1 -0.5,1.7 0.8,1.8 17.3,1.9 9.8,0.1 23.9,0.4 31.4,0.8 l 13.6,0.6 -17.3,38.4 c -9.6,21.2 -17.2,38.6 -17,38.8 0.2,0.2 21.3,-23.2 46.9,-51.9 l 46.6,-52.3 -29.4,-0.3 c -16.2,-0.1 -29.5,-0.6 -29.5,-1 0,-0.4 10.8,-24.6 23.9,-53.7 l 23.9,-53 -27.8,-0.5 -27.8,-0.5 41.9,-82 c 23,-45.1 41.9,-82.3 41.9,-82.8 0,-0.4 -15.1,-0.7 -33.6,-0.7 l -33.5,0 -5.3,11.2 z" />
  <path style="fill:#80d3ff;stroke:none;fill-opacity:1" inkscape:connector-curvature="0" id="path14" d="m 338.6,711 c -29.8,15.9 -44.2,26.9 -49.5,38 -3.5,7.4 -3.7,21 -0.4,28.1 6.3,13.8 22.3,22.5 36.5,20 16.2,-2.8 25.8,-12.8 29.9,-30.9 1.8,-8.3 2.8,-29.3 2.2,-47 -0.3,-9.4 -0.9,-17.2 -1.2,-17.2 -0.3,0 -8.2,4.1 -17.5,9 z m 0.4,31.1 c 0,18.4 -2.8,29.2 -8.6,33.8 -11.3,8.9 -27.5,0.1 -26.2,-14.1 0.6,-5.9 2.5,-8.7 10.1,-14.8 5.4,-4.5 22.3,-15 23.9,-15 0.4,0 0.8,4.5 0.8,10.1 z" />
  <path style="fill:#80d3ff;stroke:none;fill-opacity:1" inkscape:connector-curvature="0" id="path16" d="m 793.5,709.9 c -42.8,22.2 -55,34.2 -54.8,54.2 0.1,20.3 20.4,36.9 40.1,32.8 8.2,-1.6 14.3,-5 19.5,-10.9 9,-10 11.7,-23.6 11.6,-57.5 -0.1,-12.1 -0.4,-23 -0.7,-24.2 -0.7,-2.2 -1.2,-1.9 -15.7,5.6 z m -1.8,34.8 c -1,20.5 -3.4,28.1 -10.4,32.4 -10.6,6.6 -24.3,-1.1 -24.3,-13.5 0,-6.7 3.1,-11.5 11.3,-17.8 5.3,-3.9 22.4,-14.7 23.6,-14.8 0.2,0 0.1,6.2 -0.2,13.7 z" />
  <path style="fill:#fedc00;stroke:none;fill-opacity:1" inkscape:connector-curvature="0" id="path18" d="m 373.2,765.7 -22.1,52.8 36,0.3 35.9,0.2 -27.1,54.3 c -14.9,29.8 -26.6,53.7 -26.1,53.2 0.6,-0.6 24.5,-34.1 53.1,-74.5 32.8,-46.3 51.6,-73.6 50.7,-73.8 -0.7,-0.2 -14.4,-0.6 -30.3,-1 l -29,-0.7 14.8,-31 c 8.2,-17.1 14.8,-31.3 14.9,-31.8 0,-0.4 -10.9,-0.7 -24.3,-0.7 l -24.3,0 -22.2,52.7 z" />
  <path style="fill:#fedc00;stroke:none;fill-opacity:1" inkscape:connector-curvature="0" id="path20" d="m 620.5,716.2 c -0.7,1.8 -9.2,21.6 -18.8,44 l -17.5,40.8 38.9,0 38.9,0 -31.5,63 c -17.3,34.6 -31.3,63 -31.1,63 0.6,0 125,-160.7 125.4,-162 0.2,-0.6 -13.4,-1 -38.2,-1 -21.2,0 -38.6,-0.2 -38.6,-0.6 0,-0.3 4.1,-9.4 9.1,-20.2 5.1,-10.8 10.2,-22.1 11.5,-25 l 2.4,-5.2 -24.6,0 -24.5,0 -1.4,3.2 z" />
  <path style="fill:#80d3ff;stroke:none;fill-opacity:1" inkscape:connector-curvature="0" id="path22" d="m 244.6,808.6 c -40.7,21.3 -57.4,32.4 -70.6,46.8 -8.5,9.2 -12.4,19.8 -12.4,33.1 0,44.9 53.9,67.3 86.1,35.9 13.9,-13.6 19.3,-35.9 19.3,-79.9 0,-21 -1.1,-46.5 -1.9,-46.5 -0.3,0 -9.6,4.8 -20.5,10.6 z m -6.6,62.8 c -2.1,23.1 -5.6,31.9 -14.9,36.9 -6.2,3.4 -15.2,3.7 -21,0.7 -8.4,-4.2 -14.1,-14.6 -12.7,-23.1 1.8,-11.5 11,-20.2 38.6,-36.5 l 10.5,-6.3 0.3,8.2 c 0.2,4.5 -0.2,13.6 -0.8,20.1 z" />
  <path style="fill:#80d3ff;stroke:none;fill-opacity:1" inkscape:connector-curvature="0" id="path24" d="m 817,807.1 c -65.3,34 -84,51 -85.7,78.4 -1.5,23.3 12.8,43.9 35.6,51.3 6.5,2 8.9,2.3 17.1,1.9 11.2,-0.5 18.2,-2.9 27.3,-9.1 15.8,-10.8 22.3,-27.2 24.8,-62.2 1.1,-16.1 0.4,-69.4 -1,-69.4 -0.3,0 -8.5,4.1 -18.1,9.1 z m -8.9,59.9 c -2,27.8 -6.1,37.7 -17.3,42.4 -14.8,6.2 -31.8,-4.9 -31.8,-20.8 0.1,-12.2 8.7,-21.2 36.4,-37.8 l 13.1,-7.9 0.3,4.3 c 0.2,2.4 -0.1,11.3 -0.7,19.8 z" />
  <path style="fill:#dcdcdc;fill-opacity:1;stroke:none" inkscape:connector-curvature="0" id="path10-9" d="m 537.63761,301.61505 c -50.5,4.1 -97.7,32.2 -125.5,74.8 l -5.1,7.9 -12.2,0.6 c -33.3,1.5 -62.6,14.9 -85,38.7 -17,18 -28.1,40 -32.2,63.8 -1.9,11 -1.9,31.6 0,42.8 7.8,44.2 40,81.6 82.6,95.8 18.2,6.1 24.8,6.7 73.8,6.4 l 43.4,-0.3 13.3,-25.5 13.2,-25.5 -57.6,-0.6 c -64.8,-0.6 -62.4,-0.3 -78.7,-8.3 -36.6,-18 -50.3,-64.4 -29.5,-99.7 9.9,-16.8 27,-29.3 45.8,-33.5 11.3,-2.5 29.3,-1.6 39.2,2.1 14.5,5.2 23.9,12.6 37.7,29.2 5.4,6.5 11.8,9.6 19.9,9.6 18,0.1 30.8,-17.5 24.9,-34.3 -4.2,-11.9 -25.8,-34.2 -42.2,-43.6 -1.8,-1 -3.3,-2.1 -3.3,-2.4 0,-1.3 11.1,-13.6 16.6,-18.3 11.6,-9.9 23.9,-16.9 38.4,-21.7 57,-19.1 119.2,10 141.6,66.3 1.4,3.7 2.5,7 2.3,7.2 -0.2,0.2 -3.9,2.6 -8.1,5.4 -12.2,7.9 -16.6,15.7 -15.5,27.4 1.4,15.3 16.3,26.1 31.2,22.8 3,-0.7 7.8,-2.8 10.7,-4.8 15.9,-11 31.8,-13.6 49.4,-8.2 16.3,5 31.5,21.3 35.3,37.9 1.5,6.3 1.3,20.6 -0.3,26.5 -4.6,17.2 -17.5,31 -35,37.4 l -7.1,2.6 -48.4,0.5 -48.3,0.5 -12.9,25 c -7.1,13.7 -12.9,25.4 -12.9,25.8 0,0.4 29.1,0.6 64.8,0.5 l 64.7,-0.4 9.7,-2.6 c 20,-5.5 34.1,-13.9 49.3,-29.2 14.4,-14.7 22.2,-28.6 27.6,-49.2 2,-7.6 2.3,-11.3 2.3,-24.9 0,-14 -0.4,-17.2 -2.7,-25.7 -10.9,-40.6 -43.9,-71.2 -84.6,-78.3 -4.6,-0.8 -10.5,-1.5 -13.1,-1.5 l -4.7,0 -3.3,-9.3 c -13.7,-39.4 -43.8,-73.4 -82.1,-92.8 -25.6,-12.9 -58.2,-19.2 -87.4,-16.9 z" />
  <path style="fill:#dcdcdc;fill-opacity:1;stroke:none" inkscape:connector-curvature="0" id="path8-5" d="m 391.3552,136.89089 c -1.9,0.2 -7.8,0.9 -13,1.5 -5.2,0.6 -15.4,2.6 -22.6,4.4 -110.00002,28.1 -172.80002,142.70002 -137.40002,250.80002 4.9,14.7 13.7,33 22,45.6 l 6.3,9.4 4.9,-9.9 c 19.4,-38.8 52.20002,-68.4 92.30002,-83.4 10.6,-4 26.4,-8.2 35.6,-9.5 4,-0.5 5,-1.2 8.5,-5.7 5.5,-7.3 21.5,-23.1 30.9,-30.7 30,-24.2 70.2,-41.00001 107.7,-45.00001 13,-1.5 40.1,-1.3 51.8,0.3 5.2,0.7 9.7,1.2 9.8,1 0.6,-0.4 -7.8,-19.5 -11.6,-26.4 -9.9,-17.9 -22.5,-34.30001 -37.5,-48.60001 -35.1,-33.5 -80.4,-52.3 -129.4,-53.8 -8.2,-0.2 -16.4,-0.2 -18.3,0 z" />
  <path inkscape:connector-curvature="0" style="fill:#7b7b7b;fill-opacity:1;stroke:none" d="m 395.8772,156.3904 -20.85543,5.07607 c -48.33932,5.76119 -99.89477,47.84816 -122.59043,93.44974 -27.88469,56.02784 -24.73532,116.99001 6.97299,166.69893 16.39071,-23.01044 38.10283,-41.9322 63.50404,-55.41922 -3.07752,-28.82515 -2.11821,-66.46304 3.07144,-88.98224 6.93207,-30.07988 27.08956,-69.09546 47.59336,-92.07119 z" id="path8-0-7" sodipodi:nodetypes="ccsccscc" />
</svg>
