<?xml version="1.0" encoding="UTF-8" standalone="no"?>
<svg xmlns:dc="http://purl.org/dc/elements/1.1/" xmlns:cc="http://creativecommons.org/ns#" xmlns:rdf="http://www.w3.org/1999/02/22-rdf-syntax-ns#" xmlns:svg="http://www.w3.org/2000/svg" xmlns="http://www.w3.org/2000/svg" xmlns:sodipodi="http://sodipodi.sourceforge.net/DTD/sodipodi-0.dtd" xmlns:inkscape="http://www.inkscape.org/namespaces/inkscape" version="1.0" width="1024.000000pt" height="1024.000000pt" viewBox="0 0 1024.000000 1024.000000" preserveAspectRatio="xMidYMid meet" id="svg2" inkscape:version="0.48.5 r10040" sodipodi:docname="2239991.svg">
  <defs id="defs24" />
  <sodipodi:namedview pagecolor="#ffffff" bordercolor="#666666" borderopacity="1" objecttolerance="10" gridtolerance="10" guidetolerance="10" inkscape:pageopacity="0" inkscape:pageshadow="2" inkscape:window-width="908" inkscape:window-height="590" id="namedview22" showgrid="false" inkscape:zoom="0.184375" inkscape:cx="640" inkscape:cy="640" inkscape:window-x="1642" inkscape:window-y="77" inkscape:window-maximized="0" inkscape:current-layer="svg2" />
  <metadata id="metadata4">
Created by potrace 1.11, written by Peter Selinger 2001-2013
<rdf:RDF>
  <cc:Work rdf:about="">
    <dc:format>image/svg+xml</dc:format>
    <dc:type rdf:resource="http://purl.org/dc/dcmitype/StillImage" />
  </cc:Work>
</rdf:RDF>
</metadata>
  <path style="fill:#80d3ff;stroke:none;fill-opacity:1" inkscape:connector-curvature="0" id="path12" d="m 553.5,708.1 c -38,20.4 -48.7,29.4 -53.1,44.5 -7,24.1 16.4,48.2 40.7,41.9 20.4,-5.2 28,-18.9 29.6,-53.5 0.6,-13.9 -0.4,-41 -1.6,-41 -0.3,0 -7.3,3.7 -15.6,8.1 z m -0.9,33.1 c -0.9,15.5 -2.2,23.3 -4.8,27.8 -5.5,9.9 -17.7,11.3 -25.9,3.1 -7.8,-7.7 -5.8,-18.2 5,-26.8 4.8,-3.8 24.7,-16.3 25.9,-16.3 0.3,0 0.2,5.5 -0.2,12.2 z" />
  <path style="fill:#80d3ff;stroke:none;fill-opacity:1" inkscape:connector-curvature="0" id="path14" d="M 424.5,712.7 C 360,746.6 342,764 342,792.5 c 0,13.9 5,25.7 14.9,35.5 20,19.6 50.1,20.1 70.5,1 15.7,-14.8 20,-33.5 19.8,-87.3 -0.1,-30.3 -0.5,-39.8 -2,-39.6 -0.4,0 -9.7,4.8 -20.7,10.6 z m -5.1,48.5 c -0.6,14.5 -2.5,30.2 -4.4,37 -2.8,9.7 -12.1,16.8 -22,16.8 -12.6,0 -22,-8.8 -22.8,-21.4 -0.7,-10.7 4.6,-18.2 20.3,-28.9 7.4,-5.1 27.7,-17.6 28.7,-17.6 0.4,-0.1 0.5,6.3 0.2,14.1 z" />
  <path style="fill:#80d3ff;stroke:none;fill-opacity:1" inkscape:connector-curvature="0" id="path16" d="m 717,710.1 c -45.9,23.9 -69,39.9 -79.1,54.5 -13.5,19.7 -10.2,47.6 7.5,64.2 20.6,19.3 50.9,18.9 70.6,-0.8 14.3,-14.3 19,-34.5 19,-82.1 0,-23.6 -0.9,-43.9 -1.9,-43.9 -0.3,0 -7.6,3.7 -16.1,8.1 z m -10.3,54.1 c -1.1,30.8 -4.8,42.4 -15.6,48 -15.7,8.2 -33.4,-2.2 -33.4,-19.7 0,-12.8 8.3,-21.3 38.3,-39.2 5.8,-3.4 10.7,-6.3 10.9,-6.3 0.2,0 0.1,7.8 -0.2,17.2 z" />
  <path style="fill:#80d3ff;stroke:none;fill-opacity:1" inkscape:connector-curvature="0" id="path18" d="M 595.5,807.4 C 529.9,841.1 510,860 510,888.5 c 0,13.2 5.3,25.8 15,35.5 22.7,22.7 59.6,19.2 77.8,-7.2 10,-14.6 13.9,-42.8 12.6,-91.6 -0.4,-14.4 -1,-26.4 -1.3,-26.7 -0.4,-0.2 -8.8,3.8 -18.6,8.9 z m -7.9,50.3 c -1.6,34.2 -5.6,46.1 -17.1,51.4 -10.8,5 -24.3,0.5 -29.7,-10 -6.4,-12.3 -2.5,-23 12.7,-34.6 6.3,-4.8 32.9,-21.5 34.3,-21.5 0.2,0 0.2,6.6 -0.2,14.7 z" />
  <path style="fill:#80d3ff;stroke:none;fill-opacity:1" inkscape:connector-curvature="0" id="path20" d="m 435.5,852.6 c -30.4,16.3 -44,26.8 -49.3,38.1 -2.3,4.9 -2.7,7.1 -2.7,14.3 0.1,10.6 3.1,17.4 10.5,24.4 7.6,7.1 12.7,9.1 23.5,9.1 10.8,0 15.9,-2 23.5,-9.1 8.5,-7.9 12.1,-19 13.6,-42.1 0.9,-13.7 -0.4,-43.3 -2,-43.3 -0.6,0.1 -8.3,3.9 -17.1,8.6 z m 1,31.1 c -1.3,22.3 -3.4,30 -9.5,34.3 -8.9,6.4 -21.8,1.9 -25,-8.7 -3.2,-10.7 3.5,-18.7 26.8,-32.4 3.7,-2.1 7.1,-3.9 7.5,-3.9 0.5,0 0.6,4.8 0.2,10.7 z" />
  <path style="fill:#dcdcdc;fill-opacity:0.94117647;stroke:none" inkscape:connector-curvature="0" id="path10-1" d="m 541.97659,303.14575 c -50.5,4.1 -97.7,32.2 -125.5,74.8 l -5.1,7.9 -12.2,0.6 c -33.3,1.5 -62.6,14.9 -85,38.7 -17,18 -28.1,40 -32.2,63.8 -1.9,11 -1.9,31.6 0,42.8 7.8,44.2 40,81.6 82.6,95.8 20.8,7 11.7,6.7 198.4,6.4 l 168,-0.3 9.7,-2.7 c 20.1,-5.5 34.2,-13.9 49.3,-29.2 14.4,-14.7 22.2,-28.6 27.6,-49.2 2,-7.6 2.3,-11.3 2.3,-24.9 0,-14 -0.4,-17.2 -2.7,-25.7 -10.9,-40.6 -43.9,-71.2 -84.6,-78.3 -4.6,-0.8 -10.5,-1.5 -13.1,-1.5 l -4.7,0 -3.3,-9.3 c -13.7,-39.4 -43.8,-73.4 -82.1,-92.8 -25.6,-12.9 -58.2,-19.2 -87.4,-16.9 z m 30.8,53.5 c 39.3,5.9 73.3,33.2 88.3,70.8 1.4,3.7 2.5,7 2.3,7.2 -0.2,0.2 -3.9,2.6 -8.1,5.4 -12.2,7.9 -16.6,15.7 -15.5,27.4 1.4,15.3 16.3,26.1 31.2,22.8 3,-0.7 7.8,-2.8 10.7,-4.8 15.9,-11 31.8,-13.6 49.4,-8.2 16.3,5 31.5,21.3 35.3,37.9 1.5,6.3 1.3,20.6 -0.3,26.5 -4.6,17.2 -17.5,31 -35,37.4 l -7.1,2.6 -165,0 c -186,0 -169.4,0.7 -187,-7.9 -36.6,-18 -50.3,-64.4 -29.5,-99.7 9.9,-16.8 27,-29.3 45.8,-33.5 11.3,-2.5 29.3,-1.6 39.2,2.1 14.5,5.2 23.9,12.6 37.7,29.2 5.4,6.5 11.8,9.6 19.9,9.6 18,0.1 30.8,-17.5 24.9,-34.3 -4.2,-11.9 -25.8,-34.2 -42.2,-43.6 -1.8,-1 -3.3,-2.1 -3.3,-2.4 0,-1.3 11.1,-13.6 16.6,-18.3 25.5,-21.8 58.4,-31.2 91.7,-26.2 z" />
  <path style="fill:#dcdcdc;fill-opacity:1;stroke:none" inkscape:connector-curvature="0" id="path8-7" d="m 395.69417,138.4216 c -1.9,0.2 -7.8,0.9 -13,1.5 -5.2,0.6 -15.4,2.6 -22.6,4.4 -110,28.1 -172.8,142.7 -137.4,250.8 4.9,14.7 13.7,33 22,45.6 l 6.3,9.4 4.9,-9.9 c 19.4,-38.8 52.2,-68.4 92.3,-83.4 10.6,-4 26.4,-8.2 35.6,-9.5 4,-0.5 5,-1.2 8.5,-5.7 5.5,-7.3 21.5,-23.1 30.9,-30.7 30,-24.2 70.2,-41 107.7,-45 13,-1.5 40.1,-1.3 51.8,0.3 5.2,0.7 9.7,1.2 9.8,1 0.6,-0.4 -7.8,-19.5 -11.6,-26.4 -9.9,-17.9 -22.5,-34.3 -37.5,-48.6 -35.1,-33.5 -80.4,-52.3 -129.4,-53.8 -8.2,-0.2 -16.4,-0.2 -18.3,0 z" />
  <path inkscape:connector-curvature="0" style="fill:#7b7b7b;fill-opacity:1;stroke:none" d="m 402.38566,149.24314 -21.27315,5.28367 c -49.30756,5.99683 -101.89566,49.80512 -125.04591,97.27175 -28.44322,58.3193 -25.23077,121.77477 7.11266,173.51675 16.71902,-23.95154 38.86602,-43.64718 64.776,-57.68582 -3.13916,-30.00407 -2.16064,-69.18132 3.13296,-92.62153 7.07092,-31.31012 27.63217,-71.92138 48.54668,-95.83679 z" id="path8-0" sodipodi:nodetypes="ccsccscc" />
  <path style="fill:#ffffff;fill-opacity:1;stroke:none" d="m 763.65896,316.78027 c -1.01647,-1.1232 -1.9038,-8.05108 -1.93024,-15.0704 -0.008,-2.14512 -0.2584,-4.0508 -0.55624,-4.23488 -0.29787,-0.18408 -1.82328,0.86052 -3.38984,2.32128 -6.49912,6.06036 -11.24123,9.02764 -12.46752,7.80136 -1.03188,-1.03188 0.48376,-3.04344 8.67008,-11.50692 l 7.7288,-7.99052 0,-10.27332 c 0,-5.65032 -0.16272,-10.43604 -0.36159,-10.63488 -0.42865,-0.42868 -16.8658,8.00272 -18.15364,9.31188 -0.48845,0.49656 -2.04021,4.56384 -3.44839,9.0384 -2.5681,8.1608 -4.0193,11.65588 -5.5735,13.42372 -1.0273,1.1686 -1.4383,1.18436 -2.5258,0.0969 -1.201,-1.201 -1.0737,-2.81922 0.7162,-9.10066 2.2544,-7.91152 2.3606,-8.48862 1.5604,-8.48214 -0.3785,0.003 -4.32,1.83358 -8.7587,4.06778 -4.4387,2.23424 -8.5183,4.06224 -9.0657,4.06224 -0.5473,0 -1.2519,-0.47972 -1.5657,-1.06604 -0.8537,-1.59512 1.4319,-3.74784 7.8544,-7.39798 6.7263,-3.82274 8.4985,-5.05038 8.1366,-5.63602 -0.1556,-0.25176 -3.2828,-1.45748 -6.9493,-2.67936 -9.0583,-3.01868 -10.3992,-4.07028 -7.9808,-6.25892 1.405,-1.27152 3.1123,-0.98508 14.7784,2.47956 l 9.1686,2.72292 7.15205,-3.88424 c 3.93363,-2.13636 7.60475,-4.31832 8.158,-4.84884 1.94675,-1.86676 0.76683,-2.98028 -7.68017,-7.248 l -7.96988,-4.02668 -8.9491,2.66696 c -5.5597,1.65684 -10.1817,2.71208 -12.2034,2.7862 -3.1629,0.11592 -3.2589,0.0783 -3.4226,-1.33832 -0.2196,-1.90168 0.8309,-2.55552 8.1427,-5.0684 3.1928,-1.0972 6.2436,-2.32028 6.7797,-2.7179 0.9318,-0.69106 0.9269,-0.75894 -0.11,-1.53898 -0.5966,-0.4488 -3.2904,-2.03924 -5.9862,-3.53428 -7.2078,-3.99728 -9.5743,-5.83346 -9.3698,-7.27024 0.3197,-2.247 2.6927,-1.79862 10.7026,2.02224 7.1195,3.39612 9.2636,4.11752 9.2636,3.11682 0,-0.24658 -0.7265,-3.03546 -1.6143,-6.19752 -2.2448,-7.9944 -2.4845,-9.78414 -1.4276,-10.66128 1.4053,-1.1663 3.4514,-0.26618 4.6252,2.0348 0.5798,1.1365 2.3781,6.31904 3.9962,11.51678 l 2.94192,9.45044 9.43421,4.64738 9.4342,4.64738 0.14719,-10.85668 0.14716,-10.85668 -7.84548,-7.6212 c -4.315,-4.1917 -8.0712,-8.2314 -8.34708,-8.97716 -1.23108,-3.32776 1.35976,-3.6352 5.13764,-0.60964 1.44376,1.15622 4.45549,3.7046 6.6928,5.66306 l 4.06777,3.56086 0.40795,-8.51056 c 0.4644,-9.68792 0.8484,-11.95502 2.16564,-12.78592 0.71892,-0.45348 1.15041,-0.36894 1.89081,0.37044 0.83471,0.83354 0.98131,2.25912 1.12847,10.97386 0.093,5.50872 0.29741,10.0159 0.4542,10.0159 0.1568,0 2.76544,-2.34124 5.79696,-5.20272 6.55088,-6.18336 7.5112,-6.75472 9.03513,-5.37558 0.59783,0.54102 1.08695,1.20538 1.08695,1.47638 0,0.271 -3.6242,4.19926 -8.05379,8.7295 l -8.05377,8.23682 0.2586,10.98304 c 0.14224,6.04068 0.34557,10.98304 0.45188,10.98304 0.10629,0 4.0614,-2.1937 8.78908,-4.8749 l 8.59581,-4.8749 3.093,-10.69672 c 1.70116,-5.8832 3.48835,-11.1336 3.97151,-11.6675 1.08384,-1.19764 2.5176,-1.24722 3.45356,-0.11946 0.58924,0.71 0.4106,1.99262 -1.07652,7.72884 -2.55171,9.84244 -2.47256,9.3182 -1.40692,9.3182 0.51072,0 4.57988,-1.88168 9.04261,-4.18152 8.44296,-4.351 9.02968,-4.4696 10.458,-2.11358 0.78328,1.2919 -1.51608,3.20306 -8.91288,7.40818 -3.13224,1.78068 -6.16869,3.60106 -6.74773,4.04532 -1.02723,0.78808 -1.02808,0.8258 -0.0356,1.55148 0.55944,0.40908 3.89413,1.63266 7.41045,2.71908 6.51664,2.01346 7.50848,2.69986 7.50848,5.19648 0,0.6256 -0.31992,1.2602 -0.71096,1.41024 -0.39104,0.15008 -4.4792,-0.7227 -9.0848,-1.93946 -4.60549,-1.21678 -9.88781,-2.49314 -11.7384,-2.83638 l -3.36469,-0.62408 -7.21156,3.64236 c -3.96639,2.00332 -7.82176,4.11332 -8.56752,4.68892 -1.34159,1.03544 -1.34444,1.05522 -0.2712,1.8678 1.49552,1.13228 15.2234,8.4936 16.4258,8.80804 0.53657,0.14032 5.44224,-1.10244 10.90148,-2.76168 5.45921,-1.65922 10.62681,-3.01678 11.48361,-3.01678 1.47056,0 2.68064,1.20172 2.68064,2.66228 0,0.87186 -2.94928,2.27782 -9.76272,4.65398 -3.43049,1.1964 -6.23117,2.41932 -6.22372,2.71764 0.007,0.2983 3.22384,2.49492 7.14748,4.88136 8.23288,5.00736 9.48872,6.0321 9.26928,7.56328 -0.274,1.91094 -3.36088,1.1206 -11.73232,-3.00376 -4.27708,-2.1072 -7.917,-3.69082 -8.08868,-3.51912 -0.17168,0.17168 0.59244,3.74876 1.69807,7.94912 2.0656,7.84748 2.10884,9.31628 0.30268,10.2829 -0.87908,0.47048 -1.21408,0.28182 -2.10704,-1.18654 -1.12127,-1.84376 -7.07931,-19.22472 -7.07931,-20.65192 0,-0.45968 -1.64745,-1.80208 -3.66101,-2.98312 -7.10764,-4.16896 -14.15808,-7.76344 -14.41084,-7.34698 -0.14072,0.23186 -0.43428,4.8714 -0.65236,10.3101 l -0.39655,9.88852 6.98411,7.23416 c 7.121,7.37596 9.31792,10.39364 8.71345,11.9688 -0.71213,1.85586 -2.98441,0.96774 -7.28521,-2.84744 -2.31376,-2.05248 -4.92368,-4.49316 -5.79984,-5.42372 -0.87615,-0.93056 -1.7914,-1.69192 -2.03388,-1.69192 -0.24252,0 -0.44228,3.84408 -0.44392,8.54238 -0.004,11.43566 -0.90076,14.42234 -3.47576,11.57698 l 0,0 z" id="path2986-0" inkscape:connector-curvature="0" />
  <path style="fill:#ba381a;fill-opacity:1;stroke:none" sodipodi:nodetypes="ssccccccssscccsscccccccscscccsccccsscccccscccscssssscccccsccccsscsscccccscccsccccccccccscscscsccccccccccss" inkscape:connector-curvature="0" id="path14-9" d="m 757.16144,129.06168 c -36.56586,59.09144 -74.53366,120.25239 -119.89996,186.19999 -8.545,12.4216 -9.2,16.1 -6.9,20.9 1.3,2.7 2.8,3.9 5.7,4.9 3,1 30.3,1.2 129.69996,1 125.4,-0.3 125.8,-0.3 128.5,-2.4 3.3,-2.4 4.6,-6.3 3.4,-10.3 -1.2,-4.2 -123.7,-194.99999 -127.6,-198.89999 -3.9,-3.7 -10.02124,-6.05217 -12.9,-1.4 z m 9.3,76.4 c 0.8,0.8 1.2,4.79999 1.2,11.19999 l 0,10 6.4,-6.3 c 5.6,-5.5 6.7,-6.2 8,-5.1 0.9,0.7 1.6,1.7 1.6,2.4 0,0.6 -3.6,4.7 -8,9.1 l -8.1,8.1 0.3,10.6 0.3,10.7 8.5,-4.8 8.5,-4.8 1.7,-5.9 c 0.9,-3.3 2.4,-8.5 3.3,-11.7 1.4,-4.9 2,-5.7 4.1,-5.7 3,0 3.1,2.1 0.4,11 -1.1,3.6 -2,6.6 -2,6.7 0,1 3.2,-0.3 10.2,-4.3 7.2,-4.1 8.2,-4.4 9.6,-3.1 2.4,2.5 0.9,4.2 -7.7,8.8 -4.5,2.3 -8.1,4.6 -8.1,5 0,0.4 2.6,1.5 5.8,2.4 3.1,0.8 6.7,2 8,2.5 2.2,1 3,4.4 1.2,5.5 -0.5,0.3 -5.6,-0.8 -11.4,-2.5 -5.7,-1.6 -11.1,-3 -12,-3 -1.8,0 -17.6,8.2 -17.6,9.1 0,0.4 3.9,2.7 8.8,5.2 l 8.7,4.5 11.5,-3.5 c 10.7,-3.3 11.5,-3.4 12.7,-1.7 1.9,2.6 0,4.1 -8.3,6.6 -4.1,1.1 -7.4,2.4 -7.4,2.7 0,0.4 3.7,2.7 8.2,5.1 5.1,2.8 8.4,5.2 8.6,6.4 0.8,3.8 -2.2,3.6 -10.7,-0.9 -4.6,-2.5 -8.7,-4.5 -9.1,-4.5 -0.5,0 0.3,3.7 1.7,8.1 2.2,7.4 2.3,8.3 0.9,9.7 -1.4,1.4 -1.8,1.4 -3,0.2 -1.1,-1.1 -7.6,-20.5 -7.6,-22.5 0,-0.4 -16.7,-9.5 -17.4,-9.5 -0.3,0 -0.6,4.6 -0.6,10.2 l 0,10.2 8.1,8.2 c 8.1,8.3 9.5,11.5 5.5,12.2 -1.2,0.3 -3.9,-1.6 -7.7,-5.4 l -5.9,-5.8 0,9.4 c 0,10.5 -0.9,13.2 -3.7,11.4 -1.5,-0.9 -1.9,-2.9 -2.3,-10.7 l -0.5,-9.7 -6.2,5.5 c -6.2,5.6 -10.3,7.1 -10.3,3.7 0,-0.9 3.8,-5.5 8.5,-10.2 l 8.5,-8.5 0,-10.2 c 0,-5.7 -0.2,-10.3 -0.6,-10.3 -0.3,0 -4.5,2.1 -9.4,4.7 l -8.8,4.8 -3.39996,10.9 c -3.6,11.5 -5.6,14.2 -8.3,11.6 -1.3,-1.4 -1.2,-2.4 1,-9.5 1.3,-4.4 2.3,-8.1 2.1,-8.3 -0.2,-0.2 -4.1,1.8 -8.7,4.3 -8.8,4.8 -11.2,5.3 -11.7,2 -0.2,-1.7 1.4,-3 8.3,-6.8 4.7,-2.6 8.5,-5 8.5,-5.2 0,-0.3 -3.3,-1.4 -7.2,-2.6 -8.6,-2.5 -10.7,-4.1 -8.8,-6.3 1.7,-2.1 2.4,-2.1 14.5,1.5 l 10.4,3.1 8.69996,-4.8 c 10,-5.4 10.1,-4.9 -2,-11.1 l -6.99996,-3.5 -10.5,3.1 c -12.2,3.6 -13.7,3.7 -14.5,1.4 -1,-2.5 1.1,-3.9 9.3,-6.3 4,-1.2 7,-2.5 6.5,-3 -0.5,-0.5 -4.4,-2.7 -8.6,-5 -5.6,-3 -7.8,-4.7 -7.8,-6.1 0,-3.5 2.8,-3.2 11.5,1.4 5.5,3 8.5,4.1 8.5,3.2 0,-0.7 -0.9,-4.3 -2.1,-8 -2.2,-7.3 -2,-9.5 0.9,-9.5 2.8,0 3.5,1.3 7.2,13.1 l 3.19996,10.6 9.4,4.6 9.4,4.7 0,-10.8 0,-10.8 -8.5,-7.8 c -8.3,-7.6 -10.1,-10.8 -6.9,-12 1.2,-0.4 3.9,1.3 8.5,5.5 l 6.9,6.1 0,-9.2 c 0,-11.19999 1.6,-14.99999 4.8,-11.79999 z" />
</svg>
