<?xml version="1.0" encoding="UTF-8" standalone="no"?>
<svg xmlns:dc="http://purl.org/dc/elements/1.1/" xmlns:cc="http://creativecommons.org/ns#" xmlns:rdf="http://www.w3.org/1999/02/22-rdf-syntax-ns#" xmlns:svg="http://www.w3.org/2000/svg" xmlns="http://www.w3.org/2000/svg" xmlns:sodipodi="http://sodipodi.sourceforge.net/DTD/sodipodi-0.dtd" xmlns:inkscape="http://www.inkscape.org/namespaces/inkscape" version="1.0" width="1024.000000pt" height="1024.000000pt" viewBox="0 0 1024.000000 1024.000000" preserveAspectRatio="xMidYMid meet" id="svg2" inkscape:version="0.48.5 r10040" sodipodi:docname="2249919.svg">
  <defs id="defs28" />
  <sodipodi:namedview pagecolor="#ffffff" bordercolor="#666666" borderopacity="1" objecttolerance="10" gridtolerance="10" guidetolerance="10" inkscape:pageopacity="0" inkscape:pageshadow="2" inkscape:window-width="1141" inkscape:window-height="728" id="namedview26" showgrid="false" inkscape:zoom="0.184375" inkscape:cx="1385.7627" inkscape:cy="640" inkscape:window-x="1264" inkscape:window-y="244" inkscape:window-maximized="0" inkscape:current-layer="svg2" />
  <metadata id="metadata4">
Created by potrace 1.11, written by Peter Selinger 2001-2013
<rdf:RDF>
  <cc:Work rdf:about="">
    <dc:format>image/svg+xml</dc:format>
    <dc:type rdf:resource="http://purl.org/dc/dcmitype/StillImage" />
  </cc:Work>
</rdf:RDF>
</metadata>
  <path style="fill:#fedc00;stroke:none;fill-opacity:1" inkscape:connector-curvature="0" id="path12" d="m 507.9,706.8 -21.6,39.7 26.8,0.3 c 14.8,0.1 26.9,0.4 26.9,0.7 0,0.2 -13.5,25.7 -30,56.6 -16.5,30.9 -29.9,56.3 -29.8,56.5 0.4,0.3 119.2,-141.4 119.6,-142.6 0.2,-0.6 -9.5,-1 -27.7,-1 -15.5,0 -28.1,-0.2 -28.1,-0.5 0,-0.2 6.1,-11.1 13.5,-24.1 7.4,-13 13.5,-24.1 13.5,-24.5 0,-0.5 -9.3,-0.9 -20.7,-0.9 l -20.8,0 -21.6,39.8 z" />
  <path style="fill:#80d3ff;stroke:none;fill-opacity:1" inkscape:connector-curvature="0" id="path14" d="m 305.1,709.6 c -19,9.8 -33.2,18.8 -41.3,26.3 -16,14.7 -16.8,36.5 -1.7,51.2 13.4,13.1 35.6,12.5 48.5,-1.3 9.3,-9.9 11.4,-18.9 12.1,-50.8 0.2,-12.9 0.1,-25.8 -0.4,-28.7 l -0.8,-5.2 -16.4,8.5 z M 304,752 c -0.8,8.1 -1.8,13 -3.4,16.6 -6.6,14.4 -26.5,12.8 -30.6,-2.6 -2.7,-10.1 2.6,-16.6 24.5,-30 l 10,-6.1 0.3,5.3 c 0.2,2.9 -0.2,10.5 -0.8,16.8 z" />
  <path style="fill:#80d3ff;stroke:none;fill-opacity:1" inkscape:connector-curvature="0" id="path16" d="m 433.5,711.6 c -65.2,34.3 -82.6,51 -82.9,79.4 -0.1,11.4 2.4,19.7 8.6,29 14.1,21.2 43.6,28.4 66.2,16.2 15.5,-8.4 23.9,-21.9 28.1,-45.4 2.8,-15.3 3.3,-90 0.6,-89.7 -0.3,0 -9.6,4.7 -20.6,10.5 z m -5.8,52.1 c -1,28.5 -4.7,41 -13.9,47.1 -5.7,3.7 -16.6,4.4 -22.5,1.3 -5.7,-2.9 -10.9,-9.3 -12.3,-15.2 -3,-12.4 3.4,-22.1 23.3,-35.3 7.3,-4.8 24.5,-15.3 25.6,-15.5 0.2,-0.1 0.1,7.9 -0.2,17.6 z" />
  <path style="fill:#80d3ff;stroke:none;fill-opacity:1" inkscape:connector-curvature="0" id="path18" d="m 669.1,709.6 c -19,9.8 -33.2,18.8 -41.3,26.3 -16,14.7 -16.8,36.5 -1.7,51.2 13.4,13.1 35.6,12.5 48.5,-1.3 9.3,-9.9 11.4,-18.9 12.1,-50.8 0.2,-12.9 0.1,-25.8 -0.4,-28.7 l -0.8,-5.2 -16.4,8.5 z M 668,752 c -0.8,8.1 -1.8,13 -3.4,16.6 -6.6,14.4 -26.5,12.8 -30.6,-2.6 -2.7,-10.1 2.6,-16.6 24.5,-30 l 10,-6.1 0.3,5.3 c 0.2,2.9 -0.2,10.5 -0.8,16.8 z" />
  <path style="fill:#80d3ff;stroke:none;fill-opacity:1" inkscape:connector-curvature="0" id="path20" d="m 797.5,711.6 c -65.2,34.3 -82.6,51 -82.9,79.4 -0.1,11.4 2.4,19.7 8.6,29 14.1,21.2 43.6,28.4 66.2,16.2 15.5,-8.4 23.9,-21.9 28.1,-45.4 2.8,-15.3 3.3,-90 0.6,-89.7 -0.3,0 -9.6,4.7 -20.6,10.5 z m -5.8,52.1 c -1,28.5 -4.7,41 -13.9,47.1 -5.7,3.7 -16.6,4.4 -22.5,1.3 -5.7,-2.9 -10.9,-9.3 -12.3,-15.2 -3,-12.4 3.4,-22.1 23.3,-35.3 7.3,-4.8 24.5,-15.3 25.6,-15.5 0.2,-0.1 0.1,7.9 -0.2,17.6 z" />
  <path style="fill:#80d3ff;stroke:none;fill-opacity:1" inkscape:connector-curvature="0" id="path22" d="m 311,804.1 c -64.7,33.4 -84,51.8 -84,80.4 0,13.8 5,25.6 14.9,35.6 22,21.9 57.9,19.4 76.6,-5.4 11.3,-15 15.3,-41.7 14,-93.5 -0.4,-14.9 -1,-27.2 -1.4,-27.2 -0.3,0 -9.4,4.6 -20.1,10.1 z m -6.9,57.9 c -1.7,23.7 -4.2,33 -10.8,39.2 -10.5,10 -28.8,6.9 -35.5,-6.1 -5.7,-10.9 -2.7,-21.9 8.6,-31.3 6.8,-5.8 18.8,-13.7 30.4,-20.4 l 7.7,-4.4 0.3,3.3 c 0.2,1.7 -0.1,10.6 -0.7,19.7 z" />
  <path style="fill:#80d3ff;stroke:none;fill-opacity:1" inkscape:connector-curvature="0" id="path24" d="m 675,804.1 c -64.7,33.4 -84,51.8 -84,80.4 0,13.8 5,25.6 14.9,35.6 22,21.9 57.9,19.4 76.6,-5.4 11.3,-15 15.3,-41.7 14,-93.5 -0.4,-14.9 -1,-27.2 -1.4,-27.2 -0.3,0 -9.4,4.6 -20.1,10.1 z m -6.9,57.9 c -1.7,23.7 -4.2,33 -10.8,39.2 -10.5,10 -28.8,6.9 -35.5,-6.1 -5.7,-10.9 -2.7,-21.9 8.6,-31.3 6.8,-5.8 18.8,-13.7 30.4,-20.4 l 7.7,-4.4 0.3,3.3 c 0.2,1.7 -0.1,10.6 -0.7,19.7 z" />
  <path style="fill:#dcdcdc;fill-opacity:0.94117647;stroke:none" inkscape:connector-curvature="0" id="path10-4" d="m 541.97659,303.14575 c -50.5,4.1 -97.7,32.2 -125.5,74.8 l -5.1,7.9 -12.2,0.6 c -33.3,1.5 -62.6,14.9 -85,38.7 -17,18 -28.1,40 -32.2,63.8 -1.9,11 -1.9,31.6 0,42.8 7.8,44.2 40,81.6 82.6,95.8 20.8,7 11.7,6.7 198.4,6.4 l 168,-0.3 9.7,-2.7 c 20.1,-5.5 34.2,-13.9 49.3,-29.2 14.4,-14.7 22.2,-28.6 27.6,-49.2 2,-7.6 2.3,-11.3 2.3,-24.9 0,-14 -0.4,-17.2 -2.7,-25.7 -10.9,-40.6 -43.9,-71.2 -84.6,-78.3 -4.6,-0.8 -10.5,-1.5 -13.1,-1.5 l -4.7,0 -3.3,-9.3 c -13.7,-39.4 -43.8,-73.4 -82.1,-92.8 -25.6,-12.9 -58.2,-19.2 -87.4,-16.9 z m 30.8,53.5 c 39.3,5.9 73.3,33.2 88.3,70.8 1.4,3.7 2.5,7 2.3,7.2 -0.2,0.2 -3.9,2.6 -8.1,5.4 -12.2,7.9 -16.6,15.7 -15.5,27.4 1.4,15.3 16.3,26.1 31.2,22.8 3,-0.7 7.8,-2.8 10.7,-4.8 15.9,-11 31.8,-13.6 49.4,-8.2 16.3,5 31.5,21.3 35.3,37.9 1.5,6.3 1.3,20.6 -0.3,26.5 -4.6,17.2 -17.5,31 -35,37.4 l -7.1,2.6 -165,0 c -186,0 -169.4,0.7 -187,-7.9 -36.6,-18 -50.3,-64.4 -29.5,-99.7 9.9,-16.8 27,-29.3 45.8,-33.5 11.3,-2.5 29.3,-1.6 39.2,2.1 14.5,5.2 23.9,12.6 37.7,29.2 5.4,6.5 11.8,9.6 19.9,9.6 18,0.1 30.8,-17.5 24.9,-34.3 -4.2,-11.9 -25.8,-34.2 -42.2,-43.6 -1.8,-1 -3.3,-2.1 -3.3,-2.4 0,-1.3 11.1,-13.6 16.6,-18.3 25.5,-21.8 58.4,-31.2 91.7,-26.2 z" />
  <path style="fill:#dcdcdc;fill-opacity:1;stroke:none" inkscape:connector-curvature="0" id="path8-7" d="m 395.69417,138.4216 c -1.9,0.2 -7.8,0.9 -13,1.5 -5.2,0.6 -15.4,2.6 -22.6,4.4 -110,28.1 -172.8,142.7 -137.4,250.8 4.9,14.7 13.7,33 22,45.6 l 6.3,9.4 4.9,-9.9 c 19.4,-38.8 52.2,-68.4 92.3,-83.4 10.6,-4 26.4,-8.2 35.6,-9.5 4,-0.5 5,-1.2 8.5,-5.7 5.5,-7.3 21.5,-23.1 30.9,-30.7 30,-24.2 70.2,-41 107.7,-45 13,-1.5 40.1,-1.3 51.8,0.3 5.2,0.7 9.7,1.2 9.8,1 0.6,-0.4 -7.8,-19.5 -11.6,-26.4 -9.9,-17.9 -22.5,-34.3 -37.5,-48.6 -35.1,-33.5 -80.4,-52.3 -129.4,-53.8 -8.2,-0.2 -16.4,-0.2 -18.3,0 z" />
  <path inkscape:connector-curvature="0" style="fill:#7b7b7b;fill-opacity:1;stroke:none" d="m 402.38566,149.24314 -21.27315,5.28367 c -49.30756,5.99683 -101.89566,49.80512 -125.04591,97.27175 -28.44322,58.3193 -25.23077,121.77477 7.11266,173.51675 16.71902,-23.95154 38.86602,-43.64718 64.776,-57.68582 -3.13916,-30.00407 -2.16064,-69.18132 3.13296,-92.62153 7.07092,-31.31012 27.63217,-71.92138 48.54668,-95.83679 z" id="path8-0" sodipodi:nodetypes="ccsccscc" />
</svg>
