<?xml version="1.0" encoding="UTF-8" standalone="no"?>
<svg xmlns:dc="http://purl.org/dc/elements/1.1/" xmlns:cc="http://creativecommons.org/ns#" xmlns:rdf="http://www.w3.org/1999/02/22-rdf-syntax-ns#" xmlns:svg="http://www.w3.org/2000/svg" xmlns="http://www.w3.org/2000/svg" xmlns:sodipodi="http://sodipodi.sourceforge.net/DTD/sodipodi-0.dtd" xmlns:inkscape="http://www.inkscape.org/namespaces/inkscape" version="1.0" width="1024.000000pt" height="1024.000000pt" viewBox="0 0 1024.000000 1024.000000" preserveAspectRatio="xMidYMid meet" id="svg2" inkscape:version="0.48.5 r10040" sodipodi:docname="2199929.svg">
  <defs id="defs24" />
  <sodipodi:namedview pagecolor="#ffffff" bordercolor="#666666" borderopacity="1" objecttolerance="10" gridtolerance="10" guidetolerance="10" inkscape:pageopacity="0" inkscape:pageshadow="2" inkscape:window-width="1022" inkscape:window-height="838" id="namedview22" showgrid="false" inkscape:zoom="0.36875" inkscape:cx="449.14941" inkscape:cy="730.61482" inkscape:window-x="1246" inkscape:window-y="58" inkscape:window-maximized="0" inkscape:current-layer="svg2" />
  <metadata id="metadata4">
Created by potrace 1.11, written by Peter Selinger 2001-2013
<rdf:RDF>
  <cc:Work rdf:about="">
    <dc:format>image/svg+xml</dc:format>
    <dc:type rdf:resource="http://purl.org/dc/dcmitype/StillImage" />
  </cc:Work>
</rdf:RDF>
</metadata>
  <path style="fill:#dcdcdc;stroke:none;fill-opacity:1" inkscape:connector-curvature="0" id="path8" d="m 378.5,172.6 c -34.3,3.4 -55.8,9.1 -82.5,22 -65.9,31.8 -111.3,95.2 -121.1,169.4 -1.8,13.4 -1.5,43 0.5,56.5 6,39.6 22.1,76.6 46.3,106.5 8.1,10 27.8,29.1 38.1,36.9 22.4,16.9 48.6,29.7 76.2,37 20.8,5.5 29.2,6.5 55.5,6.5 20.6,0.1 25.8,-0.2 36.5,-2.2 11.6,-2 32.1,-7.4 34.8,-9.1 0.8,-0.4 0.3,-3.1 -1.8,-9.2 -15,-44.6 -7.6,-94.6 19.6,-132.5 7.9,-11 14.8,-18.7 23.4,-26.1 18.3,-15.7 41.8,-27.8 63.9,-32.8 6.4,-1.5 7,-1.9 16.1,-11.1 5.2,-5.2 12.7,-12.1 16.7,-15.2 8.4,-6.6 8.3,-6 5.3,-21 -6.5,-32.5 -20.3,-63.3 -40.1,-89.4 C 557.7,248 538.7,228.6 528,220 498,196.1 461.1,180.1 422.9,174.5 412.2,173 386,171.8 378.5,172.6 z" />
  <path style="fill:#dcdcdc;stroke:none;fill-opacity:1" inkscape:connector-curvature="0" id="path10" d="m 700.8,373 c -23.1,2.2 -45.3,10.1 -65.1,23.3 -10.9,7.3 -28.1,24.1 -35,34.3 l -4.9,7.1 -8.9,0.7 c -44.8,3.4 -82.8,35.2 -94.6,79.1 -2.3,8.8 -2.6,12 -2.7,26 -0.1,13.8 0.3,17.3 2.3,25 7.5,28.8 24.1,51.1 49.1,66.3 11.2,6.8 9,8.6 23.4,-19.3 6.9,-13.6 12.6,-24.9 12.6,-25.3 -0.1,-0.4 -2.4,-1.8 -5.3,-3.1 -7.9,-3.7 -17,-13.4 -21.4,-22.8 -3.5,-7.2 -3.8,-8.6 -4.1,-18.3 -0.3,-8.8 0,-11.6 1.8,-17 5.5,-16.4 19.3,-29.1 35.9,-33 6.9,-1.6 21.1,-0.8 27.1,1.6 6.6,2.6 14.4,7.8 18.3,12.1 1.9,2.1 5.6,6.1 8.1,9 8.2,8.9 17.6,11.8 28.7,8.7 5.3,-1.5 7.3,-2.7 12,-7.3 4.6,-4.7 5.8,-6.7 7.3,-12 1.9,-6.8 1.6,-12.7 -1,-18.9 -3,-7.3 -15.7,-21.6 -26.1,-29.4 l -5.6,-4.3 5.9,-5.3 c 36.8,-33.7 95.5,-25.8 122.7,16.4 5.7,8.9 8.4,15.1 10.8,24.9 2.2,9.1 2.6,25.6 0.8,35.1 -4.5,24.7 -23.6,48.3 -47.5,58.9 -10.4,4.6 -17,5.8 -34.8,6.4 l -17,0.6 -11.3,27.9 c -6.2,15.3 -11.3,28.1 -11.3,28.4 0,0.2 13.6,0.2 30.3,-0.1 23.2,-0.4 31.9,-0.9 37.7,-2.2 29.9,-6.7 52.6,-19.2 72.7,-39.8 11.7,-12.1 18.6,-22 25.9,-37.1 C 859.5,523.6 854,468.7 823.3,427.9 794.6,389.7 747.7,368.7 700.8,373 z" />
  <path style="fill:#fedc00;stroke:none;fill-opacity:1" inkscape:connector-curvature="0" id="path12" d="m 628.6,553.2 c -4.1,7.3 -104.5,194.4 -105.2,196.2 -0.6,1.5 2.7,1.6 39,1.6 21.8,0 39.6,0.4 39.6,0.8 0,0.5 -18.7,35.9 -41.6,78.8 -44,82.4 -48.2,90.5 -46.6,88.9 0.6,-0.6 40.7,-48.3 89.1,-106 l 88,-105 -41.9,-0.3 c -23.1,-0.1 -42,-0.6 -42,-1 0,-0.4 19.3,-35.8 42.9,-78.7 23.5,-42.9 42.6,-78.3 42.4,-78.8 -0.2,-0.4 -14.1,-0.7 -30.8,-0.7 l -30.4,0 -2.5,4.2 z" />
  <path style="fill:#80d3ff;stroke:none;fill-opacity:1" inkscape:connector-curvature="0" id="path14" d="m 461.5,712.6 c -36.4,19.2 -53.6,30.2 -65.8,42.2 -12.4,12.2 -17,22.4 -17,37.7 0,43.4 51.3,66.5 84.1,37.9 14.5,-12.7 19.9,-30.8 20.9,-70.9 0.6,-22.3 -0.4,-57.5 -1.6,-57.5 -0.3,0 -9.6,4.8 -20.6,10.6 z m -6.5,64.1 c -2,21.8 -5.4,30.2 -14.3,35.3 -15.5,8.9 -34,-1.8 -34,-19.5 0,-12.5 8.2,-21.1 36.5,-38 l 12.3,-7.4 0.3,8.7 c 0.2,4.8 -0.2,14.2 -0.8,20.9 z" />
  <path style="fill:#80d3ff;stroke:none;fill-opacity:1" inkscape:connector-curvature="0" id="path16" d="m 789.5,711.6 c -39.3,20.8 -54.8,30.7 -67.6,43.4 -9,8.9 -12.5,14.4 -15.4,24.4 -7.6,26.1 9.2,55.1 36,62.1 13,3.3 29.2,0.8 40.5,-6.5 20.3,-13 27,-35.2 27,-89.1 0,-23.6 -0.9,-43.9 -1.9,-43.8 -0.3,0 -8.7,4.3 -18.6,9.5 z m -8.5,65.9 c -1.9,21.1 -5.5,29.8 -14.5,34.7 -11.4,6.3 -25.8,1.9 -31.7,-9.5 -3.1,-6.1 -2.8,-15.2 0.5,-21 4.6,-7.8 17.1,-17.6 37.7,-29.4 l 8.5,-4.9 0.3,9 c 0.2,5 -0.1,14.5 -0.8,21.1 z" />
  <path style="fill:#80d3ff;stroke:none;fill-opacity:1" inkscape:connector-curvature="0" id="path18" d="m 356.5,852.6 c -29.9,16.1 -44.3,27.1 -49.5,37.9 -2,4.1 -2.4,6.6 -2.5,14 0,7.7 0.4,9.8 2.6,14.6 3.4,7.2 9.6,13.4 16.8,16.8 4.8,2.2 6.9,2.6 14.6,2.6 10.8,0 15.9,-2 23.3,-8.9 10.5,-9.9 13.2,-21.9 13.2,-59.7 0,-20.1 -0.3,-25.9 -1.2,-25.9 -0.7,0 -8.5,3.9 -17.3,8.6 z m -0.9,49 c -1.7,9.9 -4.4,14.7 -9.7,17.4 -10.6,5.5 -22.5,-1 -23.7,-12.9 -0.9,-9.3 4.5,-15.2 25.5,-27.9 l 8.8,-5.3 0.3,10.1 c 0.1,5.8 -0.4,13.8 -1.2,18.6 z" />
  <path style="fill:#80d3ff;stroke:none;fill-opacity:1" inkscape:connector-curvature="0" id="path20" d="m 682.5,852.6 c -30.6,16.4 -43.3,26.1 -48.7,37.2 -2.9,5.9 -3.3,7.6 -3.3,15.2 0,7.1 0.4,9.4 2.6,14.1 3.4,7.2 9.6,13.4 16.8,16.8 7.5,3.5 21.1,3.7 28.3,0.4 5.3,-2.4 12.8,-9 15.7,-13.7 3.4,-5.4 6.1,-17.5 7.1,-31.5 1.1,-16.1 0.2,-47.1 -1.4,-47.1 -0.6,0.1 -8.3,3.9 -17.1,8.6 z m -0.5,47.8 c -1.4,9.1 -4,14.7 -8,17.6 -3.9,2.8 -11.7,3.8 -16,2 -4.2,-1.7 -8.8,-7.3 -9.6,-11.5 -1.9,-10.6 4.9,-18.5 27.4,-31.5 l 6.7,-3.9 0.3,10.2 c 0.1,5.6 -0.2,13.3 -0.8,17.1 z" />
  <path style="fill:#7b7b7b;fill-opacity:1;stroke:none" d="m 326.71218,570.82328 c -23.8337,-5.49218 -56.32409,-27.20466 -75.61096,-50.52889 -49.17699,-59.47128 -59.89619,-142.29167 -28.1072,-217.16614 21.52895,-50.7084 68.99628,-90.94212 114.85071,-97.34844 l 16.93728,-2.36629 -16.86293,22.15064 c -19.44983,25.54871 -38.58627,68.92905 -45.16198,102.37756 -6.46482,32.88444 -5.99226,94.76336 0.95741,125.36505 10.07633,44.36954 24.86973,76.579 48.86067,106.38366 11.45685,14.23321 11.69459,14.96071 4.76903,14.59375 -4.0089,-0.21239 -13.29332,-1.76982 -20.63203,-3.4609 z" id="path3757" inkscape:connector-curvature="0" />
</svg>
