<?xml version="1.0" encoding="UTF-8" standalone="no"?>
<svg xmlns:dc="http://purl.org/dc/elements/1.1/" xmlns:cc="http://creativecommons.org/ns#" xmlns:rdf="http://www.w3.org/1999/02/22-rdf-syntax-ns#" xmlns:svg="http://www.w3.org/2000/svg" xmlns="http://www.w3.org/2000/svg" xmlns:sodipodi="http://sodipodi.sourceforge.net/DTD/sodipodi-0.dtd" xmlns:inkscape="http://www.inkscape.org/namespaces/inkscape" version="1.0" width="1024.000000pt" height="1024.000000pt" viewBox="0 0 1024.000000 1024.000000" preserveAspectRatio="xMidYMid meet" id="svg2" inkscape:version="0.48.5 r10040" sodipodi:docname="2239999.svg">
  <defs id="defs24" />
  <sodipodi:namedview pagecolor="#ffffff" bordercolor="#666666" borderopacity="1" objecttolerance="10" gridtolerance="10" guidetolerance="10" inkscape:pageopacity="0" inkscape:pageshadow="2" inkscape:window-width="882" inkscape:window-height="584" id="namedview22" showgrid="false" inkscape:zoom="0.184375" inkscape:cx="640" inkscape:cy="640" inkscape:window-x="499" inkscape:window-y="384" inkscape:window-maximized="0" inkscape:current-layer="svg2" />
  <metadata id="metadata4">
Created by potrace 1.11, written by Peter Selinger 2001-2013
<rdf:RDF>
  <cc:Work rdf:about="">
    <dc:format>image/svg+xml</dc:format>
    <dc:type rdf:resource="http://purl.org/dc/dcmitype/StillImage" />
  </cc:Work>
</rdf:RDF>
</metadata>
  <path style="fill:#80d3ff;stroke:none;fill-opacity:1" inkscape:connector-curvature="0" id="path12" d="m 553.5,708.1 c -38,20.4 -48.7,29.4 -53.1,44.5 -7,24.1 16.4,48.2 40.7,41.9 20.4,-5.2 28,-18.9 29.6,-53.5 0.6,-13.9 -0.4,-41 -1.6,-41 -0.3,0 -7.3,3.7 -15.6,8.1 z m -0.9,33.1 c -0.9,15.5 -2.2,23.3 -4.8,27.8 -5.5,9.9 -17.7,11.3 -25.9,3.1 -7.8,-7.7 -5.8,-18.2 5,-26.8 4.8,-3.8 24.7,-16.3 25.9,-16.3 0.3,0 0.2,5.5 -0.2,12.2 z" />
  <path style="fill:#80d3ff;stroke:none;fill-opacity:1" inkscape:connector-curvature="0" id="path14" d="M 424.5,712.7 C 360,746.6 342,764 342,792.5 c 0,13.9 5,25.7 14.9,35.5 20,19.6 50.1,20.1 70.5,1 15.7,-14.8 20,-33.5 19.8,-87.3 -0.1,-30.3 -0.5,-39.8 -2,-39.6 -0.4,0 -9.7,4.8 -20.7,10.6 z m -5.1,48.5 c -0.6,14.5 -2.5,30.2 -4.4,37 -2.8,9.7 -12.1,16.8 -22,16.8 -12.6,0 -22,-8.8 -22.8,-21.4 -0.7,-10.7 4.6,-18.2 20.3,-28.9 7.4,-5.1 27.7,-17.6 28.7,-17.6 0.4,-0.1 0.5,6.3 0.2,14.1 z" />
  <path style="fill:#80d3ff;stroke:none;fill-opacity:1" inkscape:connector-curvature="0" id="path16" d="m 717,710.1 c -45.9,23.9 -69,39.9 -79.1,54.5 -13.5,19.7 -10.2,47.6 7.5,64.2 20.6,19.3 50.9,18.9 70.6,-0.8 14.3,-14.3 19,-34.5 19,-82.1 0,-23.6 -0.9,-43.9 -1.9,-43.9 -0.3,0 -7.6,3.7 -16.1,8.1 z m -10.3,54.1 c -1.1,30.8 -4.8,42.4 -15.6,48 -15.7,8.2 -33.4,-2.2 -33.4,-19.7 0,-12.8 8.3,-21.3 38.3,-39.2 5.8,-3.4 10.7,-6.3 10.9,-6.3 0.2,0 0.1,7.8 -0.2,17.2 z" />
  <path style="fill:#80d3ff;stroke:none;fill-opacity:1" inkscape:connector-curvature="0" id="path18" d="M 595.5,807.4 C 529.9,841.1 510,860 510,888.5 c 0,13.2 5.3,25.8 15,35.5 22.7,22.7 59.6,19.2 77.8,-7.2 10,-14.6 13.9,-42.8 12.6,-91.6 -0.4,-14.4 -1,-26.4 -1.3,-26.7 -0.4,-0.2 -8.8,3.8 -18.6,8.9 z m -7.9,50.3 c -1.6,34.2 -5.6,46.1 -17.1,51.4 -10.8,5 -24.3,0.5 -29.7,-10 -6.4,-12.3 -2.5,-23 12.7,-34.6 6.3,-4.8 32.9,-21.5 34.3,-21.5 0.2,0 0.2,6.6 -0.2,14.7 z" />
  <path style="fill:#80d3ff;stroke:none;fill-opacity:1" inkscape:connector-curvature="0" id="path20" d="m 435.5,852.6 c -30.4,16.3 -44,26.8 -49.3,38.1 -2.3,4.9 -2.7,7.1 -2.7,14.3 0.1,10.6 3.1,17.4 10.5,24.4 7.6,7.1 12.7,9.1 23.5,9.1 10.8,0 15.9,-2 23.5,-9.1 8.5,-7.9 12.1,-19 13.6,-42.1 0.9,-13.7 -0.4,-43.3 -2,-43.3 -0.6,0.1 -8.3,3.9 -17.1,8.6 z m 1,31.1 c -1.3,22.3 -3.4,30 -9.5,34.3 -8.9,6.4 -21.8,1.9 -25,-8.7 -3.2,-10.7 3.5,-18.7 26.8,-32.4 3.7,-2.1 7.1,-3.9 7.5,-3.9 0.5,0 0.6,4.8 0.2,10.7 z" />
  <path style="fill:#dcdcdc;fill-opacity:1;stroke:none" inkscape:connector-curvature="0" id="path10-8" d="m 535.26873,303.25497 c -50.6,4.4 -99.1,33.89999 -125.3,76.09999 l -4.2,6.8 -9.1,0 c -11.4,0 -25.3,2.3 -36.9,6.2 -17.9,6 -32.1,14.6 -45.9,27.8 -25.60002,24.5 -38.70002,54.8 -38.70002,89.5 0,28.2 8.1,52.4 24.80002,74.6 18.4,24.4 42.8,39.9 74,47.1 l 9.8,2.2 161.5,0.4 c 168.19999,0.3 174.89999,0.2 190.59999,-3.9 28.8,-7.5 54.6,-28.9 67.9,-56.3 6.8,-14 9.6,-25.4 10.2,-42.1 0.6,-16.5 -1.5,-29.1 -7.2,-43.3 -15.1,-37.3 -49.7,-62.9 -89.4,-66 l -8.3,-0.7 -3.3,-9 c -8.7,-24.2 -23.09999,-46.3 -41.49999,-63.9 -28,-26.7 -62.6,-42.19999 -102,-45.59999 -12.7,-1.1 -13.4,-1.1 -27,0.1 z m 42.5,55.29999 c 12.5,3.3 29.7,11.6 40.2,19.5 14.6,11 26.6,25.8 34.6,42.9 5.8,12.5 5.7,12.8 -3.8,19.3 -9.1,6.2 -12.9,11.4 -14.7,19.9 -2.8,13.6 7.1,27.4 21.7,30.1 6.5,1.2 13.1,-0.6 21.4,-6 9.9,-6.3 17.59999,-9 27.19999,-9.8 26.8,-2.1 50.8,16 56.4,42.4 1.8,8.6 1.8,13 0,21.8 -4.2,20 -21.3,37.4 -40.7,41.4 -3.7,0.8 -53.99999,1.1 -170.29999,0.9 l -165,-0.3 -8,-2.8 c -19.5,-6.9 -33,-18.6 -42,-36.5 -9.9,-19.9 -9.9,-42.3 0.1,-63.1 7.8,-16.1 23.8,-30.2 40.9,-36.1 18.7,-6.4 41.9,-4 59.3,6.2 5.9,3.4 17.8,14.7 24.6,23.2 12.2,15.2 36.6,11.7 44.4,-6.3 2.4,-5.6 2,-15.7 -0.8,-21.1 -5.7,-11.1 -24,-29.9 -36.8,-38 -3.9,-2.5 -7.2,-5 -7.2,-5.6 0,-2.2 15.8,-18 23.7,-23.6 14.6,-10.5 32.9,-18.1 49.8,-20.8 3.3,-0.5 12.5,-0.7 20.5,-0.5 11.5,0.3 16.6,0.9 24.5,2.9 z" />
  <path style="fill:#dcdcdc;fill-opacity:1;stroke:none" inkscape:connector-curvature="0" id="path8-5" d="m 392.82529,138.43081 c -1.9,0.2 -7.8,0.9 -13,1.5 -5.2,0.6 -15.4,2.6 -22.6,4.4 -110.00002,28.1 -172.80002,142.70001 -137.40002,250.8 4.9,14.7 13.7,33 22,45.6 l 6.3,9.4 4.9,-9.9 c 19.4,-38.8 52.20002,-68.4 92.30002,-83.4 10.6,-4 26.4,-8.2 35.6,-9.5 4,-0.5 5,-1.2 8.5,-5.7 5.5,-7.3 21.5,-23.1 30.9,-30.69999 30,-24.2 70.2,-41.00001 107.7,-45.00001 13,-1.5 40.1,-1.3 51.8,0.3 5.2,0.7 9.7,1.2 9.8,1 0.6,-0.4 -7.8,-19.5 -11.6,-26.4 -9.9,-17.9 -22.5,-34.3 -37.5,-48.6 -35.1,-33.5 -80.4,-52.3 -129.4,-53.8 -8.2,-0.2 -16.4,-0.2 -18.3,0 z" />
  <path inkscape:connector-curvature="0" style="fill:#7b7b7b;fill-opacity:1;stroke:none" d="m 397.34729,157.93032 -20.85543,5.07607 c -48.33932,5.76119 -99.89477,47.84816 -122.59043,93.44973 -27.88469,56.02784 -24.73532,116.99 6.97299,166.69892 16.39071,-23.01044 38.10283,-41.9322 63.50404,-55.41922 -3.07752,-28.82515 -2.11821,-66.46303 3.07144,-88.98223 6.93207,-30.07988 27.08956,-69.09545 47.59336,-92.07118 z" id="path8-0-7" sodipodi:nodetypes="ccsccscc" />
</svg>
