<?xml version="1.0" encoding="UTF-8" standalone="no"?>
<svg xmlns:dc="http://purl.org/dc/elements/1.1/" xmlns:cc="http://creativecommons.org/ns#" xmlns:rdf="http://www.w3.org/1999/02/22-rdf-syntax-ns#" xmlns:svg="http://www.w3.org/2000/svg" xmlns="http://www.w3.org/2000/svg" xmlns:sodipodi="http://sodipodi.sourceforge.net/DTD/sodipodi-0.dtd" xmlns:inkscape="http://www.inkscape.org/namespaces/inkscape" version="1.0" width="1024.000000pt" height="1024.000000pt" viewBox="0 0 1024.000000 1024.000000" preserveAspectRatio="xMidYMid meet" id="svg2" inkscape:version="0.48.5 r10040" sodipodi:docname="2129999.svg">
  <defs id="defs22" />
  <sodipodi:namedview pagecolor="#ffffff" bordercolor="#666666" borderopacity="1" objecttolerance="10" gridtolerance="10" guidetolerance="10" inkscape:pageopacity="0" inkscape:pageshadow="2" inkscape:window-width="865" inkscape:window-height="561" id="namedview20" showgrid="false" inkscape:zoom="0.184375" inkscape:cx="640" inkscape:cy="640" inkscape:window-x="1167" inkscape:window-y="307" inkscape:window-maximized="0" inkscape:current-layer="svg2" />
  <metadata id="metadata4">
Created by potrace 1.11, written by Peter Selinger 2001-2013
<rdf:RDF>
  <cc:Work rdf:about="">
    <dc:format>image/svg+xml</dc:format>
    <dc:type rdf:resource="http://purl.org/dc/dcmitype/StillImage" />
  </cc:Work>
</rdf:RDF>
</metadata>
  <path style="fill:#80d3ff;stroke:none;fill-opacity:1" inkscape:connector-curvature="0" id="path12" d="m 444.5,712.6 c -36.3,19.1 -52.3,29.4 -65.7,42.2 -9.4,9 -15.1,19.4 -16.8,30.6 -3.8,24.9 12.8,49.6 37.7,56.1 12.8,3.3 29.1,0.7 40.3,-6.5 20.3,-13 27,-35.2 27,-89.1 0,-23.6 -0.9,-43.9 -1.9,-43.8 -0.3,0 -9.6,4.7 -20.6,10.5 z m -5.8,51.6 c -0.7,21.3 -2.8,32.8 -7.1,40 -9.1,15.2 -31.6,14.3 -39.8,-1.6 -2.9,-5.6 -2.9,-14.6 0,-20.2 3.8,-7.4 16.5,-17.5 38.2,-30.2 4.7,-2.8 8.7,-5.1 8.9,-5.1 0.2,-0.1 0.1,7.7 -0.2,17.1 z" />
  <path style="fill:#80d3ff;stroke:none;fill-opacity:1" inkscape:connector-curvature="0" id="path14" d="m 753.5,712.6 c -36.3,19.1 -52.3,29.4 -65.7,42.2 -9.4,9 -15.1,19.4 -16.8,30.6 -3.8,24.9 12.8,49.6 37.7,56.1 12.8,3.3 29.1,0.7 40.3,-6.5 20.3,-13 27,-35.2 27,-89.1 0,-23.6 -0.9,-43.9 -1.9,-43.8 -0.3,0 -9.6,4.7 -20.6,10.5 z m -5.8,51.6 c -0.7,21.3 -2.8,32.8 -7.1,40 -9.1,15.2 -31.6,14.3 -39.8,-1.6 -2.9,-5.6 -2.9,-14.6 0,-20.2 3.8,-7.4 16.5,-17.5 38.2,-30.2 4.7,-2.8 8.7,-5.1 8.9,-5.1 0.2,-0.1 0.1,7.7 -0.2,17.1 z" />
  <path style="fill:#80d3ff;stroke:none;fill-opacity:1" inkscape:connector-curvature="0" id="path16" d="m 339.5,852.6 c -29.9,16.1 -44.3,27.1 -49.5,37.9 -2,4.1 -2.4,6.6 -2.5,14 0,7.7 0.4,9.8 2.6,14.6 3.4,7.2 9.6,13.4 16.8,16.8 4.8,2.2 6.9,2.6 14.6,2.6 10.8,0 15.9,-2 23.3,-8.9 11.2,-10.5 14.2,-27 13.4,-72.4 -0.1,-9.8 -0.5,-13.2 -1.4,-13.2 -0.7,0 -8.5,3.9 -17.3,8.6 z m -0.5,46.9 c -1.3,10.4 -4.3,16.3 -9.5,19.2 -10.9,6.1 -23.3,-0.5 -24.3,-12.9 -0.3,-4.6 0,-5.9 2.5,-9.6 3.3,-4.9 11,-10.9 23.3,-18.2 l 8.5,-5.1 0.3,9.3 c 0.2,5.1 -0.2,12.9 -0.8,17.3 z" />
  <path style="fill:#80d3ff;stroke:none;fill-opacity:1" inkscape:connector-curvature="0" id="path18" d="m 648.5,852.6 c -29.9,16.1 -44.3,27.1 -49.5,37.9 -2,4.1 -2.4,6.6 -2.5,14 0,7.7 0.4,9.8 2.6,14.6 3.4,7.2 9.6,13.4 16.8,16.8 4.8,2.2 6.9,2.6 14.6,2.6 10.8,0 15.9,-2 23.3,-8.9 11.2,-10.5 14.2,-27 13.4,-72.4 -0.1,-9.8 -0.5,-13.2 -1.4,-13.2 -0.7,0 -8.5,3.9 -17.3,8.6 z m -0.5,46.9 c -1.3,10.4 -4.3,16.3 -9.5,19.2 -10.9,6.1 -23.3,-0.5 -24.3,-12.9 -0.3,-4.6 0,-5.9 2.5,-9.6 3.3,-4.9 11,-10.9 23.3,-18.2 l 8.5,-5.1 0.3,9.3 c 0.2,5.1 -0.2,12.9 -0.8,17.3 z" />
  <path style="fill:#dcdcdc;fill-opacity:1;stroke:none" inkscape:connector-curvature="0" id="path8-8" d="m 378.20941,174.07016 c -34.3,3.4 -55.8,9.1 -82.5,22 -65.9,31.8 -111.3,95.2 -121.1,169.4 -1.8,13.4 -1.5,43 0.5,56.5 6,39.6 22.1,76.6 46.3,106.5 8.1,10 27.8,29.1 38.1,36.9 22.4,16.9 48.6,29.7 76.2,37 20.8,5.5 29.2,6.5 55.5,6.5 20.6,0.1 25.8,-0.2 36.5,-2.2 11.6,-2 32.1,-7.4 34.8,-9.1 0.8,-0.4 0.3,-3.1 -1.8,-9.2 -15,-44.6 -7.6,-94.6 19.6,-132.5 7.9,-11 14.8,-18.7 23.4,-26.1 18.3,-15.7 41.8,-27.8 63.9,-32.8 6.4,-1.5 7,-1.9 16.1,-11.1 5.2,-5.2 12.7,-12.1 16.7,-15.2 8.4,-6.6 8.3,-6 5.3,-21 -6.5,-32.5 -20.3,-63.3 -40.1,-89.4 -8.2,-10.8 -27.2,-30.2 -37.9,-38.8 -30,-23.9 -66.9,-39.9 -105.1,-45.5 -10.7,-1.5 -36.9,-2.7 -44.4,-1.9 z" />
  <path style="fill:#dcdcdc;fill-opacity:1;stroke:none" inkscape:connector-curvature="0" id="path10-0" d="m 700.50941,374.47016 c -23.1,2.2 -45.3,10.1 -65.1,23.3 -10.9,7.3 -28.1,24.1 -35,34.3 l -4.9,7.1 -8.9,0.7 c -44.8,3.4 -82.8,35.2 -94.6,79.1 -2.3,8.8 -2.6,12 -2.7,26 -0.1,13.8 0.3,17.3 2.3,25 5.2,20 14,35.5 28,49.6 15.8,15.8 33.2,25.2 55.1,29.6 6.3,1.3 18.2,1.5 76,1.4 67.5,-0.2 80.7,-0.7 92.5,-3.7 28,-7 49,-19 68.2,-38.7 11.7,-12.1 18.6,-22 25.9,-37.1 21.9,-46 16.4,-100.9 -14.3,-141.7 -28.7,-38.2 -75.6,-59.2 -122.5,-54.9 z m 32.2,58.6 c 23.9,6.1 44.8,24 54.9,46.9 5.6,12.6 7.7,33.3 5,48.1 -5.6,30.6 -32.3,57.6 -62.9,63.7 -10.2,2.1 -134,3.5 -144,1.7 -15.5,-2.8 -28.8,-13.1 -35.7,-27.7 -3.5,-7.2 -3.8,-8.6 -4.1,-18.3 -0.3,-8.8 0,-11.6 1.8,-17 5.5,-16.4 19.3,-29.1 35.9,-33 6.9,-1.6 21.1,-0.8 27.1,1.6 6.6,2.6 14.4,7.8 18.3,12.1 1.9,2.1 5.6,6.1 8.1,9 8.2,8.9 17.6,11.8 28.7,8.7 5.3,-1.5 7.3,-2.7 12,-7.3 4.6,-4.7 5.8,-6.7 7.3,-12 1.9,-6.8 1.6,-12.7 -1,-18.9 -3,-7.3 -15.7,-21.6 -26.1,-29.4 l -5.6,-4.3 5.9,-5.3 c 10.8,-9.8 24.9,-16.9 39.9,-19.8 8.7,-1.7 25.5,-1.1 34.5,1.2 z" />
  <path style="fill:#7b7b7b;fill-opacity:1;stroke:none" d="M 342.28439,577.10434 C 317.16846,571.5926 282.93006,549.80276 262.60556,526.39541 210.78277,466.7123 199.48685,383.59682 232.98611,308.45564 c 22.68727,-50.88911 72.70833,-91.26612 121.02981,-97.69532 l 17.84854,-2.37467 -17.77019,22.2295 c -20.49625,25.63976 -40.66223,69.17463 -47.59175,102.74229 -6.81264,33.00166 -6.31468,95.10104 1.00891,125.81174 10.61848,44.52756 26.20772,76.85178 51.48943,106.76266 12.07324,14.28389 12.32377,15.014 5.02562,14.64568 -4.22462,-0.2131 -14.00854,-1.77612 -21.74209,-3.47318 z" id="path3757" inkscape:connector-curvature="0" />
</svg>
