<?xml version="1.0" encoding="UTF-8" standalone="no"?>
<svg xmlns:dc="http://purl.org/dc/elements/1.1/" xmlns:cc="http://creativecommons.org/ns#" xmlns:rdf="http://www.w3.org/1999/02/22-rdf-syntax-ns#" xmlns:svg="http://www.w3.org/2000/svg" xmlns="http://www.w3.org/2000/svg" xmlns:sodipodi="http://sodipodi.sourceforge.net/DTD/sodipodi-0.dtd" xmlns:inkscape="http://www.inkscape.org/namespaces/inkscape" version="1.0" width="1024.000000pt" height="1024.000000pt" viewBox="0 0 1024.000000 1024.000000" preserveAspectRatio="xMidYMid meet" id="svg2" inkscape:version="0.48.5 r10040" sodipodi:docname="2399959.svg">
  <defs id="defs28" />
  <sodipodi:namedview pagecolor="#ffffff" bordercolor="#666666" borderopacity="1" objecttolerance="10" gridtolerance="10" guidetolerance="10" inkscape:pageopacity="0" inkscape:pageshadow="2" inkscape:window-width="836" inkscape:window-height="480" id="namedview26" showgrid="false" inkscape:zoom="0.184375" inkscape:cx="640" inkscape:cy="640" inkscape:window-x="1718" inkscape:window-y="588" inkscape:window-maximized="0" inkscape:current-layer="svg2" />
  <metadata id="metadata4">
Created by potrace 1.11, written by Peter Selinger 2001-2013
<rdf:RDF>
  <cc:Work rdf:about="">
    <dc:format>image/svg+xml</dc:format>
    <dc:type rdf:resource="http://purl.org/dc/dcmitype/StillImage" />
  </cc:Work>
</rdf:RDF>
</metadata>
  <path style="fill:#80d3ff;stroke:none;fill-opacity:1" inkscape:connector-curvature="0" id="path14" d="m 224.6,713.2 c 0.4,0.7 10.2,15.8 21.7,33.6 17,26.2 21.2,32.1 22.3,31 1.5,-1.6 42.4,-64.5 42.4,-65.3 0,-0.3 -19.6,-0.5 -43.6,-0.5 -34.5,0 -43.4,0.3 -42.8,1.2 z m 54.1,19 c -1.3,2.4 -4.3,7.6 -6.7,11.6 -2.3,4.1 -4.5,7 -5,6.5 -1,-1.1 -13,-21.3 -13,-21.8 0,-0.3 6.1,-0.5 13.6,-0.5 l 13.6,0 -2.5,4.2 z" />
  <path style="fill:#80d3ff;stroke:none;fill-opacity:1" inkscape:connector-curvature="0" id="path16" d="m 752,712.5 c 0,0.8 40.9,63.7 42.4,65.3 1.1,1.1 5.3,-4.8 22.3,-31 11.5,-17.8 21.3,-32.9 21.7,-33.6 0.6,-0.9 -8.3,-1.2 -42.8,-1.2 -24,0 -43.6,0.2 -43.6,0.5 z m 56,16.2 c 0,0.3 -2.8,5.5 -6.1,11.5 -5,8.9 -6.4,10.7 -7.4,9.6 -0.7,-0.7 -4,-5.9 -7.3,-11.6 l -6.1,-10.2 13.4,0 c 7.4,0 13.5,0.3 13.5,0.7 z" />
  <path style="fill:#fedc00;stroke:none;fill-opacity:1" inkscape:connector-curvature="0" id="path18" d="m 373.2,765.7 -22.1,52.8 36,0.3 35.9,0.2 -27.1,54.3 c -14.9,29.8 -26.6,53.7 -26.1,53.2 0.6,-0.6 24.5,-34.1 53.1,-74.5 32.8,-46.3 51.6,-73.6 50.7,-73.8 -0.7,-0.2 -14.4,-0.6 -30.3,-1 l -29,-0.7 14.8,-31 c 8.2,-17.1 14.8,-31.3 14.9,-31.8 0,-0.4 -10.9,-0.7 -24.3,-0.7 l -24.3,0 -22.2,52.7 z" />
  <path style="fill:#fedc00;stroke:none;fill-opacity:1" inkscape:connector-curvature="0" id="path20" d="m 620.5,716.2 c -0.7,1.8 -9.2,21.6 -18.8,44 l -17.5,40.8 38.9,0 38.9,0 -31.5,63 c -17.3,34.6 -31.3,63 -31.1,63 0.6,0 125,-160.7 125.4,-162 0.2,-0.6 -13.4,-1 -38.2,-1 -21.2,0 -38.6,-0.2 -38.6,-0.6 0,-0.3 4.1,-9.4 9.1,-20.2 5.1,-10.8 10.2,-22.1 11.5,-25 l 2.4,-5.2 -24.6,0 -24.5,0 -1.4,3.2 z" />
  <path style="fill:#80d3ff;stroke:none;fill-opacity:1" inkscape:connector-curvature="0" id="path22" d="m 193.6,798.2 c 0.4,0.7 17.2,26.6 37.3,57.6 32.8,50.6 36.7,56.1 37.9,54.5 3,-4 73.2,-112.1 73.2,-112.7 0,-0.3 -33.6,-0.6 -74.6,-0.6 -59.3,0 -74.4,0.3 -73.8,1.2 z m 110.2,21 c -11.2,17.5 -36.2,55.7 -36.4,55.5 -0.1,-0.2 -20.5,-31.5 -32.1,-49.5 l -5.3,-8.2 37.6,0 37.6,0 -1.4,2.2 z" />
  <path style="fill:#80d3ff;stroke:none;fill-opacity:1" inkscape:connector-curvature="0" id="path24" d="m 721,797.6 c 0,0.7 71.8,111.4 73.4,113.1 0.9,1 9.6,-11.7 37.7,-55 20.2,-30.9 36.9,-56.8 37.3,-57.5 0.6,-0.9 -14.5,-1.2 -73.8,-1.2 -41,0 -74.6,0.3 -74.6,0.6 z m 106.7,27.6 c -13.8,21.3 -32,49.3 -32.2,49.6 -0.1,0.1 -23.4,-35.5 -36.3,-55.6 l -1.4,-2.2 37.6,0 37.6,0 -5.3,8.2 z" />
  <path style="fill:#cccccc;stroke:none" inkscape:connector-curvature="0" id="path10-4" d="m 539.60771,304.88136 c -50.6,4.4 -99.1,33.9 -125.3,76.1 l -4.2,6.8 -9.1,0 c -11.4,0 -25.3,2.3 -36.9,6.2 -17.9,6 -32.1,14.6 -45.9,27.8 -25.6,24.5 -38.7,54.79999 -38.7,89.49999 0,28.2 8.1,52.4 24.8,74.6 18.6,24.7 43.4,40.3 74.5,47.1 9.8,2.1 12.6,2.2 55.2,2.2 l 44.9,0.1 13.3,-25.5 c 7.3,-14 13.3,-25.8 13.4,-26.2 0,-0.4 -26.2,-0.8 -58.2,-1 l -58.3,-0.3 -8,-2.8 c -19.5,-6.9 -33,-18.6 -42,-36.5 -9.9,-19.9 -9.9,-42.3 0.1,-63.1 7.8,-16.1 23.8,-30.2 40.9,-36.09999 18.7,-6.4 41.9,-4 59.3,6.19999 5.9,3.4 17.8,14.7 24.6,23.2 12.2,15.2 36.6,11.7 44.4,-6.3 2.4,-5.6 2,-15.7 -0.8,-21.09999 -5.7,-11.1 -24,-29.9 -36.8,-38 -3.9,-2.5 -7.2,-5 -7.2,-5.6 0,-2.2 15.8,-18 23.7,-23.6 21.8,-15.7 45.8,-22.8 72.8,-21.5 15.8,0.8 28.8,4.1 43.1,11.2 24.4,11.9 42.3,30 53.7,54.3 5.8,12.5 5.7,12.8 -3.8,19.3 -9.1,6.19999 -12.9,11.39999 -14.7,19.89999 -2.8,13.6 7.1,27.4 21.7,30.1 6.5,1.2 13.1,-0.6 21.4,-6 9.9,-6.3 17.6,-9 27.2,-9.8 26.8,-2.1 50.8,16 56.4,42.4 1.8,8.6 1.8,13 0,21.8 -4.1,19.5 -19.8,36 -39,41 -4.9,1.2 -14,1.5 -53.5,1.5 l -47.5,0 -13.2,25.8 c -7.3,14.3 -13,26.2 -12.6,26.5 1,1.1 113.9,0.8 123.8,-0.3 37.5,-4.2 68.9,-26.2 85,-59.4 6.8,-14 9.6,-25.4 10.2,-42.1 0.6,-16.5 -1.5,-29.1 -7.2,-43.3 -15.1,-37.3 -49.7,-62.89999 -89.4,-65.99999 l -8.3,-0.7 -3.3,-9 c -8.7,-24.2 -23.1,-46.3 -41.5,-63.9 -28,-26.7 -62.6,-42.2 -102,-45.6 -12.7,-1.1 -13.4,-1.1 -27,0.1 z" />
  <path style="fill:#fedc00;fill-opacity:1;stroke:none" inkscape:connector-curvature="0" id="path12-0" d="m 546.20771,559.98135 c -3,6.2 -24.9,51.2 -48.9,100 -23.9,48.8 -43.3,88.8 -43.2,89 0.2,0.2 16,0 35.1,-0.4 19.2,-0.4 35,-0.6 35.1,-0.4 0.1,0.1 -9.6,22 -21.7,48.7 -12.1,26.6 -22.3,49.2 -22.6,50.1 -0.5,1.7 0.8,1.8 17.3,1.9 9.8,0.1 23.9,0.4 31.4,0.8 l 13.6,0.6 -17.3,38.4 c -9.6,21.2 -17.2,38.6 -17,38.8 0.2,0.2 21.3,-23.2 46.9,-51.9 l 46.6,-52.3 -29.4,-0.3 c -16.2,-0.1 -29.5,-0.6 -29.5,-1 0,-0.4 10.8,-24.6 23.9,-53.7 l 23.9,-53 -27.8,-0.5 -27.8,-0.5 41.9,-82 c 23,-45.1 41.9,-82.3 41.9,-82.8 0,-0.4 -15.1,-0.7 -33.6,-0.7 l -33.5,0 -5.3,11.2 z" />
  <path style="fill:#dcdcdc;fill-opacity:1;stroke:none" inkscape:connector-curvature="0" id="path8-7" d="m 397.16428,140.05719 c -1.9,0.2 -7.8,0.9 -13,1.5 -5.2,0.6 -15.4,2.6 -22.6,4.4 -110.00002,28.1 -172.80002,142.70002 -137.40002,250.80002 4.9,14.7 13.7,33 22,45.6 l 6.3,9.39999 4.9,-9.89999 c 19.4,-38.8 52.20001,-68.4 92.30002,-83.4 10.6,-4 26.4,-8.2 35.6,-9.5 4,-0.5 5,-1.2 8.5,-5.7 5.5,-7.3 21.5,-23.1 30.9,-30.7 30,-24.2 70.2,-41.00001 107.7,-45.00001 13,-1.5 40.1,-1.3 51.8,0.3 5.2,0.7 9.7,1.2 9.8,1 0.6,-0.4 -7.8,-19.5 -11.6,-26.40001 -9.9,-17.9 -22.5,-34.3 -37.5,-48.6 -35.1,-33.5 -80.4,-52.3 -129.4,-53.8 -8.2,-0.2 -16.4,-0.2 -18.3,0 z" />
  <path inkscape:connector-curvature="0" style="fill:#7b7b7b;fill-opacity:1;stroke:none" d="m 403.85576,150.87873 -21.27316,5.28367 c -49.30756,5.99683 -101.89566,49.80512 -125.04591,97.27176 -28.44322,58.31931 -25.23077,121.77478 7.11266,173.51676 16.71902,-23.95154 38.86601,-43.64718 64.77601,-57.68582 -3.13916,-30.00407 -2.16064,-69.18132 3.13296,-92.62154 7.07092,-31.31013 27.63216,-71.92139 48.54668,-95.8368 z" id="path8-0" sodipodi:nodetypes="ccsccscc" />
  <path inkscape:connector-curvature="0" style="fill:#7b7b7b;fill-opacity:1;stroke:none" d="m 403.85576,150.87871 -21.27316,5.28367 c -49.30756,5.99683 -101.89566,49.80512 -125.04591,97.27176 -28.44322,58.31931 -25.23077,121.77478 7.11266,173.51676 16.71902,-23.95154 38.86601,-43.64718 64.77601,-57.68582 -3.13916,-30.00407 -2.16064,-69.18132 3.13296,-92.62154 7.07092,-31.31013 27.63216,-71.92139 48.54668,-95.8368 z" id="path8-0-7" sodipodi:nodetypes="ccsccscc" />
</svg>
