<?xml version="1.0" encoding="UTF-8" standalone="no"?>
<svg xmlns:dc="http://purl.org/dc/elements/1.1/" xmlns:cc="http://creativecommons.org/ns#" xmlns:rdf="http://www.w3.org/1999/02/22-rdf-syntax-ns#" xmlns:svg="http://www.w3.org/2000/svg" xmlns="http://www.w3.org/2000/svg" xmlns:sodipodi="http://sodipodi.sourceforge.net/DTD/sodipodi-0.dtd" xmlns:inkscape="http://www.inkscape.org/namespaces/inkscape" version="1.0" width="1024.000000pt" height="1024.000000pt" viewBox="0 0 1024.000000 1024.000000" preserveAspectRatio="xMidYMid meet" id="svg2" inkscape:version="0.48.5 r10040" sodipodi:docname="2119991.svg">
  <defs id="defs18" />
  <sodipodi:namedview pagecolor="#ffffff" bordercolor="#666666" borderopacity="1" objecttolerance="10" gridtolerance="10" guidetolerance="10" inkscape:pageopacity="0" inkscape:pageshadow="2" inkscape:window-width="836" inkscape:window-height="576" id="namedview16" showgrid="false" inkscape:zoom="0.184375" inkscape:cx="640" inkscape:cy="640" inkscape:window-x="480" inkscape:window-y="97" inkscape:window-maximized="0" inkscape:current-layer="svg2" />
  <metadata id="metadata4">
Created by potrace 1.11, written by Peter Selinger 2001-2013
<rdf:RDF>
  <cc:Work rdf:about="">
    <dc:format>image/svg+xml</dc:format>
    <dc:type rdf:resource="http://purl.org/dc/dcmitype/StillImage" />
  </cc:Work>
</rdf:RDF>
</metadata>
  <path style="fill:#80d3ff;stroke:none;fill-opacity:1" inkscape:connector-curvature="0" id="path14" d="m 581.5,713.1 c -48.5,25.5 -68.9,40.5 -76.9,56.3 -14.2,28.1 -0.2,61.7 29.5,71.1 18.8,5.9 38.1,1.3 52,-12.5 14.2,-14.2 18.9,-34.5 18.9,-82.1 0,-23.6 -0.9,-43.9 -1.9,-43.9 -0.3,0.1 -10,5 -21.6,11.1 z M 576,776 c -1.5,15.4 -3.5,23.9 -7,29.3 -9.4,14 -31.4,12.8 -39.2,-2.2 -2,-3.8 -2.8,-6.8 -2.8,-10.5 0.1,-12.3 8.4,-20.9 37.5,-38.3 l 12,-7.2 0.3,8.7 c 0.2,4.8 -0.2,13.9 -0.8,20.2 z" />
  <path style="fill:#dcdcdc;fill-opacity:1;stroke:none" inkscape:connector-curvature="0" id="path8-6" d="m 373.87042,174.07016 c -34.3,3.4 -55.8,9.1 -82.5,22 -65.89999,31.8 -111.29999,95.2 -121.09999,169.4 -1.8,13.4 -1.5,43 0.5,56.5 6,39.6 22.1,76.6 46.3,106.5 8.1,10 27.8,29.1 38.09999,36.9 22.4,16.9 48.6,29.7 76.2,37 20.8,5.5 29.2,6.5 55.5,6.5 20.6,0.1 25.8,-0.2 36.5,-2.2 11.6,-2 32.1,-7.4 34.8,-9.1 0.8,-0.4 0.3,-3.1 -1.8,-9.2 -15,-44.6 -7.6,-94.6 19.6,-132.5 7.9,-11 14.8,-18.7 23.4,-26.1 18.3,-15.7 41.8,-27.8 63.9,-32.8 6.4,-1.5 7,-1.9 16.1,-11.1 5.2,-5.2 12.7,-12.1 16.7,-15.2 8.4,-6.6 8.3,-6 5.3,-21 -6.5,-32.5 -20.3,-63.3 -40.1,-89.4 -8.2,-10.8 -27.2,-30.2 -37.9,-38.8 -30,-23.9 -66.9,-39.9 -105.1,-45.5 -10.7,-1.5 -36.9,-2.7 -44.4,-1.9 z" />
  <path style="fill:#dcdcdc;fill-opacity:1;stroke:none" inkscape:connector-curvature="0" id="path10-3" d="m 696.17042,374.47016 c -23.1,2.2 -45.3,10.1 -65.1,23.3 -10.9,7.3 -28.1,24.1 -35,34.3 l -4.9,7.1 -8.9,0.7 c -44.8,3.4 -82.8,35.2 -94.6,79.1 -2.3,8.8 -2.6,12 -2.7,26 -0.1,13.8 0.3,17.3 2.3,25 5.2,20 14,35.5 28,49.6 15.8,15.8 33.2,25.2 55.1,29.6 6.3,1.3 18.2,1.5 76,1.4 67.5,-0.2 80.7,-0.7 92.5,-3.7 28,-7 49,-19 68.2,-38.7 11.7,-12.1 18.6,-22 25.9,-37.1 21.9,-46 16.4,-100.9 -14.3,-141.7 -28.7,-38.2 -75.6,-59.2 -122.5,-54.9 z m 32.2,58.6 c 23.9,6.1 44.8,24 54.9,46.9 5.6,12.6 7.7,33.3 5,48.1 -5.6,30.6 -32.3,57.6 -62.9,63.7 -10.2,2.1 -134,3.5 -144,1.7 -15.5,-2.8 -28.8,-13.1 -35.7,-27.7 -3.5,-7.2 -3.8,-8.6 -4.1,-18.3 -0.3,-8.8 0,-11.6 1.8,-17 5.5,-16.4 19.3,-29.1 35.9,-33 6.9,-1.6 21.1,-0.8 27.1,1.6 6.6,2.6 14.4,7.8 18.3,12.1 1.9,2.1 5.6,6.1 8.1,9 8.2,8.9 17.6,11.8 28.7,8.7 5.3,-1.5 7.3,-2.7 12,-7.3 4.6,-4.7 5.8,-6.7 7.3,-12 1.9,-6.8 1.6,-12.7 -1,-18.9 -3,-7.3 -15.7,-21.6 -26.1,-29.4 l -5.6,-4.3 5.9,-5.3 c 10.8,-9.8 24.9,-16.9 39.9,-19.8 8.7,-1.7 25.5,-1.1 34.5,1.2 z" />
  <path style="fill:#7b7b7b;fill-opacity:1;stroke:none" d="m 337.9454,577.10434 c -25.11593,-5.51174 -59.35433,-27.30158 -79.67883,-50.70893 -51.82278,-59.68311 -63.1187,-142.79859 -29.61944,-217.93977 22.68727,-50.88911 72.70832,-91.26612 121.0298,-97.69532 l 17.84854,-2.37467 -17.77019,22.2295 c -20.49625,25.63976 -40.66223,69.17463 -47.59175,102.74229 -6.81264,33.00166 -6.31468,95.10104 1.00891,125.81174 10.61848,44.52756 26.20772,76.85178 51.48943,106.76266 12.07324,14.28389 12.32377,15.014 5.02562,14.64568 -4.22462,-0.2131 -14.00854,-1.77612 -21.74209,-3.47318 z" id="path3757" inkscape:connector-curvature="0" />
  <path style="fill:#ffffff;fill-opacity:1;stroke:none" d="m 763.65895,312.44128 c -1.01647,-1.1232 -1.9038,-8.05108 -1.93024,-15.0704 -0.008,-2.14511 -0.2584,-4.0508 -0.55624,-4.23488 -0.29787,-0.18407 -1.82328,0.86053 -3.38984,2.32129 -6.49912,6.06036 -11.24123,9.02763 -12.46752,7.80135 -1.03188,-1.03188 0.48376,-3.04343 8.67008,-11.50691 l 7.7288,-7.99052 0,-10.27333 c 0,-5.65032 -0.16272,-10.43604 -0.36159,-10.63488 -0.42865,-0.42868 -16.8658,8.00272 -18.15364,9.31189 -0.48845,0.49656 -2.04021,4.56383 -3.44839,9.03839 -2.5681,8.1608 -4.0193,11.65589 -5.5735,13.42372 -1.0273,1.16861 -1.4383,1.18437 -2.5258,0.0969 -1.201,-1.201 -1.0737,-2.81923 0.7162,-9.10066 2.2544,-7.91153 2.3606,-8.48862 1.5604,-8.48214 -0.3785,0.003 -4.32,1.83357 -8.75869,4.06777 -4.43868,2.23424 -8.51828,4.06224 -9.06568,4.06224 -0.54732,0 -1.25192,-0.47972 -1.56572,-1.06604 -0.85368,-1.59511 1.43192,-3.74784 7.8544,-7.39797 6.72632,-3.82275 8.49849,-5.05039 8.13659,-5.63603 -0.1556,-0.25176 -3.28279,-1.45748 -6.94927,-2.67936 -9.05832,-3.01868 -10.3992,-4.07028 -7.9808,-6.25892 1.405,-1.27152 3.11228,-0.98508 14.77837,2.47956 l 9.1686,2.72292 7.15205,-3.88424 c 3.93363,-2.13636 7.60475,-4.31832 8.158,-4.84884 1.94675,-1.86676 0.76683,-2.98028 -7.68017,-7.248 l -7.96988,-4.02668 -8.9491,2.66696 c -5.55967,1.65684 -10.18167,2.71208 -12.20339,2.7862 -3.16288,0.11592 -3.25888,0.0783 -3.4226,-1.33832 -0.2196,-1.90168 0.83092,-2.55552 8.14272,-5.0684 3.1928,-1.0972 6.2436,-2.32028 6.77967,-2.71789 0.9318,-0.69107 0.9269,-0.75895 -0.11,-1.53899 -0.59659,-0.4488 -3.29039,-2.03924 -5.98619,-3.53428 -7.2078,-3.99728 -9.57428,-5.83345 -9.3698,-7.27024 0.31972,-2.247 2.69272,-1.79861 10.7026,2.02224 7.11949,3.39612 9.26359,4.11752 9.26359,3.11683 0,-0.24659 -0.7265,-3.03547 -1.6143,-6.19752 -2.2448,-7.9944 -2.4845,-9.78414 -1.4276,-10.66129 1.4053,-1.16629 3.4514,-0.26617 4.6252,2.0348 0.5798,1.1365 2.3781,6.31905 3.9962,11.51678 l 2.94192,9.45044 9.43421,4.64739 9.4342,4.64737 0.14719,-10.85668 0.14716,-10.85668 -7.84548,-7.6212 c -4.315,-4.1917 -8.0712,-8.23139 -8.34708,-8.97715 -1.23108,-3.32776 1.35976,-3.6352 5.13764,-0.60964 1.44376,1.15621 4.45549,3.7046 6.6928,5.66305 l 4.06777,3.56086 0.40795,-8.51055 c 0.4644,-9.68792 0.8484,-11.95502 2.16564,-12.78592 0.71892,-0.45348 1.15041,-0.36894 1.89081,0.37044 0.83471,0.83353 0.98131,2.25912 1.12847,10.97385 0.093,5.50872 0.29741,10.0159 0.4542,10.0159 0.1568,0 2.76544,-2.34123 5.79696,-5.20271 6.55088,-6.18336 7.5112,-6.75472 9.03513,-5.37559 0.59783,0.54103 1.08695,1.20539 1.08695,1.47639 0,0.271 -3.6242,4.19925 -8.05379,8.72949 l -8.05377,8.23682 0.2586,10.98304 c 0.14224,6.04068 0.34557,10.98304 0.45188,10.98304 0.10629,0 4.0614,-2.19369 8.78908,-4.87489 l 8.59581,-4.87491 3.093,-10.69672 c 1.70116,-5.8832 3.48835,-11.13359 3.97151,-11.6675 1.08384,-1.19764 2.5176,-1.24721 3.45356,-0.11945 0.58924,0.71 0.4106,1.99261 -1.07652,7.72883 -2.55171,9.84244 -2.47256,9.3182 -1.40692,9.3182 0.51072,0 4.57988,-1.88168 9.04261,-4.18152 8.44296,-4.351 9.02968,-4.4696 10.458,-2.11357 0.78328,1.29189 -1.51608,3.20305 -8.91288,7.40817 -3.13224,1.78068 -6.16869,3.60107 -6.74773,4.04533 -1.02723,0.78807 -1.02808,0.82579 -0.0356,1.55148 0.55944,0.40907 3.89413,1.63266 7.41045,2.71907 6.51664,2.01347 7.50848,2.69987 7.50848,5.19648 0,0.6256 -0.31992,1.2602 -0.71096,1.41024 -0.39104,0.15008 -4.4792,-0.72269 -9.0848,-1.93945 -4.60549,-1.21679 -9.88781,-2.49315 -11.7384,-2.83639 l -3.36469,-0.62408 -7.21156,3.64236 c -3.96639,2.00332 -7.82176,4.11332 -8.56752,4.68892 -1.34159,1.03544 -1.34444,1.05523 -0.2712,1.8678 1.49552,1.13228 15.2234,8.4936 16.4258,8.80804 0.53657,0.14032 5.44224,-1.10244 10.90148,-2.76168 5.45921,-1.65921 10.62681,-3.01677 11.48361,-3.01677 1.47056,0 2.68064,1.20172 2.68064,2.66228 0,0.87185 -2.94928,2.27781 -9.76272,4.65397 -3.43049,1.19641 -6.23117,2.41932 -6.22372,2.71764 0.007,0.29832 3.22384,2.49492 7.14748,4.88137 8.23288,5.00736 9.48872,6.03211 9.26928,7.56327 -0.274,1.91095 -3.36088,1.12061 -11.73232,-3.00376 -4.27708,-2.10719 -7.917,-3.69081 -8.08868,-3.51912 -0.17168,0.17168 0.59244,3.74876 1.69807,7.94912 2.0656,7.84749 2.10884,9.31628 0.30268,10.28292 -0.87908,0.47048 -1.21408,0.28181 -2.10704,-1.18656 -1.12127,-1.84375 -7.07931,-19.22471 -7.07931,-20.65192 0,-0.45968 -1.64745,-1.80208 -3.66101,-2.98312 -7.10764,-4.16895 -14.15808,-7.76344 -14.41084,-7.34697 -0.14072,0.23185 -0.43428,4.8714 -0.65236,10.31009 l -0.39655,9.88853 6.98411,7.23415 c 7.121,7.37597 9.31792,10.39364 8.71345,11.9688 -0.71213,1.85588 -2.98441,0.96776 -7.28521,-2.84744 -2.31376,-2.05247 -4.92368,-4.49316 -5.79984,-5.42372 -0.87615,-0.93055 -1.7914,-1.69192 -2.03388,-1.69192 -0.24252,0 -0.44228,3.84409 -0.44392,8.5424 -0.004,11.43565 -0.90076,14.42232 -3.47576,11.57697 l 0,0 z" id="path2986-0" inkscape:connector-curvature="0" />
  <path style="fill:#ba381a;fill-opacity:1;stroke:none" sodipodi:nodetypes="ssccccccssscccsscccccccscscccsccccsscccccscccscssssscccccsccccsscsscccccscccsccccccccccscscscsccccccccccss" inkscape:connector-curvature="0" id="path14-9" d="m 757.16143,124.7227 c -36.56585,59.09145 -74.53364,120.25238 -119.89994,186.19998 -8.545,12.42161 -9.2,16.10001 -6.9,20.9 1.3,2.70001 2.8,3.90001 5.7,4.90001 3,1 30.3,1.19999 129.69994,1 125.4,-0.30001 125.8,-0.30001 128.5,-2.40001 3.3,-2.4 4.6,-6.29999 3.4,-10.29999 -1.2,-4.20001 -123.7,-194.99999 -127.6,-198.89999 -3.9,-3.7 -10.02124,-6.05217 -12.9,-1.4 z m 9.3,76.40001 c 0.8,0.8 1.2,4.79999 1.2,11.19999 l 0,9.99998 6.4,-6.29998 c 5.6,-5.5 6.7,-6.2 8,-5.1 0.9,0.7 1.6,1.7 1.6,2.4 0,0.6 -3.6,4.7 -8,9.09998 l -8.1,8.10001 0.3,10.6 0.3,10.69999 8.5,-4.8 8.5,-4.79999 1.7,-5.90001 c 0.9,-3.29999 2.4,-8.5 3.3,-11.69999 1.4,-4.89999 2,-5.69999 4.1,-5.69999 3,0 3.1,2.1 0.4,10.99999 -1.1,3.6 -2,6.6 -2,6.7 0,1 3.2,-0.3 10.2,-4.3 7.2,-4.1 8.2,-4.4 9.6,-3.1 2.4,2.5 0.9,4.2 -7.7,8.8 -4.5,2.3 -8.1,4.6 -8.1,5 0,0.4 2.6,1.5 5.8,2.4 3.1,0.79999 6.7,1.99999 8,2.49999 2.2,1 3,4.4 1.2,5.5 -0.5,0.3 -5.6,-0.8 -11.4,-2.5 -5.7,-1.6 -11.1,-3 -12,-3 -1.8,0 -17.6,8.2 -17.6,9.1 0,0.4 3.9,2.7 8.8,5.2 l 8.7,4.50001 11.5,-3.50001 c 10.7,-3.3 11.5,-3.4 12.7,-1.7 1.9,2.6 0,4.1 -8.3,6.60001 -4.1,1.1 -7.4,2.4 -7.4,2.7 0,0.4 3.7,2.7 8.2,5.09999 5.1,2.80001 8.4,5.2 8.6,6.40001 0.8,3.79999 -2.2,3.59999 -10.7,-0.90001 -4.6,-2.5 -8.7,-4.5 -9.1,-4.5 -0.5,0 0.3,3.7 1.7,8.10001 2.2,7.39999 2.3,8.3 0.9,9.7 -1.4,1.39999 -1.8,1.39999 -3,0.19999 -1.1,-1.09999 -7.6,-20.5 -7.6,-22.5 0,-0.39999 -16.7,-9.5 -17.4,-9.5 -0.3,0 -0.6,4.60001 -0.6,10.2 l 0,10.20001 8.1,8.2 c 8.1,8.29999 9.5,11.5 5.5,12.2 -1.2,0.3 -3.9,-1.60001 -7.7,-5.4 l -5.9,-5.8 0,9.39999 c 0,10.5 -0.9,13.20001 -3.7,11.40001 -1.5,-0.90001 -1.9,-2.90001 -2.3,-10.7 l -0.5,-9.70001 -6.2,5.5 c -6.2,5.60001 -10.3,7.10001 -10.3,3.70001 0,-0.9 3.8,-5.5 8.5,-10.20001 l 8.5,-8.5 0,-10.19999 c 0,-5.7 -0.2,-10.30001 -0.6,-10.30001 -0.3,0 -4.5,2.1 -9.4,4.7 l -8.8,4.8 -3.39996,10.90001 c -3.6,11.5 -5.6,14.2 -8.3,11.59999 -1.3,-1.39999 -1.2,-2.39999 1,-9.5 1.3,-4.39999 2.3,-8.09999 2.1,-8.3 -0.2,-0.2 -4.1,1.8 -8.69997,4.3 -8.8,4.80001 -11.2,5.30001 -11.7,2 -0.2,-1.69999 1.4,-3 8.3,-6.8 4.7,-2.59999 8.49997,-5 8.49997,-5.2 0,-0.3 -3.29997,-1.39999 -7.19997,-2.59999 -8.6,-2.5 -10.7,-4.10001 -8.8,-6.30001 1.7,-2.1 2.4,-2.1 14.5,1.5 l 10.39997,3.1 8.69996,-4.8 c 10,-5.4 10.1,-4.9 -2,-11.1 l -6.99996,-3.5 -10.49997,3.1 c -12.2,3.6 -13.7,3.7 -14.5,1.4 -1,-2.5 1.1,-3.9 9.3,-6.3 4,-1.19999 6.99997,-2.5 6.49997,-3 -0.5,-0.5 -4.39997,-2.69999 -8.59997,-5 -5.6,-3 -7.8,-4.69999 -7.8,-6.1 0,-3.5 2.8,-3.19999 11.5,1.40001 5.49997,3 8.49997,4.09999 8.49997,3.19999 0,-0.69999 -0.9,-4.29999 -2.1,-8 -2.2,-7.29998 -2,-9.49998 0.9,-9.49998 2.8,0 3.5,1.3 7.2,13.09999 l 3.19996,10.6 9.4,4.59999 9.4,4.7 0,-10.79999 0,-10.80001 -8.5,-7.79999 c -8.3,-7.59999 -10.1,-10.79999 -6.9,-11.99999 1.2,-0.4 3.9,1.3 8.5,5.5 l 6.9,6.1 0,-9.2 c 0,-11.19999 1.6,-14.99999 4.8,-11.79999 z" />
</svg>
