<?xml version="1.0" encoding="UTF-8" standalone="no"?>
<svg xmlns:dc="http://purl.org/dc/elements/1.1/" xmlns:cc="http://creativecommons.org/ns#" xmlns:rdf="http://www.w3.org/1999/02/22-rdf-syntax-ns#" xmlns:svg="http://www.w3.org/2000/svg" xmlns="http://www.w3.org/2000/svg" xmlns:sodipodi="http://sodipodi.sourceforge.net/DTD/sodipodi-0.dtd" xmlns:inkscape="http://www.inkscape.org/namespaces/inkscape" version="1.0" width="1024.000000pt" height="1024.000000pt" viewBox="0 0 1024.000000 1024.000000" preserveAspectRatio="xMidYMid meet" id="svg2" inkscape:version="0.48.5 r10040" sodipodi:docname="2299991.svg">
  <defs id="defs16" />
  <sodipodi:namedview pagecolor="#ffffff" bordercolor="#666666" borderopacity="1" objecttolerance="10" gridtolerance="10" guidetolerance="10" inkscape:pageopacity="0" inkscape:pageshadow="2" inkscape:window-width="640" inkscape:window-height="480" id="namedview14" showgrid="false" inkscape:zoom="0.184375" inkscape:cx="640" inkscape:cy="640" inkscape:window-x="1138" inkscape:window-y="155" inkscape:window-maximized="0" inkscape:current-layer="svg2" />
  <metadata id="metadata4">
Created by potrace 1.11, written by Peter Selinger 2001-2013
<rdf:RDF>
  <cc:Work rdf:about="">
    <dc:format>image/svg+xml</dc:format>
    <dc:type rdf:resource="http://purl.org/dc/dcmitype/StillImage" />
  </cc:Work>
</rdf:RDF>
</metadata>
  <path style="fill:#dcdcdc;fill-opacity:1;stroke:none" inkscape:connector-curvature="0" id="path10-8" d="m 556.96364,416.06853 c -50.6,4.4 -99.1,33.9 -125.3,76.1 l -4.2,6.8 -9.1,0 c -11.4,0 -25.3,2.3 -36.9,6.2 -17.9,6 -32.1,14.6 -45.9,27.8 -25.60001,24.5 -38.70001,54.8 -38.70001,89.5 0,28.2 8.1,52.4 24.80001,74.6 18.4,24.4 42.8,39.9 74,47.1 l 9.8,2.2 161.5,0.4 c 168.2,0.3 174.9,0.2 190.6,-3.9 28.8,-7.5 54.6,-28.9 67.9,-56.3 6.8,-14 9.6,-25.4 10.2,-42.1 0.6,-16.5 -1.5,-29.1 -7.2,-43.3 -15.1,-37.3 -49.7,-62.9 -89.4,-66 l -8.3,-0.7 -3.3,-9 c -8.7,-24.2 -23.09999,-46.3 -41.49999,-63.9 -28.00001,-26.7 -62.60001,-42.2 -102.00001,-45.6 -12.7,-1.1 -13.4,-1.1 -27,0.1 z m 42.5,55.3 c 12.5,3.3 29.7,11.6 40.2,19.5 14.6,11 26.60001,25.8 34.60001,42.9 5.8,12.5 5.7,12.8 -3.8,19.3 -9.1,6.2 -12.90001,11.4 -14.70001,19.9 -2.8,13.6 7.10001,27.4 21.70001,30.1 6.5,1.2 13.1,-0.6 21.4,-6 9.9,-6.3 17.59999,-9 27.19999,-9.8 26.8,-2.1 50.8,16 56.4,42.4 1.8,8.6 1.8,13 0,21.8 -4.2,20 -21.3,37.4 -40.7,41.4 -3.7,0.8 -53.99999,1.1 -170.3,0.9 l -165,-0.3 -8,-2.8 c -19.5,-6.9 -33,-18.6 -42,-36.5 -9.9,-19.9 -9.9,-42.3 0.1,-63.1 7.8,-16.1 23.8,-30.2 40.9,-36.1 18.7,-6.4 41.9,-4 59.3,6.2 5.9,3.4 17.8,14.7 24.6,23.2 12.2,15.2 36.6,11.7 44.4,-6.3 2.4,-5.6 2,-15.7 -0.8,-21.1 -5.7,-11.1 -24,-29.9 -36.8,-38 -3.9,-2.5 -7.2,-5 -7.2,-5.6 0,-2.2 15.8,-18 23.7,-23.6 14.6,-10.5 32.9,-18.1 49.8,-20.8 3.3,-0.5 12.5,-0.7 20.5,-0.5 11.5,0.3 16.6,0.9 24.5,2.9 z" />
  <path style="fill:#dcdcdc;fill-opacity:1;stroke:none" inkscape:connector-curvature="0" id="path8-5" d="m 414.5202,251.24437 c -1.9,0.2 -7.8,0.9 -13,1.5 -5.2,0.6 -15.4,2.6 -22.6,4.4 -110.00001,28.1 -172.80001,142.70001 -137.40001,250.80001 4.9,14.7 13.7,33 22,45.6 l 6.3,9.4 4.9,-9.9 c 19.4,-38.8 52.20001,-68.4 92.30001,-83.4 10.6,-4 26.4,-8.2 35.6,-9.5 4,-0.5 5,-1.2 8.5,-5.7 5.5,-7.3 21.5,-23.1 30.9,-30.7 30,-24.2 70.2,-41.00001 107.7,-45.00001 13,-1.5 40.1,-1.3 51.8,0.3 5.2,0.7 9.7,1.2 9.8,1 0.6,-0.4 -7.8,-19.5 -11.6,-26.4 -9.9,-17.9 -22.5,-34.3 -37.5,-48.6 -35.1,-33.5 -80.4,-52.3 -129.4,-53.8 -8.2,-0.2 -16.4,-0.2 -18.3,0 z" />
  <path inkscape:connector-curvature="0" style="fill:#7b7b7b;fill-opacity:1;stroke:none" d="m 419.0422,270.74388 -20.85543,5.07607 c -48.33932,5.76119 -99.89476,47.84816 -122.59042,93.44973 -27.88469,56.02784 -24.73532,116.99001 6.97299,166.69893 16.39071,-23.01044 38.10282,-41.9322 63.50403,-55.41922 -3.07752,-28.82515 -2.11821,-66.46304 3.07144,-88.98224 6.93207,-30.07988 27.08956,-69.09545 47.59336,-92.07118 z" id="path8-0-7" sodipodi:nodetypes="ccsccscc" />
  <path style="fill:#ffffff;fill-opacity:1;stroke:none" d="m 767.99794,316.78027 c -1.01647,-1.1232 -1.9038,-8.05108 -1.93024,-15.0704 -0.008,-2.14512 -0.2584,-4.0508 -0.55624,-4.23488 -0.29787,-0.18408 -1.82328,0.86052 -3.38984,2.32128 -6.49912,6.06036 -11.24123,9.02764 -12.46752,7.80136 -1.03188,-1.03188 0.48376,-3.04344 8.67008,-11.50692 l 7.7288,-7.99052 0,-10.27332 c 0,-5.65032 -0.16272,-10.43604 -0.36159,-10.63488 -0.42865,-0.42868 -16.8658,8.00272 -18.15364,9.31188 -0.48845,0.49656 -2.04021,4.56384 -3.44839,9.0384 -2.5681,8.1608 -4.0193,11.65588 -5.5735,13.42372 -1.0273,1.1686 -1.4383,1.18436 -2.5258,0.0969 -1.201,-1.201 -1.0737,-2.81922 0.7162,-9.10066 2.2544,-7.91152 2.3606,-8.48862 1.5604,-8.48214 -0.3785,0.003 -4.32,1.83358 -8.7587,4.06778 -4.43869,2.23424 -8.51829,4.06224 -9.06569,4.06224 -0.54731,0 -1.25191,-0.47972 -1.56571,-1.06604 -0.85369,-1.59512 1.43191,-3.74784 7.8544,-7.39798 6.72631,-3.82274 8.4985,-5.05038 8.1366,-5.63602 -0.1556,-0.25176 -3.2828,-1.45748 -6.94929,-2.67936 -9.05831,-3.01868 -10.3992,-4.07028 -7.9808,-6.25892 1.405,-1.27152 3.11229,-0.98508 14.77839,2.47956 l 9.1686,2.72292 7.15205,-3.88424 c 3.93363,-2.13636 7.60475,-4.31832 8.158,-4.84884 1.94675,-1.86676 0.76683,-2.98028 -7.68017,-7.248 l -7.96988,-4.02668 -8.9491,2.66696 c -5.55969,1.65684 -10.18169,2.71208 -12.2034,2.7862 -3.16289,0.11592 -3.25889,0.0783 -3.4226,-1.33832 -0.2196,-1.90168 0.83091,-2.55552 8.14271,-5.0684 3.1928,-1.0972 6.2436,-2.32028 6.77969,-2.7179 0.9318,-0.69106 0.9269,-0.75894 -0.11,-1.53898 -0.5966,-0.4488 -3.2904,-2.03924 -5.9862,-3.53428 -7.2078,-3.99728 -9.57429,-5.83346 -9.3698,-7.27024 0.31971,-2.247 2.69271,-1.79862 10.7026,2.02224 7.1195,3.39612 9.2636,4.11752 9.2636,3.11682 0,-0.24658 -0.7265,-3.03546 -1.6143,-6.19752 -2.2448,-7.9944 -2.4845,-9.78413 -1.4276,-10.66128 1.4053,-1.16629 3.4514,-0.26617 4.6252,2.0348 0.5798,1.1365 2.3781,6.31904 3.9962,11.51678 l 2.94192,9.45044 9.43421,4.64738 9.4342,4.64738 0.14719,-10.85668 0.14716,-10.85668 -7.84548,-7.6212 c -4.315,-4.1917 -8.0712,-8.23139 -8.34708,-8.97715 -1.23108,-3.32776 1.35976,-3.6352 5.13764,-0.60964 1.44376,1.15621 4.45549,3.7046 6.6928,5.66305 l 4.06777,3.56086 0.40795,-8.51055 c 0.4644,-9.68792 0.8484,-11.95502 2.16564,-12.78592 0.71892,-0.45348 1.15041,-0.36894 1.89081,0.37044 0.83471,0.83353 0.98131,2.25912 1.12847,10.97385 0.093,5.50872 0.29741,10.0159 0.4542,10.0159 0.1568,0 2.76544,-2.34123 5.79696,-5.20271 6.55088,-6.18336 7.5112,-6.75472 9.03513,-5.37559 0.59783,0.54103 1.08695,1.20539 1.08695,1.47639 0,0.271 -3.6242,4.19925 -8.05379,8.72949 l -8.05377,8.23682 0.2586,10.98304 c 0.14224,6.04068 0.34557,10.98304 0.45188,10.98304 0.10629,0 4.0614,-2.1937 8.78908,-4.8749 l 8.59581,-4.8749 3.093,-10.69672 c 1.70116,-5.8832 3.48835,-11.13359 3.97151,-11.6675 1.08384,-1.19764 2.5176,-1.24721 3.45356,-0.11945 0.58924,0.71 0.4106,1.99261 -1.07652,7.72883 -2.55171,9.84244 -2.47256,9.3182 -1.40692,9.3182 0.51072,0 4.57988,-1.88168 9.04261,-4.18152 8.44296,-4.351 9.02968,-4.4696 10.458,-2.11358 0.78328,1.2919 -1.51608,3.20306 -8.91288,7.40818 -3.13224,1.78068 -6.16869,3.60106 -6.74773,4.04532 -1.02723,0.78808 -1.02808,0.8258 -0.0356,1.55148 0.55944,0.40908 3.89413,1.63266 7.41045,2.71908 6.51664,2.01346 7.50848,2.69986 7.50848,5.19648 0,0.6256 -0.31992,1.2602 -0.71096,1.41024 -0.39104,0.15008 -4.4792,-0.7227 -9.0848,-1.93946 -4.60549,-1.21678 -9.88781,-2.49314 -11.7384,-2.83638 l -3.36469,-0.62408 -7.21156,3.64236 c -3.96639,2.00332 -7.82176,4.11332 -8.56752,4.68892 -1.34159,1.03544 -1.34444,1.05522 -0.2712,1.8678 1.49552,1.13228 15.2234,8.4936 16.4258,8.80804 0.53657,0.14032 5.44224,-1.10244 10.90148,-2.76168 5.45921,-1.65922 10.62681,-3.01678 11.48361,-3.01678 1.47056,0 2.68064,1.20172 2.68064,2.66228 0,0.87186 -2.94928,2.27782 -9.76272,4.65398 -3.43049,1.1964 -6.23117,2.41932 -6.22372,2.71764 0.007,0.2983 3.22384,2.49492 7.14748,4.88136 8.23288,5.00736 9.48872,6.0321 9.26928,7.56328 -0.274,1.91094 -3.36088,1.1206 -11.73232,-3.00376 -4.27708,-2.1072 -7.917,-3.69082 -8.08868,-3.51912 -0.17168,0.17168 0.59244,3.74876 1.69807,7.94912 2.0656,7.84748 2.10884,9.31628 0.30268,10.2829 -0.87908,0.47048 -1.21408,0.28182 -2.10704,-1.18654 -1.12127,-1.84376 -7.07931,-19.22472 -7.07931,-20.65192 0,-0.45968 -1.64745,-1.80208 -3.66101,-2.98312 -7.10764,-4.16896 -14.15808,-7.76344 -14.41084,-7.34698 -0.14072,0.23186 -0.43428,4.8714 -0.65236,10.3101 l -0.39655,9.88852 6.98411,7.23416 c 7.121,7.37596 9.31792,10.39364 8.71345,11.9688 -0.71213,1.85586 -2.98441,0.96774 -7.28521,-2.84744 -2.31376,-2.05248 -4.92368,-4.49316 -5.79984,-5.42372 -0.87615,-0.93056 -1.7914,-1.69192 -2.03388,-1.69192 -0.24252,0 -0.44228,3.84408 -0.44392,8.54238 -0.004,11.43566 -0.90076,14.42234 -3.47576,11.57698 l 0,0 z" id="path2986-0" inkscape:connector-curvature="0" />
  <path style="fill:#ba381a;fill-opacity:1;stroke:none" sodipodi:nodetypes="ssccccccssscccsscccccccscscccsccccsscccccscccscssssscccccsccccsscsscccccscccsccccccccccscscscsccccccccccss" inkscape:connector-curvature="0" id="path14-9" d="m 761.50042,129.06168 c -36.56586,59.09145 -74.53366,120.25239 -119.89996,186.19999 -8.545,12.4216 -9.2,16.1 -6.9,20.9 1.3,2.7 2.8,3.9 5.7,4.9 3,1 30.3,1.2 129.69996,1 125.4,-0.3 125.8,-0.3 128.5,-2.4 3.3,-2.4 4.6,-6.3 3.4,-10.3 -1.2,-4.2 -123.7,-194.99999 -127.6,-198.89999 -3.9,-3.7 -10.02124,-6.05217 -12.9,-1.4 z m 9.3,76.40001 c 0.8,0.8 1.2,4.79999 1.2,11.19999 l 0,9.99999 6.4,-6.29999 c 5.6,-5.5 6.7,-6.2 8,-5.1 0.9,0.7 1.6,1.7 1.6,2.4 0,0.6 -3.6,4.7 -8,9.09999 l -8.1,8.1 0.3,10.6 0.3,10.7 8.5,-4.8 8.5,-4.8 1.7,-5.9 c 0.9,-3.3 2.4,-8.5 3.3,-11.7 1.4,-4.89999 2,-5.69999 4.1,-5.69999 3,0 3.1,2.1 0.4,10.99999 -1.1,3.6 -2,6.6 -2,6.7 0,1 3.2,-0.3 10.2,-4.3 7.2,-4.1 8.2,-4.4 9.6,-3.1 2.4,2.5 0.9,4.2 -7.7,8.8 -4.5,2.3 -8.1,4.6 -8.1,5 0,0.4 2.6,1.5 5.8,2.4 3.1,0.8 6.7,2 8,2.5 2.2,1 3,4.4 1.2,5.5 -0.5,0.3 -5.6,-0.8 -11.4,-2.5 -5.7,-1.6 -11.1,-3 -12,-3 -1.8,0 -17.6,8.2 -17.6,9.1 0,0.4 3.9,2.7 8.8,5.2 l 8.7,4.5 11.5,-3.5 c 10.7,-3.3 11.5,-3.4 12.7,-1.7 1.9,2.6 0,4.1 -8.3,6.6 -4.1,1.1 -7.4,2.4 -7.4,2.7 0,0.4 3.7,2.7 8.2,5.1 5.1,2.8 8.4,5.2 8.6,6.4 0.8,3.8 -2.2,3.6 -10.7,-0.9 -4.6,-2.5 -8.7,-4.5 -9.1,-4.5 -0.5,0 0.3,3.7 1.7,8.1 2.2,7.4 2.3,8.3 0.9,9.7 -1.4,1.4 -1.8,1.4 -3,0.2 -1.1,-1.1 -7.6,-20.5 -7.6,-22.5 0,-0.4 -16.7,-9.5 -17.4,-9.5 -0.3,0 -0.6,4.6 -0.6,10.2 l 0,10.2 8.1,8.2 c 8.1,8.3 9.5,11.5 5.5,12.2 -1.2,0.3 -3.9,-1.6 -7.7,-5.4 l -5.9,-5.8 0,9.4 c 0,10.5 -0.9,13.2 -3.7,11.4 -1.5,-0.9 -1.9,-2.9 -2.3,-10.7 l -0.5,-9.7 -6.2,5.5 c -6.2,5.6 -10.3,7.1 -10.3,3.7 0,-0.9 3.8,-5.5 8.5,-10.2 l 8.5,-8.5 0,-10.2 c 0,-5.7 -0.2,-10.3 -0.6,-10.3 -0.3,0 -4.5,2.1 -9.4,4.7 l -8.8,4.8 -3.39996,10.9 c -3.6,11.5 -5.6,14.2 -8.3,11.6 -1.3,-1.4 -1.2,-2.4 1,-9.5 1.3,-4.4 2.3,-8.1 2.1,-8.3 -0.2,-0.2 -4.1,1.8 -8.69999,4.3 -8.8,4.8 -11.2,5.3 -11.7,2 -0.2,-1.7 1.4,-3 8.3,-6.8 4.7,-2.6 8.49999,-5 8.49999,-5.2 0,-0.3 -3.29999,-1.4 -7.19999,-2.6 -8.6,-2.5 -10.7,-4.1 -8.8,-6.3 1.7,-2.1 2.4,-2.1 14.5,1.5 l 10.39999,3.1 8.69996,-4.8 c 10,-5.4 10.1,-4.9 -2,-11.1 l -6.99996,-3.5 -10.49999,3.1 c -12.2,3.6 -13.7,3.7 -14.5,1.4 -1,-2.5 1.1,-3.9 9.3,-6.3 4,-1.2 6.99999,-2.5 6.49999,-3 -0.5,-0.5 -4.39999,-2.7 -8.59999,-5 -5.6,-3 -7.8,-4.7 -7.8,-6.1 0,-3.5 2.8,-3.2 11.5,1.4 5.49999,3 8.49999,4.1 8.49999,3.2 0,-0.7 -0.9,-4.3 -2.1,-8 -2.2,-7.29999 -2,-9.49999 0.9,-9.49999 2.8,0 3.5,1.3 7.2,13.09999 l 3.19996,10.6 9.4,4.6 9.4,4.7 0,-10.8 0,-10.8 -8.5,-7.8 c -8.3,-7.59999 -10.1,-10.79999 -6.9,-11.99999 1.2,-0.4 3.9,1.3 8.5,5.5 l 6.9,6.1 0,-9.2 c 0,-11.19999 1.6,-14.99999 4.8,-11.79999 z" />
</svg>
