<?xml version="1.0" encoding="UTF-8" standalone="no"?>
<svg xmlns:dc="http://purl.org/dc/elements/1.1/" xmlns:cc="http://creativecommons.org/ns#" xmlns:rdf="http://www.w3.org/1999/02/22-rdf-syntax-ns#" xmlns:svg="http://www.w3.org/2000/svg" xmlns="http://www.w3.org/2000/svg" xmlns:sodipodi="http://sodipodi.sourceforge.net/DTD/sodipodi-0.dtd" xmlns:inkscape="http://www.inkscape.org/namespaces/inkscape" version="1.0" width="1024.000000pt" height="1024.000000pt" viewBox="0 0 1024.000000 1024.000000" preserveAspectRatio="xMidYMid meet" id="svg2" inkscape:version="0.48.5 r10040" sodipodi:docname="2293992.svg">
  <defs id="defs20" />
  <sodipodi:namedview pagecolor="#ffffff" bordercolor="#666666" borderopacity="1" objecttolerance="10" gridtolerance="10" guidetolerance="10" inkscape:pageopacity="0" inkscape:pageshadow="2" inkscape:window-width="1145" inkscape:window-height="690" id="namedview18" showgrid="false" inkscape:zoom="0.184375" inkscape:cx="-561.35593" inkscape:cy="640" inkscape:window-x="1072" inkscape:window-y="214" inkscape:window-maximized="0" inkscape:current-layer="svg2" />
  <metadata id="metadata4">
Created by potrace 1.11, written by Peter Selinger 2001-2013
<rdf:RDF>
  <cc:Work rdf:about="">
    <dc:format>image/svg+xml</dc:format>
    <dc:type rdf:resource="http://purl.org/dc/dcmitype/StillImage" />
  </cc:Work>
</rdf:RDF>
</metadata>
  <path style="fill:#dcdcdc;stroke:none;fill-opacity:1" inkscape:connector-curvature="0" id="path10" d="m 458.9,684.6 c -5,3.2 -5.4,4.7 -5.9,24.6 l -0.5,18.7 -14.5,-9 c -8,-4.9 -15.5,-9.2 -16.8,-9.6 -3.9,-0.9 -8.7,0.6 -11.8,3.8 -2.5,2.6 -2.9,3.8 -2.9,8.4 0,3.9 0.5,5.9 2,7.5 1.1,1.2 8.8,6.4 17.2,11.7 8.4,5.2 15.3,9.6 15.3,9.7 0,0.2 -7.2,4.7 -15.9,10.1 -17.9,11 -19.8,13.1 -18.8,20.5 0.7,5.1 3.7,8.6 8.8,10.1 5,1.5 6.6,0.9 23.4,-9.5 l 14,-8.7 0.5,19 0.5,19.1 3.3,3.2 c 2.9,2.9 3.9,3.3 8.7,3.3 4.8,0 5.8,-0.4 8.7,-3.3 l 3.3,-3.2 0.5,-18.9 0.5,-19 14.5,9.1 c 16.2,10.2 20.1,11.4 25.8,7.9 6.2,-4 7.9,-12.6 3.4,-18.1 -0.9,-1.2 -8.5,-6.3 -16.7,-11.4 -8.3,-5.1 -14.9,-9.7 -14.8,-10.2 0.2,-0.5 6.7,-4.8 14.5,-9.6 17.1,-10.5 18.9,-12.1 19.5,-17.9 0.8,-8.1 -6.3,-15 -13.8,-13.5 -1.9,0.3 -9.9,4.6 -17.9,9.5 l -14.5,9 -0.5,-18.9 -0.5,-19 -3.2,-3.1 c -3.9,-3.9 -11.2,-5 -15.4,-2.3 z" />
  <path style="fill:#dcdcdc;stroke:none;fill-opacity:1" inkscape:connector-curvature="0" id="path12" d="m 663.5,684 c -1.1,0.4 -3.1,2 -4.5,3.5 -2.4,2.6 -2.5,3.1 -3,21.5 l -0.5,18.9 -14.5,-9.1 c -15.2,-9.6 -20,-11.2 -25,-8.6 -3.4,1.9 -7,7.5 -7,11.2 0,5.8 3.1,8.8 18.1,18.1 7.9,4.9 15,9.4 15.7,10 1.1,1 -1.5,3 -13.5,10.4 -8.2,5 -15.9,10.2 -17.2,11.5 -3.3,3.5 -3.8,10.1 -1.1,14.4 2.5,4 8.1,6.6 12.4,5.8 1.7,-0.4 9.6,-4.7 17.6,-9.6 l 14.5,-8.9 0.5,18.9 0.5,19 3.3,3.2 c 2.9,2.9 3.9,3.3 8.7,3.3 4.8,0 5.8,-0.4 8.7,-3.3 l 3.3,-3.2 0.5,-19 0.5,-18.9 14.5,9 c 8,4.9 15.5,9.2 16.8,9.6 6.9,1.7 14.1,-3.5 14.9,-10.9 0.7,-6.9 -1.6,-9.4 -19.1,-20.3 -8.6,-5.3 -15.6,-9.8 -15.6,-10 0,-0.2 6.7,-4.4 15,-9.5 16.7,-10.2 20,-13.3 20,-18.8 0,-4.9 -1.8,-8.1 -6,-11 -5.5,-3.7 -8.9,-2.7 -25.7,7.7 L 681.5,728 681,709.3 c -0.3,-10.4 -0.9,-19.6 -1.4,-20.5 -2.1,-4.5 -10.8,-7.1 -16.1,-4.8 z" />
  <path style="fill:#dcdcdc;stroke:none;fill-opacity:1" inkscape:connector-curvature="0" id="path14" d="m 563.9,793.9 c -2.2,1.8 -2.4,2.8 -2.9,14 l -0.5,12 -9,-5.6 c -10.2,-6.4 -14.5,-7.3 -17.6,-3.4 -2.1,2.5 -2.4,6.2 -0.9,9.1 0.5,1 5.3,4.4 10.5,7.7 5.2,3.2 9.5,6 9.5,6.3 0,0.3 -3.8,2.7 -8.3,5.4 -4.5,2.7 -9.2,5.8 -10.4,6.9 -2.8,2.5 -3,7.6 -0.4,10.8 3.1,3.8 7.3,3 17.6,-3.4 l 9,-5.6 0.5,11.9 c 0.6,13.5 1.5,15.4 7.5,15.4 6,0 6.9,-1.9 7.5,-15.4 l 0.5,-11.8 9,5.6 c 10.2,6.3 14.5,7.1 17.6,3.3 2.1,-2.5 2.4,-6.2 0.9,-9.1 -0.5,-1 -5.3,-4.4 -10.5,-7.7 -5.2,-3.2 -9.5,-6 -9.5,-6.3 0,-0.3 3.8,-2.7 8.3,-5.4 4.5,-2.7 9.2,-5.8 10.5,-6.9 2.7,-2.5 2.9,-7.6 0.3,-10.8 -3.1,-3.8 -7.3,-3 -17.6,3.4 l -9,5.6 -0.5,-12 c -0.5,-11.2 -0.7,-12.2 -2.9,-14 -1.3,-1 -3.3,-1.9 -4.6,-1.9 -1.3,0 -3.3,0.9 -4.6,1.9 z" />
  <path style="fill:#dcdcdc;stroke:none;fill-opacity:1" inkscape:connector-curvature="0" id="path16" d="m 476,847 c -1.8,1.8 -2,3.3 -2,13.5 0,6.3 -0.2,11.5 -0.5,11.5 -0.3,0 -4.5,-2.5 -9.4,-5.5 -9.9,-6.1 -13.5,-6.8 -16.9,-3.2 -2.4,2.6 -2.9,7.5 -0.9,9.8 0.6,0.9 5.4,4.2 10.5,7.3 5,3.2 9.2,5.9 9.2,6.1 0,0.1 -4.3,2.9 -9.6,6.1 -10.1,6.1 -11.4,7.5 -11.4,12.3 0,3.3 3.9,7.1 7.3,7.1 1.2,0 6.3,-2.5 11.3,-5.5 5.1,-3 9.5,-5.5 9.8,-5.5 0.3,0 0.6,5.1 0.6,11.3 0,10.6 0.2,11.5 2.3,13.5 3.3,3.1 8,2.9 10.6,-0.4 1.8,-2.3 2.1,-4.1 2.1,-13.5 0,-6 0.2,-10.9 0.5,-10.9 0.3,0 4.5,2.5 9.4,5.5 4.9,3 10.1,5.5 11.5,5.5 3.6,0 7.6,-4.1 7.6,-7.8 0,-3.5 -2,-5.4 -12.7,-12.2 -4.6,-2.9 -8.3,-5.4 -8.3,-5.5 0,-0.2 4.2,-2.9 9.3,-6 5,-3.2 9.8,-6.4 10.5,-7.3 2,-2.6 1.5,-7.6 -1.1,-10 -3.6,-3.4 -7,-2.7 -16.8,3.3 -4.9,3 -9.1,5.5 -9.4,5.5 -0.3,0 -0.5,-5.1 -0.5,-11.3 0,-10.6 -0.2,-11.5 -2.3,-13.5 -3,-2.8 -8,-2.9 -10.7,-0.2 z" />
  <path style="fill:#dcdcdc;fill-opacity:1;stroke:none" inkscape:connector-curvature="0" id="path10-8" d="m 535.26874,303.25497 c -50.6,4.4 -99.1,33.9 -125.3,76.1 l -4.2,6.8 -9.1,0 c -11.4,0 -25.3,2.3 -36.9,6.2 -17.9,6 -32.1,14.6 -45.9,27.8 -25.6,24.5 -38.7,54.8 -38.7,89.5 0,28.2 8.1,52.4 24.8,74.6 18.4,24.4 42.8,39.9 74,47.1 l 9.8,2.2 161.5,0.4 c 168.2,0.3 174.9,0.2 190.6,-3.9 28.8,-7.5 54.6,-28.9 67.9,-56.3 6.8,-14 9.6,-25.4 10.2,-42.1 0.6,-16.5 -1.5,-29.1 -7.2,-43.3 -15.1,-37.3 -49.7,-62.9 -89.4,-66 l -8.3,-0.7 -3.3,-9 c -8.7,-24.2 -23.1,-46.3 -41.5,-63.9 -28,-26.7 -62.6,-42.2 -102,-45.6 -12.7,-1.1 -13.4,-1.1 -27,0.1 z m 42.5,55.3 c 12.5,3.3 29.7,11.6 40.2,19.5 14.6,11 26.6,25.8 34.6,42.9 5.8,12.5 5.7,12.8 -3.8,19.3 -9.1,6.2 -12.9,11.4 -14.7,19.9 -2.8,13.6 7.1,27.4 21.7,30.1 6.5,1.2 13.1,-0.6 21.4,-6 9.9,-6.3 17.6,-9 27.2,-9.8 26.8,-2.1 50.8,16 56.4,42.4 1.8,8.6 1.8,13 0,21.8 -4.2,20 -21.3,37.4 -40.7,41.4 -3.7,0.8 -54,1.1 -170.3,0.9 l -165,-0.3 -8,-2.8 c -19.5,-6.9 -33,-18.6 -42,-36.5 -9.9,-19.9 -9.9,-42.3 0.1,-63.1 7.8,-16.1 23.8,-30.2 40.9,-36.1 18.7,-6.4 41.9,-4 59.3,6.2 5.9,3.4 17.8,14.7 24.6,23.2 12.2,15.2 36.6,11.7 44.4,-6.3 2.4,-5.6 2,-15.7 -0.8,-21.1 -5.7,-11.1 -24,-29.9 -36.8,-38 -3.9,-2.5 -7.2,-5 -7.2,-5.6 0,-2.2 15.8,-18 23.7,-23.6 14.6,-10.5 32.9,-18.1 49.8,-20.8 3.3,-0.5 12.5,-0.7 20.5,-0.5 11.5,0.3 16.6,0.9 24.5,2.9 z" />
  <path style="fill:#dcdcdc;fill-opacity:1;stroke:none" inkscape:connector-curvature="0" id="path8-5" d="m 392.82534,138.43081 c -1.9,0.2 -7.8,0.9 -13,1.5 -5.2,0.6 -15.4,2.6 -22.6,4.4 -110.0001,28.1 -172.8001,142.70001 -137.4001,250.80001 4.9,14.7 13.7,33 22,45.6 l 6.3,9.4 4.9,-9.9 c 19.4,-38.8 52.2,-68.4 92.3001,-83.4 10.6,-4 26.4,-8.2 35.6,-9.5 4,-0.5 5,-1.2 8.5,-5.7 5.5,-7.3 21.5,-23.1 30.9,-30.7 30,-24.2 70.2,-41.00001 107.7,-45.00001 13,-1.5 40.1,-1.3 51.8,0.3 5.2,0.7 9.7,1.2 9.8,1 0.6,-0.4 -7.8,-19.5 -11.6,-26.4 -9.9,-17.9 -22.5,-34.3 -37.5,-48.6 -35.1,-33.5 -80.4,-52.3 -129.4,-53.8 -8.2,-0.2 -16.4,-0.2 -18.3,0 z" />
  <path inkscape:connector-curvature="0" style="fill:#7b7b7b;fill-opacity:1;stroke:none" d="m 397.34734,157.93032 -20.8555,5.07607 c -48.3393,5.76119 -99.8947,47.84816 -122.5904,93.44973 -27.8847,56.02784 -24.7353,116.99001 6.973,166.69893 16.3907,-23.01044 38.1028,-41.9322 63.504,-55.41922 -3.0775,-28.82515 -2.1182,-66.46304 3.0715,-88.98224 6.932,-30.07988 27.0895,-69.09545 47.5933,-92.07118 z" id="path8-0-7" sodipodi:nodetypes="ccsccscc" />
  <path inkscape:connector-curvature="0" style="fill:#ba381a;fill-opacity:1;stroke:none" id="path8-1" d="m 566.32582,214.31638 -61.8903,56.99844 0,137.06936 -0.071,137.14124 9.8798,0 9.8799,0 0.1412,-126.86283 0.2116,-126.86284 31.4038,31.05084 c 17.2898,17.03484 40.6485,40.17923 51.9398,51.32016 l 20.536,20.41307 30.2747,-11.5722 30.2747,-11.50031 25.4053,-3.95324 c 19.4069,-2.94696 33.4504,-5.67827 59.2791,-11.42843 18.6306,-4.09698 45.1651,-9.77527 58.9264,-12.50661 13.7612,-2.80319 36.9083,-7.54708 51.3752,-10.56591 l 26.2521,-5.53452 -0.1411,-54.33899 -0.2117,-54.2671 -27.1696,-5.60641 c -14.9609,-3.01883 -28.8633,-5.53452 -29.4984,-5.60639 -1.1997,0 -0.1411,2.08442 -0.1411,33.42277 l 0.071,33.4228 -25.4759,0 -25.4053,0 0,-38.31042 0,-38.31043 -30.4865,-6.10953 -30.5569,-6.10956 -0.2118,44.41997 -0.1411,44.41997 -25.4053,0 -25.4054,0 0,-48.3732 0,-48.3732 -30.4864,-10.20651 c -16.7957,-5.60641 -30.6981,-10.20653 -30.9098,-10.20653 -0.2118,0 -28.2282,25.66007 -62.243,56.92654 z m 61.3962,112.19993 -0.2117,50.52952 -52.9279,-51.53579 c -29.0749,-28.3914 -52.9277,-51.89516 -52.9277,-52.25456 0,-0.35937 23.8528,-22.71309 52.9277,-49.66696 l 52.9279,-49.02009 0.2117,50.67325 c 0.071,27.96015 0.071,73.45826 0,101.27463 z" sodipodi:nodetypes="ccccccccccccccccccccccsccccccccccccccsccccscccc" />
</svg>
