<?xml version="1.0" encoding="UTF-8" standalone="no"?>
<svg xmlns:dc="http://purl.org/dc/elements/1.1/" xmlns:cc="http://creativecommons.org/ns#" xmlns:rdf="http://www.w3.org/1999/02/22-rdf-syntax-ns#" xmlns:svg="http://www.w3.org/2000/svg" xmlns="http://www.w3.org/2000/svg" xmlns:sodipodi="http://sodipodi.sourceforge.net/DTD/sodipodi-0.dtd" xmlns:inkscape="http://www.inkscape.org/namespaces/inkscape" version="1.0" width="1024.000000pt" height="1024.000000pt" viewBox="0 0 1024.000000 1024.000000" preserveAspectRatio="xMidYMid meet" id="svg2" inkscape:version="0.48.5 r10040" sodipodi:docname="2119999.svg">
  <defs id="defs16" />
  <sodipodi:namedview pagecolor="#ffffff" bordercolor="#666666" borderopacity="1" objecttolerance="10" gridtolerance="10" guidetolerance="10" inkscape:pageopacity="0" inkscape:pageshadow="2" inkscape:window-width="931" inkscape:window-height="654" id="namedview14" showgrid="false" inkscape:zoom="0.22679554" inkscape:cx="-302.73009" inkscape:cy="1164.5165" inkscape:window-x="1331" inkscape:window-y="112" inkscape:window-maximized="0" inkscape:current-layer="svg2" />
  <metadata id="metadata4">
Created by potrace 1.11, written by Peter Selinger 2001-2013
<rdf:RDF>
  <cc:Work rdf:about="">
    <dc:format>image/svg+xml</dc:format>
    <dc:type rdf:resource="http://purl.org/dc/dcmitype/StillImage" />
  </cc:Work>
</rdf:RDF>
</metadata>
  <path style="fill:#dcdcdc;stroke:none;fill-opacity:1" inkscape:connector-curvature="0" id="path8" d="m 378.5,172.6 c -34.3,3.4 -55.8,9.1 -82.5,22 -65.9,31.8 -111.3,95.2 -121.1,169.4 -1.8,13.4 -1.5,43 0.5,56.5 6,39.6 22.1,76.6 46.3,106.5 8.1,10 27.8,29.1 38.1,36.9 22.4,16.9 48.6,29.7 76.2,37 20.8,5.5 29.2,6.5 55.5,6.5 20.6,0.1 25.8,-0.2 36.5,-2.2 11.6,-2 32.1,-7.4 34.8,-9.1 0.8,-0.4 0.3,-3.1 -1.8,-9.2 -15,-44.6 -7.6,-94.6 19.6,-132.5 7.9,-11 14.8,-18.7 23.4,-26.1 18.3,-15.7 41.8,-27.8 63.9,-32.8 6.4,-1.5 7,-1.9 16.1,-11.1 5.2,-5.2 12.7,-12.1 16.7,-15.2 8.4,-6.6 8.3,-6 5.3,-21 -6.5,-32.5 -20.3,-63.3 -40.1,-89.4 C 557.7,248 538.7,228.6 528,220 498,196.1 461.1,180.1 422.9,174.5 412.2,173 386,171.8 378.5,172.6 z" />
  <path style="fill:#dcdcdc;stroke:none;fill-opacity:1" inkscape:connector-curvature="0" id="path10" d="m 700.8,373 c -23.1,2.2 -45.3,10.1 -65.1,23.3 -10.9,7.3 -28.1,24.1 -35,34.3 l -4.9,7.1 -8.9,0.7 c -44.8,3.4 -82.8,35.2 -94.6,79.1 -2.3,8.8 -2.6,12 -2.7,26 -0.1,13.8 0.3,17.3 2.3,25 5.2,20 14,35.5 28,49.6 15.8,15.8 33.2,25.2 55.1,29.6 6.3,1.3 18.2,1.5 76,1.4 67.5,-0.2 80.7,-0.7 92.5,-3.7 28,-7 49,-19 68.2,-38.7 11.7,-12.1 18.6,-22 25.9,-37.1 C 859.5,523.6 854,468.7 823.3,427.9 794.6,389.7 747.7,368.7 700.8,373 z m 32.2,58.6 c 23.9,6.1 44.8,24 54.9,46.9 5.6,12.6 7.7,33.3 5,48.1 -5.6,30.6 -32.3,57.6 -62.9,63.7 -10.2,2.1 -134,3.5 -144,1.7 -15.5,-2.8 -28.8,-13.1 -35.7,-27.7 -3.5,-7.2 -3.8,-8.6 -4.1,-18.3 -0.3,-8.8 0,-11.6 1.8,-17 5.5,-16.4 19.3,-29.1 35.9,-33 6.9,-1.6 21.1,-0.8 27.1,1.6 6.6,2.6 14.4,7.8 18.3,12.1 1.9,2.1 5.6,6.1 8.1,9 8.2,8.9 17.6,11.8 28.7,8.7 5.3,-1.5 7.3,-2.7 12,-7.3 4.6,-4.7 5.8,-6.7 7.3,-12 1.9,-6.8 1.6,-12.7 -1,-18.9 -3,-7.3 -15.7,-21.6 -26.1,-29.4 l -5.6,-4.3 5.9,-5.3 c 10.8,-9.8 24.9,-16.9 39.9,-19.8 8.7,-1.7 25.5,-1.1 34.5,1.2 z" />
  <path style="fill:#80d3ff;stroke:none;fill-opacity:1" inkscape:connector-curvature="0" id="path12" d="m 581.5,713.1 c -48.5,25.5 -68.9,40.5 -76.9,56.3 -14.2,28.1 -0.2,61.7 29.5,71.1 18.8,5.9 38.1,1.3 52,-12.5 14.2,-14.2 18.9,-34.5 18.9,-82.1 0,-23.6 -0.9,-43.9 -1.9,-43.9 -0.3,0.1 -10,5 -21.6,11.1 z M 576,776 c -1.5,15.4 -3.5,23.9 -7,29.3 -9.4,14 -31.4,12.8 -39.2,-2.2 -2,-3.8 -2.8,-6.8 -2.8,-10.5 0.1,-12.3 8.4,-20.9 37.5,-38.3 l 12,-7.2 0.3,8.7 c 0.2,4.8 -0.2,13.9 -0.8,20.2 z" />
  <path style="fill:#7b7b7b;fill-opacity:1;stroke:none" d="m 334.03879,571.38267 c -23.8337,-5.49218 -56.32409,-27.20466 -75.61096,-50.52889 -49.17699,-59.47128 -59.89619,-142.29167 -28.1072,-217.16614 21.52895,-50.7084 68.99628,-90.94212 114.85071,-97.34844 l 16.93728,-2.36629 -16.86293,22.15064 c -19.44983,25.54871 -38.58626,68.92905 -45.16198,102.37756 -6.46482,32.88444 -5.99226,94.76336 0.95741,125.36505 10.07633,44.36954 24.86973,76.579 48.86067,106.38366 11.45685,14.23321 11.69459,14.96071 4.76903,14.59375 -4.0089,-0.21239 -13.29332,-1.76982 -20.63203,-3.4609 z" id="path3757" inkscape:connector-curvature="0" />
</svg>
