<?xml version="1.0" encoding="UTF-8" standalone="no"?>
<svg xmlns:dc="http://purl.org/dc/elements/1.1/" xmlns:cc="http://creativecommons.org/ns#" xmlns:rdf="http://www.w3.org/1999/02/22-rdf-syntax-ns#" xmlns:svg="http://www.w3.org/2000/svg" xmlns="http://www.w3.org/2000/svg" xmlns:sodipodi="http://sodipodi.sourceforge.net/DTD/sodipodi-0.dtd" xmlns:inkscape="http://www.inkscape.org/namespaces/inkscape" version="1.0" width="1024.000000pt" height="1024.000000pt" viewBox="0 0 1024.000000 1024.000000" preserveAspectRatio="xMidYMid meet" id="svg2" inkscape:version="0.48.5 r10040" sodipodi:docname="2299939.svg">
  <defs id="defs26" />
  <sodipodi:namedview pagecolor="#ffffff" bordercolor="#666666" borderopacity="1" objecttolerance="10" gridtolerance="10" guidetolerance="10" inkscape:pageopacity="0" inkscape:pageshadow="2" inkscape:window-width="844" inkscape:window-height="667" id="namedview24" showgrid="false" inkscape:zoom="0.184375" inkscape:cx="726.71229" inkscape:cy="640" inkscape:window-x="877" inkscape:window-y="236" inkscape:window-maximized="0" inkscape:current-layer="svg2" />
  <metadata id="metadata4">
Created by potrace 1.11, written by Peter Selinger 2001-2013
<rdf:RDF>
  <cc:Work rdf:about="">
    <dc:format>image/svg+xml</dc:format>
    <dc:type rdf:resource="http://purl.org/dc/dcmitype/StillImage" />
  </cc:Work>
</rdf:RDF>
</metadata>
  <path style="fill:#dcdcdc;stroke:none;fill-opacity:1" inkscape:connector-curvature="0" id="path10" d="M 538.5,304 C 488,308.1 440.8,336.2 413,378.8 l -5.1,7.9 -12.2,0.6 c -33.3,1.5 -62.6,14.9 -85,38.7 -17,18 -28.1,40 -32.2,63.8 -1.9,11 -1.9,31.6 0,42.8 7.8,44.2 40,81.6 82.6,95.8 18.2,6.1 24.8,6.7 73.8,6.4 l 43.4,-0.3 13.3,-25.5 13.2,-25.5 -57.6,-0.6 c -64.8,-0.6 -62.4,-0.3 -78.7,-8.3 -36.6,-18 -50.3,-64.4 -29.5,-99.7 9.9,-16.8 27,-29.3 45.8,-33.5 11.3,-2.5 29.3,-1.6 39.2,2.1 14.5,5.2 23.9,12.6 37.7,29.2 5.4,6.5 11.8,9.6 19.9,9.6 18,0.1 30.8,-17.5 24.9,-34.3 -4.2,-11.9 -25.8,-34.2 -42.2,-43.6 -1.8,-1 -3.3,-2.1 -3.3,-2.4 0,-1.3 11.1,-13.6 16.6,-18.3 11.6,-9.9 23.9,-16.9 38.4,-21.7 57,-19.1 119.2,10 141.6,66.3 1.4,3.7 2.5,7 2.3,7.2 -0.2,0.2 -3.9,2.6 -8.1,5.4 -12.2,7.9 -16.6,15.7 -15.5,27.4 1.4,15.3 16.3,26.1 31.2,22.8 3,-0.7 7.8,-2.8 10.7,-4.8 15.9,-11 31.8,-13.6 49.4,-8.2 16.3,5 31.5,21.3 35.3,37.9 1.5,6.3 1.3,20.6 -0.3,26.5 -4.6,17.2 -17.5,31 -35,37.4 l -7.1,2.6 -48.4,0.5 -48.3,0.5 -12.9,25 c -7.1,13.7 -12.9,25.4 -12.9,25.8 0,0.4 29.1,0.6 64.8,0.5 l 64.7,-0.4 9.7,-2.6 c 20,-5.5 34.1,-13.9 49.3,-29.2 14.4,-14.7 22.2,-28.6 27.6,-49.2 2,-7.6 2.3,-11.3 2.3,-24.9 0,-14 -0.4,-17.2 -2.7,-25.7 -10.9,-40.6 -43.9,-71.2 -84.6,-78.3 -4.6,-0.8 -10.5,-1.5 -13.1,-1.5 l -4.7,0 -3.3,-9.3 C 694.3,374.3 664.2,340.3 625.9,320.9 600.3,308 567.7,301.7 538.5,304 z" />
  <path style="fill:#fedc00;stroke:none;fill-opacity:1" inkscape:connector-curvature="0" id="path12" d="m 547.7,558.2 c -7.2,13.1 -102.8,191 -103.4,192.3 -0.4,1.3 5.1,1.5 39.1,1.7 l 39.6,0.3 -43.8,76 c -24.1,41.8 -44.1,76.6 -44.5,77.2 -0.5,0.7 -0.6,1.3 -0.4,1.3 0.6,0 176.1,-196.9 176.5,-198.1 0.2,-0.5 -16.1,-0.9 -41.2,-0.9 -22.9,0 -41.6,-0.2 -41.6,-0.5 0,-0.3 82.5,-151.1 84.7,-154.8 0.2,-0.4 -13.5,-0.7 -30.6,-0.7 l -30.9,0 -3.5,6.2 z" />
  <path style="fill:#80d3ff;stroke:none;fill-opacity:1" inkscape:connector-curvature="0" id="path14" d="m 210,709.6 c 0,0.3 16.7,26.2 37.2,57.5 29.4,45.2 37.4,56.7 38.3,55.7 0.6,-0.7 9.1,-13.5 18.7,-28.3 9.6,-14.9 26.1,-40.2 36.6,-56.3 L 359.9,709 285,709 c -41.3,0 -75,0.3 -75,0.6 z m 111.4,20.6 c -0.4,0.7 -8.8,13.8 -18.7,29 l -18,27.8 -2.4,-3.4 c -2.6,-3.9 -33.5,-51.4 -34.7,-53.4 -0.6,-0.9 7.1,-1.2 36.9,-1.2 29.8,0 37.5,0.3 36.9,1.2 z" />
  <path style="fill:#80d3ff;stroke:none;fill-opacity:1" inkscape:connector-curvature="0" id="path16" d="m 630,709.5 c 0,0.8 40.9,63.7 42.5,65.3 1,1.1 5.3,-4.9 22.9,-31.8 11.9,-18.2 21.6,-33.3 21.6,-33.5 0,-0.3 -19.6,-0.5 -43.5,-0.5 -23.9,0 -43.5,0.2 -43.5,0.5 z m 55.6,17.2 c -1.7,4.5 -11.8,21.3 -12.6,20.8 -0.9,-0.6 -13,-20.8 -13,-21.8 0,-0.4 5.9,-0.7 13.1,-0.7 12.1,0 13.1,0.1 12.5,1.7 z" />
  <path style="fill:#fedc00;stroke:none;fill-opacity:1" inkscape:connector-curvature="0" id="path18" d="m 387.6,716.2 c -0.8,1.3 -13.8,23.7 -29,49.8 l -27.5,47.5 45.3,0.3 45.4,0.2 -27,44.8 c -30.4,50.3 -30.1,49.7 -26.6,46.2 1.4,-1.4 27.1,-29.8 57.2,-63.3 L 480,781 l -41.5,0 c -22.8,0 -41.5,-0.2 -41.5,-0.5 0,-0.2 9,-15.3 20,-33.5 l 20,-33 -24,0 c -23.7,0 -24,0 -25.4,2.2 z" />
  <path style="fill:#80d3ff;stroke:none;fill-opacity:1" inkscape:connector-curvature="0" id="path20" d="m 599,794.6 c 0,1.6 74.4,114.4 75,113.7 1.2,-1.4 74,-113.4 74,-113.8 0,-0.3 -33.5,-0.5 -74.5,-0.5 -41,0 -74.5,0.3 -74.5,0.6 z m 110.4,22.1 c -1,1.6 -9.4,14.5 -18.7,28.8 -9.4,14.3 -17,26.1 -17.1,26.2 -0.2,0.2 -34.9,-52.8 -36.9,-56.3 -0.7,-1.2 5,-1.4 36.9,-1.4 l 37.6,0 -1.8,2.7 z" />
  <path style="fill:#80d3ff;stroke:none;fill-opacity:1" inkscape:connector-curvature="0" id="path22" d="m 241.6,837.2 c 1.8,3 41.7,64.4 42.4,65.1 0.5,0.6 42.4,-61.8 43.8,-65.5 0.2,-0.4 -19.3,-0.8 -43.3,-0.8 -34.6,0 -43.5,0.3 -42.9,1.2 z m 49.8,26 c -3.5,6.2 -6.7,11.2 -7,11.1 -0.6,-0.2 -13.4,-21 -13.4,-21.9 0,-0.2 6,-0.4 13.4,-0.4 l 13.5,0 -6.5,11.2 z" />
  <path style="fill:#dcdcdc;fill-opacity:1;stroke:none" inkscape:connector-curvature="0" id="path8-5" d="m 392.21758,139.27584 c -1.9,0.2 -7.8,0.9 -13,1.5 -5.2,0.6 -15.4,2.6 -22.6,4.4 -110.00001,28.1 -172.80001,142.70002 -137.40001,250.80002 4.9,14.7 13.7,33 22,45.6 l 6.3,9.4 4.9,-9.9 c 19.4,-38.8 52.20001,-68.4 92.30001,-83.4 10.6,-4 26.4,-8.2 35.6,-9.5 4,-0.5 5,-1.2 8.5,-5.7 5.5,-7.3 21.5,-23.1 30.9,-30.7 30,-24.2 70.2,-41.00001 107.7,-45.00001 13,-1.5 40.1,-1.3 51.8,0.3 5.2,0.7 9.7,1.2 9.8,1 0.6,-0.4 -7.8,-19.5 -11.6,-26.4 -9.9,-17.9 -22.5,-34.30001 -37.5,-48.60001 -35.1,-33.5 -80.4,-52.3 -129.4,-53.8 -8.2,-0.2 -16.4,-0.2 -18.3,0 z" />
  <path inkscape:connector-curvature="0" style="fill:#7b7b7b;fill-opacity:1;stroke:none" d="m 396.73958,158.77535 -20.85543,5.07607 c -48.33932,5.76119 -99.89476,47.84816 -122.59042,93.44974 -27.88469,56.02784 -24.73532,116.99001 6.97299,166.69893 16.39071,-23.01044 38.10282,-41.9322 63.50403,-55.41922 -3.07752,-28.82515 -2.11821,-66.46304 3.07144,-88.98224 6.93207,-30.07988 27.08956,-69.09546 47.59336,-92.07119 z" id="path8-0-7" sodipodi:nodetypes="ccsccscc" />
</svg>
