<?xml version="1.0" encoding="UTF-8" standalone="no"?>
<svg xmlns:dc="http://purl.org/dc/elements/1.1/" xmlns:cc="http://creativecommons.org/ns#" xmlns:rdf="http://www.w3.org/1999/02/22-rdf-syntax-ns#" xmlns:svg="http://www.w3.org/2000/svg" xmlns="http://www.w3.org/2000/svg" xmlns:sodipodi="http://sodipodi.sourceforge.net/DTD/sodipodi-0.dtd" xmlns:inkscape="http://www.inkscape.org/namespaces/inkscape" version="1.0" width="1024.000000pt" height="1024.000000pt" viewBox="0 0 1024.000000 1024.000000" preserveAspectRatio="xMidYMid meet" id="svg2" inkscape:version="0.48.5 r10040" sodipodi:docname="2333999.svg">
  <defs id="defs24" />
  <sodipodi:namedview pagecolor="#ffffff" bordercolor="#666666" borderopacity="1" objecttolerance="10" gridtolerance="10" guidetolerance="10" inkscape:pageopacity="0" inkscape:pageshadow="2" inkscape:window-width="942" inkscape:window-height="677" id="namedview22" showgrid="false" inkscape:zoom="0.184375" inkscape:cx="640" inkscape:cy="640" inkscape:window-x="701" inkscape:window-y="573" inkscape:window-maximized="0" inkscape:current-layer="svg2" />
  <metadata id="metadata4">
Created by potrace 1.11, written by Peter Selinger 2001-2013
<rdf:RDF>
  <cc:Work rdf:about="">
    <dc:format>image/svg+xml</dc:format>
    <dc:type rdf:resource="http://purl.org/dc/dcmitype/StillImage" />
  </cc:Work>
</rdf:RDF>
</metadata>
  <path style="fill:#80d3ff;stroke:none;fill-opacity:1" inkscape:connector-curvature="0" id="path12" d="m 402.5,689.3 c -66,34 -85.4,52.5 -85.5,81.2 -0.1,38.3 41,62.5 75.1,44.4 7,-3.8 16.7,-13.6 20.2,-20.4 7.8,-15.6 10,-31.9 9.8,-75 -0.1,-18.2 -0.5,-34.4 -0.9,-36.2 l -0.7,-3.2 -18,9.2 z m -8.5,54.3 c -1.3,27.1 -4.1,37.7 -11.4,44.1 -4.6,4.2 -9.6,5.6 -17.2,5.1 -8,-0.5 -13.7,-4.1 -17.6,-11.3 -5.9,-10.6 -2.7,-22.4 8.6,-31.7 8.6,-7.2 37.2,-25.5 38.3,-24.5 0.1,0.2 -0.2,8.4 -0.7,18.3 z" />
  <path style="fill:#dcdcdc;stroke:none;fill-opacity:1" inkscape:connector-curvature="0" id="path14" d="m 664.3,684.5 c -1.8,0.8 -4.2,2.9 -5.3,4.7 -1.8,3 -2,5 -2,21 0,9.8 -0.2,17.8 -0.4,17.8 -0.2,0 -7.1,-4.2 -15.3,-9.2 -12.7,-8 -15.4,-9.3 -18.9,-9.2 -10.5,0.2 -16.2,12.7 -9.1,20.2 1.2,1.3 8.8,6.4 16.9,11.4 8.2,5 14.8,9.4 14.8,9.7 -0.1,0.3 -7.1,4.8 -15.6,10 -16.4,9.8 -19.4,12.7 -19.4,18.7 0,3.7 3.6,9.3 7,11.2 5,2.6 9.7,1 25,-8.5 l 14.5,-9 0.5,18.9 0.5,19 3.7,3.4 c 3,2.7 4.6,3.4 7.8,3.4 2.3,0 5.4,-0.7 7,-1.5 5.3,-2.8 6,-5.5 6,-25 0,-9.6 0.3,-17.5 0.8,-17.5 0.4,0 7.2,4.1 15.2,9 11.7,7.3 15.2,9 18.3,9 9.8,0 15.9,-10.3 10.9,-18.5 -1.2,-2 -7.3,-6.3 -17.5,-12.5 -8.6,-5.2 -15.6,-9.7 -15.7,-10 0,-0.3 7.1,-4.8 15.6,-10 16.5,-10 19.4,-12.8 19.4,-18.8 0,-7.2 -5.2,-12.2 -12.7,-12.2 -3,0 -6.7,1.8 -17.8,8.6 -7.7,4.7 -14.6,8.8 -15.2,9.1 -1,0.4 -1.3,-3.6 -1.3,-18 0,-17.4 -0.1,-18.6 -2.2,-21.2 -2.2,-2.8 -7.4,-5.5 -10.5,-5.5 -1,0.1 -3.3,0.7 -5,1.5 z" />
  <path style="fill:#dcdcdc;stroke:none;fill-opacity:1" inkscape:connector-curvature="0" id="path16" d="m 517.2,691.3 c -2,2.1 -2.2,3.4 -2.2,13.5 0,6.2 -0.2,11.2 -0.5,11.2 -0.3,0 -4.5,-2.5 -9.4,-5.5 -4.9,-3 -10,-5.5 -11.4,-5.5 -3.9,0 -7.7,3.6 -7.7,7.3 0.1,4.3 1.1,5.4 11.8,12.1 5,3.2 9.2,5.9 9.2,6.1 0,0.2 -4.5,3.1 -9.9,6.4 -10.2,6.4 -11.1,7.3 -11.1,12.1 0,3.3 4,7 7.5,7 1.2,0 6.3,-2.5 11.3,-5.5 5,-3 9.4,-5.5 9.7,-5.5 0.3,0 0.5,5.1 0.5,11.3 0,10.6 0.2,11.5 2.3,13.5 3.1,2.9 7.7,2.9 10.5,-0.1 2,-2.1 2.2,-3.4 2.2,-13.5 0,-6.2 0.2,-11.2 0.5,-11.2 0.3,0 4.5,2.5 9.4,5.5 9.9,6.1 13.5,6.8 16.9,3.2 2.4,-2.6 2.9,-7.3 0.9,-9.7 -0.7,-0.9 -5.4,-4.2 -10.4,-7.4 -5.1,-3.2 -9.3,-5.9 -9.3,-6.1 0,-0.2 3.9,-2.7 8.7,-5.6 10.8,-6.6 12.3,-8 12.3,-12.3 0,-3.8 -3.6,-7.6 -7.3,-7.6 -1.2,0 -6.3,2.5 -11.3,5.5 -5.1,3 -9.5,5.5 -9.8,5.5 -0.3,0 -0.6,-5.1 -0.6,-11.3 0,-10.6 -0.2,-11.5 -2.3,-13.5 -3.1,-2.9 -7.7,-2.9 -10.5,0.1 z" />
  <path style="fill:#80d3ff;stroke:none;fill-opacity:1" inkscape:connector-curvature="0" id="path18" d="m 571,785.2 c -50.5,26.1 -71.9,41.8 -80.4,58.5 -10,20 -6.4,42.8 9.3,58.3 10.7,10.6 21.4,15 36.1,15 13.5,0 26.2,-5.3 35.9,-15.1 9.4,-9.3 14.2,-21.7 17.2,-44.4 1.4,-10.2 1.6,-75.6 0.2,-79.2 -0.8,-2.2 -1.3,-1.9 -18.3,6.9 z m -8.5,50.5 c -1.5,34.1 -5.3,45.5 -16.9,51.5 -6.1,3.1 -17,2.3 -22.8,-1.7 -5.7,-4 -9.8,-11.9 -9.8,-18.9 0.1,-12.4 8.2,-20.9 36.4,-37.8 7.2,-4.3 13.2,-7.8 13.4,-7.8 0.2,0 0.1,6.6 -0.3,14.7 z" />
  <path style="fill:#dcdcdc;stroke:none;fill-opacity:1" inkscape:connector-curvature="0" id="path20" d="m 382.2,839.3 c -2,2.1 -2.2,3.4 -2.2,13.5 0,6.2 -0.3,11.2 -0.6,11.2 -0.3,0 -4.6,-2.5 -9.5,-5.5 -4.9,-3 -9.9,-5.5 -11.3,-5.5 -3.6,0 -7.6,3.7 -7.6,7 0,4.8 0.9,5.7 11.1,12.1 5.4,3.3 9.9,6.2 9.9,6.4 0,0.2 -4.5,3.1 -9.9,6.4 -10.2,6.4 -11.1,7.3 -11.1,12.1 0,3.3 4,7 7.5,7 1.2,0 6,-2.3 10.6,-5.1 4.6,-2.8 9,-5.4 9.7,-5.6 0.9,-0.4 1.2,2.2 1.2,10.9 0,10.7 0.2,11.6 2.3,13.6 3.1,2.9 7.7,2.9 10.5,-0.1 2,-2.1 2.2,-3.4 2.2,-13.5 0,-6.2 0.2,-11.2 0.5,-11.2 0.3,0 4.5,2.5 9.3,5.5 5.6,3.5 10,5.5 11.9,5.5 3.8,0 7.3,-3.6 7.3,-7.7 0,-3.7 -2.7,-6.3 -13.1,-12.4 -3.8,-2.3 -7.2,-4.5 -7.4,-4.9 -0.3,-0.5 3.4,-3.2 8.2,-6.1 10.8,-6.6 12.3,-8 12.3,-12.3 0,-3.9 -3.7,-7.6 -7.5,-7.6 -1.2,0 -6,2.3 -10.6,5.1 -4.6,2.8 -9,5.4 -9.6,5.6 -1,0.4 -1.3,-2.2 -1.3,-10.9 0,-10.7 -0.2,-11.6 -2.3,-13.6 -3.1,-2.9 -7.7,-2.9 -10.5,0.1 z" />
  <path style="fill:#dcdcdc;fill-opacity:1;stroke:none" inkscape:connector-curvature="0" id="path10-8" d="m 539.60772,303.25497 c -50.6,4.4 -99.1,33.9 -125.3,76.1 l -4.2,6.8 -9.1,0 c -11.4,0 -25.3,2.3 -36.9,6.2 -17.9,6 -32.1,14.6 -45.9,27.8 -25.60002,24.5 -38.70002,54.8 -38.70002,89.5 0,28.2 8.1,52.4 24.80002,74.6 18.4,24.4 42.8,39.9 74,47.1 l 9.8,2.2 161.5,0.4 c 168.19998,0.3 174.89998,0.2 190.59998,-3.9 28.8,-7.5 54.6,-28.9 67.9,-56.3 6.8,-14 9.6,-25.4 10.2,-42.1 0.6,-16.5 -1.5,-29.1 -7.2,-43.3 -15.1,-37.3 -49.7,-62.9 -89.4,-66 l -8.3,-0.7 -3.3,-9 c -8.7,-24.2 -23.09999,-46.3 -41.49999,-63.9 -28,-26.7 -62.59999,-42.2 -101.99999,-45.6 -12.7,-1.1 -13.4,-1.1 -27,0.1 z m 42.5,55.3 c 12.5,3.3 29.7,11.6 40.19999,19.5 14.6,11 26.6,25.8 34.6,42.9 5.8,12.5 5.7,12.8 -3.8,19.3 -9.1,6.2 -12.9,11.4 -14.7,19.9 -2.8,13.6 7.1,27.4 21.7,30.1 6.5,1.2 13.1,-0.6 21.4,-6 9.9,-6.3 17.59999,-9 27.19999,-9.8 26.8,-2.1 50.8,16 56.4,42.4 1.8,8.6 1.8,13 0,21.8 -4.2,20 -21.3,37.4 -40.7,41.4 -3.7,0.8 -53.99999,1.1 -170.29998,0.9 l -165,-0.3 -8,-2.8 c -19.5,-6.9 -33,-18.6 -42,-36.5 -9.9,-19.9 -9.9,-42.3 0.1,-63.1 7.8,-16.1 23.8,-30.2 40.9,-36.1 18.7,-6.4 41.9,-4 59.3,6.2 5.9,3.4 17.8,14.7 24.6,23.2 12.2,15.2 36.6,11.7 44.4,-6.3 2.4,-5.6 2,-15.7 -0.8,-21.1 -5.7,-11.1 -24,-29.9 -36.8,-38 -3.9,-2.5 -7.2,-5 -7.2,-5.6 0,-2.2 15.8,-18 23.7,-23.6 14.6,-10.5 32.9,-18.1 49.8,-20.8 3.3,-0.5 12.5,-0.7 20.5,-0.5 11.5,0.3 16.6,0.9 24.5,2.9 z" />
  <path style="fill:#dcdcdc;fill-opacity:1;stroke:none" inkscape:connector-curvature="0" id="path8-5" d="m 397.16428,138.43081 c -1.9,0.2 -7.8,0.9 -13,1.5 -5.2,0.6 -15.4,2.6 -22.6,4.4 -110.00002,28.1 -172.80002,142.70001 -137.40002,250.80001 4.9,14.7 13.7,33 22,45.6 l 6.3,9.4 4.9,-9.9 c 19.4,-38.8 52.20002,-68.4 92.30002,-83.4 10.6,-4 26.4,-8.2 35.6,-9.5 4,-0.5 5,-1.2 8.5,-5.7 5.5,-7.3 21.5,-23.1 30.9,-30.7 30,-24.2 70.2,-41.00001 107.7,-45.00001 13,-1.5 40.1,-1.3 51.8,0.3 5.2,0.7 9.7,1.2 9.8,1 0.6,-0.4 -7.8,-19.5 -11.6,-26.4 -9.9,-17.9 -22.5,-34.3 -37.5,-48.6 -35.1,-33.5 -80.4,-52.3 -129.4,-53.8 -8.2,-0.2 -16.4,-0.2 -18.3,0 z" />
  <path inkscape:connector-curvature="0" style="fill:#7b7b7b;fill-opacity:1;stroke:none" d="m 401.68628,157.93032 -20.85543,5.07607 c -48.33932,5.76119 -99.89477,47.84816 -122.59043,93.44973 -27.88469,56.02784 -24.73532,116.99001 6.97299,166.69893 16.39071,-23.01044 38.10283,-41.9322 63.50404,-55.41922 -3.07752,-28.82515 -2.11821,-66.46304 3.07144,-88.98224 6.93207,-30.07988 27.08956,-69.09545 47.59336,-92.07118 z" id="path8-0-7" sodipodi:nodetypes="ccsccscc" />
</svg>
