<?xml version="1.0" encoding="UTF-8" standalone="no"?>
<svg xmlns:dc="http://purl.org/dc/elements/1.1/" xmlns:cc="http://creativecommons.org/ns#" xmlns:rdf="http://www.w3.org/1999/02/22-rdf-syntax-ns#" xmlns:svg="http://www.w3.org/2000/svg" xmlns="http://www.w3.org/2000/svg" xmlns:sodipodi="http://sodipodi.sourceforge.net/DTD/sodipodi-0.dtd" xmlns:inkscape="http://www.inkscape.org/namespaces/inkscape" version="1.0" width="1024.000000pt" height="1024.000000pt" viewBox="0 0 1024.000000 1024.000000" preserveAspectRatio="xMidYMid meet" id="svg2" inkscape:version="0.48.5 r10040" sodipodi:docname="2233999.svg">
  <defs id="defs24" />
  <sodipodi:namedview pagecolor="#ffffff" bordercolor="#666666" borderopacity="1" objecttolerance="10" gridtolerance="10" guidetolerance="10" inkscape:pageopacity="0" inkscape:pageshadow="2" inkscape:window-width="1037" inkscape:window-height="661" id="namedview22" showgrid="false" inkscape:zoom="0.184375" inkscape:cx="640" inkscape:cy="640" inkscape:window-x="1359" inkscape:window-y="191" inkscape:window-maximized="0" inkscape:current-layer="svg2" />
  <metadata id="metadata4">
Created by potrace 1.11, written by Peter Selinger 2001-2013
<rdf:RDF>
  <cc:Work rdf:about="">
    <dc:format>image/svg+xml</dc:format>
    <dc:type rdf:resource="http://purl.org/dc/dcmitype/StillImage" />
  </cc:Work>
</rdf:RDF>
</metadata>
  <path style="fill:#80d3ff;stroke:none;fill-opacity:1" inkscape:connector-curvature="0" id="path12" d="m 402.5,689.3 c -66,34 -85.4,52.5 -85.5,81.2 -0.1,38.3 41,62.5 75.1,44.4 7,-3.8 16.7,-13.6 20.2,-20.4 7.8,-15.6 10,-31.9 9.8,-75 -0.1,-18.2 -0.5,-34.4 -0.9,-36.2 l -0.7,-3.2 -18,9.2 z m -8.5,54.3 c -1.3,27.1 -4.1,37.7 -11.4,44.1 -4.6,4.2 -9.6,5.6 -17.2,5.1 -8,-0.5 -13.7,-4.1 -17.6,-11.3 -5.9,-10.6 -2.7,-22.4 8.6,-31.7 8.6,-7.2 37.2,-25.5 38.3,-24.5 0.1,0.2 -0.2,8.4 -0.7,18.3 z" />
  <path style="fill:#dcdcdc;stroke:none;fill-opacity:1" inkscape:connector-curvature="0" id="path14" d="m 664.3,684.5 c -1.8,0.8 -4.2,2.9 -5.3,4.7 -1.8,3 -2,5 -2,21 0,9.8 -0.2,17.8 -0.4,17.8 -0.2,0 -7.1,-4.2 -15.3,-9.2 -12.7,-8 -15.4,-9.3 -18.9,-9.2 -10.5,0.2 -16.2,12.7 -9.1,20.2 1.2,1.3 8.8,6.4 16.9,11.4 8.2,5 14.8,9.4 14.8,9.7 -0.1,0.3 -7.1,4.8 -15.6,10 -16.4,9.8 -19.4,12.7 -19.4,18.7 0,3.7 3.6,9.3 7,11.2 5,2.6 9.7,1 25,-8.5 l 14.5,-9 0.5,18.9 0.5,19 3.7,3.4 c 3,2.7 4.6,3.4 7.8,3.4 2.3,0 5.4,-0.7 7,-1.5 5.3,-2.8 6,-5.5 6,-25 0,-9.6 0.3,-17.5 0.8,-17.5 0.4,0 7.2,4.1 15.2,9 11.7,7.3 15.2,9 18.3,9 9.8,0 15.9,-10.3 10.9,-18.5 -1.2,-2 -7.3,-6.3 -17.5,-12.5 -8.6,-5.2 -15.6,-9.7 -15.7,-10 0,-0.3 7.1,-4.8 15.6,-10 16.5,-10 19.4,-12.8 19.4,-18.8 0,-7.2 -5.2,-12.2 -12.7,-12.2 -3,0 -6.7,1.8 -17.8,8.6 -7.7,4.7 -14.6,8.8 -15.2,9.1 -1,0.4 -1.3,-3.6 -1.3,-18 0,-17.4 -0.1,-18.6 -2.2,-21.2 -2.2,-2.8 -7.4,-5.5 -10.5,-5.5 -1,0.1 -3.3,0.7 -5,1.5 z" />
  <path style="fill:#dcdcdc;stroke:none;fill-opacity:1" inkscape:connector-curvature="0" id="path16" d="m 517.2,691.3 c -2,2.1 -2.2,3.4 -2.2,13.5 0,6.2 -0.2,11.2 -0.5,11.2 -0.3,0 -4.5,-2.5 -9.4,-5.5 -4.9,-3 -10,-5.5 -11.4,-5.5 -3.9,0 -7.7,3.6 -7.7,7.3 0.1,4.3 1.1,5.4 11.8,12.1 5,3.2 9.2,5.9 9.2,6.1 0,0.2 -4.5,3.1 -9.9,6.4 -10.2,6.4 -11.1,7.3 -11.1,12.1 0,3.3 4,7 7.5,7 1.2,0 6.3,-2.5 11.3,-5.5 5,-3 9.4,-5.5 9.7,-5.5 0.3,0 0.5,5.1 0.5,11.3 0,10.6 0.2,11.5 2.3,13.5 3.1,2.9 7.7,2.9 10.5,-0.1 2,-2.1 2.2,-3.4 2.2,-13.5 0,-6.2 0.2,-11.2 0.5,-11.2 0.3,0 4.5,2.5 9.4,5.5 9.9,6.1 13.5,6.8 16.9,3.2 2.4,-2.6 2.9,-7.3 0.9,-9.7 -0.7,-0.9 -5.4,-4.2 -10.4,-7.4 -5.1,-3.2 -9.3,-5.9 -9.3,-6.1 0,-0.2 3.9,-2.7 8.7,-5.6 10.8,-6.6 12.3,-8 12.3,-12.3 0,-3.8 -3.6,-7.6 -7.3,-7.6 -1.2,0 -6.3,2.5 -11.3,5.5 -5.1,3 -9.5,5.5 -9.8,5.5 -0.3,0 -0.6,-5.1 -0.6,-11.3 0,-10.6 -0.2,-11.5 -2.3,-13.5 -3.1,-2.9 -7.7,-2.9 -10.5,0.1 z" />
  <path style="fill:#80d3ff;stroke:none;fill-opacity:1" inkscape:connector-curvature="0" id="path18" d="m 571,785.2 c -50.5,26.1 -71.9,41.8 -80.4,58.5 -10,20 -6.4,42.8 9.3,58.3 10.7,10.6 21.4,15 36.1,15 13.5,0 26.2,-5.3 35.9,-15.1 9.4,-9.3 14.2,-21.7 17.2,-44.4 1.4,-10.2 1.6,-75.6 0.2,-79.2 -0.8,-2.2 -1.3,-1.9 -18.3,6.9 z m -8.5,50.5 c -1.5,34.1 -5.3,45.5 -16.9,51.5 -6.1,3.1 -17,2.3 -22.8,-1.7 -5.7,-4 -9.8,-11.9 -9.8,-18.9 0.1,-12.4 8.2,-20.9 36.4,-37.8 7.2,-4.3 13.2,-7.8 13.4,-7.8 0.2,0 0.1,6.6 -0.3,14.7 z" />
  <path style="fill:#dcdcdc;stroke:none;fill-opacity:1" inkscape:connector-curvature="0" id="path20" d="m 382.2,839.3 c -2,2.1 -2.2,3.4 -2.2,13.5 0,6.2 -0.3,11.2 -0.6,11.2 -0.3,0 -4.6,-2.5 -9.5,-5.5 -4.9,-3 -9.9,-5.5 -11.3,-5.5 -3.6,0 -7.6,3.7 -7.6,7 0,4.8 0.9,5.7 11.1,12.1 5.4,3.3 9.9,6.2 9.9,6.4 0,0.2 -4.5,3.1 -9.9,6.4 -10.2,6.4 -11.1,7.3 -11.1,12.1 0,3.3 4,7 7.5,7 1.2,0 6,-2.3 10.6,-5.1 4.6,-2.8 9,-5.4 9.7,-5.6 0.9,-0.4 1.2,2.2 1.2,10.9 0,10.7 0.2,11.6 2.3,13.6 3.1,2.9 7.7,2.9 10.5,-0.1 2,-2.1 2.2,-3.4 2.2,-13.5 0,-6.2 0.2,-11.2 0.5,-11.2 0.3,0 4.5,2.5 9.3,5.5 5.6,3.5 10,5.5 11.9,5.5 3.8,0 7.3,-3.6 7.3,-7.7 0,-3.7 -2.7,-6.3 -13.1,-12.4 -3.8,-2.3 -7.2,-4.5 -7.4,-4.9 -0.3,-0.5 3.4,-3.2 8.2,-6.1 10.8,-6.6 12.3,-8 12.3,-12.3 0,-3.9 -3.7,-7.6 -7.5,-7.6 -1.2,0 -6,2.3 -10.6,5.1 -4.6,2.8 -9,5.4 -9.6,5.6 -1,0.4 -1.3,-2.2 -1.3,-10.9 0,-10.7 -0.2,-11.6 -2.3,-13.6 -3.1,-2.9 -7.7,-2.9 -10.5,0.1 z" />
  <path style="fill:#dcdcdc;fill-opacity:0.94117647;stroke:none" inkscape:connector-curvature="0" id="path10-1" d="m 541.97659,303.14575 c -50.5,4.1 -97.7,32.2 -125.5,74.8 l -5.1,7.9 -12.2,0.6 c -33.3,1.5 -62.6,14.9 -85,38.7 -17.00001,18 -28.1,40 -32.2,63.8 -1.9,11 -1.9,31.6 0,42.8 7.8,44.2 40,81.6 82.6,95.8 20.8,7 11.7,6.7 198.4,6.4 l 168,-0.3 9.7,-2.7 c 20.1,-5.5 34.2,-13.9 49.3,-29.2 14.4,-14.7 22.2,-28.6 27.6,-49.2 2,-7.6 2.3,-11.3 2.3,-24.9 0,-14 -0.4,-17.2 -2.7,-25.7 -10.9,-40.6 -43.9,-71.2 -84.6,-78.3 -4.6,-0.8 -10.5,-1.5 -13.1,-1.5 l -4.7,0 -3.3,-9.3 c -13.7,-39.4 -43.8,-73.4 -82.1,-92.8 -25.6,-12.9 -58.2,-19.2 -87.4,-16.9 z m 30.8,53.5 c 39.3,5.9 73.3,33.2 88.3,70.8 1.4,3.7 2.5,7 2.3,7.2 -0.2,0.2 -3.9,2.6 -8.1,5.4 -12.2,7.9 -16.6,15.7 -15.5,27.4 1.4,15.3 16.3,26.1 31.2,22.8 3,-0.7 7.8,-2.8 10.7,-4.8 15.9,-11 31.8,-13.6 49.4,-8.2 16.3,5 31.5,21.3 35.3,37.9 1.5,6.3 1.3,20.6 -0.3,26.5 -4.6,17.2 -17.5,31 -35,37.4 l -7.1,2.6 -165,0 c -186,0 -169.4,0.7 -187,-7.9 -36.6,-18 -50.3,-64.4 -29.5,-99.7 9.9,-16.8 27,-29.3 45.8,-33.5 11.3,-2.5 29.3,-1.6 39.2,2.1 14.5,5.2 23.9,12.6 37.7,29.2 5.4,6.5 11.8,9.6 19.9,9.6 18,0.1 30.8,-17.5 24.9,-34.3 -4.2,-11.9 -25.8,-34.2 -42.2,-43.6 -1.8,-1 -3.3,-2.1 -3.3,-2.4 0,-1.3 11.1,-13.6 16.6,-18.3 25.5,-21.8 58.4,-31.2 91.7,-26.2 z" />
  <path style="fill:#dcdcdc;fill-opacity:1;stroke:none" inkscape:connector-curvature="0" id="path8-7" d="m 395.69417,138.4216 c -1.9,0.2 -7.8,0.9 -13,1.5 -5.2,0.6 -15.4,2.6 -22.6,4.4 -110,28.1 -172.8,142.7 -137.4,250.8 4.9,14.7 13.7,33 22,45.6 l 6.3,9.4 4.9,-9.9 c 19.4,-38.8 52.2,-68.4 92.3,-83.4 10.6,-4 26.4,-8.2 35.6,-9.5 4,-0.5 5,-1.2 8.5,-5.7 5.5,-7.3 21.5,-23.1 30.9,-30.7 30,-24.2 70.2,-41 107.7,-45 13,-1.5 40.1,-1.3 51.8,0.3 5.2,0.7 9.7,1.2 9.8,1 0.6,-0.4 -7.8,-19.5 -11.6,-26.4 -9.9,-17.9 -22.5,-34.3 -37.5,-48.6 -35.1,-33.5 -80.4,-52.3 -129.4,-53.8 -8.2,-0.2 -16.4,-0.2 -18.3,0 z" />
  <path inkscape:connector-curvature="0" style="fill:#7b7b7b;fill-opacity:1;stroke:none" d="m 402.38566,149.24314 -21.27315,5.28367 c -49.30756,5.99683 -101.89566,49.80512 -125.04592,97.27175 -28.44322,58.3193 -25.23076,121.77477 7.11266,173.51675 16.71902,-23.95154 38.86602,-43.64718 64.77601,-57.68582 -3.13916,-30.00407 -2.16064,-69.18132 3.13296,-92.62153 7.07092,-31.31012 27.63217,-71.92138 48.54668,-95.83679 z" id="path8-0" sodipodi:nodetypes="ccsccscc" />
</svg>
