<?xml version="1.0" encoding="UTF-8" standalone="no"?>
<svg xmlns:dc="http://purl.org/dc/elements/1.1/" xmlns:cc="http://creativecommons.org/ns#" xmlns:rdf="http://www.w3.org/1999/02/22-rdf-syntax-ns#" xmlns:svg="http://www.w3.org/2000/svg" xmlns="http://www.w3.org/2000/svg" xmlns:sodipodi="http://sodipodi.sourceforge.net/DTD/sodipodi-0.dtd" xmlns:inkscape="http://www.inkscape.org/namespaces/inkscape" version="1.0" width="1024.000000pt" height="1024.000000pt" viewBox="0 0 1024.000000 1024.000000" preserveAspectRatio="xMidYMid meet" id="svg2" inkscape:version="0.48.5 r10040" sodipodi:docname="sym9295991.svg">
  <defs id="defs30" />
  <sodipodi:namedview pagecolor="#ffffff" bordercolor="#666666" borderopacity="1" objecttolerance="10" gridtolerance="10" guidetolerance="10" inkscape:pageopacity="0" inkscape:pageshadow="2" inkscape:window-width="887" inkscape:window-height="662" id="namedview28" showgrid="false" inkscape:zoom="0.26074563" inkscape:cx="672.76817" inkscape:cy="645.33823" inkscape:window-x="1517" inkscape:window-y="31" inkscape:window-maximized="0" inkscape:current-layer="svg2" />
  <metadata id="metadata4">
Created by potrace 1.11, written by Peter Selinger 2001-2013
<rdf:RDF>
  <cc:Work rdf:about="">
    <dc:format>image/svg+xml</dc:format>
    <dc:type rdf:resource="http://purl.org/dc/dcmitype/StillImage" />
  </cc:Work>
</rdf:RDF>
</metadata>
  <path style="fill:#dcdcdc;stroke:none;fill-opacity:1" inkscape:connector-curvature="0" id="path10" d="m 307.9,644.6 c -5,3.2 -5.4,4.7 -5.9,24.6 l -0.5,18.7 -14.5,-9.1 C 268.1,667 263.1,666.3 257.2,675 c -2.7,3.9 -2.6,9.2 0.1,13.4 0.9,1.3 8,6.3 15.9,11.1 7.9,4.8 14.9,9.3 15.6,10 1.1,1 -1.5,3 -13.6,10.5 -8.3,5 -16,10.2 -17.1,11.4 -4.6,4.9 -3.2,14.5 2.5,18.3 5.7,3.7 9.6,2.6 25.9,-7.5 l 15,-9.2 0.5,19 0.5,19 3.3,3.2 c 2.9,2.9 3.9,3.3 8.7,3.3 4.8,0 5.8,-0.4 8.7,-3.3 l 3.3,-3.2 0.5,-18.9 0.5,-18.9 14.5,9.1 c 13.4,8.5 14.9,9.1 19.7,9.2 4.6,0 5.7,-0.4 8.4,-3.1 2.3,-2.3 3.2,-4.3 3.6,-7.5 0.7,-7.1 -1.6,-9.5 -19.1,-20.4 -8.6,-5.3 -15.6,-9.8 -15.6,-10 0,-0.2 6.7,-4.4 15,-9.5 18,-11 20.4,-13.5 19.8,-20.2 -0.8,-7.6 -7.1,-12.7 -14,-11.4 -1.8,0.4 -9.8,4.7 -17.8,9.6 l -14.5,8.9 -0.5,-18.9 -0.5,-19 -3.2,-3.1 c -3.9,-3.9 -11.2,-5 -15.4,-2.3 z" />
  <path style="fill:#dcdcdc;stroke:none;fill-opacity:1" inkscape:connector-curvature="0" id="path12" d="m 521.9,644.6 c -5,3.2 -5.4,4.7 -5.9,24.6 l -0.5,18.7 -14.5,-9.1 C 482.1,667 477.1,666.3 471.2,675 c -2.7,3.9 -2.6,9.2 0.1,13.4 0.9,1.3 8,6.3 15.9,11.1 7.9,4.8 14.9,9.3 15.6,10 1.1,1 -1.5,3 -13.6,10.5 -8.3,5 -16,10.2 -17.1,11.4 -4.6,4.9 -3.2,14.5 2.5,18.3 5.7,3.7 9.6,2.6 25.9,-7.5 l 15,-9.2 0.5,19 0.5,19 3.3,3.2 c 2.9,2.9 3.9,3.3 8.7,3.3 4.8,0 5.8,-0.4 8.7,-3.3 l 3.3,-3.2 0.5,-18.9 0.5,-18.9 14.5,9.1 c 13.4,8.5 14.9,9.1 19.7,9.2 4.6,0 5.7,-0.4 8.4,-3.1 2.3,-2.3 3.2,-4.3 3.6,-7.5 0.7,-7.1 -1.6,-9.5 -19.1,-20.4 -8.6,-5.3 -15.6,-9.8 -15.6,-10 0,-0.2 6.7,-4.4 15,-9.5 18,-11 20.4,-13.5 19.8,-20.2 -0.8,-7.6 -7.1,-12.7 -14,-11.4 -1.8,0.4 -9.8,4.7 -17.8,9.6 l -14.5,8.9 -0.5,-18.9 -0.5,-19 -3.2,-3.1 c -3.9,-3.9 -11.2,-5 -15.4,-2.3 z" />
  <path style="fill:#dcdcdc;stroke:none;fill-opacity:1" inkscape:connector-curvature="0" id="path14" d="m 735.9,644.6 c -5,3.2 -5.4,4.7 -5.9,24.6 l -0.5,18.7 -14.5,-9.1 C 696.1,667 691.1,666.3 685.2,675 c -2.7,3.9 -2.6,9.2 0.1,13.4 0.9,1.3 8,6.3 15.9,11.1 7.9,4.8 14.9,9.3 15.6,10 1.1,1 -1.5,3 -13.6,10.5 -8.3,5 -16,10.2 -17.1,11.4 -4.6,4.9 -3.2,14.5 2.5,18.3 5.7,3.7 9.6,2.6 25.9,-7.5 l 15,-9.2 0.5,19 0.5,19 3.3,3.2 c 2.9,2.9 3.9,3.3 8.7,3.3 4.8,0 5.8,-0.4 8.7,-3.3 l 3.3,-3.2 0.5,-18.9 0.5,-18.9 14.5,9.1 c 13.4,8.5 14.9,9.1 19.7,9.2 4.6,0 5.7,-0.4 8.4,-3.1 2.3,-2.3 3.2,-4.3 3.6,-7.5 0.7,-7.1 -1.6,-9.5 -19.1,-20.4 -8.6,-5.3 -15.6,-9.8 -15.6,-10 0,-0.2 6.7,-4.4 15,-9.5 18,-11 20.4,-13.5 19.8,-20.2 -0.8,-7.6 -7.1,-12.7 -14,-11.4 -1.8,0.4 -9.8,4.7 -17.8,9.6 l -14.5,8.9 -0.5,-18.9 -0.5,-19 -3.2,-3.1 c -3.9,-3.9 -11.2,-5 -15.4,-2.3 z" />
  <path style="fill:#dcdcdc;stroke:none;fill-opacity:1" inkscape:connector-curvature="0" id="path16" d="m 209.8,754 c -2.7,2 -2.7,2.4 -3,14 l -0.3,11.9 -9,-5.6 c -10.2,-6.4 -14.5,-7.3 -17.6,-3.4 -2.1,2.5 -2.4,6.2 -0.9,9.1 0.5,1 5.3,4.4 10.5,7.7 5.2,3.2 9.5,6 9.5,6.3 0,0.3 -4.4,3.2 -9.8,6.5 -10.2,6.3 -12.1,8.8 -10.8,13.9 0.4,1.7 1.9,3.2 4.1,4.3 3.7,1.8 3.3,1.9 20.8,-8.6 l 3.7,-2.3 0,12 c 0,11.9 0,12.1 2.7,14.2 3.3,2.6 7.9,2.1 10.6,-1.1 1.4,-1.7 1.7,-4.1 1.7,-13.5 l 0,-11.4 9.2,5.7 c 10.5,6.5 14.8,7.3 17.9,3.4 2.1,-2.5 2.4,-6.2 0.9,-9.1 -0.5,-1 -5.3,-4.4 -10.5,-7.7 -5.2,-3.2 -9.5,-6 -9.5,-6.3 0,-0.3 3.8,-2.7 8.3,-5.4 4.5,-2.7 9.2,-5.8 10.5,-6.9 2.9,-2.7 3,-8.6 0.2,-11.2 -3.6,-3.2 -7.7,-2.3 -17.5,3.8 l -9,5.6 L 222,768 c -0.5,-13 -1.2,-14.5 -6.5,-15.6 -2.2,-0.4 -3.8,0 -5.7,1.6 z" />
  <path style="fill:#dcdcdc;stroke:none;fill-opacity:1" inkscape:connector-curvature="0" id="path18" d="m 423.8,754 c -2.7,2 -2.7,2.4 -3,14 l -0.3,11.9 -9,-5.6 c -10.2,-6.4 -14.5,-7.3 -17.6,-3.4 -2.1,2.5 -2.4,6.2 -0.9,9.1 0.5,1 5.3,4.4 10.5,7.7 5.2,3.2 9.5,6 9.5,6.3 0,0.3 -4.4,3.2 -9.8,6.5 -10.2,6.3 -12.1,8.8 -10.8,13.9 0.4,1.7 1.9,3.2 4.1,4.3 3.7,1.8 3.3,1.9 20.8,-8.6 l 3.7,-2.3 0,12 c 0,11.9 0,12.1 2.7,14.2 3.3,2.6 7.9,2.1 10.6,-1.1 1.4,-1.7 1.7,-4.1 1.7,-13.5 l 0,-11.4 9.2,5.7 c 10.5,6.5 14.8,7.3 17.9,3.4 2.1,-2.5 2.4,-6.2 0.9,-9.1 -0.5,-1 -5.3,-4.4 -10.5,-7.7 -5.2,-3.2 -9.5,-6 -9.5,-6.3 0,-0.3 3.8,-2.7 8.3,-5.4 4.5,-2.7 9.2,-5.8 10.5,-6.9 2.9,-2.7 3,-8.6 0.2,-11.2 -3.6,-3.2 -7.7,-2.3 -17.5,3.8 l -9,5.6 L 436,768 c -0.5,-13 -1.2,-14.5 -6.5,-15.6 -2.2,-0.4 -3.8,0 -5.7,1.6 z" />
  <path style="fill:#dcdcdc;stroke:none;fill-opacity:1" inkscape:connector-curvature="0" id="path20" d="m 637.8,754 c -2.7,2 -2.7,2.4 -3,14 l -0.3,11.9 -9,-5.6 c -10.2,-6.4 -14.5,-7.3 -17.6,-3.4 -2.1,2.5 -2.4,6.2 -0.9,9.1 0.5,1 5.3,4.4 10.5,7.7 5.2,3.2 9.5,6 9.5,6.3 0,0.3 -4.4,3.2 -9.8,6.5 -10.2,6.3 -12.1,8.8 -10.8,13.9 0.4,1.7 1.9,3.2 4.1,4.3 3.7,1.8 3.3,1.9 20.8,-8.6 l 3.7,-2.3 0,12 c 0,11.9 0,12.1 2.7,14.2 3.3,2.6 7.9,2.1 10.6,-1.1 1.4,-1.7 1.7,-4.1 1.7,-13.5 l 0,-11.4 9.2,5.7 c 10.5,6.5 14.8,7.3 17.9,3.4 2.1,-2.5 2.4,-6.2 0.9,-9.1 -0.5,-1 -5.3,-4.4 -10.5,-7.7 -5.2,-3.2 -9.5,-6 -9.5,-6.3 0,-0.3 3.8,-2.7 8.3,-5.4 4.5,-2.7 9.2,-5.8 10.5,-6.9 2.9,-2.7 3,-8.6 0.2,-11.2 -3.6,-3.2 -7.7,-2.3 -17.5,3.8 l -9,5.6 L 650,768 c -0.5,-13 -1.2,-14.5 -6.5,-15.6 -2.2,-0.4 -3.8,0 -5.7,1.6 z" />
  <path style="fill:#dcdcdc;stroke:none;fill-opacity:1" inkscape:connector-curvature="0" id="path22" d="m 325,807 c -1.8,1.8 -2,3.3 -2,13.5 0,6.3 -0.2,11.5 -0.5,11.5 -0.3,0 -4.5,-2.5 -9.3,-5.5 -5.6,-3.5 -10,-5.5 -11.9,-5.5 -3.8,0 -7.3,3.6 -7.3,7.7 0,3.7 2.2,5.8 12.8,12.2 4,2.4 7.5,4.7 7.7,5.1 0.3,0.5 -4,3.6 -9.4,6.9 -5.5,3.4 -10.2,6.9 -10.5,7.7 -1.9,4.9 1.8,11.4 6.6,11.4 1.2,0 6.4,-2.5 11.4,-5.5 5.1,-3 9.5,-5.5 9.8,-5.5 0.3,0 0.6,5.1 0.6,11.3 0,10.6 0.2,11.5 2.3,13.5 3.3,3.1 8,2.9 10.6,-0.4 1.8,-2.3 2.1,-4.1 2.1,-13.5 0,-6 0.2,-10.9 0.5,-10.9 0.3,0 4.5,2.5 9.4,5.5 5.5,3.4 10,5.5 11.8,5.5 5.2,0 8.8,-6 6.7,-11.4 -0.3,-0.8 -5,-4.3 -10.5,-7.7 -5.4,-3.3 -9.9,-6.2 -9.9,-6.4 0,-0.2 3.9,-2.7 8.7,-5.6 10.8,-6.5 12.3,-8 12.3,-12.2 0,-4.1 -3.5,-7.7 -7.3,-7.7 -1.4,0 -6.7,2.5 -11.7,5.5 -5,3 -9.3,5.5 -9.5,5.5 -0.3,0 -0.5,-5.1 -0.5,-11.3 0,-10.6 -0.2,-11.5 -2.3,-13.5 -3,-2.8 -8,-2.9 -10.7,-0.2 z" />
  <path style="fill:#dcdcdc;stroke:none;fill-opacity:1" inkscape:connector-curvature="0" id="path24" d="m 539,807 c -1.8,1.8 -2,3.3 -2,13.5 0,6.3 -0.2,11.5 -0.5,11.5 -0.3,0 -4.5,-2.5 -9.3,-5.5 -5.6,-3.5 -10,-5.5 -11.9,-5.5 -3.8,0 -7.3,3.6 -7.3,7.7 0,3.7 2.2,5.8 12.8,12.2 4,2.4 7.5,4.7 7.7,5.1 0.3,0.5 -4,3.6 -9.4,6.9 -5.5,3.4 -10.2,6.9 -10.5,7.7 -1.9,4.9 1.8,11.4 6.6,11.4 1.2,0 6.4,-2.5 11.4,-5.5 5.1,-3 9.5,-5.5 9.8,-5.5 0.3,0 0.6,5.1 0.6,11.3 0,10.6 0.2,11.5 2.3,13.5 3.3,3.1 8,2.9 10.6,-0.4 1.8,-2.3 2.1,-4.1 2.1,-13.5 0,-6 0.2,-10.9 0.5,-10.9 0.3,0 4.5,2.5 9.4,5.5 5.5,3.4 10,5.5 11.8,5.5 5.2,0 8.8,-6 6.7,-11.4 -0.3,-0.8 -5,-4.3 -10.5,-7.7 -5.4,-3.3 -9.9,-6.2 -9.9,-6.4 0,-0.2 3.9,-2.7 8.7,-5.6 10.8,-6.5 12.3,-8 12.3,-12.2 0,-4.1 -3.5,-7.7 -7.3,-7.7 -1.4,0 -6.7,2.5 -11.7,5.5 -5,3 -9.3,5.5 -9.5,5.5 -0.3,0 -0.5,-5.1 -0.5,-11.3 0,-10.6 -0.2,-11.5 -2.3,-13.5 -3,-2.8 -8,-2.9 -10.7,-0.2 z" />
  <path style="fill:#dcdcdc;stroke:none;fill-opacity:1" inkscape:connector-curvature="0" id="path26" d="m 753,807 c -1.8,1.8 -2,3.3 -2,13.5 0,6.3 -0.2,11.5 -0.5,11.5 -0.3,0 -4.5,-2.5 -9.3,-5.5 -5.6,-3.5 -10,-5.5 -11.9,-5.5 -3.8,0 -7.3,3.6 -7.3,7.7 0,3.7 2.2,5.8 12.8,12.2 4,2.4 7.5,4.7 7.7,5.1 0.3,0.5 -4,3.6 -9.4,6.9 -5.5,3.4 -10.2,6.9 -10.5,7.7 -1.9,4.9 1.8,11.4 6.6,11.4 1.2,0 6.4,-2.5 11.4,-5.5 5.1,-3 9.5,-5.5 9.8,-5.5 0.3,0 0.6,5.1 0.6,11.3 0,10.6 0.2,11.5 2.3,13.5 3.3,3.1 8,2.9 10.6,-0.4 1.8,-2.3 2.1,-4.1 2.1,-13.5 0,-6 0.2,-10.9 0.5,-10.9 0.3,0 4.5,2.5 9.4,5.5 5.5,3.4 10,5.5 11.8,5.5 5.2,0 8.8,-6 6.7,-11.4 -0.3,-0.8 -5,-4.3 -10.5,-7.7 -5.4,-3.3 -9.9,-6.2 -9.9,-6.4 0,-0.2 3.9,-2.7 8.7,-5.6 10.8,-6.5 12.3,-8 12.3,-12.2 0,-4.1 -3.5,-7.7 -7.3,-7.7 -1.4,0 -6.7,2.5 -11.7,5.5 -5,3 -9.3,5.5 -9.5,5.5 -0.3,0 -0.5,-5.1 -0.5,-11.3 0,-10.6 -0.2,-11.5 -2.3,-13.5 -3,-2.8 -8,-2.9 -10.7,-0.2 z" />
  <path style="fill:#dcdcdc;fill-opacity:1;stroke:none" inkscape:connector-curvature="0" id="path22-5" d="m 502.99308,224.61138 c -57.40681,4.63683 -111.06229,36.41607 -142.66446,84.59385 l -5.79752,8.93436 -13.86857,0.67857 c -37.8544,1.6964 -71.16172,16.85091 -96.62534,43.76713 -19.32506,20.3568 -31.94319,45.23735 -36.60394,72.15357 -2.15986,12.44027 -2.15986,35.7375 0,48.40397 8.8668,49.98726 45.47074,92.28417 93.89708,108.34344 23.64479,7.91653 13.3002,7.57726 225.53489,7.23797 l 190.97712,-0.33928 11.02666,-3.05352 c 22.84905,-6.22014 38.87748,-15.71998 56.04269,-33.02326 16.36946,-16.62473 25.23625,-32.34471 31.37481,-55.64194 2.27353,-8.59509 2.61457,-12.77955 2.61457,-28.16025 0,-15.83306 -0.45472,-19.45205 -3.06928,-29.065 -12.39078,-45.9159 -49.90414,-80.52247 -96.17062,-88.5521 -5.22914,-0.90474 -11.93607,-1.6964 -14.89167,-1.6964 l -5.34281,0 -3.75134,-10.51769 c -15.57373,-44.55878 -49.79046,-83.01053 -93.3287,-104.95064 -29.10127,-14.58905 -66.15993,-21.71392 -99.35357,-19.11278 z m 35.01247,60.50496 c 44.67501,6.67251 83.32513,37.547 100.37666,80.0701 1.59148,4.18445 2.84193,7.91653 2.61457,8.14272 -0.22735,0.22619 -4.43339,2.94043 -9.20782,6.10704 -13.86858,8.93438 -18.87036,17.75566 -17.61991,30.98758 1.59147,17.30329 18.52932,29.51738 35.46718,25.78529 3.4103,-0.79165 8.86679,-3.16661 12.16341,-5.42848 18.07463,-12.44026 36.14925,-15.3807 56.15638,-9.27365 18.52932,5.65466 35.80821,24.08889 40.12792,42.86239 1.70516,7.12487 1.47781,23.29723 -0.34102,29.96973 -5.22914,19.45207 -19.89346,35.05894 -39.7869,42.29692 l -8.07106,2.94043 -187.56681,0 c -211.43896,0 -192.5686,0.79165 -212.57573,-8.93437 -41.60573,-20.35681 -57.17946,-72.83214 -33.53468,-112.75409 11.25402,-18.99969 30.69275,-33.13636 52.064,-37.88628 12.8455,-2.82733 33.30732,-1.8095 44.56134,2.37496 16.48314,5.88085 27.16877,14.24976 42.85617,33.02326 6.13856,7.35107 13.41387,10.85697 22.6217,10.85697 20.46183,0.11309 35.01247,-19.79135 28.30554,-38.79102 -4.77443,-13.45811 -29.32863,-38.67794 -47.97164,-49.30871 -2.04618,-1.13094 -3.75134,-2.37497 -3.75134,-2.71425 0,-1.47021 12.61814,-15.3807 18.87037,-20.69609 28.98759,-24.65435 66.38728,-35.28512 104.24167,-29.63045 z" />
  <g transform="matrix(0.93390856,0,0,0.93390856,63.803197,20.848873)" id="g2993">
    <path d="m 759.47595,113.61818 c -37.46522,63.40714 -76.36686,129.03492 -122.84896,199.79893 -8.75513,13.32879 -9.42628,17.27587 -7.06971,22.42642 1.33197,2.8972 2.86887,4.18484 5.8402,5.25786 3.07378,1.07304 31.04523,1.28764 132.88999,1.07304 128.48424,-0.3219 128.89408,-0.3219 131.66049,-2.57529 3.38117,-2.57527 4.71314,-6.76009 3.48363,-11.05224 -1.22952,-4.50673 -126.74244,-209.24165 -130.73836,-213.42647 -3.99592,-3.97023 -10.26772,-6.49419 -13.21728,-1.50225 z" id="path14-8" inkscape:connector-curvature="0" sodipodi:nodetypes="ssccccccs" style="fill:#ba381a;fill-opacity:1;stroke:none" />
    <path inkscape:transform-center-y="65.053824" inkscape:transform-center-x="45.961941" inkscape:connector-curvature="0" id="path2986-0" d="m 766.69898,316.178 c -2.53144,-6.40985 -1.42158,-13.54665 -2.33111,-20.24555 -3.87423,0.39898 -7.20167,6.46327 -11.24501,8.55158 -2.65419,3.36684 -8.02377,1.80581 -3.7735,-2.07071 4.85208,-5.90381 10.22114,-11.35592 15.35683,-17.01004 -0.091,-7.47706 0.25946,-14.98103 -0.37048,-22.43522 -6.49556,2.65856 -12.73313,6.13475 -18.60014,9.992 -3.84846,7.71776 -4.48726,16.8151 -9.24375,24.10261 -5.98883,2.15316 -2.17036,-8.67804 -1.26146,-11.84741 0.764,-2.59354 3.28319,-9.64508 -1.92094,-5.63102 -5.13956,2.41695 -9.98938,5.4882 -15.33574,7.43924 -4.85486,-4.08761 5.13309,-7.81943 8.25017,-10.16414 2.50072,-1.5314 10.2779,-5.23104 3.27141,-6.42608 -4.23229,-2.19188 -10.56179,-2.30295 -13.11167,-6.54602 3.35157,-5.26483 10.41582,0.20468 15.12373,0.73741 3.49542,1.08557 6.99003,2.17373 10.4851,3.26039 5.45207,-3.30633 11.45592,-5.92709 16.27614,-10.09238 -0.27081,-4.39448 -6.625,-5.43842 -9.85438,-7.79443 -2.36554,-1.07224 -4.66846,-2.8226 -7.07156,-3.48811 -7.67972,2.1771 -15.20521,5.50225 -23.26284,5.79916 -5.13493,-3.53677 4.82394,-6.25994 7.94293,-7.3623 3.15992,-0.82503 9.62425,-3.42069 3.3584,-5.59714 -4.4248,-3.14325 -10.2492,-4.94294 -13.42411,-9.51649 1.98317,-5.01094 9.12591,1.45237 12.836,2.51809 2.4881,1.31946 9.844,5.4176 6.84092,-0.73032 -0.7188,-4.89947 -3.99029,-10.14493 -2.38582,-14.96534 5.90161,-1.74977 6.01289,7.75471 7.89084,11.43425 1.34582,4.4078 2.63762,8.83188 3.9569,13.24767 6.44416,3.32453 12.88832,6.64906 19.33249,9.97358 0.10053,-7.76639 0.20105,-15.53278 0.30157,-23.29917 -5.58644,-5.87756 -11.70555,-11.32382 -16.59081,-17.81059 -0.19037,-6.87497 7.96374,1.68747 10.29088,3.76093 2.01108,1.81472 3.99937,3.65447 5.99836,5.48246 0.53771,-7.26204 0.0824,-14.69255 1.78771,-21.79381 4.88012,-3.94348 3.70233,7.25159 3.92855,10.26084 0.45672,3.3124 -0.60755,9.74703 1.03857,11.16083 4.39212,-3.6699 7.87246,-8.50739 12.79237,-11.48501 6.72048,1.70243 -2.65689,7.66795 -4.4521,10.62287 -3.0283,3.2495 -6.06196,6.494 -9.09248,9.74143 0.22874,7.85663 0.20917,15.72723 0.72796,23.57037 6.00775,-3.36487 11.87881,-6.96845 17.8125,-10.46188 2.34558,-8.01497 4.0922,-16.25309 7.23825,-23.99753 6.96472,-2.9076 2.09337,8.20069 1.57814,11.62697 -1.15362,3.1504 -2.58047,9.04095 2.52989,5.21885 5.12132,-2.1273 9.644,-5.9596 15.11363,-7.06126 5.19484,4.10154 -5.03434,7.54493 -7.97953,9.93204 -2.71868,1.77422 -10.97557,5.20511 -3.68996,6.83343 4.13171,2.38384 13.12537,1.8661 12.41163,8.25537 -5.01505,0.91796 -10.78617,-2.32417 -16.06179,-3.17701 -3.12163,-0.65731 -6.3892,-1.84397 -9.51465,-1.90435 -5.58307,3.09193 -11.50798,5.67649 -16.66596,9.45134 1.60655,3.53327 7.75326,5.04586 11.17508,7.59633 4.86713,4.34637 10.78412,2.67336 16.28324,0.56492 4.63941,-0.35144 13.83144,-7.20358 15.41032,-0.33014 -4.75707,3.7049 -11.21524,4.28635 -16.23614,7.5314 5.05987,4.65969 11.93119,7.08917 16.61767,12.14789 -0.58832,5.33557 -8.62193,-0.95432 -11.81801,-2.0175 -3.51998,-1.74721 -10.72078,-6.56445 -7.48873,0.81514 0.35669,4.81431 4.57378,10.7999 1.25105,14.97228 -4.39821,-1.60562 -4.32034,-9.35975 -6.52744,-13.47572 -2.1386,-4.7641 -1.50909,-11.47853 -7.31825,-13.57613 -4.60571,-2.61228 -9.07694,-5.745 -14.08295,-7.46609 -0.69089,7.20118 -0.73851,14.44895 -1.07468,21.67381 5.22575,5.89258 11.06779,11.31342 15.45479,17.88596 2.6886,6.88535 -6.15216,1.57792 -7.73471,-1.17737 -2.71148,-1.89492 -8.37761,-10.77724 -7.50293,-2.74337 -0.41978,6.04032 0.65209,12.38113 -1.35522,18.18488 -0.57855,0.99889 -1.91968,-0.0351 -2.28517,-0.64669 z" style="fill:#ffffff;fill-opacity:1;stroke:none" />
  </g>
</svg>
