<?xml version="1.0" encoding="UTF-8" standalone="no"?>
<svg xmlns:dc="http://purl.org/dc/elements/1.1/" xmlns:cc="http://creativecommons.org/ns#" xmlns:rdf="http://www.w3.org/1999/02/22-rdf-syntax-ns#" xmlns:svg="http://www.w3.org/2000/svg" xmlns="http://www.w3.org/2000/svg" xmlns:sodipodi="http://sodipodi.sourceforge.net/DTD/sodipodi-0.dtd" xmlns:inkscape="http://www.inkscape.org/namespaces/inkscape" version="1.0" width="1024.000000pt" height="1024.000000pt" viewBox="0 0 1024.000000 1024.000000" preserveAspectRatio="xMidYMid meet" id="svg2" inkscape:version="0.48.5 r10040" sodipodi:docname="9333999.svg">
  <defs id="defs22" />
  <sodipodi:namedview pagecolor="#ffffff" bordercolor="#666666" borderopacity="1" objecttolerance="10" gridtolerance="10" guidetolerance="10" inkscape:pageopacity="0" inkscape:pageshadow="2" inkscape:window-width="889" inkscape:window-height="596" id="namedview20" showgrid="false" inkscape:zoom="0.184375" inkscape:cx="640" inkscape:cy="640" inkscape:window-x="1527" inkscape:window-y="251" inkscape:window-maximized="0" inkscape:current-layer="svg2" />
  <metadata id="metadata4">
Created by potrace 1.11, written by Peter Selinger 2001-2013
<rdf:RDF>
  <cc:Work rdf:about="">
    <dc:format>image/svg+xml</dc:format>
    <dc:type rdf:resource="http://purl.org/dc/dcmitype/StillImage" />
  </cc:Work>
</rdf:RDF>
</metadata>
  <path style="fill:#a0a0a0;stroke:none;fill-opacity:1" inkscape:connector-curvature="0" id="path8" d="m 502.8,224.1 c -56.1,5.4 -107.8,36.4 -139.4,83.5 l -7.4,11.1 -14.3,0.6 c -29.2,1.2 -55.8,10.7 -79.3,28.3 -9.3,7 -25.7,24.1 -31.7,33.2 -10.7,16 -18.2,33.6 -22.2,52.2 -2.4,11.3 -3,36.3 -1.1,48.5 4.8,31.3 17.9,57.1 40.5,79.6 20.8,20.7 42.1,32.3 71.6,39.2 9,2.1 10,2.1 200.5,2.5 212.8,0.3 200.9,0.6 221.9,-6.4 42.2,-14 73.4,-50.8 81.2,-95.4 1.8,-10.4 1.6,-30.6 -0.5,-41.2 -8,-41.4 -35.1,-74.9 -73.4,-90.7 -10.3,-4.3 -26.3,-8.1 -36.8,-8.8 l -9.1,-0.6 -2.3,-7.1 c -10,-31.3 -31.1,-62.3 -57.3,-84.3 -39.3,-33 -90.6,-49 -140.9,-44.2 z m 30.1,60 c 44.7,4.2 83.7,30.6 103.8,70.4 4.1,8 8.7,19.6 8.1,20 -8.1,4.8 -18.4,12.5 -20.7,15.4 -13.3,16.7 -6.1,40.6 14.2,47.5 9.5,3.2 17.3,1.6 29.4,-6.1 14.4,-9.1 25.1,-12 39.9,-11 25.6,1.8 48.3,20.6 54.9,45.3 1.9,7.1 2.1,22.9 0.5,29.9 -4.1,17.1 -16.5,32.7 -32.1,40.4 -15.5,7.6 -1,7.2 -210.2,6.9 l -187.2,-0.3 -7.5,-2.3 c -22.8,-7 -40.8,-22.1 -51,-42.7 -6.1,-12.2 -7.9,-19 -8.7,-31.7 -2.2,-35.8 18.3,-67.7 52.2,-81.3 19.9,-7.9 45.9,-6.9 64.8,2.7 12.9,6.5 19.1,11.8 35.1,30.3 6.3,7.2 11.1,9.7 20.2,10.3 12.9,0.8 23.4,-5.1 28.9,-16.1 5.3,-10.9 4.1,-21 -3.7,-32.8 -6.3,-9.6 -25.7,-28.4 -36.8,-35.8 -5.2,-3.5 -9.7,-6.5 -9.9,-6.7 -1.4,-1.3 13.3,-17.1 23.4,-24.9 23.3,-18.1 45.7,-26.2 78.5,-28.3 1.4,-0.1 7.6,0.3 13.9,0.9 z" />
  <path style="fill:#80d3ff;stroke:none;fill-opacity:1" inkscape:connector-curvature="0" id="path10" d="m 362.5,649.3 c -66,34 -85.4,52.5 -85.5,81.2 -0.1,38.3 41,62.5 75.1,44.4 7,-3.8 16.7,-13.6 20.2,-20.4 7.8,-15.6 10,-31.9 9.8,-75 -0.1,-18.2 -0.5,-34.4 -0.9,-36.2 l -0.7,-3.2 -18,9.2 z m -8.5,54.3 c -1.3,27.1 -4.1,37.7 -11.4,44.1 -4.6,4.2 -9.6,5.6 -17.2,5.1 -8,-0.5 -13.7,-4.1 -17.6,-11.3 -5.9,-10.6 -2.7,-22.4 8.6,-31.7 8.6,-7.2 37.2,-25.5 38.3,-24.5 0.1,0.2 -0.2,8.4 -0.7,18.3 z" />
  <path style="fill:#dcdcdc;stroke:none;fill-opacity:1" inkscape:connector-curvature="0" id="path12" d="m 624.3,644.5 c -1.8,0.8 -4.2,2.9 -5.3,4.7 -1.8,3 -2,5 -2,21 0,9.8 -0.2,17.8 -0.4,17.8 -0.2,0 -7.1,-4.2 -15.3,-9.2 -12.7,-8 -15.4,-9.3 -18.9,-9.2 -10.5,0.2 -16.2,12.7 -9.1,20.2 1.2,1.3 8.8,6.4 16.9,11.4 8.2,5 14.8,9.4 14.8,9.7 -0.1,0.3 -7.1,4.8 -15.6,10 -16.4,9.8 -19.4,12.7 -19.4,18.7 0,3.7 3.6,9.3 7,11.2 5,2.6 9.7,1 25,-8.5 l 14.5,-9 0.5,18.9 0.5,19 3.7,3.4 c 3,2.7 4.6,3.4 7.8,3.4 2.3,0 5.4,-0.7 7,-1.5 5.3,-2.8 6,-5.5 6,-25 0,-9.6 0.3,-17.5 0.8,-17.5 0.4,0 7.2,4.1 15.2,9 11.7,7.3 15.2,9 18.3,9 9.8,0 15.9,-10.3 10.9,-18.5 -1.2,-2 -7.3,-6.3 -17.5,-12.5 -8.6,-5.2 -15.6,-9.7 -15.7,-10 0,-0.3 7.1,-4.8 15.6,-10 16.5,-10 19.4,-12.8 19.4,-18.8 0,-7.2 -5.2,-12.2 -12.7,-12.2 -3,0 -6.7,1.8 -17.8,8.6 -7.7,4.7 -14.6,8.8 -15.2,9.1 -1,0.4 -1.3,-3.6 -1.3,-18 0,-17.4 -0.1,-18.6 -2.2,-21.2 -2.2,-2.8 -7.4,-5.5 -10.5,-5.5 -1,0.1 -3.3,0.7 -5,1.5 z" />
  <path style="fill:#dcdcdc;stroke:none;fill-opacity:1" inkscape:connector-curvature="0" id="path14" d="m 477.2,651.3 c -2,2.1 -2.2,3.4 -2.2,13.5 0,6.2 -0.2,11.2 -0.5,11.2 -0.3,0 -4.5,-2.5 -9.4,-5.5 -4.9,-3 -10,-5.5 -11.4,-5.5 -3.9,0 -7.7,3.6 -7.7,7.3 0.1,4.3 1.1,5.4 11.8,12.1 5,3.2 9.2,5.9 9.2,6.1 0,0.2 -4.5,3.1 -9.9,6.4 -10.2,6.4 -11.1,7.3 -11.1,12.1 0,3.3 4,7 7.5,7 1.2,0 6.3,-2.5 11.3,-5.5 5,-3 9.4,-5.5 9.7,-5.5 0.3,0 0.5,5.1 0.5,11.3 0,10.6 0.2,11.5 2.3,13.5 3.1,2.9 7.7,2.9 10.5,-0.1 2,-2.1 2.2,-3.4 2.2,-13.5 0,-6.2 0.2,-11.2 0.5,-11.2 0.3,0 4.5,2.5 9.4,5.5 9.9,6.1 13.5,6.8 16.9,3.2 2.4,-2.6 2.9,-7.3 0.9,-9.7 -0.7,-0.9 -5.4,-4.2 -10.4,-7.4 -5.1,-3.2 -9.3,-5.9 -9.3,-6.1 0,-0.2 3.9,-2.7 8.7,-5.6 10.8,-6.6 12.3,-8 12.3,-12.3 0,-3.8 -3.6,-7.6 -7.3,-7.6 -1.2,0 -6.3,2.5 -11.3,5.5 -5.1,3 -9.5,5.5 -9.8,5.5 -0.3,0 -0.6,-5.1 -0.6,-11.3 0,-10.6 -0.2,-11.5 -2.3,-13.5 -3.1,-2.9 -7.7,-2.9 -10.5,0.1 z" />
  <path style="fill:#80d3ff;stroke:none;fill-opacity:1" inkscape:connector-curvature="0" id="path16" d="m 531,745.2 c -50.5,26.1 -71.9,41.8 -80.4,58.5 -10,20 -6.4,42.8 9.3,58.3 10.7,10.6 21.4,15 36.1,15 13.5,0 26.2,-5.3 35.9,-15.1 9.4,-9.3 14.2,-21.7 17.2,-44.4 1.4,-10.2 1.6,-75.6 0.2,-79.2 -0.8,-2.2 -1.3,-1.9 -18.3,6.9 z m -8.5,50.5 c -1.5,34.1 -5.3,45.5 -16.9,51.5 -6.1,3.1 -17,2.3 -22.8,-1.7 -5.7,-4 -9.8,-11.9 -9.8,-18.9 0.1,-12.4 8.2,-20.9 36.4,-37.8 7.2,-4.3 13.2,-7.8 13.4,-7.8 0.2,0 0.1,6.6 -0.3,14.7 z" />
  <path style="fill:#dcdcdc;stroke:none;fill-opacity:1" inkscape:connector-curvature="0" id="path18" d="m 342.2,799.3 c -2,2.1 -2.2,3.4 -2.2,13.5 0,6.2 -0.3,11.2 -0.6,11.2 -0.3,0 -4.6,-2.5 -9.5,-5.5 -4.9,-3 -9.9,-5.5 -11.3,-5.5 -3.6,0 -7.6,3.7 -7.6,7 0,4.8 0.9,5.7 11.1,12.1 5.4,3.3 9.9,6.2 9.9,6.4 0,0.2 -4.5,3.1 -9.9,6.4 -10.2,6.4 -11.1,7.3 -11.1,12.1 0,3.3 4,7 7.5,7 1.2,0 6,-2.3 10.6,-5.1 4.6,-2.8 9,-5.4 9.7,-5.6 0.9,-0.4 1.2,2.2 1.2,10.9 0,10.7 0.2,11.6 2.3,13.6 3.1,2.9 7.7,2.9 10.5,-0.1 2,-2.1 2.2,-3.4 2.2,-13.5 0,-6.2 0.2,-11.2 0.5,-11.2 0.3,0 4.5,2.5 9.3,5.5 5.6,3.5 10,5.5 11.9,5.5 3.8,0 7.3,-3.6 7.3,-7.7 0,-3.7 -2.7,-6.3 -13.1,-12.4 -3.8,-2.3 -7.2,-4.5 -7.4,-4.9 -0.3,-0.5 3.4,-3.2 8.2,-6.1 10.8,-6.6 12.3,-8 12.3,-12.3 0,-3.9 -3.7,-7.6 -7.5,-7.6 -1.2,0 -6,2.3 -10.6,5.1 -4.6,2.8 -9,5.4 -9.6,5.6 -1,0.4 -1.3,-2.2 -1.3,-10.9 0,-10.7 -0.2,-11.6 -2.3,-13.6 -3.1,-2.9 -7.7,-2.9 -10.5,0.1 z" />
</svg>
