<?xml version="1.0" encoding="UTF-8" standalone="no"?>
<svg xmlns:dc="http://purl.org/dc/elements/1.1/" xmlns:cc="http://creativecommons.org/ns#" xmlns:rdf="http://www.w3.org/1999/02/22-rdf-syntax-ns#" xmlns:svg="http://www.w3.org/2000/svg" xmlns="http://www.w3.org/2000/svg" xmlns:sodipodi="http://sodipodi.sourceforge.net/DTD/sodipodi-0.dtd" xmlns:inkscape="http://www.inkscape.org/namespaces/inkscape" version="1.0" width="1024.000000pt" height="1024.000000pt" viewBox="0 0 1024.000000 1024.000000" preserveAspectRatio="xMidYMid meet" id="svg2" inkscape:version="0.48.5 r10040" sodipodi:docname="9219991.svg">
  <defs id="defs14" />
  <sodipodi:namedview pagecolor="#6cffff" bordercolor="#666666" borderopacity="1" objecttolerance="10" gridtolerance="10" guidetolerance="10" inkscape:pageopacity="0.58823529" inkscape:pageshadow="2" inkscape:window-width="1457" inkscape:window-height="842" id="namedview12" showgrid="false" inkscape:zoom="1.475" inkscape:cx="929.76966" inkscape:cy="955.68234" inkscape:window-x="503" inkscape:window-y="176" inkscape:window-maximized="0" inkscape:current-layer="svg2" />
  <metadata id="metadata4">
Created by potrace 1.11, written by Peter Selinger 2001-2013
<rdf:RDF>
  <cc:Work rdf:about="">
    <dc:format>image/svg+xml</dc:format>
    <dc:type rdf:resource="http://purl.org/dc/dcmitype/StillImage" />
  </cc:Work>
</rdf:RDF>
</metadata>
  <path style="fill:#80d3ff;stroke:none;fill-opacity:1" inkscape:connector-curvature="0" id="path10" d="m 501.5,673.1 c -48.5,25.5 -68.9,40.5 -76.9,56.3 -14.2,28.1 -0.2,61.7 29.5,71.1 18.8,5.9 38.1,1.3 52,-12.5 14.2,-14.2 18.9,-34.5 18.9,-82.1 0,-23.6 -0.9,-43.9 -1.9,-43.9 -0.3,0.1 -10,5 -21.6,11.1 z M 496,736 c -1.5,15.4 -3.5,23.9 -7,29.3 -9.4,14 -31.4,12.8 -39.2,-2.2 -2,-3.8 -2.8,-6.8 -2.8,-10.5 0.1,-12.3 8.4,-20.9 37.5,-38.3 l 12,-7.2 0.3,8.7 c 0.2,4.8 -0.2,13.9 -0.8,20.2 z" />
  <path style="fill:#dcdcdc;fill-opacity:1;stroke:none" inkscape:connector-curvature="0" id="path10-0" d="m 502.23824,214.51267 c -59.84451,4.79788 -115.7784,37.68089 -148.72251,87.53201 l -6.0437,9.24466 -14.45748,0.70214 c -39.46184,1.75532 -74.18349,17.43618 -100.7284,45.28726 -20.14567,21.06387 -33.29961,46.80856 -38.15828,74.65964 -2.25157,12.87236 -2.25157,36.97876 0,50.08516 9.24331,51.72344 47.40161,95.48944 97.8843,112.10648 24.64883,8.1915 13.86497,7.84044 235.1119,7.48938 l 199.08669,-0.35108 11.49489,-3.15957 c 23.8193,-6.43619 40.52837,-16.26598 58.42246,-34.17024 17.06458,-17.20215 26.30788,-33.46812 32.70711,-57.57452 2.37008,-8.89363 2.72559,-13.22343 2.72559,-29.13832 0,-16.38298 -0.47402,-20.12769 -3.19961,-30.07449 -12.91693,-47.5107 -52.02325,-83.31923 -100.25437,-91.62776 -5.45118,-0.93616 -12.44292,-1.75532 -15.52403,-1.75532 l -5.56968,0 -3.91063,-10.88299 C 686.86745,296.77873 651.19774,256.99144 605.81072,234.28929 575.4737,219.19354 536.8414,211.82119 502.23824,214.51267 z m 36.49922,62.60645 c 46.57207,6.90426 86.86343,38.85108 104.63902,82.85112 1.65905,4.3298 2.96259,8.1915 2.72558,8.42554 -0.23699,0.23403 -4.62164,3.04255 -9.59881,6.31916 -14.4575,9.24469 -19.67166,18.37235 -18.36812,32.06385 1.65905,17.90427 19.31614,30.54258 36.97324,26.68088 3.55512,-0.81915 9.24331,-3.27659 12.67993,-5.61703 18.84213,-12.87233 37.68427,-15.9149 58.54097,-9.59575 19.31615,5.85106 37.32875,24.92556 41.8319,44.3511 1.77756,7.37234 1.54056,24.1064 -0.35551,31.01066 -5.45117,20.12768 -20.73819,36.27663 -41.47639,43.766 l -8.41379,3.04255 -195.53157,0 c -220.41741,0 -200.74574,0.81915 -221.60245,-9.2447 -43.37245,-21.06383 -59.6075,-75.36176 -34.95867,-116.67031 11.73189,-19.65958 31.99607,-34.28726 54.27481,-39.20215 13.39096,-2.92553 34.72168,-1.87234 46.45357,2.45745 17.18308,6.08511 28.32246,14.7447 44.676,34.17025 6.39922,7.60638 13.98348,11.23405 23.58229,11.23405 21.33073,0.11702 36.49924,-20.47874 29.5075,-40.13834 -4.97717,-13.92552 -30.57402,-40.0213 -50.00868,-51.02132 -2.13306,-1.17022 -3.91063,-2.45745 -3.91063,-2.80851 0,-1.52128 13.15393,-15.91491 19.67166,-21.41491 30.21852,-25.51065 69.20633,-36.51066 108.66815,-30.65959 z" />
  <path style="fill:#ba381a;fill-opacity:1;stroke:none" sodipodi:nodetypes="ssccccccssscccsscccccccscscccsccccsscccccscccscssssscccccsccccsscsscccccscccsccccccccccscscscsccccccccccss" inkscape:connector-curvature="0" id="path14" d="m 757.16146,129.06168 c -36.56589,59.09144 -74.5337,120.25238 -119.9,186.19999 -8.54497,12.42158 -9.2,16.1 -6.9,20.9 1.3,2.7 2.8,3.9 5.7,4.9 3,1 30.3,1.2 129.7,1 125.4,-0.3 125.8,-0.3 128.5,-2.4 3.3,-2.4 4.6,-6.3 3.4,-10.3 -1.2,-4.2 -123.7,-194.99999 -127.6,-198.89999 -3.9,-3.7 -10.02124,-6.05217 -12.9,-1.4 z m 9.3,76.4 c 0.8,0.8 1.2,4.8 1.2,11.2 l 0,9.99999 6.4,-6.29999 c 5.6,-5.5 6.7,-6.2 8,-5.1 0.9,0.7 1.6,1.7 1.6,2.4 0,0.6 -3.6,4.7 -8,9.09999 l -8.1,8.1 0.3,10.6 0.3,10.7 8.5,-4.8 8.5,-4.8 1.7,-5.9 c 0.9,-3.3 2.4,-8.5 3.3,-11.7 1.4,-4.89999 2,-5.69999 4.1,-5.69999 3,0 3.1,2.1 0.4,10.99999 -1.1,3.6 -2,6.6 -2,6.7 0,1 3.2,-0.3 10.2,-4.3 7.2,-4.1 8.2,-4.4 9.6,-3.1 2.4,2.5 0.9,4.2 -7.7,8.8 -4.5,2.3 -8.1,4.6 -8.1,5 0,0.4 2.6,1.5 5.8,2.4 3.1,0.8 6.7,2 8,2.5 2.2,1 3,4.4 1.2,5.5 -0.5,0.3 -5.6,-0.8 -11.4,-2.5 -5.7,-1.6 -11.1,-3 -12,-3 -1.8,0 -17.6,8.2 -17.6,9.1 0,0.4 3.9,2.7 8.8,5.2 l 8.7,4.5 11.5,-3.5 c 10.7,-3.3 11.5,-3.4 12.7,-1.7 1.9,2.6 0,4.1 -8.3,6.6 -4.1,1.1 -7.4,2.4 -7.4,2.7 0,0.4 3.7,2.7 8.2,5.1 5.1,2.8 8.4,5.2 8.6,6.4 0.8,3.8 -2.2,3.6 -10.7,-0.9 -4.6,-2.5 -8.7,-4.5 -9.1,-4.5 -0.5,0 0.3,3.7 1.7,8.1 2.2,7.4 2.3,8.3 0.9,9.7 -1.4,1.4 -1.8,1.4 -3,0.2 -1.1,-1.1 -7.6,-20.5 -7.6,-22.5 0,-0.4 -16.7,-9.5 -17.4,-9.5 -0.3,0 -0.6,4.6 -0.6,10.2 l 0,10.2 8.1,8.2 c 8.1,8.3 9.5,11.5 5.5,12.2 -1.2,0.3 -3.9,-1.6 -7.7,-5.4 l -5.9,-5.8 0,9.4 c 0,10.5 -0.9,13.2 -3.7,11.4 -1.5,-0.9 -1.9,-2.9 -2.3,-10.7 l -0.5,-9.7 -6.2,5.5 c -6.2,5.6 -10.3,7.1 -10.3,3.7 0,-0.9 3.8,-5.5 8.5,-10.2 l 8.5,-8.5 0,-10.2 c 0,-5.7 -0.2,-10.3 -0.6,-10.3 -0.3,0 -4.5,2.1 -9.4,4.7 l -8.8,4.8 -3.4,10.9 c -3.6,11.5 -5.6,14.2 -8.3,11.6 -1.3,-1.4 -1.2,-2.4 1,-9.5 1.3,-4.4 2.3,-8.1 2.1,-8.3 -0.2,-0.2 -4.1,1.8 -8.7,4.3 -8.8,4.8 -11.2,5.3 -11.7,2 -0.2,-1.7 1.4,-3 8.3,-6.8 4.7,-2.6 8.5,-5 8.5,-5.2 0,-0.3 -3.3,-1.4 -7.2,-2.6 -8.6,-2.5 -10.7,-4.1 -8.8,-6.3 1.7,-2.1 2.4,-2.1 14.5,1.5 l 10.4,3.1 8.7,-4.8 c 10,-5.4 10.1,-4.9 -2,-11.1 l -7,-3.5 -10.5,3.1 c -12.2,3.6 -13.7,3.7 -14.5,1.4 -1,-2.5 1.1,-3.9 9.3,-6.3 4,-1.2 7,-2.5 6.5,-3 -0.5,-0.5 -4.4,-2.7 -8.6,-5 -5.6,-3 -7.8,-4.7 -7.8,-6.1 0,-3.5 2.8,-3.2 11.5,1.4 5.5,3 8.5,4.1 8.5,3.2 0,-0.7 -0.9,-4.3 -2.1,-8 -2.2,-7.29999 -2,-9.49999 0.9,-9.49999 2.8,0 3.5,1.3 7.2,13.09999 l 3.2,10.6 9.4,4.6 9.4,4.7 0,-10.8 0,-10.8 -8.5,-7.8 c -8.3,-7.59999 -10.1,-10.79999 -6.9,-11.99999 1.2,-0.4 3.9,1.3 8.5,5.5 l 6.9,6.1 0,-9.2 c 0,-11.2 1.6,-15 4.8,-11.8 z" />
  <path style="fill:#ffffff;fill-opacity:1;stroke:none" d="m 954.57374,395.97533 c -1.27059,-1.404 -2.37977,-10.06383 -2.41283,-18.838 -0.0101,-2.68138 -0.32299,-5.0635 -0.6953,-5.2936 -0.37231,-0.2301 -2.27909,1.07563 -4.23729,2.90162 -8.12391,7.57543 -14.05152,11.28454 -15.58438,9.75168 -1.28985,-1.28985 0.6047,-3.80431 10.83758,-14.38367 l 9.66102,-9.98814 0,-12.84164 c 0,-7.06289 -0.2034,-13.04503 -0.45199,-13.29362 -0.53584,-0.53583 -21.08225,10.00343 -22.69205,11.63987 -0.61058,0.62068 -2.55028,5.70478 -4.31045,11.298 -3.21022,10.20099 -5.02416,14.56985 -6.96687,16.77966 -1.28419,1.46075 -1.79795,1.48045 -3.15734,0.12106 -1.50125,-1.50125 -1.34205,-3.52403 0.89533,-11.37583 2.818,-9.88938 2.95071,-10.61077 1.95052,-10.60267 -0.47321,0.004 -5.40001,2.29196 -10.94844,5.08474 -5.54844,2.79278 -10.64788,5.07778 -11.33208,5.07778 -0.68421,0 -1.56493,-0.59964 -1.95717,-1.33254 -1.0671,-1.9939 1.78984,-4.68482 9.81799,-9.24748 8.40782,-4.77842 10.62321,-6.31297 10.17078,-7.04501 -0.1945,-0.31471 -4.10351,-1.82185 -8.68669,-3.34921 -11.32282,-3.77335 -12.99897,-5.08787 -9.97597,-7.82365 1.75629,-1.58942 3.89037,-1.23135 18.47303,3.09946 l 11.46074,3.40365 8.94007,-4.85532 c 4.91704,-2.67043 9.50592,-5.39791 10.1975,-6.06106 2.43342,-2.33342 0.95853,-3.72532 -9.60021,-9.05999 l -9.9623,-5.03333 -11.18644,3.33367 c -6.94969,2.07108 -12.72707,3.39013 -15.25423,3.48275 -3.95365,0.1449 -4.07371,0.0979 -4.27823,-1.67287 -0.27454,-2.3771 1.03855,-3.19443 10.17841,-6.3355 3.99086,-1.37153 7.80442,-2.90036 8.47457,-3.39739 1.16472,-0.86383 1.15866,-0.94869 -0.13747,-1.92372 -0.74576,-0.56101 -4.11302,-2.54904 -7.48279,-4.41784 -9.00976,-4.9966 -11.96784,-7.29184 -11.7123,-9.08783 0.39962,-2.80873 3.36589,-2.24826 13.37833,2.52783 8.89935,4.24512 11.57948,5.14687 11.57948,3.89601 0,-0.30821 -0.90808,-3.79432 -2.01794,-7.7469 -2.80599,-9.993 -3.10555,-12.23015 -1.78446,-13.32656 1.75665,-1.45789 4.31421,-0.33273 5.78156,2.5435 0.72472,1.42059 2.97254,7.89876 4.99515,14.39594 l 3.67746,11.81306 11.79276,5.80921 11.79275,5.80922 0.18396,-13.57085 0.18396,-13.57084 -9.80683,-9.52651 c -5.39376,-5.23958 -10.089,-10.28922 -10.43386,-11.22142 -1.53885,-4.15969 1.69971,-4.54398 6.42206,-0.76204 1.80467,1.44528 5.56936,4.63075 8.36597,7.07882 l 5.08474,4.45103 0.50994,-10.63814 c 0.58049,-12.1099 1.06048,-14.94377 2.70704,-15.98239 0.89864,-0.56686 1.43802,-0.46119 2.36352,0.46303 1.04339,1.04193 1.22663,2.82389 1.41058,13.71732 0.11628,6.8859 0.37177,12.51983 0.56776,12.51983 0.19598,0 3.45677,-2.92651 7.2462,-6.50335 8.18859,-7.7292 9.389,-8.4434 11.29391,-6.71948 0.74727,0.67627 1.35868,1.50674 1.35868,1.84548 0,0.33874 -4.53025,5.24908 -10.06723,10.91187 l -10.06723,10.29599 0.32326,13.72881 c 0.17779,7.55085 0.43197,13.72881 0.56485,13.72881 0.13287,0 5.07673,-2.74214 10.98636,-6.09364 l 10.74476,-6.09364 3.86625,-13.3709 c 2.12645,-7.354 4.36042,-13.91695 4.96439,-14.58433 1.3548,-1.49704 3.14698,-1.55903 4.31694,-0.14933 0.73656,0.88751 0.51324,2.49079 -1.34566,9.66102 -3.18962,12.30306 -3.09068,11.64777 -1.75864,11.64777 0.63838,0 5.72486,-2.35211 11.30327,-5.22691 10.5537,-5.43876 11.2871,-5.58699 13.0725,-2.64198 0.9791,1.61489 -1.8951,4.00382 -11.1411,9.26022 -3.9153,2.22584 -7.71086,4.50133 -8.43467,5.05664 -1.28403,0.98512 -1.28511,1.03226 -0.0445,1.93937 0.69929,0.51133 4.86771,2.04082 9.26311,3.39886 8.1458,2.51681 9.3856,3.37481 9.3856,6.49559 0,0.78198 -0.3999,1.57525 -0.8887,1.76281 -0.4888,0.18757 -5.599,-0.90339 -11.356,-2.42434 -5.75693,-1.52096 -12.35982,-3.11642 -14.67304,-3.54548 l -4.20586,-0.7801 -9.01448,4.55297 c -4.95796,2.50412 -9.77719,5.14163 -10.70939,5.86112 -1.67697,1.29432 -1.68056,1.31904 -0.33899,2.33476 1.86941,1.41535 19.02926,10.61702 20.53223,11.01006 0.67074,0.17539 6.80283,-1.37804 13.62688,-3.45209 6.82405,-2.07404 13.28355,-3.77099 14.35455,-3.77099 1.8382,0 3.3508,1.50215 3.3508,3.32785 0,1.08982 -3.6866,2.84726 -12.2034,5.81749 -4.28817,1.49549 -7.78902,3.02415 -7.77969,3.39703 0.009,0.37288 4.0298,3.11865 8.93439,6.1017 10.2911,6.25922 11.8609,7.54013 11.5866,9.45412 -0.3425,2.38866 -4.2011,1.40075 -14.6654,-3.75472 -5.34639,-2.63401 -9.89629,-4.61352 -10.11089,-4.39891 -0.2146,0.2146 0.74055,4.68598 2.12256,9.9364 2.58203,9.80938 2.63608,11.64536 0.37838,12.85364 -1.09886,0.5881 -1.5176,0.35229 -2.63381,-1.48317 -1.40158,-2.3047 -8.84913,-24.03089 -8.84913,-25.81489 0,-0.5746 -2.05932,-2.25261 -4.57627,-3.72891 -8.88457,-5.21121 -17.69762,-9.7043 -18.01357,-9.18373 -0.17589,0.28982 -0.54284,6.08925 -0.81545,12.88762 l -0.49566,12.36067 8.73014,9.0427 c 8.90124,9.21993 11.64738,12.99203 10.89181,14.961 -0.89019,2.31981 -3.73053,1.20966 -9.10652,-3.55931 -2.8922,-2.56562 -6.15461,-5.61646 -7.24979,-6.77966 -1.09519,-1.16318 -2.23926,-2.11489 -2.54238,-2.11489 -0.30312,0 -0.55282,4.80509 -0.5549,10.67797 -0.005,14.29458 -1.12592,18.02792 -4.34468,14.47123 l 0,0 z" id="path2986" inkscape:connector-curvature="0" transform="scale(0.8,0.8)" />
</svg>
