<?xml version="1.0" encoding="UTF-8" standalone="no"?>
<svg xmlns:dc="http://purl.org/dc/elements/1.1/" xmlns:cc="http://creativecommons.org/ns#" xmlns:rdf="http://www.w3.org/1999/02/22-rdf-syntax-ns#" xmlns:svg="http://www.w3.org/2000/svg" xmlns="http://www.w3.org/2000/svg" xmlns:sodipodi="http://sodipodi.sourceforge.net/DTD/sodipodi-0.dtd" xmlns:inkscape="http://www.inkscape.org/namespaces/inkscape" version="1.0" width="1024.000000pt" height="1024.000000pt" viewBox="0 0 1024.000000 1024.000000" preserveAspectRatio="xMidYMid meet" id="svg2" inkscape:version="0.48.5 r10040" sodipodi:docname="9399942.svg">
  <defs id="defs24" />
  <sodipodi:namedview pagecolor="#ffffff" bordercolor="#666666" borderopacity="1" objecttolerance="10" gridtolerance="10" guidetolerance="10" inkscape:pageopacity="0" inkscape:pageshadow="2" inkscape:window-width="640" inkscape:window-height="480" id="namedview22" showgrid="false" inkscape:zoom="0.184375" inkscape:cx="640" inkscape:cy="640" inkscape:window-x="1862" inkscape:window-y="306" inkscape:window-maximized="0" inkscape:current-layer="svg2" />
  <metadata id="metadata4">
Created by potrace 1.11, written by Peter Selinger 2001-2013
<rdf:RDF>
  <cc:Work rdf:about="">
    <dc:format>image/svg+xml</dc:format>
    <dc:type rdf:resource="http://purl.org/dc/dcmitype/StillImage" />
  </cc:Work>
</rdf:RDF>
</metadata>
  <path style="fill:#a0a0a0;fill-opacity:1;stroke:none" inkscape:connector-curvature="0" id="path22-6" d="m 501.09138,235.59738 c -55.89633,4.74523 -109.47284,36.55985 -138.41522,82.07094 l -4.63961,7.33355 -10.0525,0 c -12.59324,0 -27.94816,2.48046 -40.76233,6.68646 -19.77361,6.47077 -35.45992,15.74555 -50.70438,29.98124 -28.27956,26.42232 -42.75075,59.09971 -42.75075,96.52234 0,30.41263 8.94784,56.51141 27.39584,80.45326 20.54686,26.63801 47.94269,43.46202 82.29794,50.79555 10.82576,2.26477 13.91885,2.37262 60.97781,2.37262 l 49.5997,0.10785 14.69212,-27.50078 c 8.06409,-15.09846 14.69211,-27.82431 14.80258,-28.2557 0,-0.43138 -28.94236,-0.86277 -64.29181,-1.07847 l -64.4023,-0.32353 -8.83736,-3.0197 c -21.54107,-7.44139 -36.45412,-20.05939 -46.39616,-39.36386 -10.93623,-21.46139 -10.93623,-45.61893 0.11046,-68.05094 8.61644,-17.36324 26.29116,-32.56956 45.18103,-38.93247 20.65734,-6.90216 46.2857,-4.31385 65.50695,6.68646 6.51756,3.66677 19.66314,15.85339 27.1749,25.02032 13.47698,16.39262 40.43094,12.61799 49.04737,-6.79432 2.6512,-6.03938 2.20934,-16.93185 -0.88374,-22.75554 -6.29662,-11.97093 -26.51209,-32.24601 -40.65187,-40.98155 -4.30822,-2.69616 -7.95363,-5.39231 -7.95363,-6.03939 0,-2.37262 17.4538,-19.41231 26.18068,-25.4517 24.08183,-16.93185 50.59392,-24.58894 80.42002,-23.18694 17.45379,0.86278 31.8145,4.4217 47.6113,12.07878 26.95396,12.8337 46.72756,32.35386 59.3208,58.56048 6.40709,13.48078 6.29663,13.80432 -4.19774,20.81432 -10.05251,6.68646 -14.25026,12.29447 -16.23866,21.46139 -3.09308,14.66708 7.84316,29.54985 23.97134,32.46171 7.18037,1.29414 14.47119,-0.64709 23.63995,-6.47078 10.93624,-6.79431 19.4422,-9.70616 30.04704,-10.56893 29.60517,-2.26477 56.11726,17.25539 62.30341,45.72679 1.9884,9.27478 1.9884,14.02001 0,23.51047 -4.52915,21.03001 -21.87247,38.82463 -43.08214,44.21693 -5.41289,1.29416 -15.4654,1.6177 -59.09987,1.6177 l -52.47185,0 -14.58165,27.82431 c -8.0641,15.42201 -14.36072,28.25571 -13.91884,28.57924 1.10466,1.18632 125.82196,0.86277 136.7582,-0.32353 41.42513,-4.52954 76.11179,-28.25571 93.89698,-64.06064 7.51175,-15.09846 10.60483,-27.39294 11.26765,-45.40324 0.66279,-17.79463 -1.65702,-31.38325 -7.95364,-46.69741 -16.68051,-40.22663 -54.90211,-67.83525 -98.75753,-71.17848 l -9.16876,-0.75492 -3.64542,-9.70616 C 679.82705,327.48233 663.9198,303.64832 643.59386,284.66739 612.6631,255.87246 574.44149,239.1563 530.91747,235.48953 c -14.02931,-1.18631 -14.80257,-1.18631 -29.82609,0.10786 z" />
  <path style="fill:#fedc00;fill-opacity:1;stroke:none" inkscape:connector-curvature="0" id="path26-4" d="m 506.50049,520.99863 c -3,6.2 -24.9,51.2 -48.9,100 -23.9,48.8 -43.3,88.8 -43.2,89 0.2,0.2 16,0 35.1,-0.4 19.2,-0.4 35,-0.6 35.1,-0.4 0.1,0.1 -9.6,22 -21.7,48.7 -12.1,26.6 -22.3,49.2 -22.6,50.1 -0.5,1.69999 0.8,1.79999 17.3,1.89999 9.8,0.1 23.9,0.4 31.4,0.8 l 13.6,0.6 -17.3,38.4 c -9.6,21.2 -17.2,38.6 -17,38.8 0.2,0.2 21.3,-23.2 46.9,-51.9 l 46.6,-52.29999 -29.4,-0.3 c -16.2,-0.1 -29.5,-0.6 -29.5,-1 0,-0.4 10.8,-24.6 23.9,-53.7 l 23.9,-53 -27.8,-0.5 -27.8,-0.5 41.9,-82 c 23,-45.1 41.9,-82.3 41.9,-82.8 0,-0.4 -15.1,-0.7 -33.6,-0.7 l -33.5,0 -5.3,11.2 z" />
  <path style="fill:#80d3ff;fill-opacity:1;stroke:none" inkscape:connector-curvature="0" id="path28-6" d="m 299.50049,672.79863 c -29.8,15.9 -44.2,26.9 -49.5,38 -3.5,7.4 -3.7,21 -0.4,28.1 6.3,13.8 22.3,22.5 36.5,20 16.2,-2.8 25.8,-12.8 29.9,-30.9 1.8,-8.3 2.8,-29.3 2.2,-47 -0.3,-9.4 -0.9,-17.2 -1.2,-17.2 -0.3,0 -8.2,4.1 -17.5,9 z m 0.4,31.1 c 0,18.4 -2.8,29.2 -8.6,33.8 -11.3,8.9 -27.5,0.1 -26.2,-14.1 0.6,-5.9 2.5,-8.7 10.1,-14.8 5.4,-4.5 22.3,-15 23.9,-15 0.4,0 0.8,4.5 0.8,10.1 z" />
  <path style="fill:#80d3ff;fill-opacity:1;stroke:none" inkscape:connector-curvature="0" id="path30-3" d="m 754.40049,671.69863 c -42.8,22.2 -55,34.2 -54.8,54.2 0.1,20.3 20.4,36.9 40.1,32.8 8.2,-1.6 14.3,-5 19.5,-10.9 9,-10 11.7,-23.6 11.6,-57.5 -0.1,-12.1 -0.4,-23 -0.7,-24.2 -0.7,-2.2 -1.2,-1.9 -15.7,5.6 z m -1.8,34.8 c -1,20.5 -3.4,28.1 -10.4,32.4 -10.6,6.6 -24.3,-1.1 -24.3,-13.5 0,-6.7 3.1,-11.5 11.3,-17.8 5.3,-3.9 22.4,-14.7 23.6,-14.8 0.2,0 0.1,6.2 -0.2,13.7 z" />
  <path style="fill:#fedc00;fill-opacity:1;stroke:none" inkscape:connector-curvature="0" id="path32-3" d="m 334.10049,727.49863 -22.1,52.8 36,0.3 35.9,0.2 -27.1,54.29999 c -14.9,29.8 -26.6,53.7 -26.1,53.2 0.6,-0.6 24.5,-34.1 53.1,-74.5 32.8,-46.29999 51.6,-73.59999 50.7,-73.79999 -0.7,-0.2 -14.4,-0.6 -30.3,-1 l -29,-0.7 14.8,-31 c 8.2,-17.1 14.8,-31.3 14.9,-31.8 0,-0.4 -10.9,-0.7 -24.3,-0.7 l -24.3,0 -22.2,52.7 z" />
  <path style="fill:#fedc00;fill-opacity:1;stroke:none" inkscape:connector-curvature="0" id="path34-1" d="m 581.40049,677.99863 c -0.7,1.8 -9.2,21.6 -18.8,44 l -17.5,40.8 38.9,0 38.9,0 -31.5,62.99999 c -17.3,34.6 -31.3,63 -31.1,63 0.6,0 125,-160.69999 125.4,-161.99999 0.2,-0.6 -13.4,-1 -38.2,-1 -21.2,0 -38.6,-0.2 -38.6,-0.6 0,-0.3 4.1,-9.4 9.1,-20.2 5.1,-10.8 10.2,-22.1 11.5,-25 l 2.4,-5.2 -24.6,0 -24.5,0 -1.4,3.2 z" />
  <path style="fill:#80d3ff;fill-opacity:1;stroke:none" inkscape:connector-curvature="0" id="path36-1" d="m 205.50049,770.39863 c -40.7,21.3 -57.4,32.4 -70.6,46.79999 -8.5,9.2 -12.4,19.8 -12.4,33.1 0,44.9 53.9,67.3 86.1,35.9 13.9,-13.6 19.3,-35.9 19.3,-79.89999 0,-21 -1.1,-46.5 -1.9,-46.5 -0.3,0 -9.6,4.8 -20.5,10.6 z m -6.6,62.79999 c -2.1,23.1 -5.6,31.9 -14.9,36.9 -6.2,3.4 -15.2,3.7 -21,0.7 -8.4,-4.2 -14.1,-14.6 -12.7,-23.1 1.8,-11.5 11,-20.2 38.6,-36.5 l 10.5,-6.29999 0.3,8.19999 c 0.2,4.5 -0.2,13.6 -0.8,20.1 z" />
  <path style="fill:#80d3ff;fill-opacity:1;stroke:none" inkscape:connector-curvature="0" id="path38" d="m 777.90049,768.89863 c -65.3,34 -84,50.99999 -85.7,78.39999 -1.5,23.3 12.8,43.9 35.6,51.3 6.5,2 8.9,2.3 17.1,1.9 11.2,-0.5 18.2,-2.9 27.3,-9.1 15.8,-10.8 22.3,-27.2 24.8,-62.2 1.1,-16.1 0.4,-69.39999 -1,-69.39999 -0.3,0 -8.5,4.1 -18.1,9.1 z m -8.9,59.89999 c -2,27.8 -6.1,37.7 -17.3,42.4 -14.8,6.2 -31.8,-4.9 -31.8,-20.8 0.1,-12.2 8.7,-21.2 36.4,-37.8 l 13.1,-7.89999 0.3,4.3 c 0.2,2.39999 -0.1,11.29999 -0.7,19.79999 z" />
  <path inkscape:connector-curvature="0" style="fill:#ba381a;fill-opacity:1;stroke:none" id="path8-1" d="m 563.50346,219.13597 -61.89028,56.99844 0,137.06935 -0.0711,137.14125 9.87983,0 9.87984,0 0.14122,-126.86284 0.21165,-126.86283 31.4038,31.05084 c 17.28974,17.03484 40.64853,40.17922 51.93977,51.32015 l 20.53599,20.41307 30.27471,-11.5722 30.27472,-11.50031 25.40529,-3.95324 c 19.40691,-2.94696 33.45041,-5.67827 59.27913,-11.42843 18.63059,-4.09698 45.16507,-9.77527 58.9263,-12.50661 13.76121,-2.80318 36.90831,-7.54707 51.37521,-10.5659 l 26.2522,-5.53452 -0.1412,-54.33899 -0.2117,-54.2671 -27.1696,-5.60641 c -14.9609,-3.01883 -28.86324,-5.53452 -29.49836,-5.60639 -1.19971,0 -0.14114,2.08442 -0.14114,33.42277 l 0.0706,33.4228 -25.47591,0 -25.40528,0 0,-38.31043 0,-38.31042 -30.48649,-6.10953 -30.55692,-6.10956 -0.21178,44.41997 -0.1411,44.41997 -25.4053,0 -25.40541,0 0,-48.3732 0,-48.37321 -30.48637,-10.20651 c -16.79573,-5.60641 -30.69813,-10.20653 -30.9098,-10.20653 -0.21177,0 -28.22821,25.66007 -62.24305,56.92655 z m 61.39619,112.19993 -0.21168,50.52951 -52.92786,-51.53578 c -29.07497,-28.3914 -52.92774,-51.89516 -52.92774,-52.25456 0,-0.35937 23.85277,-22.71311 52.92774,-49.66696 l 52.92786,-49.0201 0.21168,50.67326 c 0.0711,27.96014 0.0711,73.45826 0,101.27463 z" sodipodi:nodetypes="ccccccccccccccccccccccsccccccccccccccsccccscccc" />
</svg>
