<?xml version="1.0" encoding="UTF-8" standalone="no"?>
<svg xmlns:dc="http://purl.org/dc/elements/1.1/" xmlns:cc="http://creativecommons.org/ns#" xmlns:rdf="http://www.w3.org/1999/02/22-rdf-syntax-ns#" xmlns:svg="http://www.w3.org/2000/svg" xmlns="http://www.w3.org/2000/svg" xmlns:sodipodi="http://sodipodi.sourceforge.net/DTD/sodipodi-0.dtd" xmlns:inkscape="http://www.inkscape.org/namespaces/inkscape" version="1.0" width="1024.000000pt" height="1024.000000pt" viewBox="0 0 1024.000000 1024.000000" preserveAspectRatio="xMidYMid meet" id="svg2" inkscape:version="0.48.5 r10040" sodipodi:docname="9349999.svg">
  <defs id="defs24" />
  <sodipodi:namedview pagecolor="#ffffff" bordercolor="#666666" borderopacity="1" objecttolerance="10" gridtolerance="10" guidetolerance="10" inkscape:pageopacity="0" inkscape:pageshadow="2" inkscape:window-width="936" inkscape:window-height="691" id="namedview22" showgrid="false" inkscape:zoom="0.184375" inkscape:cx="640" inkscape:cy="640" inkscape:window-x="1436" inkscape:window-y="186" inkscape:window-maximized="0" inkscape:current-layer="svg2" />
  <metadata id="metadata4">
Created by potrace 1.11, written by Peter Selinger 2001-2013
<rdf:RDF>
  <cc:Work rdf:about="">
    <dc:format>image/svg+xml</dc:format>
    <dc:type rdf:resource="http://purl.org/dc/dcmitype/StillImage" />
  </cc:Work>
</rdf:RDF>
</metadata>
  <path style="fill:#dcdcdc;stroke:none;fill-opacity:1" inkscape:connector-curvature="0" id="path8" d="m 502.8,224.1 c -56.1,5.4 -107.8,36.4 -139.4,83.5 l -7.4,11.1 -14.3,0.6 c -29.2,1.2 -55.8,10.7 -79.3,28.3 -9.3,7 -25.7,24.1 -31.7,33.2 -10.7,16 -18.2,33.6 -22.2,52.2 -2.4,11.3 -3,36.3 -1.1,48.5 4.8,31.3 17.9,57.1 40.5,79.6 20.8,20.7 42.1,32.3 71.6,39.2 9,2.1 10,2.1 200.5,2.5 212.8,0.3 200.9,0.6 221.9,-6.4 42.2,-14 73.4,-50.8 81.2,-95.4 1.8,-10.4 1.6,-30.6 -0.5,-41.2 -8,-41.4 -35.1,-74.9 -73.4,-90.7 -10.3,-4.3 -26.3,-8.1 -36.8,-8.8 l -9.1,-0.6 -2.3,-7.1 c -10,-31.3 -31.1,-62.3 -57.3,-84.3 -39.3,-33 -90.6,-49 -140.9,-44.2 z m 30.1,60 c 44.7,4.2 83.7,30.6 103.8,70.4 4.1,8 8.7,19.6 8.1,20 -8.1,4.8 -18.4,12.5 -20.7,15.4 -13.3,16.7 -6.1,40.6 14.2,47.5 9.5,3.2 17.3,1.6 29.4,-6.1 14.4,-9.1 25.1,-12 39.9,-11 25.6,1.8 48.3,20.6 54.9,45.3 1.9,7.1 2.1,22.9 0.5,29.9 -4.1,17.1 -16.5,32.7 -32.1,40.4 -15.5,7.6 -1,7.2 -210.2,6.9 l -187.2,-0.3 -7.5,-2.3 c -22.8,-7 -40.8,-22.1 -51,-42.7 -6.1,-12.2 -7.9,-19 -8.7,-31.7 -2.2,-35.8 18.3,-67.7 52.2,-81.3 19.9,-7.9 45.9,-6.9 64.8,2.7 12.9,6.5 19.1,11.8 35.1,30.3 6.3,7.2 11.1,9.7 20.2,10.3 12.9,0.8 23.4,-5.1 28.9,-16.1 5.3,-10.9 4.1,-21 -3.7,-32.8 -6.3,-9.6 -25.7,-28.4 -36.8,-35.8 -5.2,-3.5 -9.7,-6.5 -9.9,-6.7 -1.4,-1.3 13.3,-17.1 23.4,-24.9 23.3,-18.1 45.7,-26.2 78.5,-28.3 1.4,-0.1 7.6,0.3 13.9,0.9 z" />
  <path style="fill:#80d3ff;stroke:none;fill-opacity:1" inkscape:connector-curvature="0" id="path10" d="m 265.1,669.6 c -19,9.8 -33.2,18.8 -41.3,26.3 -16,14.7 -16.8,36.5 -1.7,51.2 13.4,13.1 35.6,12.5 48.5,-1.3 9.3,-9.9 11.4,-18.9 12.1,-50.8 0.2,-12.9 0.1,-25.8 -0.4,-28.7 l -0.8,-5.2 -16.4,8.5 z M 264,712 c -0.8,8.1 -1.8,13 -3.4,16.6 -6.6,14.4 -26.5,12.8 -30.6,-2.6 -2.7,-10.1 2.6,-16.6 24.5,-30 l 10,-6.1 0.3,5.3 c 0.2,2.9 -0.2,10.5 -0.8,16.8 z" />
  <path style="fill:#80d3ff;stroke:none;fill-opacity:1" inkscape:connector-curvature="0" id="path12" d="m 393.5,671.6 c -65.2,34.3 -82.6,51 -82.9,79.4 -0.1,11.4 2.4,19.7 8.6,29 14.1,21.2 43.6,28.4 66.2,16.2 15.5,-8.4 23.9,-21.9 28.1,-45.4 2.8,-15.3 3.3,-90 0.6,-89.7 -0.3,0 -9.6,4.7 -20.6,10.5 z m -5.8,52.1 c -1,28.5 -4.7,41 -13.9,47.1 -5.7,3.7 -16.6,4.4 -22.5,1.3 -5.7,-2.9 -10.9,-9.3 -12.3,-15.2 -3,-12.4 3.4,-22.1 23.3,-35.3 7.3,-4.8 24.5,-15.3 25.6,-15.5 0.2,-0.1 0.1,7.9 -0.2,17.6 z" />
  <path style="fill:#80d3ff;stroke:none;fill-opacity:1" inkscape:connector-curvature="0" id="path14" d="m 629.1,669.6 c -19,9.8 -33.2,18.8 -41.3,26.3 -16,14.7 -16.8,36.5 -1.7,51.2 13.4,13.1 35.6,12.5 48.5,-1.3 9.3,-9.9 11.4,-18.9 12.1,-50.8 0.2,-12.9 0.1,-25.8 -0.4,-28.7 l -0.8,-5.2 -16.4,8.5 z M 628,712 c -0.8,8.1 -1.8,13 -3.4,16.6 -6.6,14.4 -26.5,12.8 -30.6,-2.6 -2.7,-10.1 2.6,-16.6 24.5,-30 l 10,-6.1 0.3,5.3 c 0.2,2.9 -0.2,10.5 -0.8,16.8 z" />
  <path style="fill:#80d3ff;stroke:none;fill-opacity:1" inkscape:connector-curvature="0" id="path16" d="m 757.5,671.6 c -65.2,34.3 -82.6,51 -82.9,79.4 -0.1,11.4 2.4,19.7 8.6,29 14.1,21.2 43.6,28.4 66.2,16.2 15.5,-8.4 23.9,-21.9 28.1,-45.4 2.8,-15.3 3.3,-90 0.6,-89.7 -0.3,0 -9.6,4.7 -20.6,10.5 z m -5.8,52.1 c -1,28.5 -4.7,41 -13.9,47.1 -5.7,3.7 -16.6,4.4 -22.5,1.3 -5.7,-2.9 -10.9,-9.3 -12.3,-15.2 -3,-12.4 3.4,-22.1 23.3,-35.3 7.3,-4.8 24.5,-15.3 25.6,-15.5 0.2,-0.1 0.1,7.9 -0.2,17.6 z" />
  <path style="fill:#80d3ff;stroke:none;fill-opacity:1" inkscape:connector-curvature="0" id="path18" d="m 271,764.1 c -64.7,33.4 -84,51.8 -84,80.4 0,13.8 5,25.6 14.9,35.6 22,21.9 57.9,19.4 76.6,-5.4 11.3,-15 15.3,-41.7 14,-93.5 -0.4,-14.9 -1,-27.2 -1.4,-27.2 -0.3,0 -9.4,4.6 -20.1,10.1 z m -6.9,57.9 c -1.7,23.7 -4.2,33 -10.8,39.2 -10.5,10 -28.8,6.9 -35.5,-6.1 -5.7,-10.9 -2.7,-21.9 8.6,-31.3 6.8,-5.8 18.8,-13.7 30.4,-20.4 l 7.7,-4.4 0.3,3.3 c 0.2,1.7 -0.1,10.6 -0.7,19.7 z" />
  <path style="fill:#80d3ff;stroke:none;fill-opacity:1" inkscape:connector-curvature="0" id="path20" d="m 635,764.1 c -64.7,33.4 -84,51.8 -84,80.4 0,13.8 5,25.6 14.9,35.6 22,21.9 57.9,19.4 76.6,-5.4 11.3,-15 15.3,-41.7 14,-93.5 -0.4,-14.9 -1,-27.2 -1.4,-27.2 -0.3,0 -9.4,4.6 -20.1,10.1 z m -6.9,57.9 c -1.7,23.7 -4.2,33 -10.8,39.2 -10.5,10 -28.8,6.9 -35.5,-6.1 -5.7,-10.9 -2.7,-21.9 8.6,-31.3 6.8,-5.8 18.8,-13.7 30.4,-20.4 l 7.7,-4.4 0.3,3.3 c 0.2,1.7 -0.1,10.6 -0.7,19.7 z" />
</svg>
