<?xml version="1.0" encoding="UTF-8" standalone="no"?>
<svg xmlns:dc="http://purl.org/dc/elements/1.1/" xmlns:cc="http://creativecommons.org/ns#" xmlns:rdf="http://www.w3.org/1999/02/22-rdf-syntax-ns#" xmlns:svg="http://www.w3.org/2000/svg" xmlns="http://www.w3.org/2000/svg" xmlns:sodipodi="http://sodipodi.sourceforge.net/DTD/sodipodi-0.dtd" xmlns:inkscape="http://www.inkscape.org/namespaces/inkscape" version="1.0" width="1024.000000pt" height="1024.000000pt" viewBox="0 0 1024.000000 1024.000000" preserveAspectRatio="xMidYMid meet" id="svg2" inkscape:version="0.48.5 r10040" sodipodi:docname="sym9339991.svg">
  <defs id="defs22" />
  <sodipodi:namedview pagecolor="#ffffff" bordercolor="#666666" borderopacity="1" objecttolerance="10" gridtolerance="10" guidetolerance="10" inkscape:pageopacity="0" inkscape:pageshadow="2" inkscape:window-width="1641" inkscape:window-height="1245" id="namedview20" showgrid="false" inkscape:zoom="5.7934419" inkscape:cx="989.4701" inkscape:cy="937.42519" inkscape:window-x="793" inkscape:window-y="0" inkscape:window-maximized="0" inkscape:current-layer="svg2" />
  <metadata id="metadata4">
Created by potrace 1.11, written by Peter Selinger 2001-2013
<rdf:RDF>
  <cc:Work rdf:about="">
    <dc:format>image/svg+xml</dc:format>
    <dc:type rdf:resource="http://purl.org/dc/dcmitype/StillImage" />
  </cc:Work>
</rdf:RDF>
</metadata>
  <path style="fill:#80d3ff;stroke:none;fill-opacity:1" inkscape:connector-curvature="0" id="path10" d="m 513.5,668.1 c -38,20.4 -48.7,29.4 -53.1,44.5 -7,24.1 16.4,48.2 40.7,41.9 20.4,-5.2 28,-18.9 29.6,-53.5 0.6,-13.9 -0.4,-41 -1.6,-41 -0.3,0 -7.3,3.7 -15.6,8.1 z m -0.9,33.1 c -0.9,15.5 -2.2,23.3 -4.8,27.8 -5.5,9.9 -17.7,11.3 -25.9,3.1 -7.8,-7.7 -5.8,-18.2 5,-26.8 4.8,-3.8 24.7,-16.3 25.9,-16.3 0.3,0 0.2,5.5 -0.2,12.2 z" />
  <path style="fill:#80d3ff;stroke:none;fill-opacity:1" inkscape:connector-curvature="0" id="path12" d="M 384.5,672.7 C 320,706.6 302,724 302,752.5 c 0,13.9 5,25.7 14.9,35.5 20,19.6 50.1,20.1 70.5,1 15.7,-14.8 20,-33.5 19.8,-87.3 -0.1,-30.3 -0.5,-39.8 -2,-39.6 -0.4,0 -9.7,4.8 -20.7,10.6 z m -5.1,48.5 c -0.6,14.5 -2.5,30.2 -4.4,37 -2.8,9.7 -12.1,16.8 -22,16.8 -12.6,0 -22,-8.8 -22.8,-21.4 -0.7,-10.7 4.6,-18.2 20.3,-28.9 7.4,-5.1 27.7,-17.6 28.7,-17.6 0.4,-0.1 0.5,6.3 0.2,14.1 z" />
  <path style="fill:#80d3ff;stroke:none;fill-opacity:1" inkscape:connector-curvature="0" id="path14" d="m 677,670.1 c -45.9,23.9 -69,39.9 -79.1,54.5 -13.5,19.7 -10.2,47.6 7.5,64.2 20.6,19.3 50.9,18.9 70.6,-0.8 14.3,-14.3 19,-34.5 19,-82.1 0,-23.6 -0.9,-43.9 -1.9,-43.9 -0.3,0 -7.6,3.7 -16.1,8.1 z m -10.3,54.1 c -1.1,30.8 -4.8,42.4 -15.6,48 -15.7,8.2 -33.4,-2.2 -33.4,-19.7 0,-12.8 8.3,-21.3 38.3,-39.2 5.8,-3.4 10.7,-6.3 10.9,-6.3 0.2,0 0.1,7.8 -0.2,17.2 z" />
  <path style="fill:#80d3ff;stroke:none;fill-opacity:1" inkscape:connector-curvature="0" id="path16" d="M 555.5,767.4 C 489.9,801.1 470,820 470,848.5 c 0,13.2 5.3,25.8 15,35.5 22.7,22.7 59.6,19.2 77.8,-7.2 10,-14.6 13.9,-42.8 12.6,-91.6 -0.4,-14.4 -1,-26.4 -1.3,-26.7 -0.4,-0.2 -8.8,3.8 -18.6,8.9 z m -7.9,50.3 c -1.6,34.2 -5.6,46.1 -17.1,51.4 -10.8,5 -24.3,0.5 -29.7,-10 -6.4,-12.3 -2.5,-23 12.7,-34.6 6.3,-4.8 32.9,-21.5 34.3,-21.5 0.2,0 0.2,6.6 -0.2,14.7 z" />
  <path style="fill:#80d3ff;stroke:none;fill-opacity:1" inkscape:connector-curvature="0" id="path18" d="m 395.5,812.6 c -30.4,16.3 -44,26.8 -49.3,38.1 -2.3,4.9 -2.7,7.1 -2.7,14.3 0.1,10.6 3.1,17.4 10.5,24.4 7.6,7.1 12.7,9.1 23.5,9.1 10.8,0 15.9,-2 23.5,-9.1 8.5,-7.9 12.1,-19 13.6,-42.1 0.9,-13.7 -0.4,-43.3 -2,-43.3 -0.6,0.1 -8.3,3.9 -17.1,8.6 z m 1,31.1 c -1.3,22.3 -3.4,30 -9.5,34.3 -8.9,6.4 -21.8,1.9 -25,-8.7 -3.2,-10.7 3.5,-18.7 26.8,-32.4 3.7,-2.1 7.1,-3.9 7.5,-3.9 0.5,0 0.6,4.8 0.2,10.7 z" />
  <path style="fill:#a0a0a0;fill-opacity:1;stroke:none" inkscape:connector-curvature="0" id="path8-2" d="m 499.50029,223.21093 c -56.1,5.4 -107.8,36.4 -139.4,83.5 l -7.4,11.1 -14.3,0.6 c -29.20004,1.2 -55.80004,10.69999 -79.30004,28.29999 -9.3,7 -25.7,24.1 -31.7,33.2 -10.7,16 -18.2,33.6 -22.2,52.2 -2.4,11.3 -3,36.3 -1.1,48.5 4.8,31.3 17.9,57.1 40.5,79.6 20.8,20.7 42.1,32.3 71.6,39.2 9.00004,2.1 10.00004,2.1 200.50004,2.5 212.8,0.3 200.9,0.6 221.9,-6.4 42.2,-14 73.4,-50.8 81.2,-95.4 1.8,-10.4 1.6,-30.6 -0.5,-41.2 -8,-41.4 -35.1,-74.9 -73.4,-90.7 -10.3,-4.3 -26.3,-8.1 -36.8,-8.8 l -9.1,-0.6 -2.3,-7.1 c -10,-31.29999 -31.1,-62.29999 -57.3,-84.29999 -39.3,-33 -90.6,-49 -140.9,-44.2 z m 30.1,60 c 44.7,4.2 83.7,30.6 103.8,70.39999 4.1,8 8.7,19.6 8.1,20 -8.1,4.8 -18.4,12.5 -20.7,15.4 -13.3,16.7 -6.1,40.6 14.2,47.5 9.5,3.2 17.3,1.6 29.4,-6.1 14.4,-9.1 25.1,-12 39.9,-11 25.6,1.8 48.3,20.6 54.9,45.3 1.9,7.1 2.1,22.9 0.5,29.9 -4.1,17.1 -16.5,32.7 -32.1,40.4 -15.5,7.6 -1,7.2 -210.2,6.9 l -187.2,-0.3 -7.5,-2.3 c -22.80004,-7 -40.80004,-22.1 -51.00004,-42.7 -6.1,-12.2 -7.9,-19 -8.7,-31.7 -2.2,-35.8 18.3,-67.7 52.2,-81.3 19.90004,-7.9 45.90004,-6.9 64.80004,2.7 12.9,6.5 19.1,11.8 35.1,30.3 6.3,7.2 11.1,9.7 20.2,10.3 12.9,0.8 23.4,-5.1 28.9,-16.1 5.3,-10.9 4.1,-21 -3.7,-32.8 -6.3,-9.6 -25.7,-28.4 -36.8,-35.8 -5.2,-3.5 -9.7,-6.5 -9.9,-6.7 -1.4,-1.3 13.3,-17.09999 23.4,-24.89999 23.3,-18.1 45.7,-26.2 78.5,-28.3 1.4,-0.1 7.6,0.3 13.9,0.9 z" />
  <path style="fill:#ba381a;fill-opacity:1;stroke:none" sodipodi:nodetypes="ssccccccssscccsscccccccscscccsccccsscccccscccscssssscccccsccccsscsscccccscccsccccccccccscscscsccccccccccss" inkscape:connector-curvature="0" id="path14-9" d="M 757.16146,125.0205 C 720.5956,184.11194 682.6278,245.27289 637.2615,311.22049 c -8.545,12.4216 -9.2,16.1 -6.9,20.9 1.3,2.7 2.8,3.9 5.7,4.9 3,1 30.3,1.2 129.69996,1 125.4,-0.3 125.8,-0.3 128.5,-2.4 3.3,-2.4 4.6,-6.3 3.4,-10.3 -1.2,-4.2 -123.7,-194.99999 -127.6,-198.89999 -3.9,-3.7 -10.02124,-6.05217 -12.9,-1.4 z m 9.3,76.4 c 0.8,0.8 1.2,4.8 1.2,11.2 l 0,9.99999 6.4,-6.29999 c 5.6,-5.5 6.7,-6.2 8,-5.1 0.9,0.7 1.6,1.7 1.6,2.4 0,0.6 -3.6,4.7 -8,9.09999 l -8.1,8.1 0.3,10.6 0.3,10.7 8.5,-4.8 8.5,-4.8 1.7,-5.9 c 0.9,-3.3 2.4,-8.5 3.3,-11.7 1.4,-4.89999 2,-5.69999 4.1,-5.69999 3,0 3.1,2.1 0.4,10.99999 -1.1,3.6 -2,6.6 -2,6.7 0,1 3.2,-0.3 10.2,-4.3 7.2,-4.1 8.2,-4.4 9.6,-3.1 2.4,2.5 0.9,4.2 -7.7,8.8 -4.5,2.3 -8.1,4.6 -8.1,5 0,0.4 2.6,1.5 5.8,2.4 3.1,0.8 6.7,2 8,2.5 2.2,1 3,4.4 1.2,5.5 -0.5,0.3 -5.6,-0.8 -11.4,-2.5 -5.7,-1.6 -11.1,-3 -12,-3 -1.8,0 -17.6,8.2 -17.6,9.1 0,0.4 3.9,2.7 8.8,5.2 l 8.7,4.5 11.5,-3.5 c 10.7,-3.3 11.5,-3.4 12.7,-1.7 1.9,2.6 0,4.1 -8.3,6.6 -4.1,1.1 -7.4,2.4 -7.4,2.7 0,0.4 3.7,2.7 8.2,5.1 5.1,2.8 8.4,5.2 8.6,6.4 0.8,3.8 -2.2,3.6 -10.7,-0.9 -4.6,-2.5 -8.7,-4.5 -9.1,-4.5 -0.5,0 0.3,3.7 1.7,8.1 2.2,7.4 2.3,8.3 0.9,9.7 -1.4,1.4 -1.8,1.4 -3,0.2 -1.1,-1.1 -7.6,-20.5 -7.6,-22.5 0,-0.4 -16.7,-9.5 -17.4,-9.5 -0.3,0 -0.6,4.6 -0.6,10.2 l 0,10.2 8.1,8.2 c 8.1,8.3 9.5,11.5 5.5,12.2 -1.2,0.3 -3.9,-1.6 -7.7,-5.4 l -5.9,-5.8 0,9.4 c 0,10.5 -0.9,13.2 -3.7,11.4 -1.5,-0.9 -1.9,-2.9 -2.3,-10.7 l -0.5,-9.7 -6.2,5.5 c -6.2,5.6 -10.3,7.1 -10.3,3.7 0,-0.9 3.8,-5.5 8.5,-10.2 l 8.5,-8.5 0,-10.2 c 0,-5.7 -0.2,-10.3 -0.6,-10.3 -0.3,0 -4.5,2.1 -9.4,4.7 l -8.8,4.8 -3.39996,10.9 c -3.6,11.5 -5.6,14.2 -8.3,11.6 -1.3,-1.4 -1.2,-2.4 1,-9.5 1.3,-4.4 2.3,-8.1 2.1,-8.3 -0.2,-0.2 -4.1,1.8 -8.7,4.3 -8.8,4.8 -11.2,5.3 -11.7,2 -0.2,-1.7 1.4,-3 8.3,-6.8 4.7,-2.6 8.5,-5 8.5,-5.2 0,-0.3 -3.3,-1.4 -7.2,-2.6 -8.6,-2.5 -10.7,-4.1 -8.8,-6.3 1.7,-2.1 2.4,-2.1 14.5,1.5 l 10.4,3.1 8.69996,-4.8 c 10,-5.4 10.1,-4.9 -2,-11.1 l -6.99996,-3.5 -10.5,3.1 c -12.2,3.6 -13.7,3.7 -14.5,1.4 -1,-2.5 1.1,-3.9 9.3,-6.3 4,-1.2 7,-2.5 6.5,-3 -0.5,-0.5 -4.4,-2.7 -8.6,-5 -5.6,-3 -7.8,-4.7 -7.8,-6.1 0,-3.5 2.8,-3.2 11.5,1.4 5.5,3 8.5,4.1 8.5,3.2 0,-0.7 -0.9,-4.3 -2.1,-8 -2.2,-7.29999 -2,-9.49999 0.9,-9.49999 2.8,0 3.5,1.3 7.2,13.09999 l 3.19996,10.6 9.4,4.6 9.4,4.7 0,-10.8 0,-10.8 -8.5,-7.8 c -8.3,-7.59999 -10.1,-10.79999 -6.9,-11.99999 1.2,-0.4 3.9,1.3 8.5,5.5 l 6.9,6.1 0,-9.2 c 0,-11.2 1.6,-15 4.8,-11.8 z" />
  <path style="fill:#ffffff;fill-opacity:1;stroke:none" d="m 763.65898,312.73909 c -2.47345,-5.94075 -1.38898,-12.62906 -2.27504,-18.86758 -3.76952,0.36361 -7.04474,6.0359 -10.97518,7.96955 -2.51679,3.09142 -7.84168,1.76358 -3.68293,-1.92978 4.74624,-5.51328 9.9766,-10.58362 14.98819,-15.85227 -0.0892,-6.96798 0.25238,-13.96346 -0.36159,-20.9082 -6.32651,2.44852 -12.40079,5.71767 -18.15364,9.31188 -3.74511,7.16898 -4.40252,15.72621 -9.02189,22.46212 -5.77317,2.09825 -2.1784,-8.05916 -1.23117,-11.04106 0.82317,-2.51683 3.10534,-9.00206 -1.87481,-5.24765 -5.0141,2.25174 -9.76651,5.12215 -14.96762,6.93282 -4.71304,-3.8533 5.06947,-7.31306 8.05217,-9.47234 2.4402,-1.40975 10.02242,-4.89587 3.19286,-5.98872 -4.12801,-2.05546 -10.22035,-2.09377 -12.79692,-6.10047 3.37013,-4.93048 10.149,0.21827 14.76067,0.68722 3.41148,1.01168 6.82224,2.02577 10.23342,3.03847 5.31846,-3.08139 11.14422,-5.50363 15.88543,-9.40544 -0.33094,-4.16395 -6.47312,-5.0528 -9.59509,-7.25242 -2.31278,-1.01216 -4.57222,-2.6214 -6.918,-3.26417 -7.50327,2.03256 -14.86959,5.13314 -22.71095,5.40643 -4.95426,-3.10482 4.28829,-5.78869 7.16262,-6.65269 2.97623,-0.8775 10.28653,-3.15799 3.86739,-5.42471 -4.31424,-2.93651 -9.94051,-4.55629 -13.10184,-8.86876 2.02071,-4.68507 8.88208,1.37458 12.52784,2.3467 2.35504,1.13426 9.56227,5.14527 6.67672,-0.68062 -0.48077,-4.5684 -4.71646,-10.30673 -1.77445,-14.28857 5.66172,-0.0335 5.39278,8.10966 7.45483,11.95281 1.19759,3.79298 2.36883,7.59424 3.55442,11.391 6.28947,3.09826 12.57894,6.19651 18.86841,9.29476 0.0981,-7.23779 0.19625,-14.47557 0.29435,-21.71336 -5.44922,-5.47548 -11.3995,-10.52619 -16.19256,-16.59835 -0.12432,-6.43453 7.73941,1.59399 10.04385,3.50494 1.96225,1.6907 3.90335,3.40572 5.85436,5.10933 0.52637,-6.76721 0.082,-13.70686 1.7448,-20.31049 4.6852,-3.73986 3.65021,6.69017 3.83425,9.56246 0.44315,3.08286 -0.58832,9.12039 1.01364,10.40122 4.27929,-3.41564 7.71801,-7.95696 12.48529,-10.70334 6.53942,1.54496 -2.56947,7.16316 -4.34524,9.89984 -2.95571,3.02844 -5.91641,6.05201 -8.87419,9.07843 0.22348,7.32184 0.20347,14.65805 0.71048,21.96608 5.85884,-3.13334 11.59346,-6.4939 17.38489,-9.7498 2.28971,-7.47074 4.00152,-15.16689 7.06451,-22.36421 6.71347,-2.81597 2.12008,7.59076 1.54026,10.83562 -1.21047,3.06263 -2.39843,8.416 2.46916,4.86363 4.9919,-1.98099 9.44427,-5.56741 14.75082,-6.58062 5.04769,3.86617 -4.97087,7.0534 -7.78799,9.25602 -2.64907,1.63968 -10.70354,4.86412 -3.60134,6.36834 3.98042,2.2034 11.27673,1.53579 12.32254,6.81002 -3.39554,3.12769 -10.31698,-1.61084 -15.04581,-1.87088 -3.32758,-0.69137 -6.78289,-1.8794 -10.12097,-1.98348 -5.44876,2.88112 -11.2095,5.27727 -16.27043,8.81036 1.61266,3.32445 7.56848,4.69802 10.90682,7.0793 4.79117,4.06826 10.532,2.47635 15.89235,0.52645 4.68803,-0.2796 12.51173,-6.45772 15.18044,-0.66048 -3.50294,3.32342 -8.88973,3.93574 -13.24145,5.96095 -6.29429,1.88392 3.82773,5.16192 5.86574,7.18532 2.22247,1.66511 10.81756,5.35452 6.18075,7.64682 -6.4825,-1.33449 -11.92791,-5.53889 -18.19572,-7.49972 0.50037,5.6349 3.25517,10.93674 3.24334,16.62282 -3.43287,5.16815 -5.1253,-4.89633 -6.38718,-7.40578 -2.34747,-4.59122 -2.22732,-10.69775 -5.65954,-14.46492 -5.25554,-3.24962 -10.65501,-6.58257 -16.45407,-8.68865 -0.67453,6.7089 -0.72058,13.4655 -1.04891,20.19861 5.09642,5.48897 10.77462,10.51159 15.08381,16.66858 2.55961,6.47237 -5.99248,1.42402 -7.54904,-1.09723 -2.61167,-1.67866 -8.13491,-10.08983 -7.32283,-2.55663 -0.40797,5.62758 0.63337,11.56052 -1.3227,16.94716 -0.62067,0.97496 -1.82909,-0.0739 -2.23033,-0.60267 z" id="path2986-0" inkscape:connector-curvature="0" />
</svg>
