<?xml version="1.0" encoding="UTF-8" standalone="no"?>
<svg xmlns:dc="http://purl.org/dc/elements/1.1/" xmlns:cc="http://creativecommons.org/ns#" xmlns:rdf="http://www.w3.org/1999/02/22-rdf-syntax-ns#" xmlns:svg="http://www.w3.org/2000/svg" xmlns="http://www.w3.org/2000/svg" xmlns:sodipodi="http://sodipodi.sourceforge.net/DTD/sodipodi-0.dtd" xmlns:inkscape="http://www.inkscape.org/namespaces/inkscape" version="1.0" width="1024.000000pt" height="1024.000000pt" viewBox="0 0 1024.000000 1024.000000" preserveAspectRatio="xMidYMid meet" id="svg2" inkscape:version="0.48.5 r10040" sodipodi:docname="9291999.svg">
  <defs id="defs16" />
  <sodipodi:namedview pagecolor="#ffffff" bordercolor="#666666" borderopacity="1" objecttolerance="10" gridtolerance="10" guidetolerance="10" inkscape:pageopacity="0" inkscape:pageshadow="2" inkscape:window-width="836" inkscape:window-height="480" id="namedview14" showgrid="false" inkscape:zoom="0.184375" inkscape:cx="640" inkscape:cy="640" inkscape:window-x="0" inkscape:window-y="0" inkscape:window-maximized="0" inkscape:current-layer="svg2" />
  <metadata id="metadata4">
Created by potrace 1.11, written by Peter Selinger 2001-2013
<rdf:RDF>
  <cc:Work rdf:about="">
    <dc:format>image/svg+xml</dc:format>
    <dc:type rdf:resource="http://purl.org/dc/dcmitype/StillImage" />
  </cc:Work>
</rdf:RDF>
</metadata>
  <path style="fill:#cccccc;stroke:none" inkscape:connector-curvature="0" id="path8" d="m 504.6,223.1 c -56.2,5 -108.4,36.1 -140.2,83.5 l -7.4,11.1 -13.3,0.6 c -36.2,1.5 -67.4,14.7 -92.9,39.5 -22,21.3 -35,44.9 -41.5,75.2 -2.5,12 -2.5,42 0,54 6.5,30.5 19.6,54.1 41.9,75.5 19.8,19 41.7,30.7 68.8,36.7 l 10.5,2.3 196,0 196,0 9.5,-2.6 c 26.4,-7.4 46.4,-19.2 61.9,-36.7 20.9,-23.7 31.4,-51 31.4,-81.7 0,-14.6 -1.7,-25.5 -6.2,-38.5 C 806.9,405.8 778.7,377.5 743,365.6 732.2,362 716.9,359 709,359 l -4.5,0 -3.4,-9.9 c -4.4,-13.2 -13.2,-30.5 -21.9,-43.2 -32.5,-47.7 -84,-77.8 -141.7,-82.8 -13.5,-1.2 -18.7,-1.2 -32.9,0 z m 40.3,61.5 c 24.1,4.3 47.3,15.9 65.8,32.9 8.9,8.1 20.4,23.2 26.1,34.2 4,7.7 9.6,21.3 9,21.7 -13.7,8.9 -18.4,12.5 -21.3,16.3 -14.4,18.9 -2.4,45.9 21.5,48 6.9,0.7 13.9,-1.4 20.8,-6.2 11.6,-7.9 20.8,-11.3 33.3,-12.2 28.7,-2 56,17.7 63.4,45.7 0.8,3.1 1.5,9.9 1.5,15.5 0,11.8 -1.5,18.2 -6.7,28.5 -7.8,15.6 -26,29.1 -42.9,31.9 -5.1,0.9 -57.1,1.1 -193.9,0.9 l -187,-0.3 -7.3,-2.3 C 299.6,530.7 280.1,512 270.8,485 c -3.1,-9.1 -3.3,-10.1 -3.3,-25 0,-14.9 0.2,-15.9 3.3,-25 5.6,-16.3 14.2,-28.8 26.6,-38.6 36.8,-29.3 89,-22.6 117.4,15.1 5.7,7.6 8.5,10.1 14.7,13.1 6,2.9 15.7,3.2 22.8,0.8 9.7,-3.3 17.9,-13.9 19.3,-25 0.8,-6.9 -1.4,-14.3 -6.8,-22.4 -6.5,-9.9 -25.7,-28.6 -36.3,-35.5 -4.9,-3.2 -9.4,-6.2 -9.9,-6.6 -1.3,-1.1 6.5,-10.8 14.8,-18.5 7.6,-7.1 21.6,-16.9 30.5,-21.4 24.1,-12 53.6,-16.2 81,-11.4 z" />
  <path style="fill:#dcdcdc;stroke:none;fill-opacity:1" inkscape:connector-curvature="0" id="path10" d="m 492.4,644.8 c -3.8,2.4 -5.8,7.1 -5.2,12 0.4,2.3 3.7,8.8 9.2,17.4 4.7,7.6 8.6,14 8.6,14.3 0,0.3 -7.8,0.5 -17.2,0.5 -19.6,0 -22.7,0.8 -26,7 -2.3,4.4 -2.3,7.7 0.2,11.7 3.8,6.2 5.6,6.7 25.2,7.3 l 17.8,0.5 -9.1,14.8 c -10.1,16.3 -11.1,20.2 -7.2,25.5 2.8,3.8 8.6,6.5 12.3,5.7 5.1,-1.1 8.3,-4.7 17.6,-19.9 4.9,-8 9.2,-14.6 9.5,-14.6 0.4,0 4.8,6.8 9.9,15 11.8,19.3 15,21.8 23.3,18.9 4.9,-1.7 7.7,-5.2 8.4,-10.5 0.4,-3.6 -0.3,-5.3 -9.1,-19.7 l -9.5,-15.7 16.7,0 c 14.2,0 17.3,-0.3 20.9,-1.9 8.9,-4.1 10,-15.6 2,-21.5 -2.6,-1.9 -4.6,-2.1 -21.1,-2.6 l -18.3,-0.5 9.4,-15 c 8.9,-14.1 9.4,-15.2 9,-19.4 -0.4,-3.1 -1.3,-5.2 -3.6,-7.5 -2.7,-2.7 -3.8,-3.1 -8.5,-3.1 -7.1,0 -8.1,1 -19.7,19.6 -7.3,11.7 -9.5,14.7 -10.4,13.7 -0.6,-0.7 -5.1,-7.6 -9.8,-15.4 -4.8,-7.8 -9.6,-14.9 -10.7,-15.9 -3,-2.7 -10.8,-3.1 -14.6,-0.7 z" />
  <path style="fill:#dcdcdc;stroke:none;fill-opacity:1" inkscape:connector-curvature="0" id="path12" d="m 424.1,779.6 c -1.2,1.5 -2.1,3.6 -2.1,4.7 0,1.2 2.5,6.3 5.5,11.3 3,5.1 5.5,9.5 5.5,9.8 0,0.3 -5,0.6 -11,0.6 -10.4,0 -11.2,0.1 -13.5,2.5 -2.6,2.5 -3.2,6.3 -1.5,9.5 1.5,2.8 6.5,4 16.6,4 5.2,0 9.4,0.2 9.4,0.4 0,0.2 -2.5,4.3 -5.5,9.1 -3,4.9 -5.5,9.9 -5.5,11.2 0,3.4 4.2,7.3 8,7.3 3.8,0 5.4,-1.6 11.9,-12.3 3,-4.8 5.6,-8.7 6,-8.7 0.3,0 3,4.1 6,9.1 5.8,9.6 8.1,11.9 11.9,11.9 3.5,0 5.8,-1.6 7.1,-4.9 1.4,-3.3 1.4,-3.5 -5.5,-14.7 -2.4,-3.9 -4.4,-7.3 -4.4,-7.6 0,-0.3 5,-0.7 11.1,-1 10.8,-0.3 11.2,-0.4 13.6,-3.2 1.9,-2.3 2.3,-3.6 1.9,-6 -1.1,-5.5 -2.5,-6.1 -15.6,-6.4 l -11.9,-0.4 6.1,-9.8 c 5.1,-8.4 5.9,-10.3 5.3,-12.9 -1.3,-5.9 -8.6,-8.1 -12.8,-3.9 -1.3,1.3 -4.5,6 -7.2,10.5 -2.8,4.5 -5.2,8.3 -5.5,8.3 -0.3,0 -2.5,-3.3 -4.9,-7.3 C 435.4,778 434.4,777 430,777 c -3,0 -4.3,0.6 -5.9,2.6 z" />
</svg>
