<?xml version="1.0" encoding="UTF-8" standalone="no"?>
<svg xmlns:dc="http://purl.org/dc/elements/1.1/" xmlns:cc="http://creativecommons.org/ns#" xmlns:rdf="http://www.w3.org/1999/02/22-rdf-syntax-ns#" xmlns:svg="http://www.w3.org/2000/svg" xmlns="http://www.w3.org/2000/svg" xmlns:sodipodi="http://sodipodi.sourceforge.net/DTD/sodipodi-0.dtd" xmlns:inkscape="http://www.inkscape.org/namespaces/inkscape" version="1.0" width="1024.000000pt" height="1024.000000pt" viewBox="0 0 1024.000000 1024.000000" preserveAspectRatio="xMidYMid meet" id="svg2" inkscape:version="0.48.5 r10040" sodipodi:docname="sym9319991.svg">
  <defs id="defs14" />
  <sodipodi:namedview pagecolor="#ffffff" bordercolor="#666666" borderopacity="1" objecttolerance="10" gridtolerance="10" guidetolerance="10" inkscape:pageopacity="0" inkscape:pageshadow="2" inkscape:window-width="1237" inkscape:window-height="1002" id="namedview12" showgrid="false" inkscape:zoom="2.085965" inkscape:cx="945.57393" inkscape:cy="945.57393" inkscape:window-x="1092" inkscape:window-y="43" inkscape:window-maximized="0" inkscape:current-layer="svg2" />
  <metadata id="metadata4">
Created by potrace 1.11, written by Peter Selinger 2001-2013
<rdf:RDF>
  <cc:Work rdf:about="">
    <dc:format>image/svg+xml</dc:format>
    <dc:type rdf:resource="http://purl.org/dc/dcmitype/StillImage" />
  </cc:Work>
</rdf:RDF>
</metadata>
  <path style="fill:#80d3ff;fill-opacity:1;stroke:none" inkscape:connector-curvature="0" id="path10-2" d="m 511.61992,676.96274 c -48.5,25.5 -68.9,40.5 -76.9,56.3 -14.2,28.1 -0.2,61.7 29.5,71.1 18.8,5.9 38.1,1.3 52,-12.5 14.2,-14.2 18.9,-34.5 18.9,-82.1 0,-23.6 -0.9,-43.9 -1.9,-43.9 -0.3,0.1 -10,5 -21.6,11.1 z m -5.5,62.9 c -1.5,15.4 -3.5,23.9 -7,29.3 -9.4,14 -31.4,12.8 -39.2,-2.2 -2,-3.8 -2.8,-6.8 -2.8,-10.5 0.1,-12.3 8.4,-20.9 37.5,-38.3 l 12,-7.2 0.3,8.7 c 0.2,4.8 -0.2,13.9 -0.8,20.2 z" />
  <path style="fill:#dcdcdc;fill-opacity:1;stroke:none" inkscape:connector-curvature="0" id="path10-0" d="m 512.35816,218.37542 c -59.84451,4.79788 -115.7784,37.68089 -148.72251,87.53201 l -6.0437,9.24467 -14.45748,0.70213 c -39.46184,1.75532 -74.18349,17.43619 -100.7284,45.28727 -20.14567,21.06386 -33.29961,46.80855 -38.15828,74.65963 -2.25157,12.87236 -2.25157,36.97876 0,50.08516 9.24331,51.72344 47.40161,95.48944 97.8843,112.10648 24.64883,8.19149 13.86496,7.84044 235.1119,7.48937 l 199.08669,-0.35108 11.49489,-3.15957 c 23.8193,-6.43619 40.52836,-16.26597 58.42246,-34.17024 17.06458,-17.20215 26.30788,-33.46812 32.7071,-57.57452 2.37008,-8.89363 2.7256,-13.22343 2.7256,-29.13832 0,-16.38297 -0.47402,-20.12768 -3.19961,-30.07448 -12.91693,-47.51071 -52.02325,-83.31923 -100.25437,-91.62775 -5.45118,-0.93616 -12.44292,-1.75532 -15.52403,-1.75532 l -5.56968,0 -3.91063,-10.883 C 696.98737,300.64149 661.31765,260.85419 615.93064,238.15205 585.59361,223.05629 546.96132,215.68394 512.35816,218.37542 z m 36.49921,62.60645 c 46.57208,6.90427 86.86344,38.85108 104.63903,82.85112 1.65905,4.3298 2.96259,8.19151 2.72557,8.42555 -0.23698,0.23403 -4.62164,3.04254 -9.5988,6.31915 -14.4575,9.24468 -19.67166,18.37235 -18.36812,32.06384 1.65904,17.90428 19.31614,30.54259 36.97324,26.68088 3.55512,-0.81915 9.24331,-3.27659 12.67992,-5.61703 18.84214,-12.87233 37.68428,-15.91489 58.54098,-9.59574 19.31614,5.85105 37.32874,24.92556 41.8319,44.35109 1.77756,7.37235 1.54056,24.1064 -0.35552,31.01067 -5.45116,20.12768 -20.73818,36.27662 -41.47638,43.766 l -8.41379,3.04254 -195.53157,0 c -220.41742,0 -200.74574,0.81915 -221.60246,-9.24469 -43.37244,-21.06384 -59.60749,-75.36176 -34.95866,-116.67032 11.73189,-19.65957 31.99606,-34.28725 54.27481,-39.20215 13.39096,-2.92553 34.72168,-1.87233 46.45357,2.45746 17.18308,6.0851 28.32246,14.74469 44.676,34.17025 6.39922,7.60637 13.98348,11.23404 23.58228,11.23404 21.33074,0.11703 36.49924,-20.47873 29.50751,-40.13833 -4.97717,-13.92551 -30.57403,-40.0213 -50.00868,-51.02131 -2.13307,-1.17023 -3.91063,-2.45746 -3.91063,-2.80851 0,-1.52128 13.15392,-15.91492 19.67166,-21.41492 30.21852,-25.51064 69.20633,-36.51065 108.66814,-30.65959 z" />
  <path style="fill:#ba381a;fill-opacity:1;stroke:none" sodipodi:nodetypes="ssccccccssscccsscccccccscscccsccccsscccccscccscssssscccccsccccsscsscccccscccsccccccccccscscscsccccccccccss" inkscape:connector-curvature="0" id="path14" d="m 767.28137,132.92443 c -36.56588,59.09144 -74.53369,120.25239 -119.9,186.19999 -8.54496,12.42159 -9.2,16.1 -6.9,20.9 1.3,2.7 2.8,3.9 5.7,4.9 3,1 30.3,1.2 129.7,1 125.4,-0.3 125.8,-0.3 128.5,-2.4 3.3,-2.4 4.6,-6.3 3.4,-10.3 -1.2,-4.2 -123.7,-194.99999 -127.6,-198.89999 -3.9,-3.7 -10.02124,-6.05217 -12.9,-1.4 z m 9.3,76.4 c 0.8,0.8 1.2,4.8 1.2,11.2 l 0,9.99999 6.4,-6.29999 c 5.6,-5.5 6.7,-6.2 8,-5.1 0.9,0.7 1.6,1.7 1.6,2.4 0,0.6 -3.6,4.7 -8,9.09999 l -8.1,8.1 0.3,10.6 0.3,10.7 8.5,-4.8 8.5,-4.8 1.7,-5.9 c 0.9,-3.3 2.4,-8.5 3.3,-11.7 1.4,-4.89999 2,-5.69999 4.1,-5.69999 3,0 3.1,2.1 0.4,10.99999 -1.1,3.6 -2,6.6 -2,6.7 0,1 3.2,-0.3 10.2,-4.3 7.2,-4.1 8.2,-4.4 9.6,-3.1 2.4,2.5 0.9,4.2 -7.7,8.8 -4.5,2.3 -8.1,4.6 -8.1,5 0,0.4 2.6,1.5 5.8,2.4 3.1,0.8 6.7,2 8,2.5 2.2,1 3,4.4 1.2,5.5 -0.5,0.3 -5.6,-0.8 -11.4,-2.5 -5.7,-1.6 -11.1,-3 -12,-3 -1.8,0 -17.6,8.2 -17.6,9.1 0,0.4 3.9,2.7 8.8,5.2 l 8.7,4.5 11.5,-3.5 c 10.7,-3.3 11.5,-3.4 12.7,-1.7 1.9,2.6 0,4.1 -8.3,6.6 -4.1,1.1 -7.4,2.4 -7.4,2.7 0,0.4 3.7,2.7 8.2,5.1 5.1,2.8 8.4,5.2 8.6,6.4 0.8,3.8 -2.2,3.6 -10.7,-0.9 -4.6,-2.5 -8.7,-4.5 -9.1,-4.5 -0.5,0 0.3,3.7 1.7,8.1 2.2,7.4 2.3,8.3 0.9,9.7 -1.4,1.4 -1.8,1.4 -3,0.2 -1.1,-1.1 -7.6,-20.5 -7.6,-22.5 0,-0.4 -16.7,-9.5 -17.4,-9.5 -0.3,0 -0.6,4.6 -0.6,10.2 l 0,10.2 8.1,8.2 c 8.1,8.3 9.5,11.5 5.5,12.2 -1.2,0.3 -3.9,-1.6 -7.7,-5.4 l -5.9,-5.8 0,9.4 c 0,10.5 -0.9,13.2 -3.7,11.4 -1.5,-0.9 -1.9,-2.9 -2.3,-10.7 l -0.5,-9.7 -6.2,5.5 c -6.2,5.6 -10.3,7.1 -10.3,3.7 0,-0.9 3.8,-5.5 8.5,-10.2 l 8.5,-8.5 0,-10.2 c 0,-5.7 -0.2,-10.3 -0.6,-10.3 -0.3,0 -4.5,2.1 -9.4,4.7 l -8.8,4.8 -3.4,10.9 c -3.6,11.5 -5.6,14.2 -8.3,11.6 -1.3,-1.4 -1.2,-2.4 1,-9.5 1.3,-4.4 2.3,-8.1 2.1,-8.3 -0.2,-0.2 -4.1,1.8 -8.7,4.3 -8.8,4.8 -11.2,5.3 -11.7,2 -0.2,-1.7 1.4,-3 8.3,-6.8 4.7,-2.6 8.5,-5 8.5,-5.2 0,-0.3 -3.3,-1.4 -7.2,-2.6 -8.6,-2.5 -10.7,-4.1 -8.8,-6.3 1.7,-2.1 2.4,-2.1 14.5,1.5 l 10.4,3.1 8.7,-4.8 c 10,-5.4 10.1,-4.9 -2,-11.1 l -7,-3.5 -10.5,3.1 c -12.2,3.6 -13.7,3.7 -14.5,1.4 -1,-2.5 1.1,-3.9 9.3,-6.3 4,-1.2 7,-2.5 6.5,-3 -0.5,-0.5 -4.4,-2.7 -8.6,-5 -5.6,-3 -7.8,-4.7 -7.8,-6.1 0,-3.5 2.8,-3.2 11.5,1.4 5.5,3 8.5,4.1 8.5,3.2 0,-0.7 -0.9,-4.3 -2.1,-8 -2.2,-7.29999 -2,-9.49999 0.9,-9.49999 2.8,0 3.5,1.3 7.2,13.09999 l 3.2,10.6 9.4,4.6 9.4,4.7 0,-10.8 0,-10.8 -8.5,-7.8 c -8.3,-7.59999 -10.1,-10.79999 -6.9,-11.99999 1.2,-0.4 3.9,1.3 8.5,5.5 l 6.9,6.1 0,-9.2 c 0,-11.2 1.6,-15 4.8,-11.8 z" />
  <path style="fill:#ffffff;fill-opacity:1;stroke:none" d="m 773.77891,320.64302 c -2.47346,-5.94075 -1.389,-12.62906 -2.27506,-18.86758 -3.76952,0.36361 -7.04474,6.0359 -10.97518,7.96955 -2.51679,3.09143 -7.84166,1.76357 -3.68291,-1.92979 4.74622,-5.5133 9.97658,-10.58363 14.98819,-15.85227 -0.0892,-6.96799 0.25238,-13.96347 -0.36159,-20.90821 -6.3265,2.44854 -12.40079,5.71768 -18.15364,9.3119 -3.74509,7.16898 -4.40255,15.72618 -9.02186,22.46212 -5.77327,2.0983 -2.17839,-8.05913 -1.23118,-11.04105 0.82317,-2.51684 3.10535,-9.00208 -1.87482,-5.24766 -5.01409,2.25177 -9.76652,5.12211 -14.96761,6.93283 -4.71311,-3.85323 5.06941,-7.31309 8.05212,-9.47235 2.44022,-1.40975 10.02248,-4.89584 3.19288,-5.9887 -4.12803,-2.05544 -10.22036,-2.09377 -12.79692,-6.10048 3.37014,-4.93047 10.149,0.21828 14.76068,0.68723 3.41148,1.01168 6.82224,2.02577 10.23341,3.03847 5.31846,-3.08139 11.14423,-5.50364 15.88544,-9.40545 -0.33097,-4.16394 -6.47312,-5.0528 -9.59509,-7.25243 -2.31277,-1.01214 -4.57219,-2.62139 -6.91796,-3.26415 -7.5033,2.03252 -14.86962,5.13315 -22.71101,5.40641 -4.95422,-3.10482 4.28833,-5.78868 7.16267,-6.65267 2.97619,-0.87754 10.28651,-3.15801 3.86738,-5.42471 -4.31427,-2.93649 -9.94052,-4.55631 -13.10188,-8.86878 2.02069,-4.68505 8.88211,1.37459 12.52788,2.34671 2.35503,1.13425 9.56225,5.14525 6.67671,-0.68062 -0.48086,-4.56837 -4.71647,-10.30672 -1.77448,-14.28855 5.66176,-0.0336 5.39279,8.10963 7.4548,11.95279 1.19758,3.793 2.36887,7.59425 3.55447,11.39101 6.28947,3.09824 12.57894,6.19649 18.86841,9.29475 0.0981,-7.23778 0.19623,-14.47557 0.29433,-21.71335 -5.4492,-5.4755 -11.39949,-10.5262 -16.19255,-16.59835 -0.12431,-6.43452 7.73941,1.594 10.04385,3.50494 1.96224,1.69071 3.90335,3.40571 5.85437,5.10931 0.52637,-6.7672 0.082,-13.70684 1.74479,-20.31046 4.68521,-3.73987 3.65022,6.69015 3.83425,9.56245 0.44315,3.08286 -0.5883,9.12036 1.01364,10.40121 4.2793,-3.41563 7.71803,-7.95694 12.48529,-10.70332 6.53941,1.54495 -2.56947,7.16316 -4.34523,9.89983 -2.95571,3.02844 -5.91642,6.052 -8.87421,9.07842 0.22349,7.32185 0.20347,14.65806 0.71049,21.96609 5.85884,-3.13337 11.59347,-6.49391 17.3849,-9.74982 2.28971,-7.47074 4.0015,-15.16688 7.06451,-22.36419 6.71347,-2.81595 2.12004,7.59075 1.54025,10.83561 -1.21046,3.06263 -2.39843,8.41601 2.46916,4.86364 4.99191,-1.98098 9.44427,-5.56741 14.75083,-6.58063 5.04769,3.86617 -4.97087,7.0534 -7.78799,9.25602 -2.64908,1.63967 -10.70356,4.86413 -3.60134,6.36834 3.98041,2.20342 11.27675,1.53578 12.32254,6.81003 -3.39555,3.12767 -10.31699,-1.61086 -15.04583,-1.87089 -3.32758,-0.69136 -6.78287,-1.87941 -10.12095,-1.98348 -5.44876,2.88112 -11.20952,5.27726 -16.27044,8.81036 1.61266,3.32445 7.56849,4.69803 10.90682,7.0793 4.79118,4.06827 10.532,2.47635 15.89236,0.52646 4.68803,-0.27961 12.51173,-6.45774 15.18044,-0.6605 -3.50294,3.32343 -8.88973,3.93577 -13.24146,5.96097 -6.29427,1.88391 3.82775,5.16191 5.86575,7.18532 2.22246,1.6651 10.81756,5.35451 6.18075,7.64681 -6.4825,-1.33449 -11.92791,-5.53889 -18.19572,-7.49973 0.50035,5.63491 3.25515,10.93675 3.24334,16.62283 -3.43289,5.16815 -5.1253,-4.89631 -6.38719,-7.40577 -2.34746,-4.59122 -2.2273,-10.69776 -5.65954,-14.46492 -5.25555,-3.24963 -10.65501,-6.58256 -16.45408,-8.68867 -0.67454,6.70891 -0.72058,13.46552 -1.04889,20.19863 5.09642,5.48896 10.77462,10.51158 15.0838,16.66857 2.55963,6.47236 -5.99249,1.42402 -7.54904,-1.09723 -2.61166,-1.67867 -8.13491,-10.08982 -7.32282,-2.55663 -0.408,5.62759 0.63335,11.56052 -1.32271,16.94716 -0.62066,0.97496 -1.8291,-0.0739 -2.23032,-0.60268 z" id="path2986" inkscape:connector-curvature="0" />
</svg>
