<?xml version="1.0" encoding="UTF-8" standalone="no"?>
<svg xmlns:dc="http://purl.org/dc/elements/1.1/" xmlns:cc="http://creativecommons.org/ns#" xmlns:rdf="http://www.w3.org/1999/02/22-rdf-syntax-ns#" xmlns:svg="http://www.w3.org/2000/svg" xmlns="http://www.w3.org/2000/svg" xmlns:sodipodi="http://sodipodi.sourceforge.net/DTD/sodipodi-0.dtd" xmlns:inkscape="http://www.inkscape.org/namespaces/inkscape" version="1.0" width="1024.000000pt" height="1024.000000pt" viewBox="0 0 1024.000000 1024.000000" preserveAspectRatio="xMidYMid meet" id="svg2" inkscape:version="0.48.5 r10040" sodipodi:docname="9299992.svg">
  <defs id="defs12" />
  <sodipodi:namedview pagecolor="#ffffff" bordercolor="#666666" borderopacity="1" objecttolerance="10" gridtolerance="10" guidetolerance="10" inkscape:pageopacity="0" inkscape:pageshadow="2" inkscape:window-width="640" inkscape:window-height="480" id="namedview10" showgrid="false" inkscape:zoom="0.184375" inkscape:cx="640" inkscape:cy="640" inkscape:window-x="1760" inkscape:window-y="41" inkscape:window-maximized="0" inkscape:current-layer="svg2" />
  <metadata id="metadata4">
Created by potrace 1.11, written by Peter Selinger 2001-2013
<rdf:RDF>
  <cc:Work rdf:about="">
    <dc:format>image/svg+xml</dc:format>
    <dc:type rdf:resource="http://purl.org/dc/dcmitype/StillImage" />
  </cc:Work>
</rdf:RDF>
</metadata>
  <path style="fill:#a0a0a0;fill-opacity:1;stroke:none" inkscape:connector-curvature="0" id="path8-5" d="m 496.54102,292.6729 c -59.64462,5.64686 -114.61124,38.06401 -148.20786,87.31718 l -7.86756,11.60743 -15.20353,0.62743 c -31.04497,1.25486 -59.32567,11.18914 -84.31049,29.59371 -9.88762,7.32001 -27.32383,25.20173 -33.70294,34.71773 -11.37607,16.73143 -19.34995,35.13601 -23.60269,54.5863 -2.55164,11.81658 -3.18955,37.95944 -1.1695,50.71716 5.10329,32.73087 19.031,59.7103 43.05896,83.23888 22.11422,21.6463 44.76005,33.77658 76.12397,40.99202 9.56866,2.196 10.63185,2.196 213.16841,2.61428 226.24556,0.31372 213.59367,0.62743 235.92054,-6.69257 44.86637,-14.64001 78.03771,-53.1223 86.33054,-99.76118 1.91373,-10.87543 1.7011,-31.99886 -0.53159,-43.08344 -8.50547,-43.29258 -37.31776,-78.32402 -78.03771,-94.84631 -10.95079,-4.49658 -27.96174,-8.47029 -39.12517,-9.20229 l -9.67498,-0.62743 -2.44532,-7.42457 C 696.63226,394.31637 674.19908,361.89921 646.34365,338.89349 604.56052,304.3849 550.01918,287.65347 496.54102,292.6729 z m 32.00184,62.74288 c 47.52433,4.392 88.98851,31.99887 110.35851,73.6183 4.35905,8.36572 9.2497,20.49601 8.61179,20.9143 -8.61179,5.01943 -19.56259,13.07143 -22.00791,16.104 -14.14035,17.46344 -6.48543,42.45601 15.09721,49.67145 10.10025,3.34628 18.39308,1.67314 31.25761,-6.37886 15.30985,-9.51601 26.68592,-12.54858 42.42105,-11.50286 27.21751,1.88228 51.35178,21.54172 58.3688,47.37087 2.02005,7.42457 2.23269,23.94686 0.53159,31.26686 -4.35905,17.88172 -17.54254,34.19487 -34.12821,42.24687 -16.47935,7.94744 -1.06318,7.52915 -223.48128,7.21544 l -199.02806,-0.31372 -7.97388,-2.40514 c -24.2406,-7.32 -43.37791,-23.1103 -54.22239,-44.65202 -6.48542,-12.75771 -8.39915,-19.86857 -9.2497,-33.14915 -2.339,-37.43658 19.45627,-70.79488 55.49821,-85.0166 21.15736,-8.26114 48.80015,-7.21543 68.89433,2.82343 13.71507,6.79715 20.30681,12.33943 37.31776,31.68515 6.69806,7.52915 11.80134,10.14344 21.47632,10.77087 13.71507,0.83657 24.8785,-5.33315 30.72601,-16.83601 5.63488,-11.39829 4.35906,-21.96001 -3.93378,-34.29944 -6.69806,-10.03886 -27.32383,-29.69829 -39.12517,-37.43658 -5.52856,-3.66 -10.31289,-6.79715 -10.52552,-7.00629 -1.48846,-1.35943 14.14035,-17.88171 24.8785,-26.03828 24.77219,-18.92745 48.58752,-27.39774 83.45995,-29.59374 1.48846,-0.10457 8.0802,0.31372 14.77826,0.94115 z" />
  <path inkscape:connector-curvature="0" style="fill:#ba381a;fill-opacity:1;stroke:none" id="path8-1" d="m 561.98681,214.31638 -61.89028,56.99844 0,137.06935 -0.0711,137.14125 9.87983,0 9.87984,0 0.14122,-126.86284 0.21165,-126.86283 31.4038,31.05084 c 17.28974,17.03484 40.64853,40.17922 51.93977,51.32015 l 20.53599,20.41307 30.27471,-11.5722 30.27472,-11.50031 25.40529,-3.95324 c 19.40691,-2.94696 33.45041,-5.67827 59.27913,-11.42843 18.63059,-4.09698 45.16507,-9.77527 58.9263,-12.50661 13.76121,-2.80318 36.90831,-7.54707 51.37522,-10.5659 l 26.25218,-5.53452 -0.14114,-54.33899 -0.2117,-54.2671 -27.1696,-5.60641 c -14.96091,-3.01883 -28.86329,-5.53452 -29.49841,-5.60639 -1.19971,0 -0.14114,2.08442 -0.14114,33.42277 l 0.0706,33.4228 -25.47592,0 -25.40528,0 0,-38.31043 0,-38.31042 -30.48648,-6.10953 -30.55692,-6.10956 -0.21179,44.41997 -0.14109,44.41997 -25.40531,0 -25.40541,0 0,-48.3732 0,-48.37321 -30.48636,-10.20651 c -16.79574,-5.60641 -30.69814,-10.20653 -30.9098,-10.20653 -0.21177,0 -28.22822,25.66007 -62.24305,56.92655 z m 61.39618,112.19993 -0.21167,50.52951 -52.92786,-51.53578 c -29.07497,-28.3914 -52.92775,-51.89516 -52.92775,-52.25456 0,-0.35937 23.85278,-22.7131 52.92775,-49.66696 l 52.92786,-49.0201 0.21167,50.67326 c 0.0711,27.96014 0.0711,73.45826 0,101.27463 z" sodipodi:nodetypes="ccccccccccccccccccccccsccccccccccccccsccccscccc" />
</svg>
