<?xml version="1.0" encoding="UTF-8" standalone="no"?>
<svg xmlns:dc="http://purl.org/dc/elements/1.1/" xmlns:cc="http://creativecommons.org/ns#" xmlns:rdf="http://www.w3.org/1999/02/22-rdf-syntax-ns#" xmlns:svg="http://www.w3.org/2000/svg" xmlns="http://www.w3.org/2000/svg" xmlns:sodipodi="http://sodipodi.sourceforge.net/DTD/sodipodi-0.dtd" xmlns:inkscape="http://www.inkscape.org/namespaces/inkscape" version="1.0" width="1024.000000pt" height="1024.000000pt" viewBox="0 0 1024.000000 1024.000000" preserveAspectRatio="xMidYMid meet" id="svg2" inkscape:version="0.48.5 r10040" sodipodi:docname="9299971.svg">
  <defs id="defs18" />
  <sodipodi:namedview pagecolor="#ffffff" bordercolor="#666666" borderopacity="1" objecttolerance="10" gridtolerance="10" guidetolerance="10" inkscape:pageopacity="0" inkscape:pageshadow="2" inkscape:window-width="985" inkscape:window-height="715" id="namedview16" showgrid="false" inkscape:zoom="0.184375" inkscape:cx="640" inkscape:cy="640" inkscape:window-x="1464" inkscape:window-y="280" inkscape:window-maximized="0" inkscape:current-layer="svg2" />
  <metadata id="metadata4">
Created by potrace 1.11, written by Peter Selinger 2001-2013
<rdf:RDF>
  <cc:Work rdf:about="">
    <dc:format>image/svg+xml</dc:format>
    <dc:type rdf:resource="http://purl.org/dc/dcmitype/StillImage" />
  </cc:Work>
</rdf:RDF>
</metadata>
  <path style="fill:#cccccc;stroke:none;fill-opacity:1" inkscape:connector-curvature="0" id="path10" d="m 265.5,704.4 c -3.9,1.7 -8,6.5 -9.5,11.2 -2.7,8 1.7,18 9.3,21.5 4.1,1.8 10.6,1.9 246.2,1.9 235.6,0 242.1,-0.1 246.2,-1.9 7.6,-3.5 12,-13.5 9.3,-21.5 -1.6,-4.8 -5.6,-9.6 -9.7,-11.2 -4.8,-2 -487.2,-2 -491.8,0 z" />
  <path style="fill:#cccccc;stroke:none;fill-opacity:1" inkscape:connector-curvature="0" id="path12" d="m 267.2,779.2 c -1.8,0.6 -5,3 -7.1,5.3 -4.5,4.9 -6.1,11.3 -4.3,17.4 1.4,4.4 7.4,10.4 12.1,12 4.9,1.6 482.3,1.6 487.2,0 4.7,-1.6 10.7,-7.6 12.1,-12 0.6,-2.2 0.8,-5.7 0.4,-8.4 -0.9,-5.9 -6.7,-12.6 -12.4,-14.3 -5.3,-1.6 -483.1,-1.5 -488,0 z" />
  <path style="fill:#cccccc;stroke:none;fill-opacity:1" inkscape:connector-curvature="0" id="path14" d="m 265.3,855.9 c -10.5,4.8 -13.3,19 -5.5,28.3 5.3,6.2 -13.2,5.8 251.7,5.8 264.9,0 246.4,0.4 251.7,-5.8 7.8,-9.3 5,-23.5 -5.5,-28.3 -4.1,-1.8 -10.6,-1.9 -246.2,-1.9 -235.6,0 -242.1,0.1 -246.2,1.9 z" />
  <path style="fill:#a0a0a0;fill-opacity:1;stroke:none" inkscape:connector-curvature="0" id="path8-2" d="m 503.83927,218.87194 c -56.1,5.4 -107.8,36.4 -139.4,83.5 l -7.4,11.1 -14.3,0.6 c -29.2,1.2 -55.8,10.7 -79.3,28.3 -9.3,7 -25.7,24.1 -31.7,33.2 -10.7,16 -18.2,33.6 -22.2,52.2 -2.4,11.3 -3,36.3 -1.1,48.5 4.8,31.3 17.9,57.1 40.5,79.6 20.8,20.7 42.1,32.3 71.6,39.2 9,2.1 10,2.1 200.5,2.5 212.8,0.3 200.9,0.6 221.9,-6.4 42.2,-14 73.4,-50.8 81.2,-95.4 1.8,-10.4 1.6,-30.6 -0.5,-41.2 -8,-41.4 -35.1,-74.9 -73.4,-90.7 -10.3,-4.3 -26.3,-8.1 -36.8,-8.8 l -9.1,-0.6 -2.3,-7.1 c -10,-31.3 -31.1,-62.3 -57.3,-84.3 -39.3,-33 -90.6,-49 -140.9,-44.2 z m 30.1,60 c 44.7,4.2 83.7,30.6 103.8,70.4 4.1,8 8.7,19.6 8.1,20 -8.1,4.8 -18.4,12.5 -20.7,15.4 -13.3,16.7 -6.1,40.6 14.2,47.5 9.5,3.2 17.3,1.6 29.4,-6.1 14.4,-9.1 25.1,-12 39.9,-11 25.6,1.8 48.3,20.6 54.9,45.3 1.9,7.1 2.1,22.9 0.5,29.9 -4.1,17.1 -16.5,32.7 -32.1,40.4 -15.5,7.6 -1,7.2 -210.2,6.9 l -187.2,-0.3 -7.5,-2.3 c -22.8,-7 -40.8,-22.1 -51,-42.7 -6.1,-12.2 -7.9,-19 -8.7,-31.7 -2.2,-35.8 18.3,-67.7 52.2,-81.3 19.9,-7.9 45.9,-6.9 64.8,2.7 12.9,6.5 19.1,11.8 35.1,30.3 6.3,7.2 11.1,9.7 20.2,10.3 12.9,0.8 23.4,-5.1 28.9,-16.1 5.3,-10.9 4.1,-21 -3.7,-32.8 -6.3,-9.6 -25.7,-28.4 -36.8,-35.8 -5.2,-3.5 -9.7,-6.5 -9.9,-6.7 -1.4,-1.3 13.3,-17.1 23.4,-24.9 23.3,-18.1 45.7,-26.2 78.5,-28.3 1.4,-0.1 7.6,0.3 13.9,0.9 z" />
  <path style="fill:#ba381a;fill-opacity:1;stroke:none" sodipodi:nodetypes="ssccccccssscccsscccccccscscccsccccsscccccscccscssssscccccsccccsscsscccccscccsccccccccccscscscsccccccccccss" inkscape:connector-curvature="0" id="path14-9" d="m 761.50043,129.06168 c -36.56586,59.09144 -74.53366,120.25239 -119.89996,186.19999 -8.545,12.4216 -9.2,16.1 -6.9,20.9 1.3,2.7 2.8,3.9 5.7,4.9 3,1 30.3,1.2 129.69996,1 125.4,-0.3 125.8,-0.3 128.5,-2.4 3.3,-2.4 4.6,-6.3 3.4,-10.3 -1.2,-4.2 -123.7,-194.99999 -127.6,-198.89999 -3.9,-3.7 -10.02124,-6.05217 -12.9,-1.4 z m 9.3,76.4 c 0.8,0.8 1.2,4.8 1.2,11.2 l 0,9.99999 6.4,-6.29999 c 5.6,-5.5 6.7,-6.2 8,-5.1 0.9,0.7 1.6,1.7 1.6,2.4 0,0.6 -3.6,4.7 -8,9.09999 l -8.1,8.1 0.3,10.6 0.3,10.7 8.5,-4.8 8.5,-4.8 1.7,-5.9 c 0.9,-3.3 2.4,-8.5 3.3,-11.7 1.4,-4.89999 2,-5.69999 4.1,-5.69999 3,0 3.1,2.1 0.4,10.99999 -1.1,3.6 -2,6.6 -2,6.7 0,1 3.2,-0.3 10.2,-4.3 7.2,-4.1 8.2,-4.4 9.6,-3.1 2.4,2.5 0.9,4.2 -7.7,8.8 -4.5,2.3 -8.1,4.6 -8.1,5 0,0.4 2.6,1.5 5.8,2.4 3.1,0.8 6.7,2 8,2.5 2.2,1 3,4.4 1.2,5.5 -0.5,0.3 -5.6,-0.8 -11.4,-2.5 -5.7,-1.6 -11.1,-3 -12,-3 -1.8,0 -17.6,8.2 -17.6,9.1 0,0.4 3.9,2.7 8.8,5.2 l 8.7,4.5 11.5,-3.5 c 10.7,-3.3 11.5,-3.4 12.7,-1.7 1.9,2.6 0,4.1 -8.3,6.6 -4.1,1.1 -7.4,2.4 -7.4,2.7 0,0.4 3.7,2.7 8.2,5.1 5.1,2.8 8.4,5.2 8.6,6.4 0.8,3.8 -2.2,3.6 -10.7,-0.9 -4.6,-2.5 -8.7,-4.5 -9.1,-4.5 -0.5,0 0.3,3.7 1.7,8.1 2.2,7.4 2.3,8.3 0.9,9.7 -1.4,1.4 -1.8,1.4 -3,0.2 -1.1,-1.1 -7.6,-20.5 -7.6,-22.5 0,-0.4 -16.7,-9.5 -17.4,-9.5 -0.3,0 -0.6,4.6 -0.6,10.2 l 0,10.2 8.1,8.2 c 8.1,8.3 9.5,11.5 5.5,12.2 -1.2,0.3 -3.9,-1.6 -7.7,-5.4 l -5.9,-5.8 0,9.4 c 0,10.5 -0.9,13.2 -3.7,11.4 -1.5,-0.9 -1.9,-2.9 -2.3,-10.7 l -0.5,-9.7 -6.2,5.5 c -6.2,5.6 -10.3,7.1 -10.3,3.7 0,-0.9 3.8,-5.5 8.5,-10.2 l 8.5,-8.5 0,-10.2 c 0,-5.7 -0.2,-10.3 -0.6,-10.3 -0.3,0 -4.5,2.1 -9.4,4.7 l -8.8,4.8 -3.39996,10.9 c -3.6,11.5 -5.6,14.2 -8.3,11.6 -1.3,-1.4 -1.2,-2.4 1,-9.5 1.3,-4.4 2.3,-8.1 2.1,-8.3 -0.2,-0.2 -4.1,1.8 -8.7,4.3 -8.8,4.8 -11.2,5.3 -11.7,2 -0.2,-1.7 1.4,-3 8.3,-6.8 4.7,-2.6 8.5,-5 8.5,-5.2 0,-0.3 -3.3,-1.4 -7.2,-2.6 -8.6,-2.5 -10.7,-4.1 -8.8,-6.3 1.7,-2.1 2.4,-2.1 14.5,1.5 l 10.4,3.1 8.69996,-4.8 c 10,-5.4 10.1,-4.9 -2,-11.1 l -6.99996,-3.5 -10.5,3.1 c -12.2,3.6 -13.7,3.7 -14.5,1.4 -1,-2.5 1.1,-3.9 9.3,-6.3 4,-1.2 7,-2.5 6.5,-3 -0.5,-0.5 -4.4,-2.7 -8.6,-5 -5.6,-3 -7.8,-4.7 -7.8,-6.1 0,-3.5 2.8,-3.2 11.5,1.4 5.5,3 8.5,4.1 8.5,3.2 0,-0.7 -0.9,-4.3 -2.1,-8 -2.2,-7.29999 -2,-9.49999 0.9,-9.49999 2.8,0 3.5,1.3 7.2,13.09999 l 3.19996,10.6 9.4,4.6 9.4,4.7 0,-10.8 0,-10.8 -8.5,-7.8 c -8.3,-7.59999 -10.1,-10.79999 -6.9,-11.99999 1.2,-0.4 3.9,1.3 8.5,5.5 l 6.9,6.1 0,-9.2 c 0,-11.2 1.6,-15 4.8,-11.8 z" />
  <path style="fill:#ffffff;fill-opacity:1;stroke:none" d="m 767.99795,316.78027 c -1.01647,-1.1232 -1.9038,-8.05107 -1.93024,-15.0704 -0.008,-2.14511 -0.2584,-4.0508 -0.55624,-4.23488 -0.29787,-0.18408 -1.82328,0.86052 -3.38984,2.32129 -6.49912,6.06035 -11.24123,9.02763 -12.46752,7.80135 -1.03188,-1.03188 0.48376,-3.04344 8.67008,-11.50692 l 7.7288,-7.99052 0,-10.27332 c 0,-5.65032 -0.16272,-10.43603 -0.36159,-10.63488 -0.42865,-0.42868 -16.8658,8.00272 -18.15364,9.31188 -0.48845,0.49656 -2.04021,4.56384 -3.44839,9.0384 -2.5681,8.1608 -4.0193,11.65588 -5.5735,13.42372 -1.0273,1.1686 -1.4383,1.18436 -2.5258,0.0969 -1.201,-1.201 -1.0737,-2.81923 0.7162,-9.10067 2.2544,-7.91152 2.3606,-8.48861 1.5604,-8.48213 -0.3785,0.003 -4.32,1.83357 -8.7587,4.06777 -4.4387,2.23424 -8.5183,4.06224 -9.0657,4.06224 -0.5473,0 -1.2519,-0.47972 -1.5657,-1.06604 -0.8537,-1.59512 1.4319,-3.74784 7.8544,-7.39797 6.7263,-3.82275 8.4985,-5.05039 8.1366,-5.63603 -0.1556,-0.25176 -3.2828,-1.45748 -6.9493,-2.67936 -9.0583,-3.01868 -10.3992,-4.07028 -7.9808,-6.25892 1.405,-1.27152 3.1123,-0.98508 14.7784,2.47956 l 9.1686,2.72292 7.15205,-3.88424 c 3.93363,-2.13636 7.60475,-4.31832 8.158,-4.84884 1.94675,-1.86676 0.76683,-2.98028 -7.68017,-7.248 l -7.96988,-4.02668 -8.9491,2.66696 c -5.5597,1.65684 -10.1817,2.71208 -12.2034,2.7862 -3.1629,0.11592 -3.2589,0.0783 -3.4226,-1.33832 -0.2196,-1.90168 0.8309,-2.55552 8.1427,-5.0684 3.1928,-1.0972 6.2436,-2.32028 6.7797,-2.71789 0.9318,-0.69107 0.9269,-0.75895 -0.11,-1.53899 -0.5966,-0.4488 -3.2904,-2.03924 -5.9862,-3.53428 -7.2078,-3.99728 -9.5743,-5.83345 -9.3698,-7.27024 0.3197,-2.247 2.6927,-1.79861 10.7026,2.02224 7.1195,3.39612 9.2636,4.11752 9.2636,3.11683 0,-0.24659 -0.7265,-3.03547 -1.6143,-6.19752 -2.2448,-7.9944 -2.4845,-9.78415 -1.4276,-10.66128 1.4053,-1.16631 3.4514,-0.26619 4.6252,2.0348 0.5798,1.13649 2.3781,6.31904 3.9962,11.51677 l 2.94192,9.45044 9.43421,4.64739 9.4342,4.64737 0.14719,-10.85668 0.14716,-10.85668 -7.84548,-7.6212 c -4.315,-4.19169 -8.0712,-8.2314 -8.34708,-8.97716 -1.23108,-3.32776 1.35976,-3.6352 5.13764,-0.60964 1.44376,1.15623 4.45549,3.7046 6.6928,5.66307 l 4.06777,3.56085 0.40795,-8.51056 c 0.4644,-9.68792 0.8484,-11.95501 2.16564,-12.78591 0.71892,-0.45348 1.15041,-0.36894 1.89081,0.37044 0.83471,0.83354 0.98131,2.25911 1.12847,10.97386 0.093,5.50872 0.29741,10.01589 0.4542,10.01589 0.1568,0 2.76544,-2.34124 5.79696,-5.20272 6.55088,-6.18336 7.5112,-6.75472 9.03513,-5.37557 0.59783,0.54101 1.08695,1.20537 1.08695,1.47637 0,0.271 -3.6242,4.19927 -8.05379,8.72951 l -8.05377,8.23681 0.2586,10.98304 c 0.14224,6.04068 0.34557,10.98304 0.45188,10.98304 0.10629,0 4.0614,-2.19369 8.78908,-4.87489 l 8.59581,-4.87491 3.093,-10.69672 c 1.70116,-5.8832 3.48835,-11.1336 3.97151,-11.66749 1.08384,-1.19764 2.5176,-1.24723 3.45356,-0.11947 0.58924,0.71 0.4106,1.99263 -1.07652,7.72884 -2.55171,9.84244 -2.47256,9.3182 -1.40692,9.3182 0.51072,0 4.57988,-1.88168 9.04261,-4.18152 8.44296,-4.351 9.02968,-4.4696 10.458,-2.11357 0.78328,1.29189 -1.51608,3.20305 -8.91288,7.40817 -3.13224,1.78068 -6.16869,3.60107 -6.74773,4.04532 -1.02723,0.78808 -1.02808,0.8258 -0.0356,1.55148 0.55944,0.40908 3.89413,1.63267 7.41045,2.71908 6.51664,2.01347 7.50848,2.69987 7.50848,5.19648 0,0.6256 -0.31992,1.2602 -0.71096,1.41024 -0.39104,0.15008 -4.4792,-0.72269 -9.0848,-1.93945 -4.60549,-1.21679 -9.88781,-2.49315 -11.7384,-2.83639 l -3.36469,-0.62408 -7.21156,3.64236 c -3.96639,2.00332 -7.82176,4.11332 -8.56752,4.68892 -1.34159,1.03544 -1.34444,1.05523 -0.2712,1.8678 1.49552,1.13228 15.2234,8.4936 16.4258,8.80804 0.53657,0.14032 5.44224,-1.10244 10.90148,-2.76168 5.45921,-1.65921 10.62681,-3.01677 11.48361,-3.01677 1.47056,0 2.68064,1.20172 2.68064,2.66228 0,0.87185 -2.94928,2.27781 -9.76272,4.65397 -3.43049,1.1964 -6.23117,2.41932 -6.22372,2.71764 0.007,0.29831 3.22384,2.49492 7.14748,4.88136 8.23288,5.00736 9.48872,6.03211 9.26928,7.56328 -0.274,1.91095 -3.36088,1.1206 -11.73232,-3.00376 -4.27708,-2.1072 -7.917,-3.69081 -8.08868,-3.51912 -0.17168,0.17168 0.59244,3.74876 1.69807,7.94912 2.0656,7.84748 2.10884,9.31628 0.30268,10.28291 -0.87908,0.47048 -1.21408,0.28181 -2.10704,-1.18655 -1.12127,-1.84376 -7.07931,-19.22472 -7.07931,-20.65192 0,-0.45968 -1.64745,-1.80208 -3.66101,-2.98312 -7.10764,-4.16896 -14.15808,-7.76344 -14.41084,-7.34697 -0.14072,0.23185 -0.43428,4.8714 -0.65236,10.31009 l -0.39655,9.88852 6.98411,7.23416 c 7.121,7.37596 9.31792,10.39364 8.71345,11.9688 -0.71213,1.85587 -2.98441,0.96775 -7.28521,-2.84744 -2.31376,-2.05248 -4.92368,-4.49316 -5.79984,-5.42372 -0.87615,-0.93056 -1.7914,-1.69192 -2.03388,-1.69192 -0.24252,0 -0.44228,3.84408 -0.44392,8.54239 -0.004,11.43565 -0.90076,14.42233 -3.47576,11.57697 l 0,0 z" id="path2986-0" inkscape:connector-curvature="0" />
</svg>
