<?xml version="1.0" encoding="UTF-8" standalone="no"?>
<svg xmlns:dc="http://purl.org/dc/elements/1.1/" xmlns:cc="http://creativecommons.org/ns#" xmlns:rdf="http://www.w3.org/1999/02/22-rdf-syntax-ns#" xmlns:svg="http://www.w3.org/2000/svg" xmlns="http://www.w3.org/2000/svg" xmlns:sodipodi="http://sodipodi.sourceforge.net/DTD/sodipodi-0.dtd" xmlns:inkscape="http://www.inkscape.org/namespaces/inkscape" version="1.0" width="1024.000000pt" height="1024.000000pt" viewBox="0 0 1024.000000 1024.000000" preserveAspectRatio="xMidYMid meet" id="svg2" inkscape:version="0.48.2 r9819" sodipodi:docname="9999992.png.svg">
  <defs id="defs12" />
  <sodipodi:namedview pagecolor="#3c3c3c" bordercolor="#666632" borderopacity="1" objecttolerance="10" gridtolerance="10" guidetolerance="10" inkscape:pageopacity="0" inkscape:pageshadow="2" inkscape:window-width="1648" inkscape:window-height="1218" id="namedview10" showgrid="false" inkscape:zoom="1.4142136" inkscape:cx="859.07748" inkscape:cy="479.59509" inkscape:window-x="836" inkscape:window-y="56" inkscape:window-maximized="0" inkscape:current-layer="svg2" />
  <metadata id="metadata4">
Created by potrace 1.11, written by Peter Selinger 2001-2013
<rdf:RDF>
  <cc:Work rdf:about="">
    <dc:format>image/svg+xml</dc:format>
    <dc:type rdf:resource="http://purl.org/dc/dcmitype/StillImage" />
  </cc:Work>
</rdf:RDF>
</metadata>
  <path inkscape:connector-curvature="0" style="fill:#ba381a;fill-opacity:1;stroke:none" id="path8" d="m 305.8,374.2 -87.7,79.3 0,190.7 -0.1,190.8 14,0 14,0 0.2,-176.5 0.3,-176.5 44.5,43.2 c 24.5,23.7 57.6,55.9 73.6,71.4 l 29.1,28.4 42.9,-16.1 42.9,-16 36,-5.5 c 27.5,-4.1 47.4,-7.9 84,-15.9 26.4,-5.7 64,-13.6 83.5,-17.4 19.5,-3.9 52.3,-10.5 72.8,-14.7 l 37.2,-7.7 -0.2,-75.6 -0.3,-75.5 -38.5,-7.8 c -21.2,-4.2 -40.9,-7.7 -41.8,-7.8 -1.7,0 -0.2,2.9 -0.2,46.5 l 0.1,46.5 -36.1,0 -36,0 0,-53.3 0,-53.3 -43.2,-8.5 -43.3,-8.5 -0.3,61.8 -0.2,61.8 -36,0 -36,0 0,-67.3 0,-67.3 -43.2,-14.2 C 414,301.4 394.3,295 394,295 c -0.3,0 -40,35.7 -88.2,79.2 z m 87,156.1 -0.3,70.3 -75,-71.7 c -41.2,-39.5 -75,-72.2 -75,-72.7 0,-0.5 33.8,-31.6 75,-69.1 l 75,-68.2 0.3,70.5 c 0.1,38.9 0.1,102.2 0,140.9 z" sodipodi:nodetypes="ccccccccccccccccccccccsccccccccccccccsccccscccc" />
  <path transform="scale(0.8,0.8)" style="fill:#d9dadb;fill-opacity:1;stroke:none" d="m 601.26215,572.32841 90.11655,0.14017 0.022,154.54917 -89.41913,13.72558 z" id="rect3122" inkscape:connector-curvature="0" sodipodi:nodetypes="ccccc" />
  <path transform="scale(0.8,0.8)" style="fill:#d9dadd;fill-opacity:1;stroke:none" d="M 798.875,572.625 890.5,572.25 890,685.25 799.75,704 z" id="rect3125" inkscape:connector-curvature="0" sodipodi:nodetypes="ccccc" />
  <path transform="scale(0.8,0.8)" style="fill:#ffffff;fill-opacity:1;stroke:none" d="m 601.17987,404.28262 90.72595,13.71875 -0.5625,154.51688 -90.1322,-0.21875 z" id="rect2984" inkscape:connector-curvature="0" sodipodi:nodetypes="ccccc" />
  <path transform="scale(0.8,0.8)" style="fill:#ffffff;fill-opacity:1;stroke:none" d="m 798.75,439.00003 91.5,17.25 0.25,116.5 -91.5,0 z" id="rect2987" inkscape:connector-curvature="0" sodipodi:nodetypes="ccccc" />
</svg>
