<?xml version="1.0" encoding="UTF-8" standalone="no"?>
<svg xmlns:dc="http://purl.org/dc/elements/1.1/" xmlns:cc="http://creativecommons.org/ns#" xmlns:rdf="http://www.w3.org/1999/02/22-rdf-syntax-ns#" xmlns:svg="http://www.w3.org/2000/svg" xmlns="http://www.w3.org/2000/svg" xmlns:sodipodi="http://sodipodi.sourceforge.net/DTD/sodipodi-0.dtd" xmlns:inkscape="http://www.inkscape.org/namespaces/inkscape" version="1.0" width="1024.000000pt" height="1024.000000pt" viewBox="0 0 1024.000000 1024.000000" preserveAspectRatio="xMidYMid meet" id="svg2" inkscape:version="0.48.5 r10040" sodipodi:docname="9299982.svg">
  <defs id="defs18" />
  <sodipodi:namedview pagecolor="#ffffff" bordercolor="#666666" borderopacity="1" objecttolerance="10" gridtolerance="10" guidetolerance="10" inkscape:pageopacity="0" inkscape:pageshadow="2" inkscape:window-width="640" inkscape:window-height="480" id="namedview16" showgrid="false" inkscape:zoom="0.184375" inkscape:cx="640" inkscape:cy="640" inkscape:window-x="1918" inkscape:window-y="725" inkscape:window-maximized="0" inkscape:current-layer="svg2" />
  <metadata id="metadata4">
Created by potrace 1.11, written by Peter Selinger 2001-2013
<rdf:RDF>
  <cc:Work rdf:about="">
    <dc:format>image/svg+xml</dc:format>
    <dc:type rdf:resource="http://purl.org/dc/dcmitype/StillImage" />
  </cc:Work>
</rdf:RDF>
</metadata>
  <path style="fill:#e6b85c;fill-opacity:0.94117647;stroke:none" inkscape:connector-curvature="0" id="path28" d="m 679.12856,696.70137 c -45,5.8 -79,41.6 -82.8,87 -0.8,8.9 0.4,13.5 4.8,18.4 5.9,6.8 17,8.3 24.2,3.5 5.8,-4.1 7.8,-8 8.8,-18.2 1.6,-16.6 7.1,-28.2 18.1,-38.4 22.4,-21 56.9,-20.3 78.7,1.6 11.1,11.1 16,23.2 16,39.5 0,15.8 -5,27.8 -16.4,39 -3.9,3.9 -9.8,8.5 -13.2,10.2 -12.8,6.8 4.5,6.3 -234.4,6.3 -241.7,0 -223.6,-0.5 -230.3,6.9 -8.3,9.2 -5.3,24.2 5.7,29.2 4,1.8 11.4,1.9 223.1,1.9 209.6,0 219.4,-0.1 228,-1.9 37.9,-7.8 66.4,-36.3 74,-74 2.3,-11.1 1.6,-32.5 -1.3,-42.1 -5.3,-17.5 -13.3,-31 -25.4,-42.6 -15.6,-15.1 -33.6,-23.6 -55.8,-26.4 -9.4,-1.1 -12.7,-1.1 -21.8,0.1 z" />
  <path style="fill:#e6b85c;fill-opacity:0.94117647;stroke:none" inkscape:connector-curvature="0" id="path30" d="m 308.12856,698.70137 c -15.5,7.7 -12.3,30.9 4.8,34.8 6.5,1.5 244.1,1.5 251.1,0 3.4,-0.7 6.4,-2.3 9,-4.6 9.6,-8.7 7.2,-25.1 -4.5,-30.4 -3.9,-1.8 -9.2,-1.9 -130.1,-1.9 l -126,0 -4.3,2.1 z" />
  <path style="fill:#e6b85c;fill-opacity:0.94117647;stroke:none" inkscape:connector-curvature="0" id="path32" d="m 282.72856,773.60137 c -10.7,5.7 -13.1,20 -4.9,29.4 0.9,1 3.3,2.7 5.3,3.7 3.7,1.9 7.6,1.9 134.2,1.7 l 130.4,-0.3 3.9,-3.1 c 5,-4 7.3,-8.7 7.3,-14.9 0,-6.2 -2.3,-10.9 -7.3,-14.9 l -3.9,-3.1 -130.6,-0.2 c -128.1,-0.2 -130.8,-0.2 -134.4,1.7 z" />
  <path style="fill:#a0a0a0;fill-opacity:1;stroke:none" inkscape:connector-curvature="0" id="path8-5" d="m 495.37109,208.01255 c -59.64462,5.64686 -114.61124,38.06401 -148.20786,87.31719 l -7.86756,11.60743 -15.20353,0.62743 c -31.04497,1.25486 -59.32567,11.18914 -84.31049,29.59371 -9.88762,7.32001 -27.32383,25.20173 -33.70294,34.71773 -11.37607,16.73143 -19.34995,35.13601 -23.60269,54.5863 -2.55164,11.81658 -3.18955,37.95944 -1.1695,50.71716 5.10329,32.73087 19.031,59.7103 43.05896,83.23888 22.11422,21.6463 44.76005,33.77658 76.12397,40.99202 9.56866,2.196 10.63185,2.196 213.16841,2.61428 226.24557,0.31372 213.59368,0.62743 235.92055,-6.69257 44.86637,-14.64001 78.0377,-53.1223 86.33053,-99.76118 1.91373,-10.87543 1.7011,-31.99886 -0.53159,-43.08344 -8.50547,-43.29258 -37.31775,-78.32402 -78.0377,-94.84631 -10.95079,-4.49658 -27.96174,-8.47029 -39.12517,-9.20229 l -9.67498,-0.62743 -2.44532,-7.42457 C 695.46234,309.65603 673.02916,277.23887 645.17373,254.23314 603.3906,219.72455 548.84925,202.99312 495.37109,208.01255 z m 32.00184,62.74289 c 47.52433,4.392 88.98852,31.99887 110.35852,73.6183 4.35905,8.36572 9.2497,20.49601 8.61179,20.9143 -8.61179,5.01943 -19.56259,13.07143 -22.00791,16.104 -14.14035,17.46344 -6.48543,42.45601 15.09721,49.67145 10.10025,3.34628 18.39308,1.67314 31.25761,-6.37886 15.30985,-9.51601 26.68592,-12.54858 42.42105,-11.50286 27.21751,1.88228 51.35178,21.54172 58.3688,47.37087 2.02005,7.42457 2.23269,23.94686 0.53159,31.26686 -4.35905,17.88172 -17.54254,34.19487 -34.12821,42.24687 -16.47935,7.94744 -1.06318,7.52915 -223.48129,7.21544 l -199.02806,-0.31372 -7.97388,-2.40514 c -24.2406,-7.32 -43.37791,-23.1103 -54.22239,-44.65202 -6.48542,-12.75771 -8.39915,-19.86857 -9.2497,-33.14915 -2.339,-37.43658 19.45627,-70.79488 55.49821,-85.0166 21.15736,-8.26114 48.80015,-7.21543 68.89433,2.82343 13.71507,6.79715 20.30681,12.33943 37.31776,31.68515 6.69806,7.52915 11.80134,10.14344 21.47632,10.77087 13.71507,0.83657 24.8785,-5.33315 30.72601,-16.83601 5.63488,-11.39829 4.35906,-21.96001 -3.93378,-34.29944 -6.69806,-10.03886 -27.32383,-29.69829 -39.12517,-37.43658 -5.52856,-3.66 -10.31289,-6.79715 -10.52552,-7.00629 -1.48846,-1.35943 14.14035,-17.88171 24.8785,-26.03828 24.77219,-18.92745 48.58752,-27.39774 83.45995,-29.59374 1.48846,-0.10457 8.0802,0.31372 14.77826,0.94115 z" />
  <path inkscape:connector-curvature="0" style="fill:#ba381a;fill-opacity:1;stroke:none" id="path8-1" d="m 560.81688,220.77467 -61.89028,56.99844 0,137.06936 -0.0711,137.14125 9.87982,0 9.87984,0 0.14123,-126.86284 0.21165,-126.86284 31.4038,31.05084 c 17.28974,17.03484 40.64852,40.17923 51.93976,51.32016 l 20.53601,20.41307 30.27471,-11.5722 30.27472,-11.50031 25.40529,-3.95324 c 19.40691,-2.94696 33.4504,-5.67827 59.27912,-11.42843 18.6306,-4.09698 45.16507,-9.77527 58.9263,-12.50661 13.76121,-2.80319 36.90831,-7.54708 51.37521,-10.56591 l 26.25219,-5.53452 -0.14115,-54.33899 -0.21169,-54.2671 -27.1696,-5.60641 c -14.96089,-3.01883 -28.86327,-5.53452 -29.49839,-5.60639 -1.19971,0 -0.14114,2.08442 -0.14114,33.42277 l 0.0706,33.4228 -25.47592,0 -25.40527,0 0,-38.31042 0,-38.31043 -30.48648,-6.10953 -30.55692,-6.10956 -0.21179,44.41997 -0.14109,44.41997 -25.40531,0 -25.40541,0 0,-48.3732 0,-48.3732 -30.48636,-10.20651 c -16.79576,-5.60641 -30.69816,-10.20653 -30.90982,-10.20653 -0.21177,0 -28.22823,25.66007 -62.24306,56.92654 z m 61.39619,112.19993 -0.21167,50.52952 -52.92787,-51.53579 c -29.07497,-28.3914 -52.92775,-51.89516 -52.92775,-52.25456 0,-0.35937 23.85278,-22.71309 52.92775,-49.66696 l 52.92787,-49.02009 0.21167,50.67325 c 0.0711,27.96015 0.0711,73.45826 0,101.27463 z" sodipodi:nodetypes="ccccccccccccccccccccccsccccccccccccccsccccscccc" />
</svg>
