<?xml version="1.0" encoding="UTF-8" standalone="no"?>
<svg xmlns:dc="http://purl.org/dc/elements/1.1/" xmlns:cc="http://creativecommons.org/ns#" xmlns:rdf="http://www.w3.org/1999/02/22-rdf-syntax-ns#" xmlns:svg="http://www.w3.org/2000/svg" xmlns="http://www.w3.org/2000/svg" xmlns:sodipodi="http://sodipodi.sourceforge.net/DTD/sodipodi-0.dtd" xmlns:inkscape="http://www.inkscape.org/namespaces/inkscape" version="1.0" width="1024.000000pt" height="1024.000000pt" viewBox="0 0 1024.000000 1024.000000" preserveAspectRatio="xMidYMid meet" id="svg2" inkscape:version="0.48.5 r10040" sodipodi:docname="9399949.svg">
  <defs id="defs26" />
  <sodipodi:namedview pagecolor="#ffffff" bordercolor="#666666" borderopacity="1" objecttolerance="10" gridtolerance="10" guidetolerance="10" inkscape:pageopacity="0" inkscape:pageshadow="2" inkscape:window-width="1014" inkscape:window-height="602" id="namedview24" showgrid="false" inkscape:zoom="0.184375" inkscape:cx="640" inkscape:cy="640" inkscape:window-x="754" inkscape:window-y="66" inkscape:window-maximized="0" inkscape:current-layer="svg2" />
  <metadata id="metadata4">
Created by potrace 1.11, written by Peter Selinger 2001-2013
<rdf:RDF>
  <cc:Work rdf:about="">
    <dc:format>image/svg+xml</dc:format>
    <dc:type rdf:resource="http://purl.org/dc/dcmitype/StillImage" />
  </cc:Work>
</rdf:RDF>
</metadata>
  <path style="fill:#dcdcdc;stroke:none;fill-opacity:1" inkscape:connector-curvature="0" id="path8" d="m 502.8,224.1 c -56.1,5.4 -107.8,36.4 -139.4,83.5 l -7.4,11.1 -14.3,0.6 c -29.2,1.2 -55.8,10.7 -79.3,28.3 -9.3,7 -25.7,24.1 -31.7,33.2 -10.7,16 -18.2,33.6 -22.2,52.2 -2.4,11.3 -3,36.3 -1.1,48.5 4.8,31.3 17.9,57.1 40.5,79.6 20.9,20.7 42.4,32.5 71.6,39.2 8.3,1.9 12.9,2.1 62.6,2.4 l 53.6,0.4 15.5,-29.8 15.4,-29.8 -66.5,-0.5 c -65.6,-0.6 -66.7,-0.6 -74.1,-2.9 -22.7,-6.8 -40.8,-22 -51,-42.6 -6.1,-12.2 -7.9,-19 -8.7,-31.7 -2.2,-35.8 18.3,-67.7 52.2,-81.3 19.9,-7.9 45.9,-6.9 64.8,2.7 12.9,6.5 19.1,11.8 35.1,30.3 6.3,7.2 11.1,9.7 20.2,10.3 12.9,0.8 23.4,-5.1 28.9,-16.1 5.3,-10.9 4.1,-21 -3.7,-32.8 -6.3,-9.6 -25.7,-28.4 -36.8,-35.8 -5.2,-3.5 -9.7,-6.5 -9.9,-6.7 -1.4,-1.3 13.4,-17.1 23.4,-24.9 27.4,-21.2 58.5,-30.5 91.9,-27.4 45.1,4 84.1,30.4 104.3,70.4 4.1,8 8.7,19.6 8.1,20 -8.1,4.8 -18.4,12.5 -20.7,15.4 -13.3,16.7 -6.1,40.6 14.2,47.5 9.5,3.2 17.3,1.6 29.4,-6.1 14.4,-9.1 25.1,-12 39.9,-11 20.9,1.5 40,14 49.8,32.6 4.9,9.3 6.7,16.9 6.7,28.1 0.1,11.6 -1.1,17 -6.3,27.9 -6.9,14.5 -20.6,26 -37.8,31.7 -5,1.7 -11.2,1.9 -72.4,2.4 l -66.8,0.5 -14.9,29 c -8.2,15.9 -14.9,29.3 -14.9,29.7 0,0.5 36.3,0.8 80.8,0.8 89.7,0 90.7,-0.1 110.2,-6.6 42,-14 73.3,-50.8 81.1,-95.4 1.8,-10.4 1.6,-30.6 -0.5,-41.2 -8,-41.4 -35.1,-74.9 -73.4,-90.7 -10.3,-4.3 -26.3,-8.1 -36.8,-8.8 l -9.1,-0.6 -2.3,-7.1 c -10,-31.3 -31.1,-62.3 -57.3,-84.3 -39.3,-33 -90.6,-49 -140.9,-44.2 z" />
  <path style="fill:#ffdc00;stroke:none;fill-opacity:1" inkscape:connector-curvature="0" id="path10" d="m 505.6,519.2 c -3,6.2 -24.9,51.2 -48.9,100 -23.9,48.8 -43.3,88.8 -43.2,89 0.2,0.2 16,0 35.1,-0.4 19.2,-0.4 35,-0.6 35.1,-0.4 0.1,0.1 -9.6,22 -21.7,48.7 -12.1,26.6 -22.3,49.2 -22.6,50.1 -0.5,1.7 0.8,1.8 17.3,1.9 9.8,0.1 23.9,0.4 31.4,0.8 l 13.6,0.6 -17.3,38.4 c -9.6,21.2 -17.2,38.6 -17,38.8 0.2,0.2 21.3,-23.2 46.9,-51.9 l 46.6,-52.3 -29.4,-0.3 c -16.2,-0.1 -29.5,-0.6 -29.5,-1 0,-0.4 10.8,-24.6 23.9,-53.7 l 23.9,-53 -27.8,-0.5 -27.8,-0.5 41.9,-82 c 23,-45.1 41.9,-82.3 41.9,-82.8 0,-0.4 -15.1,-0.7 -33.6,-0.7 l -33.5,0 -5.3,11.2 z" />
  <path style="fill:#80d3ff;stroke:none;fill-opacity:1" inkscape:connector-curvature="0" id="path12" d="m 298.6,671 c -29.8,15.9 -44.2,26.9 -49.5,38 -3.5,7.4 -3.7,21 -0.4,28.1 6.3,13.8 22.3,22.5 36.5,20 16.2,-2.8 25.8,-12.8 29.9,-30.9 1.8,-8.3 2.8,-29.3 2.2,-47 -0.3,-9.4 -0.9,-17.2 -1.2,-17.2 -0.3,0 -8.2,4.1 -17.5,9 z m 0.4,31.1 c 0,18.4 -2.8,29.2 -8.6,33.8 -11.3,8.9 -27.5,0.1 -26.2,-14.1 0.6,-5.9 2.5,-8.7 10.1,-14.8 5.4,-4.5 22.3,-15 23.9,-15 0.4,0 0.8,4.5 0.8,10.1 z" />
  <path style="fill:#80d3ff;stroke:none;fill-opacity:1" inkscape:connector-curvature="0" id="path14" d="m 753.5,669.9 c -42.8,22.2 -55,34.2 -54.8,54.2 0.1,20.3 20.4,36.9 40.1,32.8 8.2,-1.6 14.3,-5 19.5,-10.9 9,-10 11.7,-23.6 11.6,-57.5 -0.1,-12.1 -0.4,-23 -0.7,-24.2 -0.7,-2.2 -1.2,-1.9 -15.7,5.6 z m -1.8,34.8 c -1,20.5 -3.4,28.1 -10.4,32.4 -10.6,6.6 -24.3,-1.1 -24.3,-13.5 0,-6.7 3.1,-11.5 11.3,-17.8 5.3,-3.9 22.4,-14.7 23.6,-14.8 0.2,0 0.1,6.2 -0.2,13.7 z" />
  <path style="fill:#ffdc00;stroke:none;fill-opacity:1" inkscape:connector-curvature="0" id="path16" d="m 333.2,725.7 -22.1,52.8 36,0.3 35.9,0.2 -27.1,54.3 c -14.9,29.8 -26.6,53.7 -26.1,53.2 0.6,-0.6 24.5,-34.1 53.1,-74.5 32.8,-46.3 51.6,-73.6 50.7,-73.8 -0.7,-0.2 -14.4,-0.6 -30.3,-1 l -29,-0.7 14.8,-31 c 8.2,-17.1 14.8,-31.3 14.9,-31.8 0,-0.4 -10.9,-0.7 -24.3,-0.7 l -24.3,0 -22.2,52.7 z" />
  <path style="fill:#ffdc00;stroke:none;fill-opacity:1" inkscape:connector-curvature="0" id="path18" d="m 580.5,676.2 c -0.7,1.8 -9.2,21.6 -18.8,44 l -17.5,40.8 38.9,0 38.9,0 -31.5,63 c -17.3,34.6 -31.3,63 -31.1,63 0.6,0 125,-160.7 125.4,-162 0.2,-0.6 -13.4,-1 -38.2,-1 -21.2,0 -38.6,-0.2 -38.6,-0.6 0,-0.3 4.1,-9.4 9.1,-20.2 5.1,-10.8 10.2,-22.1 11.5,-25 l 2.4,-5.2 -24.6,0 -24.5,0 -1.4,3.2 z" />
  <path style="fill:#80d3ff;stroke:none;fill-opacity:1" inkscape:connector-curvature="0" id="path20" d="m 204.6,768.6 c -40.7,21.3 -57.4,32.4 -70.6,46.8 -8.5,9.2 -12.4,19.8 -12.4,33.1 0,44.9 53.9,67.3 86.1,35.9 13.9,-13.6 19.3,-35.9 19.3,-79.9 0,-21 -1.1,-46.5 -1.9,-46.5 -0.3,0 -9.6,4.8 -20.5,10.6 z m -6.6,62.8 c -2.1,23.1 -5.6,31.9 -14.9,36.9 -6.2,3.4 -15.2,3.7 -21,0.7 -8.4,-4.2 -14.1,-14.6 -12.7,-23.1 1.8,-11.5 11,-20.2 38.6,-36.5 l 10.5,-6.3 0.3,8.2 c 0.2,4.5 -0.2,13.6 -0.8,20.1 z" />
  <path style="fill:#80d3ff;stroke:none;fill-opacity:1" inkscape:connector-curvature="0" id="path22" d="m 777,767.1 c -65.3,34 -84,51 -85.7,78.4 -1.5,23.3 12.8,43.9 35.6,51.3 6.5,2 8.9,2.3 17.1,1.9 11.2,-0.5 18.2,-2.9 27.3,-9.1 15.8,-10.8 22.3,-27.2 24.8,-62.2 1.1,-16.1 0.4,-69.4 -1,-69.4 -0.3,0 -8.5,4.1 -18.1,9.1 z m -8.9,59.9 c -2,27.8 -6.1,37.7 -17.3,42.4 -14.8,6.2 -31.8,-4.9 -31.8,-20.8 0.1,-12.2 8.7,-21.2 36.4,-37.8 l 13.1,-7.9 0.3,4.3 c 0.2,2.4 -0.1,11.3 -0.7,19.8 z" />
</svg>
