<?xml version="1.0" encoding="UTF-8" standalone="no"?>
<svg xmlns:dc="http://purl.org/dc/elements/1.1/" xmlns:cc="http://creativecommons.org/ns#" xmlns:rdf="http://www.w3.org/1999/02/22-rdf-syntax-ns#" xmlns:svg="http://www.w3.org/2000/svg" xmlns="http://www.w3.org/2000/svg" xmlns:sodipodi="http://sodipodi.sourceforge.net/DTD/sodipodi-0.dtd" xmlns:inkscape="http://www.inkscape.org/namespaces/inkscape" version="1.0" width="1024.000000pt" height="1024.000000pt" viewBox="0 0 1024.000000 1024.000000" preserveAspectRatio="xMidYMid meet" id="svg2" inkscape:version="0.48.2 r9819" sodipodi:docname="9299999.png.svg">
  <defs id="defs12" />
  <sodipodi:namedview pagecolor="#ffffff" bordercolor="#666666" borderopacity="1" objecttolerance="10" gridtolerance="10" guidetolerance="10" inkscape:pageopacity="0" inkscape:pageshadow="2" inkscape:window-width="837" inkscape:window-height="480" id="namedview10" showgrid="false" inkscape:zoom="0.184375" inkscape:cx="640" inkscape:cy="640" inkscape:window-x="336" inkscape:window-y="108" inkscape:window-maximized="0" inkscape:current-layer="svg2" />
  <metadata id="metadata4">
Created by potrace 1.11, written by Peter Selinger 2001-2013
<rdf:RDF>
  <cc:Work rdf:about="">
    <dc:format>image/svg+xml</dc:format>
    <dc:type rdf:resource="http://purl.org/dc/dcmitype/StillImage" />
  </cc:Work>
</rdf:RDF>
</metadata>
  <path style="fill:#cccccc;stroke:none;fill-opacity:1" inkscape:connector-curvature="0" id="path8" d="m 496.2,288.1 c -61.9,5.4 -117.9,38.8 -152.3,90.7 l -6.8,10.4 -11.9,0.3 c -41.5,1.2 -77.8,17.4 -106.8,47.8 -26.9,28.1 -41.4,64.5 -41.4,103.7 0,39.2 14.5,75.6 41.4,103.7 23.8,25 51.9,40 85.6,46 10,1.7 20.7,1.8 214,1.8 191.4,0 204,-0.1 212.3,-1.8 63,-12.8 106.7,-65.1 106.7,-127.7 0,-33.9 -12.5,-64.9 -35.9,-89.4 -15,-15.6 -31.4,-26.3 -50.6,-32.9 -11.9,-4.1 -18,-5.5 -32.1,-7 l -10.6,-1.2 -3.7,-10.5 c -7.1,-19.8 -15.3,-35.3 -28.4,-52.9 -31.3,-42.3 -80.6,-71.8 -133.2,-79.5 -13.4,-2 -33.7,-2.7 -46.3,-1.5 z m 50.8,67.7 c 41.4,10.9 73,36.9 91.5,75.5 3,6.2 5.7,12.7 6.1,14.4 0.6,3 0.3,3.3 -7.4,8.2 -10.2,6.6 -16.3,13.1 -19.1,20.4 -4.5,12.3 -1.7,24.4 7.8,33.8 6.7,6.6 13,9.1 22.6,9.1 7.4,-0.1 12.4,-2 22.5,-8.7 26.1,-17.4 60.7,-14 82.4,7.9 8.1,8.2 12.6,15.3 16.4,25.8 2.3,6.4 2.6,8.8 2.6,20.3 0.1,11.7 -0.2,13.8 -2.7,21 -7,19.7 -20.5,33.6 -40.5,41.4 l -6.7,2.6 -205,0 c -232,0 -209.4,0.8 -228,-8.5 -22.6,-11.3 -38.6,-30.7 -45.7,-55.5 -3.3,-11.5 -3.3,-33.4 0,-45 8.7,-30.7 32.7,-54.4 62.8,-62 12.7,-3.3 29.9,-3.4 42.2,-0.5 18.7,4.5 36.3,15.6 47.5,30 7.9,10.1 11.8,14 17.2,16.8 4.3,2.3 6.2,2.7 14,2.7 7.3,0 9.9,-0.5 13.6,-2.3 13.6,-6.7 21,-22.2 17.5,-36.4 -2.3,-8.9 -8.8,-18.1 -23.1,-32.4 -10.3,-10.3 -21.1,-18.7 -33.4,-26.1 -2.1,-1.3 21.4,-24.8 32.1,-32.1 18.1,-12.4 34.9,-18.9 60.8,-23.6 1.4,-0.2 11.1,-0.3 21.5,-0.2 17.4,0.3 19.9,0.6 30.5,3.4 z" />
</svg>
