<?xml version="1.0" encoding="UTF-8" standalone="no"?>
<svg xmlns:dc="http://purl.org/dc/elements/1.1/" xmlns:cc="http://creativecommons.org/ns#" xmlns:rdf="http://www.w3.org/1999/02/22-rdf-syntax-ns#" xmlns:svg="http://www.w3.org/2000/svg" xmlns="http://www.w3.org/2000/svg" xmlns:sodipodi="http://sodipodi.sourceforge.net/DTD/sodipodi-0.dtd" xmlns:inkscape="http://www.inkscape.org/namespaces/inkscape" version="1.0" width="1024.000000pt" height="1024.000000pt" viewBox="0 0 1024.000000 1024.000000" preserveAspectRatio="xMidYMid meet" id="svg2" inkscape:version="0.48.5 r10040" sodipodi:docname="9299991.svg">
  <defs id="defs12" />
  <sodipodi:namedview pagecolor="#ffffff" bordercolor="#666666" borderopacity="1" objecttolerance="10" gridtolerance="10" guidetolerance="10" inkscape:pageopacity="0" inkscape:pageshadow="2" inkscape:window-width="640" inkscape:window-height="480" id="namedview10" showgrid="false" inkscape:zoom="0.184375" inkscape:cx="640" inkscape:cy="640" inkscape:window-x="0" inkscape:window-y="0" inkscape:window-maximized="0" inkscape:current-layer="svg2" />
  <metadata id="metadata4">
Created by potrace 1.11, written by Peter Selinger 2001-2013
<rdf:RDF>
  <cc:Work rdf:about="">
    <dc:format>image/svg+xml</dc:format>
    <dc:type rdf:resource="http://purl.org/dc/dcmitype/StillImage" />
  </cc:Work>
</rdf:RDF>
</metadata>
  <path style="fill:#dcdcdc;fill-opacity:1;stroke:none" inkscape:connector-curvature="0" id="path10-0" d="m 498.28284,279.30323 c -61.31641,5.14829 -118.62601,40.43288 -152.38039,93.92483 l -6.19234,9.91984 -14.81307,0.75341 c -40.43241,1.88352 -76.00806,18.70962 -103.20585,48.59478 -20.64116,22.60225 -34.11862,50.22718 -39.09678,80.11234 -2.30696,13.81249 -2.30696,39.67947 0,53.74309 9.47064,55.50101 48.56745,102.46342 100.29177,120.29408 25.25509,8.78974 14.20599,8.41306 240.89455,8.03635 l 203.98329,-0.37673 11.77761,-3.39032 c 24.40514,-6.90625 41.52516,-17.45394 59.85938,-36.66584 17.48427,-18.45849 26.95492,-35.91242 33.51154,-61.77942 2.42837,-9.54316 2.79264,-14.18919 2.79264,-31.26641 0,-17.57949 -0.48569,-21.59768 -3.27831,-32.27094 -13.23463,-50.98062 -53.30278,-89.40439 -102.72016,-98.31971 -5.58525,-1.00453 -12.74895,-1.88352 -15.90584,-1.88352 l -5.70668,0 -4.00681,-11.67783 C 687.45305,367.57752 650.90602,324.88439 604.4027,300.52422 573.31953,284.32597 533.73707,276.41519 498.28284,279.30323 z m 37.39691,67.17884 c 47.71754,7.40852 88.99988,41.68854 107.21266,88.90209 1.69986,4.64602 3.03545,8.78977 2.7926,9.0409 -0.2428,0.25112 -4.73531,3.26475 -9.83488,6.78068 -14.81309,9.91985 -20.15549,19.71415 -18.81989,34.40558 1.69985,19.21191 19.79123,32.77325 37.88261,28.6295 3.64256,-0.87898 9.47065,-3.51589 12.99178,-6.02726 19.30557,-13.81246 38.61114,-17.07723 59.98081,-10.29656 19.79123,6.27837 38.24685,26.74598 42.86077,47.59024 1.82128,7.91078 1.57845,25.86698 -0.36426,33.2755 -5.58524,21.59768 -21.24824,38.92605 -42.49651,46.96241 l -8.62073,3.26475 -200.34072,0 c -225.83863,0 -205.68314,0.87897 -227.05283,-9.91987 -44.43921,-22.60221 -61.07357,-80.86573 -35.81849,-125.19123 12.02044,-21.09539 32.78302,-36.79139 55.60973,-42.06524 13.72031,-3.1392 35.57567,-2.00908 47.59611,2.63693 17.60571,6.52952 29.01905,15.82155 45.77481,36.66584 6.55661,8.1619 14.32741,12.05452 24.16229,12.05452 21.85538,0.12557 37.39695,-21.97438 30.23326,-43.0698 -5.09958,-14.94256 -31.32601,-42.94424 -51.23866,-54.74762 -2.18553,-1.25569 -4.00681,-2.63694 -4.00681,-3.01362 0,-1.63239 13.47745,-17.07726 20.15549,-22.97894 30.96175,-27.37379 70.90848,-39.17718 111.34086,-32.8988 z" />
  <path style="fill:#ba381a;fill-opacity:1;stroke:none" sodipodi:nodetypes="ssccccccssscccsscccccccscscccsccccsscccccscccscssssscccccsccccsscsscccccscccsccccccccccscscscsccccccccccss" inkscape:connector-curvature="0" id="path14" d="m 759.47595,120.92666 c -37.46522,63.40712 -76.36687,129.0349 -122.84897,199.79892 -8.75513,13.32879 -9.42628,17.27586 -7.06971,22.42641 1.33197,2.8972 2.86887,4.18484 5.8402,5.25787 3.07378,1.07304 31.04523,1.28764 132.89,1.07304 128.48424,-0.32191 128.89408,-0.32191 131.66049,-2.57529 3.38117,-2.57527 4.71314,-6.7601 3.48363,-11.05225 -1.22952,-4.50673 -126.74244,-209.24163 -130.73836,-213.42645 -3.99592,-3.97023 -10.26772,-6.49419 -13.21728,-1.50225 z m 9.52874,81.9798 c 0.81968,0.85843 1.22951,5.15055 1.22951,12.01798 l 0,10.73033 6.55741,-6.76011 c 5.73773,-5.90169 6.86478,-6.65282 8.19676,-5.47247 0.92215,0.75112 1.63935,1.82416 1.63935,2.57527 0,0.64382 -3.68854,5.04326 -8.19675,9.7646 l -8.29923,8.69159 0.30738,11.37415 0.30738,11.48147 8.70906,-5.15057 8.70906,-5.15055 1.74181,-6.33091 c 0.92214,-3.54101 2.45903,-9.12079 3.38116,-12.55449 1.43444,-5.25786 2.04919,-6.11629 4.20084,-6.11629 3.07379,0 3.17625,2.25337 0.40984,11.80337 -1.12705,3.86291 -2.04919,7.08202 -2.04919,7.18932 0,1.07303 3.27871,-0.32191 10.45087,-4.61405 7.37709,-4.39944 8.40168,-4.72134 9.83612,-3.3264 2.45903,2.68259 0.92213,4.50675 -7.88939,9.4427 -4.61067,2.46797 -8.29921,4.93596 -8.29921,5.36517 0,0.42922 2.66394,1.60955 5.94264,2.57528 3.17625,0.85843 6.86479,2.14607 8.19677,2.68258 2.25411,1.07304 3.07378,4.72135 1.22951,5.9017 -0.5123,0.32191 -5.73774,-0.85844 -11.68038,-2.68259 -5.8402,-1.71686 -11.37302,-3.21911 -12.29514,-3.21911 -1.84428,0 -18.03288,8.79889 -18.03288,9.76462 0,0.42921 3.99592,2.89719 9.01643,5.57977 l 8.91398,4.82865 11.78285,-3.75562 c 10.96316,-3.54101 11.78284,-3.6483 13.01236,-1.82415 1.94673,2.78989 0,4.39944 -8.50413,7.08202 -4.20085,1.18035 -7.58201,2.57529 -7.58201,2.89719 0,0.42922 3.791,2.8972 8.40167,5.47248 5.22544,3.0045 8.6066,5.57978 8.81152,6.86742 0.81968,4.07753 -2.25411,3.86292 -10.96317,-0.96573 -4.71314,-2.68258 -8.91398,-4.82866 -9.32381,-4.82866 -0.5123,0 0.30737,3.97024 1.74181,8.69159 2.2541,7.94045 2.35656,8.90617 0.92214,10.40842 -1.43444,1.50225 -1.84428,1.50225 -3.0738,0.21461 -1.12705,-1.18033 -7.78692,-21.9972 -7.78692,-24.14327 0,-0.42921 -17.11074,-10.19382 -17.82795,-10.19382 -0.30739,0 -0.61476,4.93595 -0.61476,10.94495 l 0,10.94495 8.29922,8.79888 c 8.29922,8.90617 9.73366,12.33989 5.63527,13.09101 -1.22951,0.32191 -3.99592,-1.71686 -7.88938,-5.79438 l -6.04511,-6.22361 0,10.08652 c 0,11.26686 -0.92214,14.16406 -3.791,12.2326 -1.53689,-0.96574 -1.94673,-3.1118 -2.35657,-11.48146 l -0.5123,-10.40844 -6.35249,5.90169 c -6.35249,6.00899 -10.55333,7.61854 -10.55333,3.97022 0,-0.96572 3.89346,-5.90169 8.70906,-10.94495 l 8.70906,-9.12078 0,-10.94495 c 0,-6.1163 -0.20492,-11.05225 -0.61476,-11.05225 -0.30738,0 -4.61068,2.25337 -9.6312,5.04326 l -9.01643,5.15056 -3.48363,11.69608 c -3.68854,12.33989 -5.73773,15.23708 -8.50414,12.44719 -1.33198,-1.50224 -1.22952,-2.57529 1.0246,-10.19382 1.33198,-4.72136 2.35657,-8.69158 2.15164,-8.90619 -0.20491,-0.21461 -4.20083,1.93147 -8.91397,4.61405 -9.01644,5.15057 -11.47547,5.68708 -11.98777,2.14607 -0.20492,-1.82416 1.43444,-3.21911 8.50414,-7.29663 4.81559,-2.7899 8.70906,-5.36518 8.70906,-5.57979 0,-0.3219 -3.38116,-1.50224 -7.37708,-2.78988 -8.81152,-2.68258 -10.96317,-4.39944 -9.01644,-6.76011 1.74182,-2.25337 2.45903,-2.25337 14.85664,1.60954 l 10.65578,3.32641 8.91398,-5.15056 c 10.24595,-5.79438 10.34841,-5.25787 -2.04919,-11.91068 l -7.17217,-3.75562 -10.75825,3.32641 c -12.50005,3.86291 -14.03695,3.97022 -14.85663,1.50225 -1.02459,-2.6826 1.12707,-4.18484 9.52874,-6.76012 4.09838,-1.28764 7.17216,-2.68258 6.65986,-3.21911 -0.51229,-0.53651 -4.50822,-2.89718 -8.81152,-5.36516 -5.73772,-3.2191 -7.99184,-5.04326 -7.99184,-6.54551 0,-3.75562 2.86888,-3.43372 11.78285,1.50225 5.63527,3.21909 8.70906,4.39944 8.70906,3.4337 0,-0.75112 -0.92213,-4.61405 -2.15165,-8.58427 -2.25411,-7.83313 -2.04919,-10.19381 0.92214,-10.19381 2.86886,0 3.58608,1.39494 7.37708,14.05674 l 3.27871,11.37416 9.63119,4.93595 9.6312,5.04326 0,-11.58877 0,-11.58876 -8.70906,-8.36967 c -8.50414,-8.15505 -10.34841,-11.58875 -7.06971,-12.8764 1.22951,-0.42921 3.99593,1.39494 8.70906,5.90169 l 7.06971,6.5455 0,-9.8719 c 0,-12.01797 1.63935,-16.09551 4.91806,-12.6618 z" />
  <path style="fill:#ffffff;fill-opacity:1;stroke:none" d="m 766.13329,322.3551 c -1.04147,-1.20523 -1.95064,-8.63908 -1.97773,-16.17106 -0.009,-2.30177 -0.26474,-4.34664 -0.56991,-4.54417 -0.30518,-0.19752 -1.86814,0.92334 -3.47322,2.49082 -6.65897,6.50296 -11.51768,9.68696 -12.77414,8.37112 -1.05726,-1.10725 0.49566,-3.26572 8.8833,-12.34734 l 7.91891,-8.57409 0,-11.02361 c 0,-6.06298 -0.16672,-11.19821 -0.37048,-11.41162 -0.43921,-0.45996 -17.28062,8.58722 -18.60014,9.992 -0.50048,0.5328 -2.09041,4.89713 -3.53317,9.69851 -2.63134,8.7568 -4.11818,12.50715 -5.71058,14.4041 -1.05262,1.25395 -1.47373,1.27087 -2.588,0.10399 -1.23053,-1.28872 -1.10004,-3.02512 0.73388,-9.76532 2.30985,-8.48932 2.41863,-9.10859 1.5988,-9.10164 -0.38788,0.003 -4.42627,1.96749 -8.97417,4.36488 -4.54793,2.39741 -8.72782,4.35891 -9.28865,4.35891 -0.56082,0 -1.28272,-0.51474 -1.60423,-1.14388 -0.87468,-1.71161 1.46709,-4.02158 8.04757,-7.9383 6.89169,-4.10191 8.70759,-5.41921 8.33674,-6.04762 -0.15943,-0.27016 -3.36354,-1.56394 -7.12027,-2.87505 -9.28104,-3.23915 -10.65494,-4.36757 -8.17706,-6.71603 1.43958,-1.36442 3.18884,-1.05703 15.1419,2.66064 l 9.39409,2.9218 7.32798,-4.16794 c 4.03037,-2.29237 7.79176,-4.63371 8.35863,-5.20298 1.99462,-2.00308 0.78568,-3.19792 -7.86906,-7.77735 l -8.16586,-4.32074 -9.16926,2.86171 c -5.69649,1.77787 -10.43208,2.91018 -12.50353,2.98969 -3.24072,0.12438 -3.33912,0.084 -3.50676,-1.43605 -0.22503,-2.04056 0.85128,-2.74217 8.343,-5.43856 3.27122,-1.17736 6.3971,-2.48974 6.94641,-2.91641 0.95469,-0.74153 0.94972,-0.81437 -0.11269,-1.65136 -0.61128,-0.48159 -3.37135,-2.18818 -6.13346,-3.79241 -7.38509,-4.28922 -9.80976,-6.25951 -9.60029,-7.80123 0.32755,-2.41109 2.75893,-1.92997 10.96589,2.16995 7.29459,3.64413 9.49142,4.41821 9.49142,3.34444 0,-0.26457 -0.74433,-3.25714 -1.65405,-6.65015 -2.30001,-8.57826 -2.54555,-10.4987 -1.46269,-11.43988 1.43988,-1.25149 3.53627,-0.28562 4.73901,2.18341 0.59404,1.21948 2.43653,6.78051 4.09441,12.35788 l 3.01432,10.14063 9.66625,4.9868 9.66624,4.98679 0.15079,-11.64959 0.15078,-11.64958 -8.03842,-8.17782 c -4.42114,-4.49778 -8.26971,-8.83255 -8.55239,-9.63277 -1.26136,-3.57079 1.39321,-3.90067 5.26401,-0.65415 1.47925,1.24067 4.56508,3.97515 6.85739,6.07665 l 4.16784,3.82089 0.41799,-9.13207 c 0.47581,-10.39547 0.86924,-12.82814 2.21889,-13.71972 0.73659,-0.48661 1.17871,-0.39589 1.93732,0.39748 0.85525,0.89442 1.00544,2.4241 1.15622,11.77532 0.0952,5.91104 0.30474,10.74736 0.46538,10.74736 0.16064,0 2.83344,-2.5122 5.93953,-5.58265 6.712,-6.63497 7.69594,-7.24805 9.25736,-5.76818 0.61251,0.58051 1.11367,1.29342 1.11367,1.5842 0,0.29078 -3.71334,4.50596 -8.25186,9.36705 l -8.25188,8.83835 0.26497,11.7852 c 0.14574,6.48185 0.35408,11.78517 0.46299,11.78517 0.10892,0 4.16129,-2.35392 9.00527,-5.23095 l 8.80723,-5.23093 3.16907,-11.47796 c 1.74299,-6.31286 3.57412,-11.94669 4.06918,-12.51957 1.1105,-1.28511 2.5795,-1.33832 3.5385,-0.1282 0.60374,0.76187 0.42069,2.13817 -1.10301,8.29329 -2.61444,10.56128 -2.53335,9.99876 -1.44152,9.99876 0.52328,0 4.69255,-2.01912 9.26503,-4.48692 8.65062,-4.66879 9.25177,-4.79604 10.71522,-2.26796 0.80255,1.38627 -1.55337,3.43699 -9.13209,7.94924 -3.20928,1.91071 -6.32041,3.86406 -6.91371,4.34075 -1.05248,0.84566 -1.05338,0.88613 -0.0365,1.66482 0.57319,0.43893 3.98991,1.75188 7.59271,2.91766 6.67692,2.1605 7.69315,2.89703 7.69315,5.576 0,0.67127 -0.32779,1.35223 -0.72844,1.51324 -0.40066,0.16102 -4.58937,-0.7755 -9.30825,-2.08112 -4.71878,-1.30564 -10.13102,-2.67521 -12.0271,-3.04353 l -3.44745,-0.66966 -7.38895,3.90838 c -4.06392,2.14962 -8.01414,4.41372 -8.77824,5.03136 -1.37456,1.11107 -1.37751,1.13229 -0.27786,2.00421 1.53231,1.21498 15.59783,9.11394 16.82979,9.45134 0.54979,0.15057 5.57611,-1.18295 11.16962,-2.96337 5.59348,-1.78041 10.88818,-3.23712 11.76606,-3.23712 1.50673,0 2.74656,1.28948 2.74656,2.85671 0,0.93555 -3.02181,2.44418 -10.00282,4.99389 -3.51489,1.28379 -6.38446,2.59602 -6.3768,2.91612 0.008,0.32009 3.30313,2.67713 7.32328,5.23787 8.43536,5.37307 9.72209,6.47264 9.49726,8.11566 -0.28075,2.0505 -3.44355,1.20245 -12.02088,-3.22314 -4.38229,-2.26111 -8.11172,-3.96039 -8.28763,-3.77616 -0.1759,0.18422 0.60701,4.02258 1.73981,8.52969 2.11642,8.42062 2.16073,9.99669 0.31014,11.0339 -0.90071,0.50485 -1.24394,0.30242 -2.15887,-1.27318 -1.14883,-1.97842 -7.25341,-20.62878 -7.25341,-22.16021 0,-0.49325 -1.68799,-1.9337 -3.75107,-3.201 -7.28247,-4.47344 -14.5063,-8.33043 -14.76529,-7.88356 -0.14418,0.24878 -0.44496,5.22718 -0.6684,11.06308 l -0.40628,10.61073 7.15588,7.76251 c 7.29613,7.91464 9.54708,11.15272 8.92776,12.84293 -0.72966,1.99139 -3.05783,1.0384 -7.4644,-3.0554 -2.37067,-2.20241 -5.04479,-4.82133 -5.94248,-5.81986 -0.8977,-0.99851 -1.83546,-1.81547 -2.08393,-1.81547 -0.24846,0 -0.45313,4.12482 -0.45483,9.16626 -0.004,12.27085 -0.9229,15.47565 -3.56124,12.4225 l 0,0 z" id="path2986" inkscape:connector-curvature="0" />
</svg>
