<?xml version="1.0" encoding="UTF-8" standalone="no"?>
<svg xmlns:dc="http://purl.org/dc/elements/1.1/" xmlns:cc="http://creativecommons.org/ns#" xmlns:rdf="http://www.w3.org/1999/02/22-rdf-syntax-ns#" xmlns:svg="http://www.w3.org/2000/svg" xmlns="http://www.w3.org/2000/svg" xmlns:sodipodi="http://sodipodi.sourceforge.net/DTD/sodipodi-0.dtd" xmlns:inkscape="http://www.inkscape.org/namespaces/inkscape" version="1.0" width="1024.000000pt" height="1024.000000pt" viewBox="0 0 1024.000000 1024.000000" preserveAspectRatio="xMidYMid meet" id="svg2" inkscape:version="0.48.5 r10040" sodipodi:docname="9311999.svg">
  <defs id="defs16" />
  <sodipodi:namedview pagecolor="#ffffff" bordercolor="#666666" borderopacity="1" objecttolerance="10" gridtolerance="10" guidetolerance="10" inkscape:pageopacity="0" inkscape:pageshadow="2" inkscape:window-width="954" inkscape:window-height="671" id="namedview14" showgrid="false" inkscape:zoom="0.184375" inkscape:cx="640" inkscape:cy="640" inkscape:window-x="1361" inkscape:window-y="3" inkscape:window-maximized="0" inkscape:current-layer="svg2" />
  <metadata id="metadata4">
Created by potrace 1.11, written by Peter Selinger 2001-2013
<rdf:RDF>
  <cc:Work rdf:about="">
    <dc:format>image/svg+xml</dc:format>
    <dc:type rdf:resource="http://purl.org/dc/dcmitype/StillImage" />
  </cc:Work>
</rdf:RDF>
</metadata>
  <path style="fill:#a0a0a0;stroke:none;fill-opacity:1" inkscape:connector-curvature="0" id="path8" d="m 502.8,224.1 c -56.1,5.4 -107.8,36.4 -139.4,83.5 l -7.4,11.1 -14.3,0.6 c -29.2,1.2 -55.8,10.7 -79.3,28.3 -9.3,7 -25.7,24.1 -31.7,33.2 -10.7,16 -18.2,33.6 -22.2,52.2 -2.4,11.3 -3,36.3 -1.1,48.5 4.8,31.3 17.9,57.1 40.5,79.6 20.8,20.7 42.1,32.3 71.6,39.2 9,2.1 10,2.1 200.5,2.5 212.8,0.3 200.9,0.6 221.9,-6.4 42.2,-14 73.4,-50.8 81.2,-95.4 1.8,-10.4 1.6,-30.6 -0.5,-41.2 -8,-41.4 -35.1,-74.9 -73.4,-90.7 -10.3,-4.3 -26.3,-8.1 -36.8,-8.8 l -9.1,-0.6 -2.3,-7.1 c -10,-31.3 -31.1,-62.3 -57.3,-84.3 -39.3,-33 -90.6,-49 -140.9,-44.2 z m 30.1,60 c 44.7,4.2 83.7,30.6 103.8,70.4 4.1,8 8.7,19.6 8.1,20 -8.1,4.8 -18.4,12.5 -20.7,15.4 -13.3,16.7 -6.1,40.6 14.2,47.5 9.5,3.2 17.3,1.6 29.4,-6.1 14.4,-9.1 25.1,-12 39.9,-11 25.6,1.8 48.3,20.6 54.9,45.3 1.9,7.1 2.1,22.9 0.5,29.9 -4.1,17.1 -16.5,32.7 -32.1,40.4 -15.5,7.6 -1,7.2 -210.2,6.9 l -187.2,-0.3 -7.5,-2.3 c -22.8,-7 -40.8,-22.1 -51,-42.7 -6.1,-12.2 -7.9,-19 -8.7,-31.7 -2.2,-35.8 18.3,-67.7 52.2,-81.3 19.9,-7.9 45.9,-6.9 64.8,2.7 12.9,6.5 19.1,11.8 35.1,30.3 6.3,7.2 11.1,9.7 20.2,10.3 12.9,0.8 23.4,-5.1 28.9,-16.1 5.3,-10.9 4.1,-21 -3.7,-32.8 -6.3,-9.6 -25.7,-28.4 -36.8,-35.8 -5.2,-3.5 -9.7,-6.5 -9.9,-6.7 -1.4,-1.3 13.3,-17.1 23.4,-24.9 23.3,-18.1 45.7,-26.2 78.5,-28.3 1.4,-0.1 7.6,0.3 13.9,0.9 z" />
  <path style="fill:#dcdcdc;stroke:none;fill-opacity:1" inkscape:connector-curvature="0" id="path10" d="m 572.3,641.4 c -1.8,0.8 -4.2,3 -5.3,4.8 -1.8,3 -2,5 -2,22 0,10.4 -0.2,18.8 -0.5,18.8 -0.2,0 -8.2,-3.9 -17.7,-8.6 -18.5,-9.1 -20.7,-9.6 -26.5,-5.9 -5.4,3.6 -6.7,13.3 -2.4,17.9 1.1,1.2 8.8,5.5 17,9.6 8.3,4.1 15.1,7.7 15.1,8 0,0.3 -6.5,4.4 -14.5,9.3 -7.9,4.8 -15.3,9.9 -16.4,11.4 -4.1,5.1 -2,14.8 3.9,17.8 6,3.1 9.4,2.1 25.5,-7.5 l 15,-9 0.5,19 0.5,19 3.1,3.1 c 2.3,2.3 4.3,3.2 7.5,3.6 5.3,0.5 8.6,-1.1 11.6,-5.6 2.2,-3.2 2.3,-4.3 2.3,-22.3 l 0,-18.8 17.2,8.6 c 15.5,7.8 17.6,8.6 21.5,8.1 9.5,-1 14,-11.2 8.6,-19.4 -0.9,-1.3 -8.4,-5.8 -17.4,-10.3 -8.8,-4.4 -15.9,-8.3 -15.9,-8.5 0,-0.2 6.6,-4.3 14.6,-9.1 8,-4.8 15.4,-9.8 16.5,-11.2 2.9,-3.7 2.6,-11.2 -0.6,-15.1 -3,-3.5 -8.5,-5.6 -12.3,-4.6 -1.5,0.3 -8.9,4.4 -16.5,9.1 -7.5,4.6 -14.2,8.4 -14.7,8.4 -0.5,0 -0.6,-6.7 -0.3,-16.3 0.5,-13.3 0.3,-16.9 -1,-19.9 -2.7,-6.3 -10.1,-9.2 -16.4,-6.4 z" />
  <path style="fill:#80d3ff;stroke:none;fill-opacity:1" inkscape:connector-curvature="0" id="path12" d="m 454,657.6 c -54.7,28.4 -76,44.6 -83,63.2 -5.5,14.3 -4.8,27.4 2.1,41.2 7.3,14.5 21.7,24.8 38.4,27.2 15.1,2.1 31.3,-3.2 42.2,-14 10.4,-10.2 15.9,-24.7 18.2,-47.6 1.8,-18.3 1.2,-78.6 -0.8,-78.6 -0.3,0 -8,3.9 -17.1,8.6 z m -9.3,54.1 c -1,27.1 -3.7,37.5 -11.3,44.2 -16.7,14.7 -43,-0.9 -37.4,-22.1 2.6,-9.4 12.2,-18.2 34.7,-31.7 7.5,-4.4 13.8,-8.1 14.1,-8.1 0.3,0 0.2,8 -0.1,17.7 z" />
</svg>
