<?xml version="1.0" encoding="UTF-8" standalone="no"?>
<svg xmlns:dc="http://purl.org/dc/elements/1.1/" xmlns:cc="http://creativecommons.org/ns#" xmlns:rdf="http://www.w3.org/1999/02/22-rdf-syntax-ns#" xmlns:svg="http://www.w3.org/2000/svg" xmlns="http://www.w3.org/2000/svg" xmlns:sodipodi="http://sodipodi.sourceforge.net/DTD/sodipodi-0.dtd" xmlns:inkscape="http://www.inkscape.org/namespaces/inkscape" version="1.0" width="1024.000000pt" height="1024.000000pt" viewBox="0 0 1024.000000 1024.000000" preserveAspectRatio="xMidYMid meet" id="svg2" inkscape:version="0.48.5 r10040" sodipodi:docname="sym9395991.svg">
  <defs id="defs30" />
  <sodipodi:namedview pagecolor="#ffffff" bordercolor="#666666" borderopacity="1" objecttolerance="10" gridtolerance="10" guidetolerance="10" inkscape:pageopacity="0" inkscape:pageshadow="2" inkscape:window-width="1772" inkscape:window-height="1087" id="namedview28" showgrid="false" inkscape:zoom="0.5" inkscape:cx="1093.9597" inkscape:cy="740.6787" inkscape:window-x="917" inkscape:window-y="68" inkscape:window-maximized="0" inkscape:current-layer="svg2" />
  <metadata id="metadata4">
Created by potrace 1.11, written by Peter Selinger 2001-2013
<rdf:RDF>
  <cc:Work rdf:about="">
    <dc:format>image/svg+xml</dc:format>
    <dc:type rdf:resource="http://purl.org/dc/dcmitype/StillImage" />
  </cc:Work>
</rdf:RDF>
</metadata>
  <path style="fill:#dcdcdc;fill-opacity:1;stroke:none" d="m 307.9,664.6 c -6.49172,3.42736 -5.08642,11.86336 -5.70801,17.96074 -0.25553,8.44569 -0.45932,16.8929 -0.69199,25.33926 -10.43375,-6.21499 -20.23349,-13.74391 -31.64454,-18.09943 -5.61067,-2.4653 -11.29725,1.63113 -13.5371,6.72267 -2.71067,5.53404 -0.29381,12.68266 5.27085,15.38103 8.76949,6.32476 18.41863,11.31152 27.21079,17.59573 -2.24495,5.15905 -9.8732,7.35296 -14.37618,10.96921 -5.77457,3.82088 -12.20238,6.98341 -17.11642,11.90205 -5.53397,7.61925 1.04721,20.98162 10.92937,19.07703 9.71831,-2.85466 17.81549,-9.31784 26.5155,-14.30968 2.24925,-1.37954 4.49849,-2.75907 6.74773,-4.13861 0.33333,12.66667 0.66667,25.33333 1,38 3.20771,2.94013 6.18069,7.22581 11.14314,6.4948 4.96236,0.98766 8.80317,-2.10912 11.87347,-5.54121 1.93714,-1.54525 0.67727,-4.49378 1.1351,-6.68835 0.28277,-10.68841 0.56553,-21.37683 0.84829,-32.06524 9.51404,5.73829 18.59348,12.25973 28.52207,17.26196 5.63648,2.21519 13.13845,1.37281 16.12227,-4.602 3.83833,-6.14134 0.83837,-13.89857 -5.2189,-17.22861 C 357.94338,742.09594 348.08351,736.87748 339,730.5 c 10.41434,-7.36718 22.2396,-12.77285 31.875,-21.2125 7.38983,-6.99175 0.18107,-21.26372 -9.78948,-20.0572 -6.66372,1.65808 -12.34625,6.05294 -18.33571,9.31218 -5.08563,3.11532 -10.16618,6.23894 -15.24981,9.35752 -0.33472,-12.6333 -0.66803,-25.26663 -1,-37.9 -3.78534,-4.21616 -8.9751,-7.89692 -14.97031,-6.72812 -1.27819,0.20656 -2.5356,0.6254 -3.62969,1.32812 z" id="path10" inkscape:connector-curvature="0" />
  <path style="fill:#dcdcdc;stroke:none;fill-opacity:1" inkscape:connector-curvature="0" id="path12" d="m 521.9,664.6 c -5,3.2 -5.4,4.7 -5.9,24.6 l -0.5,18.7 -14.5,-9.1 C 482.1,687 477.1,686.3 471.2,695 c -2.7,3.9 -2.6,9.2 0.1,13.4 0.9,1.3 8,6.3 15.9,11.1 7.9,4.8 14.9,9.3 15.6,10 1.1,1 -1.5,3 -13.6,10.5 -8.3,5 -16,10.2 -17.1,11.4 -4.6,4.9 -3.2,14.5 2.5,18.3 5.7,3.7 9.6,2.6 25.9,-7.5 l 15,-9.2 0.5,19 0.5,19 3.3,3.2 c 2.9,2.9 3.9,3.3 8.7,3.3 4.8,0 5.8,-0.4 8.7,-3.3 l 3.3,-3.2 0.5,-18.9 0.5,-18.9 14.5,9.1 c 13.4,8.5 14.9,9.1 19.7,9.2 4.6,0 5.7,-0.4 8.4,-3.1 2.3,-2.3 3.2,-4.3 3.6,-7.5 0.7,-7.1 -1.6,-9.5 -19.1,-20.4 -8.6,-5.3 -15.6,-9.8 -15.6,-10 0,-0.2 6.7,-4.4 15,-9.5 18,-11 20.4,-13.5 19.8,-20.2 -0.8,-7.6 -7.1,-12.7 -14,-11.4 -1.8,0.4 -9.8,4.7 -17.8,9.6 l -14.5,8.9 -0.5,-18.9 -0.5,-19 -3.2,-3.1 c -3.9,-3.9 -11.2,-5 -15.4,-2.3 z" />
  <path style="fill:#dcdcdc;stroke:none;fill-opacity:1" inkscape:connector-curvature="0" id="path14" d="m 735.9,664.6 c -5,3.2 -5.4,4.7 -5.9,24.6 l -0.5,18.7 -14.5,-9.1 C 696.1,687 691.1,686.3 685.2,695 c -2.7,3.9 -2.6,9.2 0.1,13.4 0.9,1.3 8,6.3 15.9,11.1 7.9,4.8 14.9,9.3 15.6,10 1.1,1 -1.5,3 -13.6,10.5 -8.3,5 -16,10.2 -17.1,11.4 -4.6,4.9 -3.2,14.5 2.5,18.3 5.7,3.7 9.6,2.6 25.9,-7.5 l 15,-9.2 0.5,19 0.5,19 3.3,3.2 c 2.9,2.9 3.9,3.3 8.7,3.3 4.8,0 5.8,-0.4 8.7,-3.3 l 3.3,-3.2 0.5,-18.9 0.5,-18.9 14.5,9.1 c 13.4,8.5 14.9,9.1 19.7,9.2 4.6,0 5.7,-0.4 8.4,-3.1 2.3,-2.3 3.2,-4.3 3.6,-7.5 0.7,-7.1 -1.6,-9.5 -19.1,-20.4 -8.6,-5.3 -15.6,-9.8 -15.6,-10 0,-0.2 6.7,-4.4 15,-9.5 18,-11 20.4,-13.5 19.8,-20.2 -0.8,-7.6 -7.1,-12.7 -14,-11.4 -1.8,0.4 -9.8,4.7 -17.8,9.6 l -14.5,8.9 -0.5,-18.9 -0.5,-19 -3.2,-3.1 c -3.9,-3.9 -11.2,-5 -15.4,-2.3 z" />
  <path style="fill:#dcdcdc;fill-opacity:1;stroke:none" d="m 209.8,774 c -3.71522,2.318 -2.46777,7.35551 -2.92106,11.02227 -0.13262,4.95908 -0.25233,9.91849 -0.37894,14.87773 -6.21535,-3.67179 -12.05376,-8.10629 -18.82518,-10.72379 -3.69687,-1.77735 -8.21078,0.40404 -9.21623,4.35807 -1.46436,3.92604 0.77309,7.9804 4.39427,9.71667 5.19341,3.86216 11.04687,6.78475 16.14714,10.74905 -6.173,5.06102 -14.05675,7.942 -19.5125,13.9 -2.92213,3.46415 -1.21965,9.27553 3.0125,10.8 3.66804,2.42225 7.46493,-0.96518 10.6875,-2.57344 4.63392,-2.7256 9.25892,-5.46816 13.8125,-8.32656 0.0764,7.34579 -0.19335,14.70414 0.2261,22.03926 0.48028,5.37429 8.14704,7.62397 11.97859,4.1334 3.40669,-2.70744 2.46942,-7.54334 2.77968,-11.36348 0.0298,-4.86964 0.01,-9.73946 0.0156,-14.60918 6.52643,3.82396 12.63945,8.5401 19.83979,11.04194 3.84694,1.60498 8.12089,-1.21205 8.86333,-5.15522 1.25151,-4.0429 -1.46427,-7.64042 -4.93439,-9.4074 C 240.68359,820.73334 234.97219,817.87748 230,814 c 6.1318,-4.68527 13.42843,-7.80283 19.31091,-12.84216 3.35922,-3.99786 1.79122,-11.80922 -3.99109,-12.4231 -5.52761,-0.14665 -10.17564,3.51866 -14.76095,6.15085 -2.68629,1.67147 -5.37258,3.34294 -8.05887,5.01441 -0.4376,-7.41969 -0.28472,-14.89775 -1.37891,-22.25879 -0.36681,-4.59806 -6.24108,-6.58143 -9.93828,-4.62246 -0.4928,0.28004 -0.94998,0.61695 -1.38281,0.98125 z" id="path16" inkscape:connector-curvature="0" />
  <path style="fill:#dcdcdc;fill-opacity:1;stroke:none" d="m 423.8,774 c -3.71522,2.318 -2.46777,7.35551 -2.92106,11.02227 -0.13262,4.95908 -0.25233,9.91849 -0.37894,14.87773 -6.21535,-3.67179 -12.05376,-8.10629 -18.82518,-10.72379 -3.69687,-1.77735 -8.21078,0.40404 -9.21623,4.35807 -1.46436,3.92604 0.77309,7.9804 4.39427,9.71667 5.19341,3.86216 11.04687,6.78475 16.14714,10.74905 -6.173,5.06102 -14.05675,7.942 -19.5125,13.9 -2.92213,3.46415 -1.21965,9.27553 3.0125,10.8 3.66804,2.42225 7.46493,-0.96518 10.6875,-2.57344 4.63392,-2.7256 9.25892,-5.46816 13.8125,-8.32656 0.0764,7.34579 -0.19335,14.70414 0.2261,22.03926 0.48028,5.37429 8.14704,7.62397 11.97859,4.1334 3.40669,-2.70744 2.46942,-7.54334 2.77969,-11.36348 0.0298,-4.86964 0.01,-9.73946 0.0156,-14.60918 6.52643,3.82396 12.63945,8.5401 19.83979,11.04194 3.84694,1.60498 8.12089,-1.21205 8.86333,-5.15522 1.25151,-4.0429 -1.46427,-7.64042 -4.93439,-9.4074 C 454.68359,820.73334 448.97219,817.87748 444,814 c 6.1318,-4.68527 13.42843,-7.80283 19.31091,-12.84216 3.35922,-3.99786 1.79122,-11.80922 -3.99109,-12.4231 -5.52761,-0.14665 -10.17564,3.51866 -14.76095,6.15085 -2.68629,1.67147 -5.37258,3.34294 -8.05887,5.01441 -0.4376,-7.41969 -0.28472,-14.89775 -1.37891,-22.25879 -0.36681,-4.59806 -6.24108,-6.58143 -9.93828,-4.62246 -0.4928,0.28004 -0.94998,0.61695 -1.38281,0.98125 z" id="path18" inkscape:connector-curvature="0" />
  <path style="fill:#dcdcdc;fill-opacity:1;stroke:none" d="m 637.8,774 c -3.71522,2.318 -2.46777,7.35551 -2.92106,11.02227 -0.13262,4.95908 -0.25233,9.91849 -0.37894,14.87773 -6.21535,-3.67179 -12.05376,-8.10629 -18.82518,-10.72379 -3.69687,-1.77735 -8.21078,0.40404 -9.21623,4.35807 -1.46436,3.92604 0.77309,7.9804 4.39427,9.71667 5.19341,3.86216 11.04687,6.78475 16.14714,10.74905 -6.173,5.06102 -14.05675,7.942 -19.5125,13.9 -2.92213,3.46415 -1.21965,9.27553 3.0125,10.8 3.66804,2.42225 7.46493,-0.96518 10.6875,-2.57344 4.63392,-2.7256 9.25892,-5.46816 13.8125,-8.32656 0.0764,7.34579 -0.19335,14.70414 0.2261,22.03926 0.48028,5.37429 8.14704,7.62397 11.97859,4.1334 3.40669,-2.70744 2.46942,-7.54334 2.77969,-11.36348 0.0298,-4.86964 0.01,-9.73946 0.0156,-14.60918 6.52643,3.82396 12.63945,8.5401 19.83979,11.04194 3.84694,1.60498 8.12089,-1.21205 8.86334,-5.15522 1.2515,-4.0429 -1.46428,-7.64042 -4.9344,-9.4074 C 668.68359,820.73334 662.97219,817.87748 658,814 c 6.1318,-4.68527 13.42843,-7.80283 19.31091,-12.84216 3.35922,-3.99786 1.79122,-11.80922 -3.99109,-12.4231 -5.52761,-0.14665 -10.17564,3.51866 -14.76095,6.15085 -2.68629,1.67147 -5.37258,3.34294 -8.05887,5.01441 -0.4376,-7.41969 -0.28472,-14.89775 -1.37891,-22.25879 -0.36681,-4.59806 -6.24108,-6.58143 -9.93828,-4.62246 -0.4928,0.28004 -0.94998,0.61695 -1.38281,0.98125 z" id="path20" inkscape:connector-curvature="0" />
  <path style="fill:#dcdcdc;fill-opacity:1;stroke:none" d="m 325,827 c -2.99422,3.50481 -1.54648,8.4335 -2.01791,12.62205 -0.0231,4.12828 0.15173,8.28186 -0.48209,12.37795 -7.07547,-3.46211 -13.16626,-9.1135 -20.9567,-10.97576 -6.02464,-0.45644 -10.24314,8.37146 -5.45452,12.43188 5.47975,5.10172 12.58471,7.90947 18.41122,12.54388 -3.88201,4.21663 -9.3364,6.49079 -13.92645,9.81872 -3.25974,2.13406 -7.79043,4.83383 -6.29222,9.42629 0.61898,3.44897 3.78771,7.2772 7.56923,6.54648 7.16087,-2.3388 13.09746,-7.22713 19.8525,-10.36895 2.65206,2.177 0.50139,7.06028 1.32667,10.32726 0.12033,4.31265 -0.63183,8.98556 1.28334,12.98793 2.73476,4.23964 10.25196,4.43656 12.33913,-0.53415 2.19081,-4.86459 0.94812,-10.34034 1.40482,-15.49039 0.0608,-2.54898 -0.91246,-9.93655 3.23339,-6.22605 5.91892,3.34732 11.45424,7.76355 18.13209,9.47417 6.19316,0.49635 10.39814,-8.80631 5.4896,-12.85214 C 359.00309,874.3424 352.12815,870.96427 346,866.5 c 6.31677,-4.81689 13.98773,-7.77516 19.6835,-13.39964 3.66464,-4.58492 -0.67222,-13.00375 -6.62442,-11.91423 -7.28189,2.18138 -13.31166,7.17059 -19.99846,10.46364 -2.17552,-2.60966 -0.44697,-7.06465 -1.09103,-10.41896 -0.10082,-4.28424 0.61477,-8.93378 -1.26694,-12.90813 C 334.15631,824.69742 328.24014,823.80264 325,827 z" id="path22" inkscape:connector-curvature="0" />
  <path style="fill:#dcdcdc;fill-opacity:1;stroke:none" d="m 539,827 c -2.99422,3.50481 -1.54648,8.4335 -2.01791,12.62205 -0.0231,4.12828 0.15173,8.28186 -0.48209,12.37795 -7.07547,-3.46211 -13.16626,-9.1135 -20.9567,-10.97576 -6.02464,-0.45644 -10.24314,8.37146 -5.45452,12.43188 5.47975,5.10172 12.58471,7.90947 18.41122,12.54388 -3.88201,4.21663 -9.3364,6.49079 -13.92645,9.81872 -3.25974,2.13406 -7.79043,4.83383 -6.29222,9.42629 0.61898,3.44897 3.78771,7.2772 7.56923,6.54648 7.16087,-2.3388 13.09746,-7.22713 19.8525,-10.36895 2.65206,2.177 0.50139,7.06028 1.32667,10.32726 0.12033,4.31265 -0.63183,8.98556 1.28334,12.98793 2.73476,4.23964 10.25196,4.43656 12.33913,-0.53415 2.19081,-4.86459 0.94812,-10.34034 1.40482,-15.49039 0.0608,-2.54898 -0.91246,-9.93655 3.23339,-6.22605 5.91892,3.34732 11.45424,7.76355 18.13209,9.47417 6.19316,0.49635 10.39814,-8.80631 5.4896,-12.85214 C 573.00309,874.3424 566.12815,870.96427 560,866.5 c 6.31677,-4.81689 13.98773,-7.77516 19.6835,-13.39964 3.66464,-4.58492 -0.67222,-13.00375 -6.62442,-11.91423 -7.28189,2.18138 -13.31166,7.17059 -19.99846,10.46364 -2.17552,-2.60966 -0.44697,-7.06465 -1.09103,-10.41896 -0.10082,-4.28424 0.61477,-8.93378 -1.26694,-12.90813 C 548.15631,824.69742 542.24014,823.80264 539,827 z" id="path24" inkscape:connector-curvature="0" />
  <path style="fill:#dcdcdc;fill-opacity:1;stroke:none" d="m 753,827 c -2.99422,3.50481 -1.54648,8.4335 -2.01791,12.62205 -0.0231,4.12828 0.15173,8.28186 -0.48209,12.37795 -7.07547,-3.46211 -13.16626,-9.1135 -20.9567,-10.97576 -6.02464,-0.45644 -10.24314,8.37146 -5.45452,12.43188 5.47975,5.10172 12.58471,7.90947 18.41122,12.54388 -3.88201,4.21663 -9.3364,6.49079 -13.92645,9.81872 -3.25974,2.13406 -7.79043,4.83383 -6.29222,9.42629 0.61898,3.44897 3.78771,7.2772 7.56923,6.54648 7.16087,-2.3388 13.09746,-7.22713 19.8525,-10.36895 2.65206,2.177 0.50139,7.06028 1.32667,10.32726 0.12033,4.31265 -0.63183,8.98556 1.28334,12.98793 2.73476,4.23964 10.25196,4.43656 12.33913,-0.53415 2.19081,-4.86459 0.94812,-10.34034 1.40482,-15.49039 0.0608,-2.54898 -0.91246,-9.93655 3.23339,-6.22605 5.91892,3.34732 11.45424,7.76355 18.13209,9.47417 6.19316,0.49635 10.39814,-8.80631 5.4896,-12.85214 C 787.00309,874.3424 780.12815,870.96427 774,866.5 c 6.31677,-4.81689 13.98773,-7.77516 19.6835,-13.39964 3.66464,-4.58492 -0.67222,-13.00375 -6.62442,-11.91423 -7.28189,2.18138 -13.31166,7.17059 -19.99846,10.46364 -2.17552,-2.60966 -0.44697,-7.06465 -1.09103,-10.41896 -0.10082,-4.28424 0.61477,-8.93378 -1.26694,-12.90813 C 762.15631,824.69742 756.24014,823.80264 753,827 z" id="path26" inkscape:connector-curvature="0" />
  <path style="fill:#a0a0a0;fill-opacity:1;stroke:none" inkscape:connector-curvature="0" id="path10-0" d="m 502.62182,219.92697 c -61.31641,5.14829 -118.62601,40.43288 -152.38039,93.92482 l -6.19234,9.91984 -14.81307,0.75342 c -40.43241,1.88352 -76.00806,18.70961 -103.20585,48.59477 -20.64116,22.60225 -34.11862,50.22719 -39.09678,80.11235 -2.30696,13.81249 -2.30696,39.67946 0,53.74309 9.47064,55.501 48.56745,102.46341 100.29177,120.29408 25.25509,8.78973 14.20599,8.41305 240.89456,8.03635 l 203.98328,-0.37674 11.77761,-3.39032 c 24.40514,-6.90625 41.52516,-17.45393 59.85938,-36.66584 17.48427,-18.45849 26.95492,-35.91241 33.51154,-61.77941 2.42837,-9.54316 2.79264,-14.1892 2.79264,-31.26641 0,-17.5795 -0.48569,-21.59768 -3.27831,-32.27095 -13.23463,-50.98061 -53.30278,-89.40439 -102.72016,-98.31971 -5.58525,-1.00453 -12.74895,-1.88352 -15.90584,-1.88352 l -5.70668,0 -4.00681,-11.67782 C 691.79204,308.20126 655.24501,265.50813 608.74169,241.14795 577.65852,224.9497 538.07606,217.03893 502.62182,219.92697 z m 37.39692,67.17884 c 47.71754,7.40852 88.99988,41.68853 107.21266,88.90209 1.69986,4.64601 3.03545,8.78976 2.7926,9.04089 -0.2428,0.25112 -4.73531,3.26475 -9.83488,6.78068 -14.81309,9.91986 -20.15549,19.71415 -18.81989,34.40559 1.69985,19.21191 19.79123,32.77324 37.88261,28.62949 3.64256,-0.87897 9.47065,-3.51589 12.99178,-6.02725 19.30557,-13.81247 38.61113,-17.07724 59.9808,-10.29656 19.79123,6.27836 38.24685,26.74597 42.86077,47.59024 1.82128,7.91077 1.57845,25.86697 -0.36426,33.27549 -5.58524,21.59768 -21.24824,38.92606 -42.49651,46.96242 l -8.62073,3.26474 -200.34071,0 c -225.83864,0 -205.68315,0.87898 -227.05284,-9.91986 -44.43921,-22.60222 -61.07357,-80.86574 -35.81849,-125.19123 12.02044,-21.0954 32.78302,-36.7914 55.60973,-42.06524 13.72031,-3.1392 35.57567,-2.00908 47.59611,2.63692 17.60571,6.52952 29.01905,15.82156 45.77481,36.66584 6.55661,8.16191 14.32741,12.05452 24.16229,12.05452 21.85538,0.12557 37.39695,-21.97437 30.23326,-43.0698 -5.09958,-14.94256 -31.32601,-42.94424 -51.23866,-54.74761 -2.18553,-1.2557 -4.00681,-2.63695 -4.00681,-3.01363 0,-1.63239 13.47745,-17.07725 20.15549,-22.97893 30.96175,-27.37379 70.90848,-39.17719 111.34087,-32.8988 z" />
  <g id="g2993">
    <path d="m 759.47595,113.61818 c -37.46522,63.40714 -76.36686,129.03492 -122.84896,199.79893 -8.75513,13.32879 -9.42628,17.27587 -7.06971,22.42642 1.33197,2.8972 2.86887,4.18484 5.8402,5.25786 3.07378,1.07304 31.04523,1.28764 132.88999,1.07304 128.48424,-0.3219 128.89408,-0.3219 131.66049,-2.57529 3.38117,-2.57527 4.71314,-6.76009 3.48363,-11.05224 -1.22952,-4.50673 -126.74244,-209.24165 -130.73836,-213.42647 -3.99592,-3.97023 -10.26772,-6.49419 -13.21728,-1.50225 z" id="path14-8" inkscape:connector-curvature="0" sodipodi:nodetypes="ssccccccs" style="fill:#ba381a;fill-opacity:1;stroke:none" />
    <path inkscape:transform-center-y="65.053824" inkscape:transform-center-x="45.961941" inkscape:connector-curvature="0" id="path2986" d="m 766.69898,316.178 c -2.53144,-6.40985 -1.42158,-13.54665 -2.33111,-20.24555 -3.87423,0.39898 -7.20167,6.46327 -11.24501,8.55158 -2.65419,3.36684 -8.02377,1.80581 -3.7735,-2.07071 4.85208,-5.90381 10.22114,-11.35592 15.35683,-17.01004 -0.091,-7.47706 0.25946,-14.98103 -0.37048,-22.43522 -6.49556,2.65856 -12.73313,6.13475 -18.60014,9.992 -3.84846,7.71776 -4.48726,16.8151 -9.24375,24.10261 -5.98883,2.15316 -2.17036,-8.67804 -1.26146,-11.84741 0.764,-2.59354 3.28319,-9.64508 -1.92094,-5.63102 -5.13956,2.41695 -9.98938,5.4882 -15.33574,7.43924 -4.85486,-4.08761 5.13309,-7.81943 8.25017,-10.16414 2.50072,-1.5314 10.2779,-5.23104 3.27141,-6.42608 -4.23229,-2.19188 -10.56179,-2.30295 -13.11167,-6.54602 3.35157,-5.26483 10.41582,0.20468 15.12373,0.73741 3.49542,1.08557 6.99003,2.17373 10.4851,3.26039 5.45207,-3.30633 11.45592,-5.92709 16.27614,-10.09238 -0.27081,-4.39448 -6.625,-5.43842 -9.85438,-7.79443 -2.36554,-1.07224 -4.66846,-2.8226 -7.07156,-3.48811 -7.67972,2.1771 -15.20521,5.50225 -23.26284,5.79916 -5.13493,-3.53677 4.82394,-6.25994 7.94293,-7.3623 3.15992,-0.82503 9.62425,-3.42069 3.3584,-5.59714 -4.4248,-3.14325 -10.2492,-4.94294 -13.42411,-9.51649 1.98317,-5.01094 9.12591,1.45237 12.836,2.51809 2.4881,1.31946 9.844,5.4176 6.84092,-0.73032 -0.7188,-4.89947 -3.99029,-10.14493 -2.38582,-14.96534 5.90161,-1.74977 6.01289,7.75471 7.89084,11.43425 1.34582,4.4078 2.63762,8.83188 3.9569,13.24767 6.44416,3.32453 12.88832,6.64906 19.33249,9.97358 0.10053,-7.76639 0.20105,-15.53278 0.30157,-23.29917 -5.58644,-5.87756 -11.70555,-11.32382 -16.59081,-17.81059 -0.19037,-6.87497 7.96374,1.68747 10.29088,3.76093 2.01108,1.81472 3.99937,3.65447 5.99836,5.48246 0.53771,-7.26204 0.0824,-14.69255 1.78771,-21.79381 4.88012,-3.94348 3.70233,7.25159 3.92855,10.26084 0.45672,3.3124 -0.60755,9.74703 1.03857,11.16083 4.39212,-3.6699 7.87246,-8.50739 12.79237,-11.48501 6.72048,1.70243 -2.65689,7.66795 -4.4521,10.62287 -3.0283,3.2495 -6.06196,6.494 -9.09248,9.74143 0.22874,7.85663 0.20917,15.72723 0.72796,23.57037 6.00775,-3.36487 11.87881,-6.96845 17.8125,-10.46188 2.34558,-8.01497 4.0922,-16.25309 7.23825,-23.99753 6.96472,-2.9076 2.09337,8.20069 1.57814,11.62697 -1.15362,3.1504 -2.58047,9.04095 2.52989,5.21885 5.12132,-2.1273 9.644,-5.9596 15.11363,-7.06126 5.19484,4.10154 -5.03434,7.54493 -7.97953,9.93204 -2.71868,1.77422 -10.97557,5.20511 -3.68996,6.83343 4.13171,2.38384 13.12537,1.8661 12.41163,8.25537 -5.01505,0.91796 -10.78617,-2.32417 -16.06179,-3.17701 -3.12163,-0.65731 -6.3892,-1.84397 -9.51465,-1.90435 -5.58307,3.09193 -11.50798,5.67649 -16.66596,9.45134 1.60655,3.53327 7.75326,5.04586 11.17508,7.59633 4.86713,4.34637 10.78412,2.67336 16.28324,0.56492 4.63941,-0.35144 13.83144,-7.20358 15.41032,-0.33014 -4.75707,3.7049 -11.21524,4.28635 -16.23614,7.5314 5.05987,4.65969 11.93119,7.08917 16.61767,12.14789 -0.58832,5.33557 -8.62193,-0.95432 -11.81801,-2.0175 -3.51998,-1.74721 -10.72078,-6.56445 -7.48873,0.81514 0.35669,4.81431 4.57378,10.7999 1.25105,14.97228 -4.39821,-1.60562 -4.32034,-9.35975 -6.52744,-13.47572 -2.1386,-4.7641 -1.50909,-11.47853 -7.31825,-13.57613 -4.60571,-2.61228 -9.07694,-5.745 -14.08295,-7.46609 -0.69089,7.20118 -0.73851,14.44895 -1.07468,21.67381 5.22575,5.89258 11.06779,11.31342 15.45479,17.88596 2.6886,6.88535 -6.15216,1.57792 -7.73471,-1.17737 -2.71148,-1.89492 -8.37761,-10.77724 -7.50293,-2.74337 -0.41978,6.04032 0.65209,12.38113 -1.35522,18.18488 -0.57855,0.99889 -1.91968,-0.0351 -2.28517,-0.64669 z" style="fill:#ffffff;fill-opacity:1;stroke:none" />
  </g>
</svg>
