<?xml version="1.0" encoding="UTF-8" standalone="no"?>
<svg xmlns:dc="http://purl.org/dc/elements/1.1/" xmlns:cc="http://creativecommons.org/ns#" xmlns:rdf="http://www.w3.org/1999/02/22-rdf-syntax-ns#" xmlns:svg="http://www.w3.org/2000/svg" xmlns="http://www.w3.org/2000/svg" xmlns:sodipodi="http://sodipodi.sourceforge.net/DTD/sodipodi-0.dtd" xmlns:inkscape="http://www.inkscape.org/namespaces/inkscape" version="1.0" width="1024.000000pt" height="1024.000000pt" viewBox="0 0 1024.000000 1024.000000" preserveAspectRatio="xMidYMid meet" id="svg2" inkscape:version="0.48.5 r10040" sodipodi:docname="9299969.svg">
  <defs id="defs28" />
  <sodipodi:namedview pagecolor="#ffffff" bordercolor="#666666" borderopacity="1" objecttolerance="10" gridtolerance="10" guidetolerance="10" inkscape:pageopacity="0" inkscape:pageshadow="2" inkscape:window-width="858" inkscape:window-height="548" id="namedview26" showgrid="false" inkscape:zoom="0.184375" inkscape:cx="640" inkscape:cy="640" inkscape:window-x="1068" inkscape:window-y="279" inkscape:window-maximized="0" inkscape:current-layer="svg2" />
  <metadata id="metadata4">
Created by potrace 1.11, written by Peter Selinger 2001-2013
<rdf:RDF>
  <cc:Work rdf:about="">
    <dc:format>image/svg+xml</dc:format>
    <dc:type rdf:resource="http://purl.org/dc/dcmitype/StillImage" />
  </cc:Work>
</rdf:RDF>
</metadata>
  <path style="fill:#cccccc;stroke:none" inkscape:connector-curvature="0" id="path8" d="m 504.6,223.1 c -56.2,5 -108.4,36.1 -140.2,83.5 l -7.4,11.1 -13.3,0.6 c -36.2,1.5 -67.4,14.7 -92.9,39.5 -22,21.3 -35,44.9 -41.5,75.2 -2.5,12 -2.5,42 0,54 6.5,30.5 19.6,54.1 41.9,75.5 19.8,19 41.7,30.7 68.8,36.7 l 10.5,2.3 196,0 196,0 9.5,-2.6 c 26.4,-7.4 46.4,-19.2 61.9,-36.7 20.9,-23.7 31.4,-51 31.4,-81.7 0,-14.6 -1.7,-25.5 -6.2,-38.5 C 806.9,405.8 778.7,377.5 743,365.6 732.2,362 716.9,359 709,359 l -4.5,0 -3.4,-9.9 c -4.4,-13.2 -13.2,-30.5 -21.9,-43.2 -32.5,-47.7 -84,-77.8 -141.7,-82.8 -13.5,-1.2 -18.7,-1.2 -32.9,0 z m 40.3,61.5 c 24.1,4.3 47.3,15.9 65.8,32.9 8.9,8.1 20.4,23.2 26.1,34.2 4,7.7 9.6,21.3 9,21.7 -13.7,8.9 -18.4,12.5 -21.3,16.3 -14.4,18.9 -2.4,45.9 21.5,48 6.9,0.7 13.9,-1.4 20.8,-6.2 11.6,-7.9 20.8,-11.3 33.3,-12.2 28.7,-2 56,17.7 63.4,45.7 0.8,3.1 1.5,9.9 1.5,15.5 0,11.8 -1.5,18.2 -6.7,28.5 -7.8,15.6 -26,29.1 -42.9,31.9 -5.1,0.9 -57.1,1.1 -193.9,0.9 l -187,-0.3 -7.3,-2.3 C 299.6,530.7 280.1,512 270.8,485 c -3.1,-9.1 -3.3,-10.1 -3.3,-25 0,-14.9 0.2,-15.9 3.3,-25 5.6,-16.3 14.2,-28.8 26.6,-38.6 36.8,-29.3 89,-22.6 117.4,15.1 5.7,7.6 8.5,10.1 14.7,13.1 6,2.9 15.7,3.2 22.8,0.8 9.7,-3.3 17.9,-13.9 19.3,-25 0.8,-6.9 -1.4,-14.3 -6.8,-22.4 -6.5,-9.9 -25.7,-28.6 -36.3,-35.5 -4.9,-3.2 -9.4,-6.2 -9.9,-6.6 -1.3,-1.1 6.5,-10.8 14.8,-18.5 7.6,-7.1 21.6,-16.9 30.5,-21.4 24.1,-12 53.6,-16.2 81,-11.4 z" />
  <path style="fill:#cccccc;stroke:none" inkscape:connector-curvature="0" id="path10" d="m 265.5,703.4 c -6.3,2.8 -10.5,9.4 -10.5,16.6 0,5 1.5,8.8 4.8,12.3 5.5,5.9 3.5,5.7 61.8,5.7 l 53.7,0 4.3,-2.5 c 12.3,-7.2 10.6,-27.3 -2.9,-32.4 -4.5,-1.7 -107.3,-1.4 -111.2,0.3 z" />
  <path style="fill:#cccccc;stroke:none" inkscape:connector-curvature="0" id="path12" d="m 454.5,703.4 c -6.3,2.8 -10.5,9.4 -10.5,16.6 0,5 1.5,8.8 4.8,12.3 5.5,5.9 3.5,5.7 61.8,5.7 l 53.7,0 4.3,-2.5 c 12.3,-7.2 10.6,-27.3 -2.9,-32.4 -4.5,-1.7 -107.3,-1.4 -111.2,0.3 z" />
  <path style="fill:#cccccc;stroke:none" inkscape:connector-curvature="0" id="path14" d="m 643.5,703.4 c -3.7,1.7 -8,6.2 -9.4,9.9 -3,8 0.3,18.1 7.3,22.2 l 4.3,2.5 53.7,0 c 58.3,0 56.3,0.2 61.8,-5.7 8.6,-9.1 5.1,-24.8 -6.5,-29.2 -4.5,-1.7 -107.3,-1.4 -111.2,0.3 z" />
  <path style="fill:#cccccc;stroke:none" inkscape:connector-curvature="0" id="path16" d="m 359.2,780.1 c -15.2,7.6 -12.1,30.2 4.8,33.8 7,1.5 97,1.5 104,0 13.1,-2.8 18.8,-16.9 11.4,-28.2 -1.5,-2.3 -4.2,-4.6 -6.7,-5.8 -4,-1.7 -7.3,-1.9 -56.7,-1.9 -51.4,0 -52.6,0 -56.8,2.1 z" />
  <path style="fill:#cccccc;stroke:none" inkscape:connector-curvature="0" id="path18" d="m 548.2,780.1 c -15.2,7.5 -12.1,30.2 4.6,33.8 3.5,0.7 21,1.1 52.2,1.1 52.9,0 55.5,-0.2 61.2,-5.9 8.8,-8.9 6.5,-24.2 -4.5,-29.2 -4,-1.7 -7.3,-1.9 -56.7,-1.9 -51.4,0 -52.6,0 -56.8,2.1 z" />
  <path style="fill:#cccccc;stroke:none" inkscape:connector-curvature="0" id="path20" d="m 265,855.9 c -10.4,5.5 -13.3,19.2 -5.8,27.7 6.4,7.2 3.3,6.9 62.3,6.9 l 53,0 4.3,-2.5 c 13.1,-7.5 11.8,-27.7 -2.1,-32.9 -1.9,-0.7 -20.7,-1.1 -55.5,-1.1 -49.5,0 -52.9,0.1 -56.2,1.9 z" />
  <path style="fill:#cccccc;stroke:none" inkscape:connector-curvature="0" id="path22" d="m 454.5,855.4 c -13.2,5.9 -14.1,25 -1.7,32.4 l 4.7,2.7 53,0 53,0 4.7,-2.7 c 12.7,-7.5 11.2,-27.5 -2.5,-32.7 -4.5,-1.7 -107.3,-1.4 -111.2,0.3 z" />
  <path style="fill:#cccccc;stroke:none" inkscape:connector-curvature="0" id="path24" d="m 643.5,855.4 c -13.4,6 -14.2,25.3 -1.3,32.6 l 4.3,2.5 53,0 c 59,0 55.9,0.3 62.3,-6.9 7.5,-8.5 4.6,-22.2 -5.8,-27.7 -3.3,-1.8 -6.7,-1.9 -56.5,-1.9 -42.1,0.1 -53.6,0.4 -56,1.4 z" />
</svg>
